<svg xmlns="http://www.w3.org/2000/svg" version="1.0" width="133.000000pt" height="132.000000pt" viewBox="0 0 133.000000 132.000000" preserveAspectRatio="xMidYMid meet">
<metadata>
Created by potrace 1.16, written by Peter Selinger 2001-2019
</metadata>
<g transform="translate(0.000000,132.000000) scale(0.100000,-0.100000)" fill="#000000" stroke="none">
<path d="M522 1224 c-134 -36 -263 -129 -341 -245 -108 -161 -122 -398 -35 -572 76 -152 221 -268 384 -308 70 -17 199 -17 270 0 191 46 353 196 413 381 34 105 40 179 23 280 -39 224 -209 407 -431 465 -73 19 -212 19 -283 -1z m238 -18 c443 -80 611 -614 295 -932 -118 -118 -256 -171 -420 -161 -255 15 -458 191 -510 442 -64 308 149 608 465 654 78 12 87 12 170 -3z"/>
<path d="M482 891 c-11 -6 -9 -9 6 -13 20 -6 20 -8 -9 -119 -16 -63 -29 -130 -29 -149 0 -52 23 -80 67 -80 47 0 108 59 118 114 16 84 -33 143 -94 112 l-29 -15 19 72 c10 40 19 75 19 80 0 10 -52 9 -68 -2z m114 -167 c16 -61 -37 -184 -79 -184 -38 0 -46 45 -22 128 23 76 87 112 101 56z"/>
<path d="M719 741 c-16 -16 -29 -37 -29 -45 0 -26 15 -18 27 14 11 29 38 49 50 36 4 -3 -4 -40 -17 -82 -22 -69 -23 -78 -9 -102 12 -23 22 -27 57 -27 23 0 42 -4 42 -10 0 -23 -41 -75 -64 -81 -33 -8 -51 3 -36 21 13 16 5 35 -15 35 -18 0 -27 -28 -15 -51 15 -26 53 -33 86 -16 56 29 74 60 105 179 33 130 35 148 14 148 -14 0 -20 -17 -46 -125 -14 -58 -45 -97 -74 -93 -27 4 -32 54 -11 116 21 61 20 89 -3 102 -27 14 -29 14 -62 -19z"/>
</g>
</svg>