<svg xmlns="http://www.w3.org/2000/svg" version="1.0" width="125.000000pt" height="114.000000pt" viewBox="0 0 125.000000 114.000000" preserveAspectRatio="xMidYMid meet">

<g transform="translate(0.000000,114.000000) scale(0.100000,-0.100000)" fill="#000000" stroke="none">
<path d="M517 1029 c-70 -17 -148 -61 -213 -121 -177 -166 -204 -435 -64 -630 l39 -55 -45 -44 c-29 -29 -41 -46 -34 -53 7 -7 25 4 54 33 l44 43 58 -40 c199 -136 459 -111 626 59 189 193 182 502 -16 687 -65 60 -144 105 -217 121 -53 13 -180 12 -232 0z m268 -39 c115 -40 204 -120 262 -237 32 -66 37 -86 41 -165 6 -111 -15 -195 -67 -276 -128 -197 -380 -269 -586 -166 -27 14 -65 37 -83 51 l-34 26 68 68 c46 46 65 72 58 79 -6 6 -31 -12 -74 -55 -35 -36 -68 -65 -72 -65 -18 0 -87 123 -103 184 -27 100 -18 222 23 309 69 148 184 237 342 267 60 11 160 2 225 -20z"/>
<path d="M482 660 c-88 -54 -106 -187 -29 -214 22 -8 35 -7 59 7 28 16 31 16 42 1 19 -25 57 -13 79 24 13 22 16 37 10 43 -6 6 -15 -5 -26 -31 -8 -22 -20 -40 -26 -40 -16 0 -13 46 9 130 20 76 15 105 -13 81 -11 -9 -17 -8 -27 4 -17 20 -39 19 -78 -5z m78 -20 c17 -32 -8 -128 -42 -163 -56 -57 -92 -10 -65 84 26 87 81 128 107 79z"/>
<path d="M783 659 c-80 -39 -106 -145 -48 -199 20 -19 32 -22 69 -18 46 6 110 43 100 59 -3 5 -19 -1 -35 -15 -15 -13 -43 -27 -61 -31 -26 -6 -35 -3 -50 15 -19 23 -23 57 -10 76 4 6 25 14 47 18 66 11 95 27 102 54 4 19 0 30 -17 44 -29 23 -45 23 -97 -3z m91 -14 c9 -24 -3 -43 -36 -54 -74 -26 -99 -5 -52 43 30 29 78 35 88 11z"/>
</g>
</svg>