<svg xmlns="http://www.w3.org/2000/svg" version="1.0" width="60.000000pt" height="58.000000pt" viewBox="0 0 60.000000 58.000000" preserveAspectRatio="xMidYMid meet">

<g transform="translate(0.000000,58.000000) scale(0.100000,-0.100000)" fill="#000000" stroke="none">
<path d="M230 541 c-140 -46 -215 -179 -176 -313 31 -109 128 -181 241 -181 130 1 227 86 250 220 15 90 -49 209 -136 253 -43 23 -141 34 -179 21z m167 -40 c130 -66 168 -228 80 -343 -45 -58 -105 -88 -179 -88 -136 0 -231 93 -231 225 -1 172 179 284 330 206z"/>
<path d="M284 416 c-31 -14 -70 -77 -59 -96 11 -17 43 -11 59 12 18 26 21 48 5 48 -5 0 -7 -4 -4 -10 9 -14 -13 -50 -30 -50 -18 0 -19 11 -3 45 23 51 93 65 104 21 9 -38 -13 -74 -70 -111 -56 -36 -86 -68 -86 -94 0 -11 3 -10 14 4 13 18 15 18 56 1 35 -14 48 -15 66 -6 24 13 50 60 34 60 -6 0 -10 -4 -10 -10 0 -19 -41 -31 -86 -24 -38 5 -43 9 -32 21 6 8 33 25 59 38 52 27 89 67 89 97 0 22 -43 68 -62 68 -7 -1 -27 -7 -44 -14z"/>
</g>
</svg>