<svg xmlns="http://www.w3.org/2000/svg" version="1.0" width="132.000000pt" height="134.000000pt" viewBox="0 0 132.000000 134.000000" preserveAspectRatio="xMidYMid meet">

<g transform="translate(0.000000,134.000000) scale(0.100000,-0.100000)" fill="#000000" stroke="none">
<path d="M491 1214 c-302 -81 -487 -390 -416 -693 38 -161 159 -313 305 -385 230 -113 490 -68 671 115 196 197 222 497 63 730 l-52 77 49 48 c33 32 46 51 39 58 -7 7 -26 -6 -58 -37 -26 -26 -50 -47 -53 -47 -4 0 -24 14 -45 31 -54 43 -139 85 -211 103 -75 20 -219 20 -292 0z m302 -31 c66 -19 119 -46 180 -91 l49 -35 -51 -51 c-46 -47 -63 -76 -44 -76 4 0 31 24 61 53 l53 52 30 -35 c71 -85 119 -225 119 -348 0 -151 -53 -275 -165 -388 -175 -176 -424 -212 -655 -94 -25 13 -79 57 -120 99 -116 117 -160 223 -160 387 0 54 6 112 16 145 89 299 394 469 687 382z"/>
<path d="M650 749 c-85 -34 -127 -142 -79 -203 24 -30 66 -35 103 -11 21 14 24 14 36 0 22 -26 58 -18 80 18 21 34 25 47 13 47 -5 0 -15 -15 -23 -32 -16 -35 -35 -46 -42 -26 -3 7 4 50 14 96 20 82 18 126 -3 105 -8 -8 -19 -7 -37 3 -31 16 -29 16 -62 3z m63 -30 c13 -18 13 -27 0 -77 -20 -76 -27 -87 -63 -102 -46 -19 -64 1 -57 61 13 109 81 175 120 118z"/>
<path d="M956 750 c-64 -20 -115 -101 -101 -158 3 -15 16 -37 27 -49 37 -39 138 -27 177 21 18 21 5 20 -27 -3 -34 -23 -78 -34 -103 -26 -24 8 -41 48 -33 80 5 19 14 24 55 29 67 9 98 25 106 54 10 42 -42 70 -101 52z m78 -32 c17 -27 -14 -50 -73 -56 -62 -6 -68 12 -20 53 36 29 75 31 93 3z"/>
<path d="M225 660 c-11 -17 17 -21 140 -18 84 2 120 7 123 16 5 15 -253 18 -263 2z"/>
</g>
</svg>