<svg xmlns="http://www.w3.org/2000/svg" version="1.0" width="85.000000pt" height="93.000000pt" viewBox="0 0 85.000000 93.000000" preserveAspectRatio="xMidYMid meet">
    <metadata>
Created by potrace 1.16, written by Peter Selinger 2001-2019
    </metadata>
    <g transform="translate(0.000000,93.000000) scale(0.100000,-0.100000)" fill="#000000" stroke="none">
        <path d="M293 876 c-65 -21 -124 -60 -175 -114 -56 -59 -71 -89 -96 -178 -22 -80 -17 -154 19 -248 41 -110 175 -222 289 -241 34 -6 40 -11 40 -31 0 -13 5 -24 10 -24 6 0 10 11 10 25 0 22 4 25 35 25 31 0 35 -3 35 -25 0 -14 5 -25 10 -25 6 0 10 11 10 24 0 20 9 26 53 41 147 47 251 168 278 323 30 168 -67 351 -226 427 -51 24 -75 29 -155 32 -61 2 -110 -2 -137 -11z m269 -29 c116 -54 179 -122 217 -235 40 -117 18 -254 -56 -355 -48 -65 -139 -126 -210 -142 l-33 -7 0 51 c0 28 -4 51 -10 51 -5 0 -10 -25 -10 -55 l0 -55 -35 0 -35 0 0 49 c0 28 -4 53 -10 56 -6 4 -10 -15 -10 -48 l0 -55 -40 9 c-248 56 -377 337 -258 561 93 175 318 255 490 175z"/>
        <path d="M190 570 c-22 -22 -25 -36 -10 -45 16 -10 33 5 21 19 -14 17 6 36 36 36 28 0 47 -33 38 -67 -3 -14 -29 -49 -57 -79 l-51 -54 65 0 c60 0 66 2 72 23 9 33 7 44 -5 25 -7 -12 -22 -18 -49 -18 l-40 0 50 48 c30 29 50 57 50 70 0 31 -35 62 -70 62 -17 0 -39 -9 -50 -20z"/>
        <path d="M395 581 c-6 -11 9 -23 19 -14 9 9 7 23 -3 23 -6 0 -12 -4 -16 -9z"/>
        <path d="M350 501 c-16 -31 -12 -35 9 -10 29 36 34 18 12 -38 -11 -28 -16 -55 -11 -62 11 -19 41 -9 58 19 l14 25 -20 -25 c-30 -35 -37 -19 -17 39 9 28 14 55 10 61 -10 17 -44 11 -55 -9z"/>
        <path d="M465 490 c-9 -17 -15 -48 -13 -68 2 -30 7 -38 26 -40 13 -2 30 2 38 8 11 10 17 10 28 0 24 -19 59 -7 78 25 22 38 28 96 10 102 -9 4 -11 -5 -6 -34 4 -30 1 -43 -16 -61 -30 -32 -55 -25 -54 16 2 38 -13 43 -22 7 -8 -33 -40 -51 -60 -34 -18 15 -18 33 2 70 8 17 13 33 10 36 -2 3 -12 -9 -21 -27z"/>
    </g>
</svg>