<svg xmlns="http://www.w3.org/2000/svg" version="1.0" width="79.000000pt" height="87.000000pt" viewBox="0 0 79.000000 87.000000" preserveAspectRatio="xMidYMid meet">
    <metadata>
Created by potrace 1.16, written by Peter Selinger 2001-2019
    </metadata>
    <g transform="translate(0.000000,87.000000) scale(0.100000,-0.100000)" fill="#000000" stroke="none">
        <path d="M351 768 c-1 -20 -6 -28 -18 -28 -79 0 -203 -93 -250 -188 -24 -50 -28 -68 -28 -147 0 -83 3 -95 35 -153 62 -116 162 -176 295 -177 71 0 88 4 147 33 73 36 123 86 160 161 19 38 23 62 23 141 0 84 -3 101 -27 146 -48 91 -175 184 -250 184 -13 0 -18 8 -19 28 -2 23 -2 24 -6 5 -3 -16 -11 -23 -28 -23 -17 0 -25 7 -28 23 -4 19 -4 18 -6 -5z m1 -105 l2 -68 3 68 c4 64 5 67 28 67 24 0 25 -3 27 -67 l2 -68 3 68 4 68 32 -7 c94 -20 170 -78 218 -166 31 -58 34 -70 33 -148 0 -95 -19 -147 -78 -217 -92 -107 -269 -136 -398 -66 -61 33 -103 80 -137 153 -35 74 -36 180 -2 258 31 68 120 152 187 174 75 25 74 26 76 -49z"/>
        <path d="M457 513 c-10 -10 -8 -33 3 -33 5 0 7 7 3 16 -4 12 0 15 23 12 43 -5 43 -33 -2 -79 l-38 -39 47 0 c32 0 47 4 47 13 0 9 -10 12 -32 10 l-33 -4 33 28 c34 29 40 51 20 71 -13 13 -60 16 -71 5z"/>
        <path d="M345 461 c3 -6 -2 -39 -11 -75 -18 -73 -11 -96 31 -96 45 0 80 73 50 104 -9 9 -21 16 -26 16 -6 0 -4 -7 5 -15 11 -11 12 -23 5 -47 -11 -40 -23 -52 -43 -45 -19 7 -20 25 -5 64 6 15 13 45 15 66 3 28 0 37 -12 37 -8 0 -13 -4 -9 -9z"/>
        <path d="M630 449 c0 -5 5 -7 10 -4 6 3 10 8 10 11 0 2 -4 4 -10 4 -5 0 -10 -5 -10 -11z"/>
        <path d="M616 396 c2 -6 -2 -29 -11 -49 -9 -21 -13 -42 -10 -47 10 -16 42 -11 49 6 10 26 7 29 -8 8 -22 -29 -28 -12 -11 29 19 45 19 53 1 60 -9 4 -13 1 -10 -7z"/>
        <path d="M147 353 c18 -2 50 -2 70 0 21 2 7 4 -32 4 -38 0 -55 -2 -38 -4z"/>
    </g>
</svg>