<svg xmlns="http://www.w3.org/2000/svg" version="1.0" width="151.000000pt" height="140.000000pt" viewBox="0 0 151.000000 140.000000" preserveAspectRatio="xMidYMid meet">
<metadata>
Created by potrace 1.16, written by Peter Selinger 2001-2019
</metadata>
<g transform="translate(0.000000,140.000000) scale(0.100000,-0.100000)" fill="#000000" stroke="none">
<path d="M612 1350 c-241 -63 -425 -248 -488 -490 -22 -84 -22 -235 -1 -320 63 -243 254 -434 497 -497 86 -21 236 -21 320 1 303 79 510 343 510 651 0 113 -26 219 -77 318 -51 99 -181 229 -280 280 -146 76 -327 97 -481 57z m328 -27 c310 -75 523 -388 480 -705 -39 -281 -242 -498 -520 -554 -214 -43 -416 21 -575 181 -121 120 -179 244 -191 410 -18 225 95 453 285 580 160 106 329 134 521 88z"/>
<path d="M875 818 c-83 -45 -132 -158 -101 -232 24 -58 73 -72 120 -35 l27 22 15 -22 c18 -26 55 -27 76 -3 18 20 40 83 33 90 -7 7 -10 3 -34 -52 -19 -45 -23 -48 -37 -34 -14 13 -12 27 14 130 30 118 29 155 -2 128 -14 -11 -19 -10 -34 4 -21 18 -48 20 -77 4z m83 -48 c6 -37 -29 -160 -54 -190 -45 -53 -94 -41 -94 25 0 61 38 161 71 190 28 23 34 24 53 12 11 -8 22 -24 24 -37z"/>
<path d="M1212 809 c-111 -55 -131 -237 -30 -273 38 -13 95 2 134 36 46 41 37 46 -17 10 -24 -17 -56 -33 -71 -36 -52 -12 -82 47 -62 122 5 18 13 22 45 22 84 0 149 52 130 102 -17 44 -62 50 -129 17z m103 -34 c0 -35 -35 -61 -94 -69 l-43 -7 7 28 c20 81 130 121 130 48z"/>
<path d="M232 708 c6 -16 307 -19 311 -3 1 6 -57 11 -156 13 -125 2 -158 0 -155 -10z"/>
</g>
</svg>