<svg xmlns="http://www.w3.org/2000/svg" version="1.0" width="128.000000pt" height="128.000000pt" viewBox="0 0 128.000000 128.000000" preserveAspectRatio="xMidYMid meet">
<metadata>
Created by potrace 1.16, written by Peter Selinger 2001-2019
</metadata>
<g transform="translate(0.000000,128.000000) scale(0.100000,-0.100000)" fill="#000000" stroke="none">
<path d="M490 1205 c-100 -28 -180 -75 -260 -155 -117 -117 -170 -243 -170 -405 0 -162 53 -290 169 -406 94 -94 187 -143 311 -165 252 -44 506 88 618 319 41 85 56 157 56 257 -1 243 -159 461 -393 544 -75 26 -253 32 -331 11z m313 -35 c123 -39 220 -111 290 -218 150 -224 122 -507 -68 -697 -218 -218 -561 -218 -779 1 -109 108 -160 235 -159 394 0 148 46 261 147 369 120 127 267 186 434 175 40 -3 101 -14 135 -24z"/>
<path d="M483 805 c-71 -31 -113 -155 -69 -204 23 -25 67 -27 100 -6 21 14 24 14 29 0 4 -9 19 -15 37 -15 26 0 33 6 46 36 8 20 12 39 8 43 -4 3 -8 2 -11 -4 -11 -31 -30 -59 -40 -63 -19 -6 -16 40 7 128 11 41 20 76 20 78 0 2 -10 2 -22 1 -13 -2 -33 2 -45 9 -26 14 -20 14 -60 -3z m67 -25 c17 -32 -8 -128 -41 -162 -55 -56 -88 -22 -68 69 21 92 82 144 109 93z"/>
<path d="M725 807 c-24 -13 -42 -35 -48 -59 -7 -26 12 -22 22 5 12 31 39 53 52 40 6 -6 2 -30 -11 -68 -36 -106 -20 -150 52 -143 29 3 37 0 33 -10 -3 -8 -5 -17 -5 -21 0 -17 -54 -61 -75 -61 -30 0 -36 9 -22 31 13 21 5 34 -18 26 -23 -9 -18 -45 10 -63 33 -21 86 -4 119 39 28 36 90 267 76 281 -16 16 -27 -3 -45 -86 -26 -113 -79 -165 -106 -104 -9 19 -7 38 11 90 12 37 19 73 16 81 -9 23 -39 35 -61 22z"/>
</g>
</svg>