<svg xmlns="http://www.w3.org/2000/svg" version="1.0" width="95.000000pt" height="92.000000pt" viewBox="0 0 95.000000 92.000000" preserveAspectRatio="xMidYMid meet">

    <g transform="translate(0.000000,92.000000) scale(0.100000,-0.100000)" fill="#000000" stroke="none">
        <path d="M404 830 c-71 -15 -137 -52 -194 -110 -120 -119 -149 -284 -79 -436 36 -77 131 -165 209 -195 88 -33 200 -33 283 0 81 32 168 115 209 199 30 61 33 74 33 162 0 87 -3 101 -33 161 -77 160 -262 254 -428 219z m213 -42 c75 -28 155 -104 195 -186 30 -60 33 -75 33 -152 -1 -111 -33 -186 -111 -260 -79 -75 -149 -104 -249 -104 -113 1 -182 29 -261 108 -76 76 -106 147 -107 252 -1 104 31 181 104 255 109 112 249 143 396 87z"/>
        <path d="M538 593 c-19 -32 -63 -109 -99 -172 -42 -74 -74 -120 -94 -132 l-30 -19 55 0 c49 1 53 2 36 15 -18 13 -17 15 6 57 23 43 24 43 86 46 l62 3 0 -51 c0 -43 -3 -52 -22 -60 -17 -6 -5 -9 47 -9 48 0 63 3 49 9 -25 10 -30 38 -40 233 -4 70 -10 130 -15 132 -4 3 -23 -21 -41 -52z m15 -185 c-5 -9 -103 -11 -103 -3 0 3 21 43 48 88 l47 82 7 -80 c3 -44 4 -83 1 -87z"/>
    </g>
</svg>