<svg xmlns="http://www.w3.org/2000/svg" version="1.0" width="91.000000pt" height="96.000000pt" viewBox="0 0 91.000000 96.000000" preserveAspectRatio="xMidYMid meet">
    <metadata>
Created by potrace 1.16, written by Peter Selinger 2001-2019
    </metadata>
    <g transform="translate(0.000000,96.000000) scale(0.100000,-0.100000)" fill="#000000" stroke="none">
        <path d="M370 906 c-80 -17 -155 -62 -216 -130 -75 -83 -98 -145 -99 -266 0 -83 4 -103 28 -154 55 -119 135 -190 257 -229 59 -19 70 -25 70 -44 0 -13 5 -23 10 -23 6 0 10 11 10 25 0 22 4 25 35 25 31 0 35 -3 35 -25 0 -33 18 -32 22 1 2 21 12 29 62 45 110 37 181 102 237 214 113 228 -39 517 -295 564 -71 13 -85 13 -156 -3z m191 -22 c108 -32 199 -110 248 -213 23 -49 26 -68 26 -161 0 -96 -3 -110 -29 -165 -49 -100 -155 -186 -258 -211 -28 -6 -28 -6 -28 45 0 28 -4 51 -10 51 -5 0 -10 -22 -10 -49 0 -51 -9 -61 -51 -61 -16 0 -19 7 -19 55 0 30 -4 55 -10 55 -5 0 -10 -23 -10 -51 l0 -52 -37 6 c-103 17 -217 107 -269 212 -26 55 -29 69 -29 165 0 99 2 110 33 172 83 169 274 254 453 202z"/>
        <path d="M360 600 c-22 -22 -25 -36 -10 -45 16 -10 33 5 21 19 -14 17 6 36 36 36 28 0 47 -33 38 -67 -3 -14 -29 -49 -57 -79 l-51 -54 65 0 c60 0 66 2 72 23 9 33 7 44 -5 25 -7 -12 -22 -18 -49 -18 l-40 0 50 48 c30 29 50 57 50 70 0 31 -35 62 -70 62 -17 0 -39 -9 -50 -20z"/>
        <path d="M565 611 c-6 -11 9 -23 19 -14 9 9 7 23 -3 23 -6 0 -12 -4 -16 -9z"/>
        <path d="M172 538 c-2 -36 -4 -38 -37 -38 -19 0 -35 -4 -35 -10 0 -5 15 -10 34 -10 33 0 35 -2 39 -37 l4 -38 1 38 c2 35 4 37 37 37 19 0 35 5 35 10 0 6 -15 10 -34 10 -33 0 -35 2 -39 38 l-4 37 -1 -37z"/>
        <path d="M520 531 c-16 -31 -12 -35 9 -10 29 36 34 18 12 -38 -11 -28 -16 -55 -11 -62 11 -19 41 -9 58 19 l14 25 -20 -25 c-30 -35 -37 -19 -17 39 9 28 14 55 10 61 -10 17 -44 11 -55 -9z"/>
        <path d="M635 527 c-10 -16 -15 -41 -13 -69 3 -36 7 -44 26 -46 13 -2 30 2 38 8 11 10 17 10 28 0 25 -20 57 -7 77 30 22 40 26 104 7 97 -7 -2 -11 -11 -9 -18 2 -8 5 -21 8 -30 3 -9 -7 -29 -21 -45 -20 -24 -28 -27 -43 -18 -12 8 -17 20 -15 39 3 18 0 25 -7 21 -6 -4 -11 -16 -11 -26 0 -22 -35 -44 -56 -36 -19 7 -18 56 2 84 9 13 14 26 11 29 -3 2 -13 -7 -22 -20z"/>
    </g>
</svg>