<svg xmlns="http://www.w3.org/2000/svg" version="1.0" width="79.000000pt" height="68.000000pt" viewBox="0 0 79.000000 68.000000" preserveAspectRatio="xMidYMid meet">
<metadata>
Created by potrace 1.16, written by Peter Selinger 2001-2019
</metadata>
<g transform="translate(0.000000,68.000000) scale(0.100000,-0.100000)" fill="#000000" stroke="none">
<path d="M316 634 c-71 -22 -159 -112 -180 -184 -9 -30 -16 -70 -16 -90 0 -52 25 -129 55 -170 l25 -34 -20 -21 c-29 -31 -25 -43 5 -15 21 20 29 22 43 12 67 -47 97 -57 182 -57 68 0 93 5 126 22 63 34 97 66 129 125 27 47 30 63 30 138 0 77 -3 90 -31 140 -69 123 -209 176 -348 134z m209 -28 c56 -26 116 -87 141 -143 24 -55 23 -157 -3 -214 -70 -156 -266 -213 -406 -116 -21 14 -26 24 -21 40 6 19 5 20 -8 9 -12 -10 -18 -9 -31 6 -61 67 -75 201 -31 290 66 133 226 191 359 128z"/>
<path d="M475 484 c-9 -9 -14 -21 -13 -26 5 -14 23 -5 23 12 0 19 32 25 50 10 24 -20 18 -38 -31 -90 l-47 -50 57 0 c52 0 56 2 55 23 0 12 -3 16 -6 10 -2 -7 -21 -13 -41 -13 l-36 0 42 36 c28 23 42 44 42 59 0 41 -63 60 -95 29z"/>
<path d="M395 421 c-6 -11 9 -23 19 -14 9 9 7 23 -3 23 -6 0 -12 -4 -16 -9z"/>
<path d="M350 341 c-16 -31 -12 -35 9 -10 29 36 34 18 12 -38 -11 -28 -16 -55 -11 -62 11 -19 41 -9 58 19 l14 25 -20 -25 c-30 -35 -37 -19 -17 39 9 28 14 55 10 61 -10 17 -44 11 -55 -9z"/>
</g>
</svg>