<svg xmlns="http://www.w3.org/2000/svg" version="1.0" width="93.000000pt" height="93.000000pt" viewBox="0 0 93.000000 93.000000" preserveAspectRatio="xMidYMid meet">

<g transform="translate(0.000000,93.000000) scale(0.100000,-0.100000)" fill="#000000" stroke="none">
<path d="M360 814 c-215 -58 -341 -286 -270 -493 39 -115 101 -184 216 -237 174 -81 398 -2 492 173 122 229 -11 509 -266 562 -68 14 -104 13 -172 -5z m225 -32 c90 -35 154 -94 203 -186 24 -46 27 -61 27 -156 0 -127 -19 -175 -105 -261 -110 -111 -269 -136 -416 -67 -66 30 -134 100 -169 173 -26 54 -29 70 -29 155 0 78 5 104 23 144 29 61 101 139 160 174 88 51 212 61 306 24z"/>
<path d="M380 610 c0 -5 9 -10 20 -10 11 0 20 -2 20 -5 0 -19 -75 -302 -82 -312 -5 -6 -19 -14 -31 -16 -12 -2 32 -5 98 -6 127 -1 153 7 190 55 32 42 9 123 -36 124 -9 0 -7 5 6 12 76 42 98 108 49 147 -23 18 -41 21 -130 21 -63 0 -104 -4 -104 -10z m212 -36 c10 -22 9 -32 -7 -62 -11 -20 -31 -42 -45 -49 -30 -15 -110 -17 -110 -3 0 6 7 40 16 75 l16 65 59 0 c54 0 60 -2 71 -26z m-38 -156 c20 -28 20 -42 -1 -85 -10 -22 -29 -41 -49 -49 -33 -14 -106 -19 -116 -9 -3 3 3 42 14 85 l20 80 59 0 c48 0 60 -4 73 -22z"/>
</g>
</svg>