<svg xmlns="http://www.w3.org/2000/svg" version="1.0" width="129.000000pt" height="125.000000pt" viewBox="0 0 129.000000 125.000000" preserveAspectRatio="xMidYMid meet">
<metadata>
Created by potrace 1.16, written by Peter Selinger 2001-2019
</metadata>
<g transform="translate(0.000000,125.000000) scale(0.100000,-0.100000)" fill="#000000" stroke="none">
<path d="M543 1210 c-318 -57 -532 -367 -468 -681 55 -272 292 -469 564 -469 323 0 580 257 581 580 0 253 -173 482 -419 554 -69 20 -191 28 -258 16z m282 -50 c230 -87 369 -288 367 -530 -1 -239 -159 -448 -392 -521 -73 -22 -205 -27 -283 -9 -130 29 -257 116 -330 227 -63 97 -88 171 -94 278 -9 170 41 299 162 420 77 77 160 127 251 150 86 21 242 14 319 -15z"/>
<path d="M469 767 c-41 -28 -76 -77 -90 -129 -28 -106 50 -186 125 -127 l27 22 15 -22 c18 -26 55 -27 76 -3 22 24 39 80 27 87 -5 4 -12 -2 -15 -12 -13 -43 -34 -83 -44 -83 -22 0 -21 34 5 140 28 112 28 153 0 130 -11 -9 -19 -8 -37 4 -30 22 -49 20 -89 -7z m92 -19 c20 -36 -17 -175 -57 -215 -18 -18 -39 -33 -48 -33 -37 0 -44 74 -16 172 23 81 94 126 121 76z"/>
<path d="M822 769 c-50 -25 -76 -58 -91 -117 -23 -85 17 -162 86 -162 44 0 92 21 122 54 32 34 21 33 -30 -3 -58 -43 -98 -49 -121 -21 -18 23 -25 94 -10 116 4 6 33 13 65 16 42 3 64 11 82 28 32 30 33 73 3 94 -30 21 -55 20 -106 -5z m98 -14 c28 -34 -15 -79 -87 -90 -39 -6 -43 -5 -43 14 0 11 14 36 31 56 34 38 77 47 99 20z"/>
</g>
</svg>