<svg xmlns="http://www.w3.org/2000/svg" version="1.0" width="69.000000pt" height="69.000000pt" viewBox="0 0 69.000000 69.000000" preserveAspectRatio="xMidYMid meet">
<metadata>
Created by potrace 1.16, written by Peter Selinger 2001-2019
</metadata>
<g transform="translate(0.000000,69.000000) scale(0.100000,-0.100000)" fill="#000000" stroke="none">
<path d="M263 620 c-84 -20 -169 -97 -198 -180 -30 -84 -14 -201 36 -271 l21 -30 -23 -25 c-12 -13 -20 -26 -17 -29 2 -3 15 6 28 20 l23 24 31 -23 c70 -54 182 -70 269 -40 61 21 138 91 168 151 34 71 32 180 -4 249 -63 123 -200 186 -334 154z m195 -36 c170 -85 204 -314 65 -446 -93 -88 -253 -95 -358 -15 -16 13 -17 17 -6 31 15 18 1 22 -16 5 -17 -17 -71 84 -78 146 -16 127 60 250 180 293 17 6 59 11 96 11 51 1 76 -5 117 -25z"/>
<path d="M472 467 c-15 -18 -19 -35 -7 -33 5 0 10 8 10 16 0 19 32 25 50 10 26 -22 16 -51 -32 -96 l-48 -44 58 0 c53 0 57 2 56 23 0 12 -3 16 -6 10 -2 -7 -19 -13 -36 -13 l-32 1 36 32 c20 18 39 40 42 50 14 38 -64 77 -91 44z"/>
<path d="M390 395 c0 -8 5 -15 10 -15 6 0 10 7 10 15 0 8 -4 15 -10 15 -5 0 -10 -7 -10 -15z"/>
<path d="M347 322 c-10 -10 -17 -23 -17 -28 0 -5 9 2 20 16 27 36 36 18 15 -35 -9 -25 -14 -52 -11 -60 8 -21 43 -18 56 4 16 31 12 35 -9 10 -27 -34 -33 -20 -15 34 23 69 1 103 -39 59z"/>
<path d="M90 280 c0 -6 33 -10 80 -10 47 0 80 4 80 10 0 6 -33 10 -80 10 -47 0 -80 -4 -80 -10z"/>
</g>
</svg>