<svg xmlns="http://www.w3.org/2000/svg" version="1.0" width="106.000000pt" height="100.000000pt" viewBox="0 0 106.000000 100.000000" preserveAspectRatio="xMidYMid meet">

    <g transform="translate(0.000000,100.000000) scale(0.100000,-0.100000)" fill="#000000" stroke="none">
        <path d="M158 890 c-1 -5 -2 -185 0 -400 l2 -390 365 0 365 0 0 400 0 400 -364 0 c-233 0 -366 -4 -368 -10z m702 -390 l0 -370 -340 0 -340 0 0 370 0 370 340 0 340 0 0 -370z"/>
        <path d="M459 665 c-49 -26 -64 -105 -20 -105 25 0 34 26 14 45 -14 14 -14 18 3 36 13 15 28 19 58 17 36 -3 43 -8 58 -38 28 -57 11 -97 -83 -195 -43 -45 -79 -85 -79 -89 0 -3 47 -6 104 -6 114 0 116 1 116 63 l-1 32 -15 -27 c-14 -26 -19 -28 -79 -28 -36 0 -65 3 -64 8 0 4 31 33 69 65 84 71 106 112 90 163 -21 64 -108 93 -171 59z"/>
    </g>
</svg>