<svg xmlns="http://www.w3.org/2000/svg" version="1.0" width="844.000000pt" height="152.000000pt" viewBox="0 0 844.000000 152.000000" preserveAspectRatio="xMidYMid meet">
<metadata>
Created by potrace 1.16, written by Peter Selinger 2001-2019
</metadata>
<g transform="translate(0.000000,152.000000) scale(0.100000,-0.100000)" fill="#000000" stroke="none">
<path d="M515 1466 c-85 -20 -147 -57 -216 -125 -165 -165 -185 -404 -49 -593 l39 -55 -34 -33 c-19 -19 -32 -36 -30 -39 3 -2 21 10 40 29 l35 34 45 -33 c86 -61 150 -84 254 -89 80 -3 107 -1 160 17 151 52 250 151 302 303 18 53 20 79 17 160 -4 88 -9 106 -42 174 -99 198 -312 301 -521 250z m288 -43 c182 -86 289 -282 258 -470 -41 -244 -273 -414 -508 -373 -79 13 -178 58 -213 95 l-24 25 44 45 c55 56 41 60 -16 4 l-41 -40 -28 33 c-16 18 -42 62 -59 98 -29 61 -31 72 -31 180 0 109 2 119 32 183 56 117 161 208 282 243 27 8 84 12 141 11 83 -2 104 -7 163 -34z"/>
<path d="M510 1182 c-34 -10 -54 -62 -24 -62 10 0 14 7 12 23 -4 31 46 38 62 8 14 -27 2 -52 -53 -108 l-41 -43 62 0 c61 0 62 0 62 28 -1 23 -2 24 -11 10 -9 -17 -69 -26 -69 -11 0 3 18 21 40 40 57 49 55 101 -5 115 -11 3 -27 3 -35 0z"/>
<path d="M873 1179 c-23 -8 -46 -42 -36 -53 13 -13 24 -5 21 17 -2 18 2 23 26 25 30 4 46 -10 46 -41 0 -10 -23 -43 -51 -73 l-52 -54 62 0 c33 0 61 4 61 9 0 5 3 18 6 28 5 17 5 17 -9 1 -8 -11 -28 -18 -48 -18 l-33 0 47 48 c51 51 57 71 30 94 -26 22 -45 26 -70 17z"/>
<path d="M323 1013 c-50 -24 -77 -98 -53 -144 12 -22 59 -26 78 -7 9 9 15 9 24 0 27 -27 70 -1 67 40 0 7 -5 1 -11 -14 -10 -28 -38 -39 -38 -15 0 6 7 37 15 67 19 71 19 84 -1 76 -8 -3 -23 -2 -33 3 -11 7 -27 5 -48 -6z m60 -18 c8 -18 -13 -97 -31 -117 -8 -10 -26 -18 -39 -18 -18 0 -23 5 -23 28 0 46 20 101 42 116 22 16 43 12 51 -9z"/>
<path d="M714 1014 c-34 -17 -64 -61 -64 -96 0 -29 26 -68 46 -68 14 0 14 2 0 16 -19 18 -21 63 -3 69 6 2 29 6 50 10 28 4 41 13 50 32 9 21 8 27 -8 39 -24 17 -32 17 -71 -2z m64 -18 c5 -25 -23 -46 -60 -46 -35 0 -36 13 -3 46 29 29 58 28 63 0z"/>
<path d="M775 876 c-11 -7 -29 -16 -40 -19 -19 -4 -19 -5 1 -6 12 0 32 8 45 19 28 22 23 27 -6 6z"/>
<path d="M3871 1465 c-186 -52 -317 -201 -344 -391 -13 -90 0 -170 42 -255 l28 -57 -35 -36 c-46 -46 -33 -61 14 -15 l35 34 20 -24 20 -24 -38 -39 c-45 -46 -33 -51 14 -6 l33 32 42 -31 c102 -73 192 -99 314 -91 135 9 240 65 330 175 59 73 86 148 92 261 4 76 1 104 -17 160 -43 131 -150 244 -278 292 -76 29 -199 35 -272 15z m250 -25 c111 -38 199 -110 252 -208 l28 -51 -37 1 c-25 1 -41 -4 -50 -17 -19 -25 -18 -45 2 -45 10 0 14 7 12 23 -4 31 46 38 62 8 14 -27 2 -52 -53 -108 l-41 -43 61 0 c56 0 62 2 66 23 3 14 5 10 6 -13 3 -95 -55 -227 -135 -307 -148 -148 -388 -171 -558 -53 -25 16 -48 35 -52 41 -3 6 13 31 37 55 24 24 39 44 33 44 -5 0 -27 -18 -49 -40 l-39 -40 -23 22 -23 22 42 43 c23 23 39 45 37 48 -3 2 -21 -11 -39 -30 -19 -19 -39 -35 -45 -35 -14 0 -52 77 -60 124 -7 35 -6 36 24 36 30 0 31 -2 31 -40 0 -22 5 -40 10 -40 6 0 10 18 10 40 l0 40 40 0 c22 0 40 5 40 10 0 6 -18 10 -40 10 l-40 0 0 40 c0 22 -4 40 -10 40 -5 0 -10 -18 -10 -40 0 -39 -1 -40 -35 -40 l-35 0 0 63 c0 190 124 359 308 418 79 25 196 25 273 -1z m292 -400 c-16 -18 -73 -29 -73 -14 0 4 17 22 38 39 34 31 38 32 44 14 5 -12 1 -26 -9 -39z"/>
<path d="M4019 1176 c-23 -11 -40 -56 -21 -56 16 0 22 13 11 26 -14 17 7 27 43 22 17 -2 24 -10 26 -33 2 -24 -6 -38 -43 -75 -25 -24 -45 -48 -45 -53 0 -4 26 -7 58 -5 52 3 57 5 60 28 2 22 1 23 -8 8 -7 -12 -23 -18 -48 -18 l-37 0 48 44 c60 56 62 93 6 115 -18 6 -33 6 -50 -3z"/>
<path d="M3845 1120 c-17 -7 -17 -9 -2 -9 21 -1 21 1 -3 -91 -23 -86 -25 -141 -8 -158 41 -41 128 25 128 98 0 50 -35 79 -71 60 -24 -13 -24 -21 -3 80 7 32 -2 37 -41 20z m83 -161 c-6 -56 -31 -99 -58 -99 -27 0 -33 15 -25 67 8 52 44 97 71 86 13 -5 15 -16 12 -54z"/>
<path d="M4225 1101 c-3 -5 -1 -12 5 -16 12 -7 30 2 30 16 0 12 -27 12 -35 0z"/>
<path d="M4180 1008 c-11 -12 -20 -29 -20 -37 0 -9 9 -1 21 18 33 55 45 25 19 -48 -12 -33 -20 -67 -17 -76 14 -34 77 -5 76 35 0 8 -4 5 -9 -8 -9 -22 -36 -39 -46 -29 -3 2 4 29 16 58 24 65 25 95 4 103 -22 8 -21 9 -44 -16z"/>
<path d="M5141 1464 c-200 -54 -341 -233 -341 -434 0 -63 -2 -70 -20 -70 -27 0 -26 -18 1 -22 16 -2 26 -16 38 -58 21 -67 35 -93 74 -143 l30 -38 -33 -34 c-19 -19 -31 -37 -29 -40 3 -3 18 9 34 25 16 17 32 30 36 30 5 0 34 -18 65 -40 139 -97 332 -107 484 -24 114 62 206 190 229 319 6 33 16 62 21 63 6 2 10 16 10 30 0 21 -2 24 -10 12 -7 -11 -10 -8 -10 15 0 17 5 36 11 42 18 18 6 66 -20 79 -13 7 -37 36 -53 66 -98 179 -321 275 -517 222z m240 -20 c106 -31 189 -93 251 -188 42 -65 45 -76 23 -76 -14 0 -35 -29 -35 -49 0 -6 7 -11 16 -11 10 0 14 7 12 22 -2 14 3 24 13 26 12 2 19 -9 27 -39 10 -40 9 -42 -30 -85 l-41 -44 42 0 c47 0 50 -10 27 -95 -58 -218 -276 -361 -495 -326 -69 11 -169 55 -216 94 l-30 26 45 45 c55 57 41 61 -16 5 l-41 -40 -27 36 c-29 38 -71 123 -81 168 l-7 27 61 0 c80 0 79 18 -1 22 l-63 3 -3 37 c-12 139 79 312 206 392 100 63 248 84 363 50z m339 -317 c0 -16 -18 3 -23 25 -6 22 -5 22 8 4 8 -11 15 -24 15 -29z m-20 -87 c0 -13 -7 -20 -20 -20 -25 0 -26 16 -2 29 23 14 22 14 22 -9z"/>
<path d="M5293 1179 c-23 -8 -46 -42 -36 -53 13 -13 24 -5 21 17 -2 18 2 23 26 25 30 4 46 -10 46 -41 0 -10 -23 -43 -51 -73 l-52 -54 62 0 c33 0 61 4 61 9 0 5 3 18 6 28 5 17 5 17 -9 1 -8 -11 -28 -18 -48 -18 l-33 0 47 48 c51 51 57 71 30 94 -26 22 -45 26 -70 17z"/>
<path d="M5114 1020 c-29 -11 -61 -54 -69 -91 -12 -56 39 -98 84 -70 9 6 21 5 33 -2 24 -16 52 2 55 34 l2 24 -7 -25 c-5 -14 -16 -26 -25 -28 -21 -4 -21 -2 -2 68 20 76 20 93 -4 85 -11 -3 -22 -1 -26 5 -7 12 -12 12 -41 0z m46 -15 c16 -19 -4 -106 -30 -130 -22 -20 -54 -16 -58 7 -5 27 18 98 39 119 23 23 33 24 49 4z"/>
<path d="M5505 1016 c-57 -25 -82 -81 -59 -134 11 -28 18 -32 52 -32 26 0 48 7 63 21 l24 21 -25 -16 c-52 -34 -107 -10 -94 41 4 15 16 22 45 26 22 3 46 11 54 17 21 17 19 47 -4 60 -23 12 -19 12 -56 -4z m56 -12 c11 -14 10 -19 -10 -35 -13 -11 -36 -19 -52 -19 -26 0 -29 2 -19 19 10 20 48 51 61 51 4 0 13 -7 20 -16z"/>
<path d="M6423 1466 c-83 -20 -159 -65 -222 -130 -90 -94 -131 -195 -131 -322 0 -66 28 -170 59 -219 l19 -30 -41 -42 c-23 -24 -37 -43 -31 -43 6 0 23 14 39 30 34 36 41 37 65 8 18 -23 18 -23 -18 -60 -44 -46 -31 -51 15 -6 l32 31 36 -27 c139 -107 334 -126 493 -48 84 41 165 125 209 218 37 77 38 82 38 194 0 113 -1 116 -38 193 -98 200 -312 304 -524 253z m289 -43 c80 -37 159 -109 199 -178 16 -27 29 -53 29 -57 0 -4 -14 -6 -31 -6 -20 1 -37 -6 -45 -17 -19 -25 -18 -45 2 -45 10 0 14 7 12 23 -4 31 46 38 62 8 14 -27 2 -52 -53 -108 l-41 -43 61 0 c50 0 62 3 66 18 3 9 3 -8 0 -38 -20 -207 -167 -364 -375 -400 -114 -20 -251 15 -340 87 l-37 30 44 43 c25 24 42 46 40 49 -3 3 -25 -15 -50 -39 -25 -24 -46 -42 -47 -39 -2 2 -12 14 -23 27 l-19 23 44 38 c25 22 42 43 37 47 -4 4 -25 -10 -47 -31 -39 -38 -40 -38 -55 -19 -8 10 -23 46 -34 79 l-19 60 84 3 c111 4 109 22 -2 22 l-86 0 4 88 c3 72 10 99 35 155 40 83 115 165 192 206 80 42 120 50 231 48 83 -2 104 -7 162 -34z m248 -382 c-7 -14 -21 -21 -40 -21 -17 0 -30 3 -30 6 0 4 17 22 38 39 32 29 37 31 40 15 2 -11 -2 -28 -8 -39z"/>
<path d="M6573 1179 c-23 -8 -46 -42 -36 -53 13 -13 24 -5 21 17 -2 18 2 23 26 25 30 4 46 -10 46 -41 0 -10 -23 -43 -51 -73 l-52 -54 62 0 c33 0 61 4 61 9 0 5 3 18 6 28 5 17 5 17 -9 1 -8 -11 -28 -18 -48 -18 l-33 0 47 48 c51 51 57 71 30 94 -26 22 -45 26 -70 17z"/>
<path d="M6395 1120 c-17 -7 -17 -9 -2 -9 21 -1 21 1 -3 -91 -23 -86 -25 -141 -8 -158 41 -41 128 25 128 98 0 50 -35 79 -71 60 -24 -13 -24 -21 -3 80 7 32 -2 37 -41 20z m83 -161 c-6 -56 -31 -99 -58 -99 -27 0 -33 15 -25 67 8 52 44 97 71 86 13 -5 15 -16 12 -54z"/>
<path d="M6775 1099 c-10 -15 1 -23 20 -15 9 3 13 10 10 16 -8 13 -22 13 -30 -1z"/>
<path d="M6730 1010 c-11 -11 -20 -26 -20 -32 0 -7 6 -4 12 7 6 11 16 23 22 27 22 15 24 -5 5 -59 -27 -78 -25 -103 5 -103 24 0 56 32 56 55 -1 5 -8 -2 -16 -17 -14 -27 -44 -39 -44 -18 0 5 9 33 20 62 25 66 25 75 0 88 -15 8 -24 6 -40 -10z"/>
<path d="M7290 1165 l0 -45 -40 0 c-22 0 -40 -4 -40 -10 0 -5 18 -10 40 -10 l40 0 0 -75 0 -75 -40 0 c-22 0 -40 -4 -40 -10 0 -5 18 -10 40 -10 l40 0 0 -46 c0 -27 4 -43 10 -39 6 3 10 24 10 46 0 39 0 39 40 39 22 0 40 5 40 10 0 6 -18 10 -40 10 l-40 0 0 130 c0 80 -4 130 -10 130 -5 0 -10 -20 -10 -45z"/>
<path d="M2103 1169 c-23 -8 -46 -42 -36 -53 13 -13 24 -5 21 17 -2 18 2 23 26 25 30 4 46 -10 46 -41 0 -10 -23 -43 -51 -73 l-52 -54 62 0 c33 0 61 4 61 9 0 5 3 18 6 28 5 17 5 17 -9 1 -8 -11 -28 -18 -48 -18 l-33 0 47 48 c51 51 57 71 30 94 -26 22 -45 26 -70 17z"/>
<path d="M3243 1169 c-23 -8 -46 -42 -36 -53 13 -13 24 -5 21 17 -2 18 2 23 26 25 30 4 46 -10 46 -41 0 -10 -23 -43 -51 -73 l-52 -54 62 0 c33 0 61 4 61 9 0 5 3 18 6 28 5 17 5 17 -9 1 -8 -11 -28 -18 -48 -18 l-33 0 47 48 c51 51 57 71 30 94 -26 22 -45 26 -70 17z"/>
<path d="M1785 1110 c-17 -7 -17 -9 -2 -9 21 -1 21 1 -3 -91 -23 -86 -25 -141 -8 -158 41 -41 128 25 128 98 0 50 -35 79 -71 60 -24 -13 -24 -21 -3 80 7 32 -2 37 -41 20z m83 -161 c-6 -56 -31 -99 -58 -99 -27 0 -33 15 -25 67 8 52 44 97 71 86 13 -5 15 -16 12 -54z"/>
<path d="M2880 1110 c-17 -5 -19 -8 -7 -9 21 -1 22 2 -5 -108 -26 -109 -20 -146 24 -151 40 -5 68 15 89 63 14 33 17 49 10 69 -14 35 -45 50 -72 35 -20 -10 -21 -9 -15 12 13 50 18 99 10 98 -5 -1 -20 -5 -34 -9z m80 -120 c13 -24 -3 -95 -27 -122 -21 -24 -50 -23 -58 1 -9 30 15 110 38 126 28 20 34 19 47 -5z"/>
<path d="M7910 1110 c-17 -5 -19 -8 -7 -9 21 -1 22 2 -5 -108 -26 -109 -20 -146 24 -151 40 -5 68 15 89 63 14 33 17 49 10 69 -14 35 -45 50 -72 35 -20 -10 -21 -9 -15 12 13 50 18 99 10 98 -5 -1 -20 -5 -34 -9z m80 -120 c13 -24 -3 -95 -27 -122 -21 -24 -50 -23 -58 1 -9 30 15 110 38 126 28 20 34 19 47 -5z"/>
<path d="M7511 1094 c-41 -17 -57 -84 -20 -84 16 0 23 31 9 40 -21 13 7 40 41 40 32 0 49 -23 49 -68 0 -30 -49 -102 -99 -146 -11 -11 -21 -23 -21 -28 0 -4 33 -8 74 -8 l74 0 6 32 c7 36 1 50 -9 19 -5 -18 -15 -21 -57 -21 l-51 0 61 64 c68 70 76 96 42 138 -24 31 -59 39 -99 22z"/>
<path d="M1985 1091 c-3 -5 -1 -12 5 -16 12 -7 30 2 30 16 0 12 -27 12 -35 0z"/>
<path d="M8295 1091 c-3 -5 -1 -12 5 -16 12 -7 30 2 30 16 0 12 -27 12 -35 0z"/>
<path d="M1320 996 l0 -46 -45 0 c-25 0 -45 -4 -45 -10 0 -5 20 -10 45 -10 l45 0 0 -40 c0 -22 5 -40 10 -40 6 0 10 18 10 40 l0 40 40 0 c22 0 40 5 40 10 0 6 -18 10 -40 10 -40 0 -40 0 -40 39 0 22 -4 43 -10 46 -6 4 -10 -12 -10 -39z"/>
<path d="M2418 1034 c-5 -4 -8 -25 -8 -46 0 -38 0 -38 -40 -38 -22 0 -40 -4 -40 -10 0 -5 18 -10 40 -10 l40 0 0 -40 c0 -22 5 -40 10 -40 6 0 10 18 10 40 0 40 0 40 39 40 22 0 43 5 46 10 4 6 -11 10 -39 10 l-45 0 -3 46 c-2 25 -6 42 -10 38z"/>
<path d="M1614 1010 c-29 -11 -61 -54 -69 -91 -12 -56 39 -98 84 -70 9 6 21 5 33 -2 24 -16 52 2 55 34 l2 24 -7 -25 c-5 -14 -16 -26 -25 -28 -21 -4 -21 -2 -2 68 20 76 20 93 -4 85 -11 -3 -22 -1 -26 5 -7 12 -12 12 -41 0z m46 -15 c16 -19 -4 -106 -30 -130 -22 -20 -54 -16 -58 7 -5 27 18 98 39 119 23 23 33 24 49 4z"/>
<path d="M1940 998 c-11 -12 -20 -29 -20 -37 0 -9 9 -1 21 18 33 55 45 25 19 -48 -12 -33 -20 -67 -17 -76 14 -34 77 -5 76 35 0 8 -4 5 -9 -8 -9 -22 -36 -39 -46 -29 -3 2 4 29 16 58 24 65 25 95 4 103 -22 8 -21 9 -44 -16z"/>
<path d="M2698 1004 c-49 -26 -77 -121 -46 -152 15 -15 60 -16 75 -1 8 8 13 8 17 0 14 -22 56 -12 66 15 14 37 11 43 -6 12 -33 -61 -44 -21 -20 70 8 28 13 52 13 53 -1 0 -11 2 -22 4 -11 1 -27 5 -35 8 -8 4 -27 0 -42 -9z m52 -9 c11 -13 11 -26 1 -67 -6 -28 -16 -57 -22 -65 -17 -19 -57 -16 -61 5 -7 30 12 96 34 120 25 26 31 27 48 7z"/>
<path d="M3084 1004 c-34 -17 -64 -61 -64 -96 0 -29 26 -68 46 -68 14 0 14 2 0 16 -19 18 -21 63 -3 69 6 2 29 6 50 10 28 4 41 13 50 32 9 21 8 27 -8 39 -24 17 -32 17 -71 -2z m64 -18 c5 -25 -23 -46 -60 -46 -35 0 -36 13 -3 46 29 29 58 28 63 0z"/>
<path d="M7728 1004 c-49 -26 -77 -121 -46 -152 15 -15 60 -16 75 -1 8 8 13 8 17 0 14 -22 56 -12 66 15 14 37 11 43 -6 12 -33 -61 -44 -21 -20 70 8 28 13 52 13 53 -1 0 -11 2 -22 4 -11 1 -27 5 -35 8 -8 4 -27 0 -42 -9z m52 -9 c11 -13 11 -26 1 -67 -6 -28 -16 -57 -22 -65 -17 -19 -57 -16 -61 5 -7 30 12 96 34 120 25 26 31 27 48 7z"/>
<path d="M8114 1006 c-42 -18 -64 -52 -64 -97 0 -37 24 -69 51 -69 10 1 9 3 -3 11 -12 6 -18 22 -18 43 0 32 2 34 42 39 28 4 49 14 61 29 18 22 18 23 -3 40 -26 21 -26 21 -66 4z m50 -2 c42 -16 1 -64 -55 -64 -26 0 -24 16 6 45 27 28 27 28 49 19z"/>
<path d="M8250 998 c-11 -12 -20 -29 -20 -37 0 -9 9 -1 21 18 33 55 45 25 19 -48 -12 -33 -20 -67 -17 -76 14 -34 77 -5 76 35 0 8 -4 5 -9 -8 -9 -22 -36 -39 -46 -29 -3 2 4 29 16 58 24 65 25 95 4 103 -22 8 -21 9 -44 -16z"/>
<path d="M8185 880 c-4 -7 -21 -18 -39 -26 -23 -10 -26 -13 -11 -13 23 -1 73 34 63 44 -3 3 -9 1 -13 -5z"/>
<path d="M3145 866 c-11 -7 -29 -16 -40 -19 -19 -4 -19 -5 1 -6 12 0 32 8 45 19 28 22 23 27 -6 6z"/>
<path d="M2173 493 c1138 -2 2996 -2 4130 0 1134 1 204 2 -2068 2 -2271 0 -3199 -1 -2062 -2z"/>
<path d="M4500 380 c-17 -5 -19 -8 -7 -9 21 -1 22 2 -5 -108 -26 -109 -20 -146 24 -151 40 -5 68 15 89 63 14 33 17 49 10 69 -14 35 -45 50 -72 35 -20 -10 -21 -9 -15 12 13 50 18 99 10 98 -5 -1 -20 -5 -34 -9z m80 -120 c13 -24 -3 -95 -27 -122 -21 -24 -50 -23 -58 1 -9 30 15 110 38 126 28 20 34 19 47 -5z"/>
<path d="M4248 304 c-5 -4 -8 -25 -8 -46 0 -38 0 -38 -40 -38 -22 0 -40 -4 -40 -10 0 -5 18 -10 40 -10 l40 0 0 -40 c0 -22 5 -40 10 -40 6 0 10 18 10 40 0 40 0 40 39 40 22 0 43 5 46 10 4 6 -11 10 -39 10 l-45 0 -3 46 c-2 25 -6 42 -10 38z"/>
<path d="M3923 273 c-50 -24 -77 -98 -53 -144 12 -22 59 -26 78 -7 9 9 15 9 24 0 27 -27 70 -1 67 40 0 7 -5 1 -11 -14 -10 -28 -38 -39 -38 -15 0 6 7 37 15 67 19 71 19 84 -1 76 -8 -3 -23 -2 -33 3 -11 7 -27 5 -48 -6z m60 -18 c8 -18 -13 -97 -31 -117 -8 -10 -26 -18 -39 -18 -18 0 -23 5 -23 28 0 46 20 101 42 116 22 16 43 12 51 -9z"/>
</g>
</svg>