<svg xmlns="http://www.w3.org/2000/svg" version="1.0" width="706.000000pt" height="137.000000pt" viewBox="0 0 706.000000 137.000000" preserveAspectRatio="xMidYMid meet">
    <metadata>
Created by potrace 1.16, written by Peter Selinger 2001-2019
    </metadata>
    <g transform="translate(0.000000,137.000000) scale(0.100000,-0.100000)" fill="#000000" stroke="none">
        <path d="M1160 1307 c-218 -62 -354 -268 -320 -483 23 -142 108 -257 238 -321 74 -37 79 -38 186 -38 104 0 115 2 179 32 248 118 328 407 176 637 -31 46 -37 62 -28 72 8 10 8 14 1 14 -6 0 -14 -4 -17 -10 -3 -5 -28 7 -55 26 -28 20 -74 45 -103 56 -65 25 -195 33 -257 15z m176 -8 c66 -12 144 -46 189 -83 l30 -25 -55 -55 c-30 -31 -50 -56 -44 -56 5 0 32 22 59 50 26 27 52 47 58 43 12 -7 73 -104 81 -128 5 -19 2 -20 -33 -17 -31 3 -41 0 -50 -16 -10 -19 -6 -32 11 -32 5 0 6 9 3 21 -6 18 -3 20 22 17 44 -5 43 -44 -2 -88 -19 -18 -35 -38 -35 -42 0 -4 20 -8 45 -8 25 0 45 5 45 10 0 6 -16 10 -35 10 l-35 0 39 35 c21 19 42 35 46 35 4 0 6 -44 3 -98 -3 -86 -8 -107 -36 -164 -40 -82 -120 -159 -209 -201 -62 -29 -76 -32 -168 -32 -91 0 -106 3 -166 31 -129 61 -209 160 -243 297 -6 26 -5 27 29 27 33 0 35 -2 35 -35 0 -19 5 -35 10 -35 6 0 10 16 10 35 0 33 2 35 38 37 l37 1 -37 4 c-36 4 -38 6 -38 39 0 19 -4 34 -10 34 -5 0 -10 -16 -10 -35 0 -34 -1 -35 -36 -35 l-37 0 5 78 c11 185 144 338 328 378 71 16 85 16 156 3z"/>
        <path d="M1289 971 c13 -8 13 -19 -2 -83 -10 -40 -17 -83 -17 -94 0 -23 26 -51 37 -40 3 3 0 6 -7 6 -18 0 -5 88 18 113 10 13 12 17 3 12 -11 -6 -13 -4 -8 8 3 8 9 32 13 51 6 34 5 36 -22 36 -22 0 -25 -3 -15 -9z"/>
        <path d="M1141 886 c-44 -24 -67 -96 -39 -124 17 -17 33 -15 19 2 -22 26 17 126 48 126 37 0 28 -89 -11 -122 -11 -10 -16 -18 -11 -18 5 0 14 5 20 11 8 8 13 8 17 0 18 -28 57 -4 55 32 0 7 -4 2 -9 -10 -15 -36 -34 -29 -26 10 20 90 20 101 3 94 -9 -3 -19 -2 -22 3 -8 13 -15 12 -44 -4z"/>
        <path d="M1355 884 c20 -20 13 -66 -16 -106 -27 -38 -7 -35 25 3 15 17 26 43 26 59 0 28 -22 60 -41 60 -6 0 -3 -7 6 -16z"/>
        <path d="M1461 886 c-28 -15 -50 -52 -51 -83 0 -23 24 -53 43 -53 8 0 7 4 -2 9 -10 6 -12 21 -8 51 6 49 37 86 62 76 24 -9 14 -39 -15 -47 -14 -4 -18 -7 -8 -8 30 -2 48 11 48 34 0 34 -29 43 -69 21z"/>
        <path d="M1505 769 c-16 -10 -25 -19 -19 -19 7 0 22 9 35 20 30 24 23 24 -16 -1z"/>
        <path d="M2238 1309 c-117 -27 -235 -123 -290 -236 -32 -65 -33 -73 -33 -183 0 -109 2 -119 32 -183 42 -88 121 -168 209 -209 121 -57 285 -49 400 18 56 33 137 120 167 180 68 137 58 306 -27 434 l-25 38 25 23 c13 12 22 25 19 27 -3 3 -16 -5 -30 -18 l-24 -23 -40 36 c-97 87 -254 127 -383 96z m165 -9 c58 -9 144 -44 182 -73 19 -15 18 -18 -45 -81 -35 -36 -60 -66 -54 -66 5 0 36 27 69 60 56 56 60 59 77 43 18 -16 17 -18 -24 -60 -52 -53 -39 -58 15 -5 38 36 39 37 54 17 29 -37 62 -120 73 -182 37 -208 -110 -424 -321 -472 -140 -33 -296 15 -395 121 -225 240 -96 633 229 697 59 12 74 12 140 1z"/>
        <path d="M2632 1018 c-15 -15 -16 -38 -1 -38 6 0 9 7 5 15 -3 8 2 19 12 24 9 6 12 11 7 11 -6 0 -16 -5 -23 -12z"/>
        <path d="M2684 1014 c24 -23 20 -37 -25 -88 l-42 -47 49 3 c40 2 49 7 51 23 2 11 0 14 -3 8 -3 -7 -20 -13 -37 -13 l-32 0 38 35 c20 18 37 42 37 52 0 22 -18 43 -38 43 -10 0 -10 -3 2 -16z"/>
        <path d="M2388 967 c8 -9 5 -35 -9 -92 -16 -60 -18 -84 -10 -102 6 -13 15 -23 21 -23 7 0 6 6 -1 18 -24 39 27 138 61 117 23 -14 3 -99 -27 -122 -11 -8 -12 -13 -4 -13 6 0 23 11 36 25 48 47 24 139 -29 119 -19 -7 -20 7 -7 54 9 30 8 32 -16 32 -20 0 -23 -3 -15 -13z"/>
        <path d="M2555 959 c-4 -6 -5 -13 -2 -16 7 -7 27 6 27 18 0 12 -17 12 -25 -2z"/>
        <path d="M2010 876 c0 -33 -2 -35 -37 -39 l-38 -4 38 -1 c35 -2 37 -4 37 -37 0 -19 5 -35 10 -35 6 0 10 15 10 34 0 33 2 35 38 39 l37 4 -37 1 c-36 2 -38 4 -38 37 0 19 -4 35 -10 35 -5 0 -10 -15 -10 -34z"/>
        <path d="M2222 875 c-35 -29 -48 -74 -32 -104 17 -34 25 -24 25 30 0 43 4 55 28 75 16 13 24 24 18 24 -5 0 -23 -11 -39 -25z"/>
        <path d="M2517 882 c-10 -10 -17 -23 -17 -28 0 -4 7 2 16 14 26 38 34 14 14 -44 -11 -31 -17 -60 -14 -65 13 -22 64 -1 64 25 0 6 -5 3 -11 -6 -5 -10 -17 -18 -24 -18 -18 0 -19 -5 5 59 16 41 18 56 9 67 -15 18 -23 18 -42 -4z"/>
        <path d="M2285 872 c9 -24 -14 -90 -38 -107 -12 -8 -16 -15 -10 -15 7 0 15 4 18 10 4 6 13 5 24 -2 24 -14 51 -4 50 19 -1 17 -2 17 -6 1 -4 -17 -33 -26 -33 -10 0 4 7 32 15 62 8 30 15 56 15 57 0 1 -9 1 -20 0 -13 -1 -19 -6 -15 -15z"/>
        <path d="M4190 1307 c-125 -36 -230 -122 -281 -230 -105 -226 -16 -474 210 -581 62 -29 73 -31 176 -31 103 0 114 2 178 32 248 118 328 407 176 637 -31 46 -37 62 -28 72 8 10 8 14 1 14 -6 0 -14 -4 -17 -10 -3 -5 -28 7 -55 26 -28 20 -74 45 -103 56 -65 25 -195 33 -257 15z m194 -12 c66 -14 126 -42 176 -84 l25 -20 -55 -55 c-30 -31 -50 -56 -44 -56 5 0 32 22 59 50 36 37 52 47 61 39 17 -14 70 -99 78 -124 5 -19 2 -20 -33 -17 -31 3 -41 0 -50 -16 -10 -19 -6 -32 11 -32 5 0 6 9 3 21 -6 18 -3 20 22 17 44 -5 43 -44 -2 -88 -19 -18 -35 -38 -35 -42 0 -4 20 -8 45 -8 52 0 61 17 13 22 l-33 3 44 40 43 40 -3 -106 c-4 -94 -8 -112 -37 -170 -40 -83 -120 -160 -209 -202 -62 -29 -76 -32 -168 -32 -91 0 -106 3 -166 31 -129 61 -209 160 -243 297 l-6 27 82 2 83 2 -84 3 -84 4 5 78 c11 184 144 337 328 377 73 16 93 16 174 -1z"/>
        <path d="M4319 971 c13 -8 13 -19 -2 -83 -10 -40 -17 -83 -17 -94 0 -23 26 -51 37 -40 3 3 0 6 -7 6 -18 0 -5 88 18 113 10 13 12 17 3 12 -11 -6 -13 -4 -8 8 3 8 9 32 13 51 6 34 5 36 -22 36 -22 0 -25 -3 -15 -9z"/>
        <path d="M4171 886 c-44 -24 -67 -96 -39 -124 17 -17 33 -15 19 2 -22 26 17 126 48 126 37 0 28 -89 -11 -122 -11 -10 -16 -18 -11 -18 5 0 14 5 20 11 8 8 13 8 17 0 18 -28 57 -4 55 32 0 7 -4 2 -9 -10 -15 -36 -34 -29 -26 10 20 90 20 101 3 94 -9 -3 -19 -2 -22 3 -8 13 -15 12 -44 -4z"/>
        <path d="M4385 884 c20 -20 13 -66 -16 -106 -27 -38 -7 -35 25 3 15 17 26 43 26 59 0 28 -22 60 -41 60 -6 0 -3 -7 6 -16z"/>
        <path d="M4491 886 c-28 -15 -50 -52 -51 -83 0 -23 24 -53 43 -53 8 0 7 4 -2 9 -10 6 -12 21 -8 51 6 49 37 86 62 76 24 -9 14 -39 -15 -47 -14 -4 -18 -7 -8 -8 30 -2 48 11 48 34 0 34 -29 43 -69 21z"/>
        <path d="M4535 769 c-16 -10 -25 -19 -19 -19 7 0 22 9 35 20 30 24 23 24 -16 -1z"/>
        <path d="M6320 1306 c-167 -45 -293 -186 -320 -356 -14 -91 1 -168 50 -264 l40 -80 -23 -25 -22 -26 27 24 27 24 42 -38 c23 -20 71 -51 108 -69 62 -29 73 -31 176 -31 103 0 114 2 178 32 267 127 338 464 143 680 -105 116 -280 169 -426 129z m191 -10 c91 -20 143 -48 209 -115 96 -96 136 -217 118 -355 -18 -134 -111 -257 -241 -317 -65 -30 -81 -33 -162 -34 -101 0 -146 11 -224 56 l-54 31 69 69 c38 38 64 69 59 69 -5 0 -37 -28 -72 -62 -53 -52 -64 -59 -77 -48 -23 19 -20 30 22 75 l37 40 -40 -37 c-23 -21 -46 -38 -52 -38 -7 0 -29 35 -50 77 -37 74 -38 80 -38 182 0 99 2 111 32 174 56 118 166 206 293 233 73 16 93 16 171 0z"/>
        <path d="M6711 1011 c-10 -18 -6 -31 11 -31 5 0 6 9 3 21 -6 18 -3 20 22 17 44 -5 43 -44 -2 -88 -19 -18 -35 -38 -35 -42 0 -4 20 -8 45 -8 25 0 45 5 45 10 0 6 -16 10 -35 10 l-34 0 41 39 c39 36 41 41 30 65 -9 21 -19 26 -46 26 -24 0 -38 -6 -45 -19z"/>
        <path d="M6469 971 c13 -8 13 -19 -2 -83 -10 -40 -17 -83 -17 -94 0 -23 26 -51 37 -40 3 3 0 6 -7 6 -18 0 -5 88 18 113 10 13 12 17 3 12 -11 -6 -13 -4 -8 8 3 8 9 32 13 51 6 34 5 36 -22 36 -22 0 -25 -3 -15 -9z"/>
        <path d="M6645 959 c-4 -6 -5 -13 -2 -16 7 -7 27 6 27 18 0 12 -17 12 -25 -2z"/>
        <path d="M6321 886 c-44 -24 -67 -96 -39 -124 17 -17 33 -15 19 2 -22 26 17 126 48 126 37 0 28 -89 -11 -122 -11 -10 -16 -18 -11 -18 5 0 14 5 20 11 8 8 13 8 17 0 18 -28 57 -4 55 32 0 7 -4 2 -9 -10 -15 -36 -34 -29 -26 10 20 90 20 101 3 94 -9 -3 -19 -2 -22 3 -8 13 -15 12 -44 -4z"/>
        <path d="M6535 884 c20 -20 13 -66 -16 -106 -27 -38 -7 -35 25 3 15 17 26 43 26 59 0 28 -22 60 -41 60 -6 0 -3 -7 6 -16z"/>
        <path d="M6607 882 c-10 -10 -17 -23 -17 -28 0 -4 7 2 16 14 26 38 34 14 14 -44 -11 -31 -17 -60 -14 -65 13 -22 64 -1 64 25 0 6 -5 3 -11 -6 -5 -10 -17 -18 -24 -18 -18 0 -19 -5 5 59 16 41 18 56 9 67 -15 18 -23 18 -42 -4z"/>
        <path d="M6068 833 c23 -2 61 -2 85 0 23 2 4 4 -43 4 -47 0 -66 -2 -42 -4z"/>
        <path d="M4960 965 c0 -32 -2 -35 -30 -35 -16 0 -30 -4 -30 -10 0 -5 14 -10 30 -10 l30 0 0 -64 0 -65 -37 -4 -38 -4 38 -1 c35 -2 37 -4 37 -37 0 -19 5 -35 10 -35 6 0 10 15 10 34 0 33 2 35 38 39 l37 4 -37 1 -38 2 0 110 c0 67 -4 110 -10 110 -5 0 -10 -16 -10 -35z"/>
        <path d="M292 958 c-16 -16 -15 -41 1 -35 6 2 11 10 9 17 -2 7 3 17 10 21 7 5 8 9 3 9 -6 0 -16 -5 -23 -12z"/>
        <path d="M343 959 c28 -16 20 -46 -24 -94 l-42 -45 52 0 c46 0 51 2 50 23 0 12 -3 16 -6 10 -2 -7 -19 -13 -36 -13 l-32 1 38 30 c53 44 50 100 -6 99 -7 0 -4 -5 6 -11z"/>
        <path d="M591 951 c-10 -18 -6 -31 11 -31 5 0 6 9 3 21 -6 18 -3 20 22 17 44 -5 43 -44 -2 -88 -19 -18 -35 -38 -35 -42 0 -4 20 -8 45 -8 25 0 45 5 45 10 0 6 -16 10 -35 10 l-34 0 41 39 c39 36 41 41 30 65 -9 21 -19 26 -46 26 -24 0 -38 -6 -45 -19z"/>
        <path d="M3362 958 c-16 -16 -15 -41 1 -35 6 2 11 10 9 17 -2 7 3 17 10 21 7 5 8 9 3 9 -6 0 -16 -5 -23 -12z"/>
        <path d="M3413 959 c28 -16 20 -46 -24 -94 l-42 -45 52 0 c46 0 51 2 50 23 0 12 -3 16 -6 10 -2 -7 -19 -13 -36 -13 l-32 1 38 30 c53 44 50 100 -6 99 -7 0 -4 -5 6 -11z"/>
        <path d="M3621 951 c-10 -18 -6 -31 11 -31 5 0 6 9 3 21 -6 18 -3 20 22 17 44 -5 43 -44 -2 -88 -19 -18 -35 -38 -35 -42 0 -4 20 -8 45 -8 25 0 45 5 45 10 0 6 -16 10 -35 10 l-34 0 41 39 c39 36 41 41 30 65 -9 21 -19 26 -46 26 -24 0 -38 -6 -45 -19z"/>
        <path d="M3229 911 c13 -8 13 -19 -2 -83 -10 -40 -17 -83 -17 -94 0 -23 26 -51 37 -40 3 3 0 6 -7 6 -18 0 -5 88 18 113 10 13 12 17 3 12 -11 -6 -13 -4 -8 8 3 8 9 32 13 51 6 34 5 36 -22 36 -22 0 -25 -3 -15 -9z"/>
        <path d="M5478 907 c8 -9 5 -35 -9 -92 -16 -60 -18 -84 -10 -102 6 -13 15 -23 21 -23 7 0 6 6 -1 18 -24 39 27 138 61 117 23 -14 3 -99 -27 -122 -11 -8 -12 -13 -4 -13 6 0 23 11 36 25 48 47 24 139 -29 119 -19 -7 -20 7 -7 54 9 30 8 32 -16 32 -20 0 -23 -3 -15 -13z"/>
        <path d="M3550 895 c0 -9 5 -15 11 -13 6 2 11 8 11 13 0 5 -5 11 -11 13 -6 2 -11 -4 -11 -13z"/>
        <path d="M5138 898 c-21 -17 -32 -55 -18 -63 18 -11 35 11 21 28 -9 11 -8 17 3 26 37 31 83 -19 65 -68 -6 -14 -30 -49 -55 -78 l-46 -53 66 0 c56 0 66 3 66 18 0 14 -8 17 -47 14 l-48 -4 46 49 c59 60 66 82 38 116 -22 29 -64 36 -91 15z"/>
        <path d="M5800 895 c0 -9 5 -15 11 -13 6 2 11 8 11 13 0 5 -5 11 -11 13 -6 2 -11 -4 -11 -13z"/>
        <path d="M3021 818 c-1 -35 -3 -37 -38 -41 l-38 -4 38 -1 c36 -2 37 -3 38 -39 l2 -38 6 35 c5 32 9 35 46 39 l40 5 -40 5 c-36 5 -41 9 -46 41 l-6 35 -2 -37z"/>
        <path d="M142 815 c-35 -29 -48 -74 -32 -104 17 -34 25 -24 25 30 0 43 4 55 28 75 16 13 24 24 18 24 -5 0 -23 -11 -39 -25z"/>
        <path d="M484 830 c-28 -11 -54 -48 -54 -78 0 -32 17 -62 36 -62 13 0 13 2 -1 16 -10 11 -14 25 -10 38 3 12 8 30 10 41 10 42 70 60 70 20 0 -12 -9 -22 -25 -26 -22 -6 -23 -7 -4 -8 30 -1 51 26 37 47 -12 20 -31 24 -59 12z"/>
        <path d="M3295 824 c20 -20 13 -66 -16 -106 -27 -38 -7 -35 25 3 15 17 26 43 26 59 0 28 -22 60 -41 60 -6 0 -3 -7 6 -16z"/>
        <path d="M3518 829 c-10 -5 -18 -15 -18 -20 0 -6 8 -3 17 7 25 24 28 3 8 -56 -18 -54 -14 -70 15 -70 18 0 47 36 37 47 -3 2 -8 -5 -12 -16 -3 -12 -13 -21 -21 -21 -18 0 -18 2 3 59 15 45 14 81 -4 81 -4 0 -16 -5 -25 -11z"/>
        <path d="M5309 811 c-21 -21 -29 -39 -29 -64 0 -33 23 -67 37 -53 3 3 1 6 -7 6 -16 0 -6 75 16 108 15 23 39 29 49 12 11 -18 -6 -91 -26 -111 -10 -10 -15 -19 -11 -19 4 0 13 5 20 12 9 9 12 9 12 0 0 -20 39 -13 50 9 7 11 9 23 7 26 -3 2 -8 -5 -12 -16 -3 -12 -11 -21 -17 -21 -11 0 -6 56 8 109 6 20 4 23 -9 18 -9 -3 -19 -2 -22 3 -11 18 -36 10 -66 -19z"/>
        <path d="M5660 833 c-8 -3 -25 -15 -37 -26 -26 -23 -32 -84 -11 -105 18 -18 30 -14 17 6 -19 30 1 93 34 112 24 13 29 13 37 0 11 -17 -5 -40 -28 -40 -8 0 -13 -3 -9 -6 9 -10 45 6 51 23 12 30 -18 49 -54 36z"/>
        <path d="M5768 829 c-10 -5 -18 -15 -18 -20 0 -6 8 -3 17 7 25 24 28 3 8 -56 -18 -54 -14 -70 15 -70 18 0 47 36 37 47 -3 2 -8 -5 -12 -16 -3 -12 -13 -21 -21 -21 -18 0 -18 2 3 59 15 45 14 81 -4 81 -4 0 -16 -5 -25 -11z"/>
        <path d="M205 812 c9 -24 -14 -90 -38 -107 -12 -8 -16 -15 -10 -15 7 0 15 4 18 10 4 6 13 5 24 -2 24 -14 51 -4 50 19 -1 17 -2 17 -6 1 -4 -17 -33 -26 -33 -10 0 4 7 32 15 62 8 30 15 56 15 57 0 1 -9 1 -20 0 -13 -1 -19 -6 -15 -15z"/>
        <path d="M5705 720 c-4 -6 -17 -15 -29 -20 -12 -5 -15 -9 -6 -9 18 0 56 27 48 35 -3 3 -9 0 -13 -6z"/>
        <path d="M515 705 c-16 -8 -23 -14 -14 -15 8 0 24 7 35 15 23 18 18 18 -21 0z"/>
        <path d="M1803 403 c944 -2 2490 -2 3435 0 944 1 171 2 -1718 2 -1889 0 -2662 -1 -1717 -2z"/>
        <path d="M3739 301 c13 -8 13 -19 -2 -83 -10 -40 -17 -83 -17 -94 0 -23 26 -51 37 -40 3 3 0 6 -7 6 -18 0 -5 88 18 113 10 13 12 17 3 12 -11 -6 -13 -4 -8 8 3 8 9 32 13 51 6 34 5 36 -22 36 -22 0 -25 -3 -15 -9z"/>
        <path d="M3531 208 c-1 -35 -3 -37 -38 -41 l-38 -4 38 -1 c36 -2 37 -3 38 -39 l2 -38 6 35 c5 32 9 35 46 39 l40 5 -40 5 c-36 5 -41 9 -46 41 l-6 35 -2 -37z"/>
        <path d="M3261 216 c-44 -24 -67 -96 -39 -124 17 -17 33 -15 19 2 -22 26 17 126 48 126 37 0 28 -89 -11 -122 -11 -10 -16 -18 -11 -18 5 0 14 5 20 11 8 8 13 8 17 0 18 -28 57 -4 55 32 0 7 -4 2 -9 -10 -15 -36 -34 -29 -26 10 20 90 20 101 3 94 -9 -3 -19 -2 -22 3 -8 13 -15 12 -44 -4z"/>
        <path d="M3805 214 c20 -20 13 -66 -16 -107 -27 -37 -7 -34 25 4 15 17 26 43 26 59 0 28 -22 60 -41 60 -6 0 -3 -7 6 -16z"/>
    </g>
</svg>