<svg xmlns="http://www.w3.org/2000/svg" version="1.0" width="923.000000pt" height="282.000000pt" viewBox="0 0 923.000000 282.000000" preserveAspectRatio="xMidYMid meet">
    <metadata>
Created by potrace 1.16, written by Peter Selinger 2001-2019
    </metadata>
    <g transform="translate(0.000000,282.000000) scale(0.100000,-0.100000)" fill="#000000" stroke="none">
        <path d="M5600 2664 c-41 -58 -76 -109 -78 -114 -2 -5 27 -10 65 -12 66 -3 68 -4 71 -30 3 -24 0 -28 -22 -28 -14 0 -26 -4 -26 -10 0 -6 30 -10 70 -10 40 0 70 4 70 10 0 6 -11 10 -25 10 -21 0 -25 5 -25 29 0 25 5 30 28 34 l27 4 -27 2 -28 1 0 110 c0 82 -3 110 -12 110 -7 -1 -47 -48 -88 -106z m57 -111 c-3 -2 -30 -3 -60 -1 l-55 3 56 80 57 80 3 -79 c2 -43 1 -80 -1 -83z"/>
        <path d="M7924 2691 c-48 -29 -56 -106 -10 -88 18 7 21 33 5 42 -18 12 21 45 53 45 63 0 90 -78 46 -136 -13 -16 -49 -54 -80 -83 -32 -30 -58 -58 -58 -62 0 -5 45 -9 100 -9 99 0 100 0 100 24 0 13 3 31 6 40 3 9 2 16 -4 16 -5 0 -12 -9 -15 -20 -4 -17 -13 -20 -69 -20 l-63 0 72 68 c39 37 75 77 78 90 10 35 -13 79 -50 96 -43 21 -73 20 -111 -3z"/>
        <path d="M1832 2530 c-242 -64 -425 -247 -489 -490 -22 -86 -22 -243 1 -330 49 -180 185 -349 347 -429 113 -55 193 -74 309 -74 311 1 573 205 650 509 51 197 -1 436 -126 582 -19 22 -34 44 -34 48 0 5 39 48 87 96 48 48 84 91 80 95 -4 4 -47 -32 -95 -80 -48 -48 -91 -87 -95 -87 -5 0 -26 15 -47 33 l-39 32 46 47 c26 26 44 51 40 55 -4 4 -29 -15 -56 -41 l-48 -48 -63 32 c-138 70 -319 89 -468 50z m328 -27 c36 -8 92 -29 124 -45 l59 -30 -107 -107 c-59 -59 -103 -110 -99 -114 4 -4 55 40 114 99 106 106 108 107 131 91 43 -30 58 -44 58 -53 0 -6 -25 -34 -55 -64 -30 -29 -51 -58 -48 -63 3 -5 31 16 62 47 31 31 61 56 66 56 16 0 85 -99 116 -165 84 -178 83 -387 -2 -560 -115 -234 -369 -381 -624 -361 -166 12 -289 70 -411 191 -89 88 -123 143 -161 255 -108 322 66 683 389 804 125 47 249 53 388 19z"/>
        <path d="M2363 2103 c-28 -5 -30 -23 -3 -23 27 0 26 -8 -16 -173 -41 -164 -41 -208 2 -246 73 -62 204 45 204 168 0 95 -55 135 -131 95 -29 -15 -30 -14 -25 3 3 10 12 47 21 83 9 36 18 73 21 83 5 18 -17 21 -73 10z m136 -207 c27 -56 -32 -219 -85 -232 -56 -14 -74 26 -55 120 16 76 30 102 67 127 37 25 55 21 73 -15z"/>
        <path d="M2065 1928 c-85 -47 -130 -162 -94 -242 22 -48 92 -58 134 -19 18 18 20 18 42 -5 29 -29 60 -26 84 8 23 32 35 80 20 80 -6 0 -11 -7 -11 -15 0 -27 -30 -75 -46 -75 -27 0 -27 30 2 141 21 82 25 112 16 121 -8 8 -15 8 -24 0 -9 -7 -18 -6 -32 4 -23 17 -63 18 -91 2z m87 -29 c20 -26 20 -27 -2 -105 -24 -90 -58 -134 -102 -134 -42 0 -53 29 -38 104 14 72 41 129 72 151 29 20 46 16 70 -16z"/>
        <path d="M1473 1818 c3 -10 43 -13 157 -13 114 0 154 3 158 13 3 9 -33 12 -158 12 -125 0 -161 -3 -157 -12z"/>
        <path d="M3163 2391 c-48 -12 -118 -57 -151 -97 -58 -70 -64 -111 -60 -420 3 -265 4 -281 25 -320 36 -67 70 -101 131 -131 l57 -28 550 0 550 0 57 28 c61 30 95 64 131 131 21 39 22 55 25 319 3 227 0 288 -12 331 -19 66 -79 135 -143 167 l-48 24 -540 2 c-297 1 -554 -2 -572 -6z m1142 -45 c55 -25 110 -81 131 -132 21 -50 20 -587 -1 -637 -21 -50 -60 -93 -114 -125 l-46 -27 -534 -3 c-588 -3 -601 -2 -673 58 -20 16 -48 53 -62 82 l-26 52 0 274 c0 180 4 288 12 313 16 55 73 118 132 145 l51 24 540 0 540 0 50 -24z"/>
        <path d="M4050 2173 c-50 -20 -80 -86 -44 -100 24 -9 36 18 18 38 -14 15 -13 19 8 33 45 32 105 10 109 -40 5 -50 -5 -68 -76 -143 -41 -43 -75 -81 -75 -85 0 -3 42 -6 94 -6 l94 0 6 31 c8 42 8 49 -3 49 -5 0 -11 -9 -14 -20 -4 -17 -13 -20 -69 -20 l-63 1 31 27 c17 15 49 43 72 62 83 73 63 162 -39 175 -19 2 -41 2 -49 -2z"/>
        <path d="M3748 2073 c-27 -7 -22 -23 7 -23 14 0 25 -3 25 -6 0 -3 -18 -76 -40 -162 -40 -155 -43 -197 -17 -233 70 -94 219 13 221 158 1 41 -4 56 -23 77 -26 28 -67 34 -103 15 -11 -6 -22 -8 -24 -6 -3 3 4 44 15 92 12 48 21 88 21 91 0 5 -59 3 -82 -3z m136 -189 c20 -20 20 -66 0 -135 -22 -75 -58 -121 -92 -117 -45 5 -55 42 -37 130 13 60 21 79 50 106 39 36 56 39 79 16z"/>
        <path d="M3223 1788 c3 -10 42 -13 152 -13 110 0 149 3 153 13 3 9 -32 12 -153 12 -121 0 -156 -3 -152 -12z"/>
        <path d="M5883 2289 l-31 -31 -63 20 c-90 29 -153 35 -234 22 -205 -31 -373 -199 -405 -404 -39 -250 125 -491 371 -546 79 -18 209 -8 282 20 132 50 246 174 288 311 18 59 21 88 17 168 -5 107 -34 188 -94 267 l-32 42 74 73 c49 49 70 77 64 83 -7 7 -35 -14 -84 -63 l-74 -74 -39 29 c-21 15 -40 30 -42 31 -3 2 10 18 27 36 18 18 29 36 26 40 -12 11 -18 8 -51 -24z m-101 -36 l48 -19 -55 -54 c-50 -49 -68 -80 -47 -80 4 0 34 27 67 60 33 33 62 60 65 60 3 0 23 -14 43 -31 l38 -32 -36 -37 c-51 -53 -36 -75 16 -24 38 37 39 37 59 19 33 -30 89 -154 101 -224 24 -136 -27 -288 -130 -392 -177 -176 -454 -180 -636 -8 -260 246 -151 676 196 774 71 20 207 14 271 -12z"/>
        <path d="M5530 1940 c0 -60 4 -110 8 -110 5 0 17 9 26 19 21 23 60 34 87 26 31 -10 49 -58 49 -129 0 -55 -4 -69 -26 -95 -33 -40 -79 -42 -123 -5 -36 30 -38 40 -10 47 31 8 22 52 -11 52 -21 0 -25 -5 -28 -35 -2 -26 4 -43 25 -69 58 -68 172 -48 215 39 48 95 -13 210 -112 210 -20 0 -46 -7 -58 -16 l-22 -15 0 63 0 63 58 0 c44 0 65 5 90 23 17 13 32 28 32 33 0 7 -12 8 -32 3 -42 -11 -83 -11 -130 -1 l-38 8 0 -111z"/>
        <path d="M7663 2240 c-66 -40 -68 -50 -71 -400 -3 -311 -2 -316 20 -360 17 -33 35 -51 68 -68 44 -22 50 -23 322 -20 261 3 278 4 304 24 15 11 37 33 48 48 20 26 21 40 21 364 0 465 30 432 -392 432 -268 0 -290 -1 -320 -20z m634 -26 c52 -39 53 -45 53 -392 l0 -322 -34 -38 -34 -37 -296 0 -296 0 -32 33 -33 32 -3 328 c-3 454 -31 423 375 419 258 -2 273 -3 300 -23z"/>
        <path d="M7925 2051 c-34 -14 -57 -47 -53 -78 2 -22 8 -28 28 -28 31 0 40 33 14 52 -18 14 -18 15 0 29 11 8 39 14 63 14 53 0 67 -22 60 -93 -5 -58 -31 -87 -79 -87 -17 0 -27 -4 -23 -10 3 -5 21 -10 39 -10 52 0 76 -34 76 -106 0 -101 -42 -132 -128 -94 l-47 21 24 18 c26 20 25 48 -1 64 -12 8 -21 7 -32 -2 -26 -22 -19 -60 18 -97 31 -31 39 -34 96 -34 59 0 64 2 101 39 32 32 39 46 39 77 0 50 -29 97 -70 114 l-31 13 29 19 c39 24 65 88 52 123 -19 51 -113 81 -175 56z"/>
        <path d="M1003 2173 c-27 -5 -63 -48 -63 -75 0 -24 26 -34 45 -18 14 11 14 15 -2 32 -21 24 -8 38 43 45 50 6 78 -21 77 -73 -1 -42 -32 -85 -108 -149 -30 -26 -55 -51 -55 -56 0 -5 44 -9 99 -9 l99 0 6 31 c8 42 8 49 -3 49 -5 0 -11 -9 -14 -20 -4 -17 -13 -20 -69 -20 l-63 1 31 27 c17 15 49 43 72 62 83 73 62 164 -39 175 -19 2 -44 1 -56 -2z"/>
        <path d="M8920 2173 c-50 -20 -80 -86 -44 -100 24 -9 36 18 18 38 -14 15 -13 19 8 33 45 32 105 10 109 -40 5 -50 -5 -68 -76 -143 -41 -43 -75 -81 -75 -85 0 -3 42 -6 94 -6 l94 0 6 31 c8 42 8 49 -3 49 -5 0 -11 -9 -14 -20 -4 -17 -13 -20 -69 -20 l-63 1 31 27 c17 15 49 43 72 62 83 73 63 162 -39 175 -19 2 -41 2 -49 -2z"/>
        <path d="M6717 2073 c-22 -6 -12 -23 14 -23 25 0 25 -9 -16 -163 -47 -177 -45 -227 9 -262 71 -47 196 66 196 175 0 46 -21 94 -45 104 -29 11 -70 7 -93 -10 -27 -18 -27 -18 -2 76 27 104 27 110 -12 109 -18 -1 -41 -3 -51 -6z m143 -188 c16 -20 14 -88 -4 -149 -28 -91 -102 -138 -128 -80 -9 19 -9 42 0 96 15 85 24 104 65 128 39 24 51 25 67 5z"/>
        <path d="M8618 2073 c-27 -7 -21 -23 8 -23 20 0 24 -4 20 -17 -3 -10 -22 -85 -42 -167 -31 -129 -35 -154 -25 -187 14 -47 35 -64 81 -64 92 0 181 137 150 230 -20 61 -71 80 -129 50 l-29 -14 24 92 c13 51 24 95 24 100 0 7 -53 8 -82 0z m137 -190 c31 -31 2 -173 -46 -224 -36 -39 -73 -39 -89 1 -10 24 -9 43 4 104 14 63 23 80 52 105 40 35 56 38 79 14z"/>
        <path d="M330 2047 c-29 -14 -70 -72 -70 -98 0 -29 28 -51 51 -39 25 14 25 50 -1 57 -23 6 -24 12 -7 34 33 43 96 51 131 16 63 -63 35 -151 -92 -292 -45 -49 -82 -93 -82 -97 0 -5 56 -8 124 -8 l124 0 9 53 c11 63 4 84 -12 36 l-12 -34 -89 -3 -89 -2 94 91 c51 50 100 107 108 126 15 38 10 83 -14 119 -30 47 -120 68 -173 41z"/>
        <path d="M4798 1878 l-3 -73 -73 -3 c-99 -4 -94 -26 6 -30 l72 -3 0 -70 c0 -52 3 -70 13 -67 7 3 13 29 15 71 l3 66 66 3 c42 2 68 8 71 16 3 9 -15 12 -67 12 l-70 0 -3 72 c-4 100 -26 105 -30 6z"/>
        <path d="M7248 1878 l-3 -73 -68 -5 c-91 -7 -91 -24 1 -28 l72 -3 0 -70 c0 -52 3 -70 13 -67 7 3 13 29 15 71 l3 66 66 3 c42 2 68 8 71 16 3 9 -15 12 -67 12 l-70 0 -3 72 c-4 100 -26 105 -30 6z"/>
        <path d="M683 1890 c-18 -10 -45 -38 -60 -61 -23 -35 -28 -53 -28 -105 0 -97 50 -134 127 -94 34 18 41 18 54 6 24 -25 54 -29 74 -11 21 19 46 83 36 92 -5 5 -11 -9 -31 -65 -7 -18 -35 -26 -47 -14 -8 8 -2 46 20 132 25 100 28 122 16 127 -8 3 -20 0 -28 -6 -10 -8 -16 -8 -26 4 -17 21 -69 19 -107 -5z m97 -10 c24 -24 24 -27 1 -119 -28 -107 -92 -163 -132 -115 -29 35 3 178 51 225 34 34 53 36 80 9z"/>
        <path d="M6390 1862 c-77 -80 -88 -177 -27 -228 36 -30 77 -27 114 8 13 12 23 16 23 10 0 -6 11 -19 25 -28 31 -20 71 -7 84 28 18 50 22 68 13 68 -5 0 -14 -18 -21 -41 -13 -42 -35 -59 -54 -40 -8 8 -4 40 17 127 20 83 25 119 18 126 -8 8 -15 8 -24 0 -9 -7 -18 -6 -32 4 -11 8 -36 14 -55 14 -28 0 -43 -9 -81 -48z m116 30 c30 -20 33 -48 13 -128 -15 -60 -27 -86 -50 -106 -58 -54 -107 -25 -95 56 12 75 37 135 67 161 32 26 46 30 65 17z"/>
        <path d="M230 1095 c0 -13 501 -15 4445 -15 3944 0 4445 2 4445 15 0 13 -501 15 -4445 15 -3944 0 -4445 -2 -4445 -15z"/>
        <path d="M3360 952 c-40 -18 -61 -42 -63 -68 -1 -21 3 -29 17 -32 26 -6 38 19 20 39 -14 15 -13 19 8 33 52 37 113 5 111 -59 -1 -42 -25 -76 -103 -148 -33 -31 -60 -58 -60 -61 0 -4 44 -6 99 -6 l99 0 6 31 c8 42 8 49 -3 49 -5 0 -11 -9 -14 -20 -4 -17 -13 -20 -69 -20 l-63 1 31 27 c17 15 49 43 72 62 83 73 63 162 -39 175 -19 3 -41 1 -49 -3z"/>
        <path d="M6554 951 c-45 -19 -71 -85 -38 -98 26 -10 41 14 25 39 -12 19 -11 23 5 35 30 22 70 16 93 -13 39 -50 24 -88 -73 -184 -36 -35 -66 -68 -66 -72 0 -4 42 -8 94 -8 101 0 107 3 105 58 0 27 0 27 -11 5 -10 -21 -18 -23 -77 -23 l-66 1 40 32 c91 72 115 102 115 144 0 29 -7 46 -24 62 -27 25 -89 36 -122 22z"/>
        <path d="M4998 913 c-32 -5 -38 -23 -8 -23 27 0 26 -8 -16 -173 -40 -157 -40 -204 -2 -244 19 -20 30 -24 61 -20 80 11 138 82 145 178 4 54 2 60 -26 89 -34 34 -59 37 -102 15 -17 -9 -30 -14 -30 -13 0 2 11 44 24 95 13 51 21 94 18 98 -6 5 -18 5 -64 -2z m133 -209 c20 -54 -33 -208 -80 -231 -56 -27 -82 24 -62 121 17 80 33 110 72 129 38 18 57 13 70 -19z"/>
        <path d="M6280 913 c-37 -7 -49 -23 -17 -23 35 0 35 -3 -8 -167 -43 -165 -44 -201 -9 -242 48 -57 127 -31 182 59 44 74 45 138 3 181 -33 33 -58 36 -102 14 l-30 -16 7 28 c3 15 12 53 20 84 23 93 22 94 -46 82z m128 -263 c-6 -84 -38 -154 -80 -176 -27 -14 -31 -14 -49 2 -29 26 -18 146 19 212 18 32 71 53 96 40 16 -9 18 -19 14 -78z"/>
        <path d="M4439 880 c-33 -43 -199 -298 -199 -305 0 -3 41 -5 91 -5 l90 0 -3 -42 c-3 -39 -6 -43 -30 -46 -16 -2 -28 -8 -28 -13 0 -5 41 -9 92 -9 56 0 88 4 83 9 -6 5 -21 11 -35 13 -22 3 -25 9 -28 46 l-3 42 35 0 c20 0 36 5 36 10 0 6 -16 10 -35 10 l-35 0 -2 163 -3 162 -26 -35z m-19 -175 l0 -115 -76 0 c-42 0 -74 4 -72 9 4 11 142 221 146 221 1 0 2 -52 2 -115z"/>
        <path d="M2684 884 c-71 -35 -89 -144 -24 -144 5 0 15 10 21 22 10 18 8 24 -10 39 -28 23 -16 50 28 69 42 17 78 5 101 -33 44 -71 19 -138 -100 -271 -44 -49 -80 -92 -80 -97 0 -11 237 -12 243 -1 11 18 18 102 8 102 -5 0 -11 -12 -13 -27 l-3 -28 -92 -3 -91 -3 90 88 c49 48 96 100 104 115 57 110 -67 229 -182 172z"/>
        <path d="M5964 890 c-33 -13 -74 -69 -74 -100 0 -32 23 -55 45 -46 27 10 30 38 7 57 -27 21 -20 44 19 64 39 21 64 19 94 -8 37 -32 44 -98 17 -158 -11 -24 -56 -84 -101 -134 -44 -49 -81 -93 -81 -97 0 -5 56 -8 124 -8 l123 0 7 51 c7 50 1 78 -9 45 -3 -9 -7 -23 -10 -31 -3 -12 -23 -15 -92 -15 l-88 0 95 94 c52 52 97 102 101 113 16 38 9 100 -13 128 -36 46 -110 67 -164 45z"/>
        <path d="M3886 783 c-3 -3 -6 -37 -6 -75 l0 -68 -70 0 c-56 0 -70 -3 -70 -15 0 -12 14 -15 70 -15 l70 0 0 -70 c0 -56 3 -70 15 -70 12 0 15 14 15 70 l0 70 70 0 c56 0 70 3 70 15 0 12 -14 15 -70 15 l-70 0 0 69 c0 65 -8 90 -24 74z"/>
        <path d="M5516 783 c-3 -3 -6 -37 -6 -75 l0 -68 -70 0 c-56 0 -70 -3 -70 -15 0 -12 14 -15 70 -15 l70 0 0 -70 c0 -56 3 -70 15 -70 12 0 15 14 15 70 l0 70 70 0 c56 0 70 3 70 15 0 12 -14 15 -70 15 l-70 0 0 69 c0 65 -8 90 -24 74z"/>
        <path d="M3044 731 c-40 -24 -78 -75 -94 -124 -34 -108 55 -198 134 -136 l27 21 23 -21 c45 -42 93 -16 102 55 l4 39 -15 -40 c-16 -41 -42 -68 -56 -59 -15 9 -10 54 17 157 19 70 23 102 16 109 -8 8 -16 7 -27 -2 -13 -11 -18 -10 -33 4 -24 21 -60 20 -98 -3z m103 -39 c9 -36 -24 -161 -51 -191 -49 -54 -106 -42 -106 23 0 46 27 137 48 166 42 56 95 57 109 2z"/>
        <path d="M4695 738 c-54 -29 -91 -82 -106 -147 -10 -47 -1 -85 27 -116 28 -30 68 -32 109 -5 29 19 30 19 51 -1 28 -26 62 -22 85 11 21 31 33 80 19 80 -5 0 -10 -8 -10 -17 0 -31 -38 -83 -55 -77 -21 8 -19 28 11 150 21 82 24 108 15 117 -10 9 -15 8 -25 -5 -12 -17 -14 -17 -31 2 -20 22 -59 26 -90 8z m95 -38 c8 -14 5 -39 -11 -97 -30 -112 -87 -165 -130 -122 -23 23 -24 46 -5 117 34 125 106 176 146 102z"/>
    </g>
</svg>