<svg xmlns="http://www.w3.org/2000/svg" version="1.0" width="234.000000pt" height="140.000000pt" viewBox="0 0 234.000000 140.000000" preserveAspectRatio="xMidYMid meet">

    <g transform="translate(0.000000,140.000000) scale(0.100000,-0.100000)" fill="#000000" stroke="none">
        <path d="M450 1339 c-221 -43 -370 -275 -316 -489 86 -335 510 -421 718 -145 86 114 102 282 39 410 -36 73 -131 167 -197 195 -45 20 -143 41 -178 39 -12 -1 -41 -5 -66 -10z m234 -42 c246 -113 306 -438 116 -627 -154 -155 -400 -153 -549 5 -164 173 -144 434 44 577 106 81 268 100 389 45z"/>
        <path d="M432 1058 c-2 -37 -3 -38 -39 -39 l-38 -2 35 -6 35 -6 3 -62 3 -63 -36 0 c-22 0 -34 -4 -30 -10 3 -5 19 -10 35 -10 25 0 29 -4 33 -32 4 -31 4 -31 6 7 1 22 3 69 4 105 l2 65 35 6 35 6 -37 2 c-35 1 -37 3 -41 39 l-4 37 -1 -37z"/>
        <path d="M567 910 c-30 -24 -43 -70 -28 -99 9 -17 20 -19 72 -18 54 2 63 5 70 25 6 15 5 21 -1 17 -6 -3 -10 -13 -10 -21 0 -8 -7 -14 -15 -14 -16 0 -15 6 5 86 7 30 6 32 -22 38 -42 8 -42 8 -71 -14z m66 -4 c7 -18 -7 -72 -24 -92 -6 -8 -20 -14 -30 -14 -24 0 -26 48 -4 90 16 32 49 40 58 16z"/>
        <path d="M1730 1340 c-116 -25 -232 -116 -286 -225 -27 -55 -29 -69 -29 -170 0 -104 2 -114 32 -176 40 -80 120 -159 200 -197 52 -24 70 -27 163 -27 99 0 110 2 171 32 81 40 160 121 197 200 35 77 43 205 17 288 -60 190 -271 315 -465 275z m246 -50 c238 -117 296 -411 118 -609 -204 -227 -583 -130 -660 169 -50 196 59 391 259 462 83 30 196 21 283 -22z"/>
        <path d="M1710 1056 c0 -33 -2 -35 -37 -39 l-38 -4 38 -1 37 -2 0 -65 0 -65 -36 0 c-21 0 -33 -4 -29 -10 3 -5 19 -10 36 -10 26 0 29 -3 29 -30 0 -16 5 -30 10 -30 6 0 10 14 10 30 0 27 3 30 29 30 17 0 33 5 36 10 4 6 -8 10 -29 10 l-36 0 0 105 c0 63 -4 105 -10 105 -5 0 -10 -15 -10 -34z"/>
        <path d="M1857 919 c-29 -17 -49 -73 -37 -103 8 -23 14 -25 70 -24 49 1 63 4 71 20 6 11 8 22 6 25 -3 2 -8 -5 -12 -16 -3 -12 -11 -21 -16 -21 -12 0 -11 26 2 73 6 22 9 40 7 42 -10 10 -76 13 -91 4z m59 -13 c10 -25 -15 -94 -36 -101 -31 -10 -43 4 -37 43 10 55 59 95 73 58z"/>
        <path d="M1091 968 c-1 -35 -3 -37 -38 -41 l-38 -4 38 -1 37 -2 0 -64 0 -65 -37 -4 -38 -4 37 -1 c35 -2 37 -4 41 -39 2 -21 4 10 5 70 l2 107 38 1 37 2 -35 6 c-30 5 -36 11 -41 41 l-6 35 -2 -37z"/>
        <path d="M1217 919 c7 -7 5 -32 -9 -87 -23 -91 -16 -122 30 -122 58 0 103 88 63 124 -12 11 -29 16 -41 13 -23 -6 -24 3 -11 51 9 30 8 32 -17 32 -18 0 -23 -3 -15 -11z m71 -111 c4 -37 -24 -88 -48 -88 -21 0 -24 7 -20 50 4 62 62 94 68 38z"/>
        <path d="M125 480 c9 -14 2085 -14 2085 0 0 7 -355 10 -1046 10 -694 0 -1043 -3 -1039 -10z"/>
        <path d="M1389 371 c13 -8 12 -21 -4 -91 -21 -91 -16 -113 28 -118 38 -5 77 37 77 81 0 41 -21 62 -54 53 -24 -6 -24 -5 -15 26 14 50 11 58 -18 58 -21 0 -24 -3 -14 -9z m74 -126 c-3 -45 -32 -81 -58 -71 -14 5 -16 14 -10 44 14 76 72 100 68 27z"/>
        <path d="M1182 288 c-2 -36 -4 -38 -37 -38 -19 0 -35 -4 -35 -10 0 -5 15 -10 34 -10 33 0 35 -2 39 -37 l4 -38 1 38 c2 35 4 37 37 37 19 0 35 5 35 10 0 6 -15 10 -34 10 -33 0 -35 2 -39 38 l-4 37 -1 -37z"/>
        <path d="M887 280 c-30 -24 -43 -70 -28 -99 9 -17 20 -19 72 -18 54 2 63 5 70 25 6 15 5 21 -1 17 -6 -3 -10 -13 -10 -21 0 -8 -7 -14 -15 -14 -16 0 -15 6 5 86 7 30 6 32 -22 38 -42 8 -42 8 -71 -14z m66 -4 c7 -18 -7 -72 -24 -92 -6 -8 -20 -14 -30 -14 -24 0 -26 48 -4 90 16 32 49 40 58 16z"/>
    </g>
</svg>