<svg xmlns="http://www.w3.org/2000/svg" version="1.0" width="280.000000pt" height="325.000000pt" viewBox="0 0 280.000000 325.000000" preserveAspectRatio="xMidYMid meet">

    <g transform="translate(0.000000,325.000000) scale(0.100000,-0.100000)" fill="#000000" stroke="none">
        <path d="M1835 3100 c-23 -6 -25 -8 -8 -9 12 0 24 -5 27 -10 4 -5 -10 -74 -29 -152 -38 -156 -40 -176 -24 -213 36 -79 149 -40 193 66 25 59 21 105 -13 139 -33 33 -56 36 -89 13 -13 -9 -25 -14 -27 -12 -2 1 5 39 16 83 10 44 19 86 19 93 0 13 -19 14 -65 2z m126 -182 c26 -48 -16 -191 -65 -223 -58 -39 -85 14 -61 122 13 57 22 77 46 98 37 31 65 32 80 3z"/>
        <path d="M2378 2693 c-25 -6 -44 -42 -58 -106 -12 -53 -15 -57 -42 -57 -15 0 -28 -4 -28 -10 0 -5 11 -10 25 -10 31 0 31 0 -4 -178 -30 -149 -40 -172 -74 -172 -19 0 -19 1 -3 19 19 21 14 41 -9 41 -25 0 -37 -36 -19 -54 35 -35 89 -7 114 59 10 27 36 146 54 248 6 34 9 37 41 37 19 0 35 5 35 10 0 6 -13 10 -30 10 -34 0 -35 3 -19 83 13 61 29 83 55 73 14 -5 14 -7 0 -22 -26 -26 -15 -51 18 -38 22 9 20 51 -3 64 -20 10 -25 11 -53 3z"/>
        <path d="M1720 2430 c0 -19 7 -20 165 -20 158 0 165 1 165 20 0 19 -7 20 -165 20 -158 0 -165 -1 -165 -20z"/>
        <path d="M503 2174 c-3 -8 -1 -20 4 -25 14 -14 43 0 43 22 0 24 -38 26 -47 3z"/>
        <path d="M1864 2100 c-25 -10 -82 -74 -95 -107 -13 -34 -11 -93 4 -123 7 -14 26 -28 45 -34 27 -8 38 -5 63 13 l31 23 22 -21 c12 -12 30 -21 39 -21 20 0 44 34 51 75 4 21 2 18 -9 -12 -17 -43 -41 -61 -59 -43 -7 7 -2 44 17 121 27 111 28 140 2 119 -11 -9 -20 -8 -37 4 -25 18 -42 19 -74 6z m71 -20 c17 -19 18 -26 6 -83 -16 -81 -40 -128 -73 -147 -39 -21 -62 -5 -66 49 -5 63 23 145 59 175 37 31 50 32 74 6z"/>
        <path d="M435 2034 c-14 -15 -25 -30 -25 -35 0 -4 -3 -16 -6 -26 -3 -10 2 -4 12 12 23 42 45 65 61 65 21 0 16 -38 -19 -137 -32 -90 -32 -92 -14 -112 11 -12 26 -21 34 -21 13 0 12 3 -3 14 -18 13 -17 17 18 115 38 106 38 131 1 145 -26 10 -34 7 -59 -20z"/>
        <path d="M539 1853 c-6 -16 -18 -37 -27 -48 -17 -20 -17 -20 5 -2 12 11 26 32 32 48 13 37 4 38 -10 2z"/>
        <path d="M1030 1535 c0 -90 4 -145 10 -145 6 0 10 50 10 130 l0 130 120 0 119 0 3 -127 c2 -92 7 -128 16 -131 10 -3 12 27 10 140 l-3 143 -142 3 -143 3 0 -146z"/>
        <path d="M1650 1615 c0 -13 53 -15 420 -15 367 0 420 2 420 15 0 13 -53 15 -420 15 -367 0 -420 -2 -420 -15z"/>
        <path d="M210 1540 c0 -20 7 -20 270 -20 263 0 270 0 270 20 0 20 -7 20 -270 20 -263 0 -270 0 -270 -20z"/>
        <path d="M1650 1465 c0 -13 53 -15 420 -15 367 0 420 2 420 15 0 13 -53 15 -420 15 -367 0 -420 -2 -420 -15z"/>
        <path d="M1904 1240 c-25 -10 -82 -74 -95 -107 -13 -34 -11 -93 4 -123 7 -14 26 -28 45 -34 27 -8 38 -5 63 13 l31 23 22 -21 c12 -12 30 -21 39 -21 20 0 44 34 51 75 4 21 2 18 -9 -12 -17 -43 -41 -61 -59 -43 -7 7 -2 44 17 121 27 111 28 140 2 119 -11 -9 -20 -8 -37 4 -25 18 -42 19 -74 6z m71 -20 c17 -19 18 -26 6 -83 -16 -81 -40 -128 -73 -147 -39 -21 -62 -5 -66 49 -5 63 23 145 59 175 37 31 50 32 74 6z"/>
        <path d="M270 1200 c-11 -11 -20 -26 -20 -34 0 -8 -3 -23 -6 -33 -3 -10 5 2 18 27 24 48 51 59 56 24 2 -12 -9 -68 -23 -124 -18 -72 -23 -106 -16 -113 17 -17 27 1 51 102 26 105 54 147 107 157 53 10 59 -17 28 -143 -17 -73 -22 -110 -15 -117 16 -16 26 3 50 102 25 105 53 147 102 157 24 6 35 3 45 -11 15 -21 11 -49 -18 -134 -10 -30 -19 -62 -19 -71 0 -22 26 -49 46 -49 24 0 74 56 74 82 0 18 -4 14 -19 -18 -19 -42 -47 -62 -63 -46 -6 6 1 42 16 91 32 99 32 125 5 152 -28 28 -81 20 -120 -17 -27 -25 -27 -26 -34 -5 -14 46 -93 52 -130 11 -21 -24 -35 -26 -35 -5 0 14 -29 35 -49 35 -6 0 -20 -9 -31 -20z"/>
        <path d="M2280 817 c-48 -25 -90 -89 -90 -137 0 -70 44 -121 102 -119 20 1 18 2 -7 10 -38 11 -55 34 -55 75 0 51 9 64 44 64 43 0 102 18 121 36 22 22 19 60 -7 78 -31 22 -57 20 -108 -7z m105 -7 c18 -20 18 -21 -2 -48 -21 -28 -48 -39 -100 -41 -40 -1 -44 22 -12 63 37 47 85 58 114 26z"/>
        <path d="M1760 730 c0 -19 7 -20 165 -20 158 0 165 1 165 20 0 19 -7 20 -165 20 -158 0 -165 -1 -165 -20z"/>
        <path d="M2394 619 c-10 -12 -32 -28 -49 -35 -16 -7 -23 -13 -15 -14 19 0 90 47 90 60 0 15 -5 12 -26 -11z"/>
        <path d="M1875 560 c-23 -6 -25 -8 -8 -9 12 0 24 -5 27 -10 4 -5 -10 -74 -29 -152 -38 -156 -40 -176 -24 -213 36 -79 149 -40 193 66 25 59 21 105 -13 139 -33 33 -56 36 -89 13 -13 -9 -25 -14 -27 -12 -2 1 5 39 16 83 10 44 19 86 19 93 0 13 -19 14 -65 2z m126 -182 c26 -48 -16 -191 -65 -223 -58 -39 -85 14 -61 122 13 57 22 77 46 98 37 31 65 32 80 3z"/>
    </g>
</svg>