<svg xmlns="http://www.w3.org/2000/svg" version="1.0" width="352.000000pt" height="483.000000pt" viewBox="0 0 352.000000 483.000000" preserveAspectRatio="xMidYMid meet">

    <g transform="translate(0.000000,483.000000) scale(0.100000,-0.100000)" fill="#000000" stroke="none">
        <path d="M2323 4633 c-51 -5 -62 -33 -14 -33 17 0 32 -4 35 -8 2 -4 -17 -96 -44 -202 -52 -205 -60 -282 -35 -330 17 -33 62 -60 97 -60 66 1 152 72 190 156 30 69 33 124 10 177 -34 77 -111 98 -181 48 l-28 -20 29 122 c16 67 31 130 34 140 6 18 3 18 -93 10z m171 -262 c48 -53 -9 -277 -83 -330 -61 -44 -111 -13 -111 67 1 66 34 199 56 224 27 30 75 58 100 58 11 0 29 -9 38 -19z"/>
        <path d="M3134 4021 c-46 -20 -72 -71 -94 -183 l-11 -58 -45 0 c-32 0 -44 -4 -44 -15 0 -11 11 -15 40 -15 28 0 40 -4 40 -14 0 -43 -83 -438 -100 -473 -15 -34 -25 -43 -44 -43 -33 0 -42 16 -16 30 15 8 20 19 18 38 -4 33 -32 41 -59 16 -27 -24 -24 -59 7 -83 40 -32 72 -27 114 17 46 49 69 119 111 339 l33 172 49 3 c70 4 76 28 7 28 l-51 0 7 38 c14 83 35 166 45 179 7 7 25 13 42 13 l30 0 -22 -24 c-40 -42 -11 -83 40 -56 23 13 26 62 5 79 -19 16 -76 23 -102 12z"/>
        <path d="M2150 3625 l0 -25 245 0 245 0 0 25 0 25 -245 0 -245 0 0 -25z"/>
        <path d="M632 3258 c-20 -20 -14 -56 9 -63 29 -10 64 25 54 54 -7 23 -43 29 -63 9z"/>
        <path d="M2355 3121 c-123 -56 -195 -238 -132 -332 44 -65 100 -75 167 -30 l44 29 27 -29 c45 -49 98 -35 130 34 19 44 26 92 10 83 -5 -3 -12 -21 -15 -40 -8 -39 -41 -86 -62 -86 -8 0 -19 10 -25 23 -8 17 -1 55 29 172 21 83 37 156 34 163 -6 18 -39 15 -52 -5 -8 -13 -13 -15 -16 -5 -7 16 -57 42 -81 42 -10 0 -36 -9 -58 -19z m110 -26 c31 -30 31 -46 0 -164 -26 -105 -43 -133 -95 -164 -47 -27 -83 -18 -100 24 -27 63 26 246 86 298 42 37 77 39 109 6z"/>
        <path d="M535 3048 c-38 -30 -82 -128 -57 -128 5 0 15 18 22 40 24 73 100 118 108 64 2 -11 -18 -74 -43 -139 -50 -133 -55 -175 -25 -205 42 -42 106 -15 144 61 14 29 22 57 19 63 -4 6 -17 -13 -30 -41 -23 -54 -62 -89 -88 -79 -24 9 -18 47 30 173 53 138 55 164 19 192 -34 27 -64 27 -99 -1z"/>
        <path d="M1260 2297 c0 -118 3 -217 7 -220 3 -4 12 -2 20 4 10 9 13 55 13 200 l0 189 175 0 175 0 0 -189 c0 -145 3 -191 13 -200 8 -6 17 -8 20 -4 4 3 7 102 7 220 l0 213 -215 0 -215 0 0 -213z"/>
        <path d="M2040 2405 l0 -25 630 0 630 0 0 25 0 25 -630 0 -630 0 0 -25z"/>
        <path d="M200 2295 l0 -25 405 0 405 0 0 25 0 25 -405 0 -405 0 0 -25z"/>
        <path d="M2040 2185 l0 -25 630 0 630 0 0 25 0 25 -630 0 -630 0 0 -25z"/>
        <path d="M2415 1831 c-123 -56 -195 -238 -132 -332 44 -65 100 -75 167 -30 l44 29 27 -29 c45 -49 98 -35 130 34 19 44 26 92 10 83 -5 -3 -12 -21 -15 -40 -8 -39 -41 -86 -62 -86 -8 0 -19 10 -25 23 -8 17 -1 55 29 172 21 83 37 156 34 163 -6 18 -39 15 -52 -5 -8 -13 -13 -15 -16 -5 -7 16 -57 42 -81 42 -10 0 -36 -9 -58 -19z m110 -26 c31 -30 31 -46 0 -164 -26 -105 -43 -133 -95 -164 -47 -27 -83 -18 -100 24 -27 63 26 246 86 298 42 37 77 39 109 6z"/>
        <path d="M276 1785 c-20 -22 -46 -85 -46 -114 0 -26 20 -8 25 23 11 54 42 98 68 94 34 -5 32 -38 -11 -209 -38 -153 -41 -179 -19 -179 28 1 38 23 71 149 38 146 66 199 119 224 51 25 83 22 104 -9 16 -25 15 -32 -22 -185 -31 -126 -37 -161 -27 -171 27 -27 46 7 80 143 22 90 42 145 59 167 49 65 123 91 158 55 23 -23 15 -86 -25 -202 -16 -48 -30 -96 -30 -105 0 -26 46 -66 76 -66 34 0 99 66 109 110 11 51 -2 46 -26 -9 -22 -53 -50 -81 -80 -81 -30 0 -30 30 1 118 43 127 52 174 39 211 -12 34 -53 61 -94 61 -35 0 -95 -26 -125 -55 l-25 -24 -13 29 c-26 59 -134 64 -197 9 -37 -33 -45 -35 -45 -15 0 21 -49 56 -77 56 -13 0 -34 -11 -47 -25z"/>
        <path d="M3015 1225 c-99 -37 -159 -124 -159 -230 0 -111 65 -174 166 -162 57 7 144 51 166 85 21 32 6 40 -18 9 -28 -35 -116 -77 -162 -77 -62 0 -88 33 -88 112 0 35 4 68 8 74 4 6 42 14 84 17 90 6 143 29 163 68 20 38 19 53 -8 84 -28 33 -93 41 -152 20z m123 -21 c46 -32 14 -101 -56 -122 -49 -15 -142 -16 -142 -2 0 6 9 28 20 50 38 75 125 111 178 74z"/>
        <path d="M2210 1075 l0 -25 245 0 245 0 0 25 0 25 -245 0 -245 0 0 -25z"/>
        <path d="M2383 813 c-51 -5 -62 -33 -14 -33 17 0 32 -4 35 -8 2 -4 -17 -96 -44 -202 -52 -205 -60 -282 -35 -330 17 -33 62 -60 97 -60 66 1 152 72 190 156 30 69 33 124 10 177 -34 77 -111 98 -181 48 l-28 -20 29 122 c16 67 31 130 34 140 6 18 3 18 -93 10z m171 -262 c48 -53 -9 -277 -83 -330 -61 -44 -111 -13 -111 67 1 66 34 199 56 224 27 30 75 58 100 58 11 0 29 -9 38 -19z"/>
    </g>
</svg>