<svg xmlns="http://www.w3.org/2000/svg" version="1.0" width="877.000000pt" height="220.000000pt" viewBox="0 0 877.000000 220.000000" preserveAspectRatio="xMidYMid meet">

    <g transform="translate(0.000000,220.000000) scale(0.100000,-0.100000)" fill="#000000" stroke="none">
        <path d="M1850 2085 c-91 -25 -159 -64 -230 -131 -108 -103 -160 -223 -160 -375 0 -230 170 -447 390 -498 84 -20 218 -13 295 14 335 118 456 533 236 809 l-32 40 41 41 c55 56 51 70 -5 15 l-45 -44 -27 22 c-50 39 -110 72 -170 94 -77 27 -218 33 -293 13z m256 -19 c64 -17 165 -70 195 -102 l23 -24 -64 -65 c-36 -36 -60 -65 -55 -65 5 0 37 27 71 61 l61 61 30 -37 c17 -20 43 -61 58 -92 185 -378 -155 -804 -564 -708 -248 59 -418 305 -382 553 29 198 175 366 360 418 62 17 204 17 267 0z"/>
        <path d="M1670 1720 l0 -40 -40 0 c-22 0 -40 -4 -40 -10 0 -5 18 -10 40 -10 l40 0 0 -79 0 -80 -42 -4 -43 -4 43 -1 42 -2 0 -45 c0 -25 5 -45 10 -45 6 0 10 50 10 130 l0 130 40 0 c22 0 40 5 40 10 0 6 -18 10 -40 10 l-40 0 0 40 c0 22 -4 40 -10 40 -5 0 -10 -18 -10 -40z"/>
        <path d="M2273 1726 c25 -19 18 -57 -13 -73 l-25 -13 26 0 c30 0 59 28 59 57 0 15 -10 24 -32 32 -29 9 -31 9 -15 -3z"/>
        <path d="M2220 1715 c-6 -8 -9 -19 -5 -25 9 -14 28 -1 21 15 -3 8 0 16 7 19 8 3 8 5 1 5 -6 1 -17 -6 -24 -14z"/>
        <path d="M2065 1670 c-17 -7 -17 -9 -2 -9 21 -1 21 1 -3 -91 -33 -125 -25 -170 30 -170 73 1 124 127 66 165 -20 13 -29 14 -47 5 -24 -13 -24 -21 -3 80 7 32 -2 37 -41 20z m80 -157 c-1 -57 -25 -103 -55 -103 -27 0 -33 15 -25 67 7 47 45 98 68 90 7 -2 12 -23 12 -54z"/>
        <path d="M2297 1606 c4 -28 1 -36 -17 -46 -30 -16 -19 -24 14 -9 31 14 44 52 26 74 -20 24 -29 17 -23 -19z"/>
        <path d="M2200 1587 c0 -18 21 -37 40 -36 10 0 11 2 3 6 -7 2 -13 13 -13 24 0 10 -7 19 -15 19 -8 0 -15 -6 -15 -13z"/>
        <path d="M1914 1566 c-42 -18 -64 -52 -64 -97 0 -37 24 -69 51 -69 10 1 9 3 -3 11 -12 6 -18 22 -18 44 0 30 3 35 24 35 34 0 84 19 90 36 6 16 -3 44 -14 44 -5 0 -14 2 -22 5 -7 2 -27 -2 -44 -9z m50 -2 c42 -16 1 -64 -55 -64 -26 0 -24 16 6 45 27 28 27 28 49 19z"/>
        <path d="M1976 1431 c-10 -11 -28 -22 -40 -24 -19 -4 -19 -4 -1 -5 22 -2 73 33 64 42 -3 4 -14 -3 -23 -13z"/>
        <path d="M4182 2085 c-115 -25 -207 -78 -303 -174 -99 -100 -148 -188 -173 -313 -20 -98 -20 -159 0 -255 49 -240 224 -423 462 -484 255 -65 531 42 678 262 68 103 96 191 102 319 6 164 -31 286 -130 419 l-40 53 56 57 c31 31 56 61 56 66 0 5 -28 -18 -62 -52 l-63 -62 -24 20 -24 20 56 57 c31 32 57 64 57 72 0 8 -28 -14 -63 -48 l-62 -62 -90 45 c-141 71 -287 91 -433 60z m349 -37 c36 -14 87 -39 112 -55 l47 -29 -45 -44 c-24 -24 -42 -47 -38 -53 3 -5 26 12 52 37 l46 45 25 -19 25 -19 -50 -51 c-27 -27 -45 -50 -40 -50 5 0 30 20 55 45 l46 46 44 -58 c184 -246 165 -581 -46 -799 -204 -211 -522 -249 -771 -92 -126 79 -235 230 -268 369 -19 82 -19 218 0 294 54 211 221 385 430 447 93 27 287 20 376 -14z"/>
        <path d="M3910 1610 l0 -40 -40 0 c-22 0 -40 -4 -40 -10 0 -5 18 -10 40 -10 l40 0 0 -80 0 -80 -40 0 c-22 0 -40 -4 -40 -10 0 -5 18 -10 40 -10 l40 0 0 -40 c0 -22 5 -40 10 -40 6 0 10 18 10 40 l0 40 40 0 c22 0 40 5 40 10 0 6 -18 10 -40 10 l-40 0 0 130 c0 80 -4 130 -10 130 -5 0 -10 -18 -10 -40z"/>
        <path d="M4688 1616 c-25 -12 -40 -62 -16 -54 7 3 12 15 10 27 -3 20 0 22 30 19 29 -3 33 -7 36 -35 3 -27 -4 -39 -42 -76 -25 -24 -46 -47 -46 -51 0 -4 26 -6 58 -4 52 3 57 5 60 28 2 22 1 23 -8 8 -7 -12 -23 -18 -48 -18 l-37 0 48 44 c64 59 64 103 0 118 -12 3 -32 0 -45 -6z"/>
        <path d="M4515 1550 c-17 -7 -17 -9 -2 -9 21 -1 21 1 -3 -91 -33 -125 -25 -170 30 -170 73 1 124 127 66 165 -20 13 -29 14 -47 5 -24 -13 -24 -21 -3 80 7 32 -2 37 -41 20z m80 -157 c-1 -57 -25 -103 -55 -103 -27 0 -33 15 -25 67 7 47 45 98 68 90 7 -2 12 -23 12 -54z"/>
        <path d="M4154 1446 c-42 -18 -64 -52 -64 -97 0 -37 24 -69 51 -69 10 1 9 3 -3 11 -12 6 -18 22 -18 44 0 30 3 35 24 35 34 0 84 19 90 36 6 16 -3 44 -14 44 -5 0 -14 2 -22 5 -7 2 -27 -2 -44 -9z m50 -2 c42 -16 1 -64 -55 -64 -26 0 -24 16 6 45 27 28 27 28 49 19z"/>
        <path d="M4344 1450 c-12 -4 -31 -20 -42 -35 -59 -74 -17 -165 58 -125 13 7 21 7 25 0 3 -5 17 -10 30 -10 17 0 26 8 34 30 12 36 5 41 -9 5 -5 -14 -16 -25 -25 -25 -18 0 -18 2 0 70 19 72 19 89 -2 88 -10 0 -25 2 -33 5 -8 3 -25 2 -36 -3z m46 -15 c16 -19 -4 -106 -30 -130 -22 -20 -54 -16 -58 7 -5 27 18 98 39 119 23 23 33 24 49 4z"/>
        <path d="M4216 1311 c-10 -11 -28 -22 -40 -24 -19 -4 -19 -4 -1 -5 22 -2 73 33 64 42 -3 4 -14 -3 -23 -13z"/>
        <path d="M6695 2085 c-230 -50 -417 -231 -476 -463 -47 -184 -5 -382 114 -540 l40 -53 -58 -59 c-33 -33 -56 -63 -52 -67 4 -4 34 19 66 51 l59 58 26 -18 27 -17 -60 -61 c-34 -34 -61 -66 -61 -71 0 -5 29 20 65 55 57 56 68 63 83 52 48 -33 142 -75 210 -93 393 -100 782 204 782 611 0 400 -374 701 -765 615z m289 -20 c109 -29 185 -74 276 -165 128 -127 183 -256 183 -430 2 -457 -477 -752 -890 -548 -92 45 -94 51 -43 103 56 57 40 59 -17 3 l-43 -42 -22 22 -22 22 44 45 c57 59 43 72 -16 14 l-46 -44 -37 42 c-45 50 -94 147 -116 228 -20 77 -21 232 0 309 55 206 233 385 438 441 71 19 238 19 311 0z"/>
        <path d="M6420 1726 l0 -46 -40 0 c-22 0 -40 -4 -40 -10 0 -5 18 -10 40 -10 l40 0 0 -79 0 -80 -42 -4 -43 -4 43 -1 42 -2 0 -46 c0 -27 4 -43 10 -39 6 4 10 58 10 131 l0 124 40 0 c22 0 40 5 40 10 0 6 -18 10 -40 10 -40 0 -40 0 -40 39 0 22 -4 43 -10 46 -6 4 -10 -12 -10 -39z"/>
        <path d="M7203 1729 c-23 -8 -46 -42 -36 -53 13 -13 24 -5 21 17 -2 18 2 23 26 25 30 4 46 -10 46 -41 0 -10 -23 -43 -51 -73 l-52 -54 62 0 c33 0 61 4 61 9 0 5 3 18 6 28 5 17 5 17 -6 1 -7 -12 -24 -18 -48 -18 l-36 0 47 48 c51 51 57 71 30 94 -26 22 -45 26 -70 17z"/>
        <path d="M7025 1670 c-17 -7 -17 -9 -2 -9 21 -1 21 1 -3 -91 -33 -125 -25 -170 30 -170 73 1 124 127 66 165 -20 13 -29 14 -47 5 -24 -13 -24 -21 -3 80 7 32 -2 37 -41 20z m80 -157 c-1 -57 -25 -103 -55 -103 -27 0 -33 15 -25 67 7 47 45 98 68 90 7 -2 12 -23 12 -54z"/>
        <path d="M6664 1566 c-42 -18 -64 -52 -64 -97 0 -37 24 -69 51 -69 10 1 9 3 -3 11 -12 6 -18 22 -18 44 0 30 3 35 24 35 34 0 84 19 90 36 6 16 -3 44 -14 44 -5 0 -14 2 -22 5 -7 2 -27 -2 -44 -9z m50 -2 c42 -16 1 -64 -55 -64 -26 0 -24 16 6 45 27 28 27 28 49 19z"/>
        <path d="M6860 1572 c-82 -26 -109 -172 -32 -172 15 0 33 5 40 12 9 9 15 9 24 0 27 -27 70 -1 67 40 0 7 -5 1 -11 -14 -10 -28 -38 -39 -38 -15 0 6 7 37 15 67 19 71 19 84 -1 76 -8 -3 -23 -2 -32 3 -9 4 -24 6 -32 3z m43 -27 c8 -18 -13 -97 -31 -117 -17 -20 -47 -24 -57 -7 -13 21 6 101 30 125 24 24 49 24 58 -1z"/>
        <path d="M6726 1431 c-10 -11 -28 -22 -40 -24 -19 -4 -19 -4 -1 -5 22 -2 73 33 64 42 -3 4 -14 -3 -23 -13z"/>
        <path d="M5505 1983 c-59 -8 -155 -45 -212 -82 -250 -162 -309 -509 -126 -748 l35 -45 -43 -44 c-24 -24 -41 -46 -38 -49 3 -2 25 15 49 40 l43 44 42 -34 c63 -52 161 -94 252 -107 154 -22 304 27 424 139 109 103 159 221 159 374 0 106 -24 192 -78 275 -111 171 -309 263 -507 237z m194 -28 c199 -53 343 -215 373 -420 13 -96 -3 -197 -48 -291 -35 -71 -138 -178 -210 -216 -174 -93 -405 -71 -554 52 l-35 29 63 63 c34 35 62 68 62 73 0 5 -31 -21 -69 -59 l-68 -68 -42 57 c-180 252 -96 601 177 739 108 55 242 70 351 41z"/>
        <path d="M5270 1610 l0 -40 -40 0 c-22 0 -40 -4 -40 -10 0 -5 18 -10 40 -10 l40 0 0 -80 0 -80 -40 0 c-22 0 -40 -4 -40 -10 0 -5 18 -10 40 -10 l40 0 0 -40 c0 -22 5 -40 10 -40 6 0 10 18 10 40 l0 40 40 0 c22 0 40 5 40 10 0 6 -18 10 -40 10 l-40 0 0 130 c0 80 -4 130 -10 130 -5 0 -10 -18 -10 -40z"/>
        <path d="M5873 1616 c25 -19 18 -57 -13 -73 l-25 -13 26 0 c30 0 59 28 59 57 0 15 -10 24 -32 32 -29 9 -31 9 -15 -3z"/>
        <path d="M5820 1605 c-6 -8 -9 -19 -5 -25 9 -14 28 -1 21 15 -3 8 0 16 7 19 8 3 8 5 1 5 -6 1 -17 -6 -24 -14z"/>
        <path d="M5665 1550 c-17 -7 -17 -9 -2 -9 21 -1 21 1 -3 -91 -33 -125 -25 -170 30 -170 73 1 124 127 66 165 -20 13 -29 14 -47 5 -24 -13 -24 -21 -3 80 7 32 -2 37 -41 20z m80 -157 c-1 -57 -25 -103 -55 -103 -27 0 -33 15 -25 67 7 47 45 98 68 90 7 -2 12 -23 12 -54z"/>
        <path d="M5897 1496 c4 -28 1 -36 -17 -46 -30 -16 -19 -24 14 -9 31 14 44 52 26 74 -20 24 -29 17 -23 -19z"/>
        <path d="M5800 1477 c0 -18 21 -37 40 -36 10 0 11 2 3 6 -7 2 -13 13 -13 24 0 10 -7 19 -15 19 -8 0 -15 -6 -15 -13z"/>
        <path d="M5514 1446 c-42 -18 -64 -52 -64 -97 0 -37 24 -69 51 -69 10 1 9 3 -3 11 -12 6 -18 22 -18 44 0 30 3 35 24 35 34 0 84 19 90 36 6 16 -3 44 -14 44 -5 0 -14 2 -22 5 -7 2 -27 -2 -44 -9z m50 -2 c42 -16 1 -64 -55 -64 -26 0 -24 16 6 45 27 28 27 28 49 19z"/>
        <path d="M5576 1311 c-10 -11 -28 -22 -40 -24 -19 -4 -19 -4 -1 -5 22 -2 73 33 64 42 -3 4 -14 -3 -23 -13z"/>
        <path d="M1281 1736 c-11 -48 -15 -53 -38 -53 -26 0 -53 -25 -53 -50 0 -7 7 -13 16 -13 10 0 14 7 12 23 -2 16 3 23 20 25 12 2 22 -2 22 -8 0 -36 -26 -109 -48 -132 -22 -24 -23 -28 -8 -28 14 0 17 -5 12 -22 -3 -13 -8 -41 -11 -63 -7 -49 8 -24 25 43 10 39 13 42 45 42 32 0 35 3 35 28 -1 23 -2 24 -11 10 -12 -21 -49 -24 -49 -5 0 7 14 26 30 42 31 29 41 77 19 91 -11 6 -8 47 7 102 4 12 2 22 -3 22 -6 0 -15 -24 -22 -54z m9 -103 c-1 -5 -8 -19 -16 -33 -8 -14 -13 -17 -10 -7 3 10 6 25 6 33 0 8 5 14 10 14 6 0 10 -3 10 -7z"/>
        <path d="M448 1714 c-5 -4 -8 -25 -8 -46 0 -38 0 -38 -40 -38 -22 0 -40 -4 -40 -10 0 -5 18 -10 40 -10 l40 0 0 -79 0 -80 -42 -4 -43 -4 43 -1 42 -2 0 -39 c0 -22 5 -43 10 -46 6 -4 10 40 10 124 l0 131 40 0 c22 0 40 5 40 10 0 6 -18 10 -39 10 l-40 0 -3 46 c-2 25 -6 42 -10 38z"/>
        <path d="M2688 1714 c-5 -4 -8 -25 -8 -46 0 -38 0 -38 -40 -38 -22 0 -40 -4 -40 -10 0 -5 18 -10 40 -10 l40 0 0 -79 0 -80 -42 -4 -43 -4 43 -1 42 -2 0 -39 c0 -22 5 -43 10 -46 6 -4 10 12 10 39 l0 46 48 2 47 1 -45 6 -45 6 -5 133 c-3 74 -8 130 -12 126z"/>
        <path d="M7652 1678 l-2 -48 -46 0 c-27 0 -43 -4 -39 -10 3 -5 24 -10 46 -10 l40 0 -3 -77 -3 -78 -45 -6 -45 -5 45 -5 45 -4 6 -45 5 -45 5 45 4 45 45 6 45 5 -45 5 -45 4 -5 135 c-3 74 -7 114 -8 88z"/>
        <path d="M3288 1676 c-25 -12 -40 -62 -16 -54 7 3 12 15 10 27 -3 20 0 22 30 19 29 -3 33 -7 36 -35 3 -27 -4 -39 -42 -76 -25 -24 -46 -47 -46 -51 0 -4 26 -6 58 -4 52 3 57 5 60 28 2 22 1 23 -8 8 -7 -12 -23 -18 -48 -18 l-37 0 48 44 c64 59 64 103 0 118 -12 3 -32 0 -45 -6z"/>
        <path d="M3561 1613 c-42 -84 -81 -131 -68 -83 4 14 10 42 13 63 7 38 7 38 -22 31 -35 -8 -43 -14 -21 -14 21 0 21 -8 -3 -100 -11 -41 -20 -90 -20 -108 0 -18 -9 -51 -21 -73 -11 -23 -18 -43 -15 -46 2 -3 14 13 25 35 16 32 25 39 41 35 81 -21 154 107 90 159 l-24 19 38 76 c20 41 35 78 32 80 -3 3 -23 -31 -45 -74z m-10 -170 c-14 -54 -35 -83 -63 -83 -27 0 -23 31 13 102 28 55 32 59 46 45 14 -13 14 -22 4 -64z m-60 30 c-8 -15 -10 -15 -11 -2 0 17 10 32 18 25 2 -3 -1 -13 -7 -23z"/>
        <path d="M8260 1682 c-34 -10 -54 -62 -24 -62 10 0 14 7 12 23 -2 17 2 23 23 25 32 4 53 -20 44 -49 -4 -12 -28 -44 -53 -71 l-45 -48 62 0 c60 0 61 0 61 28 -1 23 -2 24 -11 10 -9 -17 -69 -26 -69 -11 0 3 18 21 40 40 57 49 55 101 -5 115 -11 3 -27 3 -35 0z"/>
        <path d="M8521 1613 c-42 -84 -81 -131 -68 -83 4 14 10 42 13 63 7 38 7 38 -22 31 -35 -8 -43 -14 -21 -14 21 0 21 -8 -3 -100 -11 -41 -20 -90 -20 -108 0 -18 -9 -51 -21 -73 -11 -23 -18 -43 -15 -46 2 -3 14 13 25 35 16 32 25 39 41 35 81 -21 154 107 90 159 l-24 19 38 76 c20 41 35 78 32 80 -3 3 -23 -31 -45 -74z m-10 -170 c-14 -54 -35 -83 -63 -83 -27 0 -23 31 13 102 28 55 32 59 46 45 14 -13 14 -22 4 -64z m-60 30 c-8 -15 -10 -15 -11 -2 0 17 10 32 18 25 2 -3 -1 -13 -7 -23z"/>
        <path d="M1050 1620 c-17 -5 -19 -8 -7 -9 21 -1 22 2 -5 -108 -27 -114 -20 -146 30 -151 58 -6 114 76 91 134 -12 33 -44 48 -70 33 -20 -10 -21 -9 -15 12 13 50 18 99 10 98 -5 -1 -20 -5 -34 -9z m80 -115 c15 -18 -2 -100 -27 -127 -20 -22 -49 -23 -57 -3 -10 28 14 114 37 130 27 19 32 19 47 0z"/>
        <path d="M694 1516 c-17 -8 -39 -24 -48 -37 -20 -30 -21 -93 0 -113 24 -25 79 -20 111 10 l28 26 -29 -21 c-54 -40 -114 -18 -100 36 4 15 16 22 45 26 22 3 46 11 54 17 21 17 19 47 -4 60 -23 12 -19 12 -57 -4z m57 -12 c11 -14 10 -19 -10 -35 -28 -23 -71 -25 -71 -5 0 14 45 56 60 56 4 0 14 -7 21 -16z"/>
        <path d="M868 1514 c-49 -26 -77 -121 -46 -152 15 -15 60 -16 75 -1 8 8 13 8 17 0 14 -22 56 -12 66 15 14 37 11 43 -6 12 -33 -61 -45 -18 -19 67 15 52 14 58 -13 61 -9 1 -24 4 -32 7 -8 4 -27 0 -42 -9z m56 -17 c7 -11 7 -30 -2 -64 -16 -58 -28 -73 -58 -73 -21 0 -24 5 -24 34 0 41 15 84 37 109 19 20 32 18 47 -6z"/>
        <path d="M2980 1512 l23 -19 -21 -21 c-23 -23 -82 -31 -82 -12 0 6 11 22 25 35 14 15 19 25 11 25 -23 0 -65 -51 -72 -86 -7 -38 16 -84 42 -84 14 0 14 2 -1 16 -9 9 -15 28 -13 43 3 22 9 27 47 33 24 4 49 13 57 19 20 16 17 47 -5 59 -31 16 -35 12 -11 -8z"/>
        <path d="M3108 1514 c-49 -26 -77 -121 -46 -152 15 -15 60 -16 75 -1 8 8 13 8 17 0 14 -22 56 -12 66 15 14 37 11 43 -6 12 -33 -61 -45 -18 -19 67 15 52 14 58 -13 61 -9 1 -24 4 -32 7 -8 4 -27 0 -42 -9z m56 -17 c7 -11 7 -30 -2 -64 -16 -58 -28 -73 -58 -73 -21 0 -24 5 -24 34 0 41 15 84 37 109 19 20 32 18 47 -6z"/>
        <path d="M7894 1516 c-17 -8 -39 -24 -48 -37 -20 -30 -21 -93 0 -113 24 -25 79 -20 111 10 l28 26 -29 -21 c-54 -40 -114 -18 -100 36 4 15 16 22 45 26 22 3 46 11 54 17 21 17 19 47 -4 60 -23 12 -19 12 -57 -4z m57 -12 c11 -14 10 -19 -10 -35 -28 -23 -71 -25 -71 -5 0 14 45 56 60 56 4 0 14 -7 21 -16z"/>
        <path d="M8090 1522 c-82 -26 -109 -172 -32 -172 15 0 33 5 40 12 9 9 15 9 24 0 27 -27 70 -1 67 40 0 7 -5 1 -11 -14 -10 -28 -38 -39 -38 -15 0 6 7 37 15 67 19 71 19 84 -1 76 -8 -3 -23 -2 -32 3 -9 4 -24 6 -32 3z m43 -27 c8 -18 -13 -97 -31 -117 -17 -20 -47 -24 -57 -7 -13 21 6 101 30 125 24 24 49 24 58 -1z"/>
        <path d="M2985 1376 c-11 -7 -29 -16 -40 -19 -19 -4 -19 -5 1 -6 12 0 32 8 45 19 28 22 23 27 -6 6z"/>
        <path d="M2408 773 c1130 -2 2975 -2 4100 0 1126 1 202 2 -2053 2 -2255 0 -3176 -1 -2047 -2z"/>
        <path d="M4888 686 c-25 -12 -40 -62 -16 -54 7 3 12 15 10 27 -3 20 0 22 30 19 29 -3 33 -7 36 -35 3 -27 -4 -39 -42 -76 -25 -24 -46 -47 -46 -51 0 -4 26 -6 58 -4 52 3 57 5 60 28 2 22 1 23 -8 8 -7 -12 -23 -18 -48 -18 l-37 0 48 44 c64 59 64 103 0 118 -12 3 -32 0 -45 -6z"/>
        <path d="M4150 660 c-17 -5 -19 -8 -7 -9 21 -1 22 2 -5 -108 -27 -114 -20 -146 30 -151 58 -6 114 76 91 134 -12 33 -44 48 -70 33 -20 -10 -21 -9 -15 12 13 50 18 99 10 98 -5 -1 -20 -5 -34 -9z m80 -115 c15 -18 -2 -100 -27 -127 -20 -22 -49 -23 -57 -3 -10 28 14 114 37 130 27 19 32 19 47 0z"/>
        <path d="M4720 660 c-17 -5 -19 -8 -7 -9 21 -1 22 2 -5 -108 -27 -114 -20 -146 30 -151 58 -6 114 76 91 134 -12 33 -44 48 -70 33 -20 -10 -21 -9 -15 12 13 50 18 99 10 98 -5 -1 -20 -5 -34 -9z m80 -115 c15 -18 -2 -100 -27 -127 -20 -22 -49 -23 -57 -3 -10 28 14 114 37 130 27 19 32 19 47 0z"/>
        <path d="M4460 540 l0 -40 -40 0 c-22 0 -40 -4 -40 -10 0 -5 18 -10 40 -10 l40 0 0 -40 c0 -22 5 -40 10 -40 6 0 10 18 10 40 l0 40 40 0 c22 0 40 5 40 10 0 6 -18 10 -40 10 l-40 0 0 40 c0 22 -4 40 -10 40 -5 0 -10 -18 -10 -40z"/>
        <path d="M3968 554 c-49 -26 -77 -121 -46 -152 15 -15 60 -16 75 -1 8 8 13 8 17 0 14 -22 56 -12 66 15 14 37 11 43 -6 12 -33 -61 -45 -18 -19 67 15 52 14 58 -13 61 -9 1 -24 4 -32 7 -8 4 -27 0 -42 -9z m56 -17 c7 -11 7 -30 -2 -64 -16 -58 -28 -73 -58 -73 -21 0 -24 5 -24 34 0 41 15 84 37 109 19 20 32 18 47 -6z"/>
    </g>
</svg>