<svg xmlns="http://www.w3.org/2000/svg" version="1.0" width="677.000000pt" height="564.000000pt" viewBox="0 0 677.000000 564.000000" preserveAspectRatio="xMidYMid meet">

    <g transform="translate(0.000000,564.000000) scale(0.100000,-0.100000)" fill="#000000" stroke="none">
        <path d="M1060 5141 c-41 -5 -56 -10 -58 -23 -3 -15 4 -18 38 -18 27 0 43 -5 46 -15 4 -9 -11 -83 -31 -166 l-38 -151 -24 27 c-48 51 -101 57 -180 21 -68 -32 -129 -96 -167 -176 -27 -56 -31 -76 -31 -145 0 -91 16 -130 66 -166 62 -44 138 -34 219 30 l24 19 31 -34 c54 -62 133 -55 169 14 7 15 21 51 29 80 13 43 14 52 2 52 -8 0 -22 -27 -35 -64 -24 -72 -47 -99 -82 -94 -44 6 -36 65 60 451 49 196 87 359 84 362 -6 6 -41 5 -122 -4z m-95 -357 c13 -14 26 -38 30 -52 7 -36 -57 -283 -84 -320 -34 -49 -94 -84 -137 -80 -54 4 -77 40 -76 115 1 70 43 219 76 272 57 89 142 118 191 65z"/>
        <path d="M3801 5090 c-48 -33 -99 -50 -148 -50 -26 0 -33 -4 -33 -20 0 -11 6 -20 14 -20 19 0 108 17 129 25 16 7 17 -13 17 -324 0 -378 7 -351 -94 -351 -49 0 -56 -2 -56 -20 0 -19 7 -20 195 -20 188 0 195 1 195 20 0 18 -7 20 -64 20 -41 0 -68 5 -75 13 -7 10 -12 131 -13 382 -2 234 -7 369 -13 371 -5 2 -30 -10 -54 -26z"/>
        <path d="M6163 4726 c-68 -32 -129 -96 -167 -176 -27 -56 -31 -76 -31 -145 0 -91 16 -130 66 -166 62 -44 138 -34 219 30 l24 19 31 -34 c54 -62 133 -55 169 14 7 15 21 51 29 80 13 43 14 52 2 52 -8 0 -22 -27 -35 -64 -24 -72 -47 -99 -82 -94 -40 5 -36 72 16 271 26 96 46 179 46 185 0 6 -9 16 -20 22 -17 9 -25 6 -45 -14 -24 -24 -25 -24 -38 -6 -19 27 -66 50 -102 50 -16 0 -53 -11 -82 -24z m152 -32 c13 -14 26 -38 30 -52 7 -36 -57 -283 -84 -320 -34 -49 -94 -84 -137 -80 -54 4 -77 40 -76 115 1 70 43 219 76 272 57 89 142 118 191 65z"/>
        <path d="M2198 4009 c-16 -9 -18 -34 -18 -283 0 -230 2 -276 15 -286 8 -7 22 -10 30 -6 13 5 15 43 15 266 l0 260 235 0 235 0 0 -252 c0 -144 4 -259 10 -268 7 -12 13 -12 27 -4 16 10 18 35 21 284 2 193 -1 277 -9 286 -9 11 -64 14 -278 14 -162 0 -273 -5 -283 -11z"/>
        <path d="M4878 4009 c-16 -9 -18 -34 -18 -283 0 -230 2 -276 15 -286 8 -7 22 -10 30 -6 13 5 15 43 15 266 l0 260 235 0 235 0 0 -252 c0 -144 4 -259 10 -268 7 -12 13 -12 27 -4 16 10 18 35 21 284 2 193 -1 277 -9 286 -9 11 -64 14 -278 14 -162 0 -273 -5 -283 -11z"/>
        <path d="M150 3860 l0 -30 730 0 730 0 0 30 0 30 -730 0 -730 0 0 -30z"/>
        <path d="M3340 3860 l0 -30 475 0 475 0 0 30 0 30 -475 0 -475 0 0 -30z"/>
        <path d="M5910 3720 l0 -30 325 0 325 0 0 30 0 30 -325 0 -325 0 0 -30z"/>
        <path d="M150 3570 l0 -30 730 0 730 0 0 30 0 30 -730 0 -730 0 0 -30z"/>
        <path d="M3340 3570 l0 -30 475 0 475 0 0 30 0 30 -475 0 -475 0 0 -30z"/>
        <path d="M6140 3373 c-74 -7 -94 -43 -24 -43 22 0 37 -6 41 -16 3 -8 -24 -134 -61 -279 -85 -338 -86 -401 -7 -468 98 -82 267 -6 347 158 39 81 46 192 15 253 -49 95 -145 118 -236 56 -20 -13 -37 -24 -39 -24 -2 0 17 80 40 178 24 97 44 180 44 185 0 7 -35 7 -120 0z m219 -352 c29 -29 34 -87 16 -175 -26 -126 -52 -186 -105 -238 -37 -38 -54 -48 -79 -48 -45 0 -67 14 -80 51 -17 49 -13 100 16 216 20 81 33 114 57 141 62 70 135 93 175 53z"/>
        <path d="M800 3111 c-41 -5 -56 -10 -58 -23 -3 -15 4 -18 38 -18 27 0 43 -5 46 -15 4 -9 -11 -83 -31 -166 l-38 -151 -24 27 c-48 51 -101 57 -180 21 -68 -32 -129 -96 -167 -176 -27 -56 -31 -76 -31 -145 0 -91 16 -130 66 -166 62 -44 138 -34 219 30 l24 19 31 -34 c54 -62 133 -55 169 14 7 15 21 51 29 80 13 43 14 52 2 52 -8 0 -22 -27 -35 -64 -24 -72 -47 -99 -82 -94 -44 6 -36 65 60 451 49 196 87 359 84 362 -6 6 -41 5 -122 -4z m-95 -357 c13 -14 26 -38 30 -52 7 -36 -57 -283 -84 -320 -34 -49 -94 -84 -137 -80 -54 4 -77 40 -76 115 1 70 43 219 76 272 57 89 142 118 191 65z"/>
        <path d="M1100 3113 c-74 -7 -94 -43 -24 -43 22 0 37 -6 41 -16 3 -8 -24 -134 -61 -279 -85 -338 -86 -401 -7 -468 98 -82 267 -6 347 158 39 81 46 192 15 253 -49 95 -145 118 -236 56 -20 -13 -37 -24 -39 -24 -2 0 17 80 40 178 24 97 44 180 44 185 0 7 -35 7 -120 0z m219 -352 c29 -29 34 -87 16 -175 -26 -126 -52 -186 -105 -238 -37 -38 -54 -48 -79 -48 -45 0 -67 14 -80 51 -17 49 -13 100 16 216 20 81 33 114 57 141 62 70 135 93 175 53z"/>
        <path d="M3730 3113 c-74 -7 -94 -43 -24 -43 22 0 37 -6 41 -16 3 -8 -24 -134 -61 -279 -85 -338 -86 -401 -7 -468 98 -82 267 -6 347 158 39 81 46 192 15 253 -49 95 -145 118 -236 56 -20 -13 -37 -24 -39 -24 -2 0 17 80 40 178 24 97 44 180 44 185 0 7 -35 7 -120 0z m219 -352 c29 -29 34 -87 16 -175 -26 -126 -52 -186 -105 -238 -37 -38 -54 -48 -79 -48 -45 0 -67 14 -80 51 -17 49 -13 100 16 216 20 81 33 114 57 141 62 70 135 93 175 53z"/>
        <path d="M290 1770 l0 -30 585 0 585 0 0 30 0 30 -585 0 -585 0 0 -30z"/>
        <path d="M3490 1770 l0 -30 325 0 325 0 0 30 0 30 -325 0 -325 0 0 -30z"/>
        <path d="M803 1096 c-68 -32 -129 -96 -167 -176 -27 -56 -31 -76 -31 -145 0 -91 16 -130 66 -166 62 -44 138 -34 219 30 l24 19 31 -34 c54 -62 133 -55 169 14 7 15 21 51 29 80 13 43 14 52 2 52 -8 0 -22 -27 -35 -64 -24 -72 -47 -99 -82 -94 -40 5 -36 72 16 271 26 96 46 179 46 185 0 6 -9 16 -20 22 -17 9 -25 6 -45 -14 -24 -24 -25 -24 -38 -6 -19 27 -66 50 -102 50 -16 0 -53 -11 -82 -24z m152 -32 c13 -14 26 -38 30 -52 7 -36 -57 -283 -84 -320 -34 -49 -94 -84 -137 -80 -54 4 -77 40 -76 115 1 70 43 219 76 272 57 89 142 118 191 65z"/>
        <path d="M3753 1096 c-68 -32 -129 -96 -167 -176 -27 -56 -31 -76 -31 -145 0 -91 16 -130 66 -166 62 -44 138 -34 219 30 l24 19 31 -34 c54 -62 133 -55 169 14 7 15 21 51 29 80 13 43 14 52 2 52 -8 0 -22 -27 -35 -64 -24 -72 -47 -99 -82 -94 -40 5 -36 72 16 271 26 96 46 179 46 185 0 6 -9 16 -20 22 -17 9 -25 6 -45 -14 -24 -24 -25 -24 -38 -6 -19 27 -66 50 -102 50 -16 0 -53 -11 -82 -24z m152 -32 c13 -14 26 -38 30 -52 7 -36 -57 -283 -84 -320 -34 -49 -94 -84 -137 -80 -54 4 -77 40 -76 115 1 70 43 219 76 272 57 89 142 118 191 65z"/>
    </g>
</svg>