<svg xmlns="http://www.w3.org/2000/svg" version="1.0" width="633.000000pt" height="136.000000pt" viewBox="0 0 633.000000 136.000000" preserveAspectRatio="xMidYMid meet">
    <metadata>
Created by potrace 1.16, written by Peter Selinger 2001-2019
    </metadata>
    <g transform="translate(0.000000,136.000000) scale(0.100000,-0.100000)" fill="#000000" stroke="none">
        <path d="M1301 1273 l-33 -48 31 35 30 35 1 -37 c0 -35 -2 -37 -37 -41 l-38 -4 38 -1 c39 -2 53 -26 20 -35 -10 -3 0 -5 22 -5 22 0 34 2 28 5 -7 2 -13 11 -13 18 0 7 6 16 13 18 10 4 10 6 0 6 -9 1 -13 18 -13 51 0 28 -4 50 -8 50 -5 0 -23 -21 -41 -47z"/>
        <path d="M332 1248 c-16 -16 -15 -41 1 -35 6 2 11 10 9 17 -2 7 3 17 10 21 7 5 8 9 3 9 -6 0 -16 -5 -23 -12z"/>
        <path d="M383 1249 c28 -16 20 -46 -24 -94 l-42 -45 52 0 c46 0 51 2 50 23 0 12 -3 16 -6 10 -2 -7 -19 -13 -36 -13 l-32 1 38 30 c53 44 50 100 -6 99 -7 0 -4 -5 6 -11z"/>
        <path d="M2452 1248 c-16 -16 -15 -41 1 -35 6 2 11 10 9 17 -2 7 3 17 10 21 7 5 8 9 3 9 -6 0 -16 -5 -23 -12z"/>
        <path d="M2503 1249 c28 -16 20 -46 -24 -94 l-42 -45 52 0 c46 0 51 2 50 23 0 12 -3 16 -6 10 -2 -7 -19 -13 -36 -13 l-32 1 38 30 c53 44 50 100 -6 99 -7 0 -4 -5 6 -11z"/>
        <path d="M3820 1236 c-118 -32 -193 -94 -247 -204 -36 -71 -38 -82 -38 -166 0 -81 3 -98 32 -158 40 -85 106 -151 191 -191 60 -28 77 -32 157 -32 80 0 97 4 155 31 112 53 171 119 209 232 33 98 26 188 -22 290 l-20 43 53 54 c30 30 52 57 49 60 -3 2 -29 -20 -59 -50 l-53 -54 -18 22 c-17 22 -17 23 24 67 l42 45 -45 -42 c-44 -41 -45 -41 -67 -24 l-22 18 30 29 c16 15 29 32 29 38 0 5 -15 -5 -34 -23 l-35 -34 -43 20 c-93 44 -180 54 -268 29z m155 -7 c32 -6 79 -20 103 -31 l43 -21 -32 -33 c-18 -19 -30 -36 -28 -39 3 -3 18 9 34 25 32 34 47 37 65 15 11 -13 9 -20 -11 -43 l-24 -27 27 24 c23 20 30 22 43 11 11 -9 14 -22 10 -39 -5 -20 -4 -23 8 -13 12 10 18 4 37 -34 104 -223 -30 -478 -275 -523 -150 -28 -310 50 -383 186 -118 223 3 486 248 539 71 16 67 16 135 3z"/>
        <path d="M4122 988 c-16 -16 -15 -41 1 -35 6 2 11 10 9 17 -2 7 3 17 10 21 7 5 8 9 3 9 -6 0 -16 -5 -23 -12z"/>
        <path d="M4173 989 c28 -16 20 -46 -24 -94 l-42 -45 52 0 c46 0 51 2 50 23 0 12 -3 16 -6 10 -2 -7 -19 -13 -36 -13 l-32 1 38 30 c53 44 50 100 -6 99 -7 0 -4 -5 6 -11z"/>
        <path d="M3998 947 c8 -9 5 -35 -9 -92 -16 -60 -18 -84 -10 -102 6 -13 15 -23 21 -23 7 0 6 6 -1 18 -24 39 27 138 61 117 23 -14 3 -99 -27 -122 -11 -8 -12 -13 -4 -13 6 0 23 11 36 25 48 47 24 139 -29 119 -19 -7 -20 7 -7 54 9 30 8 32 -16 32 -20 0 -23 -3 -15 -13z"/>
        <path d="M3670 856 c0 -33 -2 -35 -37 -39 l-38 -4 38 -1 c35 -2 37 -4 37 -37 0 -19 5 -35 10 -35 6 0 10 15 10 34 0 33 2 35 38 39 l37 4 -37 1 c-36 2 -38 4 -38 37 0 19 -4 35 -10 35 -5 0 -10 -15 -10 -34z"/>
        <path d="M3832 855 c-35 -29 -48 -74 -32 -104 17 -34 25 -24 25 30 0 43 4 55 28 75 16 13 24 24 18 24 -5 0 -23 -11 -39 -25z"/>
        <path d="M3895 852 c9 -24 -14 -90 -38 -107 -12 -8 -16 -15 -10 -15 7 0 15 4 18 10 4 6 13 5 24 -2 24 -14 51 -4 50 19 -1 17 -2 17 -6 1 -4 -17 -33 -26 -33 -10 0 4 7 32 15 62 8 30 15 56 15 57 0 1 -9 1 -20 0 -13 -1 -19 -6 -15 -15z"/>
        <path d="M4736 1230 c-110 -39 -191 -113 -238 -215 -18 -41 -22 -68 -23 -150 0 -91 3 -106 29 -160 123 -251 441 -299 629 -95 71 76 99 147 100 250 1 91 -21 163 -70 227 l-35 45 43 44 c24 24 39 44 33 44 -5 0 -27 -18 -49 -40 -37 -37 -40 -39 -57 -23 -18 16 -17 18 14 50 38 39 26 45 -14 6 l-27 -26 -62 27 c-85 39 -191 45 -273 16z m179 -1 c60 -11 135 -43 135 -57 0 -4 -18 -25 -40 -47 -22 -21 -37 -41 -35 -44 3 -2 25 15 49 38 39 38 46 42 66 31 22 -12 22 -12 -14 -49 -50 -51 -46 -64 5 -16 l40 40 20 -25 c10 -14 31 -50 47 -80 24 -49 27 -66 27 -155 0 -90 -3 -106 -29 -159 -72 -147 -236 -233 -390 -205 -86 15 -143 46 -207 109 -76 75 -103 144 -103 260 0 75 3 93 32 152 52 106 152 185 267 208 57 11 65 11 130 -1z"/>
        <path d="M4922 988 c-15 -15 -16 -38 -1 -38 6 0 9 7 5 15 -3 8 2 19 12 24 9 6 12 11 7 11 -6 0 -16 -5 -23 -12z"/>
        <path d="M4974 984 c24 -23 20 -37 -25 -88 l-42 -47 49 3 c40 2 49 7 51 23 2 11 0 14 -3 8 -3 -7 -20 -13 -37 -13 l-32 0 38 35 c20 18 37 42 37 52 0 22 -18 43 -38 43 -10 0 -10 -3 2 -16z"/>
        <path d="M5079 951 c12 -7 11 -20 -3 -79 -18 -73 -18 -133 0 -139 6 -2 8 10 6 32 -7 58 29 118 59 99 24 -14 -2 -115 -33 -127 -8 -4 -7 -6 4 -6 19 -1 56 42 64 76 4 14 -1 33 -11 49 -13 20 -22 24 -42 19 -27 -6 -27 -1 -7 68 4 13 -1 17 -23 17 -20 0 -24 -3 -14 -9z"/>
        <path d="M4611 858 c-1 -35 -3 -37 -38 -41 l-38 -4 38 -1 c36 -2 37 -3 38 -39 l2 -38 6 35 c5 32 9 35 46 39 l40 5 -40 5 c-36 5 -41 9 -46 41 l-6 35 -2 -37z"/>
        <path d="M4781 866 c-44 -24 -67 -96 -39 -124 17 -17 33 -15 19 2 -22 26 17 126 48 126 37 0 28 -89 -11 -122 -11 -10 -16 -18 -11 -18 5 0 14 5 20 11 8 8 13 8 17 0 18 -28 57 -4 55 32 0 7 -4 2 -9 -10 -15 -36 -34 -29 -26 10 20 90 20 101 3 94 -9 -3 -19 -2 -22 3 -8 13 -15 12 -44 -4z"/>
        <path d="M1255 1101 c-92 -23 -181 -104 -211 -193 -33 -102 2 -239 79 -304 117 -99 281 -97 388 3 107 100 127 237 53 360 l-35 56 38 41 38 41 -42 -39 c-37 -35 -44 -38 -60 -25 -10 7 -20 15 -22 16 -2 2 4 12 14 23 21 23 10 27 -14 6 -14 -13 -23 -12 -71 4 -57 20 -104 23 -155 11z m162 -26 l37 -16 -44 -44 c-56 -57 -40 -59 17 -3 42 41 43 41 63 23 l20 -18 -22 -26 c-23 -26 -23 -26 -1 -7 31 26 50 15 78 -46 28 -59 33 -157 12 -215 -24 -65 -73 -119 -133 -149 -173 -85 -376 23 -400 212 -10 87 16 158 84 224 31 31 73 61 92 67 52 16 155 15 197 -2z"/>
        <path d="M1408 923 c46 -9 46 -74 0 -93 -22 -8 -22 -9 -2 -9 28 -1 44 -20 44 -52 0 -32 -26 -63 -47 -55 -8 3 -19 6 -24 6 -5 0 -7 11 -3 25 5 19 2 25 -10 25 -25 0 -19 -38 9 -56 26 -17 67 -13 92 8 20 17 16 76 -6 90 -19 11 -19 12 2 39 19 27 19 29 3 53 -12 20 -24 26 -49 25 -23 -1 -26 -3 -9 -6z"/>
        <path d="M1367 913 c-13 -12 -7 -43 8 -43 8 0 15 7 15 15 0 8 -5 15 -11 15 -5 0 -7 5 -4 10 7 11 2 13 -8 3z"/>
        <path d="M1230 840 c-5 -32 -8 -35 -45 -39 l-40 -5 40 -5 c36 -5 41 -9 46 -41 l6 -35 2 37 c1 35 3 37 39 41 l37 4 -37 1 c-35 2 -37 4 -40 40 l-4 37 -4 -35z"/>
        <path d="M5453 1099 c-44 -10 -102 -64 -104 -97 0 -9 -1 -84 -1 -166 1 -167 6 -185 73 -218 30 -16 70 -18 384 -18 332 0 352 1 383 20 63 38 72 68 72 228 0 165 -10 198 -69 234 -35 23 -42 23 -366 25 -185 1 -348 -3 -372 -8z m722 -25 c61 -29 70 -53 73 -209 3 -119 0 -145 -15 -174 -38 -74 -26 -72 -433 -72 -467 0 -440 -14 -440 236 0 166 4 179 64 216 29 18 54 19 374 19 293 0 349 -2 377 -16z"/>
        <path d="M6027 983 c-11 -10 -8 -33 4 -33 6 0 9 6 6 14 -3 8 -1 17 6 20 7 3 8 5 1 5 -6 1 -14 -2 -17 -6z"/>
        <path d="M6078 977 c15 -18 5 -47 -16 -47 -13 0 -11 -4 6 -16 24 -17 29 -43 10 -62 -9 -9 -8 -12 5 -12 35 0 44 61 10 74 -13 5 -12 8 2 22 20 21 16 48 -10 53 -16 3 -17 1 -7 -12z"/>
        <path d="M5698 928 c-21 -17 -32 -55 -18 -63 18 -11 35 11 21 28 -9 11 -8 17 3 26 36 30 83 -19 65 -67 -5 -13 -30 -48 -55 -78 l-46 -54 66 0 c66 0 66 0 65 28 0 15 -3 21 -6 15 -3 -8 -22 -13 -46 -13 l-41 0 46 48 c58 59 65 81 37 115 -22 29 -64 36 -91 15z"/>
        <path d="M6010 866 c0 -14 29 -30 38 -21 3 3 0 5 -6 5 -7 0 -12 7 -12 15 0 8 -4 15 -10 15 -5 0 -10 -6 -10 -14z"/>
        <path d="M5869 841 c-21 -21 -29 -39 -29 -64 0 -33 23 -67 37 -53 3 3 1 6 -7 6 -16 0 -6 75 16 108 15 23 39 29 49 12 11 -18 -6 -91 -26 -111 -10 -10 -15 -19 -11 -19 4 0 13 5 20 12 9 9 12 9 12 0 0 -20 39 -13 50 9 7 11 9 23 7 26 -3 2 -8 -5 -12 -16 -3 -12 -11 -21 -17 -21 -11 0 -6 56 8 109 6 20 4 23 -9 18 -9 -3 -19 -2 -22 3 -11 18 -36 10 -66 -19z"/>
        <path d="M5518 803 c23 -2 61 -2 85 0 23 2 4 4 -43 4 -47 0 -66 -2 -42 -4z"/>
        <path d="M200 1020 c-19 -19 -20 -33 -20 -200 0 -233 -11 -220 191 -220 204 0 193 -12 197 212 3 165 2 175 -18 201 l-21 27 -155 0 c-141 0 -156 -2 -174 -20z m336 -11 c17 -19 19 -38 19 -190 0 -136 -3 -171 -15 -183 -12 -12 -45 -15 -155 -16 -77 -1 -145 -1 -152 0 -6 0 -19 7 -27 16 -13 13 -16 44 -16 185 0 221 -10 209 183 209 134 0 145 -2 163 -21z"/>
        <path d="M384 915 c-30 -44 -39 -64 -15 -35 l21 25 0 -57 0 -58 -36 0 c-30 0 -35 3 -30 18 5 15 4 14 -9 -2 -20 -26 -10 -36 36 -36 42 0 54 -20 22 -39 -14 -8 -7 -10 32 -10 40 0 45 2 28 9 -26 10 -31 40 -8 40 8 0 15 5 15 10 0 6 -7 10 -15 10 -11 0 -15 18 -17 78 l-3 77 -21 -30z"/>
        <path d="M2608 1024 c-14 -14 -21 -14 -53 -4 -100 33 -223 -13 -280 -104 -27 -44 -30 -58 -30 -126 0 -68 3 -82 30 -126 103 -165 355 -146 430 33 18 42 20 142 3 178 -10 22 -8 29 17 55 33 34 23 41 -12 8 -23 -21 -23 -21 -37 -2 -13 17 -12 21 5 40 27 29 24 42 -5 15 -20 -19 -28 -21 -45 -12 -25 14 -26 19 -4 43 20 22 3 24 -19 2z m-64 -15 l38 -11 -26 -27 c-38 -40 -32 -51 7 -13 33 32 34 32 56 15 l22 -18 -30 -29 c-17 -17 -31 -34 -31 -40 0 -5 16 6 36 25 34 33 36 33 50 15 13 -18 11 -23 -18 -53 -37 -39 -27 -45 13 -7 l27 25 11 -32 c35 -100 -15 -220 -112 -271 -31 -16 -60 -22 -108 -23 -56 0 -73 4 -115 30 -30 19 -60 49 -79 79 -26 43 -30 59 -29 116 0 54 5 75 27 113 55 93 157 135 261 106z"/>
        <path d="M2470 836 c0 -33 -2 -35 -37 -39 l-38 -4 38 -1 c35 -2 37 -4 37 -37 0 -19 5 -35 10 -35 6 0 10 15 10 34 0 33 2 35 38 39 l37 4 -37 1 c-36 2 -38 4 -38 37 0 19 -4 35 -10 35 -5 0 -10 -15 -10 -34z"/>
        <path d="M821 976 c-8 -10 -9 -16 -1 -21 5 -3 10 -5 11 -3 4 18 7 38 4 38 -1 0 -8 -6 -14 -14z"/>
        <path d="M878 965 c3 -17 -1 -27 -12 -31 -15 -6 -15 -8 4 -21 22 -16 26 -43 8 -61 -7 -7 -8 -12 -2 -12 31 0 44 49 19 70 -13 11 -13 15 0 33 11 15 12 24 3 34 -17 20 -26 15 -20 -12z"/>
        <path d="M1862 978 c-15 -15 -16 -38 -1 -38 6 0 9 7 5 15 -3 8 2 19 12 24 9 6 12 11 7 11 -6 0 -16 -5 -23 -12z"/>
        <path d="M1914 974 c24 -23 20 -37 -25 -88 l-42 -47 49 3 c40 2 49 7 51 23 2 11 0 14 -3 8 -3 -7 -20 -13 -37 -13 l-32 0 38 35 c20 18 37 42 37 52 0 22 -18 43 -38 43 -10 0 -10 -3 2 -16z"/>
        <path d="M3091 971 c-10 -18 -6 -31 11 -31 5 0 6 9 3 21 -6 18 -3 20 22 17 44 -5 43 -44 -2 -88 -19 -18 -35 -38 -35 -42 0 -4 20 -8 44 -8 36 0 45 4 49 21 4 17 3 19 -6 10 -6 -6 -23 -11 -39 -11 l-27 0 41 39 c39 36 41 41 30 65 -9 21 -19 26 -46 26 -24 0 -38 -6 -45 -19z"/>
        <path d="M2019 941 c13 -8 13 -19 -2 -83 -10 -40 -17 -83 -17 -94 0 -23 26 -51 37 -40 3 3 0 6 -7 6 -18 0 -5 88 18 113 10 13 12 17 3 12 -11 -6 -13 -4 -8 8 3 8 9 32 13 51 6 34 5 36 -22 36 -22 0 -25 -3 -15 -9z"/>
        <path d="M2968 937 c8 -9 5 -35 -9 -92 -16 -60 -18 -84 -10 -102 6 -13 15 -23 21 -23 7 0 6 6 -1 18 -24 39 27 138 61 117 23 -14 3 -99 -27 -122 -11 -8 -12 -13 -4 -13 6 0 23 11 36 25 48 47 24 139 -29 119 -19 -7 -20 7 -7 54 9 30 8 32 -16 32 -20 0 -23 -3 -15 -13z"/>
        <path d="M812 863 c2 -9 9 -18 16 -19 7 -1 8 0 3 2 -6 3 -7 12 -4 20 3 8 0 14 -7 14 -6 0 -10 -8 -8 -17z"/>
        <path d="M681 856 c-44 -24 -67 -96 -39 -124 17 -17 33 -15 19 2 -22 26 17 126 48 126 37 0 28 -89 -11 -122 -11 -10 -16 -18 -11 -18 5 0 14 5 20 11 8 8 13 8 17 0 18 -28 57 -4 55 32 0 7 -4 2 -9 -10 -15 -36 -34 -29 -26 10 20 90 20 101 3 94 -9 -3 -19 -2 -22 3 -8 13 -15 12 -44 -4z"/>
        <path d="M1712 845 c-35 -29 -48 -74 -32 -104 17 -34 25 -24 25 30 0 43 4 55 28 75 16 13 24 24 18 24 -5 0 -23 -11 -39 -25z"/>
        <path d="M2085 854 c20 -20 13 -66 -16 -106 -27 -38 -7 -35 25 3 15 17 26 43 26 59 0 28 -22 60 -41 60 -6 0 -3 -7 6 -16z"/>
        <path d="M2802 845 c-35 -29 -48 -74 -32 -104 17 -34 25 -24 25 30 0 43 4 55 28 75 16 13 24 24 18 24 -5 0 -23 -11 -39 -25z"/>
        <path d="M1775 842 c9 -24 -14 -90 -38 -107 -12 -8 -16 -15 -10 -15 7 0 15 4 18 10 4 6 13 5 24 -2 24 -14 51 -4 50 19 -1 17 -2 17 -6 1 -4 -17 -33 -26 -33 -10 0 4 7 32 15 62 8 30 15 56 15 57 0 1 -9 1 -20 0 -13 -1 -19 -6 -15 -15z"/>
        <path d="M2865 842 c9 -24 -14 -90 -38 -107 -12 -8 -16 -15 -10 -15 7 0 15 4 18 10 4 6 13 5 24 -2 24 -14 51 -4 50 19 -1 17 -2 17 -6 1 -4 -17 -33 -26 -33 -10 0 4 7 32 15 62 8 30 15 56 15 57 0 1 -9 1 -20 0 -13 -1 -19 -6 -15 -15z"/>
        <path d="M3250 735 c0 -8 7 -15 15 -15 8 0 15 7 15 15 0 8 -7 15 -15 15 -8 0 -15 -7 -15 -15z"/>
        <path d="M3261 677 c-13 -21 -12 -21 5 -5 10 10 16 20 13 22 -3 3 -11 -5 -18 -17z"/>
        <path d="M180 430 c0 -7 1020 -10 3040 -10 2020 0 3040 3 3040 10 0 7 -1020 10 -3040 10 -2020 0 -3040 -3 -3040 -10z"/>
        <path d="M2542 338 c-15 -15 -16 -38 -1 -38 6 0 9 7 5 15 -3 8 2 19 12 24 9 6 12 11 7 11 -6 0 -16 -5 -23 -12z"/>
        <path d="M2594 334 c24 -23 20 -37 -25 -88 l-42 -47 49 3 c40 2 49 7 51 23 2 11 0 14 -3 8 -3 -7 -20 -13 -37 -13 l-32 0 38 35 c20 18 37 42 37 52 0 22 -18 43 -38 43 -10 0 -10 -3 2 -16z"/>
        <path d="M4142 338 c-16 -16 -15 -41 1 -35 6 2 11 10 9 17 -2 7 3 17 10 21 7 5 8 9 3 9 -6 0 -16 -5 -23 -12z"/>
        <path d="M4193 339 c28 -16 20 -46 -24 -94 l-42 -45 52 0 c46 0 51 2 50 23 0 12 -3 16 -6 10 -2 -7 -19 -13 -36 -13 l-32 1 38 30 c53 44 50 100 -6 99 -7 0 -4 -5 6 -11z"/>
        <path d="M3369 331 c13 -8 13 -19 -2 -83 -10 -40 -17 -83 -17 -94 0 -23 26 -51 37 -40 3 3 0 6 -7 6 -18 0 -5 88 18 113 10 13 12 17 3 12 -11 -6 -13 -4 -8 8 3 8 9 32 13 51 6 34 5 36 -22 36 -22 0 -25 -3 -15 -9z"/>
        <path d="M4009 331 c13 -8 13 -19 -2 -83 -10 -40 -17 -83 -17 -94 0 -23 26 -51 37 -40 3 3 0 6 -7 6 -18 0 -5 88 18 113 10 13 12 17 3 12 -11 -6 -13 -4 -8 8 3 8 9 32 13 51 6 34 5 36 -22 36 -22 0 -25 -3 -15 -9z"/>
        <path d="M2207 312 c-19 -20 -22 -48 -8 -57 15 -9 24 14 12 29 -16 19 12 40 44 32 29 -7 43 -47 27 -79 -5 -12 -28 -43 -51 -69 -22 -25 -41 -49 -41 -52 0 -3 27 -6 59 -6 55 0 59 2 65 26 4 15 5 29 1 32 -3 3 -5 -2 -5 -11 0 -14 -10 -17 -47 -17 l-47 0 52 50 c36 34 52 57 52 75 0 55 -77 87 -113 47z"/>
        <path d="M3086 305 c-9 -14 -23 -36 -32 -50 -9 -14 -14 -25 -11 -25 3 0 14 15 26 33 l21 32 0 -57 0 -58 -35 0 c-34 0 -35 1 -25 23 10 20 10 20 -9 -3 -25 -32 -19 -40 30 -40 32 0 39 -4 39 -19 0 -11 -8 -22 -17 -24 -10 -3 5 -5 32 -5 28 0 42 2 33 5 -21 5 -24 38 -5 47 10 5 10 7 0 12 -9 4 -13 30 -13 80 0 41 -4 74 -9 74 -5 0 -16 -11 -25 -25z"/>
        <path d="M3848 318 c-21 -17 -32 -55 -18 -63 18 -11 35 11 21 28 -9 11 -8 17 3 26 36 30 83 -19 65 -67 -5 -13 -30 -48 -55 -78 l-46 -54 66 0 c66 0 66 0 65 28 0 15 -3 21 -6 15 -3 -8 -22 -13 -46 -13 l-41 0 46 48 c58 59 65 81 37 115 -22 29 -64 36 -91 15z"/>
        <path d="M2821 238 c-1 -35 -3 -37 -38 -41 l-38 -4 38 -1 c36 -2 37 -3 38 -39 l2 -38 6 35 c5 32 9 35 46 39 l40 5 -40 5 c-36 5 -41 9 -46 41 l-6 35 -2 -37z"/>
        <path d="M3640 240 c-5 -32 -8 -35 -45 -39 l-40 -5 40 -5 c36 -5 41 -9 46 -41 l6 -35 2 37 c1 35 3 37 39 41 l37 4 -37 1 c-35 2 -37 4 -40 40 l-4 37 -4 -35z"/>
        <path d="M2401 246 c-44 -24 -67 -96 -39 -124 17 -17 33 -15 19 2 -22 26 17 126 48 126 37 0 28 -89 -11 -122 -11 -10 -16 -18 -11 -18 5 0 14 5 20 11 8 8 13 8 17 0 18 -28 57 -4 55 32 0 7 -4 2 -9 -10 -15 -36 -34 -29 -26 10 20 90 20 101 3 94 -9 -3 -19 -2 -22 3 -8 13 -15 12 -44 -4z"/>
        <path d="M3221 246 c-44 -24 -67 -96 -39 -124 17 -17 33 -15 19 2 -22 26 17 126 48 126 37 0 28 -89 -11 -122 -11 -10 -16 -18 -11 -18 5 0 14 5 20 11 8 8 13 8 17 0 18 -28 57 -4 55 32 0 7 -4 2 -9 -10 -15 -36 -34 -29 -26 10 20 90 20 101 3 94 -9 -3 -19 -2 -22 3 -8 13 -15 12 -44 -4z"/>
        <path d="M3435 244 c20 -20 13 -66 -16 -107 -27 -37 -7 -34 25 4 15 17 26 43 26 59 0 28 -22 60 -41 60 -6 0 -3 -7 6 -16z"/>
        <path d="M4075 244 c20 -20 13 -66 -16 -107 -27 -37 -7 -34 25 4 15 17 26 43 26 59 0 28 -22 60 -41 60 -6 0 -3 -7 6 -16z"/>
    </g>
</svg>