<svg xmlns="http://www.w3.org/2000/svg" version="1.0" width="745.000000pt" height="301.000000pt" viewBox="0 0 745.000000 301.000000" preserveAspectRatio="xMidYMid meet">

    <g transform="translate(0.000000,301.000000) scale(0.100000,-0.100000)" fill="#000000" stroke="none">
        <path d="M603 2568 c-6 -7 -61 -98 -122 -203 -124 -209 -143 -235 -178 -235 -13 0 -23 -4 -23 -10 0 -6 31 -10 73 -10 l72 0 -25 19 -25 19 24 44 c38 69 36 68 127 68 l84 0 2 -50 c0 -27 1 -56 2 -62 1 -7 -10 -15 -24 -16 -14 -2 -29 -8 -35 -13 -5 -5 27 -9 83 -9 51 0 92 4 92 9 0 5 -12 11 -27 13 l-28 3 -22 210 c-11 116 -22 216 -22 223 -1 6 -5 12 -10 12 -5 0 -13 -6 -18 -12z m-8 -195 l7 -93 -75 0 -76 0 62 104 c34 58 65 99 68 92 4 -6 10 -53 14 -103z"/>
        <path d="M3824 2383 c-123 -207 -156 -253 -185 -253 -10 0 -21 -4 -24 -10 -4 -6 20 -10 64 -10 68 0 94 12 51 23 -26 7 -25 12 10 75 l30 52 84 0 83 0 6 -57 c7 -66 4 -73 -28 -73 -13 0 -27 -4 -30 -10 -4 -6 27 -10 84 -10 54 0 91 4 91 10 0 6 -11 10 -25 10 -31 0 -30 -2 -50 225 -18 202 -21 225 -35 225 -5 0 -62 -89 -126 -197z m105 -60 l1 -43 -70 0 c-38 0 -70 3 -70 6 0 7 97 171 114 193 8 11 12 -1 17 -50 4 -35 7 -83 8 -106z"/>
        <path d="M962 2540 c-218 -110 -237 -414 -28 -445 79 -12 166 29 214 100 25 37 37 75 24 75 -6 0 -13 -11 -16 -25 -15 -61 -113 -134 -179 -135 -44 0 -96 29 -114 64 -37 70 -4 222 66 299 59 65 157 96 212 67 27 -15 49 -63 49 -109 0 -55 17 -60 30 -9 6 24 15 59 21 78 5 19 9 44 9 54 0 18 -3 17 -29 -8 l-30 -29 -31 27 c-46 38 -116 36 -198 -4z"/>
        <path d="M2250 2563 c-40 -5 -66 -23 -33 -23 12 0 24 -4 28 -9 3 -6 -10 -73 -30 -150 -19 -77 -35 -156 -35 -176 0 -138 140 -141 214 -5 37 68 34 141 -8 177 -32 27 -56 29 -96 8 -35 -18 -35 -20 -10 75 21 80 25 111 13 108 -5 0 -24 -3 -43 -5z m114 -199 c20 -53 -9 -176 -53 -223 -32 -35 -52 -39 -75 -15 -34 33 -10 179 37 225 32 32 81 39 91 13z"/>
        <path d="M4614 2559 c-51 -15 -125 -71 -161 -123 -81 -117 -69 -260 27 -319 55 -34 142 -31 206 8 50 31 110 112 102 137 -3 7 -14 -6 -26 -29 -62 -119 -190 -157 -269 -78 -30 30 -33 39 -33 92 0 164 110 303 239 303 34 0 49 -6 72 -29 16 -17 30 -42 31 -58 1 -15 2 -37 3 -48 3 -50 21 -22 40 63 12 50 19 92 15 92 -3 0 -17 -11 -30 -24 l-23 -25 -36 25 c-38 26 -97 31 -157 13z"/>
        <path d="M6244 2432 c-30 -19 -63 -77 -51 -89 4 -3 11 6 16 20 23 59 89 88 111 47 8 -15 5 -42 -11 -107 -23 -98 -39 -128 -69 -138 -27 -9 -34 -2 -22 22 14 26 0 47 -26 39 -28 -9 -33 -29 -16 -55 20 -28 74 -28 99 -1 l18 20 22 -20 c34 -32 81 -26 121 14 20 20 34 44 34 58 -1 20 -4 18 -21 -14 -23 -45 -61 -72 -88 -63 -31 9 -33 31 -11 122 28 120 42 143 88 143 21 0 22 -1 7 -23 -16 -26 -12 -37 16 -37 26 0 42 33 26 53 -22 30 -61 31 -94 3 -30 -25 -31 -26 -44 -6 -20 29 -68 35 -105 12z"/>
        <path d="M3453 2401 c-59 -37 -83 -122 -37 -129 14 -2 29 7 43 24 22 28 28 64 11 64 -6 0 -10 -6 -9 -12 4 -32 -19 -68 -42 -68 -15 0 -10 39 8 70 21 36 52 53 89 48 26 -3 29 -7 32 -46 4 -55 -14 -83 -75 -118 -61 -35 -91 -62 -110 -97 -17 -33 -9 -49 11 -22 14 19 34 18 93 -6 41 -17 76 -2 98 41 21 41 11 51 -16 17 -21 -28 -53 -34 -118 -21 -31 6 -31 7 -14 26 9 10 43 33 76 50 70 38 97 69 97 113 0 70 -74 105 -137 66z"/>
        <path d="M4245 2410 c-44 -18 -91 -93 -79 -125 8 -20 47 -19 66 3 21 24 31 59 18 67 -6 4 -10 -4 -10 -18 0 -30 -36 -65 -51 -50 -8 8 -6 21 6 47 21 44 50 66 85 66 86 0 58 -120 -39 -170 -62 -31 -126 -108 -107 -128 3 -3 12 3 20 13 14 19 34 18 93 -6 39 -16 71 -2 97 42 23 39 10 52 -16 16 -21 -28 -57 -35 -127 -21 -41 8 -29 23 50 66 33 17 70 41 84 54 76 71 6 184 -90 144z"/>
        <path d="M1544 1977 c-2 -7 -3 -78 -2 -157 2 -104 6 -145 16 -148 9 -3 12 30 12 142 l0 146 130 0 129 0 3 -142 c2 -102 6 -143 16 -146 9 -3 12 33 12 157 l0 161 -155 0 c-118 0 -157 -3 -161 -13z"/>
        <path d="M2715 1968 c-3 -13 -4 -84 -3 -158 3 -112 6 -135 18 -135 13 0 15 24 18 143 l3 142 124 0 124 0 3 -142 c2 -102 6 -143 16 -146 9 -3 12 33 12 157 l0 161 -155 0 c-152 0 -155 0 -160 -22z"/>
        <path d="M5254 1977 c-2 -7 -3 -78 -2 -157 2 -102 7 -145 15 -147 9 -3 13 31 15 139 l3 143 127 3 127 3 3 -142 c2 -103 6 -144 16 -147 9 -3 12 33 12 157 l0 161 -155 0 c-118 0 -157 -3 -161 -13z"/>
        <path d="M5890 1905 c0 -13 56 -15 445 -15 389 0 445 2 445 15 0 13 -56 15 -445 15 -389 0 -445 -2 -445 -15z"/>
        <path d="M232 1828 c4 -10 121 -14 531 -16 464 -2 527 0 527 13 0 13 -64 15 -531 15 -420 0 -530 -3 -527 -12z"/>
        <path d="M2112 1828 c4 -10 50 -14 176 -16 149 -2 172 0 172 13 0 13 -25 15 -176 15 -136 0 -175 -3 -172 -12z"/>
        <path d="M3282 1828 c4 -10 177 -14 811 -16 713 -2 807 0 807 13 0 13 -95 15 -811 15 -644 0 -810 -3 -807 -12z"/>
        <path d="M5890 1750 c0 -20 7 -20 445 -20 438 0 445 0 445 20 0 20 -7 20 -445 20 -438 0 -445 0 -445 -20z"/>
        <path d="M6991 1712 c-13 -25 8 -56 35 -50 29 5 27 62 -3 66 -13 2 -26 -4 -32 -16z"/>
        <path d="M1001 1632 c-58 -22 -146 -108 -173 -169 -44 -97 -21 -211 51 -258 76 -50 167 -41 241 22 47 41 95 123 72 123 -4 0 -14 -16 -21 -35 -15 -43 -83 -102 -133 -116 -117 -31 -192 52 -167 187 20 105 73 185 151 225 41 21 108 25 139 9 27 -15 49 -63 49 -110 0 -52 16 -51 30 3 6 23 15 58 21 77 15 59 11 66 -20 36 l-30 -29 -31 27 c-26 21 -41 26 -83 25 -29 0 -72 -8 -96 -17z"/>
        <path d="M4592 1620 c-106 -54 -172 -154 -172 -265 0 -92 43 -152 127 -175 54 -16 112 -5 164 30 42 27 99 101 99 127 0 22 -9 15 -29 -25 -61 -120 -204 -156 -276 -70 -26 30 -27 37 -23 108 5 86 29 148 79 205 64 72 171 98 224 53 27 -24 48 -90 39 -122 -4 -12 -2 -17 7 -14 14 5 62 178 50 178 -4 0 -18 -11 -31 -24 l-23 -25 -36 25 c-52 35 -120 33 -199 -6z"/>
        <path d="M370 1630 c0 -5 14 -10 30 -10 17 0 30 -5 30 -12 0 -7 -22 -98 -48 -203 l-48 -190 -30 -3 c-16 -2 -33 -8 -39 -13 -5 -5 53 -9 150 -9 147 0 163 2 200 23 42 24 85 78 85 108 0 37 -21 70 -55 86 l-34 16 37 17 c99 45 116 141 32 182 -28 15 -62 18 -172 18 -86 0 -138 -4 -138 -10z m278 -26 c29 -20 30 -81 1 -118 -32 -41 -71 -56 -144 -56 -58 0 -66 2 -61 18 3 9 12 46 21 82 9 36 18 71 20 78 7 18 135 16 163 -4z m-34 -209 c25 -26 29 -55 11 -101 -24 -63 -63 -84 -159 -84 -42 0 -76 3 -76 8 0 4 10 49 22 100 l22 92 82 0 c60 0 87 -4 98 -15z"/>
        <path d="M3700 1630 c0 -5 14 -10 30 -10 39 0 39 -3 -18 -225 l-47 -180 -30 -3 c-16 -2 -34 -8 -40 -13 -5 -5 53 -9 150 -9 147 0 163 2 200 23 47 26 85 79 85 117 0 35 -32 76 -67 85 l-28 7 35 14 c73 31 115 98 90 144 -6 12 -26 30 -43 40 -28 17 -51 20 -174 20 -89 0 -143 -4 -143 -10z m287 -36 c33 -33 26 -76 -22 -124 -33 -33 -39 -35 -114 -38 l-79 -4 20 83 c12 46 25 90 31 97 6 7 34 12 74 12 55 0 67 -3 90 -26z m-47 -194 c29 -15 35 -71 14 -115 -27 -57 -65 -75 -156 -75 -43 0 -78 3 -78 6 0 7 39 164 45 182 5 15 147 17 175 2z"/>
        <path d="M6093 1490 c-51 -31 -86 -92 -91 -161 -4 -54 -2 -60 26 -89 36 -35 62 -38 108 -9 l33 20 20 -20 c39 -39 79 -20 102 48 18 50 3 48 -20 -3 -20 -45 -46 -60 -57 -32 -3 7 6 59 20 114 15 55 26 110 26 121 0 22 -24 29 -35 11 -4 -7 -14 -5 -28 5 -29 20 -66 19 -104 -5z m87 0 c28 -15 31 -49 10 -129 -22 -85 -57 -131 -102 -131 -53 0 -58 63 -16 177 18 48 57 93 80 93 5 0 18 -4 28 -10z"/>
        <path d="M3433 1481 c-59 -37 -83 -122 -37 -129 14 -2 29 7 43 24 22 28 28 64 11 64 -6 0 -10 -6 -9 -12 4 -32 -19 -68 -42 -68 -15 0 -10 39 8 70 21 36 52 53 89 48 26 -3 29 -7 32 -46 4 -55 -14 -83 -75 -118 -61 -35 -91 -62 -110 -97 -17 -33 -9 -49 11 -22 14 19 34 18 93 -6 41 -17 76 -2 98 41 21 41 11 51 -16 17 -21 -28 -53 -34 -118 -21 -31 6 -31 7 -14 26 9 10 43 33 76 50 70 38 97 69 97 113 0 70 -74 105 -137 66z"/>
        <path d="M4265 1490 c-44 -18 -91 -93 -79 -125 8 -20 47 -19 66 3 21 24 31 59 18 67 -6 4 -10 -4 -10 -18 0 -30 -36 -65 -51 -50 -8 8 -6 21 6 47 21 44 50 66 85 66 86 0 58 -120 -39 -170 -62 -31 -126 -108 -107 -128 3 -3 12 3 20 13 14 19 34 18 93 -6 39 -16 71 -2 97 42 23 39 10 52 -16 16 -21 -28 -57 -35 -127 -21 -41 8 -29 23 50 66 33 17 70 41 84 54 76 71 6 184 -90 144z"/>
        <path d="M2245 1461 c-101 -61 -137 -201 -69 -260 31 -26 83 -24 114 4 17 15 20 15 39 -4 44 -44 94 -16 106 60 5 33 5 33 -15 -11 -22 -45 -38 -63 -52 -54 -14 9 -9 59 17 160 26 99 23 132 -9 105 -12 -10 -20 -10 -38 3 -29 21 -56 20 -93 -3z m97 -26 c8 -19 8 -39 -2 -82 -19 -88 -36 -121 -72 -143 -40 -24 -42 -24 -62 -4 -33 32 -8 166 40 224 33 39 79 42 96 5z"/>
        <path d="M6513 1055 c-41 -18 -92 -95 -63 -95 6 0 10 6 10 14 0 8 13 28 30 46 22 23 36 31 57 28 27 -3 28 -5 26 -59 -1 -30 -12 -86 -25 -124 -19 -57 -28 -72 -50 -79 -34 -12 -43 -4 -26 23 10 16 10 23 0 33 -15 15 -45 0 -50 -26 -9 -44 65 -63 108 -28 23 18 24 18 42 0 38 -38 113 -16 143 42 18 34 18 40 5 40 -5 0 -10 -6 -10 -14 0 -25 -58 -78 -81 -74 -41 6 -45 29 -20 131 25 108 42 137 76 137 23 0 24 -2 13 -26 -10 -20 -9 -27 2 -34 19 -12 50 6 50 29 0 45 -75 60 -112 23 -20 -20 -21 -20 -37 -2 -23 26 -51 31 -88 15z"/>
        <path d="M5970 945 c0 -13 26 -15 175 -15 149 0 175 2 175 15 0 13 -26 15 -175 15 -149 0 -175 -2 -175 -15z"/>
        <path d="M6078 753 c-27 -7 -22 -23 7 -23 14 0 25 -2 25 -4 0 -3 -18 -78 -40 -167 -22 -90 -38 -172 -34 -183 11 -43 27 -65 55 -76 86 -36 206 102 185 214 -12 64 -83 96 -134 60 -27 -19 -27 -16 -2 91 11 47 20 88 20 90 0 6 -58 4 -82 -2z m136 -189 c21 -21 20 -69 -3 -144 -23 -73 -54 -110 -92 -110 -43 0 -53 43 -32 136 13 62 22 80 50 104 38 34 55 37 77 14z"/>
    </g>
</svg>