<svg xmlns="http://www.w3.org/2000/svg" version="1.0" width="1301.000000pt" height="298.000000pt" viewBox="0 0 1301.000000 298.000000" preserveAspectRatio="xMidYMid meet">

<g transform="translate(0.000000,298.000000) scale(0.100000,-0.100000)" fill="#000000" stroke="none">
<path d="M308 2973 c12 -2 30 -2 40 0 9 3 -1 5 -23 4 -22 0 -30 -2 -17 -4z"/>
<path d="M2065 2800 l-48 -49 -398 -3 c-389 -3 -399 -3 -419 -24 -20 -20 -21 -31 -21 -210 0 -182 0 -189 21 -206 21 -17 62 -18 592 -18 l569 0 24 25 c25 24 25 26 25 202 -1 192 -3 203 -54 223 -15 5 -82 10 -149 10 l-121 0 44 45 c24 24 42 47 39 50 -3 2 -27 -18 -54 -45 -27 -28 -56 -50 -64 -50 -9 0 5 21 34 50 27 28 45 50 39 50 -5 0 -32 -22 -59 -50z m-105 -105 c-19 -19 -29 -35 -24 -35 6 0 25 16 44 35 19 19 41 35 49 35 10 0 3 -12 -19 -35 -19 -19 -29 -35 -24 -35 6 0 25 16 44 35 l34 35 146 0 c110 0 151 -3 166 -14 17 -13 19 -30 22 -188 3 -156 1 -177 -15 -196 l-18 -23 -574 1 c-414 0 -577 3 -587 11 -11 9 -14 51 -14 192 0 154 2 183 17 199 15 17 41 18 402 18 l385 0 -34 -35z"/>
<path d="M1735 2628 c-11 -6 -32 -22 -48 -36 -86 -81 -29 -217 77 -182 35 11 76 52 76 74 0 6 -9 -3 -19 -20 -23 -38 -71 -57 -107 -44 -83 32 -18 210 77 210 30 0 59 -30 60 -65 0 -20 0 -20 8 0 4 11 11 33 15 49 6 26 6 28 -9 16 -12 -10 -19 -10 -27 -2 -15 15 -77 15 -103 0z"/>
<path d="M2113 2628 c18 -14 19 -4 -24 -170 -5 -20 -17 -39 -27 -42 -9 -3 22 -4 69 -3 70 2 91 6 108 21 25 22 28 74 6 82 -21 8 -19 21 5 29 11 3 23 18 26 32 11 43 -24 63 -109 63 -59 0 -68 -2 -54 -12z m122 -11 c40 -30 -7 -87 -70 -87 -28 0 -32 18 -14 69 9 24 17 31 38 31 15 0 35 -6 46 -13z m-7 -129 c5 -39 -28 -68 -78 -68 -44 0 -46 4 -29 63 10 38 11 38 57 35 43 -3 47 -5 50 -30z"/>
<path d="M1547 2542 c-10 -10 -17 -26 -17 -35 0 -18 25 -23 35 -7 3 6 -1 7 -9 4 -22 -9 -20 12 4 36 11 11 16 20 12 20 -5 0 -16 -8 -25 -18z"/>
<path d="M1605 2528 c0 -26 -7 -37 -39 -58 -61 -42 -62 -55 -5 -57 40 -2 50 1 59 17 7 14 7 20 0 20 -5 0 -10 -4 -10 -9 0 -14 -28 -21 -52 -12 -20 7 -18 10 23 37 35 24 44 36 44 59 0 15 -5 30 -10 32 -6 2 -10 -11 -10 -29z"/>
<path d="M1946 2538 c-19 -27 -21 -48 -3 -48 16 0 37 20 37 35 0 5 -5 2 -11 -7 -11 -19 -29 -24 -29 -8 0 6 9 19 20 30 11 11 16 20 11 20 -6 0 -17 -10 -25 -22z"/>
<path d="M2008 2548 c17 -22 7 -41 -44 -83 -24 -20 -44 -39 -44 -43 0 -4 19 -8 42 -9 40 -3 68 9 68 30 0 5 -8 2 -19 -7 -13 -12 -27 -15 -45 -10 -32 8 -26 18 25 45 36 18 40 24 37 51 -2 17 -10 34 -18 36 -12 4 -13 3 -2 -10z"/>
<path d="M1348 2493 c23 -2 61 -2 85 0 23 2 4 4 -43 4 -47 0 -66 -2 -42 -4z"/>
<path d="M3995 2800 l-48 -49 -423 -3 -423 -3 -23 -23 c-22 -22 -23 -28 -23 -208 0 -183 0 -186 24 -205 22 -18 47 -19 596 -19 549 0 574 1 596 19 23 19 24 24 27 199 3 179 3 180 -21 208 l-25 29 -142 3 -143 4 49 49 c26 27 44 49 38 49 -5 0 -32 -22 -59 -50z m-105 -105 c-19 -19 -29 -35 -24 -35 6 0 25 16 44 35 l34 35 150 0 c125 0 152 -3 168 -17 16 -14 18 -34 18 -198 0 -143 -3 -185 -14 -194 -19 -16 -1163 -16 -1182 0 -11 9 -14 51 -14 192 0 154 2 183 17 199 15 17 42 18 427 18 l410 0 -34 -35z"/>
<path d="M3590 2630 c23 -14 -24 -198 -54 -210 -14 -6 3 -9 57 -9 51 -1 88 4 107 14 38 19 49 59 25 85 -17 19 -17 21 9 41 33 26 31 58 -4 76 -29 15 -163 18 -140 3z m121 -10 c26 -14 24 -36 -6 -65 -16 -17 -35 -25 -60 -25 -34 0 -35 1 -29 28 15 60 23 72 49 72 15 0 35 -5 46 -10z m-5 -127 c9 -36 -32 -73 -83 -73 l-36 0 7 42 c9 56 11 58 61 58 40 0 45 -3 51 -27z"/>
<path d="M3999 2626 c18 -22 -27 -196 -54 -207 -13 -5 10 -8 63 -8 79 -1 85 0 113 28 34 35 36 44 10 70 -19 19 -19 20 5 36 16 11 24 25 24 45 0 38 -27 50 -112 50 -50 0 -59 -2 -49 -14z m115 -2 c9 -4 16 -18 16 -35 0 -35 -32 -59 -78 -59 -33 0 -33 1 -27 33 14 64 38 80 89 61z m-6 -121 c12 -23 -1 -59 -27 -72 -11 -6 -36 -11 -56 -11 -28 0 -36 4 -32 14 3 8 9 31 13 50 6 35 8 36 50 36 31 0 46 -5 52 -17z"/>
<path d="M3427 2542 c-10 -10 -17 -26 -17 -35 0 -18 25 -23 35 -7 3 6 -1 7 -9 4 -22 -9 -20 12 4 36 11 11 16 20 12 20 -5 0 -16 -8 -25 -18z"/>
<path d="M3485 2528 c0 -26 -7 -37 -39 -58 -61 -42 -62 -55 -5 -57 40 -2 50 1 59 17 7 14 7 20 0 20 -5 0 -10 -4 -10 -9 0 -14 -28 -21 -52 -12 -20 7 -18 10 23 37 35 24 44 36 44 59 0 15 -5 30 -10 32 -6 2 -10 -11 -10 -29z"/>
<path d="M3836 2541 c-11 -12 -14 -21 -7 -26 6 -3 11 1 11 9 0 8 8 20 18 25 9 6 12 11 6 11 -6 0 -19 -9 -28 -19z"/>
<path d="M3895 2533 c0 -19 -7 -31 -25 -40 -18 -9 -20 -13 -7 -13 11 0 17 -8 17 -25 0 -13 -8 -29 -17 -34 -24 -14 -7 -14 18 0 14 7 19 19 17 38 -1 16 3 36 11 44 14 18 12 48 -4 54 -6 2 -11 -9 -10 -24z"/>
<path d="M3228 2493 c23 -2 61 -2 85 0 23 2 4 4 -43 4 -47 0 -66 -2 -42 -4z"/>
<path d="M3800 2436 c0 -8 4 -17 8 -20 4 -2 8 4 8 15 0 10 -4 19 -8 19 -4 0 -8 -6 -8 -14z"/>
<path d="M4583 2830 c-60 -36 -63 -53 -63 -321 0 -225 1 -244 20 -274 42 -68 10 -65 812 -65 704 0 724 1 756 20 18 11 41 34 52 52 18 30 20 51 20 266 0 261 -5 285 -65 322 -32 20 -48 20 -766 20 -710 0 -735 -1 -766 -20z m1510 -4 c68 -28 72 -44 75 -301 3 -254 -1 -275 -61 -319 -28 -21 -38 -21 -744 -24 -680 -2 -717 -1 -757 17 -71 31 -76 51 -76 316 0 251 4 269 63 305 31 19 56 20 750 20 583 0 724 -3 750 -14z"/>
<path d="M4695 2733 c-11 -3 -30 -14 -42 -26 -22 -20 -23 -27 -23 -199 0 -177 0 -179 25 -203 l24 -25 669 0 c644 0 671 1 693 19 23 19 24 24 27 199 3 179 3 180 -22 208 l-24 29 -654 1 c-359 1 -662 0 -673 -3z m1337 -30 c16 -14 18 -34 18 -198 0 -142 -3 -185 -14 -194 -10 -8 -199 -11 -687 -11 l-674 0 -18 21 c-10 12 -15 29 -12 36 3 8 5 86 5 173 0 131 3 161 16 174 14 14 89 16 681 16 606 0 668 -1 685 -17z"/>
<path d="M5169 2616 c18 -22 -27 -196 -54 -207 -13 -5 10 -8 63 -8 79 -1 85 0 113 28 34 35 36 44 10 70 -19 19 -19 20 5 36 16 11 24 25 24 45 0 38 -27 50 -112 50 -50 0 -59 -2 -49 -14z m115 -2 c9 -4 16 -18 16 -35 0 -35 -32 -59 -78 -59 -33 0 -33 1 -27 33 14 64 38 80 89 61z m-6 -121 c12 -23 -1 -59 -27 -72 -11 -6 -36 -11 -56 -11 -28 0 -36 4 -32 14 3 8 9 31 13 50 6 35 8 36 50 36 31 0 46 -5 52 -17z"/>
<path d="M5583 2608 c-67 -47 -91 -132 -53 -181 42 -53 134 -38 167 27 15 31 15 31 -18 -6 -46 -50 -80 -58 -113 -24 -61 61 5 196 97 196 31 0 47 -18 47 -52 0 -43 15 -33 27 17 9 41 3 59 -12 35 -4 -7 -12 -7 -25 0 -31 17 -84 11 -117 -12z"/>
<path d="M4840 2530 c-5 -32 -8 -35 -45 -39 l-40 -5 40 -5 c36 -5 41 -9 46 -41 l6 -35 2 37 c1 35 3 37 39 41 l37 4 -37 1 c-35 2 -37 4 -40 40 l-4 37 -4 -35z"/>
<path d="M5770 2485 c0 -43 4 -75 10 -75 6 0 10 30 10 70 l0 70 65 0 64 0 4 -72 3 -73 2 78 2 77 -80 0 -80 0 0 -75z"/>
<path d="M5006 2531 c-11 -12 -14 -21 -7 -26 6 -3 11 1 11 9 0 8 8 20 18 25 9 6 12 11 6 11 -6 0 -19 -9 -28 -19z"/>
<path d="M5065 2523 c0 -19 -7 -31 -25 -40 -18 -9 -20 -13 -7 -13 11 0 17 -8 17 -25 0 -13 -8 -29 -17 -34 -24 -14 -7 -14 18 0 14 7 19 19 17 38 -1 16 3 36 11 44 14 18 12 48 -4 54 -6 2 -11 -9 -10 -24z"/>
<path d="M5416 2531 c-11 -12 -14 -21 -7 -26 6 -3 11 1 11 9 0 8 8 20 18 25 9 6 12 11 6 11 -6 0 -19 -9 -28 -19z"/>
<path d="M5475 2523 c0 -19 -7 -31 -25 -40 -18 -9 -20 -13 -7 -13 11 0 17 -8 17 -25 0 -13 -8 -29 -17 -34 -24 -14 -7 -14 18 0 14 7 19 19 17 38 -1 16 3 36 11 44 14 18 12 48 -4 54 -6 2 -11 -9 -10 -24z"/>
<path d="M4970 2426 c0 -8 4 -17 8 -20 4 -2 8 4 8 15 0 10 -4 19 -8 19 -4 0 -8 -6 -8 -14z"/>
<path d="M5380 2426 c0 -8 4 -17 8 -20 4 -2 8 4 8 15 0 10 -4 19 -8 19 -4 0 -8 -6 -8 -14z"/>
<path d="M8195 2800 l-49 -49 -392 -3 -392 -3 -26 -24 -26 -24 0 -179 c0 -177 0 -179 25 -203 l24 -25 569 0 c546 0 571 1 593 19 23 19 24 24 27 199 3 179 3 180 -22 208 l-24 29 -142 3 -142 4 48 49 c27 27 44 49 38 49 -5 0 -32 -22 -59 -50 -27 -27 -56 -50 -64 -50 -9 0 5 21 34 50 27 28 45 50 39 50 -5 0 -32 -22 -59 -50z m-100 -100 c-16 -16 -26 -32 -24 -35 3 -2 21 11 39 30 19 19 41 35 49 35 10 0 6 -10 -14 -30 -16 -16 -26 -32 -24 -35 3 -2 21 11 39 30 l34 35 150 0 c125 0 152 -3 168 -17 16 -14 18 -34 18 -198 0 -144 -3 -185 -14 -194 -10 -9 -168 -12 -587 -12 -574 1 -574 1 -591 22 -15 18 -18 43 -18 168 0 147 9 208 32 223 7 4 184 8 392 8 l380 0 -29 -30z"/>
<path d="M7852 2620 c-69 -42 -96 -144 -49 -188 29 -27 70 -36 99 -22 31 17 68 51 68 64 0 6 -7 0 -16 -12 -35 -51 -112 -63 -134 -22 -25 46 -2 131 45 168 55 44 114 23 115 -40 1 -30 15 -7 25 42 7 32 6 33 -9 21 -13 -11 -20 -11 -28 -3 -18 18 -80 14 -116 -8z"/>
<path d="M8249 2626 c18 -22 -27 -196 -54 -207 -13 -5 10 -8 63 -8 79 -1 85 0 113 28 34 35 36 44 10 70 -19 19 -19 20 5 36 16 11 24 25 24 45 0 38 -27 50 -112 50 -50 0 -59 -2 -49 -14z m115 -2 c9 -4 16 -18 16 -35 0 -35 -32 -59 -78 -59 -33 0 -33 1 -27 33 14 64 38 80 89 61z m-6 -121 c12 -23 -1 -59 -27 -72 -11 -6 -36 -11 -56 -11 -28 0 -36 4 -32 14 3 8 9 31 13 50 6 35 8 36 50 36 31 0 46 -5 52 -17z"/>
<path d="M7676 2538 c-19 -27 -21 -48 -3 -48 16 0 37 20 37 35 0 5 -5 2 -11 -7 -11 -19 -29 -24 -29 -8 0 6 9 19 20 30 11 11 16 20 11 20 -6 0 -17 -10 -25 -22z"/>
<path d="M7738 2548 c17 -22 7 -41 -44 -83 -24 -20 -44 -39 -44 -43 0 -4 19 -8 42 -9 40 -3 68 9 68 30 0 5 -8 2 -19 -7 -13 -12 -27 -15 -45 -10 -32 8 -26 18 25 45 36 18 40 24 37 51 -2 17 -10 34 -18 36 -12 4 -13 3 -2 -10z"/>
<path d="M8087 2542 c-22 -24 -22 -52 1 -51 10 0 12 3 5 6 -18 7 -16 23 4 45 9 10 14 18 11 18 -3 0 -12 -8 -21 -18z"/>
<path d="M8139 2551 c24 -15 4 -55 -44 -89 -25 -17 -45 -35 -45 -39 0 -5 19 -9 42 -10 40 -3 68 9 68 29 0 5 -7 2 -16 -6 -13 -14 -56 -14 -72 -1 -2 1 17 14 42 29 25 14 48 35 51 47 7 21 -10 49 -29 49 -6 0 -5 -4 3 -9z"/>
<path d="M7478 2493 c23 -2 61 -2 85 0 23 2 4 4 -43 4 -47 0 -66 -2 -42 -4z"/>
<path d="M9815 2800 l-49 -50 -402 0 c-413 0 -454 -4 -474 -40 -6 -10 -10 -99 -10 -198 0 -174 1 -179 23 -200 l23 -22 573 0 572 0 24 25 c25 24 25 26 25 202 -1 192 -3 203 -54 223 -15 5 -84 10 -154 10 l-126 0 49 50 c27 28 45 50 39 50 -5 0 -32 -22 -59 -50z m-100 -100 c-16 -16 -26 -32 -24 -35 3 -2 21 11 39 30 l34 35 151 0 c115 0 156 -3 171 -14 17 -13 19 -30 22 -188 3 -156 1 -177 -15 -196 l-18 -23 -565 1 c-311 0 -570 0 -577 0 -6 0 -19 7 -27 16 -13 13 -16 45 -16 190 0 161 2 176 20 194 19 19 33 20 427 20 l407 0 -29 -30z"/>
<path d="M9413 2628 c18 -14 19 -4 -24 -170 -5 -20 -17 -39 -27 -42 -9 -3 22 -4 69 -3 70 2 91 6 108 21 25 22 28 74 6 82 -21 8 -19 21 5 29 11 3 23 18 26 32 11 43 -24 63 -109 63 -59 0 -68 -2 -54 -12z m122 -11 c40 -30 -7 -87 -70 -87 -28 0 -32 18 -14 69 9 24 17 31 38 31 15 0 35 -6 46 -13z m-7 -129 c5 -39 -28 -68 -78 -68 -44 0 -46 4 -29 63 10 38 11 38 57 35 43 -3 47 -5 50 -30z"/>
<path d="M9823 2628 c18 -14 19 -4 -24 -170 -5 -20 -17 -39 -27 -42 -9 -3 22 -4 69 -3 70 2 91 6 108 21 25 22 28 74 6 82 -21 8 -19 21 5 29 11 3 23 18 26 32 11 43 -24 63 -109 63 -59 0 -68 -2 -54 -12z m122 -11 c40 -30 -7 -87 -70 -87 -28 0 -32 18 -14 69 9 24 17 31 38 31 15 0 35 -6 46 -13z m-7 -129 c5 -39 -28 -68 -78 -68 -44 0 -46 4 -29 63 10 38 11 38 57 35 43 -3 47 -5 50 -30z"/>
<path d="M9246 2538 c-19 -27 -21 -48 -3 -48 16 0 37 20 37 35 0 5 -5 2 -11 -7 -11 -19 -29 -24 -29 -8 0 6 9 19 20 30 11 11 16 20 11 20 -6 0 -17 -10 -25 -22z"/>
<path d="M9308 2548 c17 -22 7 -41 -44 -83 -24 -20 -44 -39 -44 -43 0 -4 19 -8 42 -9 40 -3 68 9 68 30 0 5 -8 2 -19 -7 -13 -12 -27 -15 -45 -10 -32 8 -26 18 25 45 36 18 40 24 37 51 -2 17 -10 34 -18 36 -12 4 -13 3 -2 -10z"/>
<path d="M9660 2545 c-20 -25 -6 -31 17 -7 14 14 18 22 9 22 -8 0 -19 -7 -26 -15z"/>
<path d="M9727 2536 c4 -19 -1 -28 -23 -40 -20 -11 -24 -15 -11 -16 22 0 22 -28 0 -52 -9 -10 -12 -18 -6 -18 5 0 18 9 29 21 15 17 16 23 6 40 -7 11 -8 19 -2 19 14 0 31 36 24 54 -10 25 -22 19 -17 -8z"/>
<path d="M9048 2493 c23 -2 61 -2 85 0 23 2 4 4 -43 4 -47 0 -66 -2 -42 -4z"/>
<path d="M9630 2436 c0 -8 4 -17 8 -20 4 -2 8 4 8 15 0 10 -4 19 -8 19 -4 0 -8 -6 -8 -14z"/>
<path d="M830 2542 c-30 -53 -65 -107 -77 -119 l-22 -23 29 0 c22 0 28 4 24 15 -4 8 1 27 11 41 13 20 23 25 48 22 28 -3 32 -7 35 -35 2 -23 -1 -32 -15 -36 -10 -3 5 -5 32 -5 28 0 43 2 34 5 -16 4 -29 81 -29 180 0 23 -4 44 -8 47 -4 2 -32 -39 -62 -92z m49 -34 c1 -14 -7 -18 -33 -18 l-35 0 27 48 27 47 6 -30 c4 -16 7 -38 8 -47z"/>
<path d="M452 2610 c-64 -39 -93 -135 -57 -187 32 -46 112 -35 149 21 26 41 19 40 -22 -4 -43 -44 -56 -48 -90 -24 -42 29 -23 138 33 182 39 31 79 29 93 -3 7 -14 12 -34 13 -43 1 -9 7 3 13 28 14 51 13 58 -8 41 -10 -8 -16 -9 -21 -1 -10 17 -68 11 -103 -10z"/>
<path d="M6553 2610 c-38 -23 -73 -86 -73 -130 0 -22 10 -41 30 -62 26 -25 36 -29 63 -24 32 6 87 56 87 79 -1 6 -7 0 -16 -15 -20 -38 -66 -61 -97 -49 -42 16 -49 69 -18 137 43 94 139 102 142 12 0 -21 1 -22 8 -3 4 11 11 33 15 49 6 26 6 28 -9 16 -12 -10 -19 -10 -27 -2 -18 18 -69 14 -105 -8z"/>
<path d="M6932 2610 c-64 -39 -93 -135 -57 -187 32 -46 112 -35 149 21 26 41 19 40 -22 -4 -43 -44 -56 -48 -90 -24 -42 29 -23 138 33 182 39 31 79 29 93 -3 7 -14 12 -34 13 -43 1 -9 7 3 13 28 14 51 13 58 -8 41 -10 -8 -16 -9 -21 -1 -10 17 -68 11 -103 -10z"/>
<path d="M2650 2485 c0 -43 4 -75 10 -75 6 0 10 30 10 70 l0 70 65 0 64 0 4 -72 3 -73 2 78 2 77 -80 0 -80 0 0 -75z"/>
<path d="M247 2532 c-10 -10 -17 -26 -17 -35 0 -18 25 -23 35 -7 3 6 -1 7 -9 4 -22 -9 -20 12 4 36 11 11 16 20 12 20 -5 0 -16 -8 -25 -18z"/>
<path d="M305 2518 c0 -26 -7 -37 -39 -58 -61 -42 -62 -55 -5 -57 40 -2 50 1 59 17 7 14 7 20 0 20 -5 0 -10 -4 -10 -9 0 -14 -28 -21 -52 -12 -20 7 -18 10 23 37 35 24 44 36 44 59 0 15 -5 30 -10 32 -6 2 -10 -11 -10 -29z"/>
<path d="M627 2532 c-10 -10 -17 -26 -17 -35 0 -18 25 -23 35 -7 3 6 -1 7 -9 4 -22 -9 -20 12 4 36 11 11 16 20 12 20 -5 0 -16 -8 -25 -18z"/>
<path d="M685 2518 c0 -26 -7 -37 -39 -58 -61 -42 -62 -55 -5 -57 40 -2 50 1 59 17 7 14 7 20 0 20 -5 0 -10 -4 -10 -9 0 -14 -28 -21 -52 -12 -20 7 -18 10 23 37 35 24 44 36 44 59 0 15 -5 30 -10 32 -6 2 -10 -11 -10 -29z"/>
<path d="M6346 2528 c-19 -27 -21 -48 -3 -48 16 0 37 20 37 35 0 5 -5 2 -11 -7 -11 -19 -29 -24 -29 -8 0 6 9 19 20 30 11 11 16 20 11 20 -6 0 -17 -10 -25 -22z"/>
<path d="M6408 2538 c17 -22 7 -41 -44 -83 -24 -20 -44 -39 -44 -43 0 -4 19 -8 42 -9 40 -3 68 9 68 30 0 5 -8 2 -19 -7 -13 -12 -27 -15 -45 -10 -32 8 -26 18 25 45 36 18 40 24 37 51 -2 17 -10 34 -18 36 -12 4 -13 3 -2 -10z"/>
<path d="M6730 2535 c-6 -8 -10 -20 -7 -27 4 -8 6 -7 6 4 1 9 9 22 19 27 9 6 12 11 6 11 -6 0 -17 -7 -24 -15z"/>
<path d="M6794 2541 c12 -19 -4 -49 -32 -60 -16 -5 -20 -10 -10 -10 26 -1 31 -19 14 -46 -20 -31 -3 -33 18 -3 10 14 12 26 6 38 -7 13 -5 22 5 30 18 15 20 46 3 56 -7 4 -8 3 -4 -5z"/>
<path d="M6697 2434 c-6 -10 9 -42 16 -34 3 3 1 14 -3 24 -3 11 -9 15 -13 10z"/>
<path d="M7372 2126 c-61 -20 -103 -56 -137 -117 -64 -119 -17 -266 105 -329 113 -58 250 -16 317 98 37 62 39 165 6 228 -55 104 -181 156 -291 120z m173 -24 c120 -58 167 -209 99 -318 -45 -74 -100 -108 -182 -112 -59 -3 -74 0 -122 25 -111 59 -152 191 -93 303 58 110 190 156 298 102z"/>
<path d="M7410 2000 c23 -14 -24 -198 -54 -210 -15 -6 2 -9 54 -9 81 -1 114 13 130 53 8 22 -4 56 -20 56 -5 0 -8 -14 -8 -32 1 -40 -31 -68 -79 -68 -26 0 -34 4 -30 14 3 8 9 31 13 50 6 34 8 36 46 36 54 0 98 32 98 71 0 22 -6 32 -26 39 -33 13 -145 13 -124 0z m104 -6 c9 -4 16 -18 16 -35 0 -33 -32 -59 -73 -59 -27 0 -28 2 -22 33 14 63 34 78 79 61z"/>
<path d="M6183 1958 c18 -14 19 -4 -24 -170 -5 -20 -17 -39 -27 -42 -9 -3 22 -4 69 -3 70 2 91 6 108 21 25 22 28 74 6 82 -21 8 -19 21 5 29 11 3 23 18 26 32 11 43 -24 63 -109 63 -59 0 -68 -2 -54 -12z m122 -11 c40 -30 -7 -87 -70 -87 -28 0 -32 18 -14 69 9 24 17 31 38 31 15 0 35 -6 46 -13z m-7 -129 c5 -39 -28 -68 -78 -68 -44 0 -46 4 -29 63 10 38 11 38 57 35 43 -3 47 -5 50 -30z"/>
<path d="M6593 1958 c18 -14 19 -4 -24 -170 -5 -20 -17 -39 -27 -42 -9 -3 22 -4 69 -3 70 2 91 6 108 21 25 22 28 74 6 82 -21 8 -19 21 5 29 11 3 23 18 26 32 11 43 -24 63 -109 63 -59 0 -68 -2 -54 -12z m122 -11 c40 -30 -7 -87 -70 -87 -28 0 -32 18 -14 69 9 24 17 31 38 31 15 0 35 -6 46 -13z m-7 -129 c5 -39 -28 -68 -78 -68 -44 0 -46 4 -29 63 10 38 11 38 57 35 43 -3 47 -5 50 -30z"/>
<path d="M7905 1950 c-61 -40 -65 -60 -65 -320 0 -217 2 -238 20 -268 11 -18 34 -41 52 -52 32 -19 52 -20 548 -20 484 0 517 1 550 19 19 10 44 34 55 52 18 31 20 52 20 269 0 262 -4 282 -68 320 -31 19 -54 20 -557 20 -506 0 -526 -1 -555 -20z m1102 -10 c59 -36 63 -54 63 -310 0 -252 -3 -270 -57 -306 -27 -18 -54 -19 -550 -19 -512 0 -522 0 -550 21 -56 41 -62 66 -63 301 0 189 2 219 18 256 35 79 18 77 597 77 488 0 511 -1 542 -20z"/>
<path d="M8014 1853 c-12 -2 -30 -13 -40 -25 -17 -18 -19 -39 -19 -205 0 -182 0 -185 24 -204 22 -18 45 -19 483 -19 l459 0 24 25 c25 24 25 26 25 202 -1 192 -3 203 -54 223 -26 10 -853 13 -902 3z m922 -27 c17 -13 19 -30 22 -188 3 -156 1 -177 -15 -196 l-18 -23 -464 1 c-333 0 -467 3 -477 11 -11 9 -14 51 -14 192 0 154 2 183 17 199 15 17 43 18 473 18 378 0 460 -2 476 -14z"/>
<path d="M8298 1737 c11 -13 9 -23 -29 -169 -5 -21 -17 -39 -27 -41 -9 -3 18 -5 61 -6 70 -1 80 1 102 24 28 27 33 70 10 83 -13 7 -12 12 10 32 52 49 17 90 -78 90 -48 0 -57 -3 -49 -13z m106 -3 c22 -9 20 -50 -4 -74 -22 -22 -80 -28 -80 -7 0 6 5 29 11 50 10 38 32 47 73 31z m-6 -136 c4 -37 -29 -68 -73 -68 -19 0 -35 3 -35 6 0 3 5 25 11 50 12 45 12 45 53 42 36 -3 41 -6 44 -30z"/>
<path d="M8703 1730 c-38 -23 -73 -86 -73 -130 0 -22 10 -41 30 -62 26 -25 36 -29 63 -24 32 6 87 56 87 79 -1 6 -7 0 -16 -15 -20 -38 -66 -61 -97 -49 -42 16 -49 69 -18 137 43 94 139 102 142 12 0 -21 1 -22 8 -3 4 11 11 33 15 49 6 26 6 28 -9 16 -12 -10 -19 -10 -27 -2 -18 18 -69 14 -105 -8z"/>
<path d="M8130 1655 c-6 -8 -10 -20 -7 -27 4 -8 6 -7 6 4 1 9 9 22 19 27 9 6 12 11 6 11 -6 0 -17 -7 -24 -15z"/>
<path d="M8194 1661 c12 -19 -4 -49 -32 -60 -16 -5 -20 -10 -10 -10 26 -1 31 -19 14 -46 -20 -31 -3 -33 18 -3 10 14 12 26 6 38 -7 13 -5 22 5 30 18 15 20 46 3 56 -7 4 -8 3 -4 -5z"/>
<path d="M8500 1655 c-20 -25 -6 -31 17 -7 14 14 18 22 9 22 -8 0 -19 -7 -26 -15z"/>
<path d="M8567 1646 c4 -19 -1 -28 -23 -40 -20 -11 -24 -15 -11 -16 22 0 22 -28 0 -52 -9 -10 -12 -18 -6 -18 5 0 18 9 29 21 15 17 16 23 6 40 -7 11 -8 19 -2 19 14 0 31 36 24 54 -10 25 -22 19 -17 -8z"/>
<path d="M8097 1554 c-6 -10 9 -42 16 -34 3 3 1 14 -3 24 -3 11 -9 15 -13 10z"/>
<path d="M8470 1546 c0 -8 4 -17 8 -20 4 -2 8 4 8 15 0 10 -4 19 -8 19 -4 0 -8 -6 -8 -14z"/>
<path d="M6016 1868 c-19 -27 -21 -48 -3 -48 16 0 37 20 37 35 0 5 -5 2 -11 -7 -11 -19 -29 -24 -29 -8 0 6 9 19 20 30 11 11 16 20 11 20 -6 0 -17 -10 -25 -22z"/>
<path d="M6078 1878 c17 -22 7 -41 -44 -83 -24 -20 -44 -39 -44 -43 0 -4 19 -8 42 -9 40 -3 68 9 68 30 0 5 -8 2 -19 -7 -13 -12 -27 -15 -45 -10 -32 8 -26 18 25 45 36 18 40 24 37 51 -2 17 -10 34 -18 36 -12 4 -13 3 -2 -10z"/>
<path d="M6430 1875 c-20 -25 -6 -31 17 -7 14 14 18 22 9 22 -8 0 -19 -7 -26 -15z"/>
<path d="M6497 1866 c4 -19 -1 -28 -23 -40 -20 -11 -24 -15 -11 -16 22 0 22 -28 0 -52 -9 -10 -12 -18 -6 -18 5 0 18 9 29 21 15 17 16 23 6 40 -7 11 -8 19 -2 19 14 0 31 36 24 54 -10 25 -22 19 -17 -8z"/>
<path d="M3072 1243 l3 -618 190 0 190 0 5 268 5 268 110 84 c64 49 114 80 120 76 5 -5 93 -73 195 -151 102 -78 191 -147 198 -153 7 -5 15 -8 17 -5 9 8 -415 330 -428 325 -7 -2 -56 -39 -109 -81 -54 -42 -100 -76 -103 -76 -3 0 -4 53 -3 118 l3 117 398 3 397 2 0 220 0 220 -595 0 -595 0 2 -617z m1168 397 l0 -210 -392 -2 -393 -3 -3 -130 -3 -131 -95 -73 c-52 -41 -92 -76 -90 -79 3 -2 43 25 90 62 46 36 87 66 90 66 3 0 6 -112 6 -250 l0 -250 -180 0 -180 0 0 605 0 605 575 0 575 0 0 -210z"/>
<path d="M3702 1734 c-6 -12 -7 -36 -2 -64 14 -69 13 -70 -25 -70 -19 0 -35 2 -35 5 0 3 12 24 26 46 14 23 23 43 21 45 -3 3 -25 -31 -51 -75 -25 -44 -56 -87 -68 -95 -22 -16 -22 -16 17 -16 29 0 36 3 25 10 -13 8 -13 13 0 37 13 23 24 29 58 31 42 3 42 3 42 -32 0 -24 -5 -36 -17 -39 -10 -3 5 -5 32 -6 36 0 46 2 34 9 -13 8 -18 33 -24 108 -8 109 -16 137 -33 106z"/>
<path d="M4092 1734 c-6 -12 -7 -36 -2 -64 14 -69 13 -70 -25 -70 -19 0 -35 2 -35 5 0 3 12 24 26 46 14 23 23 43 21 45 -3 3 -25 -31 -51 -75 -25 -44 -56 -87 -68 -95 -22 -16 -22 -16 17 -16 29 0 36 3 25 10 -13 8 -13 13 0 37 13 23 24 29 58 31 42 3 42 3 42 -32 0 -24 -5 -36 -17 -39 -10 -3 5 -5 32 -6 36 0 46 2 34 9 -13 8 -18 33 -24 108 -8 109 -16 137 -33 106z"/>
<path d="M3457 1642 c-22 -24 -22 -52 1 -51 10 0 12 3 5 6 -18 7 -16 23 4 45 9 10 14 18 11 18 -3 0 -12 -8 -21 -18z"/>
<path d="M3509 1651 c24 -15 4 -55 -44 -89 -25 -17 -45 -35 -45 -39 0 -5 19 -9 42 -10 40 -3 68 9 68 29 0 5 -7 2 -16 -6 -13 -14 -56 -14 -72 -1 -2 1 17 14 42 29 25 14 48 35 51 47 7 21 -10 49 -29 49 -6 0 -5 -4 3 -9z"/>
<path d="M3846 1641 c-11 -12 -14 -21 -7 -26 6 -3 11 1 11 9 0 8 8 20 18 25 9 6 12 11 6 11 -6 0 -19 -9 -28 -19z"/>
<path d="M3905 1633 c0 -19 -7 -31 -25 -40 -18 -9 -20 -13 -7 -13 11 0 17 -8 17 -25 0 -13 -8 -29 -17 -34 -24 -14 -7 -14 18 0 14 7 19 19 17 38 -1 16 3 36 11 44 14 18 12 48 -4 54 -6 2 -11 -9 -10 -24z"/>
<path d="M3248 1593 c23 -2 61 -2 85 0 23 2 4 4 -43 4 -47 0 -66 -2 -42 -4z"/>
<path d="M3810 1536 c0 -8 4 -17 8 -20 4 -2 8 4 8 15 0 10 -4 19 -8 19 -4 0 -8 -6 -8 -14z"/>
<path d="M3182 843 l2 -78 3 73 4 72 64 0 65 0 0 -70 c0 -40 4 -70 10 -70 6 0 10 32 10 75 l0 75 -80 0 -80 0 2 -77z"/>
<path d="M4454 1853 c-12 -2 -30 -13 -40 -25 -17 -18 -19 -39 -19 -205 0 -182 0 -185 24 -204 22 -18 48 -19 683 -19 l659 0 24 25 c25 24 25 26 25 202 -1 192 -3 203 -54 223 -26 10 -1252 13 -1302 3z m1322 -27 c17 -13 19 -30 22 -188 3 -156 1 -177 -15 -196 l-18 -22 -664 0 c-481 0 -667 3 -677 11 -11 9 -14 51 -14 192 0 154 2 183 17 199 15 17 49 18 673 18 550 0 659 -2 676 -14z"/>
<path d="M4958 1646 c-34 -58 -71 -109 -83 -115 -17 -8 -14 -10 20 -10 26 -1 35 2 27 8 -12 7 -11 14 2 40 14 27 22 31 56 31 35 0 40 -3 46 -27 5 -19 2 -30 -11 -40 -17 -11 -13 -13 31 -12 27 1 42 3 33 6 -19 5 -25 30 -35 146 -3 42 -10 77 -15 77 -4 0 -36 -47 -71 -104z m62 -3 c0 -31 -2 -33 -36 -33 -35 0 -36 1 -22 23 8 12 21 33 28 46 15 30 30 12 30 -36z"/>
<path d="M5345 1738 c-11 -6 -32 -22 -48 -36 -86 -81 -29 -217 77 -182 35 11 76 52 76 74 0 6 -9 -3 -19 -20 -23 -38 -71 -57 -107 -44 -83 32 -18 210 77 210 30 0 59 -30 60 -65 0 -20 0 -20 8 0 4 11 11 33 15 49 6 26 6 28 -9 16 -12 -10 -19 -10 -27 -2 -15 15 -77 15 -103 0z"/>
<path d="M4601 1648 c-1 -35 -3 -37 -38 -41 l-38 -4 38 -1 c36 -2 37 -3 38 -39 l2 -38 6 35 c5 32 9 35 46 39 l40 5 -40 5 c-36 5 -41 9 -46 41 l-6 35 -2 -37z"/>
<path d="M5522 1603 l2 -78 3 73 4 72 64 0 65 0 0 -70 c0 -40 4 -70 10 -70 6 0 10 32 10 75 l0 75 -80 0 -80 0 2 -77z"/>
<path d="M4770 1655 c-6 -8 -10 -20 -7 -27 4 -8 6 -7 6 4 1 9 9 22 19 27 9 6 12 11 6 11 -6 0 -17 -7 -24 -15z"/>
<path d="M4834 1661 c12 -19 -4 -49 -32 -60 -16 -5 -20 -10 -10 -10 26 -1 31 -19 14 -46 -20 -31 -3 -33 18 -3 10 14 12 26 6 38 -7 13 -5 22 5 30 18 15 20 46 3 56 -7 4 -8 3 -4 -5z"/>
<path d="M5156 1651 c-11 -12 -14 -21 -7 -26 6 -3 11 1 11 9 0 8 8 20 18 25 9 6 12 11 6 11 -6 0 -19 -9 -28 -19z"/>
<path d="M5215 1643 c0 -19 -7 -31 -25 -40 -18 -9 -20 -13 -7 -13 11 0 17 -8 17 -25 0 -13 -8 -29 -17 -34 -24 -14 -7 -14 18 0 14 7 19 19 17 38 -1 16 3 36 11 44 14 18 12 48 -4 54 -6 2 -11 -9 -10 -24z"/>
<path d="M4737 1554 c-6 -10 9 -42 16 -34 3 3 1 14 -3 24 -3 11 -9 15 -13 10z"/>
<path d="M5120 1546 c0 -8 4 -17 8 -20 4 -2 8 4 8 15 0 10 -4 19 -8 19 -4 0 -8 -6 -8 -14z"/>
<path d="M10563 1793 c427 -2 1127 -2 1555 0 427 1 77 2 -778 2 -855 0 -1205 -1 -777 -2z"/>
<path d="M6400 1766 c0 -8 4 -17 8 -20 4 -2 8 4 8 15 0 10 -4 19 -8 19 -4 0 -8 -6 -8 -14z"/>
<path d="M10022 1730 c-69 -42 -96 -144 -49 -188 29 -27 70 -36 99 -22 31 17 68 51 68 64 0 6 -7 0 -16 -12 -35 -51 -112 -63 -134 -22 -25 46 -2 131 45 168 55 44 114 23 115 -40 1 -30 15 -7 25 42 7 32 6 33 -9 21 -13 -11 -20 -11 -28 -3 -18 18 -80 14 -116 -8z"/>
<path d="M10423 1728 c-67 -47 -91 -132 -53 -181 42 -53 134 -38 167 27 15 31 15 31 -18 -6 -46 -50 -80 -58 -113 -24 -61 61 5 196 97 196 31 0 47 -18 47 -52 0 -43 15 -33 27 17 9 41 3 59 -12 35 -4 -7 -12 -7 -25 0 -31 17 -84 11 -117 -12z"/>
<path d="M11153 1728 c-67 -47 -91 -132 -53 -181 42 -53 134 -38 167 27 15 31 15 31 -18 -6 -46 -50 -80 -58 -113 -24 -61 61 5 196 97 196 31 0 47 -18 47 -52 0 -43 15 -33 27 17 9 41 3 59 -12 35 -4 -7 -12 -7 -25 0 -31 17 -84 11 -117 -12z"/>
<path d="M11550 1740 c23 -14 -24 -198 -54 -210 -14 -6 3 -9 57 -9 51 -1 88 4 107 14 38 19 49 59 25 85 -17 19 -17 21 9 41 33 26 31 58 -4 76 -29 15 -163 18 -140 3z m121 -10 c26 -14 24 -36 -6 -65 -16 -17 -35 -25 -60 -25 -34 0 -35 1 -29 28 15 60 23 72 49 72 15 0 35 -5 46 -10z m-5 -127 c9 -36 -32 -73 -83 -73 l-36 0 7 42 c9 56 11 58 61 58 40 0 45 -3 51 -27z"/>
<path d="M12290 1740 c23 -14 -24 -198 -54 -210 -14 -6 3 -9 57 -9 51 -1 88 4 107 14 38 19 49 59 25 85 -17 19 -17 21 9 41 33 26 31 58 -4 76 -29 15 -163 18 -140 3z m121 -10 c26 -14 24 -36 -6 -65 -16 -17 -35 -25 -60 -25 -34 0 -35 1 -29 28 15 60 23 72 49 72 15 0 35 -5 46 -10z m-5 -127 c9 -36 -32 -73 -83 -73 l-36 0 7 42 c9 56 11 58 61 58 40 0 45 -3 51 -27z"/>
<path d="M12699 1736 c18 -22 -27 -196 -54 -207 -13 -5 10 -8 63 -8 79 -1 85 0 113 28 34 35 36 44 10 70 -19 19 -19 20 5 36 16 11 24 25 24 45 0 38 -27 50 -112 50 -50 0 -59 -2 -49 -14z m115 -2 c9 -4 16 -18 16 -35 0 -35 -32 -59 -78 -59 -33 0 -33 1 -27 33 14 64 38 80 89 61z m-6 -121 c12 -23 -1 -59 -27 -72 -11 -6 -36 -11 -56 -11 -28 0 -36 4 -32 14 3 8 9 31 13 50 6 35 8 36 50 36 31 0 46 -5 52 -17z"/>
<path d="M9846 1648 c-19 -27 -21 -48 -3 -48 16 0 37 20 37 35 0 5 -5 2 -11 -7 -11 -19 -29 -24 -29 -8 0 6 9 19 20 30 11 11 16 20 11 20 -6 0 -17 -10 -25 -22z"/>
<path d="M9908 1658 c17 -22 7 -41 -44 -83 -24 -20 -44 -39 -44 -43 0 -4 19 -8 42 -9 40 -3 68 9 68 30 0 5 -8 2 -19 -7 -13 -12 -27 -15 -45 -10 -32 8 -26 18 25 45 36 18 40 24 37 51 -2 17 -10 34 -18 36 -12 4 -13 3 -2 -10z"/>
<path d="M10256 1651 c-11 -12 -14 -21 -7 -26 6 -3 11 1 11 9 0 8 8 20 18 25 9 6 12 11 6 11 -6 0 -19 -9 -28 -19z"/>
<path d="M10315 1643 c0 -19 -7 -31 -25 -40 -18 -9 -20 -13 -7 -13 11 0 17 -8 17 -25 0 -13 -8 -29 -17 -34 -24 -14 -7 -14 18 0 14 7 19 19 17 38 -1 16 3 36 11 44 14 18 12 48 -4 54 -6 2 -11 -9 -10 -24z"/>
<path d="M10987 1652 c-22 -24 -22 -52 1 -51 10 0 12 3 5 6 -18 7 -16 23 4 45 9 10 14 18 11 18 -3 0 -12 -8 -21 -18z"/>
<path d="M11039 1661 c24 -15 4 -55 -44 -89 -25 -17 -45 -35 -45 -39 0 -5 19 -9 42 -10 40 -3 68 9 68 29 0 5 -7 2 -16 -6 -13 -14 -56 -14 -72 -1 -2 1 17 14 42 29 25 14 48 35 51 47 7 21 -10 49 -29 49 -6 0 -5 -4 3 -9z"/>
<path d="M11387 1652 c-10 -10 -17 -26 -17 -35 0 -18 25 -23 35 -7 3 6 -1 7 -9 4 -22 -9 -20 12 4 36 11 11 16 20 12 20 -5 0 -16 -8 -25 -18z"/>
<path d="M11445 1638 c0 -26 -7 -37 -39 -58 -61 -42 -62 -55 -5 -57 40 -2 50 1 59 17 7 14 7 20 0 20 -5 0 -10 -4 -10 -9 0 -14 -28 -21 -52 -12 -20 7 -18 10 23 37 35 24 44 36 44 59 0 15 -5 30 -10 32 -6 2 -10 -11 -10 -29z"/>
<path d="M12127 1652 c-10 -10 -17 -26 -17 -35 0 -18 25 -23 35 -7 3 6 -1 7 -9 4 -22 -9 -20 12 4 36 11 11 16 20 12 20 -5 0 -16 -8 -25 -18z"/>
<path d="M12185 1638 c0 -26 -7 -37 -39 -58 -61 -42 -62 -55 -5 -57 40 -2 50 1 59 17 7 14 7 20 0 20 -5 0 -10 -4 -10 -9 0 -14 -28 -21 -52 -12 -20 7 -18 10 23 37 35 24 44 36 44 59 0 15 -5 30 -10 32 -6 2 -10 -11 -10 -29z"/>
<path d="M12536 1651 c-11 -12 -14 -21 -7 -26 6 -3 11 1 11 9 0 8 8 20 18 25 9 6 12 11 6 11 -6 0 -19 -9 -28 -19z"/>
<path d="M12595 1643 c0 -19 -7 -31 -25 -40 -18 -9 -20 -13 -7 -13 11 0 17 -8 17 -25 0 -13 -8 -29 -17 -34 -24 -14 -7 -14 18 0 14 7 19 19 17 38 -1 16 3 36 11 44 14 18 12 48 -4 54 -6 2 -11 -9 -10 -24z"/>
<path d="M9583 1633 c20 -2 54 -2 75 0 20 2 3 4 -38 4 -41 0 -58 -2 -37 -4z"/>
<path d="M6939 1611 c-13 -11 -21 -23 -16 -27 4 -4 13 1 21 11 17 24 70 24 96 0 11 -10 20 -13 20 -7 0 17 -42 42 -71 42 -15 0 -37 -9 -50 -19z"/>
<path d="M5960 1600 c0 -7 143 -10 410 -10 267 0 410 3 410 10 0 7 -143 10 -410 10 -267 0 -410 -3 -410 -10z"/>
<path d="M7210 1600 c0 -6 87 -10 240 -10 153 0 240 4 240 10 0 6 -87 10 -240 10 -153 0 -240 -4 -240 -10z"/>
<path d="M10718 1603 c23 -2 61 -2 85 0 23 2 4 4 -43 4 -47 0 -66 -2 -42 -4z"/>
<path d="M11858 1603 c23 -2 61 -2 85 0 23 2 4 4 -43 4 -47 0 -66 -2 -42 -4z"/>
<path d="M9583 1573 c20 -2 54 -2 75 0 20 2 3 4 -38 4 -41 0 -58 -2 -37 -4z"/>
<path d="M10220 1546 c0 -8 4 -17 8 -20 4 -2 8 4 8 15 0 10 -4 19 -8 19 -4 0 -8 -6 -8 -14z"/>
<path d="M12500 1546 c0 -8 4 -17 8 -20 4 -2 8 4 8 15 0 10 -4 19 -8 19 -4 0 -8 -6 -8 -14z"/>
<path d="M7372 1536 c-61 -20 -103 -56 -137 -117 -97 -179 63 -391 263 -348 66 14 123 56 159 116 24 40 28 59 28 118 -1 75 -16 117 -64 168 -58 64 -164 90 -249 63z m173 -23 c119 -59 166 -207 102 -316 -49 -83 -122 -122 -216 -115 -127 9 -217 109 -209 233 2 35 12 77 24 100 54 104 195 150 299 98z"/>
<path d="M7440 1320 c-37 -66 -71 -115 -84 -120 -17 -7 -13 -9 19 -9 29 -1 36 2 28 10 -9 9 -8 19 3 41 13 25 20 29 52 26 31 -2 38 -7 40 -27 3 -15 -3 -30 -14 -38 -16 -11 -12 -13 27 -13 28 0 39 3 30 9 -9 6 -16 43 -21 115 -4 59 -10 109 -13 112 -2 3 -33 -45 -67 -106z m50 10 c0 -49 -1 -50 -31 -50 l-30 0 28 50 c15 27 29 50 31 50 1 0 2 -22 2 -50z"/>
<path d="M6236 1412 c-38 -64 -77 -117 -90 -122 -17 -7 -14 -9 19 -9 28 -1 36 2 28 10 -8 8 -6 19 6 40 14 26 21 29 56 27 37 -3 40 -5 43 -35 2 -23 -1 -32 -15 -36 -10 -3 5 -5 32 -5 28 0 42 2 33 5 -13 3 -18 21 -23 81 -3 42 -10 95 -14 117 l-7 40 -68 -113z m54 8 c0 -49 -1 -50 -30 -50 -16 0 -30 3 -30 7 0 9 50 93 55 93 3 0 5 -22 5 -50z"/>
<path d="M6626 1412 c-38 -64 -77 -117 -90 -122 -17 -7 -14 -9 19 -9 28 -1 36 2 28 10 -8 8 -6 19 6 40 14 26 21 29 56 27 37 -3 40 -5 43 -35 2 -23 -1 -32 -15 -36 -10 -3 5 -5 32 -5 28 0 42 2 33 5 -13 3 -18 21 -23 81 -3 42 -10 95 -14 117 l-7 40 -68 -113z m54 8 c0 -49 -1 -50 -30 -50 -16 0 -30 3 -30 7 0 9 50 93 55 93 3 0 5 -22 5 -50z"/>
<path d="M6036 1408 c-19 -27 -21 -48 -3 -48 16 0 37 20 37 35 0 5 -5 2 -11 -7 -11 -19 -29 -24 -29 -8 0 6 9 19 20 30 11 11 16 20 11 20 -6 0 -17 -10 -25 -22z"/>
<path d="M6098 1418 c17 -22 7 -41 -44 -83 -24 -20 -44 -39 -44 -43 0 -4 19 -8 42 -9 40 -3 68 9 68 30 0 5 -8 2 -19 -7 -13 -12 -27 -15 -45 -10 -32 8 -26 18 25 45 36 18 40 24 37 51 -2 17 -10 34 -18 36 -12 4 -13 3 -2 -10z"/>
<path d="M6430 1415 c-20 -25 -6 -31 17 -7 14 14 18 22 9 22 -8 0 -19 -7 -26 -15z"/>
<path d="M6497 1406 c4 -19 -1 -28 -23 -40 -20 -11 -24 -15 -11 -16 22 0 22 -28 0 -52 -9 -10 -12 -18 -6 -18 5 0 18 9 29 21 15 17 16 23 6 40 -7 11 -8 19 -2 19 14 0 31 36 24 54 -10 25 -22 19 -17 -8z"/>
<path d="M6400 1306 c0 -8 4 -17 8 -20 4 -2 8 4 8 15 0 10 -4 19 -8 19 -4 0 -8 -6 -8 -14z"/>
<path d="M5307 1146 c-60 -22 -104 -62 -132 -121 -98 -200 107 -413 313 -325 175 75 192 323 30 423 -57 35 -151 46 -211 23z m202 -33 c27 -17 58 -48 76 -77 53 -87 37 -215 -37 -283 -109 -102 -291 -71 -361 62 -33 62 -30 156 6 217 66 113 205 149 316 81z"/>
<path d="M5351 1020 c15 -9 15 -18 -8 -109 -18 -70 -30 -101 -42 -104 -9 -3 15 -5 52 -6 69 -1 102 9 124 38 17 22 16 41 -3 62 -14 15 -13 19 10 42 52 52 18 87 -84 87 -46 -1 -60 -3 -49 -10z m110 -10 c10 -6 19 -17 19 -26 0 -26 -47 -64 -80 -64 -28 0 -30 2 -24 28 18 73 37 87 85 62z m-3 -126 c5 -35 -34 -74 -75 -74 l-36 0 7 42 c9 57 12 59 59 56 34 -2 43 -7 45 -24z"/>
<path d="M4470 1040 c23 -14 -24 -198 -54 -210 -14 -6 3 -9 57 -9 51 -1 88 4 107 14 38 19 49 59 25 85 -17 19 -17 21 9 41 33 26 31 58 -4 76 -29 15 -163 18 -140 3z m121 -10 c26 -14 24 -36 -6 -65 -16 -17 -35 -25 -60 -25 -34 0 -35 1 -29 28 15 60 23 72 49 72 15 0 35 -5 46 -10z m-5 -127 c9 -36 -32 -73 -83 -73 l-36 0 7 42 c9 56 11 58 61 58 40 0 45 -3 51 -27z"/>
<path d="M4879 1036 c18 -22 -27 -196 -54 -207 -13 -5 10 -8 63 -8 79 -1 85 0 113 28 34 35 36 44 10 70 -19 19 -19 20 5 36 16 11 24 25 24 45 0 38 -27 50 -112 50 -50 0 -59 -2 -49 -14z m115 -2 c9 -4 16 -18 16 -35 0 -35 -32 -59 -78 -59 -33 0 -33 1 -27 33 14 64 38 80 89 61z m-6 -121 c12 -23 -1 -59 -27 -72 -11 -6 -36 -11 -56 -11 -28 0 -36 4 -32 14 3 8 9 31 13 50 6 35 8 36 50 36 31 0 46 -5 52 -17z"/>
<path d="M3797 952 c6 -26 -33 -173 -49 -183 -8 -6 0 -8 22 -8 19 0 30 3 23 5 -15 7 0 60 16 56 9 -2 9 3 3 14 -12 21 3 81 26 108 10 11 11 16 5 12 -7 -4 -21 -2 -32 3 -16 9 -18 8 -14 -7z"/>
<path d="M4307 952 c-10 -10 -17 -26 -17 -35 0 -18 25 -23 35 -7 3 6 -1 7 -9 4 -22 -9 -20 12 4 36 11 11 16 20 12 20 -5 0 -16 -8 -25 -18z"/>
<path d="M4365 938 c0 -26 -7 -37 -39 -58 -61 -42 -62 -55 -5 -57 40 -2 50 1 59 17 7 14 7 20 0 20 -5 0 -10 -4 -10 -9 0 -14 -28 -21 -52 -12 -20 7 -18 10 23 37 35 24 44 36 44 59 0 15 -5 30 -10 32 -6 2 -10 -11 -10 -29z"/>
<path d="M4716 951 c-11 -12 -14 -21 -7 -26 6 -3 11 1 11 9 0 8 8 20 18 25 9 6 12 11 6 11 -6 0 -19 -9 -28 -19z"/>
<path d="M4775 943 c0 -19 -7 -31 -25 -40 -18 -9 -20 -13 -7 -13 11 0 17 -8 17 -25 0 -13 -8 -29 -17 -34 -24 -14 -7 -14 18 0 14 7 19 19 17 38 -1 16 3 36 11 44 14 18 12 48 -4 54 -6 2 -11 -9 -10 -24z"/>
<path d="M3766 945 c-9 -26 -7 -32 5 -12 6 10 9 21 6 23 -2 3 -7 -2 -11 -11z"/>
<path d="M3881 945 c6 -38 -12 -94 -34 -110 -17 -12 -18 -15 -5 -15 24 0 68 57 68 90 0 15 -7 34 -16 41 -14 11 -16 10 -13 -6z"/>
<path d="M4038 903 c23 -2 61 -2 85 0 23 2 4 4 -43 4 -47 0 -66 -2 -42 -4z"/>
<path d="M4680 846 c0 -8 4 -17 8 -20 4 -2 8 4 8 15 0 10 -4 19 -8 19 -4 0 -8 -6 -8 -14z"/>
<path d="M3568 623 c23 -2 61 -2 85 0 23 2 4 4 -43 4 -47 0 -66 -2 -42 -4z"/>
<path d="M4217 623 c260 -2 686 -2 945 0 260 1 48 2 -472 2 -520 0 -732 -1 -473 -2z"/>
<path d="M4609 556 c-56 -20 -96 -53 -126 -104 -24 -40 -28 -58 -28 -123 0 -67 4 -81 30 -125 128 -206 445 -117 445 126 0 168 -163 283 -321 226z m189 -25 c127 -65 161 -235 70 -346 -45 -54 -101 -79 -179 -80 -56 0 -73 4 -115 30 -30 19 -60 49 -79 79 -25 42 -30 59 -30 115 0 54 5 75 28 113 63 108 193 146 305 89z"/>
<path d="M4690 362 c-30 -53 -65 -107 -77 -120 l-22 -22 29 0 c22 0 28 4 24 15 -4 8 1 27 11 41 13 20 23 25 48 22 28 -3 32 -7 35 -35 2 -23 -1 -32 -15 -36 -10 -3 5 -5 32 -5 28 0 43 2 34 5 -16 4 -29 81 -29 180 0 23 -4 44 -8 47 -4 2 -32 -39 -62 -92z m49 -34 c1 -14 -7 -18 -33 -18 l-35 0 27 48 27 47 6 -30 c4 -16 7 -38 8 -47z"/>
</g>
</svg>