<svg xmlns="http://www.w3.org/2000/svg" version="1.0" width="99.000000pt" height="237.000000pt" viewBox="0 0 99.000000 237.000000" preserveAspectRatio="xMidYMid meet">

    <g transform="translate(0.000000,237.000000) scale(0.100000,-0.100000)" fill="#000000" stroke="none">
        <path d="M359 2081 c-16 -16 -29 -38 -28 -48 0 -17 1 -17 12 1 33 53 87 76 100 42 10 -25 -31 -160 -54 -178 -26 -22 -38 -16 -31 17 5 28 -17 35 -37 11 -30 -36 31 -71 78 -43 23 13 29 13 45 1 11 -8 30 -14 42 -14 31 0 84 47 84 73 0 19 -3 17 -20 -11 -33 -54 -90 -64 -90 -15 0 34 29 145 42 161 6 6 22 12 37 11 14 0 20 -3 14 -6 -7 -2 -13 -13 -13 -24 0 -23 35 -26 44 -4 16 42 -37 69 -79 41 -23 -15 -28 -15 -47 -1 -34 23 -66 18 -99 -14z"/>
        <path d="M70 1625 c0 -13 50 -15 390 -15 340 0 390 2 390 15 0 13 -50 15 -390 15 -340 0 -390 -2 -390 -15z"/>
        <path d="M70 1470 c0 -20 7 -20 390 -20 383 0 390 0 390 20 0 20 -7 20 -390 20 -383 0 -390 0 -390 -20z"/>
        <path d="M246 1210 c-41 -27 -76 -87 -76 -133 0 -68 65 -108 117 -72 19 13 24 13 51 -2 16 -9 36 -14 45 -10 19 7 50 63 44 80 -2 7 -11 -5 -20 -25 -19 -45 -47 -51 -47 -10 0 15 9 60 19 100 19 70 14 96 -12 74 -8 -7 -18 -6 -31 4 -27 19 -55 18 -90 -6z m93 -18 c13 -25 -14 -130 -42 -159 -29 -32 -75 -31 -83 2 -8 33 13 119 38 150 24 30 72 34 87 7z"/>
        <path d="M613 850 c-26 -11 -57 -54 -51 -72 3 -8 12 0 21 18 17 32 35 44 67 44 27 0 29 -18 10 -100 -12 -50 -25 -80 -40 -92 -27 -22 -39 -16 -32 17 5 28 -17 35 -37 11 -30 -36 31 -71 78 -43 23 13 29 13 45 1 11 -8 30 -14 42 -14 31 0 84 47 84 73 0 19 -3 18 -20 -10 -37 -61 -90 -67 -90 -9 0 40 25 133 40 152 7 8 24 14 39 13 14 0 20 -3 14 -6 -7 -2 -13 -13 -13 -24 0 -23 35 -26 44 -4 16 42 -37 69 -79 41 -23 -15 -28 -15 -47 -1 -25 17 -42 18 -75 5z"/>
        <path d="M150 760 c0 -6 57 -10 150 -10 93 0 150 4 150 10 0 6 -57 10 -150 10 -93 0 -150 -4 -150 -10z"/>
        <path d="M240 580 l-25 -8 23 -7 c12 -4 22 -9 22 -12 0 -2 -13 -58 -30 -123 -36 -143 -36 -151 -7 -186 18 -20 32 -27 57 -26 93 2 164 147 104 213 -19 21 -64 25 -95 9 -10 -6 -19 -9 -19 -8 0 2 9 35 19 75 10 40 16 74 13 77 -7 8 -31 6 -62 -4z m121 -162 c26 -48 -33 -188 -80 -188 -41 0 -51 42 -30 126 18 72 85 109 110 62z"/>
    </g>
</svg>