<?xml version="1.0" encoding="UTF-8"?><svg xmlns="http://www.w3.org/2000/svg" xmlns:xlink="http://www.w3.org/1999/xlink" viewBox="0 0 66 408" width="43.362pt" height="268.05600000000004pt" version="1.2">
<defs>
<clipPath id="clip1">
  <path d="M 0 0.507812 L 65.40625 0.507812 L 65.40625 305 L 0 305 Z "/>
</clipPath>
<clipPath id="clip2">
  <path d="M 0 260 L 65.40625 260 L 65.40625 407.941406 L 0 407.941406 Z "/>
</clipPath>
</defs>
<g id="surface1">
<g clip-path="url(#clip1)" clip-rule="nonzero">
<path style="fill:none;stroke-width:2;stroke-linecap:butt;stroke-linejoin:miter;stroke:rgb(13.729858%,12.159729%,12.548828%);stroke-opacity:1;stroke-miterlimit:4;" d="M 1 136.5 L 1 377 M 11.332031 114.332031 L 1 136.5 M 64 377 L 64 136.5 M 1.175781 375 C 1.175781 392.394531 15.273438 406.492188 32.664062 406.492188 C 50.0625 406.492188 64.160156 392.394531 64.160156 375 M 63.679688 136.5 C 63.679688 127.890625 49.71875 120.910156 32.5 120.910156 C 15.28125 120.910156 1.320312 127.890625 1.320312 136.5 C 1.320312 145.109375 15.28125 152.089844 32.5 152.089844 C 49.71875 152.089844 63.679688 145.109375 63.679688 136.5 Z M 1.324219 136.5 L 63.679688 136.5 M 18.625 122.375 L 46.628906 150.378906 M 46.371094 122.878906 L 18.375 150.875 M 27.855469 208.988281 C 20.699219 211.1875 15.496094 217.847656 15.496094 225.726562 C 15.496094 235.390625 23.335938 243.230469 33 243.230469 C 42.664062 243.230469 50.503906 235.390625 50.503906 225.726562 C 50.503906 217.632812 45.011719 210.820312 37.550781 208.820312 M 27.800781 137 L 27.800781 209.148438 M 37.875 209.148438 L 37.875 137 M 28.1875 332.847656 C 21.03125 330.652344 15.828125 323.988281 15.828125 316.113281 C 15.828125 306.445312 23.667969 298.609375 33.332031 298.609375 C 43 298.609375 50.835938 306.445312 50.835938 316.113281 C 50.835938 324.207031 45.347656 331.015625 37.882812 333.019531 M 28.132812 407 L 28.132812 332.6875 M 38.207031 332.6875 L 38.207031 406.332031 " transform="matrix(1,0,0,-1,0,408)"/>
</g>
<path style="fill:none;stroke-width:6;stroke-linecap:butt;stroke-linejoin:miter;stroke:rgb(13.729858%,12.159729%,12.548828%);stroke-opacity:1;stroke-dasharray:3,6;stroke-miterlimit:4;" d="M 41 402.335938 L 41 333 M 40 207 L 40 137.664062 " transform="matrix(1,0,0,-1,0,408)"/>
<g clip-path="url(#clip2)" clip-rule="nonzero">
<path style="fill:none;stroke-width:2;stroke-linecap:butt;stroke-linejoin:miter;stroke:rgb(13.729858%,12.159729%,12.548828%);stroke-opacity:1;stroke-miterlimit:4;" d="M 54.167969 113.917969 L 64.5 136.082031 M 11.632812 1 L 11.632812 114.949219 M 54.699219 114.613281 L 54.699219 1 M 10.632812 1 L 55.699219 1 M 11 19 L 55 19 M 11.5 25 L 54 25 M 11 31 L 54.5 31 M 11 37 L 54.5 37 M 11.5 43 L 55 43 M 11 49 L 54 49 M 11 55 L 54.5 55 " transform="matrix(1,0,0,-1,0,408)"/>
</g>
</g>
</svg>