<?xml version="1.0" encoding="UTF-8"?><svg xmlns="http://www.w3.org/2000/svg" xmlns:xlink="http://www.w3.org/1999/xlink" viewBox="0 0 417 385" width="86.724pt" height="80.06892086330936pt" version="1.2">
<defs>
<clipPath id="clip1">
  <path d="M 0.0585938 0.5 L 416.5 0.5 L 416.5 384.941406 L 0.0585938 384.941406 Z "/>
</clipPath>
</defs>
<g id="surface1">
<g clip-path="url(#clip1)" clip-rule="nonzero">
<path style="fill:none;stroke-width:1.5;stroke-linecap:butt;stroke-linejoin:miter;stroke:rgb(13.729858%,12.159729%,12.548828%);stroke-opacity:1;stroke-miterlimit:4;" d="M 362.054688 281.523438 C 332.867188 307.601562 293.703125 326.222656 249.4375 333.441406 C 236.125 335.609375 222.351562 336.75 208.25 336.75 C 202.179688 336.75 196.167969 336.539062 190.226562 336.125 C 142.582031 332.804688 99.535156 316.449219 66.558594 291.484375 M 356.75 223.75 C 328.046875 259.636719 289.53125 285.265625 246 295.195312 C 232.910156 298.183594 219.367188 299.75 205.5 299.75 C 199.527344 299.75 193.617188 299.460938 187.773438 298.890625 C 140.917969 294.320312 96.199219 268.160156 63.773438 233.804688 M 295.902344 372.464844 C 287.65625 374.3125 276.796875 376.089844 261.039062 378.957031 C 243.757812 382.101562 225.875 383.75 207.566406 383.75 C 199.683594 383.75 191.878906 383.445312 184.164062 382.84375 C 122.304688 378.035156 63.261719 350.5 20.445312 314.335938 M 66.558594 291.484375 C 26.0625 260.824219 0.75 217.179688 0.75 168.75 C 0.75 75.964844 93.652344 0.75 208.25 0.75 C 322.851562 0.75 415.75 75.964844 415.75 168.75 C 415.75 212.152344 395.421875 251.710938 362.054688 281.523438 M 35.230469 258.75 L 85.691406 217.75 " transform="matrix(1,0,0,-1,0,385)"/>
</g>
</g>
</svg>