<?xml version="1.0" encoding="UTF-8"?><svg xmlns="http://www.w3.org/2000/svg" xmlns:xlink="http://www.w3.org/1999/xlink" viewBox="0 0 127 127" width="86.724pt" height="86.724pt" version="1.2">
<defs>
<clipPath id="clip1">
  <path d="M 0 0.605469 L 126.394531 0.605469 L 126.394531 126.941406 L 0 126.941406 Z "/>
</clipPath>
<clipPath id="clip2">
  <path d="M 0 0.605469 L 126 0.605469 L 126 126.941406 L 0 126.941406 Z "/>
</clipPath>
</defs>
<g id="surface1">
<g clip-path="url(#clip1)" clip-rule="nonzero">
<path style="fill:none;stroke-width:2;stroke-linecap:round;stroke-linejoin:round;stroke:rgb(0%,0%,0%);stroke-opacity:1;stroke-miterlimit:4;" d="M 125.355469 69.726562 C 124.871094 73.703125 124.097656 77.621094 122.96875 81.46875 M 118.136719 93.019531 C 116.167969 96.511719 113.929688 99.820312 111.425781 102.953125 M 102.519531 111.746094 C 99.386719 114.242188 96.046875 116.449219 92.535156 118.371094 M 80.949219 123.101562 C 77.105469 124.226562 73.167969 124.945312 69.191406 125.394531 M 56.671875 125.355469 C 52.691406 124.871094 48.769531 124.097656 44.925781 122.96875 M 33.375 118.136719 C 29.886719 116.164062 26.574219 113.929688 23.441406 111.425781 M 14.648438 102.519531 C 12.152344 99.386719 9.945312 96.046875 8.023438 92.535156 M 3.292969 80.949219 C 2.167969 77.105469 1.449219 73.167969 1 69.191406 M 1.039062 56.671875 C 1.523438 52.691406 2.296875 48.773438 3.425781 44.925781 M 8.257812 33.375 C 10.230469 29.886719 12.464844 26.574219 14.96875 23.441406 M 23.875 14.644531 C 27.007812 12.152344 30.347656 9.945312 33.859375 8.023438 M 45.445312 3.292969 C 49.289062 2.167969 53.226562 1.449219 57.203125 1 M 69.726562 1.039062 C 73.703125 1.523438 77.621094 2.296875 81.46875 3.425781 M 93.019531 8.257812 C 96.511719 10.226562 99.820312 12.464844 102.953125 14.96875 M 111.75 23.875 C 114.242188 27.007812 116.449219 30.347656 118.371094 33.859375 M 123.101562 45.445312 C 124.226562 49.289062 124.945312 53.226562 125.394531 57.203125 " transform="matrix(1,0,0,-1,0,127)"/>
</g>
<g clip-path="url(#clip2)" clip-rule="nonzero">
<path style="fill:none;stroke-width:2;stroke-linecap:butt;stroke-linejoin:miter;stroke:rgb(13.729858%,12.159729%,12.548828%);stroke-opacity:1;stroke-miterlimit:4;" d="M 114.449219 83.199219 C 114.449219 61.796875 97.097656 44.449219 75.695312 44.449219 C 54.296875 44.449219 36.945312 61.796875 36.945312 83.199219 C 36.945312 104.597656 54.296875 121.949219 75.695312 121.949219 C 97.097656 121.949219 114.449219 104.597656 114.449219 83.199219 Z M 109.949219 41.699219 C 109.949219 20.296875 92.597656 2.945312 71.195312 2.945312 C 49.796875 2.945312 32.445312 20.296875 32.445312 41.699219 C 32.445312 63.097656 49.796875 80.449219 71.195312 80.449219 C 92.597656 80.449219 109.949219 63.097656 109.949219 41.699219 Z M 78.945312 68.699219 C 78.945312 47.296875 61.597656 29.949219 40.195312 29.949219 C 18.796875 29.949219 1.445312 47.296875 1.445312 68.699219 C 1.445312 90.097656 18.796875 107.449219 40.195312 107.449219 C 61.597656 107.449219 78.945312 90.097656 78.945312 68.699219 Z " transform="matrix(1,0,0,-1,0,127)"/>
</g>
</g>
</svg>