<?xml version="1.0" encoding="UTF-8"?><svg xmlns="http://www.w3.org/2000/svg" xmlns:xlink="http://www.w3.org/1999/xlink" viewBox="0 0 130 131" width="86.724pt" height="87.39110769230768pt" version="1.2">
<defs>
<clipPath id="clip1">
  <path d="M 0.0585938 0.597656 L 129.261719 0.597656 L 129.261719 130.941406 L 0.0585938 130.941406 Z "/>
</clipPath>
</defs>
<g id="surface1">
<g clip-path="url(#clip1)" clip-rule="nonzero">
<path style="fill:none;stroke-width:2;stroke-linecap:butt;stroke-linejoin:miter;stroke:rgb(13.729858%,12.159729%,12.548828%);stroke-opacity:1;stroke-miterlimit:4;" d="M 126 64.394531 C 126 98.914062 98.019531 126.894531 63.5 126.894531 C 28.980469 126.894531 1 98.914062 1 64.394531 C 1 29.878906 28.980469 1.894531 63.5 1.894531 C 98.019531 1.894531 126 29.878906 126 64.394531 Z M 103 104.894531 C 103 97.164062 96.957031 90.894531 89.5 90.894531 C 82.042969 90.894531 76 97.164062 76 104.894531 C 76 112.628906 82.042969 118.894531 89.5 118.894531 C 96.957031 118.894531 103 112.628906 103 104.894531 Z M 28.5 71.894531 C 28.5 64.164062 22.457031 57.894531 15 57.894531 C 7.542969 57.894531 1.5 64.164062 1.5 71.894531 C 1.5 79.628906 7.542969 85.894531 15 85.894531 C 22.457031 85.894531 28.5 79.628906 28.5 71.894531 Z M 92.5 18.894531 C 92.5 11.160156 86.457031 4.894531 79 4.894531 C 71.542969 4.894531 65.5 11.160156 65.5 18.894531 C 65.5 26.628906 71.542969 32.894531 79 32.894531 C 86.457031 32.894531 92.5 26.628906 92.5 18.894531 Z M 7.144531 100.894531 L 14.5 96.109375 M 39.207031 126.394531 L 41.574219 120.394531 M 62.652344 130.394531 L 62.605469 123.394531 M 0.332031 47.464844 L 7.085938 49.257812 M 8.125 27.058594 L 14.882812 31.714844 M 25.703125 9.394531 L 29.90625 15.667969 M 45.9375 0.257812 L 47.964844 7.894531 M 127 48.226562 L 118.652344 50.394531 M 22.285156 116.476562 L 26.386719 111.3125 M 129 81.324219 L 121.886719 79.394531 M 115.835938 106.785156 L 108.5 101.039062 M 115.5 22.394531 L 108.117188 28.394531 " transform="matrix(1,0,0,-1,0,131)"/>
</g>
</g>
</svg>