<?xml version="1.0" encoding="UTF-8"?><svg xmlns="http://www.w3.org/2000/svg" xmlns:xlink="http://www.w3.org/1999/xlink" viewBox="0 0 199 216" width="216.81pt" height="235.33145728643214pt" version="1.2">
<defs>
<clipPath id="clip1">
  <path d="M 0 0.722656 L 198.042969 0.722656 L 198.042969 215.941406 L 0 215.941406 Z "/>
</clipPath>
</defs>
<g id="surface1">
<path style=" stroke:none;fill-rule:nonzero;fill:rgb(100%,100%,100%);fill-opacity:1;" d="M 131.480469 47.824219 C 91.355469 20.679688 37.714844 32.335938 11.675781 73.863281 C -9.160156 107.082031 -0.0234375 151.621094 32.078125 173.335938 C 57.757812 190.710938 92.089844 183.25 108.753906 156.671875 C 124.359375 131.785156 113.722656 105.203125 95.695312 93.007812 C 79.261719 81.890625 57.289062 86.664062 46.621094 103.675781 C 38.089844 117.28125 41.832031 135.523438 54.980469 144.417969 C 65.5 151.535156 79.558594 148.480469 86.386719 137.59375 C 91.847656 128.886719 89.453125 117.210938 81.039062 111.515625 C 74.308594 106.960938 65.308594 108.917969 60.9375 115.886719 C 57.441406 121.457031 58.976562 129.929688 64.359375 133.574219 "/>
<g clip-path="url(#clip1)" clip-rule="nonzero">
<path style="fill:none;stroke-width:1;stroke-linecap:butt;stroke-linejoin:miter;stroke:rgb(13.729858%,12.159729%,12.548828%);stroke-opacity:1;stroke-miterlimit:4;" d="M 131.480469 168.175781 C 91.355469 195.320312 37.714844 183.664062 11.675781 142.136719 C -9.160156 108.917969 -0.0234375 64.378906 32.078125 42.664062 C 57.757812 25.289062 92.089844 32.75 108.753906 59.328125 C 124.359375 84.214844 113.722656 110.796875 95.695312 122.992188 C 79.261719 134.109375 57.289062 129.335938 46.621094 112.324219 C 38.089844 98.71875 41.832031 80.476562 54.980469 71.582031 C 65.5 64.464844 79.558594 67.519531 86.386719 78.40625 C 91.847656 87.113281 89.453125 98.789062 81.039062 104.484375 C 74.308594 109.039062 65.308594 107.082031 60.9375 100.113281 C 57.441406 94.542969 58.976562 86.070312 64.359375 82.425781 M 60.035156 87.789062 C 60.039062 87.851562 61.335938 71.789062 144.28125 59.597656 M 172.316406 203.257812 C 229.335938 112.105469 177.003906 53.457031 139.851562 60.21875 M 159.484375 214.570312 C 162.5 214.003906 165.300781 213.28125 167.171875 210.546875 L 173.265625 201.625 M 166.25 182.824219 L 148.164062 186.199219 C 144.425781 191.671875 145.832031 208.136719 151.304688 211.875 L 152.492188 212.6875 C 155.230469 214.554688 158.464844 215.140625 161.484375 214.570312 M 166.25 182.824219 L 170.863281 151.828125 M 170.863281 151.828125 L 179.632812 151.828125 M 179.632812 151.828125 L 157.703125 0.0703125 " transform="matrix(1,0,0,-1,0,216)"/>
</g>
</g>
</svg>