<?xml version="1.0" encoding="UTF-8"?><svg xmlns="http://www.w3.org/2000/svg" xmlns:xlink="http://www.w3.org/1999/xlink" viewBox="0 0 448.79364 450.0724" width="130.086pt" height="130.45665759969327pt" version="1.2">
<defs>
<clipPath id="clip1">
  <path d="M 0.359375 347 L 150 347 L 150 449.148438 L 0.359375 449.148438 Z "/>
</clipPath>
<clipPath id="clip2">
  <path d="M 0.359375 346 L 292 346 L 292 449.148438 L 0.359375 449.148438 Z "/>
</clipPath>
<clipPath id="clip3">
  <path d="M 0.359375 346 L 448.230469 346 L 448.230469 449.148438 L 0.359375 449.148438 Z "/>
</clipPath>
</defs>
<g id="surface1">
<path style="fill:none;stroke-width:2;stroke-linecap:butt;stroke-linejoin:miter;stroke:rgb(13.729858%,12.159729%,12.548828%);stroke-opacity:1;stroke-miterlimit:4;" d="M 387.838631 -582.633905 C 400.939796 -582.496905 411.496665 -562.921486 411.422294 -538.907251 " transform="matrix(0.997943,0,0,0.997943,-97.728439,720.767597)"/>
<path style="fill:none;stroke-width:2;stroke-linecap:butt;stroke-linejoin:miter;stroke:rgb(13.729858%,12.159729%,12.548828%);stroke-opacity:1;stroke-miterlimit:4;" d="M 363.984882 -539.404367 C 364.059254 -563.418603 374.741381 -582.770906 387.838631 -582.633905 " transform="matrix(0.997943,0,0,0.997943,-97.728439,720.767597)"/>
<path style="fill:none;stroke-width:2;stroke-linecap:butt;stroke-linejoin:miter;stroke:rgb(13.729858%,12.159729%,12.548828%);stroke-opacity:1;stroke-miterlimit:4;" d="M 387.862117 -587.28018 C 371.813484 -587.452409 358.747548 -569.274397 358.641862 -534.926407 " transform="matrix(0.997943,0,0,0.997943,-97.728439,720.767597)"/>
<path style="fill:none;stroke-width:2;stroke-linecap:butt;stroke-linejoin:miter;stroke:rgb(13.729858%,12.159729%,12.548828%);stroke-opacity:1;stroke-miterlimit:4;" d="M 416.710514 -537.545074 C 415.798482 -567.775219 403.397977 -587.119694 387.862117 -587.28018 " transform="matrix(0.997943,0,0,0.997943,-97.728439,720.767597)"/>
<path style="fill:none;stroke-width:2;stroke-linecap:butt;stroke-linejoin:miter;stroke:rgb(13.729858%,12.159729%,12.548828%);stroke-opacity:1;stroke-miterlimit:4;" d="M 411.422294 -538.907251 C 411.422294 -538.907251 411.304865 -502.410311 411.304865 -502.410311 " transform="matrix(0.997943,0,0,0.997943,-97.728439,720.767597)"/>
<path style="fill:none;stroke-width:2;stroke-linecap:butt;stroke-linejoin:miter;stroke:rgb(13.729858%,12.159729%,12.548828%);stroke-opacity:1;stroke-miterlimit:4;" d="M 363.984882 -539.404367 C 363.984882 -539.404367 363.335108 -330.760392 363.335108 -330.760392 " transform="matrix(0.997943,0,0,0.997943,-97.728439,720.767597)"/>
<path style="fill:none;stroke-width:2;stroke-linecap:butt;stroke-linejoin:miter;stroke:rgb(13.729858%,12.159729%,12.548828%);stroke-opacity:1;stroke-miterlimit:4;" d="M 416.710514 -538.531478 C 416.710514 -532.875314 416.636142 -513.280324 416.612656 -502.500339 " transform="matrix(0.997943,0,0,0.997943,-97.728439,720.767597)"/>
<path style="fill:none;stroke-width:2;stroke-linecap:butt;stroke-linejoin:miter;stroke:rgb(13.729858%,12.159729%,12.548828%);stroke-opacity:1;stroke-miterlimit:4;" d="M 358.645776 -536.903129 C 358.645776 -536.903129 357.996002 -330.505963 357.996002 -330.505963 " transform="matrix(0.997943,0,0,0.997943,-97.728439,720.767597)"/>
<path style="fill:none;stroke-width:2;stroke-linecap:butt;stroke-linejoin:miter;stroke:rgb(13.729858%,12.159729%,12.548828%);stroke-opacity:1;stroke-miterlimit:4;" d="M 480.846332 -576.347538 C 480.846332 -576.347538 480.846332 -479.014535 480.846332 -479.014535 C 480.846332 -472.763396 476.865488 -467.694377 473.957163 -466.692316 C 473.957163 -466.692316 358.042974 -466.692316 358.042974 -466.692316 C 351.130319 -467.694377 347.149475 -472.763396 347.149475 -479.014535 C 347.149475 -479.014535 347.149475 -576.347538 347.149475 -576.347538 " transform="matrix(0.997943,0,0,0.997943,-97.728439,720.767597)"/>
<g clip-path="url(#clip1)" clip-rule="nonzero">
<path style="fill:none;stroke-width:2;stroke-linecap:butt;stroke-linejoin:miter;stroke:rgb(13.729858%,12.159729%,12.548828%);stroke-opacity:1;stroke-miterlimit:4;" d="M 236.280819 -363.21386 C 236.280819 -363.21386 236.280819 -288.074942 236.280819 -288.074942 C 236.280819 -282.246548 232.30389 -278.336162 229.39165 -277.565045 C 229.39165 -277.565045 113.47746 -277.565045 113.47746 -277.565045 C 106.56872 -278.336162 102.587876 -282.246548 102.587876 -287.072881 C 102.587876 -287.072881 102.587876 -362.215714 102.587876 -362.215714 " transform="matrix(0.997943,0,0,0.997943,-97.728439,720.767597)"/>
</g>
<g clip-path="url(#clip2)" clip-rule="nonzero">
<path style="fill:none;stroke-width:2;stroke-linecap:butt;stroke-linejoin:miter;stroke:rgb(13.729858%,12.159729%,12.548828%);stroke-opacity:1;stroke-miterlimit:4;" d="M 378.66351 -363.671833 C 378.66351 -363.671833 376.663303 -288.529001 376.663303 -288.529001 C 376.663303 -284.372014 370.474793 -277.792074 364.489827 -277.020957 C 364.489827 -277.020957 126.065852 -277.020957 126.065852 -277.020957 C 111.849111 -277.792074 103.660394 -281.702461 103.660394 -286.528793 C 103.660394 -286.528793 103.660394 -361.671626 103.660394 -361.671626 " transform="matrix(0.997943,0,0,0.997943,-97.728439,720.767597)"/>
</g>
<g clip-path="url(#clip3)" clip-rule="nonzero">
<path style="fill:none;stroke-width:2;stroke-linecap:butt;stroke-linejoin:miter;stroke:rgb(13.729858%,12.159729%,12.548828%);stroke-opacity:1;stroke-miterlimit:4;" d="M 542.234312 -363.585719 C 542.234312 -363.585719 542.234312 -284.4777 542.234312 -284.4777 C 542.234312 -276.590384 540.08536 -276.543412 519.656625 -276.844813 C 519.656625 -276.844813 139.875505 -277.846874 139.875505 -277.846874 C 117.235189 -275.627466 104.188825 -279.592652 103.190678 -285.479761 C 103.190678 -285.479761 103.190678 -361.585511 103.190678 -361.585511 " transform="matrix(0.997943,0,0,0.997943,-97.728439,720.767597)"/>
</g>
<path style="fill:none;stroke-width:2;stroke-linecap:butt;stroke-linejoin:miter;stroke:rgb(13.729858%,12.159729%,12.548828%);stroke-opacity:1;stroke-miterlimit:4;" d="M 522.150034 -503.521972 C 522.150034 -503.521972 522.150034 -398.395596 522.150034 -398.395596 C 522.150034 -391.643427 516.489955 -386.171234 511.503136 -385.173088 C 511.503136 -385.173088 346.581901 -385.173088 346.581901 -385.173088 C 337.598581 -386.171234 331.934587 -391.643427 331.934587 -398.395596 C 331.934587 -398.395596 331.934587 -503.521972 331.934587 -503.521972 " transform="matrix(0.997943,0,0,0.997943,-97.728439,720.767597)"/>
<path style="fill:none;stroke-width:2;stroke-linecap:butt;stroke-linejoin:miter;stroke:rgb(13.729858%,12.159729%,12.548828%);stroke-opacity:1;stroke-miterlimit:4;" d="M 357.651544 -691.670668 C 357.651544 -673.398712 370.302564 -663.413331 385.912795 -663.413331 C 401.519113 -663.413331 414.174047 -676.064351 414.174047 -691.670668 C 414.174047 -707.280899 401.519113 -719.93192 385.912795 -719.93192 C 370.302564 -719.93192 357.651544 -707.280899 357.651544 -691.670668 Z " transform="matrix(0.997943,0,0,0.997943,-97.728439,720.767597)"/>
<path style="fill:none;stroke-width:2;stroke-linecap:butt;stroke-linejoin:miter;stroke:rgb(13.729858%,12.159729%,12.548828%);stroke-opacity:1;stroke-miterlimit:4;" d="M 134.739942 -378.542262 C 134.739942 -360.266392 147.390963 -350.28101 162.99728 -350.28101 C 178.603597 -350.28101 191.258531 -362.932031 191.258531 -378.542262 C 191.258531 -394.148579 178.603597 -406.803514 162.99728 -406.803514 C 147.390963 -406.803514 134.739942 -394.148579 134.739942 -378.542262 Z " transform="matrix(0.997943,0,0,0.997943,-97.728439,720.767597)"/>
<path style="fill:none;stroke-width:2;stroke-linecap:butt;stroke-linejoin:miter;stroke:rgb(13.729858%,12.159729%,12.548828%);stroke-opacity:1;stroke-miterlimit:4;" d="M 386.910942 -690.672521 C 386.910942 -690.073633 386.425569 -689.584346 385.826681 -689.584346 C 385.223878 -689.584346 384.738505 -690.073633 384.738505 -690.672521 C 384.738505 -691.271409 385.223878 -691.760697 385.826681 -691.760697 C 386.425569 -691.760697 386.910942 -691.271409 386.910942 -690.672521 Z " transform="matrix(0.997943,0,0,0.997943,-97.728439,720.767597)"/>
<path style="fill:none;stroke-width:2;stroke-linecap:butt;stroke-linejoin:miter;stroke:rgb(13.729858%,12.159729%,12.548828%);stroke-opacity:1;stroke-miterlimit:4;" d="M 164.085455 -376.369825 C 164.085455 -375.767023 163.600082 -375.28165 162.99728 -375.28165 C 162.398392 -375.28165 161.913018 -375.767023 161.913018 -376.369825 C 161.913018 -376.968713 162.398392 -377.454086 162.99728 -377.454086 C 163.600082 -377.454086 164.085455 -376.968713 164.085455 -376.369825 Z " transform="matrix(0.997943,0,0,0.997943,-97.728439,720.767597)"/>
<path style="fill:none;stroke-width:2;stroke-linecap:butt;stroke-linejoin:miter;stroke:rgb(13.729858%,12.159729%,12.548828%);stroke-opacity:1;stroke-miterlimit:4;" d="M 138.736443 -394.583067 C 138.736443 -394.583067 360.477669 -704.36866 360.477669 -704.36866 " transform="matrix(0.997943,0,0,0.997943,-97.728439,720.767597)"/>
<path style="fill:none;stroke-width:2;stroke-linecap:butt;stroke-linejoin:miter;stroke:rgb(13.729858%,12.159729%,12.548828%);stroke-opacity:1;stroke-miterlimit:4;" d="M 185.739367 -362.325314 C 185.739367 -362.325314 410.737291 -677.543956 410.737291 -677.543956 " transform="matrix(0.997943,0,0,0.997943,-97.728439,720.767597)"/>
<path style="fill:none;stroke-width:2;stroke-linecap:butt;stroke-linejoin:miter;stroke:rgb(13.729858%,12.159729%,12.548828%);stroke-opacity:1;stroke-miterlimit:4;" d="M 154.303618 -443.500084 C 152.58524 -418.85956 146.498502 -402.145496 140.090792 -401.585751 C 133.084193 -400.97512 126.050195 -415.872949 121.45872 -438.462379 " transform="matrix(0.997943,0,0,0.997943,-97.728439,720.767597)"/>
</g>
</svg>