<?xml version="1.0" encoding="UTF-8"?><svg xmlns="http://www.w3.org/2000/svg" xmlns:xlink="http://www.w3.org/1999/xlink" viewBox="0 0 54 366" width="14.30946pt" height="96.98634pt" version="1.2">
<defs>
<clipPath id="clip1">
  <path d="M 0 257 L 53.136719 257 L 53.136719 365.941406 L 0 365.941406 Z "/>
</clipPath>
<clipPath id="clip2">
  <path d="M 0 0.921875 L 53.136719 0.921875 L 53.136719 281 L 0 281 Z "/>
</clipPath>
</defs>
<g id="surface1">
<path style=" stroke:none;fill-rule:nonzero;fill:rgb(100%,100%,100%);fill-opacity:1;" d="M 52.136719 269.476562 C 50.175781 331.441406 36.925781 365 26.324219 365 C 15.703125 365 1.722656 328.179688 1.152344 269.191406 "/>
<g clip-path="url(#clip1)" clip-rule="nonzero">
<path style="fill:none;stroke-width:2;stroke-linecap:butt;stroke-linejoin:miter;stroke:rgb(13.729858%,12.159729%,12.548828%);stroke-opacity:1;stroke-miterlimit:4;" d="M 52.136719 96.523438 C 50.175781 34.558594 36.925781 1 26.324219 1 C 15.703125 1 1.722656 37.820312 1.152344 96.808594 " transform="matrix(1,0,0,-1,0,366)"/>
</g>
<path style=" stroke:none;fill-rule:nonzero;fill:rgb(100%,100%,100%);fill-opacity:1;" d="M 51.453125 96.804688 C 50.175781 39.050781 35.714844 -4.429688 24.066406 2.683594 C 14.226562 8.691406 3.167969 41.222656 1.171875 99.777344 "/>
<g clip-path="url(#clip2)" clip-rule="nonzero">
<path style="fill:none;stroke-width:2;stroke-linecap:butt;stroke-linejoin:miter;stroke:rgb(13.729858%,12.159729%,12.548828%);stroke-opacity:1;stroke-miterlimit:4;" d="M 51.453125 269.195312 C 50.175781 326.949219 35.714844 370.429688 24.066406 363.316406 C 14.226562 357.308594 3.167969 324.777344 1.171875 266.222656 M 1.171875 266.222656 L 1 96.515625 M 51.734375 269.484375 L 52.136719 96.523438 M 1 211.734375 L 51.621094 211.734375 M 0.277344 150.863281 L 50.898438 150.863281 " transform="matrix(1,0,0,-1,0,366)"/>
</g>
</g>
</svg>