<?xml version="1.0" encoding="UTF-8"?><svg xmlns="http://www.w3.org/2000/svg" xmlns:xlink="http://www.w3.org/1999/xlink" viewBox="0 0 372 339" width="173.448pt" height="158.06148387096775pt" version="1.2">
<defs>
<clipPath id="clip1">
  <path d="M 0 0.0507812 L 371.890625 0.0507812 L 371.890625 339 L 0 339 Z "/>
</clipPath>
</defs>
<g id="surface1">
<path style=" stroke:none;fill-rule:nonzero;fill:rgb(100%,100%,100%);fill-opacity:1;" d="M 1 107.355469 L 176.269531 107.355469 L 176.269531 282.625 L 1 282.625 Z "/>
<path style="fill:none;stroke-width:2;stroke-linecap:butt;stroke-linejoin:miter;stroke:rgb(13.729858%,12.159729%,12.548828%);stroke-opacity:1;stroke-miterlimit:4;" d="M 1 231.644531 L 176.269531 231.644531 L 176.269531 56.375 L 1 56.375 Z M 46.699219 176.269531 L 221.96875 176.269531 L 221.96875 1 L 46.699219 1 Z " transform="matrix(1,0,0,-1,0,339)"/>
<path style="fill-rule:nonzero;fill:rgb(100%,100%,100%);fill-opacity:1;stroke-width:2;stroke-linecap:butt;stroke-linejoin:miter;stroke:rgb(13.729858%,12.159729%,12.548828%);stroke-opacity:1;stroke-miterlimit:4;" d="M 176.269531 231.644531 L 221.96875 176.269531 " transform="matrix(1,0,0,-1,0,339)"/>
<path style=" stroke:none;fill-rule:nonzero;fill:rgb(100%,100%,100%);fill-opacity:1;" d="M 1 282.625 L 46.699219 338 "/>
<g clip-path="url(#clip1)" clip-rule="nonzero">
<path style="fill:none;stroke-width:2;stroke-linecap:butt;stroke-linejoin:miter;stroke:rgb(13.729858%,12.159729%,12.548828%);stroke-opacity:1;stroke-miterlimit:4;" d="M 1 56.375 L 46.699219 1 M 352.613281 194.816406 C 352.613281 115.984375 288.703125 52.074219 209.871094 52.074219 C 131.035156 52.074219 67.128906 115.984375 67.128906 194.816406 C 67.128906 273.652344 131.035156 337.558594 209.871094 337.558594 C 288.703125 337.558594 352.613281 273.652344 352.613281 194.816406 Z M 370.890625 173.3125 C 370.890625 94.476562 306.984375 30.570312 228.152344 30.570312 C 149.316406 30.570312 85.40625 94.476562 85.40625 173.3125 C 85.40625 252.144531 149.316406 316.054688 228.152344 316.054688 C 306.984375 316.054688 370.890625 252.144531 370.890625 173.3125 Z M 81.644531 130.570312 L 95.621094 121.96875 M 73.042969 153.148438 L 88.632812 144.011719 M 67.664062 176.804688 L 85.796875 168.203125 M 67.664062 198.3125 L 85.945312 189.710938 M 69.816406 220.890625 L 91.320312 212.289062 M 74.117188 240.246094 L 98.847656 231.644531 M 82.871094 260.675781 L 108.679688 249.925781 M 93.472656 278.957031 L 120.355469 267.128906 M 108.527344 296.160156 L 136.484375 282.183594 M 127.882812 312.289062 L 154.761719 296.160156 M 151.539062 326.269531 L 181.644531 309.0625 M 182.71875 334.871094 L 214.976562 315.515625 M 217.128906 338.097656 L 259.066406 312.289062 M 259.066406 328.417969 L 307.453125 291.933594 M 342.933594 244.546875 L 360.066406 228.417969 M 352.613281 209.0625 L 368.742188 195.085938 M 352.613281 180.03125 L 370.890625 162.828125 M 346.160156 154.226562 L 366.589844 134.871094 M 337.558594 129.492188 L 355.839844 109.0625 M 323.582031 109.0625 L 341.859375 85.40625 M 305.300781 88.632812 L 321.429688 67.128906 M 285.945312 74.65625 L 301 49.925781 M 265.515625 61.753906 L 277.34375 38.097656 M 241.859375 56.375 L 250.460938 32.570312 M 197.773438 53 L 195.625 33.796875 M 145.085938 55.300781 L 154.761719 63.902344 M 132.183594 75.730469 L 127.882812 71.429688 M 221.96875 1 L 176.269531 56.375 L 168.742188 44.546875 " transform="matrix(1,0,0,-1,0,339)"/>
</g>
</g>
</svg>