<?xml version="1.0" encoding="UTF-8"?><svg xmlns="http://www.w3.org/2000/svg" xmlns:xlink="http://www.w3.org/1999/xlink" viewBox="0 0 119 207" width="433.6pt" height="754.2453781512606pt" version="1.2">
<defs>
<clipPath id="clip1">
  <path d="M 0 0.945312 L 118.535156 0.945312 L 118.535156 207 L 0 207 Z "/>
</clipPath>
</defs>
<g id="surface1">
<path style=" stroke:none;fill-rule:nonzero;fill:rgb(100%,100%,100%);fill-opacity:1;" d="M 115.5625 2.289062 C 123.828125 6.863281 105.324219 56.097656 74.230469 112.257812 C 43.140625 168.417969 11.234375 210.234375 2.96875 205.65625 C -5.296875 201.082031 13.210938 151.847656 44.300781 95.6875 C 75.394531 39.527344 107.296875 -2.285156 115.5625 2.289062 "/>
<g clip-path="url(#clip1)" clip-rule="nonzero">
<path style="fill:none;stroke-width:2;stroke-linecap:butt;stroke-linejoin:miter;stroke:rgb(13.729858%,12.159729%,12.548828%);stroke-opacity:1;stroke-miterlimit:4;" d="M 115.5625 204.710938 C 123.828125 200.136719 105.324219 150.902344 74.230469 94.742188 C 43.140625 38.582031 11.234375 -3.234375 2.96875 1.34375 C -5.296875 5.917969 13.210938 55.152344 44.300781 111.3125 C 75.394531 167.472656 107.296875 209.285156 115.5625 204.710938 Z " transform="matrix(1,0,0,-1,0,207)"/>
</g>
</g>
</svg>