<?xml version="1.0" encoding="UTF-8"?><svg xmlns="http://www.w3.org/2000/svg" xmlns:xlink="http://www.w3.org/1999/xlink" viewBox="0 0 572 64" width="303.534pt" height="33.96184615384615pt" version="1.2">
<defs>
<clipPath id="clip1">
  <path d="M 59 0.0390625 L 278 0.0390625 L 278 63 L 59 63 Z "/>
</clipPath>
<clipPath id="clip2">
  <path d="M 58 0.0390625 L 279 0.0390625 L 279 64 L 58 64 Z "/>
</clipPath>
<clipPath id="clip3">
  <path d="M 352 0.0390625 L 571 0.0390625 L 571 63 L 352 63 Z "/>
</clipPath>
<clipPath id="clip4">
  <path d="M 351 0.0390625 L 571.144531 0.0390625 L 571.144531 64 L 351 64 Z "/>
</clipPath>
<clipPath id="clip5">
  <path d="M 0 21 L 43 21 L 43 64 L 0 64 Z "/>
</clipPath>
<clipPath id="clip6">
  <path d="M 42.417969 42.417969 C 42.417969 53.921875 33.089844 63.25 21.585938 63.25 C 10.078125 63.25 0.75 53.921875 0.75 42.417969 C 0.75 30.910156 10.078125 21.582031 21.585938 21.582031 C 33.089844 21.582031 42.417969 30.910156 42.417969 42.417969 "/>
</clipPath>
<linearGradient id="linear0" gradientUnits="userSpaceOnUse" x1="0" y1="0" x2="1.00001" y2="0" gradientTransform="matrix(41.6666,0,0,41.6666,0.75,42.4165)">
<stop offset="0" style="stop-color:rgb(100%,100%,100%);stop-opacity:1;"/>
<stop offset="0.00390625" style="stop-color:rgb(99.667358%,99.661255%,99.662781%);stop-opacity:1;"/>
<stop offset="0.0078125" style="stop-color:rgb(99.334717%,99.32251%,99.325562%);stop-opacity:1;"/>
<stop offset="0.0117188" style="stop-color:rgb(99.002075%,98.983765%,98.988342%);stop-opacity:1;"/>
<stop offset="0.015625" style="stop-color:rgb(98.667908%,98.643494%,98.649597%);stop-opacity:1;"/>
<stop offset="0.0195312" style="stop-color:rgb(98.335266%,98.304749%,98.312378%);stop-opacity:1;"/>
<stop offset="0.0234375" style="stop-color:rgb(98.002625%,97.966003%,97.975159%);stop-opacity:1;"/>
<stop offset="0.0273438" style="stop-color:rgb(97.669983%,97.627258%,97.637939%);stop-opacity:1;"/>
<stop offset="0.03125" style="stop-color:rgb(97.335815%,97.286987%,97.299194%);stop-opacity:1;"/>
<stop offset="0.0351562" style="stop-color:rgb(97.003174%,96.948242%,96.961975%);stop-opacity:1;"/>
<stop offset="0.0390625" style="stop-color:rgb(96.670532%,96.609497%,96.624756%);stop-opacity:1;"/>
<stop offset="0.0429688" style="stop-color:rgb(96.336365%,96.270752%,96.287537%);stop-opacity:1;"/>
<stop offset="0.046875" style="stop-color:rgb(96.003723%,95.932007%,95.948792%);stop-opacity:1;"/>
<stop offset="0.0507813" style="stop-color:rgb(95.671082%,95.591736%,95.611572%);stop-opacity:1;"/>
<stop offset="0.0546875" style="stop-color:rgb(95.33844%,95.252991%,95.274353%);stop-opacity:1;"/>
<stop offset="0.0585938" style="stop-color:rgb(95.004272%,94.914246%,94.937134%);stop-opacity:1;"/>
<stop offset="0.0625" style="stop-color:rgb(94.671631%,94.5755%,94.598389%);stop-opacity:1;"/>
<stop offset="0.0664062" style="stop-color:rgb(94.338989%,94.235229%,94.261169%);stop-opacity:1;"/>
<stop offset="0.0703125" style="stop-color:rgb(94.006348%,93.896484%,93.92395%);stop-opacity:1;"/>
<stop offset="0.0742188" style="stop-color:rgb(93.67218%,93.557739%,93.586731%);stop-opacity:1;"/>
<stop offset="0.078125" style="stop-color:rgb(93.339539%,93.218994%,93.247986%);stop-opacity:1;"/>
<stop offset="0.0820312" style="stop-color:rgb(93.006897%,92.878723%,92.910767%);stop-opacity:1;"/>
<stop offset="0.0859375" style="stop-color:rgb(92.674255%,92.539978%,92.573547%);stop-opacity:1;"/>
<stop offset="0.0898438" style="stop-color:rgb(92.340088%,92.201233%,92.236328%);stop-opacity:1;"/>
<stop offset="0.09375" style="stop-color:rgb(92.007446%,91.862488%,91.897583%);stop-opacity:1;"/>
<stop offset="0.0976563" style="stop-color:rgb(91.674805%,91.522217%,91.560364%);stop-opacity:1;"/>
<stop offset="0.101563" style="stop-color:rgb(91.342163%,91.183472%,91.223145%);stop-opacity:1;"/>
<stop offset="0.105469" style="stop-color:rgb(91.007996%,90.844727%,90.885925%);stop-opacity:1;"/>
<stop offset="0.109375" style="stop-color:rgb(90.675354%,90.505981%,90.54718%);stop-opacity:1;"/>
<stop offset="0.113281" style="stop-color:rgb(90.342712%,90.167236%,90.209961%);stop-opacity:1;"/>
<stop offset="0.117188" style="stop-color:rgb(90.008545%,89.826965%,89.872742%);stop-opacity:1;"/>
<stop offset="0.121094" style="stop-color:rgb(89.675903%,89.48822%,89.535522%);stop-opacity:1;"/>
<stop offset="0.125" style="stop-color:rgb(89.343262%,89.149475%,89.196777%);stop-opacity:1;"/>
<stop offset="0.128906" style="stop-color:rgb(89.01062%,88.81073%,88.859558%);stop-opacity:1;"/>
<stop offset="0.132812" style="stop-color:rgb(88.676453%,88.470459%,88.522339%);stop-opacity:1;"/>
<stop offset="0.136719" style="stop-color:rgb(88.343811%,88.131714%,88.18512%);stop-opacity:1;"/>
<stop offset="0.140625" style="stop-color:rgb(88.011169%,87.792969%,87.846375%);stop-opacity:1;"/>
<stop offset="0.144531" style="stop-color:rgb(87.678528%,87.454224%,87.509155%);stop-opacity:1;"/>
<stop offset="0.148438" style="stop-color:rgb(87.34436%,87.113953%,87.171936%);stop-opacity:1;"/>
<stop offset="0.152344" style="stop-color:rgb(87.011719%,86.775208%,86.834717%);stop-opacity:1;"/>
<stop offset="0.15625" style="stop-color:rgb(86.679077%,86.436462%,86.495972%);stop-opacity:1;"/>
<stop offset="0.160156" style="stop-color:rgb(86.346436%,86.097717%,86.158752%);stop-opacity:1;"/>
<stop offset="0.164062" style="stop-color:rgb(86.012268%,85.758972%,85.821533%);stop-opacity:1;"/>
<stop offset="0.167969" style="stop-color:rgb(85.679626%,85.418701%,85.484314%);stop-opacity:1;"/>
<stop offset="0.171875" style="stop-color:rgb(85.346985%,85.079956%,85.145569%);stop-opacity:1;"/>
<stop offset="0.175781" style="stop-color:rgb(85.014343%,84.741211%,84.80835%);stop-opacity:1;"/>
<stop offset="0.179688" style="stop-color:rgb(84.680176%,84.402466%,84.47113%);stop-opacity:1;"/>
<stop offset="0.183594" style="stop-color:rgb(84.347534%,84.062195%,84.133911%);stop-opacity:1;"/>
<stop offset="0.1875" style="stop-color:rgb(84.014893%,83.72345%,83.795166%);stop-opacity:1;"/>
<stop offset="0.191406" style="stop-color:rgb(83.680725%,83.384705%,83.457947%);stop-opacity:1;"/>
<stop offset="0.195313" style="stop-color:rgb(83.348083%,83.045959%,83.120728%);stop-opacity:1;"/>
<stop offset="0.199219" style="stop-color:rgb(83.015442%,82.705688%,82.783508%);stop-opacity:1;"/>
<stop offset="0.203125" style="stop-color:rgb(82.6828%,82.366943%,82.444763%);stop-opacity:1;"/>
<stop offset="0.207031" style="stop-color:rgb(82.348633%,82.028198%,82.107544%);stop-opacity:1;"/>
<stop offset="0.210938" style="stop-color:rgb(82.015991%,81.689453%,81.770325%);stop-opacity:1;"/>
<stop offset="0.214844" style="stop-color:rgb(81.68335%,81.349182%,81.433105%);stop-opacity:1;"/>
<stop offset="0.21875" style="stop-color:rgb(81.350708%,81.010437%,81.09436%);stop-opacity:1;"/>
<stop offset="0.222656" style="stop-color:rgb(81.016541%,80.671692%,80.757141%);stop-opacity:1;"/>
<stop offset="0.226562" style="stop-color:rgb(80.683899%,80.332947%,80.419922%);stop-opacity:1;"/>
<stop offset="0.230469" style="stop-color:rgb(80.351257%,79.994202%,80.082703%);stop-opacity:1;"/>
<stop offset="0.234375" style="stop-color:rgb(80.018616%,79.653931%,79.743958%);stop-opacity:1;"/>
<stop offset="0.238281" style="stop-color:rgb(79.684448%,79.315186%,79.406738%);stop-opacity:1;"/>
<stop offset="0.242188" style="stop-color:rgb(79.351807%,78.97644%,79.069519%);stop-opacity:1;"/>
<stop offset="0.246094" style="stop-color:rgb(79.019165%,78.637695%,78.7323%);stop-opacity:1;"/>
<stop offset="0.25" style="stop-color:rgb(78.686523%,78.297424%,78.393555%);stop-opacity:1;"/>
<stop offset="0.253906" style="stop-color:rgb(78.352356%,77.958679%,78.056335%);stop-opacity:1;"/>
<stop offset="0.257812" style="stop-color:rgb(78.019714%,77.619934%,77.719116%);stop-opacity:1;"/>
<stop offset="0.261719" style="stop-color:rgb(77.687073%,77.281189%,77.381897%);stop-opacity:1;"/>
<stop offset="0.265625" style="stop-color:rgb(77.352905%,76.940918%,77.043152%);stop-opacity:1;"/>
<stop offset="0.269531" style="stop-color:rgb(77.020264%,76.602173%,76.705933%);stop-opacity:1;"/>
<stop offset="0.273437" style="stop-color:rgb(76.687622%,76.263428%,76.368713%);stop-opacity:1;"/>
<stop offset="0.277344" style="stop-color:rgb(76.35498%,75.924683%,76.031494%);stop-opacity:1;"/>
<stop offset="0.28125" style="stop-color:rgb(76.020813%,75.584412%,75.692749%);stop-opacity:1;"/>
<stop offset="0.285156" style="stop-color:rgb(75.68512%,75.242615%,75.352478%);stop-opacity:1;"/>
<stop offset="0.289062" style="stop-color:rgb(75.3479%,74.899292%,75.010681%);stop-opacity:1;"/>
<stop offset="0.292969" style="stop-color:rgb(75.004578%,74.549866%,74.662781%);stop-opacity:1;"/>
<stop offset="0.296875" style="stop-color:rgb(74.662781%,74.201965%,74.316406%);stop-opacity:1;"/>
<stop offset="0.300781" style="stop-color:rgb(74.320984%,73.854065%,73.970032%);stop-opacity:1;"/>
<stop offset="0.304688" style="stop-color:rgb(73.979187%,73.504639%,73.622131%);stop-opacity:1;"/>
<stop offset="0.308594" style="stop-color:rgb(73.635864%,73.156738%,73.275757%);stop-opacity:1;"/>
<stop offset="0.3125" style="stop-color:rgb(73.294067%,72.807312%,72.929382%);stop-opacity:1;"/>
<stop offset="0.316406" style="stop-color:rgb(72.952271%,72.459412%,72.581482%);stop-opacity:1;"/>
<stop offset="0.320312" style="stop-color:rgb(72.608948%,72.111511%,72.235107%);stop-opacity:1;"/>
<stop offset="0.324219" style="stop-color:rgb(72.267151%,71.762085%,71.887207%);stop-opacity:1;"/>
<stop offset="0.328125" style="stop-color:rgb(71.925354%,71.414185%,71.540833%);stop-opacity:1;"/>
<stop offset="0.332031" style="stop-color:rgb(71.582031%,71.064758%,71.194458%);stop-opacity:1;"/>
<stop offset="0.335938" style="stop-color:rgb(71.240234%,70.716858%,70.846558%);stop-opacity:1;"/>
<stop offset="0.339844" style="stop-color:rgb(70.898438%,70.368958%,70.500183%);stop-opacity:1;"/>
<stop offset="0.34375" style="stop-color:rgb(70.555115%,70.019531%,70.153809%);stop-opacity:1;"/>
<stop offset="0.347656" style="stop-color:rgb(70.213318%,69.671631%,69.805908%);stop-opacity:1;"/>
<stop offset="0.351562" style="stop-color:rgb(69.871521%,69.32373%,69.459534%);stop-opacity:1;"/>
<stop offset="0.355469" style="stop-color:rgb(69.529724%,68.974304%,69.111633%);stop-opacity:1;"/>
<stop offset="0.359375" style="stop-color:rgb(69.186401%,68.626404%,68.765259%);stop-opacity:1;"/>
<stop offset="0.363281" style="stop-color:rgb(68.844604%,68.276978%,68.418884%);stop-opacity:1;"/>
<stop offset="0.367188" style="stop-color:rgb(68.502808%,67.929077%,68.070984%);stop-opacity:1;"/>
<stop offset="0.371094" style="stop-color:rgb(68.159485%,67.581177%,67.724609%);stop-opacity:1;"/>
<stop offset="0.375" style="stop-color:rgb(67.817688%,67.23175%,67.378235%);stop-opacity:1;"/>
<stop offset="0.378906" style="stop-color:rgb(67.475891%,66.88385%,67.030334%);stop-opacity:1;"/>
<stop offset="0.382813" style="stop-color:rgb(67.132568%,66.534424%,66.68396%);stop-opacity:1;"/>
<stop offset="0.386719" style="stop-color:rgb(66.790771%,66.186523%,66.33606%);stop-opacity:1;"/>
<stop offset="0.390625" style="stop-color:rgb(66.448975%,65.838623%,65.989685%);stop-opacity:1;"/>
<stop offset="0.394531" style="stop-color:rgb(66.107178%,65.489197%,65.643311%);stop-opacity:1;"/>
<stop offset="0.398438" style="stop-color:rgb(65.763855%,65.141296%,65.29541%);stop-opacity:1;"/>
<stop offset="0.402344" style="stop-color:rgb(65.422058%,64.793396%,64.949036%);stop-opacity:1;"/>
<stop offset="0.40625" style="stop-color:rgb(65.080261%,64.44397%,64.602661%);stop-opacity:1;"/>
<stop offset="0.410156" style="stop-color:rgb(64.736938%,64.096069%,64.254761%);stop-opacity:1;"/>
<stop offset="0.414063" style="stop-color:rgb(64.395142%,63.746643%,63.908386%);stop-opacity:1;"/>
<stop offset="0.417969" style="stop-color:rgb(64.053345%,63.398743%,63.562012%);stop-opacity:1;"/>
<stop offset="0.421875" style="stop-color:rgb(63.710022%,63.050842%,63.214111%);stop-opacity:1;"/>
<stop offset="0.425781" style="stop-color:rgb(63.369751%,62.702942%,62.869263%);stop-opacity:1;"/>
<stop offset="0.429688" style="stop-color:rgb(63.02948%,62.356567%,62.522888%);stop-opacity:1;"/>
<stop offset="0.433594" style="stop-color:rgb(62.695312%,62.016296%,62.185669%);stop-opacity:1;"/>
<stop offset="0.4375" style="stop-color:rgb(62.362671%,61.677551%,61.84845%);stop-opacity:1;"/>
<stop offset="0.441406" style="stop-color:rgb(62.030029%,61.338806%,61.509705%);stop-opacity:1;"/>
<stop offset="0.445312" style="stop-color:rgb(61.697388%,61.000061%,61.172485%);stop-opacity:1;"/>
<stop offset="0.449219" style="stop-color:rgb(61.36322%,60.65979%,60.835266%);stop-opacity:1;"/>
<stop offset="0.453125" style="stop-color:rgb(61.030579%,60.321045%,60.498047%);stop-opacity:1;"/>
<stop offset="0.457031" style="stop-color:rgb(60.697937%,59.9823%,60.159302%);stop-opacity:1;"/>
<stop offset="0.460938" style="stop-color:rgb(60.36377%,59.643555%,59.822083%);stop-opacity:1;"/>
<stop offset="0.464844" style="stop-color:rgb(60.031128%,59.30481%,59.484863%);stop-opacity:1;"/>
<stop offset="0.46875" style="stop-color:rgb(59.698486%,58.964539%,59.147644%);stop-opacity:1;"/>
<stop offset="0.472656" style="stop-color:rgb(59.365845%,58.625793%,58.808899%);stop-opacity:1;"/>
<stop offset="0.476562" style="stop-color:rgb(59.031677%,58.287048%,58.47168%);stop-opacity:1;"/>
<stop offset="0.480469" style="stop-color:rgb(58.699036%,57.948303%,58.13446%);stop-opacity:1;"/>
<stop offset="0.484375" style="stop-color:rgb(58.366394%,57.608032%,57.797241%);stop-opacity:1;"/>
<stop offset="0.488281" style="stop-color:rgb(58.033752%,57.269287%,57.458496%);stop-opacity:1;"/>
<stop offset="0.492188" style="stop-color:rgb(57.699585%,56.930542%,57.121277%);stop-opacity:1;"/>
<stop offset="0.496094" style="stop-color:rgb(57.366943%,56.591797%,56.784058%);stop-opacity:1;"/>
<stop offset="0.5" style="stop-color:rgb(57.034302%,56.251526%,56.446838%);stop-opacity:1;"/>
<stop offset="0.503906" style="stop-color:rgb(56.70166%,55.912781%,56.108093%);stop-opacity:1;"/>
<stop offset="0.507812" style="stop-color:rgb(56.367493%,55.574036%,55.770874%);stop-opacity:1;"/>
<stop offset="0.511719" style="stop-color:rgb(56.034851%,55.235291%,55.433655%);stop-opacity:1;"/>
<stop offset="0.515625" style="stop-color:rgb(55.702209%,54.89502%,55.096436%);stop-opacity:1;"/>
<stop offset="0.519531" style="stop-color:rgb(55.369568%,54.556274%,54.75769%);stop-opacity:1;"/>
<stop offset="0.523437" style="stop-color:rgb(55.0354%,54.217529%,54.420471%);stop-opacity:1;"/>
<stop offset="0.527344" style="stop-color:rgb(54.702759%,53.878784%,54.083252%);stop-opacity:1;"/>
<stop offset="0.53125" style="stop-color:rgb(54.370117%,53.540039%,53.746033%);stop-opacity:1;"/>
<stop offset="0.535156" style="stop-color:rgb(54.03595%,53.199768%,53.407288%);stop-opacity:1;"/>
<stop offset="0.539062" style="stop-color:rgb(53.703308%,52.861023%,53.070068%);stop-opacity:1;"/>
<stop offset="0.542969" style="stop-color:rgb(53.370667%,52.522278%,52.732849%);stop-opacity:1;"/>
<stop offset="0.546875" style="stop-color:rgb(53.038025%,52.183533%,52.39563%);stop-opacity:1;"/>
<stop offset="0.550781" style="stop-color:rgb(52.703857%,51.843262%,52.056885%);stop-opacity:1;"/>
<stop offset="0.554687" style="stop-color:rgb(52.371216%,51.504517%,51.719666%);stop-opacity:1;"/>
<stop offset="0.558594" style="stop-color:rgb(52.038574%,51.165771%,51.382446%);stop-opacity:1;"/>
<stop offset="0.5625" style="stop-color:rgb(51.705933%,50.827026%,51.045227%);stop-opacity:1;"/>
<stop offset="0.566406" style="stop-color:rgb(51.371765%,50.486755%,50.706482%);stop-opacity:1;"/>
<stop offset="0.570312" style="stop-color:rgb(51.039124%,50.14801%,50.369263%);stop-opacity:1;"/>
<stop offset="0.574219" style="stop-color:rgb(50.698853%,49.801636%,50.024414%);stop-opacity:1;"/>
<stop offset="0.578125" style="stop-color:rgb(50.357056%,49.453735%,49.67804%);stop-opacity:1;"/>
<stop offset="0.582031" style="stop-color:rgb(50.015259%,49.105835%,49.331665%);stop-opacity:1;"/>
<stop offset="0.585938" style="stop-color:rgb(49.673462%,48.756409%,48.983765%);stop-opacity:1;"/>
<stop offset="0.589844" style="stop-color:rgb(49.330139%,48.408508%,48.63739%);stop-opacity:1;"/>
<stop offset="0.59375" style="stop-color:rgb(48.988342%,48.060608%,48.291016%);stop-opacity:1;"/>
<stop offset="0.597656" style="stop-color:rgb(48.646545%,47.711182%,47.943115%);stop-opacity:1;"/>
<stop offset="0.601562" style="stop-color:rgb(48.303223%,47.363281%,47.596741%);stop-opacity:1;"/>
<stop offset="0.605469" style="stop-color:rgb(47.961426%,47.013855%,47.250366%);stop-opacity:1;"/>
<stop offset="0.609375" style="stop-color:rgb(47.619629%,46.665955%,46.902466%);stop-opacity:1;"/>
<stop offset="0.613281" style="stop-color:rgb(47.277832%,46.318054%,46.556091%);stop-opacity:1;"/>
<stop offset="0.617188" style="stop-color:rgb(46.934509%,45.968628%,46.209717%);stop-opacity:1;"/>
<stop offset="0.621094" style="stop-color:rgb(46.592712%,45.620728%,45.861816%);stop-opacity:1;"/>
<stop offset="0.625" style="stop-color:rgb(46.250916%,45.272827%,45.515442%);stop-opacity:1;"/>
<stop offset="0.628906" style="stop-color:rgb(45.907593%,44.923401%,45.167542%);stop-opacity:1;"/>
<stop offset="0.632812" style="stop-color:rgb(45.565796%,44.5755%,44.821167%);stop-opacity:1;"/>
<stop offset="0.636719" style="stop-color:rgb(45.223999%,44.226074%,44.474792%);stop-opacity:1;"/>
<stop offset="0.640625" style="stop-color:rgb(44.880676%,43.878174%,44.126892%);stop-opacity:1;"/>
<stop offset="0.644531" style="stop-color:rgb(44.538879%,43.530273%,43.780518%);stop-opacity:1;"/>
<stop offset="0.648438" style="stop-color:rgb(44.195557%,43.179321%,43.432617%);stop-opacity:1;"/>
<stop offset="0.652344" style="stop-color:rgb(43.85376%,42.831421%,43.084717%);stop-opacity:1;"/>
<stop offset="0.65625" style="stop-color:rgb(43.510437%,42.483521%,42.738342%);stop-opacity:1;"/>
<stop offset="0.660156" style="stop-color:rgb(43.16864%,42.134094%,42.391968%);stop-opacity:1;"/>
<stop offset="0.664062" style="stop-color:rgb(42.826843%,41.786194%,42.044067%);stop-opacity:1;"/>
<stop offset="0.667969" style="stop-color:rgb(42.483521%,41.436768%,41.697693%);stop-opacity:1;"/>
<stop offset="0.671875" style="stop-color:rgb(42.141724%,41.088867%,41.349792%);stop-opacity:1;"/>
<stop offset="0.675781" style="stop-color:rgb(41.799927%,40.740967%,41.003418%);stop-opacity:1;"/>
<stop offset="0.679688" style="stop-color:rgb(41.45813%,40.391541%,40.657043%);stop-opacity:1;"/>
<stop offset="0.683594" style="stop-color:rgb(41.114807%,40.04364%,40.309143%);stop-opacity:1;"/>
<stop offset="0.6875" style="stop-color:rgb(40.77301%,39.69574%,39.962769%);stop-opacity:1;"/>
<stop offset="0.691406" style="stop-color:rgb(40.431213%,39.346313%,39.616394%);stop-opacity:1;"/>
<stop offset="0.695312" style="stop-color:rgb(40.087891%,38.998413%,39.268494%);stop-opacity:1;"/>
<stop offset="0.699219" style="stop-color:rgb(39.746094%,38.648987%,38.922119%);stop-opacity:1;"/>
<stop offset="0.703125" style="stop-color:rgb(39.404297%,38.301086%,38.575745%);stop-opacity:1;"/>
<stop offset="0.707031" style="stop-color:rgb(39.060974%,37.953186%,38.227844%);stop-opacity:1;"/>
<stop offset="0.710938" style="stop-color:rgb(38.719177%,37.60376%,37.88147%);stop-opacity:1;"/>
<stop offset="0.714844" style="stop-color:rgb(38.381958%,37.260437%,37.539673%);stop-opacity:1;"/>
<stop offset="0.71875" style="stop-color:rgb(38.044739%,36.917114%,37.197876%);stop-opacity:1;"/>
<stop offset="0.722656" style="stop-color:rgb(37.712097%,36.578369%,36.860657%);stop-opacity:1;"/>
<stop offset="0.726562" style="stop-color:rgb(37.379456%,36.239624%,36.523438%);stop-opacity:1;"/>
<stop offset="0.730469" style="stop-color:rgb(37.046814%,35.900879%,36.184692%);stop-opacity:1;"/>
<stop offset="0.734375" style="stop-color:rgb(36.712646%,35.562134%,35.847473%);stop-opacity:1;"/>
<stop offset="0.738281" style="stop-color:rgb(36.380005%,35.221863%,35.510254%);stop-opacity:1;"/>
<stop offset="0.742188" style="stop-color:rgb(36.047363%,34.883118%,35.173035%);stop-opacity:1;"/>
<stop offset="0.746094" style="stop-color:rgb(35.714722%,34.544373%,34.83429%);stop-opacity:1;"/>
<stop offset="0.75" style="stop-color:rgb(35.380554%,34.205627%,34.49707%);stop-opacity:1;"/>
<stop offset="0.753906" style="stop-color:rgb(35.047913%,33.865356%,34.159851%);stop-opacity:1;"/>
<stop offset="0.757813" style="stop-color:rgb(34.715271%,33.526611%,33.822632%);stop-opacity:1;"/>
<stop offset="0.761719" style="stop-color:rgb(34.381104%,33.187866%,33.483887%);stop-opacity:1;"/>
<stop offset="0.765625" style="stop-color:rgb(34.048462%,32.849121%,33.146667%);stop-opacity:1;"/>
<stop offset="0.769531" style="stop-color:rgb(33.71582%,32.50885%,32.809448%);stop-opacity:1;"/>
<stop offset="0.773438" style="stop-color:rgb(33.383179%,32.170105%,32.472229%);stop-opacity:1;"/>
<stop offset="0.777344" style="stop-color:rgb(33.049011%,31.83136%,32.133484%);stop-opacity:1;"/>
<stop offset="0.78125" style="stop-color:rgb(32.71637%,31.492615%,31.796265%);stop-opacity:1;"/>
<stop offset="0.785156" style="stop-color:rgb(32.383728%,31.152344%,31.459045%);stop-opacity:1;"/>
<stop offset="0.789063" style="stop-color:rgb(32.051086%,30.813599%,31.121826%);stop-opacity:1;"/>
<stop offset="0.792969" style="stop-color:rgb(31.716919%,30.474854%,30.783081%);stop-opacity:1;"/>
<stop offset="0.796875" style="stop-color:rgb(31.384277%,30.136108%,30.445862%);stop-opacity:1;"/>
<stop offset="0.800781" style="stop-color:rgb(31.051636%,29.797363%,30.108643%);stop-opacity:1;"/>
<stop offset="0.804688" style="stop-color:rgb(30.718994%,29.457092%,29.771423%);stop-opacity:1;"/>
<stop offset="0.808594" style="stop-color:rgb(30.384827%,29.118347%,29.432678%);stop-opacity:1;"/>
<stop offset="0.8125" style="stop-color:rgb(30.052185%,28.779602%,29.095459%);stop-opacity:1;"/>
<stop offset="0.816406" style="stop-color:rgb(29.719543%,28.440857%,28.75824%);stop-opacity:1;"/>
<stop offset="0.820313" style="stop-color:rgb(29.386902%,28.100586%,28.421021%);stop-opacity:1;"/>
<stop offset="0.824219" style="stop-color:rgb(29.052734%,27.761841%,28.082275%);stop-opacity:1;"/>
<stop offset="0.828125" style="stop-color:rgb(28.720093%,27.423096%,27.745056%);stop-opacity:1;"/>
<stop offset="0.832031" style="stop-color:rgb(28.387451%,27.084351%,27.407837%);stop-opacity:1;"/>
<stop offset="0.835938" style="stop-color:rgb(28.053284%,26.74408%,27.070618%);stop-opacity:1;"/>
<stop offset="0.839844" style="stop-color:rgb(27.722168%,26.40686%,26.733398%);stop-opacity:1;"/>
<stop offset="0.84375" style="stop-color:rgb(27.389526%,26.068115%,26.396179%);stop-opacity:1;"/>
<stop offset="0.847656" style="stop-color:rgb(27.056885%,25.72937%,26.05896%);stop-opacity:1;"/>
<stop offset="0.851563" style="stop-color:rgb(26.722717%,25.389099%,25.720215%);stop-opacity:1;"/>
<stop offset="0.855469" style="stop-color:rgb(26.387024%,25.047302%,25.379944%);stop-opacity:1;"/>
<stop offset="0.859375" style="stop-color:rgb(26.051331%,24.705505%,25.039673%);stop-opacity:1;"/>
<stop offset="0.863281" style="stop-color:rgb(25.709534%,24.357605%,24.693298%);stop-opacity:1;"/>
<stop offset="0.867188" style="stop-color:rgb(25.366211%,24.008179%,24.345398%);stop-opacity:1;"/>
<stop offset="0.871094" style="stop-color:rgb(25.024414%,23.658752%,23.997498%);stop-opacity:1;"/>
<stop offset="0.875" style="stop-color:rgb(24.681091%,23.310852%,23.651123%);stop-opacity:1;"/>
<stop offset="0.878906" style="stop-color:rgb(24.339294%,22.962952%,23.304749%);stop-opacity:1;"/>
<stop offset="0.882812" style="stop-color:rgb(23.997498%,22.613525%,22.956848%);stop-opacity:1;"/>
<stop offset="0.886719" style="stop-color:rgb(23.654175%,22.265625%,22.610474%);stop-opacity:1;"/>
<stop offset="0.890625" style="stop-color:rgb(23.312378%,21.916199%,22.264099%);stop-opacity:1;"/>
<stop offset="0.894531" style="stop-color:rgb(22.970581%,21.568298%,21.916199%);stop-opacity:1;"/>
<stop offset="0.898437" style="stop-color:rgb(22.627258%,21.220398%,21.569824%);stop-opacity:1;"/>
<stop offset="0.902344" style="stop-color:rgb(22.285461%,20.870972%,21.22345%);stop-opacity:1;"/>
<stop offset="0.90625" style="stop-color:rgb(21.943665%,20.523071%,20.875549%);stop-opacity:1;"/>
<stop offset="0.910156" style="stop-color:rgb(21.601868%,20.175171%,20.529175%);stop-opacity:1;"/>
<stop offset="0.914062" style="stop-color:rgb(21.258545%,19.825745%,20.181274%);stop-opacity:1;"/>
<stop offset="0.917969" style="stop-color:rgb(20.916748%,19.477844%,19.8349%);stop-opacity:1;"/>
<stop offset="0.921875" style="stop-color:rgb(20.574951%,19.128418%,19.488525%);stop-opacity:1;"/>
<stop offset="0.925781" style="stop-color:rgb(20.231628%,18.780518%,19.140625%);stop-opacity:1;"/>
<stop offset="0.929688" style="stop-color:rgb(19.889832%,18.432617%,18.79425%);stop-opacity:1;"/>
<stop offset="0.933594" style="stop-color:rgb(19.548035%,18.083191%,18.447876%);stop-opacity:1;"/>
<stop offset="0.9375" style="stop-color:rgb(19.204712%,17.735291%,18.099976%);stop-opacity:1;"/>
<stop offset="0.941406" style="stop-color:rgb(18.862915%,17.385864%,17.753601%);stop-opacity:1;"/>
<stop offset="0.945312" style="stop-color:rgb(18.521118%,17.037964%,17.405701%);stop-opacity:1;"/>
<stop offset="0.949219" style="stop-color:rgb(18.179321%,16.690063%,17.059326%);stop-opacity:1;"/>
<stop offset="0.953125" style="stop-color:rgb(17.835999%,16.340637%,16.712952%);stop-opacity:1;"/>
<stop offset="0.957031" style="stop-color:rgb(17.494202%,15.992737%,16.365051%);stop-opacity:1;"/>
<stop offset="0.960938" style="stop-color:rgb(17.152405%,15.644836%,16.018677%);stop-opacity:1;"/>
<stop offset="0.964844" style="stop-color:rgb(16.809082%,15.29541%,15.672302%);stop-opacity:1;"/>
<stop offset="0.96875" style="stop-color:rgb(16.467285%,14.94751%,15.324402%);stop-opacity:1;"/>
<stop offset="0.972656" style="stop-color:rgb(16.125488%,14.598083%,14.978027%);stop-opacity:1;"/>
<stop offset="0.976562" style="stop-color:rgb(15.782166%,14.250183%,14.630127%);stop-opacity:1;"/>
<stop offset="0.980469" style="stop-color:rgb(15.440369%,13.902283%,14.283752%);stop-opacity:1;"/>
<stop offset="0.984375" style="stop-color:rgb(15.098572%,13.552856%,13.937378%);stop-opacity:1;"/>
<stop offset="0.988281" style="stop-color:rgb(14.755249%,13.204956%,13.589478%);stop-opacity:1;"/>
<stop offset="0.992188" style="stop-color:rgb(14.413452%,12.85553%,13.243103%);stop-opacity:1;"/>
<stop offset="0.996094" style="stop-color:rgb(14.071655%,12.507629%,12.896729%);stop-opacity:1;"/>
<stop offset="1" style="stop-color:rgb(13.729858%,12.159729%,12.548828%);stop-opacity:1;"/>
</linearGradient>
<clipPath id="clip7">
  <path d="M 0.0585938 20 L 44 20 L 44 64 L 0.0585938 64 Z "/>
</clipPath>
</defs>
<g id="surface1">
<g clip-path="url(#clip1)" clip-rule="nonzero">
<path style=" stroke:none;fill-rule:nonzero;fill:rgb(100%,100%,100%);fill-opacity:1;" d="M 59.679688 0.746094 L 277.535156 0.746094 L 277.535156 62.65625 L 59.679688 62.65625 Z "/>
</g>
<g clip-path="url(#clip2)" clip-rule="nonzero">
<path style=" stroke:none;fill-rule:nonzero;fill:rgb(13.729858%,12.159729%,12.548828%);fill-opacity:1;" d="M 277.535156 62.65625 L 277.535156 61.90625 L 59.679688 61.90625 L 59.679688 62.65625 L 60.429688 62.65625 L 60.429688 0.75 L 59.679688 0.75 L 59.679688 1.5 L 277.535156 1.5 L 277.535156 0.75 L 276.785156 0.75 L 276.785156 62.65625 L 277.535156 62.65625 L 277.535156 61.90625 L 277.535156 62.65625 L 278.285156 62.65625 L 278.285156 0 L 58.929688 0 L 58.929688 63.40625 L 278.285156 63.40625 L 278.285156 62.65625 L 277.535156 62.65625 "/>
</g>
<path style=" stroke:none;fill-rule:nonzero;fill:rgb(100%,100%,100%);fill-opacity:1;" d="M 249.183594 31.300781 C 249.183594 43.792969 239.320312 53.917969 227.152344 53.917969 C 214.992188 53.917969 205.128906 43.792969 205.128906 31.300781 C 205.128906 18.808594 214.992188 8.675781 227.152344 8.675781 C 239.320312 8.675781 249.183594 18.808594 249.183594 31.300781 "/>
<path style=" stroke:none;fill-rule:nonzero;fill:rgb(13.729858%,12.159729%,12.548828%);fill-opacity:1;" d="M 249.183594 31.300781 L 248.425781 31.300781 C 248.425781 37.339844 246.042969 42.8125 242.191406 46.773438 C 238.339844 50.722656 233.027344 53.164062 227.152344 53.164062 C 221.28125 53.164062 215.972656 50.722656 212.121094 46.773438 C 208.269531 42.8125 205.882812 37.339844 205.882812 31.300781 C 205.882812 25.253906 208.269531 19.78125 212.121094 15.832031 C 215.972656 11.871094 221.28125 9.433594 227.152344 9.433594 C 233.027344 9.433594 238.339844 11.871094 242.191406 15.832031 C 246.042969 19.78125 248.425781 25.253906 248.425781 31.300781 L 249.929688 31.300781 C 249.929688 24.847656 247.382812 19.007812 243.269531 14.777344 C 239.148438 10.546875 233.449219 7.929688 227.152344 7.929688 C 220.859375 7.929688 215.164062 10.546875 211.042969 14.777344 C 206.929688 19.007812 204.382812 24.847656 204.382812 31.300781 C 204.382812 37.746094 206.929688 43.585938 211.042969 47.816406 C 215.164062 52.046875 220.859375 54.664062 227.152344 54.664062 C 233.449219 54.664062 239.148438 52.046875 243.269531 47.816406 C 247.382812 43.585938 249.929688 37.746094 249.929688 31.300781 L 249.183594 31.300781 "/>
<path style=" stroke:none;fill-rule:nonzero;fill:rgb(13.729858%,12.159729%,12.548828%);fill-opacity:1;" d="M 231.113281 31.699219 C 231.113281 33.34375 229.777344 34.675781 228.132812 34.675781 C 226.484375 34.675781 225.152344 33.34375 225.152344 31.699219 C 225.152344 30.058594 226.484375 28.726562 228.132812 28.726562 C 229.777344 28.726562 231.113281 30.058594 231.113281 31.699219 "/>
<path style=" stroke:none;fill-rule:nonzero;fill:rgb(13.729858%,12.159729%,12.548828%);fill-opacity:1;" d="M 231.113281 31.699219 L 230.355469 31.699219 C 230.355469 32.929688 229.363281 33.929688 228.132812 33.929688 C 226.898438 33.929688 225.910156 32.929688 225.910156 31.699219 C 225.910156 30.472656 226.898438 29.476562 228.132812 29.476562 C 229.363281 29.476562 230.355469 30.472656 230.355469 31.699219 L 231.859375 31.699219 C 231.859375 29.644531 230.195312 27.972656 228.132812 27.972656 C 226.070312 27.980469 224.40625 29.644531 224.40625 31.699219 C 224.40625 33.757812 226.070312 35.425781 228.132812 35.433594 C 230.195312 35.425781 231.859375 33.757812 231.859375 31.699219 L 231.113281 31.699219 "/>
<path style=" stroke:none;fill-rule:nonzero;fill:rgb(100%,100%,100%);fill-opacity:1;" d="M 190.25 30.703125 C 190.25 43.195312 180.390625 53.320312 168.226562 53.320312 C 156.0625 53.320312 146.203125 43.195312 146.203125 30.703125 C 146.203125 18.210938 156.0625 8.082031 168.226562 8.082031 C 180.390625 8.082031 190.25 18.210938 190.25 30.703125 "/>
<path style=" stroke:none;fill-rule:nonzero;fill:rgb(13.729858%,12.159729%,12.548828%);fill-opacity:1;" d="M 190.25 30.703125 L 189.5 30.703125 C 189.5 36.75 187.117188 42.214844 183.261719 46.175781 C 179.410156 50.132812 174.097656 52.570312 168.226562 52.570312 C 162.355469 52.570312 157.046875 50.132812 153.191406 46.175781 C 149.339844 42.214844 146.953125 36.75 146.953125 30.703125 C 146.953125 24.65625 149.339844 19.1875 153.191406 15.230469 C 157.046875 11.273438 162.355469 8.835938 168.226562 8.832031 C 174.097656 8.835938 179.410156 11.273438 183.261719 15.230469 C 187.117188 19.1875 189.5 24.65625 189.5 30.703125 L 191 30.703125 C 191 24.257812 188.457031 18.414062 184.339844 14.183594 C 180.222656 9.957031 174.519531 7.332031 168.226562 7.332031 C 161.933594 7.332031 156.234375 9.957031 152.117188 14.183594 C 147.996094 18.414062 145.453125 24.257812 145.453125 30.703125 C 145.453125 37.148438 147.996094 42.992188 152.117188 47.21875 C 156.234375 51.449219 161.933594 54.070312 168.226562 54.070312 C 174.519531 54.070312 180.222656 51.449219 184.339844 47.21875 C 188.457031 42.992188 191 37.148438 191 30.703125 L 190.25 30.703125 "/>
<path style=" stroke:none;fill-rule:nonzero;fill:rgb(13.729858%,12.159729%,12.548828%);fill-opacity:1;" d="M 172.179688 31.105469 C 172.179688 32.75 170.847656 34.085938 169.203125 34.085938 C 167.558594 34.085938 166.226562 32.75 166.226562 31.105469 C 166.226562 29.464844 167.558594 28.132812 169.203125 28.132812 C 170.847656 28.132812 172.179688 29.464844 172.179688 31.105469 "/>
<path style=" stroke:none;fill-rule:nonzero;fill:rgb(13.729858%,12.159729%,12.548828%);fill-opacity:1;" d="M 172.179688 31.105469 L 171.429688 31.105469 C 171.425781 32.335938 170.433594 33.332031 169.203125 33.335938 C 167.972656 33.332031 166.980469 32.335938 166.976562 31.105469 C 166.980469 29.878906 167.972656 28.882812 169.203125 28.882812 C 170.433594 28.882812 171.425781 29.878906 171.429688 31.105469 L 172.929688 31.105469 C 172.929688 29.050781 171.261719 27.382812 169.203125 27.382812 C 167.144531 27.382812 165.476562 29.050781 165.476562 31.105469 C 165.476562 33.164062 167.144531 34.832031 169.203125 34.835938 C 171.261719 34.832031 172.929688 33.164062 172.929688 31.105469 L 172.179688 31.105469 "/>
<path style=" stroke:none;fill-rule:nonzero;fill:rgb(100%,100%,100%);fill-opacity:1;" d="M 128.726562 31.703125 C 128.726562 44.195312 118.867188 54.320312 106.703125 54.320312 C 94.539062 54.320312 84.679688 44.195312 84.679688 31.703125 C 84.679688 19.210938 94.539062 9.082031 106.703125 9.082031 C 118.867188 9.082031 128.726562 19.210938 128.726562 31.703125 "/>
<path style=" stroke:none;fill-rule:nonzero;fill:rgb(13.729858%,12.159729%,12.548828%);fill-opacity:1;" d="M 128.726562 31.703125 L 127.976562 31.703125 C 127.976562 37.75 125.59375 43.214844 121.738281 47.175781 C 117.886719 51.132812 112.574219 53.570312 106.703125 53.570312 C 100.832031 53.570312 95.523438 51.132812 91.667969 47.175781 C 87.8125 43.214844 85.429688 37.75 85.429688 31.703125 C 85.429688 25.65625 87.8125 20.1875 91.667969 16.230469 C 95.523438 12.273438 100.832031 9.835938 106.703125 9.832031 C 112.574219 9.835938 117.886719 12.273438 121.738281 16.230469 C 125.59375 20.1875 127.976562 25.65625 127.976562 31.703125 L 129.476562 31.703125 C 129.476562 25.257812 126.933594 19.414062 122.8125 15.183594 C 118.699219 10.957031 112.996094 8.332031 106.703125 8.332031 C 100.410156 8.332031 94.710938 10.957031 90.59375 15.183594 C 86.472656 19.414062 83.929688 25.257812 83.929688 31.703125 C 83.929688 38.148438 86.472656 43.992188 90.59375 48.21875 C 94.710938 52.449219 100.410156 55.070312 106.703125 55.070312 C 112.996094 55.070312 118.699219 52.449219 122.8125 48.21875 C 126.933594 43.992188 129.476562 38.148438 129.476562 31.703125 L 128.726562 31.703125 "/>
<path style=" stroke:none;fill-rule:nonzero;fill:rgb(100%,100%,100%);fill-opacity:1;" d="M 226.351562 54.972656 C 219.976562 54.972656 214.226562 52.335938 210.042969 48.050781 C 205.867188 43.777344 203.28125 37.863281 203.28125 31.320312 C 203.28125 24.777344 205.867188 18.871094 210.042969 14.589844 C 214.226562 10.304688 219.976562 7.667969 226.351562 7.667969 L 226.351562 7.945312 C 220.378906 8.15625 214.988281 10.730469 211.042969 14.777344 C 206.929688 19.007812 204.382812 24.847656 204.382812 31.300781 C 204.382812 37.746094 206.929688 43.585938 211.042969 47.816406 C 214.988281 51.867188 220.378906 54.441406 226.351562 54.652344 L 226.351562 54.972656 "/>
<path style=" stroke:none;fill-rule:nonzero;fill:rgb(100%,100%,100%);fill-opacity:1;" d="M 226.351562 53.148438 C 220.800781 52.9375 215.796875 50.542969 212.121094 46.773438 C 208.269531 42.8125 205.882812 37.339844 205.882812 31.300781 C 205.882812 25.253906 208.269531 19.78125 212.121094 15.832031 C 215.796875 12.054688 220.800781 9.660156 226.351562 9.449219 L 226.351562 28.429688 C 225.191406 29.0625 224.40625 30.289062 224.40625 31.699219 C 224.40625 33.113281 225.191406 34.34375 226.351562 34.976562 L 226.351562 53.148438 "/>
<path style=" stroke:none;fill-rule:nonzero;fill:rgb(13.729858%,12.159729%,12.548828%);fill-opacity:1;" d="M 226.351562 54.652344 C 220.378906 54.441406 214.988281 51.867188 211.042969 47.816406 C 206.929688 43.585938 204.382812 37.746094 204.382812 31.300781 C 204.382812 24.847656 206.929688 19.007812 211.042969 14.777344 C 214.988281 10.730469 220.378906 8.15625 226.351562 7.945312 L 226.351562 9.449219 C 220.800781 9.660156 215.796875 12.054688 212.121094 15.832031 C 208.269531 19.78125 205.882812 25.253906 205.882812 31.300781 C 205.882812 37.339844 208.269531 42.8125 212.121094 46.773438 C 215.796875 50.542969 220.800781 52.9375 226.351562 53.148438 L 226.351562 54.652344 "/>
<path style=" stroke:none;fill-rule:nonzero;fill:rgb(13.729858%,12.159729%,12.548828%);fill-opacity:1;" d="M 226.351562 33.035156 C 226.074219 32.664062 225.910156 32.199219 225.910156 31.699219 C 225.910156 31.199219 226.074219 30.738281 226.351562 30.367188 L 226.351562 33.035156 "/>
<path style=" stroke:none;fill-rule:nonzero;fill:rgb(13.729858%,12.159729%,12.548828%);fill-opacity:1;" d="M 226.351562 34.976562 C 225.191406 34.34375 224.40625 33.113281 224.40625 31.699219 C 224.40625 30.289062 225.191406 29.0625 226.351562 28.429688 L 226.351562 30.367188 C 226.074219 30.738281 225.910156 31.199219 225.910156 31.699219 C 225.910156 32.199219 226.074219 32.664062 226.351562 33.035156 L 226.351562 34.976562 "/>
<path style=" stroke:none;fill-rule:nonzero;fill:rgb(13.729858%,12.159729%,12.548828%);fill-opacity:1;" d="M 226.351562 56.476562 C 219.5625 56.476562 213.40625 53.65625 208.972656 49.105469 C 204.535156 44.550781 201.789062 38.257812 201.789062 31.320312 C 201.789062 24.382812 204.535156 18.089844 208.972656 13.546875 C 213.40625 8.992188 219.5625 6.164062 226.351562 6.164062 L 226.351562 7.667969 C 219.976562 7.667969 214.226562 10.304688 210.042969 14.589844 C 205.867188 18.871094 203.28125 24.777344 203.28125 31.320312 C 203.28125 37.863281 205.867188 43.777344 210.042969 48.050781 C 214.226562 52.335938 219.976562 54.972656 226.351562 54.972656 L 226.351562 56.476562 "/>
<path style=" stroke:none;fill-rule:nonzero;fill:rgb(13.729858%,12.159729%,12.548828%);fill-opacity:1;" d="M 110.65625 32.105469 C 110.65625 33.75 109.324219 35.085938 107.679688 35.085938 C 106.035156 35.085938 104.703125 33.75 104.703125 32.105469 C 104.703125 30.464844 106.035156 29.132812 107.679688 29.132812 C 109.324219 29.132812 110.65625 30.464844 110.65625 32.105469 "/>
<path style=" stroke:none;fill-rule:nonzero;fill:rgb(13.729858%,12.159729%,12.548828%);fill-opacity:1;" d="M 110.65625 32.105469 L 109.90625 32.105469 C 109.902344 33.335938 108.910156 34.332031 107.679688 34.335938 C 106.449219 34.332031 105.457031 33.335938 105.453125 32.105469 C 105.457031 30.878906 106.449219 29.882812 107.679688 29.882812 C 108.910156 29.882812 109.902344 30.878906 109.90625 32.105469 L 111.40625 32.105469 C 111.40625 30.050781 109.738281 28.382812 107.679688 28.382812 C 105.621094 28.382812 103.953125 30.050781 103.953125 32.105469 C 103.953125 34.164062 105.621094 35.832031 107.679688 35.835938 C 109.738281 35.832031 111.40625 34.164062 111.40625 32.105469 L 110.65625 32.105469 "/>
<g clip-path="url(#clip3)" clip-rule="nonzero">
<path style=" stroke:none;fill-rule:nonzero;fill:rgb(100%,100%,100%);fill-opacity:1;" d="M 352.535156 0.75 L 570.394531 0.75 L 570.394531 62.65625 L 352.535156 62.65625 Z "/>
</g>
<g clip-path="url(#clip4)" clip-rule="nonzero">
<path style=" stroke:none;fill-rule:nonzero;fill:rgb(13.729858%,12.159729%,12.548828%);fill-opacity:1;" d="M 570.394531 62.65625 L 570.394531 61.90625 L 352.535156 61.90625 L 352.535156 62.65625 L 353.285156 62.65625 L 353.285156 0.75 L 352.535156 0.75 L 352.535156 1.5 L 570.394531 1.5 L 570.394531 0.75 L 569.644531 0.75 L 569.644531 62.65625 L 570.394531 62.65625 L 570.394531 61.90625 L 570.394531 62.65625 L 571.144531 62.65625 L 571.144531 0 L 351.785156 0 L 351.785156 63.40625 L 571.144531 63.40625 L 571.144531 62.65625 L 570.394531 62.65625 "/>
</g>
<path style=" stroke:none;fill-rule:nonzero;fill:rgb(100%,100%,100%);fill-opacity:1;" d="M 542.035156 31.296875 C 542.035156 43.789062 532.175781 53.917969 520.015625 53.917969 C 507.851562 53.917969 497.988281 43.789062 497.988281 31.296875 C 497.988281 18.804688 507.851562 8.679688 520.015625 8.679688 C 532.175781 8.679688 542.035156 18.804688 542.035156 31.296875 "/>
<path style=" stroke:none;fill-rule:nonzero;fill:rgb(13.729858%,12.159729%,12.548828%);fill-opacity:1;" d="M 542.035156 31.296875 L 541.285156 31.296875 C 541.285156 37.34375 538.902344 42.8125 535.050781 46.769531 C 531.195312 50.726562 525.882812 53.167969 520.015625 53.167969 C 514.140625 53.167969 508.832031 50.726562 504.976562 46.769531 C 501.125 42.8125 498.738281 37.34375 498.738281 31.296875 C 498.738281 25.25 501.125 19.785156 504.976562 15.828125 C 508.832031 11.871094 514.140625 9.429688 520.015625 9.429688 C 525.882812 9.429688 531.195312 11.871094 535.050781 15.828125 C 538.902344 19.785156 541.285156 25.25 541.285156 31.296875 L 542.785156 31.296875 C 542.785156 24.851562 540.242188 19.011719 536.125 14.78125 C 532.007812 10.550781 526.304688 7.929688 520.015625 7.929688 C 513.722656 7.929688 508.019531 10.550781 503.902344 14.78125 C 499.785156 19.011719 497.238281 24.851562 497.238281 31.296875 C 497.238281 37.742188 499.785156 43.585938 503.902344 47.816406 C 508.019531 52.046875 513.722656 54.667969 520.015625 54.667969 C 526.304688 54.667969 532.007812 52.046875 536.125 47.816406 C 540.242188 43.585938 542.785156 37.742188 542.785156 31.296875 L 542.035156 31.296875 "/>
<path style=" stroke:none;fill-rule:nonzero;fill:rgb(13.729858%,12.159729%,12.548828%);fill-opacity:1;" d="M 523.964844 31.703125 C 523.964844 33.347656 522.632812 34.679688 520.988281 34.679688 C 519.347656 34.679688 518.015625 33.347656 518.015625 31.703125 C 518.015625 30.058594 519.347656 28.726562 520.988281 28.726562 C 522.632812 28.726562 523.964844 30.058594 523.964844 31.703125 "/>
<path style=" stroke:none;fill-rule:nonzero;fill:rgb(13.729858%,12.159729%,12.548828%);fill-opacity:1;" d="M 523.964844 31.703125 L 523.214844 31.703125 C 523.214844 32.933594 522.21875 33.925781 520.988281 33.929688 C 519.761719 33.925781 518.765625 32.933594 518.765625 31.703125 C 518.765625 30.472656 519.761719 29.480469 520.988281 29.476562 C 522.21875 29.480469 523.214844 30.472656 523.214844 31.703125 L 524.714844 31.703125 C 524.714844 29.644531 523.046875 27.976562 520.988281 27.976562 C 518.929688 27.976562 517.265625 29.644531 517.265625 31.703125 C 517.265625 33.761719 518.929688 35.429688 520.988281 35.429688 C 523.046875 35.429688 524.714844 33.761719 524.714844 31.703125 L 523.964844 31.703125 "/>
<path style=" stroke:none;fill-rule:nonzero;fill:rgb(100%,100%,100%);fill-opacity:1;" d="M 483.109375 30.703125 C 483.109375 43.195312 473.246094 53.320312 461.085938 53.320312 C 448.921875 53.320312 439.0625 43.195312 439.0625 30.703125 C 439.0625 18.210938 448.921875 8.082031 461.085938 8.082031 C 473.246094 8.082031 483.109375 18.210938 483.109375 30.703125 "/>
<path style=" stroke:none;fill-rule:nonzero;fill:rgb(13.729858%,12.159729%,12.548828%);fill-opacity:1;" d="M 483.109375 30.703125 L 482.359375 30.703125 C 482.359375 36.75 479.972656 42.214844 476.121094 46.175781 C 472.265625 50.132812 466.957031 52.570312 461.085938 52.570312 C 455.214844 52.570312 449.902344 50.132812 446.050781 46.175781 C 442.195312 42.214844 439.8125 36.75 439.8125 30.703125 C 439.8125 24.65625 442.195312 19.1875 446.050781 15.230469 C 449.902344 11.273438 455.214844 8.835938 461.085938 8.832031 C 466.957031 8.835938 472.265625 11.273438 476.121094 15.230469 C 479.972656 19.1875 482.359375 24.65625 482.359375 30.703125 L 483.859375 30.703125 C 483.859375 24.257812 481.3125 18.414062 477.195312 14.183594 C 473.078125 9.957031 467.378906 7.332031 461.085938 7.332031 C 454.792969 7.332031 449.089844 9.957031 444.972656 14.183594 C 440.855469 18.414062 438.308594 24.257812 438.3125 30.703125 C 438.308594 37.148438 440.855469 42.992188 444.972656 47.21875 C 449.089844 51.449219 454.792969 54.070312 461.085938 54.070312 C 467.378906 54.070312 473.078125 51.449219 477.195312 47.21875 C 481.3125 42.992188 483.859375 37.148438 483.859375 30.703125 L 483.109375 30.703125 "/>
<path style=" stroke:none;fill-rule:nonzero;fill:rgb(13.729858%,12.159729%,12.548828%);fill-opacity:1;" d="M 465.035156 31.105469 C 465.035156 32.75 463.703125 34.085938 462.0625 34.085938 C 460.417969 34.085938 459.085938 32.75 459.085938 31.105469 C 459.085938 29.464844 460.417969 28.132812 462.0625 28.132812 C 463.703125 28.132812 465.035156 29.464844 465.035156 31.105469 "/>
<path style=" stroke:none;fill-rule:nonzero;fill:rgb(13.729858%,12.159729%,12.548828%);fill-opacity:1;" d="M 465.035156 31.105469 L 464.285156 31.105469 C 464.285156 32.335938 463.289062 33.332031 462.0625 33.335938 C 460.832031 33.332031 459.835938 32.335938 459.835938 31.105469 C 459.835938 29.878906 460.832031 28.882812 462.0625 28.882812 C 463.289062 28.882812 464.285156 29.878906 464.285156 31.105469 L 465.785156 31.105469 C 465.785156 29.050781 464.117188 27.382812 462.0625 27.382812 C 460.003906 27.382812 458.335938 29.050781 458.335938 31.105469 C 458.335938 33.164062 460.003906 34.832031 462.0625 34.835938 C 464.117188 34.832031 465.785156 33.164062 465.785156 31.105469 L 465.035156 31.105469 "/>
<path style=" stroke:none;fill-rule:nonzero;fill:rgb(100%,100%,100%);fill-opacity:1;" d="M 421.585938 31.703125 C 421.585938 44.195312 411.726562 54.320312 399.5625 54.320312 C 387.398438 54.320312 377.535156 44.195312 377.535156 31.703125 C 377.535156 19.210938 387.398438 9.082031 399.5625 9.082031 C 411.726562 9.082031 421.585938 19.210938 421.585938 31.703125 "/>
<path style=" stroke:none;fill-rule:nonzero;fill:rgb(13.729858%,12.159729%,12.548828%);fill-opacity:1;" d="M 421.585938 31.703125 L 420.835938 31.703125 C 420.835938 37.75 418.449219 43.214844 414.597656 47.175781 C 410.742188 51.132812 405.433594 53.570312 399.5625 53.570312 C 393.691406 53.570312 388.378906 51.132812 384.523438 47.175781 C 380.671875 43.214844 378.285156 37.75 378.285156 31.703125 C 378.285156 25.65625 380.671875 20.1875 384.523438 16.230469 C 388.378906 12.273438 393.691406 9.835938 399.5625 9.832031 C 405.433594 9.835938 410.742188 12.273438 414.597656 16.230469 C 418.449219 20.1875 420.835938 25.65625 420.835938 31.703125 L 422.335938 31.703125 C 422.335938 25.257812 419.789062 19.414062 415.671875 15.183594 C 411.554688 10.957031 405.855469 8.332031 399.5625 8.332031 C 393.269531 8.332031 387.566406 10.957031 383.449219 15.183594 C 379.332031 19.414062 376.785156 25.257812 376.785156 31.703125 C 376.785156 38.148438 379.332031 43.992188 383.449219 48.21875 C 387.566406 52.449219 393.269531 55.070312 399.5625 55.070312 C 405.855469 55.070312 411.554688 52.449219 415.671875 48.21875 C 419.789062 43.992188 422.335938 38.148438 422.335938 31.703125 L 421.585938 31.703125 "/>
<path style=" stroke:none;fill-rule:nonzero;fill:rgb(13.729858%,12.159729%,12.548828%);fill-opacity:1;" d="M 403.515625 32.105469 C 403.515625 33.75 402.183594 35.085938 400.535156 35.085938 C 398.894531 35.085938 397.5625 33.75 397.5625 32.105469 C 397.5625 30.464844 398.894531 29.132812 400.535156 29.132812 C 402.183594 29.132812 403.515625 30.464844 403.515625 32.105469 "/>
<path style=" stroke:none;fill-rule:nonzero;fill:rgb(13.729858%,12.159729%,12.548828%);fill-opacity:1;" d="M 403.515625 32.105469 L 402.765625 32.105469 C 402.761719 33.335938 401.765625 34.332031 400.535156 34.335938 C 399.308594 34.332031 398.3125 33.335938 398.3125 32.105469 C 398.3125 30.878906 399.308594 29.882812 400.535156 29.882812 C 401.765625 29.882812 402.761719 30.878906 402.765625 32.105469 L 404.265625 32.105469 C 404.261719 30.050781 402.597656 28.382812 400.535156 28.382812 C 398.480469 28.382812 396.8125 30.050781 396.8125 32.105469 C 396.8125 34.164062 398.480469 35.832031 400.535156 35.835938 C 402.597656 35.832031 404.261719 34.164062 404.265625 32.105469 L 403.515625 32.105469 "/>
<path style=" stroke:none;fill-rule:nonzero;fill:rgb(13.729858%,12.159729%,12.548828%);fill-opacity:1;" d="M 237.488281 51.363281 L 261.300781 34.699219 L 260.441406 33.46875 L 236.628906 50.136719 "/>
<path style=" stroke:none;fill-rule:nonzero;fill:rgb(13.729858%,12.159729%,12.548828%);fill-opacity:1;" d="M 227.152344 9.429688 L 399.558594 9.832031 L 399.5625 8.332031 L 227.15625 7.929688 "/>
<path style=" stroke:none;fill-rule:nonzero;fill:rgb(13.729858%,12.159729%,12.548828%);fill-opacity:1;" d="M 227.191406 56.964844 L 399.546875 54.773438 L 399.527344 53.273438 L 227.171875 55.464844 "/>
<path style=" stroke:none;fill-rule:nonzero;fill:rgb(13.729858%,12.159729%,12.548828%);fill-opacity:1;" d="M 223.964844 5.761719 L 459.679688 5.761719 L 459.679688 7.261719 L 223.964844 7.261719 Z "/>
<g clip-path="url(#clip5)" clip-rule="nonzero">
<g clip-path="url(#clip6)" clip-rule="nonzero">
<path style=" stroke:none;fill-rule:nonzero;fill:url(#linear0);" d="M 0.75 21.582031 L 0.75 63.25 L 42.417969 63.25 L 42.417969 21.582031 Z "/>
</g>
</g>
<g clip-path="url(#clip7)" clip-rule="nonzero">
<path style=" stroke:none;fill-rule:nonzero;fill:rgb(13.729858%,12.159729%,12.548828%);fill-opacity:1;" d="M 42.417969 42.417969 L 41.667969 42.417969 C 41.664062 47.964844 39.421875 52.980469 35.785156 56.617188 C 32.148438 60.253906 27.132812 62.5 21.585938 62.5 C 16.035156 62.5 11.019531 60.253906 7.382812 56.617188 C 3.746094 52.980469 1.5 47.964844 1.5 42.417969 C 1.5 36.867188 3.746094 31.851562 7.382812 28.214844 C 11.019531 24.578125 16.035156 22.332031 21.585938 22.332031 C 27.132812 22.332031 32.148438 24.578125 35.785156 28.214844 C 39.421875 31.851562 41.664062 36.867188 41.667969 42.417969 L 43.167969 42.417969 C 43.164062 30.496094 33.503906 20.835938 21.585938 20.832031 C 9.664062 20.835938 0 30.496094 0 42.417969 C 0 54.335938 9.664062 64 21.585938 64 C 33.503906 64 43.164062 54.335938 43.167969 42.417969 L 42.417969 42.417969 "/>
</g>
<path style=" stroke:none;fill-rule:nonzero;fill:rgb(13.729858%,12.159729%,12.548828%);fill-opacity:1;" d="M 42.417969 41.667969 L 58.488281 41.667969 L 58.488281 43.167969 L 42.417969 43.167969 Z "/>
</g>
</svg>