<?xml version="1.0" encoding="UTF-8"?><svg xmlns="http://www.w3.org/2000/svg" xmlns:xlink="http://www.w3.org/1999/xlink" viewBox="0 0 391 261" width="173.448pt" height="115.77986700767264pt" version="1.2">
<defs>
<clipPath id="clip1">
  <path d="M 92 0.355469 L 109 0.355469 L 109 6 L 92 6 Z "/>
</clipPath>
<clipPath id="clip2">
  <path d="M 89 0.355469 L 390.042969 0.355469 L 390.042969 156 L 89 156 Z "/>
</clipPath>
</defs>
<g id="surface1">
<path style="fill:none;stroke-width:2;stroke-linecap:butt;stroke-linejoin:miter;stroke:rgb(13.729858%,12.159729%,12.548828%);stroke-opacity:1;stroke-miterlimit:4;" d="M 0 1 L 125 1 M 125 1 L 264.285156 145.046875 M 264.285156 145.046875 L 232.144531 177.191406 M 232.144531 177.191406 L 210.714844 155.761719 M 210.714844 155.761719 L 26.191406 155.761719 M 15.476562 115.285156 L 53 1 M 75 1 L 75 1 M 53 1 L 215.476562 165.285156 M 215.476562 165.285156 L 200 184.332031 M 200 184.332031 L 175 156.953125 M 36.90625 229.570312 L 100 229.570312 " transform="matrix(1,0,0,-1,0,261)"/>
<g clip-path="url(#clip1)" clip-rule="nonzero">
<path style="fill:none;stroke-width:5;stroke-linecap:butt;stroke-linejoin:miter;stroke:rgb(13.729858%,12.159729%,12.548828%);stroke-opacity:1;stroke-miterlimit:4;" d="M 95.238281 258.144531 L 105.953125 258.144531 " transform="matrix(1,0,0,-1,0,261)"/>
</g>
<g clip-path="url(#clip2)" clip-rule="nonzero">
<path style="fill:none;stroke-width:2;stroke-linecap:butt;stroke-linejoin:miter;stroke:rgb(13.729858%,12.159729%,12.548828%);stroke-opacity:1;stroke-miterlimit:4;" d="M 252.382812 116.476562 L 297.621094 116.476562 M 273.808594 117.664062 L 389.285156 216.476562 M 389.285156 216.476562 L 373.808594 234.332031 M 373.808594 234.332031 L 348.808594 211.714844 M 348.808594 211.714844 L 309.523438 211.714844 M 323.808594 212.90625 L 323.808594 228.382812 M 233.335938 220.046875 L 233.335938 220.046875 M 323.808594 220.046875 L 215.476562 220.046875 M 215.476562 220.046875 L 295.238281 135.523438 M 314.285156 153.382812 L 297.621094 170.046875 M 101.191406 255.761719 L 101.191406 154.570312 " transform="matrix(1,0,0,-1,0,261)"/>
</g>
</g>
</svg>