<?xml version="1.0" encoding="UTF-8"?><svg xmlns="http://www.w3.org/2000/svg" xmlns:xlink="http://www.w3.org/1999/xlink" viewBox="0 0 229 91" width="216.81pt" height="86.15593886462882pt" version="1.2">
<g id="surface1">
<path style="fill:none;stroke-width:1;stroke-linecap:butt;stroke-linejoin:miter;stroke:rgb(0%,0%,0%);stroke-opacity:1;stroke-miterlimit:4;" d="M 74 -544.5 C 74 -544.5 117 -544.5 117 -544.5 " transform="matrix(1,0,0,1,-65,586)"/>
<path style="fill:none;stroke-width:1;stroke-linecap:butt;stroke-linejoin:miter;stroke:rgb(0%,0%,0%);stroke-opacity:1;stroke-miterlimit:4;" d="M 116.5 -544.5 C 116.5 -533.5 112.933594 -529.5 111 -529.5 " transform="matrix(1,0,0,1,-65,586)"/>
<path style="fill:none;stroke-width:1;stroke-linecap:butt;stroke-linejoin:miter;stroke:rgb(0%,0%,0%);stroke-opacity:1;stroke-miterlimit:4;" d="M 175.832031 -560.167969 C 175.832031 -538.792969 165 -518.5 131.5 -520.5 " transform="matrix(1,0,0,1,-65,586)"/>
<path style="fill:none;stroke-width:1;stroke-linecap:butt;stroke-linejoin:miter;stroke:rgb(0%,0%,0%);stroke-opacity:1;stroke-miterlimit:4;" d="M 132 -561.5 C 132 -561.5 132 -520.5 132 -520.5 " transform="matrix(1,0,0,1,-65,586)"/>
<path style="fill:none;stroke-width:1;stroke-linecap:butt;stroke-linejoin:miter;stroke:rgb(0%,0%,0%);stroke-opacity:1;stroke-miterlimit:4;" d="M 131 -560.5 C 131 -560.5 176.5 -560.5 176.5 -560.5 " transform="matrix(1,0,0,1,-65,586)"/>
<path style="fill:none;stroke-width:1;stroke-linecap:butt;stroke-linejoin:miter;stroke:rgb(0%,0%,0%);stroke-opacity:1;stroke-miterlimit:4;" d="M 192.5 -576.667969 C 192.5 -576.667969 239.5 -539.332031 239.5 -539.332031 " transform="matrix(1,0,0,1,-65,586)"/>
<path style=" stroke:none;fill-rule:evenodd;fill:rgb(0%,0%,0%);fill-opacity:1;" d="M 183.070312 52.796875 C 183.070312 52.796875 182.113281 53.953125 182.113281 53.953125 C 182.113281 53.953125 184.09375 55.59375 184.09375 55.59375 C 184.09375 55.59375 185.050781 54.4375 185.050781 54.4375 C 185.050781 54.4375 183.070312 52.796875 183.070312 52.796875 Z "/>
<path style=" stroke:none;fill-rule:evenodd;fill:rgb(0%,0%,0%);fill-opacity:1;" d="M 179.519531 49.859375 C 179.519531 49.859375 178.5625 51.011719 178.5625 51.011719 C 178.5625 51.011719 180.542969 52.652344 180.542969 52.652344 C 180.542969 52.652344 181.5 51.496094 181.5 51.496094 C 181.5 51.496094 179.519531 49.859375 179.519531 49.859375 Z "/>
<path style=" stroke:none;fill-rule:evenodd;fill:rgb(0%,0%,0%);fill-opacity:1;" d="M 175.980469 46.925781 C 175.980469 46.925781 175.023438 48.082031 175.023438 48.082031 C 175.023438 48.082031 177.003906 49.722656 177.003906 49.722656 C 177.003906 49.722656 177.960938 48.566406 177.960938 48.566406 C 177.960938 48.566406 175.980469 46.925781 175.980469 46.925781 Z "/>
<path style=" stroke:none;fill-rule:evenodd;fill:rgb(0%,0%,0%);fill-opacity:1;" d="M 193.738281 61.632812 C 193.738281 61.632812 192.78125 62.785156 192.78125 62.785156 C 192.78125 62.785156 194.761719 64.425781 194.761719 64.425781 C 194.761719 64.425781 195.71875 63.273438 195.71875 63.273438 C 195.71875 63.273438 193.738281 61.632812 193.738281 61.632812 Z "/>
<path style=" stroke:none;fill-rule:evenodd;fill:rgb(0%,0%,0%);fill-opacity:1;" d="M 190.1875 58.691406 C 190.1875 58.691406 189.230469 59.847656 189.230469 59.847656 C 189.230469 59.847656 191.210938 61.484375 191.210938 61.484375 C 191.210938 61.484375 192.164062 60.332031 192.164062 60.332031 C 192.164062 60.332031 190.1875 58.691406 190.1875 58.691406 Z "/>
<path style=" stroke:none;fill-rule:evenodd;fill:rgb(0%,0%,0%);fill-opacity:1;" d="M 186.648438 55.761719 C 186.648438 55.761719 185.691406 56.914062 185.691406 56.914062 C 185.691406 56.914062 187.667969 58.554688 187.667969 58.554688 C 187.667969 58.554688 188.625 57.398438 188.625 57.398438 C 188.625 57.398438 186.648438 55.761719 186.648438 55.761719 Z "/>
<path style=" stroke:none;fill-rule:evenodd;fill:rgb(0%,0%,0%);fill-opacity:1;" d="M 204.40625 70.464844 C 204.40625 70.464844 203.449219 71.621094 203.449219 71.621094 C 203.449219 71.621094 205.425781 73.261719 205.425781 73.261719 C 205.425781 73.261719 206.382812 72.105469 206.382812 72.105469 C 206.382812 72.105469 204.40625 70.464844 204.40625 70.464844 Z "/>
<path style=" stroke:none;fill-rule:evenodd;fill:rgb(0%,0%,0%);fill-opacity:1;" d="M 200.851562 67.523438 C 200.851562 67.523438 199.898438 68.679688 199.898438 68.679688 C 199.898438 68.679688 201.875 70.320312 201.875 70.320312 C 201.875 70.320312 202.832031 69.164062 202.832031 69.164062 C 202.832031 69.164062 200.851562 67.523438 200.851562 67.523438 Z "/>
<path style=" stroke:none;fill-rule:evenodd;fill:rgb(0%,0%,0%);fill-opacity:1;" d="M 197.3125 64.59375 C 197.3125 64.59375 196.355469 65.75 196.355469 65.75 C 196.355469 65.75 198.335938 67.386719 198.335938 67.386719 C 198.335938 67.386719 199.292969 66.234375 199.292969 66.234375 C 199.292969 66.234375 197.3125 64.59375 197.3125 64.59375 Z "/>
<path style=" stroke:none;fill-rule:evenodd;fill:rgb(0%,0%,0%);fill-opacity:1;" d="M 215.070312 79.300781 C 215.070312 79.300781 214.113281 80.453125 214.113281 80.453125 C 214.113281 80.453125 216.09375 82.09375 216.09375 82.09375 C 216.09375 82.09375 217.050781 80.9375 217.050781 80.9375 C 217.050781 80.9375 215.070312 79.300781 215.070312 79.300781 Z "/>
<path style=" stroke:none;fill-rule:evenodd;fill:rgb(0%,0%,0%);fill-opacity:1;" d="M 211.519531 76.359375 C 211.519531 76.359375 210.5625 77.511719 210.5625 77.511719 C 210.5625 77.511719 212.542969 79.152344 212.542969 79.152344 C 212.542969 79.152344 213.5 77.996094 213.5 77.996094 C 213.5 77.996094 211.519531 76.359375 211.519531 76.359375 Z "/>
<path style=" stroke:none;fill-rule:evenodd;fill:rgb(0%,0%,0%);fill-opacity:1;" d="M 207.980469 73.425781 C 207.980469 73.425781 207.023438 74.582031 207.023438 74.582031 C 207.023438 74.582031 209.003906 76.222656 209.003906 76.222656 C 209.003906 76.222656 209.960938 75.066406 209.960938 75.066406 C 209.960938 75.066406 207.980469 73.425781 207.980469 73.425781 Z "/>
<path style="fill-rule:nonzero;fill:rgb(0%,0%,0%);fill-opacity:1;stroke-width:1;stroke-linecap:butt;stroke-linejoin:miter;stroke:rgb(0%,0%,0%);stroke-opacity:1;stroke-miterlimit:4;" d="M 241.875 -538.75 C 241.875 -537.800781 241.035156 -537.03125 240 -537.03125 C 238.964844 -537.03125 238.125 -537.800781 238.125 -538.75 C 238.125 -539.699219 238.964844 -540.46875 240 -540.46875 C 241.035156 -540.46875 241.875 -539.699219 241.875 -538.75 Z " transform="matrix(1,0,0,1,-65,586)"/>
<path style="fill:none;stroke-width:1;stroke-linecap:butt;stroke-linejoin:miter;stroke:rgb(0%,0%,0%);stroke-opacity:1;stroke-miterlimit:4;" d="M 238.832031 -576.167969 C 240 -551.5 225 -534.5 194.5 -536.5 " transform="matrix(1,0,0,1,-65,586)"/>
<path style="fill:none;stroke-width:1;stroke-linecap:butt;stroke-linejoin:miter;stroke:rgb(0%,0%,0%);stroke-opacity:1;stroke-miterlimit:4;" d="M 193 -576.5 C 193 -576.5 195 -536.5 195 -536.5 " transform="matrix(1,0,0,1,-65,586)"/>
<path style="fill:none;stroke-width:1;stroke-linecap:butt;stroke-linejoin:miter;stroke:rgb(0%,0%,0%);stroke-opacity:1;stroke-miterlimit:4;" d="M 193 -576.5 C 193 -576.5 239.5 -576.5 239.5 -576.5 " transform="matrix(1,0,0,1,-65,586)"/>
</g>
</svg>