<?xml version="1.0" encoding="UTF-8"?><svg xmlns="http://www.w3.org/2000/svg" xmlns:xlink="http://www.w3.org/1999/xlink" viewBox="0 0 258 147" width="173.448pt" height="98.82502325581396pt" version="1.2">
<defs>
<clipPath id="clip1">
  <path d="M 0 0.652344 L 257.347656 0.652344 L 257.347656 147 L 0 147 Z "/>
</clipPath>
</defs>
<g id="surface1">
<g clip-path="url(#clip1)" clip-rule="nonzero">
<path style="fill:none;stroke-width:2;stroke-linecap:butt;stroke-linejoin:miter;stroke:rgb(13.729858%,12.159729%,12.548828%);stroke-opacity:1;stroke-miterlimit:4;" d="M 0.890625 145.25 L 146.085938 145.25 M 1 146.347656 L 1 109.347656 M 73.890625 29.25 L 219.085938 29.25 M 83.921875 29.347656 C 83.921875 23.867188 79.480469 19.425781 74 19.425781 C 68.519531 19.425781 64.078125 23.867188 64.078125 29.347656 C 64.078125 34.824219 68.519531 39.269531 74 39.269531 C 79.480469 39.269531 83.921875 34.824219 83.921875 29.347656 Z M 237.921875 29.347656 C 237.921875 23.867188 233.480469 19.425781 228 19.425781 C 222.519531 19.425781 218.078125 23.867188 218.078125 29.347656 C 218.078125 34.824219 222.519531 39.269531 228 39.269531 C 233.480469 39.269531 237.921875 34.824219 237.921875 29.347656 Z M 256.347656 29.347656 C 256.347656 13.691406 243.65625 1 228 1 C 212.34375 1 199.652344 13.691406 199.652344 29.347656 C 199.652344 45.003906 212.34375 57.695312 228 57.695312 C 243.65625 57.695312 256.347656 45.003906 256.347656 29.347656 Z " transform="matrix(1,0,0,-1,0,147)"/>
</g>
</g>
</svg>