<?xml version="1.0" encoding="UTF-8"?><svg xmlns="http://www.w3.org/2000/svg" xmlns:xlink="http://www.w3.org/1999/xlink" viewBox="0 0 108 78" width="21.681pt" height="15.6585pt" version="1.2">
<defs>
<clipPath id="clip1">
  <path d="M 0 0.5 L 108 0.5 L 108 77.941406 L 0 77.941406 Z "/>
</clipPath>
</defs>
<g id="surface1">
<g clip-path="url(#clip1)" clip-rule="nonzero">
<path style="fill:none;stroke-width:3;stroke-linecap:butt;stroke-linejoin:miter;stroke:rgb(13.729858%,12.159729%,12.548828%);stroke-opacity:1;stroke-miterlimit:4;" d="M 0 39 L 108 39 M 66.5 57.75 C 66.5 47.671875 58.328125 39.5 48.25 39.5 C 38.171875 39.5 30 47.671875 30 57.75 C 30 67.828125 38.171875 76 48.25 76 C 58.328125 76 66.5 67.828125 66.5 57.75 Z M 77.5 19.75 C 77.5 9.671875 69.328125 1.5 59.25 1.5 C 49.171875 1.5 41 9.671875 41 19.75 C 41 29.828125 49.171875 38 59.25 38 C 69.328125 38 77.5 29.828125 77.5 19.75 Z " transform="matrix(1,0,0,-1,0,78)"/>
</g>
</g>
</svg>