<?xml version="1.0" encoding="UTF-8"?><svg xmlns="http://www.w3.org/2000/svg" xmlns:xlink="http://www.w3.org/1999/xlink" viewBox="0 0 331 225" width="86.724pt" height="58.951359516616314pt" version="1.2">
<defs>
<clipPath id="clip1">
  <path d="M 0 0.648438 L 330.652344 0.648438 L 330.652344 225 L 0 225 Z "/>
</clipPath>
</defs>
<g id="surface1">
<g clip-path="url(#clip1)" clip-rule="nonzero">
<path style="fill:none;stroke-width:2;stroke-linecap:butt;stroke-linejoin:miter;stroke:rgb(13.729858%,12.159729%,12.548828%);stroke-opacity:1;stroke-miterlimit:4;" d="M 14.09375 145.546875 L 299.078125 198.699219 M 299.078125 198.699219 L 329.664062 15.203125 M 329.664062 15.203125 L 285.417969 39.773438 M 285.417969 39.773438 L 173.902344 18.972656 M 173.902344 18.972656 L 159.855469 103.230469 M 159.855469 103.230469 L 87.285156 89.695312 M 14.09375 145.546875 L 0.984375 224.1875 M 87.285156 89.695312 L 76.148438 112.714844 M 76.148438 112.714844 L 12.722656 0.492188 " transform="matrix(1,0,0,-1,0,225)"/>
</g>
<path style="fill:none;stroke-width:2;stroke-linecap:butt;stroke-linejoin:miter;stroke:rgb(13.729858%,12.159729%,12.548828%);stroke-opacity:1;stroke-dasharray:2,2;stroke-miterlimit:4;" d="M 113.835938 94.644531 L 121.011719 51.582031 " transform="matrix(1,0,0,-1,0,225)"/>
<path style="fill:none;stroke-width:2;stroke-linecap:butt;stroke-linejoin:miter;stroke:rgb(13.729858%,12.159729%,12.548828%);stroke-opacity:1;stroke-miterlimit:4;" d="M 120.703125 53.453125 L 127.570312 12.261719 " transform="matrix(1,0,0,-1,0,225)"/>
<path style="fill:none;stroke-width:2;stroke-linecap:butt;stroke-linejoin:miter;stroke:rgb(13.729858%,12.159729%,12.548828%);stroke-opacity:1;stroke-dasharray:2,2;stroke-miterlimit:4;" d="M 120.703125 53.453125 L 237.527344 75.242188 M 237.527344 75.242188 L 257.414062 65.4375 M 257.101562 67.3125 L 247.738281 123.484375 M 247.738281 123.484375 L 221.1875 118.53125 M 221.1875 118.53125 L 215.671875 140.671875 " transform="matrix(1,0,0,-1,0,225)"/>
</g>
</svg>