<?xml version="1.0" encoding="UTF-8"?><svg xmlns="http://www.w3.org/2000/svg" xmlns:xlink="http://www.w3.org/1999/xlink" viewBox="0 0 12.2991 14.3461" width="8.6724pt" height="10.115790394419104pt" version="1.2">
<defs>
<clipPath id="clip1">
  <path d="M 0 5 L 11.636719 5 L 11.636719 13.648438 L 0 13.648438 Z "/>
</clipPath>
<clipPath id="clip2">
  <path d="M 0 1 L 11.636719 1 L 11.636719 13.648438 L 0 13.648438 Z "/>
</clipPath>
<clipPath id="clip3">
  <path d="M 2 0.078125 L 10 0.078125 L 10 7 L 2 7 Z "/>
</clipPath>
<clipPath id="clip4">
  <path d="M 0 0.078125 L 11.636719 0.078125 L 11.636719 13 L 0 13 Z "/>
</clipPath>
</defs>
<g id="surface1">
<g clip-path="url(#clip1)" clip-rule="nonzero">
<path style="fill:none;stroke-width:1;stroke-linecap:butt;stroke-linejoin:miter;stroke:rgb(0%,0%,0%);stroke-opacity:1;stroke-miterlimit:4;" d="M 302.041149 -389.395391 C 302.041149 -389.395391 310.166744 -389.395391 310.166744 -389.395391 " transform="matrix(0.946085,0,0,0.946085,-283.733047,378.787707)"/>
</g>
<g clip-path="url(#clip2)" clip-rule="nonzero">
<path style="fill:none;stroke-width:1;stroke-linecap:butt;stroke-linejoin:miter;stroke:rgb(0%,0%,0%);stroke-opacity:1;stroke-miterlimit:4;" d="M 306.042013 -386.166623 C 306.042013 -386.166623 306.000725 -393.082462 306.000725 -393.082462 " transform="matrix(0.946085,0,0,0.946085,-283.733047,378.787707)"/>
</g>
<g clip-path="url(#clip3)" clip-rule="nonzero">
<path style=" stroke:none;fill-rule:nonzero;fill:rgb(100%,100%,100%);fill-opacity:1;" d="M 9.039062 6.9375 C 9.039062 6.9375 2.457031 6.9375 2.457031 6.9375 C 2.457031 6.9375 2.457031 0.789062 2.457031 0.789062 C 2.457031 0.789062 9.039062 0.789062 9.039062 0.789062 C 9.039062 0.789062 9.039062 6.9375 9.039062 6.9375 Z "/>
</g>
<g clip-path="url(#clip4)" clip-rule="nonzero">
<path style="fill:none;stroke-width:1;stroke-linecap:butt;stroke-linejoin:miter;stroke:rgb(0%,0%,0%);stroke-opacity:1;stroke-miterlimit:4;" d="M 309.45658 -393.041174 C 309.45658 -393.041174 302.499452 -393.041174 302.499452 -393.041174 C 302.499452 -393.041174 302.499452 -399.539998 302.499452 -399.539998 C 302.499452 -399.539998 309.45658 -399.539998 309.45658 -399.539998 C 309.45658 -399.539998 309.45658 -393.041174 309.45658 -393.041174 Z " transform="matrix(0.946085,0,0,0.946085,-283.733047,378.787707)"/>
</g>
</g>
</svg>