<?xml version="1.0" encoding="UTF-8"?><svg xmlns="http://www.w3.org/2000/svg" xmlns:xlink="http://www.w3.org/1999/xlink" viewBox="0 0 159.328 154.173" width="260.172pt" height="251.7542287356899pt" version="1.2">
<defs>
<clipPath id="clip1">
  <path d="M 53 112 L 105 112 L 105 153.351562 L 53 153.351562 Z "/>
</clipPath>
<clipPath id="clip2">
  <path d="M 118 85 L 158.570312 85 L 158.570312 136 L 118 136 Z "/>
</clipPath>
<clipPath id="clip3">
  <path d="M 0.0898438 86 L 41 86 L 41 137 L 0.0898438 137 Z "/>
</clipPath>
</defs>
<g id="surface1">
<path style="fill:none;stroke-width:2;stroke-linecap:butt;stroke-linejoin:miter;stroke:rgb(13.74054%,11.795044%,12.173462%);stroke-opacity:1;stroke-miterlimit:4;" d="M 0.00141408 -0.0003 L 0.00141408 -124.999261 " transform="matrix(0.994665,0,0,-0.994665,78.822812,-0.000298399)"/>
<g clip-path="url(#clip1)" clip-rule="nonzero">
<path style="fill:none;stroke-width:2;stroke-linecap:butt;stroke-linejoin:miter;stroke:rgb(13.74054%,11.795044%,12.173462%);stroke-opacity:1;stroke-miterlimit:4;" d="M 0.00139162 0.00025822 C 0.00139162 -7.826658 -6.344969 -14.173019 -14.171886 -14.173019 C -22.00273 -14.173019 -28.345163 -7.826658 -28.345163 0.00025822 C -28.345163 7.827175 -22.00273 14.173536 -14.171886 14.173536 C -6.344969 14.173536 0.00139162 7.827175 0.00139162 0.00025822 Z " transform="matrix(0.994665,0,0,-0.994665,92.920491,138.258069)"/>
</g>
<path style="fill:none;stroke-width:2;stroke-linecap:butt;stroke-linejoin:miter;stroke:rgb(13.74054%,11.795044%,12.173462%);stroke-opacity:1;stroke-dasharray:5;stroke-miterlimit:4;" d="M -0.00142747 -0.00162929 L 55.156146 -96.567637 " transform="matrix(0.994665,0,0,-0.994665,80.65767,1.424161)"/>
<g clip-path="url(#clip2)" clip-rule="nonzero">
<path style="fill:none;stroke-width:2;stroke-linecap:butt;stroke-linejoin:miter;stroke:rgb(13.74054%,11.795044%,12.173462%);stroke-opacity:1;stroke-miterlimit:4;" d="M -0.000116869 0.000942808 C 5.533313 -5.536414 5.533313 -14.510074 -0.000116869 -20.043504 C -5.537474 -25.580861 -14.511134 -25.580861 -20.044564 -20.043504 C -25.581921 -14.510074 -25.581921 -5.536414 -20.044564 0.000942808 C -14.511134 5.534373 -5.533547 5.534373 -0.000116869 0.000942808 Z " transform="matrix(0.994665,0,0,-0.994665,153.445429,100.438438)"/>
</g>
<path style="fill:none;stroke-width:2;stroke-linecap:butt;stroke-linejoin:miter;stroke:rgb(13.74054%,11.795044%,12.173462%);stroke-opacity:1;stroke-dasharray:5;stroke-miterlimit:4;" d="M 0.00190133 0.000861014 L -55.155672 -96.569074 " transform="matrix(0.994665,0,0,-0.994665,78.002015,2.418825)"/>
<g clip-path="url(#clip3)" clip-rule="nonzero">
<path style="fill:none;stroke-width:2;stroke-linecap:butt;stroke-linejoin:miter;stroke:rgb(13.74054%,11.795044%,12.173462%);stroke-opacity:1;stroke-miterlimit:4;" d="M 0.00109074 -0.000494092 C -5.536266 -5.533924 -5.532339 -14.511511 0.00109074 -20.044941 C 5.538448 -25.578371 14.508181 -25.578371 20.045538 -20.044941 C 25.582895 -14.511511 25.582895 -5.537851 20.045538 -0.000494092 C 14.508181 5.532936 5.534521 5.536863 0.00109074 -0.000494092 Z " transform="matrix(0.994665,0,0,-0.994665,5.213759,101.433102)"/>
</g>
</g>
</svg>