<?xml version="1.0" encoding="UTF-8"?><svg xmlns="http://www.w3.org/2000/svg" xmlns:xlink="http://www.w3.org/1999/xlink" viewBox="0 0 136.487 120.711" width="117.0774pt" height="103.5448799621942pt" version="1.2">
<defs>
<clipPath id="clip1">
  <path d="M 0 96 L 30 96 L 30 120.339844 L 0 120.339844 Z "/>
</clipPath>
<clipPath id="clip2">
  <path d="M 107 72 L 135.976562 72 L 135.976562 110 L 107 110 Z "/>
</clipPath>
<clipPath id="clip3">
  <path d="M 0 102 L 35 102 L 35 120.339844 L 0 120.339844 Z "/>
</clipPath>
<clipPath id="clip4">
  <path d="M 0 84 L 25 84 L 25 120.339844 L 0 120.339844 Z "/>
</clipPath>
<clipPath id="clip5">
  <path d="M 0 84 L 35 84 L 35 120.339844 L 0 120.339844 Z "/>
</clipPath>
<clipPath id="clip6">
  <path d="M 101 78 L 135.976562 78 L 135.976562 111 L 101 111 Z "/>
</clipPath>
<clipPath id="clip7">
  <path d="M 111 59 L 135.976562 59 L 135.976562 107 L 111 107 Z "/>
</clipPath>
<clipPath id="clip8">
  <path d="M 101 59 L 135.976562 59 L 135.976562 107 L 101 107 Z "/>
</clipPath>
<clipPath id="clip9">
  <path d="M 108 0.0820312 L 110 0.0820312 L 110 2 L 108 2 Z "/>
</clipPath>
<clipPath id="clip10">
  <path d="M 97 0.0820312 L 122 0.0820312 L 122 14 L 97 14 Z "/>
</clipPath>
<clipPath id="clip11">
  <path d="M 114 29 L 135.976562 29 L 135.976562 87 L 114 87 Z "/>
</clipPath>
<clipPath id="clip12">
  <path d="M 113 62 L 135.976562 62 L 135.976562 87 L 113 87 Z "/>
</clipPath>
<clipPath id="clip13">
  <path d="M 86 0.0820312 L 135.976562 0.0820312 L 135.976562 63 L 86 63 Z "/>
</clipPath>
<clipPath id="clip14">
  <path d="M 94 0.0820312 L 135.976562 0.0820312 L 135.976562 56 L 94 56 Z "/>
</clipPath>
</defs>
<g id="surface1">
<path style=" stroke:none;fill-rule:nonzero;fill:rgb(100%,100%,100%);fill-opacity:1;" d="M 15.078125 115.164062 C 15.078125 117.503906 13.183594 119.398438 10.84375 119.398438 C 8.503906 119.398438 6.605469 117.503906 6.605469 115.164062 C 6.605469 112.824219 8.503906 110.925781 10.84375 110.925781 C 13.183594 110.925781 15.078125 112.824219 15.078125 115.164062 "/>
<g clip-path="url(#clip1)" clip-rule="nonzero">
<path style="fill:none;stroke-width:1;stroke-linecap:butt;stroke-linejoin:miter;stroke:rgb(13.729858%,12.159729%,12.548828%);stroke-opacity:1;stroke-miterlimit:10;" d="M -0.00140236 -0.000365948 C -0.00140236 -2.349004 -1.903054 -4.250656 -4.251693 -4.250656 C -6.600331 -4.250656 -8.505904 -2.349004 -8.505904 -0.000365948 C -8.505904 2.348272 -6.600331 4.253845 -4.251693 4.253845 C -1.903054 4.253845 -0.00140236 2.348272 -0.00140236 -0.000365948 Z " transform="matrix(0.996255,0,0,-0.996255,15.079522,115.163698)"/>
</g>
<path style=" stroke:none;fill-rule:nonzero;fill:rgb(100%,100%,100%);fill-opacity:1;" d="M 130.300781 91.316406 C 130.300781 93.65625 128.40625 95.550781 126.066406 95.550781 C 123.726562 95.550781 121.828125 93.65625 121.828125 91.316406 C 121.828125 88.976562 123.726562 87.078125 126.066406 87.078125 C 128.40625 87.078125 130.300781 88.976562 130.300781 91.316406 "/>
<g clip-path="url(#clip2)" clip-rule="nonzero">
<path style="fill:none;stroke-width:1;stroke-linecap:butt;stroke-linejoin:miter;stroke:rgb(13.729858%,12.159729%,12.548828%);stroke-opacity:1;stroke-miterlimit:10;" d="M -0.00097027 -0.000575904 C -0.00097027 -2.349214 -1.902622 -4.250866 -4.251261 -4.250866 C -6.599899 -4.250866 -8.505472 -2.349214 -8.505472 -0.000575904 C -8.505472 2.348062 -6.599899 4.253635 -4.251261 4.253635 C -1.902622 4.253635 -0.00097027 2.348062 -0.00097027 -0.000575904 Z " transform="matrix(0.996255,0,0,-0.996255,130.301748,91.315833)"/>
</g>
<path style=" stroke:none;fill-rule:nonzero;fill:rgb(100%,100%,100%);fill-opacity:1;" d="M 72.972656 41.050781 C 72.972656 43.390625 71.074219 45.285156 68.738281 45.285156 C 66.398438 45.285156 64.5 43.390625 64.5 41.050781 C 64.5 38.710938 66.398438 36.816406 68.738281 36.816406 C 71.074219 36.816406 72.972656 38.710938 72.972656 41.050781 "/>
<path style="fill:none;stroke-width:1.5;stroke-linecap:butt;stroke-linejoin:miter;stroke:rgb(13.729858%,12.159729%,12.548828%);stroke-opacity:1;stroke-miterlimit:10;" d="M -0.000168745 -0.00012254 C -0.000168745 -2.348761 -1.905742 -4.250413 -4.250459 -4.250413 C -6.599097 -4.250413 -8.50467 -2.348761 -8.50467 -0.00012254 C -8.50467 2.348516 -6.599097 4.250168 -4.250459 4.250168 C -1.905742 4.250168 -0.000168745 2.348516 -0.000168745 -0.00012254 Z " transform="matrix(0.996255,0,0,-0.996255,72.972824,41.050659)"/>
<path style="fill:none;stroke-width:1;stroke-linecap:butt;stroke-linejoin:miter;stroke:rgb(13.729858%,12.159729%,12.548828%);stroke-opacity:1;stroke-miterlimit:10;" d="M -0.000496881 -0.00012254 L 113.385016 -0.00012254 " transform="matrix(0.996255,0,0,-0.996255,11.832526,41.050659)"/>
<path style="fill:none;stroke-width:2;stroke-linecap:butt;stroke-linejoin:miter;stroke:rgb(13.729858%,12.159729%,12.548828%);stroke-opacity:1;stroke-miterlimit:10;" d="M 0.00154093 0.00158714 L 0.00154093 28.346005 " transform="matrix(0.996255,0,0,-0.996255,68.736746,45.286737)"/>
<g clip-path="url(#clip3)" clip-rule="nonzero">
<path style="fill:none;stroke-width:1;stroke-linecap:butt;stroke-linejoin:miter;stroke:rgb(13.729858%,12.159729%,12.548828%);stroke-opacity:1;stroke-miterlimit:10;" d="M 0.00164439 0.00162182 C 4.408772 -4.456478 15.587349 -4.519213 20.045449 -0.112085 " transform="matrix(0.996255,0,0,-0.996255,0.435862,116.474272)"/>
</g>
<g clip-path="url(#clip4)" clip-rule="nonzero">
<path style="fill:none;stroke-width:1;stroke-linecap:butt;stroke-linejoin:miter;stroke:rgb(13.729858%,12.159729%,12.548828%);stroke-opacity:1;stroke-miterlimit:10;" d="M 0.00164439 -0.00103425 L 10.447007 18.874333 " transform="matrix(0.996255,0,0,-0.996255,0.435862,117.041938)"/>
</g>
<g clip-path="url(#clip5)" clip-rule="nonzero">
<path style="fill:none;stroke-width:1;stroke-linecap:butt;stroke-linejoin:miter;stroke:rgb(13.729858%,12.159729%,12.548828%);stroke-opacity:1;stroke-miterlimit:10;" d="M 0.00154893 -0.00103425 L -9.596893 18.874333 " transform="matrix(0.996255,0,0,-0.996255,20.404707,117.041938)"/>
</g>
<g clip-path="url(#clip6)" clip-rule="nonzero">
<path style="fill:none;stroke-width:1;stroke-linecap:butt;stroke-linejoin:miter;stroke:rgb(13.729858%,12.159729%,12.548828%);stroke-opacity:1;stroke-miterlimit:10;" d="M -0.00134445 -0.000704483 C 4.409704 -4.458804 15.58436 -4.521539 20.04246 -0.110491 " transform="matrix(0.996255,0,0,-0.996255,115.657589,92.776642)"/>
</g>
<g clip-path="url(#clip7)" clip-rule="nonzero">
<path style="fill:none;stroke-width:1;stroke-linecap:butt;stroke-linejoin:miter;stroke:rgb(13.729858%,12.159729%,12.548828%);stroke-opacity:1;stroke-miterlimit:10;" d="M 0.000899428 -0.000704483 L -9.597542 18.874662 " transform="matrix(0.996255,0,0,-0.996255,135.202229,92.776642)"/>
</g>
<g clip-path="url(#clip8)" clip-rule="nonzero">
<path style="fill:none;stroke-width:1;stroke-linecap:butt;stroke-linejoin:miter;stroke:rgb(13.729858%,12.159729%,12.548828%);stroke-opacity:1;stroke-miterlimit:10;" d="M -0.00134445 -0.000704483 L 10.447939 18.874662 " transform="matrix(0.996255,0,0,-0.996255,115.657589,92.776642)"/>
</g>
<path style="fill:none;stroke-width:0.8;stroke-linecap:butt;stroke-linejoin:miter;stroke:rgb(13.729858%,12.159729%,12.548828%);stroke-opacity:1;stroke-miterlimit:10;" d="M -0.00192783 -0.000972508 C -0.00192783 0.504828 1.699757 0.504828 1.699757 1.006707 C 1.699757 1.508586 -0.00192783 1.508586 -0.00192783 2.014387 C -0.00192783 2.516266 1.699757 2.516266 1.699757 3.018145 C 1.699757 3.520024 -0.00192783 3.520024 -0.00192783 4.025825 C -0.00192783 4.527704 1.699757 4.527704 1.699757 5.029583 C 1.699757 5.531463 -0.00192783 5.531463 -0.00192783 6.033342 C -0.00192783 6.535221 1.699757 6.535221 1.699757 7.0371 C 1.699757 7.542901 -0.00192783 7.542901 -0.00192783 8.04478 C -0.00192783 8.546659 1.699757 8.546659 1.699757 9.048539 C 1.699757 9.550418 -0.00192783 9.550418 -0.00192783 10.056218 C -0.00192783 10.554177 1.699757 10.554177 1.699757 11.056056 C 1.699757 11.554014 -0.00192783 11.554014 -0.00192783 12.055893 C -0.00192783 12.557773 1.699757 12.557773 1.699757 13.055731 C 1.699757 13.55761 -0.00192783 13.55761 -0.00192783 14.055569 C -0.00192783 14.557448 1.699757 14.557448 1.699757 15.059327 C 1.699757 15.561207 -0.00192783 15.561207 -0.00192783 16.063086 C -0.00192783 16.564965 1.699757 16.564965 1.699757 17.066845 C 1.699757 17.572645 -0.00192783 17.572645 -0.00192783 18.074524 C -0.00192783 18.580324 1.699757 18.580324 1.699757 19.082204 C 1.699757 19.584083 -0.00192783 19.584083 -0.00192783 20.089883 C -0.00192783 20.591763 1.699757 20.591763 1.699757 21.093642 C 1.699757 21.595521 -0.00192783 21.595521 -0.00192783 22.0974 C -0.00192783 22.59928 1.699757 22.59928 1.699757 23.101159 C 1.699757 23.603038 -0.00192783 23.603038 -0.00192783 24.104918 C -0.00192783 24.606797 1.699757 24.606797 1.699757 25.108676 C 1.699757 25.610556 -0.00192783 25.610556 -0.00192783 26.112435 C -0.00192783 26.614314 1.699757 26.614314 1.699757 27.116193 C 1.699757 27.621994 -0.00192783 27.621994 -0.00192783 28.123873 C -0.00192783 28.629673 1.699757 28.629673 1.699757 29.131552 C 1.699757 29.637353 -0.00192783 29.637353 -0.00192783 30.139232 C -0.00192783 30.641111 1.699757 30.641111 1.699757 31.146912 C 1.699757 31.648791 -0.00192783 31.648791 -0.00192783 32.15067 C -0.00192783 32.65647 1.699757 32.65647 1.699757 33.15835 C 1.699757 33.660229 -0.00192783 33.660229 -0.00192783 34.162108 C -0.00192783 34.667909 1.699757 34.667909 1.699757 35.173709 C 1.699757 35.675588 -0.00192783 35.675588 -0.00192783 36.181388 C -0.00192783 36.683268 1.699757 36.683268 1.699757 37.189068 C 1.699757 37.690947 -0.00192783 37.690947 -0.00192783 38.196747 C -0.00192783 38.698627 1.699757 38.698627 1.699757 39.204427 C 1.699757 39.706306 -0.00192783 39.706306 -0.00192783 40.212106 C -0.00192783 40.717907 1.699757 40.717907 1.699757 41.219786 C 1.699757 41.725586 -0.00192783 41.725586 -0.00192783 42.227465 C -0.00192783 42.733266 1.699757 42.733266 1.699757 43.239066 C 1.699757 43.744866 -0.00192783 43.744866 -0.00192783 44.246745 C -0.00192783 44.748625 1.699757 44.748625 1.699757 45.254425 C 1.699757 45.756304 -0.00192783 45.756304 -0.00192783 46.258184 C -0.00192783 46.760063 1.699757 46.760063 1.699757 47.265863 C 1.699757 47.771663 -0.00192783 47.771663 -0.00192783 48.273543 C -0.00192783 48.779343 1.699757 48.779343 1.699757 49.281222 C 1.699757 49.787022 -0.00192783 49.787022 -0.00192783 50.292823 C -0.00192783 50.798623 1.699757 50.798623 1.699757 51.304423 C 1.699757 51.810223 -0.00192783 51.810223 -0.00192783 52.312103 C -0.00192783 52.821824 1.699757 52.821824 1.699757 53.327624 C 1.699757 53.829503 -0.00192783 53.829503 -0.00192783 54.331383 C -0.00192783 54.841104 1.699757 54.841104 1.699757 55.346904 C 1.699757 55.852704 -0.00192783 55.852704 -0.00192783 56.358504 C -0.00192783 56.868226 1.699757 56.868226 1.699757 57.377947 C 1.699757 57.887668 -0.00192783 57.887668 -0.00192783 58.393468 " transform="matrix(0.996255,0,0,-0.996255,10.279264,99.096687)"/>
<path style=" stroke:none;fill-rule:nonzero;fill:rgb(13.729858%,12.159729%,12.548828%);fill-opacity:1;" d="M 11.550781 98.945312 C 11.550781 99.335938 11.234375 99.648438 10.84375 99.648438 C 10.453125 99.648438 10.136719 99.335938 10.136719 98.945312 C 10.136719 98.554688 10.453125 98.238281 10.84375 98.238281 C 11.234375 98.238281 11.550781 98.554688 11.550781 98.945312 "/>
<path style="fill:none;stroke-width:0.8;stroke-linecap:butt;stroke-linejoin:miter;stroke:rgb(13.729858%,12.159729%,12.548828%);stroke-opacity:1;stroke-miterlimit:10;" d="M 0.00189601 -0.00185616 C 0.00189601 -0.393949 -0.315699 -0.707624 -0.707793 -0.707624 C -1.099886 -0.707624 -1.417481 -0.393949 -1.417481 -0.00185616 C -1.417481 0.390237 -1.099886 0.707833 -0.707793 0.707833 C -0.315699 0.707833 0.00189601 0.390237 0.00189601 -0.00185616 Z " transform="matrix(0.996255,0,0,-0.996255,11.548892,98.943463)"/>
<path style=" stroke:none;fill-rule:nonzero;fill:rgb(13.729858%,12.159729%,12.548828%);fill-opacity:1;" d="M 11.832031 41.050781 C 11.832031 41.441406 11.515625 41.757812 11.125 41.757812 C 10.738281 41.757812 10.421875 41.441406 10.421875 41.050781 C 10.421875 40.660156 10.738281 40.34375 11.125 40.34375 C 11.515625 40.34375 11.832031 40.660156 11.832031 41.050781 "/>
<path style="fill:none;stroke-width:0.8;stroke-linecap:butt;stroke-linejoin:miter;stroke:rgb(13.729858%,12.159729%,12.548828%);stroke-opacity:1;stroke-miterlimit:10;" d="M -0.000496881 -0.00012254 C -0.000496881 -0.392216 -0.318092 -0.709811 -0.710186 -0.709811 C -1.098358 -0.709811 -1.415953 -0.392216 -1.415953 -0.00012254 C -1.415953 0.391971 -1.098358 0.709566 -0.710186 0.709566 C -0.318092 0.709566 -0.000496881 0.391971 -0.000496881 -0.00012254 Z " transform="matrix(0.996255,0,0,-0.996255,11.832526,41.050659)"/>
<g clip-path="url(#clip9)" clip-rule="nonzero">
<path style=" stroke:none;fill-rule:nonzero;fill:rgb(13.729858%,12.159729%,12.548828%);fill-opacity:1;" d="M 109.820312 1.183594 C 109.820312 1.574219 109.507812 1.890625 109.113281 1.890625 C 108.726562 1.890625 108.410156 1.574219 108.410156 1.183594 C 108.410156 0.796875 108.726562 0.480469 109.113281 0.480469 C 109.507812 0.480469 109.820312 0.796875 109.820312 1.183594 "/>
</g>
<g clip-path="url(#clip10)" clip-rule="nonzero">
<path style="fill:none;stroke-width:0.8;stroke-linecap:butt;stroke-linejoin:miter;stroke:rgb(13.729858%,12.159729%,12.548828%);stroke-opacity:1;stroke-miterlimit:10;" d="M -0.000816904 0.00180976 C -0.000816904 -0.390283 -0.314491 -0.707879 -0.710506 -0.707879 C -1.098678 -0.707879 -1.416273 -0.390283 -1.416273 0.00180976 C -1.416273 0.389982 -1.098678 0.707578 -0.710506 0.707578 C -0.314491 0.707578 -0.000816904 0.389982 -0.000816904 0.00180976 Z " transform="matrix(0.996255,0,0,-0.996255,109.821126,1.185397)"/>
</g>
<g clip-path="url(#clip11)" clip-rule="nonzero">
<path style="fill:none;stroke-width:0.8;stroke-linecap:butt;stroke-linejoin:miter;stroke:rgb(13.729858%,12.159729%,12.548828%);stroke-opacity:1;stroke-miterlimit:10;" d="M 0.000778595 -0.000908133 C 0.000778595 0.53626 1.702463 0.53626 1.702463 1.077348 C 1.702463 1.614516 0.000778595 1.614516 0.000778595 2.155604 C 0.000778595 2.696693 1.702463 2.696693 1.702463 3.233861 C 1.702463 3.774949 0.000778595 3.774949 0.000778595 4.312117 C 0.000778595 4.853206 1.702463 4.853206 1.702463 5.390373 C 1.702463 5.931462 0.000778595 5.931462 0.000778595 6.46863 C 0.000778595 7.005797 1.702463 7.005797 1.702463 7.542965 C 1.702463 8.084054 0.000778595 8.084054 0.000778595 8.621221 C 0.000778595 9.16231 1.702463 9.16231 1.702463 9.703399 C 1.702463 10.240566 0.000778595 10.240566 0.000778595 10.781655 C 0.000778595 11.322744 1.702463 11.322744 1.702463 11.859911 C 1.702463 12.401 0.000778595 12.401 0.000778595 12.938168 C 0.000778595 13.479256 1.702463 13.479256 1.702463 14.016424 C 1.702463 14.557512 0.000778595 14.557512 0.000778595 15.098601 C 0.000778595 15.63969 1.702463 15.63969 1.702463 16.180778 C 1.702463 16.717946 0.000778595 16.717946 0.000778595 17.259035 C 0.000778595 17.796202 1.702463 17.796202 1.702463 18.337291 C 1.702463 18.87838 0.000778595 18.87838 0.000778595 19.419468 C 0.000778595 19.956636 1.702463 19.956636 1.702463 20.497725 C 1.702463 21.034892 0.000778595 21.034892 0.000778595 21.57206 C 0.000778595 22.109228 1.702463 22.109228 1.702463 22.650316 C 1.702463 23.191405 0.000778595 23.191405 0.000778595 23.732493 C 0.000778595 24.269661 1.702463 24.269661 1.702463 24.81075 C 1.702463 25.351838 0.000778595 25.351838 0.000778595 25.892927 C 0.000778595 26.434016 1.702463 26.434016 1.702463 26.975104 C 1.702463 27.516193 0.000778595 27.516193 0.000778595 28.057281 C 0.000778595 28.59837 1.702463 28.59837 1.702463 29.139459 C 1.702463 29.680547 0.000778595 29.680547 0.000778595 30.217715 C 0.000778595 30.762725 1.702463 30.762725 1.702463 31.303813 C 1.702463 31.844902 0.000778595 31.844902 0.000778595 32.389911 C 0.000778595 32.934921 1.702463 32.934921 1.702463 33.47993 C 1.702463 34.021019 0.000778595 34.021019 0.000778595 34.566029 " transform="matrix(0.996255,0,0,-0.996255,125.307818,75.440502)"/>
</g>
<path style=" stroke:none;fill-rule:nonzero;fill:rgb(13.729858%,12.159729%,12.548828%);fill-opacity:1;" d="M 126.628906 74.511719 C 126.628906 74.902344 126.3125 75.21875 125.921875 75.21875 C 125.535156 75.21875 125.21875 74.902344 125.21875 74.511719 C 125.21875 74.121094 125.535156 73.808594 125.921875 73.808594 C 126.3125 73.808594 126.628906 74.121094 126.628906 74.511719 "/>
<g clip-path="url(#clip12)" clip-rule="nonzero">
<path style="fill:none;stroke-width:0.8;stroke-linecap:butt;stroke-linejoin:miter;stroke:rgb(13.729858%,12.159729%,12.548828%);stroke-opacity:1;stroke-miterlimit:10;" d="M -0.00114638 0.00057369 C -0.00114638 -0.39152 -0.318742 -0.709115 -0.710835 -0.709115 C -1.099007 -0.709115 -1.416603 -0.39152 -1.416603 0.00057369 C -1.416603 0.392667 -1.099007 0.706341 -0.710835 0.706341 C -0.318742 0.706341 -0.00114638 0.392667 -0.00114638 0.00057369 Z " transform="matrix(0.996255,0,0,-0.996255,126.630048,74.51229)"/>
</g>
<path style="fill:none;stroke-width:1.5;stroke-linecap:butt;stroke-linejoin:miter;stroke:rgb(13.729858%,12.159729%,12.548828%);stroke-opacity:1;stroke-miterlimit:10;" d="M -0.000896881 -0.000871355 C -0.741953 -17.362758 10.138633 -34.893245 17.031632 -40.08848 " transform="matrix(0.996255,0,0,-0.996255,11.832925,41.003038)"/>
<g clip-path="url(#clip13)" clip-rule="nonzero">
<path style="fill:none;stroke-width:1.5;stroke-linecap:butt;stroke-linejoin:miter;stroke:rgb(13.729858%,12.159729%,12.548828%);stroke-opacity:1;stroke-miterlimit:10;" d="M 0.00164811 0.00118441 C 0.727021 17.363071 -10.173171 34.885717 -17.07009 40.069189 " transform="matrix(0.996255,0,0,-0.996255,124.760077,41.106649)"/>
</g>
<g clip-path="url(#clip14)" clip-rule="nonzero">
<path style="fill:none;stroke-width:1;stroke-linecap:butt;stroke-linejoin:miter;stroke:rgb(13.729858%,12.159729%,12.548828%);stroke-opacity:1;stroke-miterlimit:10;" d="M -0.00130979 0.0007728 C 0.0182949 0.467364 1.731742 0.894745 1.731742 1.357415 C 1.735663 1.827927 0.0300577 2.278834 0.0182949 2.745425 C 0.00653207 3.212016 1.684691 3.753105 1.653324 4.219696 C 1.625877 4.686287 -0.103254 5.023487 -0.146384 5.486157 C -0.189515 5.952748 1.449435 6.603622 1.390621 7.066292 C 1.335728 7.528962 -0.413008 7.756376 -0.483584 8.219046 C -0.558082 8.681716 1.041658 9.426693 0.959319 9.885442 C 0.873058 10.344191 -0.883519 10.473582 -0.981543 10.92841 C -1.079566 11.387159 0.477044 12.218397 0.371179 12.673225 C 0.261393 13.128053 -1.503027 13.163342 -1.624576 13.614249 C -1.742204 14.065156 -0.232645 14.978733 -0.365956 15.425719 C -0.499268 15.872706 -2.259767 15.821734 -2.40092 16.264799 C -2.545995 16.711785 -1.083487 17.692018 -1.236403 18.135083 C -1.38932 18.578149 -3.145897 18.440916 -3.310576 18.87614 C -3.475256 19.315284 -2.059799 20.366094 -2.23232 20.801317 C -2.408762 21.236541 -4.157498 21.020889 -4.341782 21.448271 C -4.522144 21.879574 -3.15766 22.993118 -3.349786 23.416579 C -3.541911 23.847881 -5.282805 23.549891 -5.482773 23.96943 C -5.686661 24.392891 -4.369228 25.56525 -4.580958 25.980868 C -4.792689 26.396487 -6.517899 26.023999 -6.73355 26.431776 C -6.957043 26.847394 -5.694503 28.078567 -5.921917 28.482423 C -6.157173 28.894121 -7.862779 28.443214 -8.101955 28.839228 C -8.341132 29.247005 -7.137406 30.533071 -7.384425 30.925164 C -7.635364 31.325099 -9.317444 30.795773 -9.572305 31.180024 C -9.835007 31.572118 -8.697937 32.920918 -8.960639 33.297328 C -9.235105 33.6855 -10.885817 33.065993 -11.160282 33.43456 C -11.442589 33.814891 -10.383938 35.222505 -10.666245 35.583231 C -10.964236 35.95964 -12.575739 35.238189 -12.869809 35.587152 C -13.183483 35.951799 -12.218934 37.42999 -12.524767 37.763269 C -12.854125 38.120074 -14.402893 37.273153 -14.720489 37.590748 C -15.065531 37.93579 -14.246056 39.496321 -14.579335 39.790391 C -14.947903 40.115828 -16.382964 39.092465 -16.731927 39.355168 " transform="matrix(0.996255,0,0,-0.996255,125.274742,41.071082)"/>
</g>
<path style="fill:none;stroke-width:1;stroke-linecap:butt;stroke-linejoin:miter;stroke:rgb(13.729858%,12.159729%,12.548828%);stroke-opacity:1;stroke-miterlimit:10;" d="M 0.000497398 -0.00112254 C 0.000497398 -0.781388 -0.634694 -1.416579 -1.414959 -1.416579 C -2.199145 -1.416579 -2.834336 -0.781388 -2.834336 -0.00112254 C -2.834336 0.783064 -2.199145 1.418255 -1.414959 1.418255 C -0.634694 1.418255 0.000497398 0.783064 0.000497398 -0.00112254 Z " transform="matrix(0.996255,0,0,-0.996255,70.147942,41.049663)"/>
</g>
</svg>