<?xml version="1.0" encoding="UTF-8"?><svg xmlns="http://www.w3.org/2000/svg" xmlns:xlink="http://www.w3.org/1999/xlink" viewBox="0 0 245.251 73.7949" width="130.086pt" height="39.14228020028461pt" version="1.2">
<defs>
<clipPath id="clip1">
  <path d="M 171 0.0117188 L 244.503906 0.0117188 L 244.503906 73.582031 L 171 73.582031 Z "/>
</clipPath>
<clipPath id="clip2">
  <path d="M 0 27 L 47 27 L 47 73.582031 L 0 73.582031 Z "/>
</clipPath>
</defs>
<g id="surface1">
<path style=" stroke:none;fill-rule:nonzero;fill:rgb(100%,100%,100%);fill-opacity:1;" d="M 243.507812 72.582031 L 172.222656 72.582031 L 172.222656 1.007812 L 243.507812 1.007812 Z "/>
<g clip-path="url(#clip1)" clip-rule="nonzero">
<path style="fill:none;stroke-width:2;stroke-linecap:butt;stroke-linejoin:miter;stroke:rgb(13.729858%,12.159729%,12.548828%);stroke-opacity:1;stroke-miterlimit:10;" d="M 244.251489 1.001338 L 172.748627 1.001338 L 172.748627 72.794145 L 244.251489 72.794145 Z " transform="matrix(0.996955,0,0,-0.996955,0,73.58032)"/>
</g>
<path style=" stroke:none;fill-rule:nonzero;fill:rgb(100%,100%,100%);fill-opacity:1;" d="M 45.859375 72.582031 L 0.996094 72.582031 L 0.996094 28.257812 L 45.859375 28.257812 Z "/>
<g clip-path="url(#clip2)" clip-rule="nonzero">
<path style="fill:none;stroke-width:2;stroke-linecap:butt;stroke-linejoin:miter;stroke:rgb(13.729858%,12.159729%,12.548828%);stroke-opacity:1;stroke-miterlimit:10;" d="M 45.99943 1.001338 L 0.999136 1.001338 L 0.999136 45.460923 L 45.99943 45.460923 Z " transform="matrix(0.996955,0,0,-0.996955,0,73.58032)"/>
</g>
</g>
</svg>