<?xml version="1.0" encoding="UTF-8"?><svg xmlns="http://www.w3.org/2000/svg" xmlns:xlink="http://www.w3.org/1999/xlink" viewBox="0 0 350.811 180.838" width="260.172pt" height="134.11490556453478pt" version="1.2">
<defs>
<clipPath id="clip1">
  <path d="M 83 44 L 229 44 L 229 180.675781 L 83 180.675781 Z "/>
</clipPath>
<clipPath id="clip2">
  <path d="M 160 66 L 288 66 L 288 180.675781 L 160 180.675781 Z "/>
</clipPath>
<clipPath id="clip3">
  <path d="M 0.0625 74 L 86 74 L 86 174 L 0.0625 174 Z "/>
</clipPath>
<clipPath id="clip4">
  <path d="M 221 54 L 350.558594 54 L 350.558594 140 L 221 140 Z "/>
</clipPath>
<clipPath id="clip5">
  <path d="M 235 44 L 350.558594 44 L 350.558594 46 L 235 46 Z "/>
</clipPath>
<clipPath id="clip6">
  <path d="M 349 44 L 350.558594 44 L 350.558594 70 L 349 70 Z "/>
</clipPath>
</defs>
<g id="surface1">
<g clip-path="url(#clip1)" clip-rule="nonzero">
<path style="fill:none;stroke-width:1;stroke-linecap:butt;stroke-linejoin:miter;stroke:rgb(13.729858%,12.159729%,12.548828%);stroke-opacity:1;stroke-miterlimit:10;" d="M 0.000312808 0.0000751476 L -2.861624 -1.704576 L -0.10525 -3.577345 L -3.064931 -5.102148 L -0.433669 -7.143037 L -3.479364 -8.484081 L -0.977125 -10.68136 L -4.104924 -11.834736 L -1.743435 -14.180586 L -4.933791 -15.138474 L -2.720873 -17.625075 L -5.962055 -18.379656 L -3.909437 -21.003098 L -7.193626 -21.554373 L -5.309127 -24.299017 L -8.620684 -24.646985 L -6.908214 -27.501102 L -10.231501 -27.645762 L -8.698879 -30.601533 L -12.026076 -30.538977 L -10.681122 -33.580762 L -13.99659 -33.314899 L -12.839304 -36.438789 L -16.135223 -35.965709 L -15.169515 -39.152155 L -18.430246 -38.483588 L -17.660025 -41.72477 L -20.873839 -40.852896 L -20.306925 -44.133175 L -23.458183 -43.069724 L -23.090667 -46.377371 L -26.175459 -45.122342 L -26.01125 -48.445629 L -29.010027 -47.006841 L -29.053034 -50.334038 L -31.957978 -48.711492 L -32.204292 -52.030869 L -35.003673 -50.228475 L -35.453294 -53.528303 L -38.139292 -51.557789 L -38.79222 -54.82243 L -41.349196 -52.687707 L -42.201521 -55.905431 L -44.621656 -53.618227 L -45.677289 -56.777305 L -47.948853 -54.345441 L -49.196063 -57.430233 L -51.311237 -54.861528 L -52.750025 -57.864215 L -54.7049 -55.174307 L -56.319626 -58.083161 L -58.110292 -55.275961 L -59.900957 -58.083161 L -61.515683 -55.174307 L -63.474468 -57.864215 L -64.909346 -54.861528 L -67.02843 -57.430233 L -68.27564 -54.345441 L -70.547204 -56.777305 L -71.602836 -53.618227 L -74.019062 -55.905431 L -74.875297 -52.687707 L -77.432273 -54.81852 L -78.089111 -51.557789 L -80.771199 -53.524393 L -81.22082 -50.228475 L -84.0202 -52.026959 L -84.266515 -48.707582 L -87.175368 -50.330128 L -87.214466 -47.002931 L -90.217153 -48.441719 L -90.052944 -45.118432 L -93.133826 -46.373462 L -92.76631 -43.065814 L -95.921477 -44.129266 L -95.350654 -40.848986 L -98.564468 -41.71695 L -97.798157 -38.475768 L -101.058888 -39.148245 L -100.08927 -35.961799 L -103.385189 -36.427059 L -102.227903 -33.307079 L -105.54337 -33.576852 L -104.194507 -30.531157 L -107.525613 -30.593713 L -105.989082 -27.637943 L -109.316279 -27.493282 L -107.603808 -24.639165 L -110.915366 -24.291197 L -109.026957 -21.550463 L -112.311147 -20.995279 L -110.258528 -18.375747 L -113.49971 -17.621165 L -111.290702 -15.130655 L -114.477148 -14.176676 L -112.119569 -11.830826 L -115.243459 -10.68136 L -112.737309 -8.484081 L -115.786914 -7.143037 L -113.155652 -5.102148 L -116.111423 -3.577345 L -113.362869 -1.704576 L -116.220896 0.0000751476 L -113.362869 1.704726 L -116.111423 3.577496 L -113.155652 5.106208 L -115.786914 7.143187 L -112.737309 8.484231 L -115.239549 10.68151 L -112.115659 11.834886 L -114.477148 14.180736 L -111.290702 15.134715 L -113.49971 17.625225 L -110.258528 18.379807 L -112.307237 20.999339 L -109.026957 21.554523 L -110.911456 24.299167 L -107.599899 24.647135 L -109.312369 27.501252 L -105.989082 27.645913 L -107.521704 30.601683 L -104.190597 30.535217 L -105.539461 33.580912 L -102.223993 33.315049 L -103.381279 36.435029 L -100.08536 35.965859 L -101.051068 39.152305 L -97.790338 38.479828 L -98.560558 41.72101 L -95.346744 40.853046 L -95.917568 44.133326 L -92.7624 43.069874 L -93.129916 46.377522 L -90.045124 45.122492 L -90.209334 48.445779 L -87.210556 47.003082 L -87.167549 50.334188 L -84.262605 48.707732 L -84.016291 52.031019 L -81.21691 50.228625 L -80.767289 53.528453 L -78.081291 51.55794 L -77.428363 54.82258 L -74.871387 52.687857 L -74.015152 55.905581 L -71.598927 53.618378 L -70.543294 56.777455 L -68.27173 54.345591 L -67.02452 57.430383 L -64.909346 54.861678 L -63.470558 57.864365 L -61.515683 55.170548 L -59.900957 58.083311 L -58.110292 55.276111 L -56.319626 58.083311 L -54.7049 55.170548 L -52.746115 57.864365 L -51.311237 54.861678 L -49.192153 57.430383 L -47.944943 54.341681 L -45.673379 56.777455 L -44.617747 53.618378 L -42.197612 55.905581 L -41.345286 52.687857 L -38.78831 54.818671 L -38.135382 51.55794 L -35.449384 53.524544 L -34.999763 50.228625 L -32.196473 52.02711 L -31.950159 48.707732 L -29.045215 50.330278 L -29.006117 47.003082 L -26.00343 48.441869 L -26.167639 45.118582 L -23.086757 46.373612 L -23.454273 43.062054 L -20.299106 44.125506 L -20.869929 40.845226 L -17.656115 41.713191 L -18.426336 38.475918 L -15.165605 39.144485 L -16.131313 35.96195 L -12.835394 36.42721 L -13.99268 33.30723 L -10.677213 33.573093 L -12.022166 30.531308 L -8.69497 30.593864 L -10.227591 27.638093 L -6.904305 27.493432 L -8.616775 24.639315 L -5.305217 24.291348 L -7.189716 21.550613 L -3.909437 20.995429 L -5.962055 18.375897 L -2.720873 17.621315 L -4.929881 15.134715 L -1.739526 14.176826 L -4.104924 11.830977 L -0.977125 10.68151 L -3.479364 8.484231 L -0.433669 7.143187 L -3.064931 5.102298 L -0.10525 3.577496 L -2.861624 1.704726 Z " transform="matrix(0.999105,0,0,-0.999105,214.175469,116.644606)"/>
</g>
<path style=" stroke:none;fill-rule:nonzero;fill:rgb(100%,100%,100%);fill-opacity:1;" d="M 43.042969 123.554688 C 43.042969 127.464844 39.875 130.636719 35.964844 130.636719 C 32.054688 130.636719 28.882812 127.464844 28.882812 123.554688 C 28.882812 119.644531 32.054688 116.476562 35.964844 116.476562 C 39.875 116.476562 43.042969 119.644531 43.042969 123.554688 "/>
<path style="fill:none;stroke-width:1;stroke-linecap:butt;stroke-linejoin:miter;stroke:rgb(13.729858%,12.159729%,12.548828%);stroke-opacity:1;stroke-miterlimit:10;" d="M -0.000605499 0.00172858 C -0.000605499 -3.911931 -3.171412 -7.086647 -7.085071 -7.086647 C -10.99873 -7.086647 -14.173447 -3.911931 -14.173447 0.00172858 C -14.173447 3.915388 -10.99873 7.086194 -7.085071 7.086194 C -3.171412 7.086194 -0.000605499 3.915388 -0.000605499 0.00172858 Z " transform="matrix(0.999105,0,0,-0.999105,43.043574,123.556415)"/>
<path style="fill-rule:nonzero;fill:rgb(100%,100%,100%);fill-opacity:1;stroke-width:1;stroke-linecap:butt;stroke-linejoin:miter;stroke:rgb(13.729858%,12.159729%,12.548828%);stroke-opacity:1;stroke-miterlimit:10;" d="M -0.000196338 0.0000751476 L -2.725292 -1.626381 L 0.336042 -2.466977 L -1.845598 -4.769819 L 1.325209 -4.738541 L -0.140947 -7.553561 L 2.900838 -6.646499 L 2.283097 -9.758659 L 4.937817 -8.02273 L 5.246687 -11.181808 L 7.279757 -8.742124 L 8.503508 -11.670527 L 9.72726 -8.742124 L 11.76033 -11.181808 L 12.0692 -8.02273 L 14.72392 -9.758659 L 14.106179 -6.646499 L 17.144054 -7.553561 L 15.681808 -4.738541 L 18.856525 -4.769819 L 16.670975 -2.466977 L 19.732309 -1.626381 L 17.007213 0.0000751476 L 19.732309 1.626531 L 16.670975 2.467127 L 18.852615 4.769969 L 15.681808 4.738691 L 17.144054 7.553711 L 14.106179 6.646649 L 14.72392 9.758809 L 12.0692 8.022881 L 11.76033 11.181958 L 9.72726 8.742275 L 8.503508 11.670677 L 7.279757 8.742275 L 5.246687 11.181958 L 4.937817 8.022881 L 2.283097 9.758809 L 2.900838 6.646649 L -0.140947 7.553711 L 1.325209 4.738691 L -1.849508 4.76606 L 0.336042 2.467127 L -2.725292 1.626531 Z " transform="matrix(0.999105,0,0,-0.999105,147.62129,116.644606)"/>
<g clip-path="url(#clip2)" clip-rule="nonzero">
<path style="fill:none;stroke-width:1;stroke-linecap:butt;stroke-linejoin:miter;stroke:rgb(13.729858%,12.159729%,12.548828%);stroke-opacity:1;stroke-miterlimit:10;" d="M 0.00161521 -0.00169822 C 0.00161521 -27.393402 -22.209671 -49.604688 -49.605284 -49.604688 C -77.004808 -49.604688 -99.212184 -27.393402 -99.212184 -0.00169822 C -99.212184 27.397825 -77.004808 49.609111 -49.605284 49.609111 C -22.209671 49.609111 0.00161521 27.397825 0.00161521 -0.00169822 Z " transform="matrix(0.999105,0,0,-0.999105,273.353855,130.615491)"/>
</g>
<path style="fill-rule:nonzero;fill:rgb(100%,100%,100%);fill-opacity:1;stroke-width:1;stroke-linecap:butt;stroke-linejoin:miter;stroke:rgb(13.729858%,12.159729%,12.548828%);stroke-opacity:1;stroke-miterlimit:10;" d="M 0.00112397 -0.00169822 L -3.857799 -1.655522 L 0.302175 -2.222436 L -2.962466 -4.861517 L 1.193598 -4.267235 L -1.218718 -7.699995 L 2.608927 -5.979705 L 1.252244 -9.948101 L 4.43478 -7.211276 L 4.282299 -11.402527 L 6.522586 -7.856385 L 7.617316 -11.902975 L 8.712045 -7.852475 L 10.948422 -11.402527 L 10.799852 -7.211276 L 13.978478 -9.948101 L 12.625705 -5.979705 L 16.453349 -7.699995 L 14.041034 -4.267235 L 18.193188 -4.861517 L 14.932457 -2.222436 L 19.08852 -1.655522 L 15.233507 -0.00169822 L 19.08852 1.656035 L 14.932457 2.222949 L 18.193188 4.86203 L 14.041034 4.267748 L 16.453349 7.700508 L 12.625705 5.980218 L 13.978478 9.952524 L 10.799852 7.215699 L 10.948422 11.40695 L 8.712045 7.856898 L 7.617316 11.907398 L 6.522586 7.856898 L 4.282299 11.40695 L 4.43087 7.211789 L 1.252244 9.952524 L 2.605017 5.976309 L -1.222628 7.700508 L 1.189688 4.267748 L -2.962466 4.85812 L 0.302175 2.222949 L -3.857799 1.656035 Z " transform="matrix(0.999105,0,0,-0.999105,216.182471,130.615491)"/>
<path style=" stroke:none;fill-rule:nonzero;fill:rgb(100%,100%,100%);fill-opacity:1;" d="M 166.03125 116.644531 C 166.03125 122.121094 161.59375 126.558594 156.117188 126.558594 C 150.644531 126.558594 146.203125 122.121094 146.203125 116.644531 C 146.203125 111.171875 150.644531 106.734375 156.117188 106.734375 C 161.59375 106.734375 166.03125 111.171875 166.03125 116.644531 "/>
<path style="fill:none;stroke-width:1;stroke-linecap:butt;stroke-linejoin:miter;stroke:rgb(13.729858%,12.159729%,12.548828%);stroke-opacity:1;stroke-miterlimit:10;" d="M 0.00115227 0.00107515 C 0.00115227 -5.480393 -4.440323 -9.921869 -9.921792 -9.921869 C -15.39935 -9.921869 -19.844735 -5.480393 -19.844735 0.00107515 C -19.844735 5.478634 -15.39935 9.920109 -9.921792 9.920109 C -4.440323 9.920109 0.00115227 5.478634 0.00115227 0.00107515 Z " transform="matrix(0.999105,0,0,-0.999105,166.030099,116.645605)"/>
<path style=" stroke:none;fill-rule:nonzero;fill:rgb(100%,100%,100%);fill-opacity:1;" d="M 233.703125 130.617188 C 233.703125 136.089844 229.265625 140.527344 223.792969 140.527344 C 218.316406 140.527344 213.878906 136.089844 213.878906 130.617188 C 213.878906 125.140625 218.316406 120.703125 223.792969 120.703125 C 229.265625 120.703125 233.703125 125.140625 233.703125 130.617188 "/>
<path style="fill:none;stroke-width:1;stroke-linecap:butt;stroke-linejoin:miter;stroke:rgb(13.729858%,12.159729%,12.548828%);stroke-opacity:1;stroke-miterlimit:10;" d="M -0.00175027 -0.00169822 C -0.00175027 -5.479257 -4.443226 -9.920732 -9.920784 -9.920732 C -15.402253 -9.920732 -19.843728 -5.479257 -19.843728 -0.00169822 C -19.843728 5.47977 -15.402253 9.921246 -9.920784 9.921246 C -4.443226 9.921246 -0.00175027 5.47977 -0.00175027 -0.00169822 Z " transform="matrix(0.999105,0,0,-0.999105,233.704874,130.615491)"/>
<g clip-path="url(#clip3)" clip-rule="nonzero">
<path style="fill:none;stroke-width:1;stroke-linecap:butt;stroke-linejoin:miter;stroke:rgb(13.729858%,12.159729%,12.548828%);stroke-opacity:1;stroke-miterlimit:10;" d="M -0.00162283 0.000728576 C -0.00162283 -19.567567 -15.863476 -35.43333 -35.431771 -35.43333 C -55.000067 -35.43333 -70.86583 -19.567567 -70.86583 0.000728576 C -70.86583 19.569024 -55.000067 35.434787 -35.431771 35.434787 C -15.863476 35.434787 -0.00162283 19.569024 -0.00162283 0.000728576 Z " transform="matrix(0.999105,0,0,-0.999105,71.364903,123.555415)"/>
</g>
<path style="fill:none;stroke-width:1;stroke-linecap:butt;stroke-linejoin:miter;stroke:rgb(13.729858%,12.159729%,12.548828%);stroke-opacity:1;stroke-miterlimit:10;" d="M 0.00078524 0.000498603 L 0.00078524 -142.337836 " transform="matrix(0.999105,0,0,-0.999105,142.76484,0.602061)"/>
<path style="fill-rule:nonzero;fill:rgb(100%,100%,100%);fill-opacity:1;stroke-width:1;stroke-linecap:butt;stroke-linejoin:miter;stroke:rgb(13.729858%,12.159729%,12.548828%);stroke-opacity:1;stroke-miterlimit:10;" d="M -0.000522824 -0.00179462 L -1.701264 -1.370207 L -0.000522824 -2.742529 L -1.701264 -4.110941 L -0.000522824 -5.479353 L -1.701264 -6.843856 L -0.000522824 -8.212268 L -1.701264 -9.58068 L -0.000522824 -10.949093 L -1.701264 -12.321415 L -0.000522824 -13.693737 L -1.701264 -15.062149 L -0.000522824 -16.430561 L -1.701264 -17.802883 L -0.000522824 -19.175205 L -1.701264 -20.543618 L -0.000522824 -21.91594 L -1.701264 -23.288262 L -0.000522824 -24.660584 L -1.701264 -26.032906 L -0.000522824 -27.405228 L -1.701264 -28.77755 L -0.000522824 -30.145962 L -1.701264 -31.518284 L -0.000522824 -32.890606 L -1.701264 -34.262928 L -0.000522824 -35.63525 L -1.701264 -37.011482 L -0.000522824 -38.387714 L -1.701264 -39.763945 L -0.000522824 -41.140177 L -1.701264 -42.520319 " transform="matrix(0.999105,0,0,-0.999105,144.605991,97.478676)"/>
<path style="fill:none;stroke-width:1;stroke-linecap:butt;stroke-linejoin:miter;stroke:rgb(13.729858%,12.159729%,12.548828%);stroke-opacity:1;stroke-miterlimit:10;" d="M 0.00078524 0.000227593 L -50.13784 86.585536 " transform="matrix(0.999105,0,0,-0.999105,142.76484,142.707259)"/>
<path style="fill:none;stroke-width:1;stroke-linecap:butt;stroke-linejoin:miter;stroke:rgb(13.729858%,12.159729%,12.548828%);stroke-opacity:1;stroke-miterlimit:10;" d="M -0.00087726 0.000536337 C -0.00087726 30.813271 22.425445 55.749652 50.137748 55.749652 " transform="matrix(0.999105,0,0,-0.999105,92.938376,56.199755)"/>
<path style="fill:none;stroke-width:1;stroke-linecap:butt;stroke-linejoin:miter;stroke:rgb(13.729858%,12.159729%,12.548828%);stroke-opacity:1;stroke-miterlimit:10;" d="M 0.00078524 0.000498603 L -88.887366 0.000498603 " transform="matrix(0.999105,0,0,-0.999105,142.76484,0.602061)"/>
<path style="fill:none;stroke-width:1;stroke-linecap:butt;stroke-linejoin:miter;stroke:rgb(13.729858%,12.159729%,12.548828%);stroke-opacity:1;stroke-miterlimit:10;" d="M 0.000460073 0.000170962 L -39.992366 44.645599 " transform="matrix(0.999105,0,0,-0.999105,93.913603,45.207202)"/>
<path style="fill:none;stroke-width:1;stroke-linecap:butt;stroke-linejoin:miter;stroke:rgb(13.729858%,12.159729%,12.548828%);stroke-opacity:1;stroke-miterlimit:10;" d="M 0.00186953 -0.00107777 L 0.00186953 -0.00107777 " transform="matrix(0.999105,0,0,-0.999105,92.673913,43.823142)"/>
<g clip-path="url(#clip4)" clip-rule="nonzero">
<path style="fill:none;stroke-width:1;stroke-linecap:butt;stroke-linejoin:miter;stroke:rgb(13.729858%,12.159729%,12.548828%);stroke-opacity:1;stroke-miterlimit:10;" d="M 0.0011996 0.000567717 C -0.1591 -76.016689 114.118963 -76.349017 114.275353 0.000567717 " transform="matrix(0.999105,0,0,-0.999105,235.88552,68.688067)"/>
</g>
<g clip-path="url(#clip5)" clip-rule="nonzero">
<path style="fill:none;stroke-width:1;stroke-linecap:butt;stroke-linejoin:miter;stroke:rgb(13.729858%,12.159729%,12.548828%);stroke-opacity:1;stroke-miterlimit:10;" d="M -0.000995104 0.000170962 L 114.499924 0.000170962 " transform="matrix(0.999105,0,0,-0.999105,235.649432,45.207202)"/>
</g>
<path style="fill:none;stroke-width:1;stroke-linecap:butt;stroke-linejoin:miter;stroke:rgb(13.729858%,12.159729%,12.548828%);stroke-opacity:1;stroke-miterlimit:10;" d="M -0.000535612 0.000170962 L -0.000535612 -81.424269 " transform="matrix(0.999105,0,0,-0.999105,292.848191,45.207202)"/>
<path style="fill:none;stroke-width:1;stroke-linecap:butt;stroke-linejoin:miter;stroke:rgb(13.729858%,12.159729%,12.548828%);stroke-opacity:1;stroke-miterlimit:10;" d="M 0.000153365 -0.000364132 L 0.000153365 -24.09224 " transform="matrix(0.999105,0,0,-0.999105,235.827972,44.659792)"/>
<g clip-path="url(#clip6)" clip-rule="nonzero">
<path style="fill:none;stroke-width:1;stroke-linecap:butt;stroke-linejoin:miter;stroke:rgb(13.729858%,12.159729%,12.548828%);stroke-opacity:1;stroke-miterlimit:10;" d="M -0.000076119 -0.000364132 L -0.000076119 -24.09224 " transform="matrix(0.999105,0,0,-0.999105,350.046951,44.659792)"/>
</g>
</g>
</svg>