<?xml version="1.0" encoding="UTF-8"?><svg xmlns="http://www.w3.org/2000/svg" xmlns:xlink="http://www.w3.org/1999/xlink" viewBox="0 0 412.89819 376.8896" width="216.8pt" height="197.8930091216917pt" version="1.2">
<g id="surface1">
<path style="fill:none;stroke-width:2;stroke-linecap:butt;stroke-linejoin:miter;stroke:rgb(13.729858%,12.159729%,12.548828%);stroke-opacity:1;stroke-dasharray:5,5;stroke-miterlimit:4;" d="M 430.731609 -575.887966 C 430.731609 -497.615044 367.275526 -434.158962 288.998697 -434.158962 C 210.721869 -434.158962 147.265786 -497.615044 147.265786 -575.887966 C 147.265786 -654.164794 210.721869 -717.620877 288.998697 -717.620877 C 367.275526 -717.620877 430.731609 -654.164794 430.731609 -575.887966 Z " transform="matrix(0.999707,0,0,0.999707,-81.585943,798.356042)"/>
<path style="fill:none;stroke-width:2;stroke-linecap:butt;stroke-linejoin:miter;stroke:rgb(13.729858%,12.159729%,12.548828%);stroke-opacity:1;stroke-dasharray:5,5;stroke-miterlimit:4;" d="M 394.299065 -540.889435 C 394.299065 -482.180837 346.707003 -434.588775 287.998405 -434.588775 C 229.293714 -434.588775 181.701652 -482.180837 181.701652 -540.889435 C 181.701652 -599.598034 229.293714 -647.190096 287.998405 -647.190096 C 346.707003 -647.190096 394.299065 -599.598034 394.299065 -540.889435 Z " transform="matrix(0.999707,0,0,0.999707,-81.585943,798.356042)"/>
<path style="fill:none;stroke-width:2;stroke-linecap:butt;stroke-linejoin:miter;stroke:rgb(13.729858%,12.159729%,12.548828%);stroke-opacity:1;stroke-miterlimit:4;" d="M 216.668923 -609.89011 C 216.668923 -706.723154 248.901018 -785.222704 288.666569 -785.222704 C 328.43212 -785.222704 360.668123 -706.723154 360.668123 -609.89011 C 360.668123 -513.057066 328.43212 -434.557516 288.666569 -434.557516 C 248.901018 -434.557516 216.668923 -513.057066 216.668923 -609.89011 Z " transform="matrix(0.999707,0,0,0.999707,-81.585943,798.356042)"/>
<path style="fill:none;stroke-width:1;stroke-linecap:butt;stroke-linejoin:miter;stroke:rgb(13.729858%,12.159729%,12.548828%);stroke-opacity:1;stroke-miterlimit:4;" d="M 288.666569 -434.557516 C 288.666569 -434.557516 288.666569 -785.222704 288.666569 -785.222704 " transform="matrix(0.999707,0,0,0.999707,-81.585943,798.356042)"/>
<path style="fill:none;stroke-width:1;stroke-linecap:butt;stroke-linejoin:miter;stroke:rgb(13.729858%,12.159729%,12.548828%);stroke-opacity:1;stroke-miterlimit:4;" d="M 278.667547 -783.222118 C 278.667547 -783.222118 278.667547 -436.558102 278.667547 -436.558102 " transform="matrix(0.999707,0,0,0.999707,-81.585943,798.356042)"/>
<path style="fill:none;stroke-width:2;stroke-linecap:butt;stroke-linejoin:miter;stroke:rgb(13.729858%,12.159729%,12.548828%);stroke-opacity:1;stroke-miterlimit:4;" d="M 270.000947 -779.889111 C 270.000947 -779.889111 270.000947 -439.891109 270.000947 -439.891109 " transform="matrix(0.999707,0,0,0.999707,-81.585943,798.356042)"/>
<path style="fill:none;stroke-width:1;stroke-linecap:butt;stroke-linejoin:miter;stroke:rgb(13.729858%,12.159729%,12.548828%);stroke-opacity:1;stroke-miterlimit:4;" d="M 260.666182 -772.554932 C 260.666182 -772.554932 260.666182 -446.557124 260.666182 -446.557124 " transform="matrix(0.999707,0,0,0.999707,-81.585943,798.356042)"/>
<path style="fill:none;stroke-width:1;stroke-linecap:butt;stroke-linejoin:miter;stroke:rgb(13.729858%,12.159729%,12.548828%);stroke-opacity:1;stroke-miterlimit:4;" d="M 251.999581 -761.223489 C 251.999581 -761.223489 251.335324 -460.557317 251.335324 -460.557317 " transform="matrix(0.999707,0,0,0.999707,-81.585943,798.356042)"/>
<path style="fill:none;stroke-width:2;stroke-linecap:butt;stroke-linejoin:miter;stroke:rgb(13.729858%,12.159729%,12.548828%);stroke-opacity:1;stroke-miterlimit:4;" d="M 242.00056 -744.554545 C 242.00056 -744.554545 242.664817 -474.557511 242.664817 -474.557511 " transform="matrix(0.999707,0,0,0.999707,-81.585943,798.356042)"/>
<path style="fill:none;stroke-width:1;stroke-linecap:butt;stroke-linejoin:miter;stroke:rgb(13.729858%,12.159729%,12.548828%);stroke-opacity:1;stroke-miterlimit:4;" d="M 233.333959 -720.55533 C 233.333959 -720.55533 233.333959 -497.224305 233.333959 -497.224305 " transform="matrix(0.999707,0,0,0.999707,-81.585943,798.356042)"/>
<path style="fill:none;stroke-width:1;stroke-linecap:butt;stroke-linejoin:miter;stroke:rgb(13.729858%,12.159729%,12.548828%);stroke-opacity:1;stroke-miterlimit:4;" d="M 224.667359 -687.889514 C 224.667359 -687.889514 223.999194 -537.2243 223.999194 -537.2243 " transform="matrix(0.999707,0,0,0.999707,-81.585943,798.356042)"/>
<path style="fill:none;stroke-width:2;stroke-linecap:butt;stroke-linejoin:miter;stroke:rgb(13.729858%,12.159729%,12.548828%);stroke-opacity:1;stroke-miterlimit:4;" d="M 296.665005 -783.890283 C 296.665005 -783.890283 296.665005 -437.222359 296.665005 -437.222359 " transform="matrix(0.999707,0,0,0.999707,-81.585943,798.356042)"/>
<path style="fill:none;stroke-width:1;stroke-linecap:butt;stroke-linejoin:miter;stroke:rgb(13.729858%,12.159729%,12.548828%);stroke-opacity:1;stroke-miterlimit:4;" d="M 305.99977 -779.224854 C 305.99977 -779.224854 305.99977 -439.891109 305.99977 -439.891109 " transform="matrix(0.999707,0,0,0.999707,-81.585943,798.356042)"/>
<path style="fill:none;stroke-width:1;stroke-linecap:butt;stroke-linejoin:miter;stroke:rgb(13.729858%,12.159729%,12.548828%);stroke-opacity:1;stroke-miterlimit:4;" d="M 314.66637 -772.554932 C 314.66637 -772.554932 314.66637 -447.221381 314.66637 -447.221381 " transform="matrix(0.999707,0,0,0.999707,-81.585943,798.356042)"/>
<path style="fill:none;stroke-width:2;stroke-linecap:butt;stroke-linejoin:miter;stroke:rgb(13.729858%,12.159729%,12.548828%);stroke-opacity:1;stroke-miterlimit:4;" d="M 324.001135 -761.223489 C 324.001135 -761.223489 324.001135 -456.556146 324.001135 -456.556146 " transform="matrix(0.999707,0,0,0.999707,-81.585943,798.356042)"/>
<path style="fill:none;stroke-width:1;stroke-linecap:butt;stroke-linejoin:miter;stroke:rgb(13.729858%,12.159729%,12.548828%);stroke-opacity:1;stroke-miterlimit:4;" d="M 332.667735 -745.22271 C 332.667735 -745.22271 333.331992 -473.889347 333.331992 -473.889347 " transform="matrix(0.999707,0,0,0.999707,-81.585943,798.356042)"/>
<path style="fill:none;stroke-width:1;stroke-linecap:butt;stroke-linejoin:miter;stroke:rgb(13.729858%,12.159729%,12.548828%);stroke-opacity:1;stroke-miterlimit:4;" d="M 341.998593 -722.555916 C 341.998593 -722.555916 341.998593 -495.223719 341.998593 -495.223719 " transform="matrix(0.999707,0,0,0.999707,-81.585943,798.356042)"/>
<path style="fill:none;stroke-width:1;stroke-linecap:butt;stroke-linejoin:miter;stroke:rgb(13.729858%,12.159729%,12.548828%);stroke-opacity:1;stroke-miterlimit:4;" d="M 350.665193 -689.8901 C 350.665193 -689.8901 350.665193 -527.889535 350.665193 -527.889535 " transform="matrix(0.999707,0,0,0.999707,-81.585943,798.356042)"/>
<path style="fill:none;stroke-width:1;stroke-linecap:butt;stroke-linejoin:miter;stroke:rgb(13.729858%,12.159729%,12.548828%);stroke-opacity:1;stroke-miterlimit:4;" d="M 262.666768 -774.555518 C 262.666768 -774.555518 313.998206 -774.555518 313.998206 -774.555518 " transform="matrix(0.999707,0,0,0.999707,-81.585943,798.356042)"/>
<path style="fill:none;stroke-width:2;stroke-linecap:butt;stroke-linejoin:miter;stroke:rgb(13.729858%,12.159729%,12.548828%);stroke-opacity:1;stroke-miterlimit:4;" d="M 254.000167 -765.224661 C 254.000167 -765.224661 322.000549 -765.224661 322.000549 -765.224661 " transform="matrix(0.999707,0,0,0.999707,-81.585943,798.356042)"/>
<path style="fill:none;stroke-width:1;stroke-linecap:butt;stroke-linejoin:miter;stroke:rgb(13.729858%,12.159729%,12.548828%);stroke-opacity:1;stroke-miterlimit:4;" d="M 328.666564 -756.55806 C 328.666564 -756.55806 247.99841 -756.55806 247.99841 -756.55806 " transform="matrix(0.999707,0,0,0.999707,-81.585943,798.356042)"/>
<path style="fill:none;stroke-width:1;stroke-linecap:butt;stroke-linejoin:miter;stroke:rgb(13.729858%,12.159729%,12.548828%);stroke-opacity:1;stroke-miterlimit:4;" d="M 242.664817 -747.223295 C 242.664817 -747.223295 333.331992 -747.223295 333.331992 -747.223295 " transform="matrix(0.999707,0,0,0.999707,-81.585943,798.356042)"/>
<path style="fill:none;stroke-width:1;stroke-linecap:butt;stroke-linejoin:miter;stroke:rgb(13.729858%,12.159729%,12.548828%);stroke-opacity:1;stroke-miterlimit:4;" d="M 337.333164 -737.888531 C 337.333164 -737.888531 239.331809 -737.888531 239.331809 -737.888531 " transform="matrix(0.999707,0,0,0.999707,-81.585943,798.356042)"/>
<path style="fill:none;stroke-width:2;stroke-linecap:butt;stroke-linejoin:miter;stroke:rgb(13.729858%,12.159729%,12.548828%);stroke-opacity:1;stroke-miterlimit:4;" d="M 235.334545 -729.22193 C 235.334545 -729.22193 340.666171 -729.22193 340.666171 -729.22193 " transform="matrix(0.999707,0,0,0.999707,-81.585943,798.356042)"/>
<path style="fill:none;stroke-width:1;stroke-linecap:butt;stroke-linejoin:miter;stroke:rgb(13.729858%,12.159729%,12.548828%);stroke-opacity:1;stroke-miterlimit:4;" d="M 231.333373 -720.55533 C 231.333373 -720.55533 343.999179 -720.55533 343.999179 -720.55533 " transform="matrix(0.999707,0,0,0.999707,-81.585943,798.356042)"/>
<path style="fill:none;stroke-width:1;stroke-linecap:butt;stroke-linejoin:miter;stroke:rgb(13.729858%,12.159729%,12.548828%);stroke-opacity:1;stroke-miterlimit:4;" d="M 228.000366 -710.556308 C 228.000366 -710.556308 347.332186 -710.556308 347.332186 -710.556308 " transform="matrix(0.999707,0,0,0.999707,-81.585943,798.356042)"/>
<path style="fill:none;stroke-width:1;stroke-linecap:butt;stroke-linejoin:miter;stroke:rgb(13.729858%,12.159729%,12.548828%);stroke-opacity:1;stroke-miterlimit:4;" d="M 348.00035 -702.557872 C 348.00035 -702.557872 226.667945 -702.557872 226.667945 -702.557872 " transform="matrix(0.999707,0,0,0.999707,-81.585943,798.356042)"/>
<path style="fill:none;stroke-width:1;stroke-linecap:butt;stroke-linejoin:miter;stroke:rgb(13.729858%,12.159729%,12.548828%);stroke-opacity:1;stroke-miterlimit:4;" d="M 350.000936 -693.223107 C 350.000936 -693.223107 223.999194 -693.223107 223.999194 -693.223107 " transform="matrix(0.999707,0,0,0.999707,-81.585943,798.356042)"/>
<path style="fill:none;stroke-width:2;stroke-linecap:butt;stroke-linejoin:miter;stroke:rgb(13.729858%,12.159729%,12.548828%);stroke-opacity:1;stroke-miterlimit:4;" d="M 222.666773 -684.556507 C 222.666773 -684.556507 354.666365 -684.556507 354.666365 -684.556507 " transform="matrix(0.999707,0,0,0.999707,-81.585943,798.356042)"/>
<path style="fill:none;stroke-width:1;stroke-linecap:butt;stroke-linejoin:miter;stroke:rgb(13.729858%,12.159729%,12.548828%);stroke-opacity:1;stroke-miterlimit:4;" d="M 220.666187 -675.221742 C 220.666187 -675.221742 355.334529 -675.221742 355.334529 -675.221742 " transform="matrix(0.999707,0,0,0.999707,-81.585943,798.356042)"/>
<path style="fill:none;stroke-width:1;stroke-linecap:butt;stroke-linejoin:miter;stroke:rgb(13.729858%,12.159729%,12.548828%);stroke-opacity:1;stroke-miterlimit:4;" d="M 356.666951 -665.890884 C 356.666951 -665.890884 219.333766 -665.890884 219.333766 -665.890884 " transform="matrix(0.999707,0,0,0.999707,-81.585943,798.356042)"/>
<path style="fill:none;stroke-width:1;stroke-linecap:butt;stroke-linejoin:miter;stroke:rgb(13.729858%,12.159729%,12.548828%);stroke-opacity:1;stroke-miterlimit:4;" d="M 218.665601 -656.55612 C 218.665601 -656.55612 357.331208 -656.55612 357.331208 -656.55612 " transform="matrix(0.999707,0,0,0.999707,-81.585943,798.356042)"/>
<path style="fill:none;stroke-width:1;stroke-linecap:butt;stroke-linejoin:miter;stroke:rgb(13.729858%,12.159729%,12.548828%);stroke-opacity:1;stroke-miterlimit:4;" d="M 217.33318 -648.557684 C 217.33318 -648.557684 359.999958 -647.889519 359.999958 -647.889519 " transform="matrix(0.999707,0,0,0.999707,-81.585943,798.356042)"/>
<path style="fill:none;stroke-width:2;stroke-linecap:butt;stroke-linejoin:miter;stroke:rgb(13.729858%,12.159729%,12.548828%);stroke-opacity:1;stroke-miterlimit:4;" d="M 216.665015 -639.222919 C 216.665015 -639.222919 359.331794 -639.222919 359.331794 -639.222919 " transform="matrix(0.999707,0,0,0.999707,-81.585943,798.356042)"/>
<path style="fill:none;stroke-width:1;stroke-linecap:butt;stroke-linejoin:miter;stroke:rgb(13.729858%,12.159729%,12.548828%);stroke-opacity:1;stroke-miterlimit:4;" d="M 216.000758 -630.556318 C 216.000758 -630.556318 359.999958 -630.556318 359.999958 -630.556318 " transform="matrix(0.999707,0,0,0.999707,-81.585943,798.356042)"/>
<path style="fill:none;stroke-width:1;stroke-linecap:butt;stroke-linejoin:miter;stroke:rgb(13.729858%,12.159729%,12.548828%);stroke-opacity:1;stroke-miterlimit:4;" d="M 360.668123 -621.221554 C 360.668123 -621.221554 216.000758 -621.221554 216.000758 -621.221554 " transform="matrix(0.999707,0,0,0.999707,-81.585943,798.356042)"/>
<path style="fill:none;stroke-width:1;stroke-linecap:butt;stroke-linejoin:miter;stroke:rgb(13.729858%,12.159729%,12.548828%);stroke-opacity:1;stroke-miterlimit:4;" d="M 216.000758 -612.554953 C 216.000758 -612.554953 359.999958 -612.554953 359.999958 -612.554953 " transform="matrix(0.999707,0,0,0.999707,-81.585943,798.356042)"/>
<path style="fill:none;stroke-width:1;stroke-linecap:butt;stroke-linejoin:miter;stroke:rgb(13.729858%,12.159729%,12.548828%);stroke-opacity:1;stroke-miterlimit:4;" d="M 361.33238 -603.224096 C 361.33238 -603.224096 216.000758 -603.224096 216.000758 -603.224096 " transform="matrix(0.999707,0,0,0.999707,-81.585943,798.356042)"/>
<path style="fill:none;stroke-width:2;stroke-linecap:butt;stroke-linejoin:miter;stroke:rgb(13.729858%,12.159729%,12.548828%);stroke-opacity:1;stroke-miterlimit:4;" d="M 216.000758 -594.557495 C 216.000758 -594.557495 359.999958 -594.557495 359.999958 -594.557495 " transform="matrix(0.999707,0,0,0.999707,-81.585943,798.356042)"/>
<path style="fill:none;stroke-width:1;stroke-linecap:butt;stroke-linejoin:miter;stroke:rgb(13.729858%,12.159729%,12.548828%);stroke-opacity:1;stroke-miterlimit:4;" d="M 216.665015 -585.22273 C 216.665015 -585.22273 359.331794 -585.890895 359.331794 -585.890895 " transform="matrix(0.999707,0,0,0.999707,-81.585943,798.356042)"/>
<path style="fill:none;stroke-width:1;stroke-linecap:butt;stroke-linejoin:miter;stroke:rgb(13.729858%,12.159729%,12.548828%);stroke-opacity:1;stroke-miterlimit:4;" d="M 359.331794 -576.55613 C 359.331794 -576.55613 217.33318 -576.55613 217.33318 -576.55613 " transform="matrix(0.999707,0,0,0.999707,-81.585943,798.356042)"/>
<path style="fill:none;stroke-width:1;stroke-linecap:butt;stroke-linejoin:miter;stroke:rgb(13.729858%,12.159729%,12.548828%);stroke-opacity:1;stroke-miterlimit:4;" d="M 218.665601 -567.221365 C 218.665601 -567.221365 359.331794 -567.221365 359.331794 -567.221365 " transform="matrix(0.999707,0,0,0.999707,-81.585943,798.356042)"/>
<path style="fill:none;stroke-width:1;stroke-linecap:butt;stroke-linejoin:miter;stroke:rgb(13.729858%,12.159729%,12.548828%);stroke-opacity:1;stroke-miterlimit:4;" d="M 357.331208 -558.554765 C 357.331208 -558.554765 218.665601 -558.554765 218.665601 -558.554765 " transform="matrix(0.999707,0,0,0.999707,-81.585943,798.356042)"/>
<path style="fill:none;stroke-width:2;stroke-linecap:butt;stroke-linejoin:miter;stroke:rgb(13.729858%,12.159729%,12.548828%);stroke-opacity:1;stroke-miterlimit:4;" d="M 355.998786 -548.555743 C 355.998786 -548.555743 220.00193 -548.555743 220.00193 -548.555743 " transform="matrix(0.999707,0,0,0.999707,-81.585943,798.356042)"/>
<path style="fill:none;stroke-width:1;stroke-linecap:butt;stroke-linejoin:miter;stroke:rgb(13.729858%,12.159729%,12.548828%);stroke-opacity:1;stroke-miterlimit:4;" d="M 353.998201 -540.557307 C 353.998201 -540.557307 221.998609 -540.557307 221.998609 -540.557307 " transform="matrix(0.999707,0,0,0.999707,-81.585943,798.356042)"/>
<path style="fill:none;stroke-width:1;stroke-linecap:butt;stroke-linejoin:miter;stroke:rgb(13.729858%,12.159729%,12.548828%);stroke-opacity:1;stroke-miterlimit:4;" d="M 223.999194 -531.222542 C 223.999194 -531.222542 352.665779 -531.222542 352.665779 -531.222542 " transform="matrix(0.999707,0,0,0.999707,-81.585943,798.356042)"/>
<path style="fill:none;stroke-width:1;stroke-linecap:butt;stroke-linejoin:miter;stroke:rgb(13.729858%,12.159729%,12.548828%);stroke-opacity:1;stroke-miterlimit:4;" d="M 225.331616 -522.555942 C 225.331616 -522.555942 351.333358 -522.555942 351.333358 -522.555942 " transform="matrix(0.999707,0,0,0.999707,-81.585943,798.356042)"/>
<path style="fill:none;stroke-width:1;stroke-linecap:butt;stroke-linejoin:miter;stroke:rgb(13.729858%,12.159729%,12.548828%);stroke-opacity:1;stroke-miterlimit:4;" d="M 228.000366 -512.55692 C 228.000366 -512.55692 348.668515 -512.55692 348.668515 -512.55692 " transform="matrix(0.999707,0,0,0.999707,-81.585943,798.356042)"/>
<path style="fill:none;stroke-width:2;stroke-linecap:butt;stroke-linejoin:miter;stroke:rgb(13.729858%,12.159729%,12.548828%);stroke-opacity:1;stroke-miterlimit:4;" d="M 232.001538 -504.554576 C 232.001538 -504.554576 345.999765 -504.554576 345.999765 -504.554576 " transform="matrix(0.999707,0,0,0.999707,-81.585943,798.356042)"/>
<path style="fill:none;stroke-width:1;stroke-linecap:butt;stroke-linejoin:miter;stroke:rgb(13.729858%,12.159729%,12.548828%);stroke-opacity:1;stroke-miterlimit:4;" d="M 233.998216 -495.223719 C 233.998216 -495.223719 341.998593 -495.223719 341.998593 -495.223719 " transform="matrix(0.999707,0,0,0.999707,-81.585943,798.356042)"/>
<path style="fill:none;stroke-width:1;stroke-linecap:butt;stroke-linejoin:miter;stroke:rgb(13.729858%,12.159729%,12.548828%);stroke-opacity:1;stroke-miterlimit:4;" d="M 237.335131 -485.888954 C 237.335131 -485.888954 340.001914 -485.888954 340.001914 -485.888954 " transform="matrix(0.999707,0,0,0.999707,-81.585943,798.356042)"/>
<path style="fill:none;stroke-width:1;stroke-linecap:butt;stroke-linejoin:miter;stroke:rgb(13.729858%,12.159729%,12.548828%);stroke-opacity:1;stroke-miterlimit:4;" d="M 335.332578 -477.222354 C 335.332578 -477.222354 241.332395 -477.890518 241.332395 -477.890518 " transform="matrix(0.999707,0,0,0.999707,-81.585943,798.356042)"/>
<path style="fill:none;stroke-width:1;stroke-linecap:butt;stroke-linejoin:miter;stroke:rgb(13.729858%,12.159729%,12.548828%);stroke-opacity:1;stroke-miterlimit:4;" d="M 246.001731 -468.555753 C 246.001731 -468.555753 331.999571 -468.555753 331.999571 -468.555753 " transform="matrix(0.999707,0,0,0.999707,-81.585943,798.356042)"/>
<path style="fill:none;stroke-width:2;stroke-linecap:butt;stroke-linejoin:miter;stroke:rgb(13.729858%,12.159729%,12.548828%);stroke-opacity:1;stroke-miterlimit:4;" d="M 324.665392 -459.224896 C 324.665392 -459.224896 249.334739 -459.224896 249.334739 -459.224896 " transform="matrix(0.999707,0,0,0.999707,-81.585943,798.356042)"/>
<path style="fill:none;stroke-width:1;stroke-linecap:butt;stroke-linejoin:miter;stroke:rgb(13.729858%,12.159729%,12.548828%);stroke-opacity:1;stroke-miterlimit:4;" d="M 260.001925 -450.554388 C 260.001925 -450.554388 317.999377 -450.554388 317.999377 -450.554388 " transform="matrix(0.999707,0,0,0.999707,-81.585943,798.356042)"/>
<path style="fill:none;stroke-width:1;stroke-linecap:butt;stroke-linejoin:miter;stroke:rgb(13.729858%,12.159729%,12.548828%);stroke-opacity:1;stroke-miterlimit:4;" d="M 270.000947 -439.891109 C 270.000947 -439.891109 305.99977 -439.891109 305.99977 -439.891109 " transform="matrix(0.999707,0,0,0.999707,-81.585943,798.356042)"/>
<path style="fill:none;stroke-width:1;stroke-linecap:butt;stroke-linejoin:miter;stroke:rgb(13.729858%,12.159729%,12.548828%);stroke-opacity:1;stroke-miterlimit:4;" d="M 98.665617 -432.55693 C 98.665617 -432.55693 476.666935 -432.55693 476.666935 -432.55693 " transform="matrix(0.999707,0,0,0.999707,-81.585943,798.356042)"/>
</g>
</svg>