<?xml version="1.0" encoding="UTF-8"?><svg xmlns="http://www.w3.org/2000/svg" xmlns:xlink="http://www.w3.org/1999/xlink" viewBox="0 0 462.815 207.262" width="195.129pt" height="87.38443394877002pt" version="1.2">
<defs>
<clipPath id="clip1">
  <path d="M 1 146 L 461.902344 146 L 461.902344 148 L 1 148 Z "/>
</clipPath>
<clipPath id="clip2">
  <path d="M 209 46 L 461.902344 46 L 461.902344 153 L 209 153 Z "/>
</clipPath>
<clipPath id="clip3">
  <path d="M 240 0 L 461.902344 0 L 461.902344 152 L 240 152 Z "/>
</clipPath>
<clipPath id="clip4">
  <path d="M 0.730469 0 L 205 0 L 205 153 L 0.730469 153 Z "/>
</clipPath>
<clipPath id="clip5">
  <path d="M 0.730469 46 L 221 46 L 221 153 L 0.730469 153 Z "/>
</clipPath>
<clipPath id="clip6">
  <path d="M 0.730469 0 L 215 0 L 215 158 L 0.730469 158 Z "/>
</clipPath>
<clipPath id="clip7">
  <path d="M 0.730469 42 L 229 42 L 229 157 L 0.730469 157 Z "/>
</clipPath>
<clipPath id="clip8">
  <path d="M 249 161 L 293 161 L 293 206.527344 L 249 206.527344 Z "/>
</clipPath>
</defs>
<g id="surface1">
<g clip-path="url(#clip1)" clip-rule="nonzero">
<path style="fill:none;stroke-width:1;stroke-linecap:butt;stroke-linejoin:miter;stroke:rgb(13.729858%,12.159729%,12.548828%);stroke-opacity:1;stroke-miterlimit:4;" d="M -0.00168183 0.00183335 L 461.738169 0.00183335 " transform="matrix(0.996452,0,0,-0.996452,1.802457,146.564327)"/>
</g>
<g clip-path="url(#clip2)" clip-rule="nonzero">
<path style="fill:none;stroke-width:1;stroke-linecap:butt;stroke-linejoin:miter;stroke:rgb(13.729858%,12.159729%,12.548828%);stroke-opacity:1;stroke-miterlimit:4;" d="M 0.0018066 0.000368105 L -247.336707 94.519322 " transform="matrix(0.996452,0,0,-0.996452,461.345856,146.691773)"/>
</g>
<g clip-path="url(#clip3)" clip-rule="nonzero">
<path style="fill:none;stroke-width:1;stroke-linecap:butt;stroke-linejoin:miter;stroke:rgb(13.729858%,12.159729%,12.548828%);stroke-opacity:1;stroke-miterlimit:4;" d="M -0.00139658 0.00119088 L -215.825752 143.400608 " transform="matrix(0.996452,0,0,-0.996452,461.270923,145.641812)"/>
</g>
<g clip-path="url(#clip4)" clip-rule="nonzero">
<path style="fill:none;stroke-width:1;stroke-linecap:butt;stroke-linejoin:miter;stroke:rgb(13.729858%,12.159729%,12.548828%);stroke-opacity:1;stroke-miterlimit:4;" d="M -0.00168183 0.00183335 L 197.821303 144.820348 " transform="matrix(0.996452,0,0,-0.996452,1.802457,146.564327)"/>
</g>
<g clip-path="url(#clip5)" clip-rule="nonzero">
<path style="fill:none;stroke-width:1;stroke-linecap:butt;stroke-linejoin:miter;stroke:rgb(13.729858%,12.159729%,12.548828%);stroke-opacity:1;stroke-miterlimit:4;" d="M -0.00168183 0.00183335 L 213.842993 94.395343 " transform="matrix(0.996452,0,0,-0.996452,1.802457,146.564327)"/>
</g>
<path style="fill:none;stroke-width:1;stroke-linecap:butt;stroke-linejoin:miter;stroke:rgb(13.729858%,12.159729%,12.548828%);stroke-opacity:1;stroke-miterlimit:4;" d="M -0.00106431 -0.000951917 L 46.738992 -0.000951917 " transform="matrix(0.996452,0,0,-0.996452,199.723717,2.256864)"/>
<g clip-path="url(#clip6)" clip-rule="nonzero">
<path style="fill:none;stroke-width:2;stroke-linecap:butt;stroke-linejoin:miter;stroke:rgb(13.729858%,12.159729%,12.548828%);stroke-opacity:1;stroke-miterlimit:4;" d="M 0.000800538 0.00183335 L 197.819865 144.820348 " transform="matrix(0.996452,0,0,-0.996452,5.788265,146.564327)"/>
</g>
<path style="fill:none;stroke-width:2;stroke-linecap:butt;stroke-linejoin:miter;stroke:rgb(13.729858%,12.159729%,12.548828%);stroke-opacity:1;stroke-miterlimit:4;" d="M -0.00106431 -0.00023302 L 46.738992 -0.00023302 " transform="matrix(0.996452,0,0,-0.996452,199.723717,4.249768)"/>
<path style="fill:none;stroke-width:2;stroke-linecap:butt;stroke-linejoin:miter;stroke:rgb(13.729858%,12.159729%,12.548828%);stroke-opacity:1;stroke-miterlimit:4;" d="M 0.00178996 0.000622742 L -39.482052 26.234327 " transform="matrix(0.996452,0,0,-0.996452,285.552904,30.883433)"/>
<g clip-path="url(#clip7)" clip-rule="nonzero">
<path style="fill:none;stroke-width:2;stroke-linecap:butt;stroke-linejoin:miter;stroke:rgb(13.729858%,12.159729%,12.548828%);stroke-opacity:1;stroke-miterlimit:4;" d="M -0.000277807 0.0014739 L 208.842274 92.187934 " transform="matrix(0.996452,0,0,-0.996452,8.777621,145.567875)"/>
</g>
<path style="fill:none;stroke-width:2;stroke-linecap:butt;stroke-linejoin:miter;stroke:rgb(13.729858%,12.159729%,12.548828%);stroke-opacity:1;stroke-miterlimit:4;" d="M -0.00186008 0.00132888 L -52.445748 20.041182 " transform="matrix(0.996452,0,0,-0.996452,266.150291,73.47398)"/>
<path style="fill:none;stroke-width:2;stroke-linecap:butt;stroke-linejoin:miter;stroke:rgb(13.729858%,12.159729%,12.548828%);stroke-opacity:1;stroke-miterlimit:4;" d="M 0.00193206 0.00035186 L -24.432419 31.044091 " transform="matrix(0.996452,0,0,-0.996452,288.060575,103.367538)"/>
<path style="fill:none;stroke-width:2;stroke-linecap:butt;stroke-linejoin:miter;stroke:rgb(13.729858%,12.159729%,12.548828%);stroke-opacity:1;stroke-miterlimit:4;" d="M 0.00187888 -0.00136791 L 212.27849 -0.00136791 " transform="matrix(0.996452,0,0,-0.996452,2.798909,148.557231)"/>
<path style="fill:none;stroke-width:2;stroke-linecap:butt;stroke-linejoin:miter;stroke:rgb(13.729858%,12.159729%,12.548828%);stroke-opacity:1;stroke-miterlimit:4;" d="M -0.000482759 -0.00156841 L -50.445089 27.043609 " transform="matrix(0.996452,0,0,-0.996452,262.152825,174.115625)"/>
<g clip-path="url(#clip8)" clip-rule="nonzero">
<path style="fill:none;stroke-width:2;stroke-linecap:butt;stroke-linejoin:miter;stroke:rgb(13.729858%,12.159729%,12.548828%);stroke-opacity:1;stroke-miterlimit:4;" d="M 0.000528039 -0.00182654 L -20.435261 33.041194 " transform="matrix(0.996452,0,0,-0.996452,281.085411,206.002086)"/>
</g>
</g>
</svg>