<?xml version="1.0" encoding="UTF-8"?><svg xmlns="http://www.w3.org/2000/svg" xmlns:xlink="http://www.w3.org/1999/xlink" viewBox="0 0 387.591 382.079" width="216.8pt" height="213.716848946441pt" version="1.2">
<defs>
<clipPath id="clip1">
  <path d="M 136 285 L 242 285 L 242 381.160156 L 136 381.160156 Z "/>
</clipPath>
<clipPath id="clip2">
  <path d="M 275 95 L 386.921875 95 L 386.921875 330 L 275 330 Z "/>
</clipPath>
<clipPath id="clip3">
  <path d="M 0.261719 91 L 108 91 L 108 327 L 0.261719 327 Z "/>
</clipPath>
</defs>
<g id="surface1">
<path style="fill:none;stroke-width:2;stroke-linecap:butt;stroke-linejoin:miter;stroke:rgb(13.729858%,12.159729%,12.548828%);stroke-opacity:1;stroke-miterlimit:4;" d="M 0.00119222 -0.00135003 C 0.00119222 -78.056236 64.472633 -141.333399 143.999809 -141.333399 C 223.530902 -141.333399 287.998427 -78.056236 287.998427 -0.00135003 C 287.998427 78.057452 223.530902 141.334614 143.999809 141.334614 C 64.472633 141.334614 0.00119222 78.057452 0.00119222 -0.00135003 Z " transform="matrix(0.997595,0,0,-0.997595,45.662873,197.393184)"/>
<path style="fill:none;stroke-width:2;stroke-linecap:butt;stroke-linejoin:miter;stroke:rgb(13.729858%,12.159729%,12.548828%);stroke-opacity:1;stroke-miterlimit:4;" d="M -0.00097018 0.00060133 C -0.00097018 -7.548803 6.342409 -13.665073 14.165909 -13.665073 C 21.98941 -13.665073 28.332789 -7.548803 28.332789 0.00060133 C 28.332789 7.54609 21.98941 13.666276 14.165909 13.666276 C 6.342409 13.666276 -0.00097018 7.54609 -0.00097018 0.00060133 Z " transform="matrix(0.997595,0,0,-0.997595,175.184562,338.387319)"/>
<g clip-path="url(#clip1)" clip-rule="nonzero">
<path style="fill:none;stroke-width:2;stroke-linecap:butt;stroke-linejoin:miter;stroke:rgb(13.729858%,12.159729%,12.548828%);stroke-opacity:1;stroke-miterlimit:4;" d="M -0.000460895 -0.00131434 C -0.000460895 -23.127238 18.504977 -41.875447 41.333309 -41.875447 C 64.161642 -41.875447 82.66708 -23.127238 82.66708 -0.00131434 C 82.66708 23.128525 64.161642 41.876734 41.333309 41.876734 C 18.504977 41.876734 -0.000460895 23.128525 -0.000460895 -0.00131434 Z " transform="matrix(0.997595,0,0,-0.997595,148.082491,338.389314)"/>
</g>
<path style="fill:none;stroke-width:2;stroke-linecap:butt;stroke-linejoin:miter;stroke:rgb(13.729858%,12.159729%,12.548828%);stroke-opacity:1;stroke-miterlimit:4;" d="M 0.00169793 0.00100163 C 0.00169793 -7.638463 6.117968 -13.833046 13.667372 -13.833046 C 21.216776 -13.833046 27.333047 -7.638463 27.333047 0.00100163 C 27.333047 7.640466 21.216776 13.83505 13.667372 13.83505 C 6.117968 13.83505 0.00169793 7.640466 0.00169793 0.00100163 Z " transform="matrix(0.997595,0,0,-0.997595,284.08815,103.454124)"/>
<path style="fill:none;stroke-width:2;stroke-linecap:butt;stroke-linejoin:miter;stroke:rgb(13.729858%,12.159729%,12.548828%);stroke-opacity:1;stroke-miterlimit:4;" d="M 0.00114592 0.00117002 C 0.00114592 -7.454258 6.043019 -13.500046 13.498447 -13.500046 C 20.95779 -13.500046 26.999663 -7.454258 26.999663 0.00117002 C 26.999663 7.456598 20.95779 13.502386 13.498447 13.502386 C 6.043019 13.502386 0.00114592 7.456598 0.00114592 0.00117002 Z " transform="matrix(0.997595,0,0,-0.997595,68.940263,103.786323)"/>
<path style="fill:none;stroke-width:2;stroke-linecap:butt;stroke-linejoin:miter;stroke:rgb(13.729858%,12.159729%,12.548828%);stroke-opacity:1;stroke-miterlimit:4;" d="M -0.0000918186 0.00184044 C -7.330219 -87.603355 -51.091702 -113.247052 -107.242352 -110.533495 C -161.352941 -107.91783 -191.131581 -70.87563 -203.281892 0.448226 " transform="matrix(0.997595,0,0,-0.997595,290.425873,0.615117)"/>
<g clip-path="url(#clip2)" clip-rule="nonzero">
<path style="fill:none;stroke-width:2;stroke-linecap:butt;stroke-linejoin:miter;stroke:rgb(13.729858%,12.159729%,12.548828%);stroke-opacity:1;stroke-miterlimit:4;" d="M 0.00187642 -0.000591368 C -70.648485 5.908149 -101.997307 52.868731 -100.650318 109.841671 C -99.299413 166.889009 -76.662948 200.869159 -12.771026 212.404711 " transform="matrix(0.997595,0,0,-0.997595,386.837972,318.636129)"/>
</g>
<g clip-path="url(#clip3)" clip-rule="nonzero">
<path style="fill:none;stroke-width:2;stroke-linecap:butt;stroke-linejoin:miter;stroke:rgb(13.729858%,12.159729%,12.548828%);stroke-opacity:1;stroke-miterlimit:4;" d="M -0.00149239 -0.00185241 C 70.323869 -8.980475 99.601304 -57.260636 95.771782 -114.120022 C 91.938345 -171.053806 67.845252 -204.019798 3.506944 -212.759565 " transform="matrix(0.997595,0,0,-0.997595,0.388208,103.24034)"/>
</g>
</g>
</svg>