<?xml version="1.0" encoding="UTF-8"?><svg xmlns="http://www.w3.org/2000/svg" xmlns:xlink="http://www.w3.org/1999/xlink" viewBox="0 0 187.252 187.252" width="173.4pt" height="173.4pt" version="1.2">
<defs>
<clipPath id="clip1">
  <path d="M 0 0 L 186.507812 0 L 186.507812 186.507812 L 0 186.507812 Z "/>
</clipPath>
<clipPath id="clip2">
  <path d="M 91 0 L 95 0 L 95 186.507812 L 91 186.507812 Z "/>
</clipPath>
<clipPath id="clip3">
  <path d="M 0 92 L 186.507812 92 L 186.507812 96 L 0 96 Z "/>
</clipPath>
<clipPath id="clip4">
  <path d="M 0 42 L 186.507812 42 L 186.507812 147 L 0 147 Z "/>
</clipPath>
<clipPath id="clip5">
  <path d="M 41 0 L 146 0 L 146 186.507812 L 41 186.507812 Z "/>
</clipPath>
<clipPath id="clip6">
  <path d="M 0 41 L 186.507812 41 L 186.507812 146 L 0 146 Z "/>
</clipPath>
</defs>
<g id="surface1">
<g clip-path="url(#clip1)" clip-rule="nonzero">
<path style="fill:none;stroke-width:3;stroke-linecap:butt;stroke-linejoin:miter;stroke:rgb(13.729858%,12.159729%,12.548828%);stroke-opacity:1;stroke-miterlimit:4;" d="M -0.00123032 -0.000419878 C -0.00123032 -50.878631 -41.247369 -92.12477 -92.12558 -92.12477 C -143.007714 -92.12477 -184.253852 -50.878631 -184.253852 -0.000419878 C -184.253852 50.881714 -143.007714 92.127852 -92.12558 92.127852 C -41.247369 92.127852 -0.00123032 50.881714 -0.00123032 -0.000419878 Z " transform="matrix(0.996021,0,0,-0.996021,185.012944,93.253488)"/>
</g>
<g clip-path="url(#clip2)" clip-rule="nonzero">
<path style="fill:none;stroke-width:3;stroke-linecap:butt;stroke-linejoin:miter;stroke:rgb(13.729858%,12.159729%,12.548828%);stroke-opacity:1;stroke-miterlimit:4;" d="M -0.000080122 0.00173661 L -0.000080122 -184.250885 " transform="matrix(0.996021,0,0,-0.996021,93.253986,2.15798)"/>
</g>
<g clip-path="url(#clip3)" clip-rule="nonzero">
<path style="fill:none;stroke-width:3;stroke-linecap:butt;stroke-linejoin:miter;stroke:rgb(13.729858%,12.159729%,12.548828%);stroke-opacity:1;stroke-miterlimit:4;" d="M 0.00171248 -0.000777466 L 184.250412 -0.000777466 " transform="matrix(0.996021,0,0,-0.996021,1.162357,93.585163)"/>
</g>
<path style="fill:none;stroke-width:3;stroke-linecap:butt;stroke-linejoin:miter;stroke:rgb(13.729858%,12.159729%,12.548828%);stroke-opacity:1;stroke-miterlimit:4;" d="M 0.000882988 -0.000314356 L 130.284872 130.283675 " transform="matrix(0.996021,0,0,-0.996021,28.702246,158.136406)"/>
<path style="fill:none;stroke-width:3;stroke-linecap:butt;stroke-linejoin:miter;stroke:rgb(13.729858%,12.159729%,12.548828%);stroke-opacity:1;stroke-miterlimit:4;" d="M -0.000728056 0.000970469 L -130.284717 130.284959 " transform="matrix(0.996021,0,0,-0.996021,158.469475,158.801748)"/>
<g clip-path="url(#clip4)" clip-rule="nonzero">
<path style="fill:none;stroke-width:3;stroke-linecap:butt;stroke-linejoin:miter;stroke:rgb(13.729858%,12.159729%,12.548828%);stroke-opacity:1;stroke-miterlimit:4;" d="M -0.00170522 0.001362 L -170.225855 70.508453 " transform="matrix(0.996021,0,0,-0.996021,178.029042,129.364638)"/>
</g>
<g clip-path="url(#clip5)" clip-rule="nonzero">
<path style="fill:none;stroke-width:3;stroke-linecap:butt;stroke-linejoin:miter;stroke:rgb(13.729858%,12.159729%,12.548828%);stroke-opacity:1;stroke-miterlimit:4;" d="M 0.000444676 -0.00136015 L -70.510568 -170.22551 " transform="matrix(0.996021,0,0,-0.996021,128.702682,9.143177)"/>
<path style="fill:none;stroke-width:3;stroke-linecap:butt;stroke-linejoin:miter;stroke:rgb(13.729858%,12.159729%,12.548828%);stroke-opacity:1;stroke-miterlimit:4;" d="M 0.000274522 0.00187688 L 70.511287 -170.226195 " transform="matrix(0.996021,0,0,-0.996021,58.140352,8.478432)"/>
</g>
<g clip-path="url(#clip6)" clip-rule="nonzero">
<path style="fill:none;stroke-width:3;stroke-linecap:butt;stroke-linejoin:miter;stroke:rgb(13.729858%,12.159729%,12.548828%);stroke-opacity:1;stroke-miterlimit:4;" d="M 0.000502561 0.00121959 L 170.228574 70.50831 " transform="matrix(0.996021,0,0,-0.996021,8.811999,129.032465)"/>
</g>
</g>
</svg>