<?xml version="1.0" encoding="UTF-8"?><svg xmlns="http://www.w3.org/2000/svg" xmlns:xlink="http://www.w3.org/1999/xlink" viewBox="0 0 648.169 362.474" width="260.172pt" height="145.49536544944297pt" version="1.2">
<defs>
<clipPath id="clip1">
  <path d="M 123 74 L 647.285156 74 L 647.285156 326 L 123 326 Z "/>
</clipPath>
<clipPath id="clip2">
  <path d="M 293 95 L 628 95 L 628 361.949219 L 293 361.949219 Z "/>
</clipPath>
<clipPath id="clip3">
  <path d="M 0.0546875 265 L 23 265 L 23 294 L 0.0546875 294 Z "/>
</clipPath>
<clipPath id="clip4">
  <path d="M 615 314 L 647.285156 314 L 647.285156 361.949219 L 615 361.949219 Z "/>
</clipPath>
</defs>
<g id="surface1">
<path style="fill:none;stroke-width:1;stroke-linecap:butt;stroke-linejoin:miter;stroke:rgb(13.729858%,12.159729%,12.548828%);stroke-opacity:1;stroke-dasharray:6,5,1,5;stroke-miterlimit:4;" d="M 0.00037437 -0.000330506 C 0.00428629 0.562986 0.00819821 1.12239 0.00819821 1.685706 C 0.00819821 72.628349 -38.17995 134.647905 -95.117924 168.317787 " transform="matrix(0.998551,0,0,-0.998551,304.202751,240.706701)"/>
<path style="fill:none;stroke-width:1;stroke-linecap:butt;stroke-linejoin:miter;stroke:rgb(13.729858%,12.159729%,12.548828%);stroke-opacity:1;stroke-dasharray:6,5,1,5;stroke-miterlimit:4;" d="M 0.000127107 -0.000793628 L 591.353113 -0.000793628 " transform="matrix(0.998551,0,0,-0.998551,47.234248,239.022645)"/>
<path style="fill:none;stroke-width:1;stroke-linecap:butt;stroke-linejoin:miter;stroke:rgb(13.729858%,12.159729%,12.548828%);stroke-opacity:1;stroke-dasharray:6,5,1,5;stroke-miterlimit:4;" d="M -0.00122777 -0.00188336 L 374.568881 189.765284 " transform="matrix(0.998551,0,0,-0.998551,8.641851,290.900463)"/>
<path style="fill:none;stroke-width:1;stroke-linecap:butt;stroke-linejoin:miter;stroke:rgb(13.729858%,12.159729%,12.548828%);stroke-opacity:1;stroke-dasharray:6,5,1,5;stroke-miterlimit:4;" d="M -0.000352 0.000398598 L 413.199953 302.153072 " transform="matrix(0.998551,0,0,-0.998551,24.758164,302.117586)"/>
<path style="fill:none;stroke-width:1;stroke-linecap:butt;stroke-linejoin:miter;stroke:rgb(13.729858%,12.159729%,12.548828%);stroke-opacity:1;stroke-dasharray:6,5,1,5;stroke-miterlimit:4;" d="M 0.000650281 -0.0000867006 C -24.206301 44.243712 -64.268259 78.574708 -112.545245 95.352927 " transform="matrix(0.998551,0,0,-0.998551,290.593101,140.992101)"/>
<g clip-path="url(#clip1)" clip-rule="nonzero">
<path style="fill:none;stroke-width:1;stroke-linecap:butt;stroke-linejoin:miter;stroke:rgb(13.729858%,12.159729%,12.548828%);stroke-opacity:1;stroke-dasharray:6,5,1,5;stroke-miterlimit:4;" d="M -0.000916173 0.00116269 L -516.929652 240.177312 " transform="matrix(0.998551,0,0,-0.998551,645.817321,319.76288)"/>
</g>
<path style="fill:none;stroke-width:1;stroke-linecap:butt;stroke-linejoin:miter;stroke:rgb(13.729858%,12.159729%,12.548828%);stroke-opacity:1;stroke-dasharray:6,5,1,5;stroke-miterlimit:4;" d="M 0.00092086 0.00137665 L 385.864739 0.00137665 " transform="matrix(0.998551,0,0,-0.998551,113.108455,152.083406)"/>
<path style="fill:none;stroke-width:1;stroke-linecap:butt;stroke-linejoin:miter;stroke:rgb(13.729858%,12.159729%,12.548828%);stroke-opacity:1;stroke-dasharray:6,5,1,5;stroke-miterlimit:4;" d="M 0.00092086 -0.00144723 L 385.864739 -0.00144723 " transform="matrix(0.998551,0,0,-0.998551,113.108455,126.393086)"/>
<path style="fill:none;stroke-width:1;stroke-linecap:butt;stroke-linejoin:miter;stroke:rgb(13.729858%,12.159729%,12.548828%);stroke-opacity:1;stroke-dasharray:6,5,1,5;stroke-miterlimit:4;" d="M 0.00092086 -0.000100446 L 386.897485 -0.000100446 " transform="matrix(0.998551,0,0,-0.998551,113.108455,101.601462)"/>
<g clip-path="url(#clip2)" clip-rule="nonzero">
<path style="fill:none;stroke-width:1;stroke-linecap:butt;stroke-linejoin:miter;stroke:rgb(13.729858%,12.159729%,12.548828%);stroke-opacity:1;stroke-dasharray:6,5,1,5;stroke-miterlimit:4;" d="M -0.0000289968 -0.0010455 L 323.300476 -260.37443 " transform="matrix(0.998551,0,0,-0.998551,299.187529,101.549737)"/>
</g>
<path style="fill:none;stroke-width:1;stroke-linecap:butt;stroke-linejoin:miter;stroke:rgb(13.729858%,12.159729%,12.548828%);stroke-opacity:1;stroke-dasharray:6,5,1,5;stroke-miterlimit:4;" d="M -0.000527905 0.00174702 L -323.547484 -194.483194 " transform="matrix(0.998551,0,0,-0.998551,434.121621,44.822057)"/>
<path style="fill:none;stroke-width:1;stroke-linecap:butt;stroke-linejoin:miter;stroke:rgb(13.729858%,12.159729%,12.548828%);stroke-opacity:1;stroke-dasharray:6,5,1,5;stroke-miterlimit:4;" d="M 0.000729432 0.00101859 L 145.434124 -155.908494 " transform="matrix(0.998551,0,0,-0.998551,323.22974,83.340861)"/>
<path style="fill:none;stroke-width:1;stroke-linecap:butt;stroke-linejoin:miter;stroke:rgb(13.729858%,12.159729%,12.548828%);stroke-opacity:1;stroke-dasharray:6,5,1,5;stroke-miterlimit:4;" d="M 0.00177448 -0.000598677 C -10.693411 14.6378 -22.706912 28.251277 -35.870518 40.65597 " transform="matrix(0.998551,0,0,-0.998551,347.529478,66.597058)"/>
<path style="fill:none;stroke-width:1;stroke-linecap:butt;stroke-linejoin:miter;stroke:rgb(13.729858%,12.159729%,12.548828%);stroke-opacity:1;stroke-dasharray:6,5,1,5;stroke-miterlimit:4;" d="M -0.00135272 -0.00115298 C -11.55716 15.881236 -24.497786 30.699583 -38.639372 44.270029 " transform="matrix(0.998551,0,0,-0.998551,378.364632,44.819161)"/>
<g clip-path="url(#clip3)" clip-rule="nonzero">
<path style="fill:none;stroke-width:1;stroke-linecap:butt;stroke-linejoin:miter;stroke:rgb(13.729858%,12.159729%,12.548828%);stroke-opacity:1;stroke-dasharray:6,5,1,5;stroke-miterlimit:4;" d="M 0.000700912 0.00175387 C 0.000700912 4.473077 3.627049 8.099425 8.098372 8.099425 C 12.573607 8.099425 16.199955 4.473077 16.199955 0.00175387 C 16.199955 -4.473481 12.573607 -8.099829 8.098372 -8.099829 C 3.627049 -8.099829 0.000700912 -4.473481 0.000700912 0.00175387 Z " transform="matrix(0.998551,0,0,-0.998551,0.553988,279.650189)"/>
</g>
<g clip-path="url(#clip4)" clip-rule="nonzero">
<path style="fill:none;stroke-width:1;stroke-linecap:butt;stroke-linejoin:miter;stroke:rgb(13.729858%,12.159729%,12.548828%);stroke-opacity:1;stroke-dasharray:6,5,1,5;stroke-miterlimit:4;" d="M 0.00148264 -0.000467533 C -6.762224 -14.885317 -15.290207 -28.7961 -25.312542 -41.470716 " transform="matrix(0.998551,0,0,-0.998551,646.830551,320.230002)"/>
</g>
</g>
</svg>