<?xml version="1.0" encoding="UTF-8"?><svg xmlns="http://www.w3.org/2000/svg" xmlns:xlink="http://www.w3.org/1999/xlink" viewBox="0 0 460.90959 416.8991" width="86.724pt" height="78.4430576686417pt" version="1.2">
<defs>
<clipPath id="clip1">
  <path d="M 0.0117188 184 L 460.808594 184 L 460.808594 414 L 0.0117188 414 Z "/>
</clipPath>
</defs>
<g id="surface1">
<path style="fill:none;stroke-width:2;stroke-linecap:butt;stroke-linejoin:miter;stroke:rgb(13.729858%,12.159729%,12.548828%);stroke-opacity:1;stroke-miterlimit:4;" d="M 287.999506 -748.888937 C 287.999506 -748.888937 287.999506 -570.888836 287.999506 -570.888836 " transform="matrix(0.999758,0,0,0.999758,-56.789195,763.996794)"/>
<path style="fill:none;stroke-width:2;stroke-linecap:butt;stroke-linejoin:miter;stroke:rgb(13.729858%,12.159729%,12.548828%);stroke-opacity:1;stroke-miterlimit:4;" d="M 330.517606 -527.89015 C 330.517606 -504.407906 311.48175 -485.37205 287.999506 -485.37205 C 264.517262 -485.37205 245.481406 -504.407906 245.481406 -527.89015 C 245.481406 -551.372395 264.517262 -570.408251 287.999506 -570.408251 C 311.48175 -570.408251 330.517606 -551.372395 330.517606 -527.89015 Z " transform="matrix(0.999758,0,0,0.999758,-56.789195,763.996794)"/>
<path style=" stroke:none;fill-rule:nonzero;fill:rgb(13.729858%,12.159729%,12.548828%);fill-opacity:1;" d="M 231.140625 292.222656 C 244.035156 292.222656 244.035156 272.226562 231.140625 272.226562 C 218.246094 272.226562 218.246094 292.222656 231.140625 292.222656 Z "/>
<path style=" stroke:none;fill-rule:nonzero;fill:rgb(13.729858%,12.159729%,12.548828%);fill-opacity:1;" d="M 231.140625 27.285156 C 244.035156 27.285156 244.035156 7.289062 231.140625 7.289062 C 218.246094 7.289062 218.246094 27.285156 231.140625 27.285156 Z "/>
<g clip-path="url(#clip1)" clip-rule="nonzero">
<path style="fill:none;stroke-width:2;stroke-linecap:butt;stroke-linejoin:miter;stroke:rgb(13.729858%,12.159729%,12.548828%);stroke-opacity:1;stroke-miterlimit:4;" d="M 508.599759 -567.852945 C 500.867419 -452.754783 405.05908 -361.787459 287.999506 -361.787459 C 171.279858 -361.787459 75.686415 -452.227311 67.469583 -566.852703 " transform="matrix(0.999758,0,0,0.999758,-56.789195,763.996794)"/>
</g>
</g>
</svg>