<?xml version="1.0" encoding="UTF-8"?><svg xmlns="http://www.w3.org/2000/svg" xmlns:xlink="http://www.w3.org/1999/xlink" viewBox="0 0 397.85 276.736" width="216.81pt" height="150.80842568807338pt" version="1.2">
<defs>
<clipPath id="clip1">
  <path d="M 0.113281 275 L 397.585938 275 L 397.585938 276.472656 L 0.113281 276.472656 Z "/>
</clipPath>
<clipPath id="clip2">
  <path d="M 0.113281 147 L 2 147 L 2 276.472656 L 0.113281 276.472656 Z "/>
</clipPath>
<clipPath id="clip3">
  <path d="M 396 147 L 397.585938 147 L 397.585938 276.472656 L 396 276.472656 Z "/>
</clipPath>
<clipPath id="clip4">
  <path d="M 0.113281 193 L 397.585938 193 L 397.585938 195 L 0.113281 195 Z "/>
</clipPath>
</defs>
<g id="surface1">
<path style="fill:none;stroke-width:1;stroke-linecap:butt;stroke-linejoin:miter;stroke:rgb(13.729858%,12.159729%,12.548828%);stroke-opacity:1;stroke-miterlimit:10;" d="M -0.0000302057 0.000278887 L -0.0000302057 0.000278887 " transform="matrix(0.999047,0,0,-0.999047,189.328155,129.336216)"/>
<path style="fill:none;stroke-width:1;stroke-linecap:butt;stroke-linejoin:round;stroke:rgb(13.729858%,12.159729%,12.548828%);stroke-opacity:1;stroke-miterlimit:10;" d="M -0.00125415 0.000758672 L -0.00125415 -226.770057 " transform="matrix(0.999047,0,0,-0.999047,198.286409,8.082789)"/>
<path style="fill:none;stroke-width:1;stroke-linecap:butt;stroke-linejoin:miter;stroke:rgb(13.729858%,12.159729%,12.548828%);stroke-opacity:1;stroke-miterlimit:10;" d="M 0.000538032 0.00155085 L 226.771354 0.00155085 " transform="matrix(0.999047,0,0,-0.999047,85.007275,121.360924)"/>
<path style=" stroke:none;fill-rule:nonzero;fill:rgb(13.729858%,12.159729%,12.548828%);fill-opacity:1;" d="M 173.460938 233.523438 C 173.460938 233.523438 173.835938 233.871094 174.445312 234.507812 C 174.597656 234.667969 174.765625 234.84375 174.945312 235.039062 C 175.140625 235.199219 175.347656 235.375 175.570312 235.558594 C 176.023438 235.914062 176.449219 236.335938 177.050781 236.703125 C 177.335938 236.890625 177.628906 237.085938 177.933594 237.292969 C 178.25 237.476562 178.589844 237.640625 178.925781 237.824219 C 179.570312 238.230469 180.371094 238.425781 181.105469 238.773438 C 181.898438 238.984375 182.699219 239.238281 183.546875 239.347656 C 184.378906 239.546875 185.246094 239.527344 186.105469 239.582031 C 186.964844 239.53125 187.835938 239.550781 188.667969 239.351562 C 189.515625 239.246094 190.316406 238.984375 191.109375 238.777344 C 191.84375 238.429688 192.644531 238.238281 193.292969 237.828125 C 193.625 237.644531 193.964844 237.480469 194.28125 237.296875 C 194.585938 237.089844 194.882812 236.894531 195.164062 236.703125 C 195.761719 236.34375 196.214844 235.898438 196.664062 235.535156 C 196.886719 235.34375 197.097656 235.167969 197.292969 235.003906 C 197.464844 234.820312 197.625 234.652344 197.773438 234.5 C 198.367188 233.886719 198.75 233.53125 198.75 233.53125 L 198.925781 233.621094 C 198.925781 233.621094 198.675781 234.046875 198.230469 234.789062 C 198.121094 234.976562 198 235.183594 197.867188 235.40625 C 197.71875 235.621094 197.53125 235.832031 197.34375 236.070312 C 196.957031 236.53125 196.570312 237.097656 195.992188 237.574219 C 195.71875 237.828125 195.433594 238.089844 195.140625 238.363281 C 194.832031 238.617188 194.476562 238.835938 194.128906 239.082031 C 193.457031 239.617188 192.613281 239.957031 191.792969 240.390625 C 190.914062 240.691406 190.023438 241.085938 189.050781 241.230469 C 188.097656 241.480469 187.097656 241.5 186.105469 241.578125 C 185.113281 241.503906 184.113281 241.480469 183.164062 241.234375 C 182.191406 241.089844 181.300781 240.691406 180.421875 240.390625 C 179.597656 239.957031 178.757812 239.617188 178.082031 239.082031 C 177.738281 238.835938 177.382812 238.617188 177.074219 238.363281 C 176.777344 238.089844 176.492188 237.828125 176.222656 237.574219 C 175.644531 237.101562 175.253906 236.53125 174.867188 236.066406 C 174.679688 235.828125 174.488281 235.613281 174.34375 235.398438 C 174.210938 235.175781 174.089844 234.972656 173.980469 234.789062 C 173.539062 234.050781 173.289062 233.628906 173.289062 233.628906 Z "/>
<path style=" stroke:none;fill-rule:nonzero;fill:rgb(13.729858%,12.159729%,12.548828%);fill-opacity:1;" d="M 197.644531 9.546875 C 197.644531 9.546875 197.777344 9.050781 198.050781 8.214844 C 198.125 8.007812 198.203125 7.777344 198.289062 7.527344 C 198.386719 7.277344 198.554688 7.023438 198.707031 6.738281 C 199.03125 6.183594 199.378906 5.480469 199.925781 4.914062 C 200.1875 4.605469 200.457031 4.285156 200.738281 3.953125 C 201.042969 3.640625 201.40625 3.378906 201.761719 3.074219 C 202.449219 2.433594 203.324219 1.964844 204.21875 1.460938 C 204.683594 1.246094 205.175781 1.066406 205.664062 0.867188 C 205.914062 0.777344 206.15625 0.652344 206.417969 0.589844 L 207.207031 0.414062 C 208.257812 0.132812 209.363281 0.0859375 210.460938 0 C 211.5625 0.0898438 212.664062 0.132812 213.71875 0.417969 L 214.503906 0.59375 C 214.765625 0.660156 215.007812 0.78125 215.257812 0.871094 C 215.75 1.070312 216.238281 1.25 216.703125 1.464844 C 217.601562 1.96875 218.46875 2.441406 219.160156 3.078125 C 219.511719 3.382812 219.878906 3.644531 220.183594 3.957031 C 220.460938 4.289062 220.734375 4.609375 220.996094 4.917969 C 221.546875 5.492188 221.871094 6.167969 222.191406 6.714844 C 222.34375 6.996094 222.511719 7.238281 222.613281 7.496094 C 222.703125 7.753906 222.789062 7.992188 222.867188 8.210938 C 223.15625 9.070312 223.28125 9.554688 223.28125 9.554688 L 223.105469 9.644531 C 223.105469 9.644531 222.847656 9.226562 222.40625 8.5 C 222.292969 8.320312 222.171875 8.117188 222.039062 7.898438 C 221.890625 7.6875 221.699219 7.480469 221.515625 7.25 C 221.128906 6.800781 220.742188 6.246094 220.167969 5.789062 C 219.894531 5.542969 219.613281 5.289062 219.324219 5.027344 C 219.015625 4.78125 218.664062 4.574219 218.324219 4.332031 C 217.65625 3.820312 216.828125 3.496094 216.019531 3.082031 C 215.15625 2.800781 214.285156 2.425781 213.332031 2.296875 C 212.402344 2.066406 211.429688 2.058594 210.460938 1.996094 C 209.496094 2.058594 208.519531 2.066406 207.589844 2.296875 C 206.640625 2.425781 205.765625 2.800781 204.902344 3.082031 C 204.09375 3.496094 203.265625 3.820312 202.601562 4.335938 C 202.257812 4.574219 201.910156 4.78125 201.601562 5.027344 C 201.308594 5.289062 201.027344 5.542969 200.757812 5.789062 C 200.183594 6.25 199.796875 6.796875 199.414062 7.246094 C 199.226562 7.476562 199.039062 7.679688 198.890625 7.890625 C 198.753906 8.113281 198.632812 8.3125 198.519531 8.5 C 198.070312 9.230469 197.816406 9.652344 197.816406 9.652344 Z "/>
<path style=" stroke:none;fill-rule:nonzero;fill:rgb(13.729858%,12.159729%,12.548828%);fill-opacity:1;" d="M 312.207031 146.285156 C 312.207031 146.285156 312.515625 145.871094 313.09375 145.199219 C 313.367188 144.859375 313.78125 144.476562 314.082031 143.984375 C 314.242188 143.75 314.414062 143.496094 314.597656 143.234375 C 314.765625 142.960938 314.996094 142.75 315.144531 142.417969 C 315.3125 142.113281 315.484375 141.796875 315.664062 141.46875 C 315.851562 141.148438 316.050781 140.832031 316.179688 140.460938 C 316.328125 140.101562 316.480469 139.738281 316.636719 139.367188 C 316.78125 138.992188 316.878906 138.59375 317.007812 138.203125 C 317.320312 137.433594 317.324219 136.558594 317.535156 135.734375 C 317.585938 134.878906 317.699219 134.015625 317.59375 133.144531 C 317.59375 132.710938 317.589844 132.277344 317.5 131.851562 C 317.421875 131.425781 317.398438 130.988281 317.289062 130.574219 C 317.160156 130.167969 317.0625 129.753906 316.96875 129.339844 C 316.871094 128.925781 316.683594 128.550781 316.550781 128.160156 C 316.476562 127.96875 316.40625 127.773438 316.332031 127.585938 C 316.230469 127.410156 316.144531 127.230469 316.058594 127.050781 C 315.875 126.695312 315.726562 126.324219 315.527344 125.996094 C 315.074219 125.390625 314.75 124.699219 314.277344 124.207031 C 314.058594 123.945312 313.839844 123.695312 313.644531 123.441406 C 313.433594 123.199219 313.203125 123.007812 312.996094 122.804688 C 312.578125 122.414062 312.222656 122.023438 311.863281 121.800781 C 311.183594 121.289062 310.777344 120.953125 310.777344 120.953125 L 310.84375 120.761719 C 310.84375 120.761719 311.304688 120.960938 312.101562 121.3125 C 312.515625 121.460938 312.960938 121.75 313.472656 122.082031 C 313.722656 122.25 314.011719 122.410156 314.277344 122.617188 C 314.535156 122.84375 314.808594 123.078125 315.089844 123.324219 C 315.691406 123.78125 316.160156 124.453125 316.734375 125.089844 C 317 125.429688 317.214844 125.816406 317.464844 126.191406 C 317.589844 126.382812 317.710938 126.574219 317.835938 126.769531 C 317.933594 126.976562 318.03125 127.1875 318.132812 127.402344 C 318.316406 127.828125 318.558594 128.246094 318.707031 128.707031 C 318.851562 129.167969 319 129.632812 319.148438 130.101562 C 319.285156 130.574219 319.335938 131.074219 319.433594 131.5625 C 319.546875 132.050781 319.570312 132.550781 319.585938 133.050781 C 319.675781 134.054688 319.523438 135.050781 319.433594 136.035156 C 319.195312 136.988281 319.050781 137.957031 318.65625 138.8125 C 318.472656 139.246094 318.34375 139.691406 318.128906 140.085938 C 317.90625 140.480469 317.6875 140.863281 317.476562 141.238281 C 317.285156 141.625 317.035156 141.957031 316.78125 142.273438 C 316.535156 142.59375 316.296875 142.902344 316.070312 143.199219 C 315.597656 143.777344 315.054688 144.21875 314.636719 144.652344 C 314.21875 145.105469 313.757812 145.367188 313.421875 145.636719 C 312.722656 146.152344 312.324219 146.441406 312.324219 146.441406 Z "/>
<path style=" stroke:none;fill-rule:nonzero;fill:rgb(13.729858%,12.159729%,12.548828%);fill-opacity:1;" d="M 84.398438 98.457031 C 84.398438 98.457031 84.132812 98.851562 83.628906 99.5 C 83.503906 99.660156 83.363281 99.835938 83.210938 100.027344 C 83.132812 100.121094 83.050781 100.222656 82.96875 100.324219 C 82.902344 100.429688 82.832031 100.539062 82.761719 100.65625 C 82.484375 101.121094 82.164062 101.59375 81.835938 102.121094 C 81.695312 102.40625 81.550781 102.703125 81.398438 103.011719 C 81.261719 103.320312 81.042969 103.59375 80.941406 103.941406 C 80.710938 104.613281 80.402344 105.277344 80.246094 106.015625 C 80.164062 106.386719 80.011719 106.734375 79.984375 107.121094 C 79.949219 107.507812 79.894531 107.886719 79.816406 108.265625 C 79.753906 108.648438 79.785156 109.046875 79.757812 109.4375 L 79.738281 110.023438 L 79.796875 110.609375 C 79.792969 111.402344 79.964844 112.171875 80.101562 112.941406 C 80.355469 113.671875 80.464844 114.453125 80.804688 115.117188 C 81.0625 115.828125 81.433594 116.445312 81.746094 117.078125 C 81.925781 117.375 82.144531 117.632812 82.320312 117.917969 C 82.496094 118.203125 82.675781 118.476562 82.894531 118.695312 C 83.3125 119.152344 83.667969 119.636719 84.078125 119.957031 C 84.472656 120.292969 84.796875 120.667969 85.128906 120.855469 C 85.765625 121.308594 86.148438 121.609375 86.148438 121.609375 L 86.09375 121.800781 C 86.09375 121.800781 85.664062 121.640625 84.914062 121.355469 C 84.523438 121.242188 84.117188 120.96875 83.628906 120.695312 C 83.121094 120.449219 82.640625 120.035156 82.105469 119.601562 C 81.824219 119.398438 81.578125 119.140625 81.328125 118.859375 C 81.082031 118.585938 80.804688 118.3125 80.554688 118.007812 C 80.113281 117.355469 79.585938 116.699219 79.238281 115.90625 C 78.800781 115.160156 78.550781 114.296875 78.25 113.445312 C 78.054688 112.558594 77.832031 111.660156 77.804688 110.738281 L 77.757812 110.046875 L 77.796875 109.359375 C 77.839844 108.902344 77.828125 108.441406 77.917969 107.996094 C 78.007812 107.554688 78.097656 107.113281 78.1875 106.675781 C 78.257812 106.238281 78.460938 105.839844 78.589844 105.429688 C 78.828125 104.59375 79.277344 103.882812 79.632812 103.183594 C 80.019531 102.496094 80.511719 101.925781 80.898438 101.359375 C 81.351562 100.839844 81.8125 100.402344 82.195312 99.996094 C 82.566406 99.570312 82.992188 99.332031 83.289062 99.070312 C 83.917969 98.582031 84.277344 98.300781 84.277344 98.300781 Z "/>
<path style="fill:none;stroke-width:1;stroke-linecap:butt;stroke-linejoin:round;stroke:rgb(13.729858%,12.159729%,12.548828%);stroke-opacity:1;stroke-miterlimit:10;" d="M -0.00175566 0.00103782 C -0.00175566 -3.912849 -3.172747 -7.08775 -7.086633 -7.08775 C -11.000519 -7.08775 -14.17151 -3.912849 -14.17151 0.00103782 C -14.17151 3.914924 -11.000519 7.085915 -7.086633 7.085915 C -3.172747 7.085915 -0.00175566 3.914924 -0.00175566 0.00103782 Z " transform="matrix(0.999047,0,0,-0.999047,298.169723,120.856506)"/>
<g clip-path="url(#clip1)" clip-rule="nonzero">
<path style="fill:none;stroke-width:1;stroke-linecap:butt;stroke-linejoin:miter;stroke:rgb(13.729858%,12.159729%,12.548828%);stroke-opacity:1;stroke-miterlimit:10;" d="M -0.000903727 0.000071963 L 396.849979 0.000071963 " transform="matrix(0.999047,0,0,-0.999047,0.614184,275.972728)"/>
</g>
<g clip-path="url(#clip2)" clip-rule="nonzero">
<path style="fill:none;stroke-width:1;stroke-linecap:butt;stroke-linejoin:bevel;stroke:rgb(13.729858%,12.159729%,12.548828%);stroke-opacity:1;stroke-miterlimit:10;" d="M -0.000903727 -0.00166935 L -0.000903727 127.557403 " transform="matrix(0.999047,0,0,-0.999047,0.614184,275.752238)"/>
</g>
<g clip-path="url(#clip3)" clip-rule="nonzero">
<path style="fill:none;stroke-width:1;stroke-linecap:butt;stroke-linejoin:miter;stroke:rgb(13.729858%,12.159729%,12.548828%);stroke-opacity:1;stroke-miterlimit:10;" d="M -0.000121365 -0.000709496 L -0.000121365 127.558363 " transform="matrix(0.999047,0,0,-0.999047,397.086059,275.72976)"/>
</g>
<path style="fill:none;stroke-width:1;stroke-linecap:butt;stroke-linejoin:round;stroke:rgb(13.729858%,12.159729%,12.548828%);stroke-opacity:1;stroke-miterlimit:10;" d="M 0.000543651 -0.00166829 C 0.000543651 -3.915555 -3.170447 -7.086546 -7.084334 -7.086546 C -10.99822 -7.086546 -14.169211 -3.915555 -14.169211 -0.00166829 C -14.169211 3.912218 -10.99822 7.087119 -7.084334 7.087119 C -3.170447 7.087119 0.000543651 3.912218 0.000543651 -0.00166829 Z " transform="matrix(0.999047,0,0,-0.999047,205.292426,184.599896)"/>
<g clip-path="url(#clip4)" clip-rule="nonzero">
<path style="fill:none;stroke-width:1;stroke-linecap:butt;stroke-linejoin:miter;stroke:rgb(13.729858%,12.159729%,12.548828%);stroke-opacity:1;stroke-miterlimit:10;" d="M -0.000903727 0.000575602 L 396.849979 0.000575602 " transform="matrix(0.999047,0,0,-0.999047,0.614184,193.551356)"/>
</g>
<path style="fill:none;stroke-width:1;stroke-linecap:butt;stroke-linejoin:round;stroke:rgb(13.729858%,12.159729%,12.548828%);stroke-opacity:1;stroke-miterlimit:10;" d="M 0.000543651 0.000808872 C 0.000543651 -3.913078 -3.170447 -7.084069 -7.084334 -7.084069 C -10.99822 -7.084069 -14.169211 -3.913078 -14.169211 0.000808872 C -14.169211 3.914695 -10.99822 7.085686 -7.084334 7.085686 C -3.170447 7.085686 0.000543651 3.914695 0.000543651 0.000808872 Z " transform="matrix(0.999047,0,0,-0.999047,205.292426,87.821121)"/>
<path style="fill:none;stroke-width:1;stroke-linecap:butt;stroke-linejoin:round;stroke:rgb(13.729858%,12.159729%,12.548828%);stroke-opacity:1;stroke-miterlimit:10;" d="M -0.000456349 -0.00185913 C -0.000456349 -3.915746 -3.171447 -7.086736 -7.085334 -7.086736 C -10.99922 -7.086736 -14.170211 -3.915746 -14.170211 -0.00185913 C -14.170211 3.915937 -10.99922 7.086928 -7.085334 7.086928 C -3.171447 7.086928 -0.000456349 3.915937 -0.000456349 -0.00185913 Z " transform="matrix(0.999047,0,0,-0.999047,205.293425,121.361424)"/>
<path style=" stroke:none;fill-rule:nonzero;fill:rgb(13.729858%,12.159729%,12.548828%);fill-opacity:1;" d="M 201.046875 121.363281 C 201.046875 122.925781 199.777344 124.191406 198.214844 124.191406 C 196.652344 124.191406 195.382812 122.925781 195.382812 121.363281 C 195.382812 119.796875 196.652344 118.527344 198.214844 118.527344 C 199.777344 118.527344 201.046875 119.796875 201.046875 121.363281 "/>
<path style="fill:none;stroke-width:1;stroke-linecap:butt;stroke-linejoin:round;stroke:rgb(13.729858%,12.159729%,12.548828%);stroke-opacity:1;stroke-miterlimit:10;" d="M 0.00129922 -0.00185913 C 0.00129922 -1.56585 -1.269443 -2.832682 -2.833434 -2.832682 C -4.397424 -2.832682 -5.668167 -1.56585 -5.668167 -0.00185913 C -5.668167 1.566041 -4.397424 2.836784 -2.833434 2.836784 C -1.269443 2.836784 0.00129922 1.566041 0.00129922 -0.00185913 Z " transform="matrix(0.999047,0,0,-0.999047,201.045577,121.361424)"/>
</g>
</svg>