<?xml version="1.0" encoding="UTF-8"?><svg xmlns="http://www.w3.org/2000/svg" xmlns:xlink="http://www.w3.org/1999/xlink" viewBox="0 0 432.782 218.561" width="112.7pt" height="56.91508588619675pt" version="1.2">
<defs>
<clipPath id="clip1">
  <path d="M 0.324219 205 L 432.238281 205 L 432.238281 218.121094 L 0.324219 218.121094 Z "/>
</clipPath>
<clipPath id="clip2">
  <path d="M 0.324219 0 L 432.238281 0 L 432.238281 218.121094 L 0.324219 218.121094 Z "/>
</clipPath>
<clipPath id="clip3">
  <path d="M 0.324219 0 L 13 0 L 13 218.121094 L 0.324219 218.121094 Z "/>
</clipPath>
<clipPath id="clip4">
  <path d="M 0.324219 27 L 57 27 L 57 30 L 0.324219 30 Z "/>
</clipPath>
<clipPath id="clip5">
  <path d="M 377 215 L 432.238281 215 L 432.238281 218 L 377 218 Z "/>
</clipPath>
</defs>
<g id="surface1">
<g clip-path="url(#clip1)" clip-rule="nonzero">
<path style="fill:none;stroke-width:2;stroke-linecap:butt;stroke-linejoin:miter;stroke:rgb(13.729858%,12.159729%,12.548828%);stroke-opacity:1;stroke-miterlimit:4;" d="M 0.00123721 -0.000115661 L 431.334624 0.665281 " transform="matrix(0.997995,0,0,-0.997995,1.322984,217.124885)"/>
</g>
<g clip-path="url(#clip2)" clip-rule="nonzero">
<path style="fill:none;stroke-width:2;stroke-linecap:butt;stroke-linejoin:miter;stroke:rgb(13.729858%,12.159729%,12.548828%);stroke-opacity:1;stroke-miterlimit:4;" d="M 0.000435377 0.0015861 L 431.001124 -216.001719 " transform="matrix(0.997995,0,0,-0.997995,1.655815,0.892208)"/>
</g>
<g clip-path="url(#clip3)" clip-rule="nonzero">
<path style="fill:none;stroke-width:2;stroke-linecap:butt;stroke-linejoin:miter;stroke:rgb(13.729858%,12.159729%,12.548828%);stroke-opacity:1;stroke-miterlimit:4;" d="M 0.00123721 -0.000115661 L 0.333935 216.668586 " transform="matrix(0.997995,0,0,-0.997995,1.322984,217.124885)"/>
</g>
<g clip-path="url(#clip4)" clip-rule="nonzero">
<path style="fill:none;stroke-width:2;stroke-linecap:butt;stroke-linejoin:miter;stroke:rgb(13.729858%,12.159729%,12.548828%);stroke-opacity:1;stroke-miterlimit:4;" d="M -0.00157322 -0.000960819 L 55.332003 -0.000960819 " transform="matrix(0.997995,0,0,-0.997995,0.65782,28.170916)"/>
</g>
<path style="fill:none;stroke-width:2;stroke-linecap:butt;stroke-linejoin:miter;stroke:rgb(13.729858%,12.159729%,12.548828%);stroke-opacity:1;stroke-miterlimit:4;" d="M -0.00149715 -0.000960819 L -0.00149715 -27.333094 " transform="matrix(0.997995,0,0,-0.997995,55.8804,28.170916)"/>
<path style="fill:none;stroke-width:2;stroke-linecap:butt;stroke-linejoin:miter;stroke:rgb(13.729858%,12.159729%,12.548828%);stroke-opacity:1;stroke-miterlimit:4;" d="M -0.00149715 -0.0000936386 L 54.666683 -0.0000936386 " transform="matrix(0.997995,0,0,-0.997995,55.8804,55.449125)"/>
<path style="fill:none;stroke-width:2;stroke-linecap:butt;stroke-linejoin:miter;stroke:rgb(13.729858%,12.159729%,12.548828%);stroke-opacity:1;stroke-miterlimit:4;" d="M 0.00128626 -0.0000936386 L 0.00128626 -27.332226 " transform="matrix(0.997995,0,0,-0.997995,109.772154,55.449125)"/>
<path style="fill:none;stroke-width:2;stroke-linecap:butt;stroke-linejoin:miter;stroke:rgb(13.729858%,12.159729%,12.548828%);stroke-opacity:1;stroke-miterlimit:4;" d="M 0.00128626 0.000773541 L 54.665552 0.000773541 " transform="matrix(0.997995,0,0,-0.997995,109.772154,82.727334)"/>
<path style="fill:none;stroke-width:2;stroke-linecap:butt;stroke-linejoin:miter;stroke:rgb(13.729858%,12.159729%,12.548828%);stroke-opacity:1;stroke-miterlimit:4;" d="M 0.000155565 -0.00153689 L 0.000155565 -27.33367 " transform="matrix(0.997995,0,0,-0.997995,163.663907,83.392997)"/>
<path style="fill:none;stroke-width:2;stroke-linecap:butt;stroke-linejoin:miter;stroke:rgb(13.729858%,12.159729%,12.548828%);stroke-opacity:1;stroke-miterlimit:4;" d="M 0.000155565 -0.000669705 L 54.668335 -0.000669705 " transform="matrix(0.997995,0,0,-0.997995,163.663907,110.671207)"/>
<path style="fill:none;stroke-width:2;stroke-linecap:butt;stroke-linejoin:miter;stroke:rgb(13.729858%,12.159729%,12.548828%);stroke-opacity:1;stroke-miterlimit:4;" d="M 0.0018353 -0.00177337 L 0.0018353 -27.333906 " transform="matrix(0.997995,0,0,-0.997995,218.220825,110.006043)"/>
<path style="fill:none;stroke-width:2;stroke-linecap:butt;stroke-linejoin:miter;stroke:rgb(13.729858%,12.159729%,12.548828%);stroke-opacity:1;stroke-miterlimit:4;" d="M 0.0018353 -0.000906194 L 54.666101 -0.000906194 " transform="matrix(0.997995,0,0,-0.997995,218.220825,137.284252)"/>
<path style="fill:none;stroke-width:2;stroke-linecap:butt;stroke-linejoin:miter;stroke:rgb(13.729858%,12.159729%,12.548828%);stroke-opacity:1;stroke-miterlimit:4;" d="M 0.00070461 -0.00150986 L 0.00070461 -27.333643 " transform="matrix(0.997995,0,0,-0.997995,272.112578,136.619587)"/>
<path style="fill:none;stroke-width:2;stroke-linecap:butt;stroke-linejoin:miter;stroke:rgb(13.729858%,12.159729%,12.548828%);stroke-opacity:1;stroke-miterlimit:4;" d="M 0.00070461 -0.000642683 L 54.66497 -0.000642683 " transform="matrix(0.997995,0,0,-0.997995,272.112578,163.897796)"/>
<path style="fill:none;stroke-width:2;stroke-linecap:butt;stroke-linejoin:miter;stroke:rgb(13.729858%,12.159729%,12.548828%);stroke-opacity:1;stroke-miterlimit:4;" d="M 0.00117759 -0.00124635 L 0.00117759 -27.333379 " transform="matrix(0.997995,0,0,-0.997995,325.338669,163.233131)"/>
<path style="fill:none;stroke-width:2;stroke-linecap:butt;stroke-linejoin:miter;stroke:rgb(13.729858%,12.159729%,12.548828%);stroke-opacity:1;stroke-miterlimit:4;" d="M 0.00117759 -0.000379172 L 54.665443 -0.000379172 " transform="matrix(0.997995,0,0,-0.997995,325.338669,190.51134)"/>
<path style="fill:none;stroke-width:2;stroke-linecap:butt;stroke-linejoin:miter;stroke:rgb(13.729858%,12.159729%,12.548828%);stroke-opacity:1;stroke-miterlimit:4;" d="M -0.00125494 -0.00128468 L -0.00125494 -26.331409 " transform="matrix(0.997995,0,0,-0.997995,379.563752,189.514343)"/>
<g clip-path="url(#clip5)" clip-rule="nonzero">
<path style="fill:none;stroke-width:2;stroke-linecap:butt;stroke-linejoin:miter;stroke:rgb(13.729858%,12.159729%,12.548828%);stroke-opacity:1;stroke-miterlimit:4;" d="M 0.000650566 -0.000417496 L 52.664813 -0.000417496 " transform="matrix(0.997995,0,0,-0.997995,378.565757,216.792552)"/>
</g>
</g>
</svg>