<?xml version="1.0" encoding="UTF-8"?><svg xmlns="http://www.w3.org/2000/svg" xmlns:xlink="http://www.w3.org/1999/xlink" viewBox="0 0 386.844 111" width="216.81pt" height="62.21089121196141pt" version="1.2">
<defs>
<clipPath id="clip1">
  <path d="M 0 0.0234375 L 2 0.0234375 L 2 110.976562 L 0 110.976562 Z "/>
</clipPath>
<clipPath id="clip2">
  <path d="M 184 29 L 386.6875 29 L 386.6875 77 L 184 77 Z "/>
</clipPath>
<clipPath id="clip3">
  <path d="M 362 29 L 386.6875 29 L 386.6875 77 L 362 77 Z "/>
</clipPath>
</defs>
<g id="surface1">
<g clip-path="url(#clip1)" clip-rule="nonzero">
<path style="fill:none;stroke-width:1.5;stroke-linecap:butt;stroke-linejoin:miter;stroke:rgb(13.729858%,12.159729%,12.548828%);stroke-opacity:1;stroke-miterlimit:4;" d="M 0.000302447 0.00106584 L 0.000302447 110.998934 " transform="matrix(0.999597,0,0,-0.999597,0.749698,110.977628)"/>
</g>
<path style="fill:none;stroke-width:1.5;stroke-linecap:butt;stroke-linejoin:miter;stroke:rgb(13.729858%,12.159729%,12.548828%);stroke-opacity:1;stroke-miterlimit:4;" d="M -0.00080965 0.000172238 L 83.224145 0.000172238 L 83.224145 58.06264 L -0.00080965 58.06264 " transform="matrix(0.999597,0,0,-0.999597,0.395341,84.11736)"/>
<path style="fill:none;stroke-width:1;stroke-linecap:butt;stroke-linejoin:miter;stroke:rgb(13.729858%,12.159729%,12.548828%);stroke-opacity:1;stroke-miterlimit:4;" d="M -0.00166419 -0.00171167 L 76.658144 -0.00171167 " transform="matrix(0.999597,0,0,-0.999597,84.232132,53.806883)"/>
<path style="fill:none;stroke-width:1.5;stroke-linecap:butt;stroke-linejoin:miter;stroke:rgb(13.729858%,12.159729%,12.548828%);stroke-opacity:1;stroke-miterlimit:4;" d="M -0.000617925 0.00182571 C -8.617373 0.00182571 -15.600656 -6.985366 -15.600656 -15.602121 C -15.600656 -24.214967 -8.617373 -31.198251 -0.000617925 -31.198251 C 8.616137 -31.198251 15.59942 -24.214967 15.59942 -15.602121 C 15.59942 -6.985366 8.616137 0.00182571 -0.000617925 0.00182571 Z " transform="matrix(0.999597,0,0,-0.999597,176.453743,37.568231)"/>
<g clip-path="url(#clip2)" clip-rule="nonzero">
<path style="fill:none;stroke-width:1.5;stroke-linecap:butt;stroke-linejoin:miter;stroke:rgb(13.729858%,12.159729%,12.548828%);stroke-opacity:1;stroke-miterlimit:4;" d="M -0.00186411 -0.000288115 L -166.666703 0.144301 C -177.436669 0.144301 -186.166751 -6.569342 -186.166751 -14.853932 C -186.166751 -23.138521 -177.436669 -29.852165 -166.666703 -29.852165 L -0.00186411 -30.106174 " transform="matrix(0.999597,0,0,-0.999597,379.201082,37.972368)"/>
</g>
<path style=" stroke:none;fill-rule:nonzero;fill:rgb(13.729858%,12.159729%,12.548828%);fill-opacity:1;" d="M 38.371094 62.894531 C 41.597656 62.894531 41.597656 57.898438 38.371094 57.898438 C 35.148438 57.898438 35.148438 62.894531 38.371094 62.894531 "/>
<path style=" stroke:none;fill-rule:nonzero;fill:rgb(13.729858%,12.159729%,12.548828%);fill-opacity:1;" d="M 38.371094 49.996094 C 41.597656 49.996094 41.597656 45 38.371094 45 C 35.148438 45 35.148438 49.996094 38.371094 49.996094 "/>
<g clip-path="url(#clip3)" clip-rule="nonzero">
<path style="fill:none;stroke-width:1.5;stroke-linecap:butt;stroke-linejoin:miter;stroke:rgb(13.729858%,12.159729%,12.548828%);stroke-opacity:1;stroke-miterlimit:4;" d="M -0.00106556 0.00100816 C -0.00106556 -8.834585 -3.357887 -15.001133 -7.500182 -15.001133 C -11.642477 -15.001133 -14.999299 -8.834585 -14.999299 0.00100816 C -14.999299 8.836601 -11.642477 14.999241 -7.500182 14.999241 C -3.357887 14.999241 -0.00106556 8.836601 -0.00106556 0.00100816 Z " transform="matrix(0.999597,0,0,-0.999597,385.938565,53.001008)"/>
</g>
</g>
</svg>