<?xml version="1.0" encoding="UTF-8"?><svg xmlns="http://www.w3.org/2000/svg" xmlns:xlink="http://www.w3.org/1999/xlink" viewBox="0 0 315.085 302.282" width="216.8pt" height="207.99066156751354pt" version="1.2">
<defs>
<clipPath id="clip1">
  <path d="M 0 0.078125 L 314 0.078125 L 314 28 L 0 28 Z "/>
</clipPath>
<clipPath id="clip2">
  <path d="M 0 13 L 4 13 L 4 301.488281 L 0 301.488281 Z "/>
</clipPath>
<clipPath id="clip3">
  <path d="M 0 299 L 314.171875 299 L 314.171875 301.488281 L 0 301.488281 Z "/>
</clipPath>
<clipPath id="clip4">
  <path d="M 312 0.078125 L 314.171875 0.078125 L 314.171875 301.488281 L 312 301.488281 Z "/>
</clipPath>
</defs>
<g id="surface1">
<path style="fill:none;stroke-width:2;stroke-linecap:butt;stroke-linejoin:miter;stroke:rgb(13.729858%,12.159729%,12.548828%);stroke-opacity:1;stroke-miterlimit:4;" d="M 0.000925388 -0.000817863 L -0.52795 26.78377 " transform="matrix(0.997104,0,0,-0.997104,95.831109,186.440591)"/>
<path style="fill:none;stroke-width:2;stroke-linecap:butt;stroke-linejoin:miter;stroke:rgb(13.729858%,12.159729%,12.548828%);stroke-opacity:1;stroke-miterlimit:4;" d="M -0.00138937 0.00101599 L 10.572196 -5.918468 " transform="matrix(0.997104,0,0,-0.997104,96.052167,160.946326)"/>
<path style="fill:none;stroke-width:2;stroke-linecap:butt;stroke-linejoin:miter;stroke:rgb(13.729858%,12.159729%,12.548828%);stroke-opacity:1;stroke-miterlimit:4;" d="M -0.00194294 0.00177136 L 8.311191 6.473636 " transform="matrix(0.997104,0,0,-0.997104,96.529281,185.224422)"/>
<path style="fill:none;stroke-width:2;stroke-linecap:butt;stroke-linejoin:miter;stroke:rgb(13.729858%,12.159729%,12.548828%);stroke-opacity:1;stroke-miterlimit:4;" d="M 0.00085744 -0.000271901 C 0.00085744 -0.000271901 -20.507745 -0.364608 -25.487007 -0.450795 " transform="matrix(0.997104,0,0,-0.997104,185.581176,167.42551)"/>
<path style="fill:none;stroke-width:2;stroke-linecap:butt;stroke-linejoin:miter;stroke:rgb(13.729858%,12.159729%,12.548828%);stroke-opacity:1;stroke-miterlimit:4;" d="M 0.000691239 0.00125 L 7.91423 10.277098 " transform="matrix(0.997104,0,0,-0.997104,160.300092,168.598903)"/>
<path style="fill:none;stroke-width:2;stroke-linecap:butt;stroke-linejoin:miter;stroke:rgb(13.729858%,12.159729%,12.548828%);stroke-opacity:1;stroke-miterlimit:4;" d="M -0.001679 0.00064013 L -8.393165 9.39503 " transform="matrix(0.997104,0,0,-0.997104,184.376674,167.445951)"/>
<path style="fill:none;stroke-width:2;stroke-linecap:butt;stroke-linejoin:miter;stroke:rgb(13.729858%,12.159729%,12.548828%);stroke-opacity:1;stroke-miterlimit:4;" d="M 0.000666422 -0.00141523 L 0.666657 -26.778168 " transform="matrix(0.997104,0,0,-0.997104,167.710273,79.045464)"/>
<path style="fill:none;stroke-width:2;stroke-linecap:butt;stroke-linejoin:miter;stroke:rgb(13.729858%,12.159729%,12.548828%);stroke-opacity:1;stroke-miterlimit:4;" d="M -0.0013834 -0.00121389 L -8.604419 5.871259 " transform="matrix(0.997104,0,0,-0.997104,168.345129,104.533946)"/>
<path style="fill:none;stroke-width:2;stroke-linecap:butt;stroke-linejoin:miter;stroke:rgb(13.729858%,12.159729%,12.548828%);stroke-opacity:1;stroke-miterlimit:4;" d="M 0.000807171 0.000930738 L -8.269233 -7.516932 " transform="matrix(0.997104,0,0,-0.997104,167.741383,80.258741)"/>
<path style="fill:none;stroke-width:2;stroke-linecap:butt;stroke-linejoin:miter;stroke:rgb(13.729858%,12.159729%,12.548828%);stroke-opacity:1;stroke-miterlimit:4;" d="M 0.00164763 0.00130429 L 26.574685 0.00130429 " transform="matrix(0.997104,0,0,-0.997104,156.603826,18.075519)"/>
<path style="fill:none;stroke-width:2;stroke-linecap:butt;stroke-linejoin:miter;stroke:rgb(13.729858%,12.159729%,12.548828%);stroke-opacity:1;stroke-miterlimit:4;" d="M 0.00186661 0.00130429 L -6.039063 -8.52338 " transform="matrix(0.997104,0,0,-0.997104,181.896576,18.075519)"/>
<path style="fill:none;stroke-width:2;stroke-linecap:butt;stroke-linejoin:miter;stroke:rgb(13.729858%,12.159729%,12.548828%);stroke-opacity:1;stroke-miterlimit:4;" d="M 0.00126648 0.00130429 L 6.249828 -8.52338 " transform="matrix(0.997104,0,0,-0.997104,157.807331,18.075519)"/>
<path style="fill:none;stroke-width:2;stroke-linecap:butt;stroke-linejoin:miter;stroke:rgb(13.729858%,12.159729%,12.548828%);stroke-opacity:1;stroke-miterlimit:4;" d="M -0.00106461 -0.00170487 L 26.575891 -0.00170487 " transform="matrix(0.997104,0,0,-0.997104,78.317468,95.295175)"/>
<path style="fill:none;stroke-width:2;stroke-linecap:butt;stroke-linejoin:miter;stroke:rgb(13.729858%,12.159729%,12.548828%);stroke-opacity:1;stroke-miterlimit:4;" d="M -0.000845624 -0.00170487 L -6.037857 -8.526389 " transform="matrix(0.997104,0,0,-0.997104,103.610218,95.295175)"/>
<path style="fill:none;stroke-width:2;stroke-linecap:butt;stroke-linejoin:miter;stroke:rgb(13.729858%,12.159729%,12.548828%);stroke-opacity:1;stroke-miterlimit:4;" d="M 0.000471836 -0.00170487 L 7.244103 -8.526389 " transform="matrix(0.997104,0,0,-0.997104,79.522967,95.295175)"/>
<path style="fill:none;stroke-width:2;stroke-linecap:butt;stroke-linejoin:miter;stroke:rgb(13.729858%,12.159729%,12.548828%);stroke-opacity:1;stroke-miterlimit:4;" d="M -0.00111467 -0.0000511513 L -130.660699 -0.0000511513 " transform="matrix(0.997104,0,0,-0.997104,159.01283,27.789011)"/>
<path style="fill:none;stroke-width:2;stroke-linecap:butt;stroke-linejoin:miter;stroke:rgb(13.729858%,12.159729%,12.548828%);stroke-opacity:1;stroke-miterlimit:4;" d="M 0.000463708 -0.0000511513 L -111.137751 -0.0000511513 " transform="matrix(0.997104,0,0,-0.997104,292.710475,27.789011)"/>
<g clip-path="url(#clip1)" clip-rule="nonzero">
<path style="fill:none;stroke-width:2;stroke-linecap:butt;stroke-linejoin:miter;stroke:rgb(13.729858%,12.159729%,12.548828%);stroke-opacity:1;stroke-miterlimit:4;" d="M -0.000513615 -0.00096749 L -0.000513615 25.588754 L 312.842846 25.588754 L 312.842846 20.730938 " transform="matrix(0.997104,0,0,-0.997104,0.996606,26.592785)"/>
</g>
<g clip-path="url(#clip2)" clip-rule="nonzero">
<path style="fill:none;stroke-width:2;stroke-linecap:butt;stroke-linejoin:miter;stroke:rgb(13.729858%,12.159729%,12.548828%);stroke-opacity:1;stroke-miterlimit:4;" d="M 0.00167719 -0.00106299 L 0.00167719 286.347611 L 1.188708 286.347611 " transform="matrix(0.997104,0,0,-0.997104,1.236609,300.194253)"/>
</g>
<path style="fill:none;stroke-width:2;stroke-linecap:butt;stroke-linejoin:miter;stroke:rgb(13.729858%,12.159729%,12.548828%);stroke-opacity:1;stroke-miterlimit:4;" d="M 0.000915023 0.000335143 L 0.000915023 -159.120567 " transform="matrix(0.997104,0,0,-0.997104,27.733463,104.680022)"/>
<path style="fill:none;stroke-width:2;stroke-linecap:butt;stroke-linejoin:miter;stroke:rgb(13.729858%,12.159729%,12.548828%);stroke-opacity:1;stroke-miterlimit:4;" d="M -0.000537758 0.00165725 L 1.217834 0.00165725 L 1.217834 -52.819258 " transform="matrix(0.997104,0,0,-0.997104,27.723192,27.544621)"/>
<path style="fill:none;stroke-width:2;stroke-linecap:butt;stroke-linejoin:miter;stroke:rgb(13.729858%,12.159729%,12.548828%);stroke-opacity:1;stroke-miterlimit:4;" d="M -0.0019445 0.00187566 L -51.933566 0.00187566 " transform="matrix(0.997104,0,0,-0.997104,80.720689,105.494058)"/>
<path style="fill:none;stroke-width:2;stroke-linecap:butt;stroke-linejoin:miter;stroke:rgb(13.729858%,12.159729%,12.548828%);stroke-opacity:1;stroke-miterlimit:4;" d="M 0.000820517 0.00187566 L -54.359709 0.00187566 " transform="matrix(0.997104,0,0,-0.997104,159.018713,105.494058)"/>
<path style="fill:none;stroke-width:2;stroke-linecap:butt;stroke-linejoin:miter;stroke:rgb(13.729858%,12.159729%,12.548828%);stroke-opacity:1;stroke-miterlimit:4;" d="M 0.0000338718 -0.000543384 L 0.0000338718 0.43431 L 130.451985 0.43431 " transform="matrix(0.997104,0,0,-0.997104,28.937466,80.429146)"/>
<path style="fill:none;stroke-width:2;stroke-linecap:butt;stroke-linejoin:miter;stroke:rgb(13.729858%,12.159729%,12.548828%);stroke-opacity:1;stroke-miterlimit:4;" d="M 0.0000906851 0.000730654 L 0.0000906851 135.16163 " transform="matrix(0.997104,0,0,-0.997104,80.726472,239.05151)"/>
<path style="fill:none;stroke-width:2;stroke-linecap:butt;stroke-linejoin:miter;stroke:rgb(13.729858%,12.159729%,12.548828%);stroke-opacity:1;stroke-miterlimit:4;" d="M 0.000309667 -0.000561085 L 0.000309667 -38.972783 " transform="matrix(0.997104,0,0,-0.997104,106.019222,181.987722)"/>
<path style="fill:none;stroke-width:2;stroke-linecap:butt;stroke-linejoin:miter;stroke:rgb(13.729858%,12.159729%,12.548828%);stroke-opacity:1;stroke-miterlimit:4;" d="M 0.0000719695 -0.000470303 L 2.41331 -0.000470303 L 2.41331 -57.232596 " transform="matrix(0.997104,0,0,-0.997104,103.613209,104.280781)"/>
<path style="fill:none;stroke-width:2;stroke-linecap:butt;stroke-linejoin:miter;stroke:rgb(13.729858%,12.159729%,12.548828%);stroke-opacity:1;stroke-miterlimit:4;" d="M -0.00165508 0.000213249 L -155.81219 0.000213249 " transform="matrix(0.997104,0,0,-0.997104,261.380557,184.414275)"/>
<path style="fill:none;stroke-width:2;stroke-linecap:butt;stroke-linejoin:miter;stroke:rgb(13.729858%,12.159729%,12.548828%);stroke-opacity:1;stroke-miterlimit:4;" d="M 0.00084902 0.00161873 L 97.850586 0.00161873 " transform="matrix(0.997104,0,0,-0.997104,181.893685,157.704739)"/>
<path style="fill:none;stroke-width:2;stroke-linecap:butt;stroke-linejoin:miter;stroke:rgb(13.729858%,12.159729%,12.548828%);stroke-opacity:1;stroke-miterlimit:4;" d="M 0.000309667 0.00139307 L 0.000309667 2.434219 L 51.939766 2.434219 " transform="matrix(0.997104,0,0,-0.997104,106.019222,160.130295)"/>
<path style="fill:none;stroke-width:2;stroke-linecap:butt;stroke-linejoin:miter;stroke:rgb(13.729858%,12.159729%,12.548828%);stroke-opacity:1;stroke-miterlimit:4;" d="M 0.00183811 0.00193746 L -1.216534 0.00193746 L -1.216534 51.577058 " transform="matrix(0.997104,0,0,-0.997104,159.021605,156.923807)"/>
<path style="fill:none;stroke-width:2;stroke-linecap:butt;stroke-linejoin:miter;stroke:rgb(13.729858%,12.159729%,12.548828%);stroke-opacity:1;stroke-miterlimit:4;" d="M 0.00148546 0.0014297 L 0.00148546 -52.792063 C 0.00148546 -52.792063 0.565619 -53.794967 -0.186559 -53.794967 " transform="matrix(0.997104,0,0,-0.997104,183.100081,104.282676)"/>
<path style="fill:none;stroke-width:2;stroke-linecap:butt;stroke-linejoin:miter;stroke:rgb(13.729858%,12.159729%,12.548828%);stroke-opacity:1;stroke-miterlimit:4;" d="M 0.00148546 0.000134094 L 0.00148546 -86.672708 " transform="matrix(0.997104,0,0,-0.997104,183.100081,27.570446)"/>
<path style="fill:none;stroke-width:2;stroke-linecap:butt;stroke-linejoin:miter;stroke:rgb(13.729858%,12.159729%,12.548828%);stroke-opacity:1;stroke-miterlimit:4;" d="M 0.00126648 -0.000862117 L 0.00126648 52.796548 C 0.00126648 52.796548 0.436119 53.795534 1.188297 53.795534 " transform="matrix(0.997104,0,0,-0.997104,157.807331,81.210078)"/>
<path style="fill:none;stroke-width:2;stroke-linecap:butt;stroke-linejoin:miter;stroke:rgb(13.729858%,12.159729%,12.548828%);stroke-opacity:1;stroke-miterlimit:4;" d="M 0.0000906851 0.00187566 L 6.037103 1.21633 " transform="matrix(0.997104,0,0,-0.997104,80.726472,105.494058)"/>
<path style="fill:none;stroke-width:2;stroke-linecap:butt;stroke-linejoin:miter;stroke:rgb(13.729858%,12.159729%,12.548828%);stroke-opacity:1;stroke-miterlimit:4;" d="M 0.00114254 -0.000470303 L 7.248691 -0.000470303 " transform="matrix(0.997104,0,0,-0.997104,97.588705,104.280781)"/>
<path style="fill:none;stroke-width:2;stroke-linecap:butt;stroke-linejoin:miter;stroke:rgb(13.729858%,12.159729%,12.548828%);stroke-opacity:1;stroke-miterlimit:4;" d="M 0.00126648 -0.0000511513 L 6.249828 1.21832 " transform="matrix(0.997104,0,0,-0.997104,157.807331,27.789011)"/>
<path style="fill:none;stroke-width:2;stroke-linecap:butt;stroke-linejoin:miter;stroke:rgb(13.729858%,12.159729%,12.548828%);stroke-opacity:1;stroke-miterlimit:4;" d="M -0.00159926 -0.000879521 L 7.245949 -1.219251 " transform="matrix(0.997104,0,0,-0.997104,174.669563,26.573342)"/>
<path style="fill:none;stroke-width:2;stroke-linecap:butt;stroke-linejoin:miter;stroke:rgb(13.729858%,12.159729%,12.548828%);stroke-opacity:1;stroke-miterlimit:4;" d="M 0.00126648 0.000281143 L 2.414504 -7.306031 " transform="matrix(0.997104,0,0,-0.997104,157.807331,78.78153)"/>
<path style="fill:none;stroke-width:2;stroke-linecap:butt;stroke-linejoin:miter;stroke:rgb(13.729858%,12.159729%,12.548828%);stroke-opacity:1;stroke-miterlimit:4;" d="M 0.000785329 0.00148785 L -1.205834 -6.09037 " transform="matrix(0.997104,0,0,-0.997104,159.010936,98.208515)"/>
<path style="fill:none;stroke-width:2;stroke-linecap:butt;stroke-linejoin:miter;stroke:rgb(13.729858%,12.159729%,12.548828%);stroke-opacity:1;stroke-miterlimit:4;" d="M 0.00158975 0.00161873 L 9.454743 -1.001285 " transform="matrix(0.997104,0,0,-0.997104,158.256227,157.704739)"/>
<path style="fill:none;stroke-width:2;stroke-linecap:butt;stroke-linejoin:miter;stroke:rgb(13.729858%,12.159729%,12.548828%);stroke-opacity:1;stroke-miterlimit:4;" d="M 0.00193718 -0.00128525 L 7.249485 1.217086 " transform="matrix(0.997104,0,0,-0.997104,175.873068,158.701843)"/>
<path style="fill:none;stroke-width:2;stroke-linecap:butt;stroke-linejoin:miter;stroke:rgb(13.729858%,12.159729%,12.548828%);stroke-opacity:1;stroke-miterlimit:4;" d="M 0.000677203 0.00161873 L 0.20831 -9.741437 " transform="matrix(0.997104,0,0,-0.997104,105.811825,157.704739)"/>
<path style="fill:none;stroke-width:2;stroke-linecap:butt;stroke-linejoin:miter;stroke:rgb(13.729858%,12.159729%,12.548828%);stroke-opacity:1;stroke-miterlimit:4;" d="M 0.00169082 0.00083905 L 1.20831 -6.306487 " transform="matrix(0.997104,0,0,-0.997104,104.81472,178.125837)"/>
<g clip-path="url(#clip3)" clip-rule="nonzero">
<path style="fill:none;stroke-width:2;stroke-linecap:butt;stroke-linejoin:miter;stroke:rgb(13.729858%,12.159729%,12.548828%);stroke-opacity:1;stroke-miterlimit:4;" d="M -0.00119432 -0.00190011 L 313.637437 -0.00190011 " transform="matrix(0.997104,0,0,-0.997104,0.446503,300.490293)"/>
</g>
<g clip-path="url(#clip4)" clip-rule="nonzero">
<path style="fill:none;stroke-width:2;stroke-linecap:butt;stroke-linejoin:miter;stroke:rgb(13.729858%,12.159729%,12.548828%);stroke-opacity:1;stroke-miterlimit:4;" d="M 0.00123692 -0.00104567 L 0.00123692 -300.550996 " transform="matrix(0.997104,0,0,-0.997104,313.174548,1.077082)"/>
</g>
</g>
</svg>