<?xml version="1.0" encoding="UTF-8"?><svg xmlns="http://www.w3.org/2000/svg" xmlns:xlink="http://www.w3.org/1999/xlink" viewBox="0 0 245.3 150.724" width="156.1032pt" height="95.91723895964124pt" version="1.2">
<defs>
<clipPath id="clip1">
  <path d="M 42 111 L 94 111 L 94 150.371094 L 42 150.371094 Z "/>
</clipPath>
<clipPath id="clip2">
  <path d="M 149 113 L 201 113 L 201 150.371094 L 149 150.371094 Z "/>
</clipPath>
<clipPath id="clip3">
  <path d="M 66 105 L 118 105 L 118 150.371094 L 66 150.371094 Z "/>
</clipPath>
<clipPath id="clip4">
  <path d="M 94 102 L 138 102 L 138 150.371094 L 94 150.371094 Z "/>
</clipPath>
<clipPath id="clip5">
  <path d="M 103 102 L 146 102 L 146 150.371094 L 103 150.371094 Z "/>
</clipPath>
<clipPath id="clip6">
  <path d="M 122 105 L 166 105 L 166 150.371094 L 122 150.371094 Z "/>
</clipPath>
<clipPath id="clip7">
  <path d="M 131 113 L 174 113 L 174 150.371094 L 131 150.371094 Z "/>
</clipPath>
<clipPath id="clip8">
  <path d="M 46 0.078125 L 89 0.078125 L 89 40 L 46 40 Z "/>
</clipPath>
<clipPath id="clip9">
  <path d="M 37 0.078125 L 81 0.078125 L 81 40 L 37 40 Z "/>
</clipPath>
<clipPath id="clip10">
  <path d="M 158 0.078125 L 201 0.078125 L 201 28 L 158 28 Z "/>
</clipPath>
<clipPath id="clip11">
  <path d="M 149 0.078125 L 193 0.078125 L 193 28 L 149 28 Z "/>
</clipPath>
<clipPath id="clip12">
  <path d="M 149 0.078125 L 201 0.078125 L 201 36 L 149 36 Z "/>
</clipPath>
<clipPath id="clip13">
  <path d="M 66 0.078125 L 118 0.078125 L 118 52 L 66 52 Z "/>
</clipPath>
<clipPath id="clip14">
  <path d="M 97 0.078125 L 140 0.078125 L 140 47 L 97 47 Z "/>
</clipPath>
<clipPath id="clip15">
  <path d="M 106 0.078125 L 149 0.078125 L 149 47 L 106 47 Z "/>
</clipPath>
<clipPath id="clip16">
  <path d="M 127 0.078125 L 170 0.078125 L 170 52 L 127 52 Z "/>
</clipPath>
<clipPath id="clip17">
  <path d="M 135 0.078125 L 179 0.078125 L 179 43 L 135 43 Z "/>
</clipPath>
<clipPath id="clip18">
  <path d="M 7 110 L 59 110 L 59 150.371094 L 7 150.371094 Z "/>
</clipPath>
<clipPath id="clip19">
  <path d="M 7 119 L 59 119 L 59 150.371094 L 7 150.371094 Z "/>
</clipPath>
<clipPath id="clip20">
  <path d="M 18 0.078125 L 62 0.078125 L 62 44 L 18 44 Z "/>
</clipPath>
<clipPath id="clip21">
  <path d="M 10 0.078125 L 53 0.078125 L 53 44 L 10 44 Z "/>
</clipPath>
<clipPath id="clip22">
  <path d="M 175 113 L 227 113 L 227 150.371094 L 175 150.371094 Z "/>
</clipPath>
<clipPath id="clip23">
  <path d="M 177 0.078125 L 220 0.078125 L 220 43 L 177 43 Z "/>
</clipPath>
<clipPath id="clip24">
  <path d="M 168 0.078125 L 212 0.078125 L 212 43 L 168 43 Z "/>
</clipPath>
<clipPath id="clip25">
  <path d="M 202 26 L 244.601562 26 L 244.601562 78 L 202 78 Z "/>
</clipPath>
<clipPath id="clip26">
  <path d="M 209 56 L 244.601562 56 L 244.601562 108 L 209 108 Z "/>
</clipPath>
<clipPath id="clip27">
  <path d="M 202 86 L 244.601562 86 L 244.601562 130 L 202 130 Z "/>
</clipPath>
<clipPath id="clip28">
  <path d="M 202 95 L 244.601562 95 L 244.601562 138 L 202 138 Z "/>
</clipPath>
<clipPath id="clip29">
  <path d="M 202 114 L 244.601562 114 L 244.601562 150.371094 L 202 150.371094 Z "/>
</clipPath>
<clipPath id="clip30">
  <path d="M 202 123 L 244.601562 123 L 244.601562 150.371094 L 202 150.371094 Z "/>
</clipPath>
<clipPath id="clip31">
  <path d="M 210 0.078125 L 244.601562 0.078125 L 244.601562 43 L 210 43 Z "/>
</clipPath>
<clipPath id="clip32">
  <path d="M 201 0.078125 L 244.601562 0.078125 L 244.601562 43 L 201 43 Z "/>
</clipPath>
<clipPath id="clip33">
  <path d="M 201 8 L 244.601562 8 L 244.601562 52 L 201 52 Z "/>
</clipPath>
<clipPath id="clip34">
  <path d="M 0 0.078125 L 36 0.078125 L 36 43 L 0 43 Z "/>
</clipPath>
<clipPath id="clip35">
  <path d="M 0 0.078125 L 27 0.078125 L 27 43 L 0 43 Z "/>
</clipPath>
</defs>
<g id="surface1">
<path style="fill:none;stroke-width:3;stroke-linecap:butt;stroke-linejoin:miter;stroke:rgb(13.729858%,12.159729%,12.548828%);stroke-opacity:1;stroke-miterlimit:4;" d="M 155.606846 36.644189 L 84.173111 36.644189 L 84.173111 108.077924 L 155.606846 108.077924 Z " transform="matrix(0.997154,0,0,-0.997154,0,150.371948)"/>
<path style="fill:none;stroke-width:3;stroke-linecap:butt;stroke-linejoin:miter;stroke:rgb(13.729858%,12.159729%,12.548828%);stroke-opacity:1;stroke-miterlimit:4;" d="M 0.00164955 -0.00110544 C 0.00164955 -4.737238 -3.841317 -8.576288 -8.57745 -8.576288 C -13.309666 -8.576288 -17.148715 -4.737238 -17.148715 -0.00110544 C -17.148715 4.735028 -13.309666 8.574077 -8.57745 8.574077 C -3.841317 8.574077 0.00164955 4.735028 0.00164955 -0.00110544 Z " transform="matrix(0.997154,0,0,-0.997154,71.928043,50.959835)"/>
<path style="fill:none;stroke-width:3;stroke-linecap:butt;stroke-linejoin:miter;stroke:rgb(13.729858%,12.159729%,12.548828%);stroke-opacity:1;stroke-miterlimit:4;" d="M 0.0009234 -0.000869762 C 0.0009234 -4.737003 -3.838126 -8.576052 -8.574259 -8.576052 C -13.310392 -8.576052 -17.149441 -4.737003 -17.149441 -0.000869762 C -17.149441 4.735263 -13.310392 8.574312 -8.574259 8.574312 C -3.838126 8.574312 0.0009234 4.735263 0.0009234 -0.000869762 " transform="matrix(0.997154,0,0,-0.997154,68.936579,76.885851)"/>
<path style="fill:none;stroke-width:3;stroke-linecap:butt;stroke-linejoin:miter;stroke:rgb(13.729858%,12.159729%,12.548828%);stroke-opacity:1;stroke-miterlimit:4;" d="M 0.0016852 0.00153843 C 0.0016852 4.733754 3.840734 8.572803 8.57295 8.572803 C 13.309083 8.572803 17.148132 4.733754 17.148132 0.00153843 " transform="matrix(0.997154,0,0,-0.997154,54.826445,103.763253)"/>
<path style="fill:none;stroke-width:3;stroke-linecap:butt;stroke-linejoin:miter;stroke:rgb(13.729858%,12.159729%,12.548828%);stroke-opacity:1;stroke-miterlimit:4;" d="M 0.00164955 0.00153843 C 0.00164955 -4.734595 -3.841317 -8.573644 -8.57745 -8.573644 C -13.309666 -8.573644 -17.148715 -4.734595 -17.148715 0.00153843 " transform="matrix(0.997154,0,0,-0.997154,71.928043,103.763253)"/>
<path style="fill:none;stroke-width:3;stroke-linecap:butt;stroke-linejoin:miter;stroke:rgb(13.729858%,12.159729%,12.548828%);stroke-opacity:1;stroke-miterlimit:4;" d="M 0.000283857 0.000710365 C 0.000283857 4.736843 3.839333 8.575893 8.575466 8.575893 C 13.311599 8.575893 17.150648 4.736843 17.150648 0.000710365 " transform="matrix(0.997154,0,0,-0.997154,59.812217,128.692115)"/>
<g clip-path="url(#clip1)" clip-rule="nonzero">
<path style="fill:none;stroke-width:3;stroke-linecap:butt;stroke-linejoin:miter;stroke:rgb(13.729858%,12.159729%,12.548828%);stroke-opacity:1;stroke-miterlimit:4;" d="M 0.000248206 0.000710365 C 0.000248206 -4.735423 -3.838801 -8.574472 -8.574934 -8.574472 C -13.311067 -8.574472 -17.150116 -4.735423 -17.150116 0.000710365 " transform="matrix(0.997154,0,0,-0.997154,76.913815,128.692115)"/>
</g>
<path style="fill:none;stroke-width:3;stroke-linecap:butt;stroke-linejoin:miter;stroke:rgb(13.729858%,12.159729%,12.548828%);stroke-opacity:1;stroke-miterlimit:4;" d="M 0.000552884 -0.000562943 C 0.000552884 -4.736696 -3.838496 -8.575745 -8.574629 -8.575745 C -13.310762 -8.575745 -17.149811 -4.736696 -17.149811 -0.000562943 C -17.149811 4.73557 -13.310762 8.574619 -8.574629 8.574619 C -3.838496 8.574619 0.000552884 4.73557 0.000552884 -0.000562943 Z " transform="matrix(0.997154,0,0,-0.997154,183.276792,51.624439)"/>
<path style="fill:none;stroke-width:3;stroke-linecap:butt;stroke-linejoin:miter;stroke:rgb(13.729858%,12.159729%,12.548828%);stroke-opacity:1;stroke-miterlimit:4;" d="M 0.000215287 -0.000327263 C 0.000215287 -4.73646 -3.838834 -8.575509 -8.574967 -8.575509 C -13.3111 -8.575509 -17.150149 -4.73646 -17.150149 -0.000327263 C -17.150149 4.735806 -13.3111 8.574855 -8.574967 8.574855 C -3.838834 8.574855 0.000215287 4.735806 0.000215287 -0.000327263 " transform="matrix(0.997154,0,0,-0.997154,187.26541,77.550455)"/>
<path style="fill:none;stroke-width:3;stroke-linecap:butt;stroke-linejoin:miter;stroke:rgb(13.729858%,12.159729%,12.548828%);stroke-opacity:1;stroke-miterlimit:4;" d="M 0.000588534 -0.00183647 C 0.000588534 4.734297 3.839638 8.573346 8.575771 8.573346 C 13.311904 8.573346 17.150953 4.734297 17.150953 -0.00183647 " transform="matrix(0.997154,0,0,-0.997154,166.175194,104.427856)"/>
<path style="fill:none;stroke-width:3;stroke-linecap:butt;stroke-linejoin:miter;stroke:rgb(13.729858%,12.159729%,12.548828%);stroke-opacity:1;stroke-miterlimit:4;" d="M 0.000552884 -0.00183647 C 0.000552884 -4.734052 -3.838496 -8.573101 -8.574629 -8.573101 C -13.310762 -8.573101 -17.149811 -4.734052 -17.149811 -0.00183647 " transform="matrix(0.997154,0,0,-0.997154,183.276792,104.427856)"/>
<path style="fill:none;stroke-width:3;stroke-linecap:butt;stroke-linejoin:miter;stroke:rgb(13.729858%,12.159729%,12.548828%);stroke-opacity:1;stroke-miterlimit:4;" d="M 0.000588534 -0.00160078 C 0.000588534 4.734532 3.839638 8.573581 8.575771 8.573581 C 13.311904 8.573581 17.150953 4.734532 17.150953 -0.00160078 " transform="matrix(0.997154,0,0,-0.997154,166.175194,130.353873)"/>
<g clip-path="url(#clip2)" clip-rule="nonzero">
<path style="fill:none;stroke-width:3;stroke-linecap:butt;stroke-linejoin:miter;stroke:rgb(13.729858%,12.159729%,12.548828%);stroke-opacity:1;stroke-miterlimit:4;" d="M 0.000552884 -0.00160078 C 0.000552884 -4.737734 -3.838496 -8.576783 -8.574629 -8.576783 C -13.310762 -8.576783 -17.149811 -4.737734 -17.149811 -0.00160078 " transform="matrix(0.997154,0,0,-0.997154,183.276792,130.353873)"/>
</g>
<g clip-path="url(#clip3)" clip-rule="nonzero">
<path style="fill:none;stroke-width:3;stroke-linecap:butt;stroke-linejoin:miter;stroke:rgb(13.729858%,12.159729%,12.548828%);stroke-opacity:1;stroke-miterlimit:4;" d="M 0.00154908 0.00121127 C 4.737682 0.00121127 8.576731 -3.841755 8.576731 -8.577888 C 8.576731 -13.310104 4.737682 -17.149153 0.00154908 -17.149153 C -4.734584 -17.149153 -8.573633 -13.310104 -8.573633 -8.577888 C -8.573633 -3.841755 -4.734584 0.00121127 0.00154908 0.00121127 " transform="matrix(0.997154,0,0,-0.997154,92.248455,122.180895)"/>
</g>
<g clip-path="url(#clip4)" clip-rule="nonzero">
<path style="fill:none;stroke-width:3;stroke-linecap:butt;stroke-linejoin:miter;stroke:rgb(13.729858%,12.159729%,12.548828%);stroke-opacity:1;stroke-miterlimit:4;" d="M 0.00127727 0.00173815 C -4.734856 -0.049188 -8.613079 3.754605 -8.660088 8.48682 C -8.707096 13.222953 -4.907221 17.101176 -0.171088 17.148185 " transform="matrix(0.997154,0,0,-0.997154,120.209664,136.388452)"/>
</g>
<g clip-path="url(#clip5)" clip-rule="nonzero">
<path style="fill:none;stroke-width:3;stroke-linecap:butt;stroke-linejoin:miter;stroke:rgb(13.729858%,12.159729%,12.548828%);stroke-opacity:1;stroke-miterlimit:4;" d="M 0.0017118 -0.0013149 C 4.737845 0.0496113 8.612151 -3.754181 8.659159 -8.490314 C 8.710085 -13.22253 4.91021 -17.100753 0.174077 -17.147762 " transform="matrix(0.997154,0,0,-0.997154,120.037356,119.287751)"/>
</g>
<g clip-path="url(#clip6)" clip-rule="nonzero">
<path style="fill:none;stroke-width:3;stroke-linecap:butt;stroke-linejoin:miter;stroke:rgb(13.729858%,12.159729%,12.548828%);stroke-opacity:1;stroke-miterlimit:4;" d="M -0.000185905 0.000264584 C -4.736319 -0.0467442 -8.614542 3.753131 -8.661551 8.485347 C -8.70856 13.22148 -4.908684 17.10362 -0.172551 17.150629 " transform="matrix(0.997154,0,0,-0.997154,148.129092,139.09792)"/>
</g>
<g clip-path="url(#clip7)" clip-rule="nonzero">
<path style="fill:none;stroke-width:3;stroke-linecap:butt;stroke-linejoin:miter;stroke:rgb(13.729858%,12.159729%,12.548828%);stroke-opacity:1;stroke-miterlimit:4;" d="M -0.000386466 -0.0016883 C -0.000386466 -4.733904 -3.839436 -8.572953 -8.575569 -8.572953 " transform="matrix(0.997154,0,0,-0.997154,156.594135,130.732692)"/>
</g>
<path style="fill:none;stroke-width:3;stroke-linecap:butt;stroke-linejoin:miter;stroke:rgb(13.729858%,12.159729%,12.548828%);stroke-opacity:1;stroke-miterlimit:4;" d="M -0.00036864 0.00121127 C 4.735764 0.00121127 8.574814 -3.841755 8.574814 -8.577888 " transform="matrix(0.997154,0,0,-0.997154,148.043336,122.180895)"/>
<g clip-path="url(#clip8)" clip-rule="nonzero">
<path style="fill:none;stroke-width:3;stroke-linecap:butt;stroke-linejoin:miter;stroke:rgb(13.729858%,12.159729%,12.548828%);stroke-opacity:1;stroke-miterlimit:4;" d="M -0.000711109 -0.00137768 C 4.735422 -0.00137768 8.574471 -3.840427 8.574471 -8.572642 " transform="matrix(0.997154,0,0,-0.997154,63.227272,14.443939)"/>
</g>
<g clip-path="url(#clip9)" clip-rule="nonzero">
<path style="fill:none;stroke-width:3;stroke-linecap:butt;stroke-linejoin:miter;stroke:rgb(13.729858%,12.159729%,12.548828%);stroke-opacity:1;stroke-miterlimit:4;" d="M -0.00169328 0.00155754 C -0.00169328 4.733773 3.841273 8.572822 8.573489 8.572822 " transform="matrix(0.997154,0,0,-0.997154,54.67747,22.993741)"/>
</g>
<path style="fill:none;stroke-width:3;stroke-linecap:butt;stroke-linejoin:miter;stroke:rgb(13.729858%,12.159729%,12.548828%);stroke-opacity:1;stroke-miterlimit:4;" d="M -0.00172893 0.00155754 C -0.00172893 -4.734576 -3.840778 -8.573625 -8.576911 -8.573625 C -13.309127 -8.573625 -17.148176 -4.734576 -17.148176 0.00155754 " transform="matrix(0.997154,0,0,-0.997154,71.779068,22.993741)"/>
<g clip-path="url(#clip10)" clip-rule="nonzero">
<path style="fill:none;stroke-width:3;stroke-linecap:butt;stroke-linejoin:miter;stroke:rgb(13.729858%,12.159729%,12.548828%);stroke-opacity:1;stroke-miterlimit:4;" d="M 0.00052821 -0.00125435 C 4.736661 -0.00125435 8.57571 -3.840303 8.57571 -8.572519 " transform="matrix(0.997154,0,0,-0.997154,175.390098,1.572968)"/>
</g>
<g clip-path="url(#clip11)" clip-rule="nonzero">
<path style="fill:none;stroke-width:3;stroke-linecap:butt;stroke-linejoin:miter;stroke:rgb(13.729858%,12.159729%,12.548828%);stroke-opacity:1;stroke-miterlimit:4;" d="M -0.000453965 0.00168087 C -0.000453965 4.733897 3.838595 8.572946 8.574728 8.572946 " transform="matrix(0.997154,0,0,-0.997154,166.840296,10.12277)"/>
</g>
<g clip-path="url(#clip12)" clip-rule="nonzero">
<path style="fill:none;stroke-width:3;stroke-linecap:butt;stroke-linejoin:miter;stroke:rgb(13.729858%,12.159729%,12.548828%);stroke-opacity:1;stroke-miterlimit:4;" d="M -0.000489615 0.00168087 C -0.000489615 -4.734452 -3.839539 -8.573501 -8.575672 -8.573501 C -13.311805 -8.573501 -17.150854 -4.734452 -17.150854 0.00168087 " transform="matrix(0.997154,0,0,-0.997154,183.941894,10.12277)"/>
</g>
<g clip-path="url(#clip13)" clip-rule="nonzero">
<path style="fill:none;stroke-width:3;stroke-linecap:butt;stroke-linejoin:miter;stroke:rgb(13.729858%,12.159729%,12.548828%);stroke-opacity:1;stroke-miterlimit:4;" d="M -0.0018294 -0.0007952 C 4.734304 -0.0007952 8.573353 -3.839844 8.573353 -8.575977 C 8.573353 -13.31211 4.734304 -17.15116 -0.0018294 -17.15116 C -4.734045 -17.15116 -8.573094 -13.31211 -8.573094 -8.575977 C -8.573094 -3.839844 -4.734045 -0.0007952 -0.0018294 -0.0007952 " transform="matrix(0.997154,0,0,-0.997154,92.09948,17.479676)"/>
</g>
<g clip-path="url(#clip14)" clip-rule="nonzero">
<path style="fill:none;stroke-width:3;stroke-linecap:butt;stroke-linejoin:miter;stroke:rgb(13.729858%,12.159729%,12.548828%);stroke-opacity:1;stroke-miterlimit:4;" d="M -0.000657797 0.0017565 C -4.736791 0.0017565 -8.57584 3.840806 -8.57584 8.573021 C -8.57584 13.309154 -4.736791 17.148203 -0.000657797 17.148203 " transform="matrix(0.997154,0,0,-0.997154,122.9655,29.595502)"/>
</g>
<g clip-path="url(#clip15)" clip-rule="nonzero">
<path style="fill:none;stroke-width:3;stroke-linecap:butt;stroke-linejoin:miter;stroke:rgb(13.729858%,12.159729%,12.548828%);stroke-opacity:1;stroke-miterlimit:4;" d="M -0.000657797 0.00172085 C 4.735475 0.00172085 8.574524 -3.841246 8.574524 -8.577379 C 8.574524 -13.309594 4.735475 -17.148643 -0.000657797 -17.148643 " transform="matrix(0.997154,0,0,-0.997154,122.9655,12.493903)"/>
</g>
<g clip-path="url(#clip16)" clip-rule="nonzero">
<path style="fill:none;stroke-width:3;stroke-linecap:butt;stroke-linejoin:miter;stroke:rgb(13.729858%,12.159729%,12.548828%);stroke-opacity:1;stroke-miterlimit:4;" d="M -0.00123107 -0.00075955 C -4.733447 -0.00075955 -8.572496 3.83829 -8.572496 8.574423 C -8.572496 13.310556 -4.733447 17.149605 -0.00123107 17.149605 " transform="matrix(0.997154,0,0,-0.997154,152.880134,34.581274)"/>
</g>
<path style="fill:none;stroke-width:3;stroke-linecap:butt;stroke-linejoin:miter;stroke:rgb(13.729858%,12.159729%,12.548828%);stroke-opacity:1;stroke-miterlimit:4;" d="M -0.0012489 0.000222625 C -0.0012489 -4.73591 -3.840298 -8.57496 -8.576431 -8.57496 " transform="matrix(0.997154,0,0,-0.997154,161.430933,26.031472)"/>
<g clip-path="url(#clip17)" clip-rule="nonzero">
<path style="fill:none;stroke-width:3;stroke-linecap:butt;stroke-linejoin:miter;stroke:rgb(13.729858%,12.159729%,12.548828%);stroke-opacity:1;stroke-miterlimit:4;" d="M -0.00123107 -0.0007952 C 4.734902 -0.0007952 8.573951 -3.839844 8.573951 -8.575977 " transform="matrix(0.997154,0,0,-0.997154,152.880134,17.479676)"/>
</g>
<path style="fill:none;stroke-width:3;stroke-linecap:butt;stroke-linejoin:miter;stroke:rgb(13.729858%,12.159729%,12.548828%);stroke-opacity:1;stroke-miterlimit:4;" d="M -0.00148967 -0.00131034 C -0.00148967 -4.737443 -3.840539 -8.576493 -8.576672 -8.576493 C -13.312805 -8.576493 -17.151854 -4.737443 -17.151854 -0.00131034 C -17.151854 4.734823 -13.312805 8.573872 -8.576672 8.573872 C -3.840539 8.573872 -0.00148967 4.734823 -0.00148967 -0.00131034 Z " transform="matrix(0.997154,0,0,-0.997154,45.337423,54.28385)"/>
<path style="fill:none;stroke-width:3;stroke-linecap:butt;stroke-linejoin:miter;stroke:rgb(13.729858%,12.159729%,12.548828%);stroke-opacity:1;stroke-miterlimit:4;" d="M -0.00154062 -0.000348512 C -0.00154062 -4.736482 -3.84059 -8.575531 -8.576723 -8.575531 C -13.312856 -8.575531 -17.151905 -4.736482 -17.151905 -0.000348512 C -17.151905 4.735785 -13.312856 8.574834 -8.576723 8.574834 C -3.84059 8.574834 -0.00154062 4.735785 -0.00154062 -0.000348512 " transform="matrix(0.997154,0,0,-0.997154,34.368724,77.218402)"/>
<path style="fill:none;stroke-width:3;stroke-linecap:butt;stroke-linejoin:miter;stroke:rgb(13.729858%,12.159729%,12.548828%);stroke-opacity:1;stroke-miterlimit:4;" d="M -0.000390267 -0.00185772 C -0.000390267 4.734275 3.838659 8.573324 8.574792 8.573324 C 13.310925 8.573324 17.149974 4.734275 17.149974 -0.00185772 " transform="matrix(0.997154,0,0,-0.997154,27.23867,104.095804)"/>
<path style="fill:none;stroke-width:3;stroke-linecap:butt;stroke-linejoin:miter;stroke:rgb(13.729858%,12.159729%,12.548828%);stroke-opacity:1;stroke-miterlimit:4;" d="M -0.000425917 -0.00185772 C -0.000425917 -4.734073 -3.839475 -8.573122 -8.575608 -8.573122 C -13.311741 -8.573122 -17.15079 -4.734073 -17.15079 -0.00185772 " transform="matrix(0.997154,0,0,-0.997154,44.340268,104.095804)"/>
<g clip-path="url(#clip18)" clip-rule="nonzero">
<path style="fill:none;stroke-width:3;stroke-linecap:butt;stroke-linejoin:miter;stroke:rgb(13.729858%,12.159729%,12.548828%);stroke-opacity:1;stroke-miterlimit:4;" d="M -0.00111642 0.00084306 C -0.00111642 4.733059 3.84185 8.572108 8.574066 8.572108 C 13.310199 8.572108 17.149248 4.733059 17.149248 0.00084306 " transform="matrix(0.997154,0,0,-0.997154,24.247207,136.004747)"/>
</g>
<g clip-path="url(#clip19)" clip-rule="nonzero">
<path style="fill:none;stroke-width:3;stroke-linecap:butt;stroke-linejoin:miter;stroke:rgb(13.729858%,12.159729%,12.548828%);stroke-opacity:1;stroke-miterlimit:4;" d="M -0.00115207 0.00084306 C -0.00115207 -4.73529 -3.840201 -8.574339 -8.576334 -8.574339 C -13.312467 -8.574339 -17.151516 -4.73529 -17.151516 0.00084306 " transform="matrix(0.997154,0,0,-0.997154,41.348805,136.004747)"/>
</g>
<g clip-path="url(#clip20)" clip-rule="nonzero">
<path style="fill:none;stroke-width:3;stroke-linecap:butt;stroke-linejoin:miter;stroke:rgb(13.729858%,12.159729%,12.548828%);stroke-opacity:1;stroke-miterlimit:4;" d="M 0.00113082 -0.00158258 C 4.737264 -0.00158258 8.576313 -3.840632 8.576313 -8.572847 " transform="matrix(0.997154,0,0,-0.997154,35.639497,17.767953)"/>
</g>
<g clip-path="url(#clip21)" clip-rule="nonzero">
<path style="fill:none;stroke-width:3;stroke-linecap:butt;stroke-linejoin:miter;stroke:rgb(13.729858%,12.159729%,12.548828%);stroke-opacity:1;stroke-miterlimit:4;" d="M 0.000148645 0.00135264 C 0.000148645 4.733568 3.839198 8.572617 8.575331 8.572617 " transform="matrix(0.997154,0,0,-0.997154,27.089696,26.317755)"/>
</g>
<path style="fill:none;stroke-width:3;stroke-linecap:butt;stroke-linejoin:miter;stroke:rgb(13.729858%,12.159729%,12.548828%);stroke-opacity:1;stroke-miterlimit:4;" d="M 0.000112994 0.00135264 C 0.000112994 -4.73478 -3.838936 -8.57383 -8.575069 -8.57383 C -13.311202 -8.57383 -17.150251 -4.73478 -17.150251 0.00135264 " transform="matrix(0.997154,0,0,-0.997154,44.191294,26.317755)"/>
<path style="fill:none;stroke-width:3;stroke-linecap:butt;stroke-linejoin:miter;stroke:rgb(13.729858%,12.159729%,12.548828%);stroke-opacity:1;stroke-miterlimit:4;" d="M -0.000725296 -0.0000416938 C -0.000725296 -4.736175 -3.839774 -8.575224 -8.575907 -8.575224 C -13.312041 -8.575224 -17.15109 -4.736175 -17.15109 -0.0000416938 C -17.15109 4.736091 -13.312041 8.57514 -8.575907 8.57514 C -3.839774 8.57514 -0.000725296 4.736091 -0.000725296 -0.0000416938 Z " transform="matrix(0.997154,0,0,-0.997154,209.867911,51.95699)"/>
<path style="fill:none;stroke-width:3;stroke-linecap:butt;stroke-linejoin:miter;stroke:rgb(13.729858%,12.159729%,12.548828%);stroke-opacity:1;stroke-miterlimit:4;" d="M -0.000336741 0.000193987 C -0.000336741 -4.735939 -3.839386 -8.574988 -8.575519 -8.574988 C -13.311652 -8.574988 -17.150701 -4.735939 -17.150701 0.000193987 C -17.150701 4.736327 -13.311652 8.575376 -8.575519 8.575376 C -3.839386 8.575376 -0.000336741 4.736327 -0.000336741 0.000193987 " transform="matrix(0.997154,0,0,-0.997154,216.847992,77.883006)"/>
<path style="fill:none;stroke-width:3;stroke-linecap:butt;stroke-linejoin:miter;stroke:rgb(13.729858%,12.159729%,12.548828%);stroke-opacity:1;stroke-miterlimit:4;" d="M -0.000689645 -0.00131522 C -0.000689645 4.734818 3.838359 8.573867 8.574493 8.573867 C 13.310626 8.573867 17.149675 4.734818 17.149675 -0.00131522 " transform="matrix(0.997154,0,0,-0.997154,192.766313,104.760407)"/>
<path style="fill:none;stroke-width:3;stroke-linecap:butt;stroke-linejoin:miter;stroke:rgb(13.729858%,12.159729%,12.548828%);stroke-opacity:1;stroke-miterlimit:4;" d="M -0.000725296 -0.00131522 C -0.000725296 -4.737448 -3.839774 -8.576497 -8.575907 -8.576497 C -13.312041 -8.576497 -17.15109 -4.737448 -17.15109 -0.00131522 " transform="matrix(0.997154,0,0,-0.997154,209.867911,104.760407)"/>
<path style="fill:none;stroke-width:3;stroke-linecap:butt;stroke-linejoin:miter;stroke:rgb(13.729858%,12.159729%,12.548828%);stroke-opacity:1;stroke-miterlimit:4;" d="M -0.000689645 -0.00107954 C -0.000689645 4.735054 3.838359 8.574103 8.574493 8.574103 C 13.310626 8.574103 17.149675 4.735054 17.149675 -0.00107954 " transform="matrix(0.997154,0,0,-0.997154,192.766313,130.686424)"/>
<g clip-path="url(#clip22)" clip-rule="nonzero">
<path style="fill:none;stroke-width:3;stroke-linecap:butt;stroke-linejoin:miter;stroke:rgb(13.729858%,12.159729%,12.548828%);stroke-opacity:1;stroke-miterlimit:4;" d="M -0.000725296 -0.00107954 C -0.000725296 -4.737213 -3.839774 -8.576262 -8.575907 -8.576262 C -13.312041 -8.576262 -17.15109 -4.737213 -17.15109 -0.00107954 " transform="matrix(0.997154,0,0,-0.997154,209.867911,130.686424)"/>
</g>
<g clip-path="url(#clip23)" clip-rule="nonzero">
<path style="fill:none;stroke-width:3;stroke-linecap:butt;stroke-linejoin:miter;stroke:rgb(13.729858%,12.159729%,12.548828%);stroke-opacity:1;stroke-miterlimit:4;" d="M 0.000442886 0.00181357 C 4.736576 0.00181357 8.575625 -3.837236 8.575625 -8.573369 " transform="matrix(0.997154,0,0,-0.997154,194.187058,17.435402)"/>
</g>
<g clip-path="url(#clip24)" clip-rule="nonzero">
<path style="fill:none;stroke-width:3;stroke-linecap:butt;stroke-linejoin:miter;stroke:rgb(13.729858%,12.159729%,12.548828%);stroke-opacity:1;stroke-miterlimit:4;" d="M -0.000539289 0.00083139 C -0.000539289 4.733047 3.83851 8.572096 8.574643 8.572096 " transform="matrix(0.997154,0,0,-0.997154,185.637257,25.985204)"/>
</g>
<path style="fill:none;stroke-width:3;stroke-linecap:butt;stroke-linejoin:miter;stroke:rgb(13.729858%,12.159729%,12.548828%);stroke-opacity:1;stroke-miterlimit:4;" d="M -0.000574939 0.00083139 C -0.000574939 -4.735302 -3.839624 -8.574351 -8.575757 -8.574351 C -13.31189 -8.574351 -17.150939 -4.735302 -17.150939 0.00083139 " transform="matrix(0.997154,0,0,-0.997154,202.738855,25.985204)"/>
<g clip-path="url(#clip25)" clip-rule="nonzero">
<path style="fill:none;stroke-width:3;stroke-linecap:butt;stroke-linejoin:miter;stroke:rgb(13.729858%,12.159729%,12.548828%);stroke-opacity:1;stroke-miterlimit:4;" d="M -0.000982226 -0.000562943 C -0.000982226 -4.736696 -3.840031 -8.575745 -8.576164 -8.575745 C -13.312297 -8.575745 -17.151347 -4.736696 -17.151347 -0.000562943 C -17.151347 4.73557 -13.312297 8.574619 -8.576164 8.574619 C -3.840031 8.574619 -0.000982226 4.73557 -0.000982226 -0.000562943 Z " transform="matrix(0.997154,0,0,-0.997154,236.125979,51.624439)"/>
</g>
<g clip-path="url(#clip26)" clip-rule="nonzero">
<path style="fill:none;stroke-width:3;stroke-linecap:butt;stroke-linejoin:miter;stroke:rgb(13.729858%,12.159729%,12.548828%);stroke-opacity:1;stroke-miterlimit:4;" d="M -0.000593671 0.0000103343 C -0.000593671 -4.736123 -3.839643 -8.575172 -8.575776 -8.575172 C -13.311909 -8.575172 -17.150958 -4.736123 -17.150958 0.0000103343 C -17.150958 4.736143 -13.311909 8.575193 -8.575776 8.575193 C -3.839643 8.575193 -0.000593671 4.736143 -0.000593671 0.0000103343 " transform="matrix(0.997154,0,0,-0.997154,243.106061,81.539073)"/>
</g>
<g clip-path="url(#clip27)" clip-rule="nonzero">
<path style="fill:none;stroke-width:3;stroke-linecap:butt;stroke-linejoin:miter;stroke:rgb(13.729858%,12.159729%,12.548828%);stroke-opacity:1;stroke-miterlimit:4;" d="M -0.000946576 -0.00116127 C -0.000946576 4.734972 3.838103 8.574021 8.574236 8.574021 C 13.310369 8.574021 17.149418 4.734972 17.149418 -0.00116127 " transform="matrix(0.997154,0,0,-0.997154,219.024381,112.405092)"/>
</g>
<g clip-path="url(#clip28)" clip-rule="nonzero">
<path style="fill:none;stroke-width:3;stroke-linecap:butt;stroke-linejoin:miter;stroke:rgb(13.729858%,12.159729%,12.548828%);stroke-opacity:1;stroke-miterlimit:4;" d="M -0.000982226 -0.00116127 C -0.000982226 -4.737294 -3.840031 -8.576343 -8.576164 -8.576343 C -13.312297 -8.576343 -17.151347 -4.737294 -17.151347 -0.00116127 " transform="matrix(0.997154,0,0,-0.997154,236.125979,112.405092)"/>
</g>
<g clip-path="url(#clip29)" clip-rule="nonzero">
<path style="fill:none;stroke-width:3;stroke-linecap:butt;stroke-linejoin:miter;stroke:rgb(13.729858%,12.159729%,12.548828%);stroke-opacity:1;stroke-miterlimit:4;" d="M -0.000946576 0.00120191 C -0.000946576 4.733418 3.838103 8.572467 8.574236 8.572467 C 13.310369 8.572467 17.149418 4.733418 17.149418 0.00120191 " transform="matrix(0.997154,0,0,-0.997154,219.024381,140.325417)"/>
</g>
<g clip-path="url(#clip30)" clip-rule="nonzero">
<path style="fill:none;stroke-width:3;stroke-linecap:butt;stroke-linejoin:miter;stroke:rgb(13.729858%,12.159729%,12.548828%);stroke-opacity:1;stroke-miterlimit:4;" d="M -0.000982226 0.00120191 C -0.000982226 -4.734931 -3.840031 -8.57398 -8.576164 -8.57398 C -13.312297 -8.57398 -17.151347 -4.734931 -17.151347 0.00120191 " transform="matrix(0.997154,0,0,-0.997154,236.125979,140.325417)"/>
</g>
<g clip-path="url(#clip31)" clip-rule="nonzero">
<path style="fill:none;stroke-width:3;stroke-linecap:butt;stroke-linejoin:miter;stroke:rgb(13.729858%,12.159729%,12.548828%);stroke-opacity:1;stroke-miterlimit:4;" d="M 0.000574511 0.00129232 C 4.736708 0.00129232 8.575757 -3.837757 8.575757 -8.57389 " transform="matrix(0.997154,0,0,-0.997154,227.425208,17.102851)"/>
</g>
<g clip-path="url(#clip32)" clip-rule="nonzero">
<path style="fill:none;stroke-width:3;stroke-linecap:butt;stroke-linejoin:miter;stroke:rgb(13.729858%,12.159729%,12.548828%);stroke-opacity:1;stroke-miterlimit:4;" d="M -0.000407664 0.000310141 C -0.000407664 4.736443 3.838641 8.575492 8.574775 8.575492 " transform="matrix(0.997154,0,0,-0.997154,218.875407,25.652653)"/>
</g>
<g clip-path="url(#clip33)" clip-rule="nonzero">
<path style="fill:none;stroke-width:3;stroke-linecap:butt;stroke-linejoin:miter;stroke:rgb(13.729858%,12.159729%,12.548828%);stroke-opacity:1;stroke-miterlimit:4;" d="M -0.000443314 0.000310141 C -0.000443314 -4.735823 -3.839492 -8.574872 -8.575625 -8.574872 C -13.311759 -8.574872 -17.150808 -4.735823 -17.150808 0.000310141 " transform="matrix(0.997154,0,0,-0.997154,235.977005,25.652653)"/>
</g>
<path style="fill:none;stroke-width:3;stroke-linecap:butt;stroke-linejoin:miter;stroke:rgb(13.729858%,12.159729%,12.548828%);stroke-opacity:1;stroke-miterlimit:4;" d="M -0.000211486 -0.00110544 C -0.000211486 -4.737238 -3.839261 -8.576288 -8.575394 -8.576288 C -13.311527 -8.576288 -17.150576 -4.737238 -17.150576 -0.00110544 C -17.150576 4.735028 -13.311527 8.574077 -8.575394 8.574077 C -3.839261 8.574077 -0.000211486 4.735028 -0.000211486 -0.00110544 Z " transform="matrix(0.997154,0,0,-0.997154,18.746305,50.959835)"/>
<g clip-path="url(#clip34)" clip-rule="nonzero">
<path style="fill:none;stroke-width:3;stroke-linecap:butt;stroke-linejoin:miter;stroke:rgb(13.729858%,12.159729%,12.548828%);stroke-opacity:1;stroke-miterlimit:4;" d="M 0.00134525 0.00181357 C 4.737478 0.00181357 8.576527 -3.837236 8.576527 -8.573369 " transform="matrix(0.997154,0,0,-0.997154,10.045534,17.435402)"/>
</g>
<g clip-path="url(#clip35)" clip-rule="nonzero">
<path style="fill:none;stroke-width:3;stroke-linecap:butt;stroke-linejoin:miter;stroke:rgb(13.729858%,12.159729%,12.548828%);stroke-opacity:1;stroke-miterlimit:4;" d="M 0.000363076 0.00083139 C 0.000363076 4.733047 3.839412 8.572096 8.575545 8.572096 " transform="matrix(0.997154,0,0,-0.997154,1.495732,25.985204)"/>
</g>
<path style="fill:none;stroke-width:3;stroke-linecap:butt;stroke-linejoin:miter;stroke:rgb(13.729858%,12.159729%,12.548828%);stroke-opacity:1;stroke-miterlimit:4;" d="M 0.000327426 0.00083139 C 0.000327426 -4.735302 -3.838722 -8.574351 -8.574855 -8.574351 C -13.310988 -8.574351 -17.150037 -4.735302 -17.150037 0.00083139 " transform="matrix(0.997154,0,0,-0.997154,18.59733,25.985204)"/>
</g>
</svg>