<?xml version="1.0" encoding="UTF-8"?><svg xmlns="http://www.w3.org/2000/svg" xmlns:xlink="http://www.w3.org/1999/xlink" viewBox="0 0 327.945 321.022" width="173.448pt" height="169.7864698531766pt" version="1.2">
<defs>
<clipPath id="clip1">
  <path d="M 0.46875 161 L 327.417969 161 L 327.417969 275 L 0.46875 275 Z "/>
</clipPath>
<clipPath id="clip2">
  <path d="M 0.46875 204 L 327.417969 204 L 327.417969 320.046875 L 0.46875 320.046875 Z "/>
</clipPath>
</defs>
<g id="surface1">
<path style=" stroke:none;fill-rule:nonzero;fill:rgb(100%,100%,100%);fill-opacity:1;" d="M 326.210938 218.207031 C 326.210938 237.714844 253.460938 253.53125 163.714844 253.53125 C 73.96875 253.53125 1.21875 237.714844 1.21875 218.207031 C 1.21875 198.695312 73.96875 182.882812 163.714844 182.882812 C 253.460938 182.882812 326.210938 198.695312 326.210938 218.207031 "/>
<g clip-path="url(#clip1)" clip-rule="nonzero">
<path style="fill:none;stroke-width:1.5;stroke-linecap:butt;stroke-linejoin:miter;stroke:rgb(13.729858%,12.159729%,12.548828%);stroke-opacity:1;stroke-miterlimit:10;" d="M -0.00119983 -0.000703373 C -0.00119983 -19.567947 -72.972834 -35.432538 -162.992341 -35.432538 C -253.011848 -35.432538 -325.983483 -19.567947 -325.983483 -0.000703373 C -325.983483 19.570458 -253.011848 35.431131 -162.992341 35.431131 C -72.972834 35.431131 -0.00119983 19.570458 -0.00119983 -0.000703373 Z " transform="matrix(0.996963,0,0,-0.996963,326.212134,218.20633)"/>
</g>
<g clip-path="url(#clip2)" clip-rule="nonzero">
<path style="fill:none;stroke-width:1;stroke-linecap:butt;stroke-linejoin:miter;stroke:rgb(13.729858%,12.159729%,12.548828%);stroke-opacity:1;stroke-miterlimit:10;" d="M 0.00186566 -0.000739674 C 66.394925 -135.525646 259.56758 -135.525646 325.96064 -0.000739674 " transform="matrix(0.996963,0,0,-0.996963,2.002046,218.214106)"/>
</g>
<path style="fill:none;stroke-width:1;stroke-linecap:butt;stroke-linejoin:miter;stroke:rgb(13.729858%,12.159729%,12.548828%);stroke-opacity:1;stroke-miterlimit:10;" d="M 0.000127417 0.000390339 L 0.000127417 0.000390339 " transform="matrix(0.996963,0,0,-0.996963,155.163935,129.066795)"/>
<path style="fill:none;stroke-width:1;stroke-linecap:butt;stroke-linejoin:round;stroke:rgb(13.729858%,12.159729%,12.548828%);stroke-opacity:1;stroke-miterlimit:10;" d="M -0.00184431 -0.000180719 L -0.00184431 -226.770975 " transform="matrix(0.996963,0,0,-0.996963,164.103401,8.066226)"/>
<path style="fill:none;stroke-width:1;stroke-linecap:butt;stroke-linejoin:miter;stroke:rgb(13.729858%,12.159729%,12.548828%);stroke-opacity:1;stroke-miterlimit:10;" d="M 0.00191741 -0.00123715 L 226.772712 -0.00123715 " transform="matrix(0.996963,0,0,-0.996963,51.060588,121.108142)"/>
<path style=" stroke:none;fill-rule:nonzero;fill:rgb(13.729858%,12.159729%,12.548828%);fill-opacity:1;" d="M 139.328125 233.039062 C 139.328125 233.039062 139.703125 233.382812 140.3125 234.015625 C 140.464844 234.175781 140.628906 234.355469 140.8125 234.546875 C 141.003906 234.707031 141.214844 234.882812 141.433594 235.066406 C 141.886719 235.421875 142.3125 235.839844 142.914062 236.207031 C 143.195312 236.398438 143.488281 236.59375 143.792969 236.796875 C 144.109375 236.980469 144.445312 237.148438 144.78125 237.328125 C 145.429688 237.734375 146.226562 237.929688 146.957031 238.273438 C 147.75 238.484375 148.546875 238.738281 149.394531 238.851562 C 150.222656 239.050781 151.09375 239.027344 151.949219 239.082031 C 152.804688 239.03125 153.675781 239.050781 154.503906 238.851562 C 155.351562 238.746094 156.148438 238.488281 156.941406 238.277344 C 157.675781 237.933594 158.472656 237.742188 159.117188 237.332031 C 159.453125 237.152344 159.792969 236.984375 160.109375 236.800781 C 160.410156 236.597656 160.707031 236.402344 160.988281 236.210938 C 161.582031 235.851562 162.035156 235.40625 162.484375 235.042969 C 162.707031 234.855469 162.917969 234.679688 163.109375 234.515625 C 163.285156 234.332031 163.445312 234.164062 163.589844 234.011719 C 164.183594 233.402344 164.566406 233.042969 164.566406 233.042969 L 164.742188 233.132812 C 164.742188 233.132812 164.492188 233.558594 164.050781 234.300781 C 163.941406 234.488281 163.816406 234.691406 163.683594 234.917969 C 163.539062 235.128906 163.347656 235.339844 163.164062 235.578125 C 162.777344 236.039062 162.390625 236.605469 161.8125 237.082031 C 161.542969 237.332031 161.257812 237.59375 160.964844 237.867188 C 160.65625 238.121094 160.300781 238.339844 159.953125 238.585938 C 159.28125 239.117188 158.445312 239.457031 157.621094 239.890625 C 156.746094 240.191406 155.859375 240.585938 154.886719 240.730469 C 153.9375 240.976562 152.9375 240.996094 151.949219 241.074219 C 150.957031 241 149.960938 240.976562 149.011719 240.730469 C 148.042969 240.585938 147.152344 240.191406 146.277344 239.890625 C 145.453125 239.457031 144.613281 239.117188 143.941406 238.585938 C 143.597656 238.339844 143.242188 238.121094 142.933594 237.867188 C 142.640625 237.59375 142.355469 237.332031 142.085938 237.082031 C 141.507812 236.605469 141.117188 236.035156 140.730469 235.574219 C 140.546875 235.335938 140.355469 235.125 140.210938 234.910156 C 140.078125 234.6875 139.957031 234.484375 139.847656 234.300781 C 139.410156 233.5625 139.160156 233.140625 139.160156 233.140625 Z "/>
<path style=" stroke:none;fill-rule:nonzero;fill:rgb(13.729858%,12.159729%,12.548828%);fill-opacity:1;" d="M 163.460938 9.527344 C 163.460938 9.527344 163.59375 9.035156 163.871094 8.199219 C 163.941406 7.992188 164.019531 7.761719 164.105469 7.511719 C 164.203125 7.261719 164.371094 7.011719 164.523438 6.726562 C 164.847656 6.171875 165.195312 5.472656 165.738281 4.90625 C 166 4.597656 166.269531 4.277344 166.550781 3.945312 C 166.851562 3.632812 167.21875 3.371094 167.570312 3.066406 C 168.257812 2.429688 169.128906 1.960938 170.023438 1.460938 C 170.488281 1.246094 170.976562 1.066406 171.46875 0.863281 C 171.714844 0.773438 171.957031 0.652344 172.21875 0.589844 L 173.003906 0.414062 C 174.054688 0.132812 175.15625 0.0859375 176.253906 0 C 177.351562 0.0898438 178.453125 0.132812 179.503906 0.417969 L 180.289062 0.59375 C 180.546875 0.65625 180.789062 0.78125 181.039062 0.867188 C 181.527344 1.070312 182.015625 1.25 182.480469 1.464844 C 183.378906 1.964844 184.246094 2.433594 184.933594 3.074219 C 185.285156 3.375 185.652344 3.636719 185.953125 3.949219 C 186.234375 4.28125 186.503906 4.601562 186.765625 4.90625 C 187.316406 5.480469 187.640625 6.15625 187.960938 6.703125 C 188.113281 6.980469 188.277344 7.226562 188.378906 7.480469 C 188.46875 7.738281 188.554688 7.976562 188.632812 8.191406 C 188.921875 9.050781 189.046875 9.535156 189.046875 9.535156 L 188.871094 9.625 C 188.871094 9.625 188.613281 9.210938 188.171875 8.484375 C 188.0625 8.300781 187.9375 8.101562 187.804688 7.878906 C 187.65625 7.671875 187.46875 7.46875 187.285156 7.234375 C 186.894531 6.785156 186.511719 6.234375 185.9375 5.777344 C 185.667969 5.53125 185.386719 5.277344 185.097656 5.015625 C 184.789062 4.773438 184.4375 4.5625 184.097656 4.324219 C 183.433594 3.8125 182.605469 3.488281 181.800781 3.078125 C 180.9375 2.796875 180.066406 2.417969 179.121094 2.292969 C 178.191406 2.0625 177.21875 2.054688 176.253906 1.992188 C 175.289062 2.054688 174.316406 2.0625 173.386719 2.292969 C 172.4375 2.417969 171.566406 2.796875 170.707031 3.078125 C 169.898438 3.492188 169.074219 3.8125 168.410156 4.324219 C 168.066406 4.5625 167.71875 4.773438 167.410156 5.015625 C 167.121094 5.277344 166.839844 5.53125 166.570312 5.777344 C 165.996094 6.238281 165.613281 6.785156 165.226562 7.230469 C 165.042969 7.460938 164.855469 7.664062 164.707031 7.875 C 164.570312 8.09375 164.449219 8.296875 164.335938 8.480469 C 163.890625 9.210938 163.632812 9.632812 163.632812 9.632812 Z "/>
<path style="fill:none;stroke-width:1;stroke-linecap:butt;stroke-linejoin:round;stroke:rgb(13.729858%,12.159729%,12.548828%);stroke-opacity:1;stroke-dasharray:5,5;stroke-miterlimit:10;" d="M 0.000839532 -0.000424098 L 160.351147 -160.35465 " transform="matrix(0.996963,0,0,-0.996963,84.553851,41.175358)"/>
<path style=" stroke:none;fill-rule:nonzero;fill:rgb(13.729858%,12.159729%,12.548828%);fill-opacity:1;" d="M 277.785156 145.980469 C 277.785156 145.980469 278.09375 145.570312 278.671875 144.898438 C 278.945312 144.558594 279.359375 144.175781 279.65625 143.683594 C 279.816406 143.449219 279.988281 143.199219 280.171875 142.933594 C 280.339844 142.664062 280.570312 142.453125 280.71875 142.121094 C 280.886719 141.816406 281.058594 141.5 281.238281 141.175781 C 281.421875 140.855469 281.625 140.539062 281.75 140.167969 C 281.898438 139.8125 282.050781 139.449219 282.207031 139.078125 C 282.351562 138.703125 282.449219 138.304688 282.578125 137.914062 C 282.886719 137.148438 282.894531 136.273438 283.105469 135.449219 C 283.152344 134.597656 283.265625 133.734375 283.160156 132.867188 C 283.160156 132.433594 283.15625 132 283.066406 131.578125 C 282.992188 131.152344 282.964844 130.714844 282.855469 130.304688 C 282.730469 129.894531 282.628906 129.484375 282.539062 129.070312 C 282.441406 128.65625 282.253906 128.285156 282.121094 127.894531 C 282.046875 127.699219 281.976562 127.507812 281.902344 127.320312 C 281.804688 127.144531 281.714844 126.964844 281.628906 126.785156 C 281.449219 126.433594 281.296875 126.058594 281.101562 125.734375 C 280.648438 125.128906 280.324219 124.4375 279.851562 123.949219 C 279.632812 123.6875 279.414062 123.4375 279.21875 123.183594 C 279.007812 122.941406 278.777344 122.753906 278.574219 122.550781 C 278.15625 122.160156 277.800781 121.769531 277.445312 121.546875 C 276.765625 121.035156 276.359375 120.699219 276.359375 120.699219 L 276.425781 120.511719 C 276.425781 120.511719 276.882812 120.710938 277.679688 121.058594 C 278.09375 121.207031 278.539062 121.496094 279.046875 121.828125 C 279.300781 121.996094 279.585938 122.152344 279.855469 122.363281 C 280.113281 122.585938 280.378906 122.820312 280.664062 123.066406 C 281.265625 123.523438 281.734375 124.195312 282.304688 124.832031 C 282.570312 125.167969 282.785156 125.554688 283.035156 125.929688 C 283.15625 126.121094 283.277344 126.3125 283.402344 126.503906 C 283.5 126.714844 283.597656 126.921875 283.699219 127.136719 C 283.882812 127.5625 284.125 127.980469 284.273438 128.4375 C 284.417969 128.898438 284.566406 129.363281 284.710938 129.832031 C 284.851562 130.304688 284.902344 130.800781 285 131.289062 C 285.109375 131.773438 285.136719 132.273438 285.152344 132.773438 C 285.242188 133.777344 285.089844 134.769531 285 135.75 C 284.757812 136.703125 284.617188 137.671875 284.222656 138.523438 C 284.039062 138.953125 283.910156 139.402344 283.695312 139.792969 C 283.472656 140.1875 283.257812 140.570312 283.046875 140.945312 C 282.855469 141.328125 282.605469 141.660156 282.351562 141.976562 C 282.105469 142.292969 281.867188 142.601562 281.640625 142.898438 C 281.167969 143.476562 280.628906 143.917969 280.210938 144.351562 C 279.792969 144.804688 279.335938 145.066406 278.996094 145.335938 C 278.300781 145.847656 277.902344 146.136719 277.902344 146.136719 Z "/>
<path style=" stroke:none;fill-rule:nonzero;fill:rgb(13.729858%,12.159729%,12.548828%);fill-opacity:1;" d="M 237.761719 225.917969 C 237.761719 225.917969 237.898438 225.871094 238.152344 225.785156 C 238.28125 225.742188 238.4375 225.691406 238.621094 225.628906 C 238.796875 225.546875 238.988281 225.460938 239.203125 225.371094 C 239.625 225.183594 240.136719 224.90625 240.675781 224.5625 C 241.214844 224.214844 241.773438 223.761719 242.34375 223.25 C 242.910156 222.722656 243.445312 222.082031 243.992188 221.410156 C 244.511719 220.703125 244.976562 219.914062 245.433594 219.089844 C 245.871094 218.253906 246.1875 217.332031 246.515625 216.40625 C 246.816406 215.472656 247.003906 214.488281 247.121094 213.503906 C 247.273438 212.519531 247.277344 211.519531 247.222656 210.539062 C 247.140625 209.5625 247.035156 208.59375 246.8125 207.667969 C 246.566406 206.753906 246.320312 205.851562 245.980469 205.027344 C 245.640625 204.207031 245.285156 203.421875 244.90625 202.71875 C 244.527344 202.011719 244.136719 201.378906 243.785156 200.808594 C 243.410156 200.246094 243.078125 199.757812 242.808594 199.355469 C 242.222656 198.574219 241.894531 198.09375 241.894531 198.09375 L 242.023438 197.941406 C 242.023438 197.941406 242.445312 198.3125 243.179688 198.960938 C 243.53125 199.308594 243.960938 199.726562 244.425781 200.230469 C 244.882812 200.746094 245.390625 201.328125 245.882812 202.019531 C 246.378906 202.703125 246.875 203.480469 247.320312 204.339844 C 247.777344 205.199219 248.164062 206.152344 248.488281 207.160156 C 249.109375 209.1875 249.367188 211.484375 249.097656 213.742188 C 248.820312 215.996094 248.03125 218.167969 246.941406 219.992188 C 246.382812 220.894531 245.757812 221.710938 245.105469 222.433594 C 244.425781 223.132812 243.738281 223.746094 243.039062 224.230469 C 242.339844 224.714844 241.65625 225.09375 241.019531 225.355469 C 240.382812 225.628906 239.800781 225.796875 239.316406 225.90625 C 238.824219 226.015625 238.441406 226.066406 238.179688 226.078125 C 237.917969 226.101562 237.78125 226.117188 237.78125 226.117188 Z "/>
<path style="fill:none;stroke-width:1;stroke-linecap:butt;stroke-linejoin:round;stroke:rgb(13.729858%,12.159729%,12.548828%);stroke-opacity:1;stroke-dasharray:5,5;stroke-miterlimit:10;" d="M 0.00174733 -0.000299484 L -204.3298 -98.361549 " transform="matrix(0.996963,0,0,-0.996963,265.959195,71.429389)"/>
<path style=" stroke:none;fill-rule:nonzero;fill:rgb(13.729858%,12.159729%,12.548828%);fill-opacity:1;" d="M 46.570312 156.832031 C 46.570312 156.832031 46.523438 156.964844 46.433594 157.210938 C 46.316406 157.457031 46.269531 157.835938 46.195312 158.242188 C 46.164062 158.691406 46.15625 159.214844 46.28125 159.796875 C 46.375 160.375 46.628906 161 46.945312 161.644531 C 47.261719 162.289062 47.742188 162.925781 48.265625 163.5625 C 48.792969 164.199219 49.460938 164.78125 50.164062 165.34375 C 50.511719 165.632812 50.90625 165.871094 51.289062 166.128906 C 51.703125 166.34375 52.09375 166.59375 52.519531 166.800781 C 53.355469 167.230469 54.257812 167.566406 55.1875 167.777344 C 56.101562 168.046875 57.050781 168.191406 57.996094 168.21875 C 58.941406 168.269531 59.882812 168.226562 60.796875 168.117188 C 61.253906 168.050781 61.699219 167.941406 62.148438 167.882812 C 62.589844 167.777344 63.023438 167.671875 63.441406 167.570312 C 63.859375 167.4375 64.261719 167.296875 64.664062 167.183594 C 65.058594 167.035156 65.4375 166.894531 65.804688 166.757812 C 66.179688 166.632812 66.503906 166.4375 66.84375 166.308594 C 67.175781 166.164062 67.503906 166.039062 67.789062 165.882812 C 68.359375 165.570312 68.910156 165.355469 69.320312 165.109375 C 70.160156 164.652344 70.675781 164.402344 70.675781 164.402344 L 70.808594 164.550781 C 70.808594 164.550781 70.390625 164.90625 69.664062 165.53125 C 69.304688 165.855469 68.816406 166.179688 68.285156 166.585938 C 67.742188 166.980469 67.101562 167.386719 66.390625 167.804688 C 66.027344 168 65.648438 168.203125 65.257812 168.414062 C 64.847656 168.59375 64.429688 168.78125 63.996094 168.972656 C 63.550781 169.140625 63.089844 169.292969 62.617188 169.460938 C 62.136719 169.585938 61.644531 169.726562 61.140625 169.832031 C 60.121094 170.015625 59.054688 170.171875 57.960938 170.132812 C 56.871094 170.125 55.761719 169.988281 54.6875 169.707031 C 53.609375 169.4375 52.574219 169.011719 51.617188 168.492188 C 50.652344 167.980469 49.769531 167.355469 49 166.660156 C 48.226562 165.96875 47.550781 165.214844 47.019531 164.421875 C 46.488281 163.632812 46.058594 162.832031 45.804688 162.035156 C 45.546875 161.246094 45.394531 160.484375 45.414062 159.800781 C 45.394531 159.121094 45.539062 158.535156 45.679688 158.066406 C 45.863281 157.609375 46.03125 157.253906 46.1875 157.050781 C 46.328125 156.839844 46.402344 156.726562 46.402344 156.726562 Z "/>
<path style=" stroke:none;fill-rule:nonzero;fill:rgb(13.729858%,12.159729%,12.548828%);fill-opacity:1;" d="M 50.453125 98.253906 C 50.453125 98.253906 50.1875 98.648438 49.6875 99.292969 C 49.558594 99.449219 49.421875 99.628906 49.269531 99.820312 C 49.191406 99.914062 49.109375 100.011719 49.027344 100.113281 C 48.960938 100.21875 48.890625 100.332031 48.820312 100.445312 C 48.542969 100.910156 48.222656 101.382812 47.894531 101.910156 C 47.753906 102.195312 47.609375 102.492188 47.460938 102.796875 C 47.320312 103.105469 47.101562 103.375 47.003906 103.726562 C 46.773438 104.394531 46.464844 105.058594 46.308594 105.796875 C 46.230469 106.164062 46.074219 106.511719 46.050781 106.898438 C 46.011719 107.28125 45.957031 107.664062 45.882812 108.042969 C 45.816406 108.421875 45.847656 108.820312 45.820312 109.207031 L 45.800781 109.792969 L 45.863281 110.378906 C 45.855469 111.171875 46.027344 111.9375 46.164062 112.703125 C 46.417969 113.433594 46.527344 114.210938 46.867188 114.878906 C 47.121094 115.585938 47.492188 116.203125 47.804688 116.835938 C 47.988281 117.132812 48.207031 117.386719 48.378906 117.671875 C 48.554688 117.957031 48.734375 118.230469 48.953125 118.449219 C 49.367188 118.90625 49.726562 119.386719 50.132812 119.707031 C 50.527344 120.042969 50.851562 120.414062 51.183594 120.605469 C 51.816406 121.054688 52.203125 121.355469 52.203125 121.355469 L 52.144531 121.546875 C 52.144531 121.546875 51.71875 121.386719 50.96875 121.101562 C 50.578125 120.992188 50.171875 120.71875 49.6875 120.445312 C 49.179688 120.195312 48.699219 119.785156 48.164062 119.351562 C 47.882812 119.148438 47.636719 118.890625 47.390625 118.613281 C 47.144531 118.339844 46.867188 118.066406 46.621094 117.761719 C 46.175781 117.109375 45.652344 116.457031 45.300781 115.667969 C 44.867188 114.917969 44.617188 114.058594 44.316406 113.207031 C 44.121094 112.324219 43.902344 111.429688 43.875 110.507812 L 43.828125 109.816406 L 43.867188 109.132812 C 43.910156 108.675781 43.898438 108.214844 43.984375 107.769531 C 44.074219 107.328125 44.164062 106.890625 44.253906 106.453125 C 44.328125 106.015625 44.527344 105.617188 44.65625 105.210938 C 44.894531 104.378906 45.34375 103.667969 45.699219 102.96875 C 46.082031 102.28125 46.574219 101.714844 46.960938 101.148438 C 47.410156 100.628906 47.871094 100.195312 48.253906 99.789062 C 48.625 99.363281 49.050781 99.125 49.347656 98.863281 C 49.972656 98.375 50.332031 98.097656 50.332031 98.097656 Z "/>
<path style="fill:none;stroke-width:1;stroke-linecap:butt;stroke-linejoin:round;stroke:rgb(13.729858%,12.159729%,12.548828%);stroke-opacity:1;stroke-miterlimit:10;" d="M 0.00178811 -0.000387402 C 0.00178811 -3.91462 -3.171914 -7.088322 -7.086146 -7.088322 C -11.000378 -7.088322 -14.17408 -3.91462 -14.17408 -0.000387402 C -14.17408 3.913845 -11.000378 7.087547 -7.086146 7.087547 C -3.171914 7.087547 0.00178811 3.913845 0.00178811 -0.000387402 Z " transform="matrix(0.996963,0,0,-0.996963,290.330249,135.237895)"/>
<path style="fill:none;stroke-width:1;stroke-linecap:butt;stroke-linejoin:round;stroke:rgb(13.729858%,12.159729%,12.548828%);stroke-opacity:1;stroke-miterlimit:10;" d="M 0.00132945 0.000658748 C 0.00132945 -3.913574 -3.172372 -7.087275 -7.086605 -7.087275 C -11.000837 -7.087275 -14.174539 -3.913574 -14.174539 0.000658748 C -14.174539 3.914891 -11.000837 7.084675 -7.086605 7.084675 C -3.172372 7.084675 0.00132945 3.914891 0.00132945 0.000658748 Z " transform="matrix(0.996963,0,0,-0.996963,186.627581,9.586594)"/>
<path style="fill:none;stroke-width:1;stroke-linecap:butt;stroke-linejoin:round;stroke:rgb(13.729858%,12.159729%,12.548828%);stroke-opacity:1;stroke-miterlimit:10;" d="M -0.00182074 -0.000477407 C -0.00182074 -3.91471 -3.175523 -7.088412 -7.085837 -7.088412 C -11.000069 -7.088412 -14.173771 -3.91471 -14.173771 -0.000477407 C -14.173771 3.913755 -11.000069 7.087457 -7.085837 7.087457 C -3.175523 7.087457 -0.00182074 3.913755 -0.00182074 -0.000477407 Z " transform="matrix(0.996963,0,0,-0.996963,53.552596,111.562024)"/>
</g>
</svg>