<?xml version="1.0" encoding="UTF-8"?><svg xmlns="http://www.w3.org/2000/svg" xmlns:xlink="http://www.w3.org/1999/xlink" viewBox="0 0 239.2569 250.4595" width="216.8pt" height="226.95111238171188pt" version="1.2">
<defs>
<clipPath id="clip1">
  <path d="M 5 0.117188 L 40 0.117188 L 40 249.800781 L 5 249.800781 Z "/>
</clipPath>
<clipPath id="clip2">
  <path d="M 7 0.117188 L 225 0.117188 L 225 178 L 7 178 Z "/>
</clipPath>
<clipPath id="clip3">
  <path d="M 5 107 L 237 107 L 237 249.800781 L 5 249.800781 Z "/>
</clipPath>
<clipPath id="clip4">
  <path d="M 5 0.117188 L 237 0.117188 L 237 142 L 5 142 Z "/>
</clipPath>
</defs>
<g id="surface1">
<g clip-path="url(#clip1)" clip-rule="nonzero">
<path style="fill:none;stroke-width:3;stroke-linecap:butt;stroke-linejoin:miter;stroke:rgb(13.729858%,12.159729%,12.548828%);stroke-opacity:1;stroke-miterlimit:4;" d="M 140.29976 -499.889856 C 140.29976 -499.889856 140.29976 -722.391277 140.29976 -722.391277 " transform="matrix(0.996904,0,0,0.996904,-117.263794,734.013948)"/>
</g>
<path style="fill:none;stroke-width:3;stroke-linecap:butt;stroke-linejoin:miter;stroke:rgb(13.729858%,12.159729%,12.548828%);stroke-opacity:1;stroke-miterlimit:4;" d="M 338.311291 -610.658605 C 338.311291 -610.658605 141.00115 -610.658605 141.00115 -610.658605 " transform="matrix(0.996904,0,0,0.996904,-117.263794,734.013948)"/>
<path style="fill:none;stroke-width:3;stroke-linecap:butt;stroke-linejoin:miter;stroke:rgb(13.729858%,12.159729%,12.548828%);stroke-opacity:1;stroke-miterlimit:4;" d="M 140.597557 -693.591167 C 140.597557 -693.591167 270.597726 -693.591167 270.597726 -693.591167 " transform="matrix(0.996904,0,0,0.996904,-117.263794,734.013948)"/>
<path style="fill:none;stroke-width:3;stroke-linecap:butt;stroke-linejoin:miter;stroke:rgb(13.729858%,12.159729%,12.548828%);stroke-opacity:1;stroke-miterlimit:4;" d="M 140.064657 -664.289504 C 140.064657 -664.289504 312.967194 -664.289504 312.967194 -664.289504 " transform="matrix(0.996904,0,0,0.996904,-117.263794,734.013948)"/>
<g clip-path="url(#clip2)" clip-rule="nonzero">
<path style="fill:none;stroke-width:3;stroke-linecap:butt;stroke-linejoin:miter;stroke:rgb(13.729858%,12.159729%,12.548828%);stroke-opacity:1;stroke-miterlimit:4;" d="M 141.667275 -719.891349 C 141.667275 -719.891349 326.332796 -575.224674 326.332796 -575.224674 " transform="matrix(0.996904,0,0,0.996904,-117.263794,734.013948)"/>
</g>
<g clip-path="url(#clip3)" clip-rule="nonzero">
<path style="fill:none;stroke-width:3;stroke-linecap:butt;stroke-linejoin:miter;stroke:rgb(13.729858%,12.159729%,12.548828%);stroke-opacity:1;stroke-miterlimit:4;" d="M 337.668676 -611.305139 C 337.668676 -550.256742 247.11878 -500.857697 139.6689 -500.857697 " transform="matrix(0.996904,0,0,0.996904,-117.263794,734.013948)"/>
</g>
<g clip-path="url(#clip4)" clip-rule="nonzero">
<path style="fill:none;stroke-width:3;stroke-linecap:butt;stroke-linejoin:miter;stroke:rgb(13.729858%,12.159729%,12.548828%);stroke-opacity:1;stroke-miterlimit:4;" d="M 337.668676 -610.834933 C 337.668676 -671.883329 247.11878 -721.286293 139.6689 -721.286293 " transform="matrix(0.996904,0,0,0.996904,-117.263794,734.013948)"/>
</g>
</g>
</svg>