<?xml version="1.0" encoding="UTF-8"?><svg xmlns="http://www.w3.org/2000/svg" xmlns:xlink="http://www.w3.org/1999/xlink" viewBox="0 0 47.375 208.626" width="73.7154pt" height="324.62161562849604pt" version="1.2">
<defs>
<clipPath id="clip1">
  <path d="M 23 1.171875 L 25 1.171875 L 25 163 L 23 163 Z "/>
</clipPath>
<clipPath id="clip2">
  <path d="M 0 161 L 46.757812 161 L 46.757812 207 L 0 207 Z "/>
</clipPath>
<clipPath id="clip3">
  <path d="M 0 156 L 46.757812 156 L 46.757812 207.082031 L 0 207.082031 Z "/>
</clipPath>
<clipPath id="clip4">
  <path d="M 0 1.171875 L 25 1.171875 L 25 3 L 0 3 Z "/>
</clipPath>
</defs>
<g id="surface1">
<g clip-path="url(#clip1)" clip-rule="nonzero">
<path style="fill:none;stroke-width:1;stroke-linecap:round;stroke-linejoin:round;stroke:rgb(13.729858%,12.159729%,12.548828%);stroke-opacity:1;stroke-miterlimit:4;" d="M -0.00148417 -0.000812665 L -0.00148417 -162.083926 " transform="matrix(0.986979,0,0,-0.986979,23.872559,1.667167)"/>
</g>
<g clip-path="url(#clip2)" clip-rule="nonzero">
<path style=" stroke:none;fill-rule:nonzero;fill:rgb(100%,100%,100%);fill-opacity:1;" d="M 46.265625 184.113281 C 46.265625 196.527344 36.019531 206.589844 23.378906 206.589844 C 10.742188 206.589844 0.492188 196.527344 0.492188 184.113281 C 0.492188 171.703125 10.742188 161.640625 23.378906 161.640625 C 36.019531 161.640625 46.265625 171.703125 46.265625 184.113281 "/>
</g>
<g clip-path="url(#clip3)" clip-rule="nonzero">
<path style="fill:none;stroke-width:1;stroke-linecap:butt;stroke-linejoin:miter;stroke:rgb(13.729858%,12.159729%,12.548828%);stroke-opacity:1;stroke-miterlimit:4;" d="M 0.000989446 0.00144459 C 0.000989446 -12.576392 -10.380277 -22.771642 -23.187665 -22.771642 C -35.991095 -22.771642 -46.376319 -12.576392 -46.376319 0.00144459 C -46.376319 12.575323 -35.991095 22.770574 -23.187665 22.770574 C -10.380277 22.770574 0.000989446 12.575323 0.000989446 0.00144459 Z " transform="matrix(0.986979,0,0,-0.986979,46.264648,184.114707)"/>
</g>
<g clip-path="url(#clip4)" clip-rule="nonzero">
<path style="fill:none;stroke-width:1;stroke-linecap:round;stroke-linejoin:miter;stroke:rgb(13.729858%,12.159729%,12.548828%);stroke-opacity:1;stroke-miterlimit:4;" d="M -0.00148417 -0.000812665 L -23.186181 -0.000812665 " transform="matrix(0.986979,0,0,-0.986979,23.872559,1.667167)"/>
</g>
</g>
</svg>