<?xml version="1.0" encoding="UTF-8"?><svg xmlns="http://www.w3.org/2000/svg" xmlns:xlink="http://www.w3.org/1999/xlink" viewBox="0 0 279 129.172" width="173.448pt" height="80.30331561290323pt" version="1.2">
<defs>
<clipPath id="clip1">
  <path d="M 61 9 L 190 9 L 190 128.347656 L 61 128.347656 Z "/>
</clipPath>
<clipPath id="clip2">
  <path d="M 0.886719 126 L 278.109375 126 L 278.109375 128.347656 L 0.886719 128.347656 Z "/>
</clipPath>
<clipPath id="clip3">
  <path d="M 36 107 L 39 107 L 39 128.347656 L 36 128.347656 Z "/>
</clipPath>
<clipPath id="clip4">
  <path d="M 174 107 L 177 107 L 177 128.347656 L 174 128.347656 Z "/>
</clipPath>
<clipPath id="clip5">
  <path d="M 219 107 L 222 107 L 222 128.347656 L 219 128.347656 Z "/>
</clipPath>
</defs>
<g id="surface1">
<g clip-path="url(#clip1)" clip-rule="nonzero">
<path style="fill:none;stroke-width:2;stroke-linecap:butt;stroke-linejoin:miter;stroke:rgb(13.729858%,12.159729%,12.548828%);stroke-opacity:1;stroke-miterlimit:4;" d="M -0.000680699 0.00120681 C -0.000680699 -29.027433 -23.895057 -52.5562 -53.375795 -52.5562 C -82.852602 -52.5562 -106.75091 -29.027433 -106.75091 0.00120681 C -106.75091 29.025916 -82.852602 52.554682 -53.375795 52.554682 C -23.895057 52.554682 -0.000680699 29.025916 -0.000680699 0.00120681 Z " transform="matrix(0.993631,0,0,-0.993631,178.703801,73.27073)"/>
</g>
<path style="fill:none;stroke-width:2;stroke-linecap:butt;stroke-linejoin:miter;stroke:rgb(13.729858%,12.159729%,12.548828%);stroke-opacity:1;stroke-miterlimit:4;" d="M -0.000478749 0.000524498 C -5.689054 11.271531 -5.594703 11.08676 -11.448393 22.680132 " transform="matrix(0.993631,0,0,-0.993631,103.086413,25.527865)"/>
<path style="fill:none;stroke-width:2;stroke-linecap:butt;stroke-linejoin:miter;stroke:rgb(13.729858%,12.159729%,12.548828%);stroke-opacity:1;stroke-miterlimit:4;" d="M -0.00195439 -0.000956489 C 4.408952 15.979734 5.938224 22.94991 5.938224 22.94991 " transform="matrix(0.993631,0,0,-0.993631,137.822254,23.014675)"/>
<path style="fill:none;stroke-width:2;stroke-linecap:butt;stroke-linejoin:miter;stroke:rgb(13.729858%,12.159729%,12.548828%);stroke-opacity:1;stroke-miterlimit:4;" d="M -0.00151695 0.000178505 C 14.638604 11.393055 23.59015 16.649189 23.59015 16.649189 " transform="matrix(0.993631,0,0,-0.993631,165.778851,40.66424)"/>
<path style="fill:none;stroke-width:2;stroke-linecap:butt;stroke-linejoin:miter;stroke:rgb(13.729858%,12.159729%,12.548828%);stroke-opacity:1;stroke-miterlimit:4;" d="M 0.00069449 -0.000526868 C 11.637311 -5.968224 22.711753 -11.621418 22.711753 -11.621418 " transform="matrix(0.993631,0,0,-0.993631,172.507122,98.366664)"/>
<path style="fill:none;stroke-width:2;stroke-linecap:butt;stroke-linejoin:miter;stroke:rgb(13.729858%,12.159729%,12.548828%);stroke-opacity:1;stroke-miterlimit:4;" d="M 0.000505626 -0.000660654 L 26.316556 2.000366 " transform="matrix(0.993631,0,0,-0.993631,177.964341,70.655594)"/>
<g clip-path="url(#clip2)" clip-rule="nonzero">
<path style="fill:none;stroke-width:2;stroke-linecap:butt;stroke-linejoin:miter;stroke:rgb(13.729858%,12.159729%,12.548828%);stroke-opacity:1;stroke-miterlimit:4;" d="M -0.00180041 0.000175321 L 279.0018 0.000175321 " transform="matrix(0.993631,0,0,-0.993631,0.888508,127.355643)"/>
</g>
<g clip-path="url(#clip3)" clip-rule="nonzero">
<path style="fill:none;stroke-width:2;stroke-linecap:butt;stroke-linejoin:miter;stroke:rgb(13.729858%,12.159729%,12.548828%);stroke-opacity:1;stroke-miterlimit:4;" d="M -0.000580621 0.000175321 L -0.000580621 19.106241 " transform="matrix(0.993631,0,0,-0.993631,37.031827,127.355643)"/>
</g>
<g clip-path="url(#clip4)" clip-rule="nonzero">
<path style="fill:none;stroke-width:2;stroke-linecap:butt;stroke-linejoin:miter;stroke:rgb(13.729858%,12.159729%,12.548828%);stroke-opacity:1;stroke-miterlimit:4;" d="M -0.000382726 0.000175321 L -0.000382726 19.106241 " transform="matrix(0.993631,0,0,-0.993631,175.394912,127.355643)"/>
</g>
<g clip-path="url(#clip5)" clip-rule="nonzero">
<path style="fill:none;stroke-width:2;stroke-linecap:butt;stroke-linejoin:miter;stroke:rgb(13.729858%,12.159729%,12.548828%);stroke-opacity:1;stroke-miterlimit:4;" d="M -0.000441756 0.000175321 L -0.000441756 19.106241 " transform="matrix(0.993631,0,0,-0.993631,220.480908,127.355643)"/>
</g>
</g>
</svg>