<?xml version="1.0" encoding="UTF-8"?><svg xmlns="http://www.w3.org/2000/svg" xmlns:xlink="http://www.w3.org/1999/xlink" viewBox="0 0 182.387 177.855" width="216.8pt" height="211.41289675250977pt" version="1.2">
<defs>
<clipPath id="clip1">
  <path d="M 90 0.226562 L 92 0.226562 L 92 177.484375 L 90 177.484375 Z "/>
</clipPath>
<clipPath id="clip2">
  <path d="M 5 40 L 105 40 L 105 177.484375 L 5 177.484375 Z "/>
</clipPath>
<clipPath id="clip3">
  <path d="M 76 40 L 176 40 L 176 177.484375 L 76 177.484375 Z "/>
</clipPath>
<clipPath id="clip4">
  <path d="M 0 20 L 181.777344 20 L 181.777344 22 L 0 22 Z "/>
</clipPath>
<clipPath id="clip5">
  <path d="M 0 5 L 181.777344 5 L 181.777344 37 L 0 37 Z "/>
</clipPath>
<clipPath id="clip6">
  <path d="M 0 0.226562 L 181.777344 0.226562 L 181.777344 35 L 0 35 Z "/>
</clipPath>
<clipPath id="clip7">
  <path d="M 6 0.226562 L 176 0.226562 L 176 69 L 6 69 Z "/>
</clipPath>
</defs>
<g id="surface1">
<g clip-path="url(#clip1)" clip-rule="nonzero">
<path style="fill:none;stroke-width:1;stroke-linecap:butt;stroke-linejoin:miter;stroke:rgb(13.729858%,12.159729%,12.548828%);stroke-opacity:1;stroke-miterlimit:10;" d="M 0.00159624 0.00107259 L 0.00159624 -176.641413 " transform="matrix(0.99665,0,0,-0.99665,90.70544,0.809663)"/>
</g>
<g clip-path="url(#clip2)" clip-rule="nonzero">
<path style="fill:none;stroke-width:1;stroke-linecap:butt;stroke-linejoin:miter;stroke:rgb(13.729858%,12.159729%,12.548828%);stroke-opacity:1;stroke-miterlimit:10;" d="M 0.00160728 0.00121578 L 70.867896 -122.745891 " transform="matrix(0.99665,0,0,-0.99665,20.076523,54.661368)"/>
</g>
<g clip-path="url(#clip3)" clip-rule="nonzero">
<path style="fill:none;stroke-width:1;stroke-linecap:butt;stroke-linejoin:miter;stroke:rgb(13.729858%,12.159729%,12.548828%);stroke-opacity:1;stroke-miterlimit:10;" d="M -0.0012512 -0.000460243 L -71.137977 -123.213973 " transform="matrix(0.99665,0,0,-0.99665,161.188747,54.433135)"/>
</g>
<path style="fill:none;stroke-width:1;stroke-linecap:butt;stroke-linejoin:miter;stroke:rgb(13.729858%,12.159729%,12.548828%);stroke-opacity:1;stroke-miterlimit:10;" d="M 0.00160728 0.00121578 L 1.49881 0.00121578 " transform="matrix(0.99665,0,0,-0.99665,20.076523,54.661368)"/>
<path style="fill:none;stroke-width:1;stroke-linecap:butt;stroke-linejoin:miter;stroke:rgb(13.729858%,12.159729%,12.548828%);stroke-opacity:1;stroke-dasharray:2.952,2.952;stroke-miterlimit:10;" d="M -0.00159773 0.00121578 L 134.303757 0.00121578 " transform="matrix(0.99665,0,0,-0.99665,24.513311,54.661368)"/>
<path style="fill:none;stroke-width:1;stroke-linecap:butt;stroke-linejoin:miter;stroke:rgb(13.729858%,12.159729%,12.548828%);stroke-opacity:1;stroke-miterlimit:10;" d="M 0.000563092 0.00121578 L 1.501685 0.00121578 " transform="matrix(0.99665,0,0,-0.99665,159.839283,54.661368)"/>
<g clip-path="url(#clip4)" clip-rule="nonzero">
<path style="fill:none;stroke-width:1;stroke-linecap:butt;stroke-linejoin:miter;stroke:rgb(13.729858%,12.159729%,12.548828%);stroke-opacity:1;stroke-miterlimit:10;" d="M 0.000227079 0.00185848 L 181.969148 0.00185848 " transform="matrix(0.99665,0,0,-0.99665,0.206805,21.474509)"/>
</g>
<g clip-path="url(#clip5)" clip-rule="nonzero">
<path style="fill:none;stroke-width:1;stroke-linecap:butt;stroke-linejoin:miter;stroke:rgb(13.729858%,12.159729%,12.548828%);stroke-opacity:1;stroke-miterlimit:10;" d="M 0 -0.00164576 C 0.921054 -0.00164576 1.842108 -2.835357 2.763162 -2.835357 C 3.684216 -2.835357 4.60527 -0.00164576 5.526324 -0.00164576 C 6.447378 -0.00164576 7.368432 -2.835357 8.289486 -2.835357 C 9.21054 -2.835357 10.131594 -0.00164576 11.052648 -0.00164576 C 11.973702 -0.00164576 12.894756 -2.835357 13.81581 -2.835357 C 14.736864 -2.835357 15.661838 -0.00164576 16.582892 -0.00164576 C 17.503946 -0.00164576 18.421081 -2.835357 19.342135 -2.835357 C 20.263189 -2.835357 21.188162 -0.00164576 22.105297 -0.00164576 C 23.03027 -0.00164576 23.951324 -2.835357 24.872378 -2.835357 C 25.793432 -2.835357 26.714486 -0.00164576 27.63554 -0.00164576 C 28.556594 -0.00164576 29.477648 -2.835357 30.398702 -2.835357 C 31.319756 -2.835357 32.24081 -0.00164576 33.161864 -0.00164576 C 34.082918 -0.00164576 35.003972 -2.835357 35.925027 -2.835357 C 36.846081 -2.835357 37.767135 -0.00164576 38.688189 -0.00164576 C 39.609243 -0.00164576 40.530297 -2.835357 41.451351 -2.835357 C 42.372405 -2.835357 43.293459 -0.00164576 44.214513 -0.00164576 C 45.135567 -0.00164576 46.056621 -2.835357 46.977675 -2.835357 C 47.898729 -2.835357 48.819783 -0.00164576 49.740837 -0.00164576 C 50.661891 -0.00164576 51.582945 -2.835357 52.503999 -2.835357 C 53.425053 -2.835357 54.346107 -0.00164576 55.267161 -0.00164576 C 56.188215 -0.00164576 57.109269 -2.835357 58.030323 -2.835357 C 58.951377 -2.835357 59.876351 -0.00164576 60.793485 -0.00164576 C 61.718459 -0.00164576 62.639513 -2.835357 63.560567 -2.835357 C 64.481621 -2.835357 65.402675 -0.00164576 66.323729 -0.00164576 C 67.244783 -0.00164576 68.165837 -2.835357 69.086891 -2.835357 C 70.007945 -2.835357 70.928999 -0.00164576 71.850053 -0.00164576 C 72.771107 -0.00164576 73.692161 -2.835357 74.613215 -2.835357 C 75.534269 -2.835357 76.455323 -0.00164576 77.376377 -0.00164576 C 78.297431 -0.00164576 79.218485 -2.835357 80.139539 -2.835357 C 81.060593 -2.835357 81.981647 -0.00164576 82.902701 -0.00164576 C 83.823755 -0.00164576 84.744809 -2.835357 85.665863 -2.835357 C 86.586918 -2.835357 87.507972 -0.00164576 88.429026 -0.00164576 C 89.35008 -0.00164576 90.271134 -2.835357 91.192188 -2.835357 C 92.113242 -2.835357 93.034296 -0.00164576 93.95535 -0.00164576 C 94.876404 -0.00164576 95.797458 -2.835357 96.718512 -2.835357 C 97.643485 -2.835357 98.564539 -0.00164576 99.485593 -0.00164576 C 100.406647 -0.00164576 101.327701 -2.835357 102.248755 -2.835357 C 103.169809 -2.835357 104.090863 -0.00164576 105.011917 -0.00164576 C 105.932972 -0.00164576 106.854026 -2.835357 107.77508 -2.835357 C 108.696134 -2.835357 109.617188 -0.00164576 110.538242 -0.00164576 C 111.459296 -0.00164576 112.38035 -2.835357 113.301404 -2.835357 C 114.222458 -2.835357 115.143512 -0.00164576 116.064566 -0.00164576 C 116.98562 -0.00164576 117.906674 -2.835357 118.827728 -2.835357 C 119.748782 -2.835357 120.669836 -0.00164576 121.59089 -0.00164576 C 122.511944 -0.00164576 123.432998 -2.835357 124.354052 -2.835357 C 125.275106 -2.835357 126.19616 -0.00164576 127.117214 -0.00164576 C 128.038268 -0.00164576 128.959322 -2.835357 129.880376 -2.835357 C 130.80143 -2.835357 131.722484 -0.00164576 132.643538 -0.00164576 C 133.564592 -0.00164576 134.485646 -2.835357 135.4067 -2.835357 C 136.331674 -2.835357 137.248809 -0.00164576 138.173782 -0.00164576 C 139.094836 -0.00164576 140.01589 -2.835357 140.936944 -2.835357 C 141.854079 -2.835357 142.775133 -0.00164576 143.700106 -0.00164576 C 144.62116 -0.00164576 145.542214 -2.835357 146.463268 -2.835357 C 147.384322 -2.835357 148.305376 -0.00164576 149.22643 -0.00164576 C 150.147484 -0.00164576 151.068538 -2.835357 151.989592 -2.835357 C 152.910646 -2.835357 153.8317 -0.00164576 154.752754 -0.00164576 C 155.673808 -0.00164576 156.594863 -2.835357 157.515917 -2.835357 C 158.436971 -2.835357 159.358025 -0.00164576 160.279079 -0.00164576 C 161.200133 -0.00164576 162.121187 -2.835357 163.042241 -2.835357 C 163.963295 -2.835357 164.884349 -0.00164576 165.805403 -0.00164576 C 166.726457 -0.00164576 167.647511 -2.835357 168.568565 -2.835357 C 169.489619 -2.835357 170.410673 -0.00164576 171.331727 -0.00164576 C 172.252781 -0.00164576 173.173835 -2.835357 174.098808 -2.835357 C 175.019862 -2.835357 175.940916 -0.00164576 176.858051 -0.00164576 C 177.779105 -0.00164576 178.700159 -2.835357 179.625133 -2.835357 C 180.542267 -2.835357 181.463321 -0.00164576 182.388295 -0.00164576 " transform="matrix(0.99665,0,0,-0.99665,0,20.06086)"/>
</g>
<g clip-path="url(#clip6)" clip-rule="nonzero">
<path style="fill:none;stroke-width:1;stroke-linecap:butt;stroke-linejoin:miter;stroke:rgb(13.729858%,12.159729%,12.548828%);stroke-opacity:1;stroke-miterlimit:10;" d="M -0.00125354 -0.00135656 C 57.84094 26.117384 124.117636 26.117384 181.959829 -0.00135656 " transform="matrix(0.99665,0,0,-0.99665,0.212187,20.244742)"/>
</g>
<g clip-path="url(#clip7)" clip-rule="nonzero">
<path style="fill:none;stroke-width:1;stroke-linecap:butt;stroke-linejoin:miter;stroke:rgb(13.729858%,12.159729%,12.548828%);stroke-opacity:1;stroke-miterlimit:10;" d="M 0.00127622 -0.00124546 C 19.723591 72.099648 121.980185 72.099648 141.706418 -0.00124546 " transform="matrix(0.99665,0,0,-0.99665,20.272166,54.651102)"/>
</g>
</g>
</svg>