<?xml version="1.0" encoding="UTF-8"?><svg xmlns="http://www.w3.org/2000/svg" xmlns:xlink="http://www.w3.org/1999/xlink" viewBox="0 0 297.886 219.566" width="130.086pt" height="95.8838705947913pt" version="1.2">
<defs>
<clipPath id="clip1">
  <path d="M 0.238281 0 L 297.535156 0 L 297.535156 219.132812 L 0.238281 219.132812 Z "/>
</clipPath>
</defs>
<g id="surface1">
<g clip-path="url(#clip1)" clip-rule="nonzero">
<path style="fill:none;stroke-width:1.5;stroke-linecap:butt;stroke-linejoin:miter;stroke:rgb(13.729858%,12.159729%,12.548828%);stroke-opacity:1;stroke-miterlimit:4;" d="M 0.0011269 -0.000619136 C -9.169308 -58.295306 -60.923749 -125.114622 -139.164033 -171.064644 C -192.934169 -202.642564 -249.217075 -218.490233 -297.143652 -218.697674 " transform="matrix(0.998027,0,0,-0.998027,296.79575,0.11657)"/>
</g>
<path style="fill:none;stroke-width:1.5;stroke-linecap:butt;stroke-linejoin:miter;stroke:rgb(13.729858%,12.159729%,12.548828%);stroke-opacity:1;stroke-miterlimit:4;" d="M -0.00147348 0.0000815463 C -0.00147348 -7.823947 -5.97028 -14.168494 -13.332459 -14.168494 C -20.698553 -14.168494 -26.667359 -7.823947 -26.667359 0.0000815463 C -26.667359 7.82411 -20.698553 14.168657 -13.332459 14.168657 C -5.97028 14.168657 -0.00147348 7.82411 -0.00147348 0.0000815463 Z " transform="matrix(0.998027,0,0,-0.998027,209.509283,127.695394)"/>
<path style="fill:none;stroke-width:1.5;stroke-linecap:butt;stroke-linejoin:miter;stroke:rgb(13.729858%,12.159729%,12.548828%);stroke-opacity:1;stroke-miterlimit:4;" d="M -0.000766403 0.000749341 C -0.000766403 -7.823279 -5.969572 -14.167826 -13.335666 -14.167826 C -20.697846 -14.167826 -26.666652 -7.823279 -26.666652 0.000749341 C -26.666652 7.824778 -20.697846 14.165411 -13.335666 14.165411 C -5.969572 14.165411 -0.000766403 7.824778 -0.000766403 0.000749341 Z " transform="matrix(0.998027,0,0,-0.998027,245.438265,93.762467)"/>
</g>
</svg>