<?xml version="1.0" encoding="UTF-8"?><svg xmlns="http://www.w3.org/2000/svg" xmlns:xlink="http://www.w3.org/1999/xlink" viewBox="0 0 220.827 276.906" width="86.724pt" height="108.74755326115014pt" version="1.2">
<defs>
<clipPath id="clip1">
  <path d="M 0 0.0625 L 169 0.0625 L 169 276.75 L 0 276.75 Z "/>
</clipPath>
<clipPath id="clip2">
  <path d="M 0 211 L 62 211 L 62 276.75 L 0 276.75 Z "/>
</clipPath>
<clipPath id="clip3">
  <path d="M 56 0.0625 L 125 0.0625 L 125 61 L 56 61 Z "/>
</clipPath>
<clipPath id="clip4">
  <path d="M 161 11 L 220.652344 11 L 220.652344 80 L 161 80 Z "/>
</clipPath>
</defs>
<g id="surface1">
<g clip-path="url(#clip1)" clip-rule="nonzero">
<path style="fill:none;stroke-width:2;stroke-linecap:butt;stroke-linejoin:miter;stroke:rgb(13.729858%,12.159729%,12.548828%);stroke-opacity:1;stroke-miterlimit:4;" d="M 0.000579513 -0.000377718 L 0.000579513 206.004634 C 0.000579513 240.500388 30.762942 268.463684 68.706707 268.463684 L 83.976473 268.463684 C 121.916328 268.463684 152.6826 240.500388 152.6826 206.004634 L 152.6826 -0.000377718 " transform="matrix(0.999217,0,0,-0.999217,4.815827,271.351185)"/>
</g>
<path style="fill:none;stroke-width:2;stroke-linecap:butt;stroke-linejoin:miter;stroke:rgb(13.729858%,12.159729%,12.548828%);stroke-opacity:1;stroke-miterlimit:4;" d="M 0.0016709 -0.000968524 C 0.0016709 -12.522489 -10.154717 -22.678877 -22.676238 -22.678877 C -35.201668 -22.678877 -45.354146 -12.522489 -45.354146 -0.000968524 C -45.354146 12.524461 -35.201668 22.67694 -22.676238 22.67694 C -10.154717 22.67694 0.0016709 12.524461 0.0016709 -0.000968524 Z " transform="matrix(0.999217,0,0,-0.999217,51.131143,57.620126)"/>
<path style="fill:none;stroke-width:2;stroke-linecap:butt;stroke-linejoin:miter;stroke:rgb(13.729858%,12.159729%,12.548828%);stroke-opacity:1;stroke-miterlimit:4;" d="M 0.0016709 0.0013039 C 0.0016709 -12.524126 -10.154717 -22.676605 -22.676238 -22.676605 C -35.201668 -22.676605 -45.354146 -12.524126 -45.354146 0.0013039 C -45.354146 12.522825 -35.201668 22.679213 -22.676238 22.679213 C -10.154717 22.679213 0.0016709 12.522825 0.0016709 0.0013039 Z " transform="matrix(0.999217,0,0,-0.999217,51.131143,104.583334)"/>
<path style="fill:none;stroke-width:2;stroke-linecap:butt;stroke-linejoin:miter;stroke:rgb(13.729858%,12.159729%,12.548828%);stroke-opacity:1;stroke-miterlimit:4;" d="M 0.000887483 -0.000332986 C 0.000887483 -12.521854 -10.1555 -22.678242 -22.677021 -22.678242 C -35.202451 -22.678242 -45.35493 -12.521854 -45.35493 -0.000332986 C -45.35493 12.525097 -35.202451 22.677576 -22.677021 22.677576 C -10.1555 22.677576 0.000887483 12.525097 0.000887483 -0.000332986 Z " transform="matrix(0.999217,0,0,-0.999217,50.131926,151.546542)"/>
<path style="fill:none;stroke-width:2;stroke-linecap:butt;stroke-linejoin:miter;stroke:rgb(13.729858%,12.159729%,12.548828%);stroke-opacity:1;stroke-miterlimit:4;" d="M 0.000887483 0.00193944 C 0.000887483 -12.523491 -10.1555 -22.675969 -22.677021 -22.675969 C -35.202451 -22.675969 -45.35493 -12.523491 -45.35493 0.00193944 C -45.35493 12.52346 -35.202451 22.679848 -22.677021 22.679848 C -10.1555 22.679848 0.000887483 12.52346 0.000887483 0.00193944 Z " transform="matrix(0.999217,0,0,-0.999217,50.131926,198.50975)"/>
<g clip-path="url(#clip2)" clip-rule="nonzero">
<path style="fill:none;stroke-width:2;stroke-linecap:butt;stroke-linejoin:miter;stroke:rgb(13.729858%,12.159729%,12.548828%);stroke-opacity:1;stroke-miterlimit:4;" d="M 0.000887483 0.000302551 C 0.000887483 -12.521218 -10.1555 -22.677606 -22.677021 -22.677606 C -35.202451 -22.677606 -45.35493 -12.521218 -45.35493 0.000302551 C -45.35493 12.525733 -35.202451 22.678211 -22.677021 22.678211 C -10.1555 22.678211 0.000887483 12.525733 0.000887483 0.000302551 Z " transform="matrix(0.999217,0,0,-0.999217,50.131926,245.472959)"/>
</g>
<g clip-path="url(#clip3)" clip-rule="nonzero">
<path style="fill:none;stroke-width:2;stroke-linecap:butt;stroke-linejoin:miter;stroke:rgb(13.729858%,12.159729%,12.548828%);stroke-opacity:1;stroke-miterlimit:4;" d="M -0.0000781727 -0.000138405 C -0.0000781727 -12.521659 -10.152557 -22.678047 -22.677987 -22.678047 C -35.199507 -22.678047 -45.351986 -12.521659 -45.351986 -0.000138405 C -45.351986 12.525292 -35.199507 22.67777 -22.677987 22.67777 C -10.152557 22.67777 -0.0000781727 12.525292 -0.0000781727 -0.000138405 Z " transform="matrix(0.999217,0,0,-0.999217,113.082109,26.644393)"/>
</g>
<path style="fill:none;stroke-width:2;stroke-linecap:butt;stroke-linejoin:miter;stroke:rgb(13.729858%,12.159729%,12.548828%);stroke-opacity:1;stroke-miterlimit:4;" d="M 0.000535522 -0.0013032 L 90.000676 -0.0013032 " transform="matrix(0.999217,0,0,-0.999217,116.401809,272.451823)"/>
<g clip-path="url(#clip4)" clip-rule="nonzero">
<path style="fill:none;stroke-width:2;stroke-linecap:butt;stroke-linejoin:miter;stroke:rgb(13.729858%,12.159729%,12.548828%);stroke-opacity:1;stroke-miterlimit:4;" d="M -0.00162336 -0.0000947502 C -0.00162336 -12.521615 -10.154102 -22.678003 -22.679532 -22.678003 C -35.201053 -22.678003 -45.353531 -12.521615 -45.353531 -0.0000947502 C -45.353531 12.525335 -35.201053 22.677814 -22.679532 22.677814 C -10.154102 22.677814 -0.00162336 12.525335 -0.00162336 -0.0000947502 Z " transform="matrix(0.999217,0,0,-0.999217,218.333653,45.29678)"/>
</g>
<path style=" stroke:none;fill-rule:nonzero;fill:rgb(14.691162%,12.815857%,12.594604%);fill-opacity:1;" d="M 94.519531 26.644531 C 94.519531 28.851562 92.6875 30.640625 90.421875 30.640625 C 88.160156 30.640625 86.324219 28.851562 86.324219 26.644531 C 86.324219 24.4375 88.160156 22.648438 90.421875 22.648438 C 92.6875 22.648438 94.519531 24.4375 94.519531 26.644531 "/>
<path style="fill:none;stroke-width:1;stroke-linecap:butt;stroke-linejoin:miter;stroke:rgb(13.729858%,12.159729%,12.548828%);stroke-opacity:1;stroke-miterlimit:4;" d="M -0.00142038 -0.000138405 C -0.00142038 -2.208899 -1.834887 -3.999363 -4.102287 -3.999363 C -6.365777 -3.999363 -8.203153 -2.208899 -8.203153 -0.000138405 C -8.203153 2.208622 -6.365777 3.999086 -4.102287 3.999086 C -1.834887 3.999086 -0.00142038 2.208622 -0.00142038 -0.000138405 Z " transform="matrix(0.999217,0,0,-0.999217,94.520951,26.644393)"/>
<path style="fill:none;stroke-width:2;stroke-linecap:butt;stroke-linejoin:miter;stroke:rgb(13.729858%,12.159729%,12.548828%);stroke-opacity:1;stroke-dasharray:5,15;stroke-miterlimit:4;" d="M 0.000168005 -0.00120339 L 0.000168005 -204.321303 " transform="matrix(0.999217,0,0,-0.999217,195.671707,67.955829)"/>
</g>
</svg>