<?xml version="1.0" encoding="UTF-8"?><svg xmlns="http://www.w3.org/2000/svg" xmlns:xlink="http://www.w3.org/1999/xlink" viewBox="0 0 198.858 263.136" width="160.4394pt" height="212.29913786923333pt" version="1.2">
<defs>
<clipPath id="clip1">
  <path d="M 192 29 L 195 29 L 195 262.273438 L 192 262.273438 Z "/>
</clipPath>
<clipPath id="clip2">
  <path d="M 0.253906 0 L 198.460938 0 L 198.460938 169 L 0.253906 169 Z "/>
</clipPath>
<clipPath id="clip3">
  <path d="M 188 86 L 198.460938 86 L 198.460938 97 L 188 97 Z "/>
</clipPath>
</defs>
<g id="surface1">
<path style="fill:none;stroke-width:2.5;stroke-linecap:butt;stroke-linejoin:miter;stroke:rgb(13.729858%,12.159729%,12.548828%);stroke-opacity:1;stroke-miterlimit:4;" d="M 14.201999 97.997892 L 193.535001 97.997892 L 193.535001 171.331643 L 14.201999 171.331643 Z " transform="matrix(0.996727,0,0,-0.996727,0.254636,262.274828)"/>
<g clip-path="url(#clip1)" clip-rule="nonzero">
<path style="fill:none;stroke-width:2.5;stroke-linecap:butt;stroke-linejoin:miter;stroke:rgb(13.729858%,12.159729%,12.548828%);stroke-opacity:1;stroke-miterlimit:4;" d="M -0.0000776222 -0.0000593533 L -0.0000776222 -232.001524 " transform="matrix(0.996727,0,0,-0.996727,193.488359,31.035097)"/>
</g>
<g clip-path="url(#clip2)" clip-rule="nonzero">
<path style="fill:none;stroke-width:2.5;stroke-linecap:butt;stroke-linejoin:miter;stroke:rgb(13.729858%,12.159729%,12.548828%);stroke-opacity:1;stroke-dasharray:5;stroke-miterlimit:4;" d="M 0.000144272 0.00101463 L 155.305291 -89.667446 L 191.972166 -26.162737 L 36.66702 63.505723 Z " transform="matrix(0.996727,0,0,-0.996727,2.296731,65.340855)"/>
</g>
<g clip-path="url(#clip3)" clip-rule="nonzero">
<path style=" stroke:none;fill-rule:nonzero;fill:rgb(13.729858%,12.159729%,12.548828%);fill-opacity:1;" d="M 193.640625 96.398438 C 200.070312 96.398438 200.070312 86.433594 193.640625 86.433594 C 187.214844 86.433594 187.214844 96.398438 193.640625 96.398438 "/>
</g>
</g>
</svg>