<?xml version="1.0" encoding="UTF-8"?><svg xmlns="http://www.w3.org/2000/svg" xmlns:xlink="http://www.w3.org/1999/xlink" viewBox="0 0 77.303 79.703" width="52.0344pt" height="53.64989435338862pt" version="1.2">
<defs>
<clipPath id="clip1">
  <path d="M 0 0.207031 L 6 0.207031 L 6 7 L 0 7 Z "/>
</clipPath>
<clipPath id="clip2">
  <path d="M 70 0.207031 L 76.613281 0.207031 L 76.613281 7 L 70 7 Z "/>
</clipPath>
</defs>
<g id="surface1">
<path style="fill:none;stroke-width:2;stroke-linecap:butt;stroke-linejoin:miter;stroke:rgb(13.729858%,12.159729%,12.548828%);stroke-opacity:1;stroke-miterlimit:4;" d="M -0.000936185 0.00188712 L -0.000936185 -70.999764 " transform="matrix(0.991064,0,0,-0.991064,2.879834,3.169839)"/>
<path style="fill:none;stroke-width:2;stroke-linecap:butt;stroke-linejoin:miter;stroke:rgb(13.729858%,12.159729%,12.548828%);stroke-opacity:1;stroke-miterlimit:4;" d="M -0.000936185 0.00188712 L 72.001848 0.00188712 " transform="matrix(0.991064,0,0,-0.991064,2.879834,3.169839)"/>
<g clip-path="url(#clip1)" clip-rule="nonzero">
<path style=" stroke:none;fill-rule:nonzero;fill:rgb(13.729858%,12.159729%,12.548828%);fill-opacity:1;" d="M 2.597656 6.128906 C 6.40625 6.128906 6.992188 0.207031 3.160156 0.207031 C -0.648438 0.207031 -1.230469 6.128906 2.597656 6.128906 "/>
</g>
<path style=" stroke:none;fill-rule:nonzero;fill:rgb(13.729858%,12.159729%,12.548828%);fill-opacity:1;" d="M 2.597656 78.476562 C 6.40625 78.476562 6.992188 72.554688 3.160156 72.554688 C -0.648438 72.554688 -1.230469 78.476562 2.597656 78.476562 "/>
<g clip-path="url(#clip2)" clip-rule="nonzero">
<path style=" stroke:none;fill-rule:nonzero;fill:rgb(13.729858%,12.159729%,12.548828%);fill-opacity:1;" d="M 72.964844 6.128906 C 76.769531 6.128906 77.355469 0.207031 73.527344 0.207031 C 69.71875 0.207031 69.136719 6.128906 72.964844 6.128906 "/>
</g>
</g>
</svg>