<?xml version="1.0" encoding="UTF-8"?><svg xmlns="http://www.w3.org/2000/svg" xmlns:xlink="http://www.w3.org/1999/xlink" viewBox="0 0 210 273.917" width="130.086pt" height="169.6798422pt" version="1.2">
<defs>
<clipPath id="clip1">
  <path d="M 32 16 L 35 16 L 35 273.835938 L 32 273.835938 Z "/>
</clipPath>
<clipPath id="clip2">
  <path d="M 176 19 L 178 19 L 178 273.835938 L 176 273.835938 Z "/>
</clipPath>
<clipPath id="clip3">
  <path d="M 25 237 L 70 237 L 70 273.835938 L 25 273.835938 Z "/>
</clipPath>
<clipPath id="clip4">
  <path d="M 141 237 L 186 237 L 186 273.835938 L 141 273.835938 Z "/>
</clipPath>
<clipPath id="clip5">
  <path d="M 0.03125 272 L 71 272 L 71 273.835938 L 0.03125 273.835938 Z "/>
</clipPath>
<clipPath id="clip6">
  <path d="M 136 272 L 209.96875 272 L 209.96875 273.835938 L 136 273.835938 Z "/>
</clipPath>
</defs>
<g id="surface1">
<path style="fill:none;stroke-width:1.5;stroke-linecap:butt;stroke-linejoin:miter;stroke:rgb(13.729858%,12.159729%,12.548828%);stroke-opacity:1;stroke-miterlimit:4;" d="M -0.00158621 0.000860125 C -0.34544 9.984353 32.531706 18.983173 71.652932 18.983173 C 111.004696 18.983173 142.947966 9.871037 143.315265 -0.174974 " transform="matrix(0.999697,0,0,-0.999697,33.700804,19.727422)"/>
<g clip-path="url(#clip1)" clip-rule="nonzero">
<path style="fill:none;stroke-width:1.5;stroke-linecap:butt;stroke-linejoin:miter;stroke:rgb(13.729858%,12.159729%,12.548828%);stroke-opacity:1;stroke-miterlimit:4;" d="M -0.000608507 0.00193641 L -0.000608507 -256.001393 " transform="matrix(0.999697,0,0,-0.999697,33.688108,17.744123)"/>
</g>
<g clip-path="url(#clip2)" clip-rule="nonzero">
<path style="fill:none;stroke-width:1.5;stroke-linecap:butt;stroke-linejoin:miter;stroke:rgb(13.729858%,12.159729%,12.548828%);stroke-opacity:1;stroke-miterlimit:4;" d="M -0.00162777 -0.0012089 L -0.00162777 -252.999722 " transform="matrix(0.999697,0,0,-0.999697,176.97819,20.076916)"/>
</g>
<path style="fill:none;stroke-width:1.5;stroke-linecap:butt;stroke-linejoin:miter;stroke:rgb(13.729858%,12.159729%,12.548828%);stroke-opacity:1;stroke-miterlimit:4;" d="M -0.0016102 -0.00191925 C -0.0016102 -7.179875 -6.042503 -13.001951 -13.501793 -13.001951 C -20.957177 -13.001951 -26.998069 -7.179875 -26.998069 -0.00191925 C -26.998069 7.179944 -20.957177 12.998112 -13.501793 12.998112 C -6.042503 12.998112 -0.0016102 7.179944 -0.0016102 -0.00191925 Z " transform="matrix(0.999697,0,0,-0.999697,61.013328,51.400425)"/>
<path style="fill:none;stroke-width:1.5;stroke-linecap:butt;stroke-linejoin:miter;stroke:rgb(13.729858%,12.159729%,12.548828%);stroke-opacity:1;stroke-miterlimit:4;" d="M 0.0000317158 0.00147731 C 0.0000317158 -7.180386 -6.044768 -12.998554 -13.500152 -12.998554 C -20.955535 -12.998554 -27.000335 -7.180386 -27.000335 0.00147731 C -27.000335 7.179433 -20.955535 13.001509 -13.500152 13.001509 C -6.044768 13.001509 0.0000317158 7.179433 0.0000317158 0.00147731 Z " transform="matrix(0.999697,0,0,-0.999697,117.996062,14.411633)"/>
<path style="fill:none;stroke-width:1.5;stroke-linecap:butt;stroke-linejoin:miter;stroke:rgb(13.729858%,12.159729%,12.548828%);stroke-opacity:1;stroke-miterlimit:4;" d="M -0.00162777 0.00168517 C -0.00162777 -7.180178 -6.04252 -12.998347 -13.501811 -12.998347 C -20.957194 -12.998347 -26.998087 -7.180178 -26.998087 0.00168517 C -26.998087 7.179641 -20.957194 13.001717 -13.501811 13.001717 C -6.04252 13.001717 -0.00162777 7.179641 -0.00162777 0.00168517 Z " transform="matrix(0.999697,0,0,-0.999697,176.97819,52.400122)"/>
<path style="fill:none;stroke-width:1.5;stroke-linecap:butt;stroke-linejoin:miter;stroke:rgb(13.729858%,12.159729%,12.548828%);stroke-opacity:1;stroke-miterlimit:4;" d="M -0.0016102 0.00192475 C -0.0016102 -7.179938 -6.042503 -12.998107 -13.501793 -12.998107 C -20.957177 -12.998107 -26.998069 -7.179938 -26.998069 0.00192475 C -26.998069 7.17988 -20.957177 12.998049 -13.501793 12.998049 C -6.042503 12.998049 -0.0016102 7.17988 -0.0016102 0.00192475 Z " transform="matrix(0.999697,0,0,-0.999697,61.013328,77.392549)"/>
<path style="fill:none;stroke-width:1.5;stroke-linecap:butt;stroke-linejoin:miter;stroke:rgb(13.729858%,12.159729%,12.548828%);stroke-opacity:1;stroke-miterlimit:4;" d="M -0.0016102 0.00186132 C -0.0016102 -7.180002 -6.042503 -12.99817 -13.501793 -12.99817 C -20.957177 -12.99817 -26.998069 -7.180002 -26.998069 0.00186132 C -26.998069 7.179817 -20.957177 13.001893 -13.501793 13.001893 C -6.042503 13.001893 -0.0016102 7.179817 -0.0016102 0.00186132 Z " transform="matrix(0.999697,0,0,-0.999697,61.013328,103.384673)"/>
<path style="fill:none;stroke-width:1.5;stroke-linecap:butt;stroke-linejoin:miter;stroke:rgb(13.729858%,12.159729%,12.548828%);stroke-opacity:1;stroke-miterlimit:4;" d="M -0.0016102 0.00179789 C -0.0016102 -7.180065 -6.042503 -12.998234 -13.501793 -12.998234 C -20.957177 -12.998234 -26.998069 -7.180065 -26.998069 0.00179789 C -26.998069 7.179753 -20.957177 13.00183 -13.501793 13.00183 C -6.042503 13.00183 -0.0016102 7.179753 -0.0016102 0.00179789 Z " transform="matrix(0.999697,0,0,-0.999697,61.013328,129.376797)"/>
<path style="fill:none;stroke-width:1.5;stroke-linecap:butt;stroke-linejoin:miter;stroke:rgb(13.729858%,12.159729%,12.548828%);stroke-opacity:1;stroke-miterlimit:4;" d="M -0.0016102 0.00173446 C -0.0016102 -7.180129 -6.042503 -12.998297 -13.501793 -12.998297 C -20.957177 -12.998297 -26.998069 -7.180129 -26.998069 0.00173446 C -26.998069 7.17969 -20.957177 13.001766 -13.501793 13.001766 C -6.042503 13.001766 -0.0016102 7.17969 -0.0016102 0.00173446 Z " transform="matrix(0.999697,0,0,-0.999697,61.013328,155.368921)"/>
<path style="fill:none;stroke-width:1.5;stroke-linecap:butt;stroke-linejoin:miter;stroke:rgb(13.729858%,12.159729%,12.548828%);stroke-opacity:1;stroke-miterlimit:4;" d="M -0.0016102 0.00167102 C -0.0016102 -7.180192 -6.042503 -12.998361 -13.501793 -12.998361 C -20.957177 -12.998361 -26.998069 -7.180192 -26.998069 0.00167102 C -26.998069 7.179627 -20.957177 13.001703 -13.501793 13.001703 C -6.042503 13.001703 -0.0016102 7.179627 -0.0016102 0.00167102 Z " transform="matrix(0.999697,0,0,-0.999697,61.013328,181.361046)"/>
<path style="fill:none;stroke-width:1.5;stroke-linecap:butt;stroke-linejoin:miter;stroke:rgb(13.729858%,12.159729%,12.548828%);stroke-opacity:1;stroke-miterlimit:4;" d="M -0.0016102 0.00160759 C -0.0016102 -7.180255 -6.042503 -12.998424 -13.501793 -12.998424 C -20.957177 -12.998424 -26.998069 -7.180255 -26.998069 0.00160759 C -26.998069 7.179563 -20.957177 13.001639 -13.501793 13.001639 C -6.042503 13.001639 -0.0016102 7.179563 -0.0016102 0.00160759 Z " transform="matrix(0.999697,0,0,-0.999697,61.013328,207.35317)"/>
<path style="fill:none;stroke-width:1.5;stroke-linecap:butt;stroke-linejoin:miter;stroke:rgb(13.729858%,12.159729%,12.548828%);stroke-opacity:1;stroke-miterlimit:4;" d="M -0.0016102 0.00154416 C -0.0016102 -7.180319 -6.042503 -12.998488 -13.501793 -12.998488 C -20.957177 -12.998488 -26.998069 -7.180319 -26.998069 0.00154416 C -26.998069 7.1795 -20.957177 13.001576 -13.501793 13.001576 C -6.042503 13.001576 -0.0016102 7.1795 -0.0016102 0.00154416 Z " transform="matrix(0.999697,0,0,-0.999697,61.013328,233.345294)"/>
<g clip-path="url(#clip3)" clip-rule="nonzero">
<path style="fill:none;stroke-width:1.5;stroke-linecap:butt;stroke-linejoin:miter;stroke:rgb(13.729858%,12.159729%,12.548828%);stroke-opacity:1;stroke-miterlimit:4;" d="M -0.0016102 0.00148073 C -0.0016102 -7.180382 -6.042503 -12.998551 -13.501793 -12.998551 C -20.957177 -12.998551 -26.998069 -7.180382 -26.998069 0.00148073 C -26.998069 7.179436 -20.957177 13.001512 -13.501793 13.001512 C -6.042503 13.001512 -0.0016102 7.179436 -0.0016102 0.00148073 Z " transform="matrix(0.999697,0,0,-0.999697,61.013328,259.337418)"/>
</g>
<g clip-path="url(#clip4)" clip-rule="nonzero">
<path style="fill:none;stroke-width:1.5;stroke-linecap:butt;stroke-linejoin:miter;stroke:rgb(13.729858%,12.159729%,12.548828%);stroke-opacity:1;stroke-miterlimit:4;" d="M -0.00162777 0.00148073 C -0.00162777 -7.180382 -6.04252 -12.998551 -13.501811 -12.998551 C -20.957194 -12.998551 -26.998087 -7.180382 -26.998087 0.00148073 C -26.998087 7.179436 -20.957194 13.001512 -13.501811 13.001512 C -6.04252 13.001512 -0.00162777 7.179436 -0.00162777 0.00148073 Z " transform="matrix(0.999697,0,0,-0.999697,176.97819,259.337418)"/>
</g>
<path style=" stroke:none;fill-rule:nonzero;fill:rgb(13.729858%,12.159729%,12.548828%);fill-opacity:1;" d="M 104.289062 16.640625 C 107.15625 16.640625 107.59375 12.183594 104.710938 12.183594 C 101.847656 12.183594 101.40625 16.640625 104.289062 16.640625 "/>
<g clip-path="url(#clip5)" clip-rule="nonzero">
<path style="fill:none;stroke-width:1;stroke-linecap:butt;stroke-linejoin:miter;stroke:rgb(13.729858%,12.159729%,12.548828%);stroke-opacity:1;stroke-miterlimit:4;" d="M -0.000556738 -0.00176143 L 70.001117 -0.00176143 " transform="matrix(0.999697,0,0,-0.999697,0.0318066,273.334177)"/>
</g>
<g clip-path="url(#clip6)" clip-rule="nonzero">
<path style="fill:none;stroke-width:1;stroke-linecap:butt;stroke-linejoin:miter;stroke:rgb(13.729858%,12.159729%,12.548828%);stroke-opacity:1;stroke-miterlimit:4;" d="M 0.0018815 -0.00176143 L 73.000557 -0.00176143 " transform="matrix(0.999697,0,0,-0.999697,136.990307,273.334177)"/>
</g>
</g>
</svg>