<?xml version="1.0" encoding="UTF-8"?><svg xmlns="http://www.w3.org/2000/svg" xmlns:xlink="http://www.w3.org/1999/xlink" viewBox="0 0 228.0542 87.2207" width="130.086pt" height="49.75217286153906pt" version="1.2">
<defs>
<clipPath id="clip1">
  <path d="M 0.542969 0 L 226.574219 0 L 226.574219 86.449219 L 0.542969 86.449219 Z "/>
</clipPath>
<clipPath id="clip2">
  <path d="M 0.542969 0 L 226.574219 0 L 226.574219 86.449219 L 0.542969 86.449219 Z "/>
</clipPath>
<clipPath id="clip3">
  <path d="M 24 0 L 48 0 L 48 86.449219 L 24 86.449219 Z "/>
</clipPath>
<clipPath id="clip4">
  <path d="M 45 0 L 68 0 L 68 86.449219 L 45 86.449219 Z "/>
</clipPath>
<clipPath id="clip5">
  <path d="M 68 0 L 91 0 L 91 86.449219 L 68 86.449219 Z "/>
</clipPath>
<clipPath id="clip6">
  <path d="M 90 0 L 114 0 L 114 86.449219 L 90 86.449219 Z "/>
</clipPath>
<clipPath id="clip7">
  <path d="M 111 0 L 135 0 L 135 86.449219 L 111 86.449219 Z "/>
</clipPath>
<clipPath id="clip8">
  <path d="M 135 0 L 159 0 L 159 86.449219 L 135 86.449219 Z "/>
</clipPath>
<clipPath id="clip9">
  <path d="M 160 0 L 183 0 L 183 86.449219 L 160 86.449219 Z "/>
</clipPath>
<clipPath id="clip10">
  <path d="M 183 0 L 206 0 L 206 86.449219 L 183 86.449219 Z "/>
</clipPath>
</defs>
<g id="surface1">
<g clip-path="url(#clip1)" clip-rule="nonzero">
<path style="fill:none;stroke-width:100;stroke-linecap:butt;stroke-linejoin:miter;stroke:rgb(13.729858%,12.159729%,12.548828%);stroke-opacity:1;stroke-dasharray:3,20;stroke-miterlimit:4;" d="M 143.999085 -670.221825 C 143.999085 -670.221825 354.665461 -670.221825 354.665461 -670.221825 " transform="matrix(0.991144,0,0,0.991144,-132.700437,580.552179)"/>
</g>
<path style=" stroke:none;fill-rule:nonzero;fill:rgb(100%,100%,100%);fill-opacity:1;" d="M 218.164062 76.167969 C 218.164062 76.167969 10.023438 76.167969 10.023438 76.167969 C 10.023438 76.167969 10.023438 8.769531 10.023438 8.769531 C 10.023438 8.769531 218.164062 8.769531 218.164062 8.769531 C 218.164062 8.769531 218.164062 76.167969 218.164062 76.167969 Z "/>
<g clip-path="url(#clip2)" clip-rule="nonzero">
<path style="fill:none;stroke-width:2;stroke-linecap:butt;stroke-linejoin:miter;stroke:rgb(13.729858%,12.159729%,12.548828%);stroke-opacity:1;stroke-miterlimit:4;" d="M 353.999406 -508.890785 C 353.999406 -508.890785 143.999085 -508.890785 143.999085 -508.890785 C 143.999085 -508.890785 143.999085 -576.891415 143.999085 -576.891415 C 143.999085 -576.891415 353.999406 -576.891415 353.999406 -576.891415 C 353.999406 -576.891415 353.999406 -508.890785 353.999406 -508.890785 Z " transform="matrix(0.991144,0,0,0.991144,-132.700437,580.552179)"/>
</g>
<g clip-path="url(#clip3)" clip-rule="nonzero">
<path style="fill:none;stroke-width:2;stroke-linecap:butt;stroke-linejoin:miter;stroke:rgb(13.729858%,12.159729%,12.548828%);stroke-opacity:1;stroke-miterlimit:4;" d="M 169.998862 -576.891415 C 169.998862 -576.891415 169.998862 -508.890785 169.998862 -508.890785 " transform="matrix(0.991144,0,0,0.991144,-132.700437,580.552179)"/>
</g>
<g clip-path="url(#clip4)" clip-rule="nonzero">
<path style="fill:none;stroke-width:2;stroke-linecap:butt;stroke-linejoin:miter;stroke:rgb(13.729858%,12.159729%,12.548828%);stroke-opacity:1;stroke-miterlimit:4;" d="M 191.001259 -576.891415 C 191.001259 -576.891415 191.001259 -508.890785 191.001259 -508.890785 " transform="matrix(0.991144,0,0,0.991144,-132.700437,580.552179)"/>
</g>
<g clip-path="url(#clip5)" clip-rule="nonzero">
<path style="fill:none;stroke-width:2;stroke-linecap:butt;stroke-linejoin:miter;stroke:rgb(13.729858%,12.159729%,12.548828%);stroke-opacity:1;stroke-miterlimit:4;" d="M 214.001819 -575.890362 C 214.001819 -575.890362 214.001819 -507.889733 214.001819 -507.889733 " transform="matrix(0.991144,0,0,0.991144,-132.700437,580.552179)"/>
</g>
<g clip-path="url(#clip6)" clip-rule="nonzero">
<path style="fill:none;stroke-width:2;stroke-linecap:butt;stroke-linejoin:miter;stroke:rgb(13.729858%,12.159729%,12.548828%);stroke-opacity:1;stroke-miterlimit:4;" d="M 236.998439 -576.891415 C 236.998439 -576.891415 236.998439 -508.890785 236.998439 -508.890785 " transform="matrix(0.991144,0,0,0.991144,-132.700437,580.552179)"/>
</g>
<g clip-path="url(#clip7)" clip-rule="nonzero">
<path style="fill:none;stroke-width:2;stroke-linecap:butt;stroke-linejoin:miter;stroke:rgb(13.729858%,12.159729%,12.548828%);stroke-opacity:1;stroke-miterlimit:4;" d="M 258.000836 -576.891415 C 258.000836 -576.891415 258.000836 -508.890785 258.000836 -508.890785 " transform="matrix(0.991144,0,0,0.991144,-132.700437,580.552179)"/>
</g>
<g clip-path="url(#clip8)" clip-rule="nonzero">
<path style="fill:none;stroke-width:2;stroke-linecap:butt;stroke-linejoin:miter;stroke:rgb(13.729858%,12.159729%,12.548828%);stroke-opacity:1;stroke-miterlimit:4;" d="M 281.998508 -576.891415 C 281.998508 -576.891415 281.998508 -508.890785 281.998508 -508.890785 " transform="matrix(0.991144,0,0,0.991144,-132.700437,580.552179)"/>
</g>
<g clip-path="url(#clip9)" clip-rule="nonzero">
<path style="fill:none;stroke-width:2;stroke-linecap:butt;stroke-linejoin:miter;stroke:rgb(13.729858%,12.159729%,12.548828%);stroke-opacity:1;stroke-miterlimit:4;" d="M 307.001173 -576.891415 C 307.001173 -576.891415 307.001173 -508.890785 307.001173 -508.890785 " transform="matrix(0.991144,0,0,0.991144,-132.700437,580.552179)"/>
</g>
<g clip-path="url(#clip10)" clip-rule="nonzero">
<path style="fill:none;stroke-width:2;stroke-linecap:butt;stroke-linejoin:miter;stroke:rgb(13.729858%,12.159729%,12.548828%);stroke-opacity:1;stroke-miterlimit:4;" d="M 330.001734 -576.891415 C 330.001734 -576.891415 330.001734 -508.890785 330.001734 -508.890785 " transform="matrix(0.991144,0,0,0.991144,-132.700437,580.552179)"/>
</g>
</g>
</svg>