<?xml version="1.0" encoding="UTF-8"?><svg xmlns="http://www.w3.org/2000/svg" xmlns:xlink="http://www.w3.org/1999/xlink" viewBox="0 0 550.53087 81.6194" width="238.491pt" height="35.35767635591443pt" version="1.2">
<defs>
<clipPath id="clip1">
  <path d="M 1.042969 19 L 37 19 L 37 60 L 1.042969 60 Z "/>
</clipPath>
<clipPath id="clip2">
  <path d="M 316 0 L 340 0 L 340 81.242188 L 316 81.242188 Z "/>
</clipPath>
<clipPath id="clip3">
  <path d="M 527 28 L 549.019531 28 L 549.019531 52 L 527 52 Z "/>
</clipPath>
<clipPath id="clip4">
  <path d="M 508 22 L 549.019531 22 L 549.019531 58 L 508 58 Z "/>
</clipPath>
<clipPath id="clip5">
  <path d="M 174 0 L 197 0 L 197 81.242188 L 174 81.242188 Z "/>
</clipPath>
</defs>
<g id="surface1">
<g clip-path="url(#clip1)" clip-rule="nonzero">
<path style="fill:none;stroke-width:2;stroke-linecap:butt;stroke-linejoin:miter;stroke:rgb(13.729858%,12.159729%,12.548828%);stroke-opacity:1;stroke-miterlimit:4;" d="M 38.702524 -658.889756 C 38.702524 -653.819347 34.589684 -649.706507 29.519275 -649.706507 C 24.444942 -649.706507 20.332102 -653.819347 20.332102 -658.889756 C 20.332102 -663.96409 24.444942 -668.073005 29.519275 -668.073005 C 34.589684 -668.073005 38.702524 -663.96409 38.702524 -658.889756 Z " transform="matrix(0.995359,0,0,0.995359,-13.292419,695.323731)"/>
</g>
<path style="fill:none;stroke-width:2;stroke-linecap:butt;stroke-linejoin:miter;stroke:rgb(13.729858%,12.159729%,12.548828%);stroke-opacity:1;stroke-miterlimit:4;" d="M 57.70086 -658.556177 C 57.70086 -653.485768 53.588021 -649.372928 48.517612 -649.372928 C 43.447202 -649.372928 39.334363 -653.485768 39.334363 -658.556177 C 39.334363 -663.63051 43.447202 -667.739425 48.517612 -667.739425 C 53.588021 -667.739425 57.70086 -663.63051 57.70086 -658.556177 Z " transform="matrix(0.995359,0,0,0.995359,-13.292419,695.323731)"/>
<path style="fill:none;stroke-width:2;stroke-linecap:butt;stroke-linejoin:miter;stroke:rgb(13.729858%,12.159729%,12.548828%);stroke-opacity:1;stroke-miterlimit:4;" d="M 76.883646 -658.556177 C 76.883646 -653.485768 72.774731 -649.372928 67.700398 -649.372928 C 62.629989 -649.372928 58.517149 -653.485768 58.517149 -658.556177 C 58.517149 -663.63051 62.629989 -667.74335 67.700398 -667.74335 C 72.774731 -667.74335 76.883646 -663.63051 76.883646 -658.556177 Z " transform="matrix(0.995359,0,0,0.995359,-13.292419,695.323731)"/>
<path style="fill:none;stroke-width:2;stroke-linecap:butt;stroke-linejoin:miter;stroke:rgb(13.729858%,12.159729%,12.548828%);stroke-opacity:1;stroke-miterlimit:4;" d="M 95.367878 -658.556177 C 95.367878 -653.485768 91.255038 -649.372928 86.184629 -649.372928 C 81.11422 -649.372928 77.00138 -653.485768 77.00138 -658.556177 C 77.00138 -663.63051 81.11422 -667.74335 86.184629 -667.74335 C 91.255038 -667.74335 95.367878 -663.63051 95.367878 -658.556177 Z " transform="matrix(0.995359,0,0,0.995359,-13.292419,695.323731)"/>
<path style="fill:none;stroke-width:2;stroke-linecap:butt;stroke-linejoin:miter;stroke:rgb(13.729858%,12.159729%,12.548828%);stroke-opacity:1;stroke-miterlimit:4;" d="M 96.517746 -675.223381 C 96.517746 -675.223381 96.517746 -647.555901 96.517746 -647.555901 " transform="matrix(0.995359,0,0,0.995359,-13.292419,695.323731)"/>
<path style="fill:none;stroke-width:2;stroke-linecap:butt;stroke-linejoin:miter;stroke:rgb(13.729858%,12.159729%,12.548828%);stroke-opacity:1;stroke-miterlimit:4;" d="M 116.183242 -658.889756 C 116.183242 -653.819347 112.074326 -649.706507 106.999993 -649.706507 C 101.929584 -649.706507 97.816744 -653.819347 97.816744 -658.889756 C 97.816744 -663.96409 101.929584 -668.073005 106.999993 -668.073005 C 112.074326 -668.073005 116.183242 -663.96409 116.183242 -658.889756 Z " transform="matrix(0.995359,0,0,0.995359,-13.292419,695.323731)"/>
<path style="fill:none;stroke-width:2;stroke-linecap:butt;stroke-linejoin:miter;stroke:rgb(13.729858%,12.159729%,12.548828%);stroke-opacity:1;stroke-miterlimit:4;" d="M 135.185502 -658.556177 C 135.185502 -653.485768 131.072663 -649.372928 126.002254 -649.372928 C 120.92792 -649.372928 116.819005 -653.485768 116.819005 -658.556177 C 116.819005 -663.63051 120.92792 -667.739425 126.002254 -667.739425 C 131.072663 -667.739425 135.185502 -663.63051 135.185502 -658.556177 Z " transform="matrix(0.995359,0,0,0.995359,-13.292419,695.323731)"/>
<path style="fill:none;stroke-width:2;stroke-linecap:butt;stroke-linejoin:miter;stroke:rgb(13.729858%,12.159729%,12.548828%);stroke-opacity:1;stroke-miterlimit:4;" d="M 154.368289 -658.556177 C 154.368289 -653.485768 150.255449 -649.372928 145.18504 -649.372928 C 140.110706 -649.372928 136.001791 -653.485768 136.001791 -658.556177 C 136.001791 -663.63051 140.110706 -667.739425 145.18504 -667.739425 C 150.255449 -667.739425 154.368289 -663.63051 154.368289 -658.556177 Z " transform="matrix(0.995359,0,0,0.995359,-13.292419,695.323731)"/>
<path style="fill:none;stroke-width:2;stroke-linecap:butt;stroke-linejoin:miter;stroke:rgb(13.729858%,12.159729%,12.548828%);stroke-opacity:1;stroke-miterlimit:4;" d="M 172.85252 -658.556177 C 172.85252 -653.485768 168.73968 -649.372928 163.669271 -649.372928 C 158.594938 -649.372928 154.486023 -653.485768 154.486023 -658.556177 C 154.486023 -663.63051 158.594938 -667.739425 163.669271 -667.739425 C 168.73968 -667.739425 172.85252 -663.63051 172.85252 -658.556177 Z " transform="matrix(0.995359,0,0,0.995359,-13.292419,695.323731)"/>
<path style="fill:none;stroke-width:2;stroke-linecap:butt;stroke-linejoin:miter;stroke:rgb(13.729858%,12.159729%,12.548828%);stroke-opacity:1;stroke-miterlimit:4;" d="M 294.793505 -658.556177 C 294.793505 -653.485768 290.680665 -649.372928 285.610256 -649.372928 C 280.535922 -649.372928 276.423083 -653.485768 276.423083 -658.556177 C 276.423083 -663.63051 280.535922 -667.739425 285.610256 -667.739425 C 290.680665 -667.739425 294.793505 -663.63051 294.793505 -658.556177 Z " transform="matrix(0.995359,0,0,0.995359,-13.292419,695.323731)"/>
<path style="fill:none;stroke-width:2;stroke-linecap:butt;stroke-linejoin:miter;stroke:rgb(13.729858%,12.159729%,12.548828%);stroke-opacity:1;stroke-miterlimit:4;" d="M 313.791841 -658.222597 C 313.791841 -653.152188 309.679001 -649.039348 304.608592 -649.039348 C 299.534259 -649.039348 295.425344 -653.152188 295.425344 -658.222597 C 295.425344 -663.296931 299.534259 -667.405846 304.608592 -667.405846 C 309.679001 -667.405846 313.791841 -663.296931 313.791841 -658.222597 Z " transform="matrix(0.995359,0,0,0.995359,-13.292419,695.323731)"/>
<path style="fill:none;stroke-width:2;stroke-linecap:butt;stroke-linejoin:miter;stroke:rgb(13.729858%,12.159729%,12.548828%);stroke-opacity:1;stroke-miterlimit:4;" d="M 219.459469 -658.889756 C 219.459469 -653.819347 215.350554 -649.706507 210.276221 -649.706507 C 205.205812 -649.706507 201.092972 -653.819347 201.092972 -658.889756 C 201.092972 -663.96409 205.205812 -668.073005 210.276221 -668.073005 C 215.350554 -668.073005 219.459469 -663.96409 219.459469 -658.889756 Z " transform="matrix(0.995359,0,0,0.995359,-13.292419,695.323731)"/>
<path style="fill:none;stroke-width:2;stroke-linecap:butt;stroke-linejoin:miter;stroke:rgb(13.729858%,12.159729%,12.548828%);stroke-opacity:1;stroke-miterlimit:4;" d="M 238.46173 -658.556177 C 238.46173 -653.485768 234.348891 -649.372928 229.274557 -649.372928 C 224.204148 -649.372928 220.091308 -653.485768 220.091308 -658.556177 C 220.091308 -663.63051 224.204148 -667.739425 229.274557 -667.739425 C 234.348891 -667.739425 238.46173 -663.63051 238.46173 -658.556177 Z " transform="matrix(0.995359,0,0,0.995359,-13.292419,695.323731)"/>
<path style="fill:none;stroke-width:2;stroke-linecap:butt;stroke-linejoin:miter;stroke:rgb(13.729858%,12.159729%,12.548828%);stroke-opacity:1;stroke-miterlimit:4;" d="M 257.644516 -658.556177 C 257.644516 -653.485768 253.531677 -649.372928 248.461268 -649.372928 C 243.386934 -649.372928 239.278019 -653.485768 239.278019 -658.556177 C 239.278019 -663.63051 243.386934 -667.739425 248.461268 -667.739425 C 253.531677 -667.739425 257.644516 -663.63051 257.644516 -658.556177 Z " transform="matrix(0.995359,0,0,0.995359,-13.292419,695.323731)"/>
<path style="fill:none;stroke-width:2;stroke-linecap:butt;stroke-linejoin:miter;stroke:rgb(13.729858%,12.159729%,12.548828%);stroke-opacity:1;stroke-miterlimit:4;" d="M 276.128748 -658.556177 C 276.128748 -653.485768 272.015908 -649.372928 266.941575 -649.372928 C 261.871166 -649.372928 257.758326 -653.485768 257.758326 -658.556177 C 257.758326 -663.63051 261.871166 -667.739425 266.941575 -667.739425 C 272.015908 -667.739425 276.128748 -663.63051 276.128748 -658.556177 Z " transform="matrix(0.995359,0,0,0.995359,-13.292419,695.323731)"/>
<g clip-path="url(#clip2)" clip-rule="nonzero">
<path style="fill:none;stroke-width:2;stroke-linecap:butt;stroke-linejoin:miter;stroke:rgb(13.729858%,12.159729%,12.548828%);stroke-opacity:1;stroke-miterlimit:4;" d="M 342.793639 -695.222456 C 342.793639 -695.222456 342.793639 -621.556318 342.793639 -621.556318 " transform="matrix(0.995359,0,0,0.995359,-13.292419,695.323731)"/>
</g>
<path style="fill:none;stroke-width:2;stroke-linecap:butt;stroke-linejoin:miter;stroke:rgb(13.729858%,12.159729%,12.548828%);stroke-opacity:1;stroke-miterlimit:4;" d="M 393.124906 -658.556177 C 393.124906 -653.485768 389.012067 -649.372928 383.941657 -649.372928 C 378.867324 -649.372928 374.758409 -653.485768 374.758409 -658.556177 C 374.758409 -663.63051 378.867324 -667.739425 383.941657 -667.739425 C 389.012067 -667.739425 393.124906 -663.63051 393.124906 -658.556177 Z " transform="matrix(0.995359,0,0,0.995359,-13.292419,695.323731)"/>
<path style="fill:none;stroke-width:2;stroke-linecap:butt;stroke-linejoin:miter;stroke:rgb(13.729858%,12.159729%,12.548828%);stroke-opacity:1;stroke-miterlimit:4;" d="M 457.792245 -658.222597 C 457.792245 -653.152188 453.679405 -649.039348 448.608996 -649.039348 C 443.534662 -649.039348 439.425747 -653.152188 439.425747 -658.222597 C 439.425747 -663.296931 443.534662 -667.405846 448.608996 -667.405846 C 453.679405 -667.405846 457.792245 -663.296931 457.792245 -658.222597 Z " transform="matrix(0.995359,0,0,0.995359,-13.292419,695.323731)"/>
<path style="fill:none;stroke-width:2;stroke-linecap:butt;stroke-linejoin:miter;stroke:rgb(13.729858%,12.159729%,12.548828%);stroke-opacity:1;stroke-miterlimit:4;" d="M 362.274685 -652.390842 C 362.274685 -652.390842 343.774756 -652.390842 343.774756 -652.390842 C 343.774756 -652.390842 343.774756 -664.387932 343.774756 -664.387932 C 343.774756 -664.387932 362.274685 -664.387932 362.274685 -664.387932 C 362.274685 -664.387932 362.274685 -652.390842 362.274685 -652.390842 Z " transform="matrix(0.995359,0,0,0.995359,-13.292419,695.323731)"/>
<g clip-path="url(#clip3)" clip-rule="nonzero">
<path style="fill:none;stroke-width:2;stroke-linecap:butt;stroke-linejoin:miter;stroke:rgb(13.729858%,12.159729%,12.548828%);stroke-opacity:1;stroke-miterlimit:4;" d="M 554.608803 -658.391349 C 554.608803 -658.391349 562.277208 -658.391349 562.277208 -658.391349 " transform="matrix(0.995359,0,0,0.995359,-13.292419,695.323731)"/>
</g>
<path style="fill:none;stroke-width:2;stroke-linecap:butt;stroke-linejoin:miter;stroke:rgb(13.729858%,12.159729%,12.548828%);stroke-opacity:1;stroke-miterlimit:4;" d="M 522.126004 -658.391349 C 522.126004 -658.391349 535.276887 -658.391349 535.276887 -658.391349 " transform="matrix(0.995359,0,0,0.995359,-13.292419,695.323731)"/>
<path style="fill:none;stroke-width:2;stroke-linecap:butt;stroke-linejoin:miter;stroke:rgb(13.729858%,12.159729%,12.548828%);stroke-opacity:1;stroke-miterlimit:4;" d="M 491.275782 -658.391349 C 491.275782 -658.391349 503.755582 -658.391349 503.755582 -658.391349 " transform="matrix(0.995359,0,0,0.995359,-13.292419,695.323731)"/>
<path style="fill:none;stroke-width:2;stroke-linecap:butt;stroke-linejoin:miter;stroke:rgb(13.729858%,12.159729%,12.548828%);stroke-opacity:1;stroke-miterlimit:4;" d="M 457.941374 -658.391349 C 457.941374 -658.391349 472.273522 -658.391349 472.273522 -658.391349 " transform="matrix(0.995359,0,0,0.995359,-13.292419,695.323731)"/>
<path style="fill:none;stroke-width:2;stroke-linecap:butt;stroke-linejoin:miter;stroke:rgb(13.729858%,12.159729%,12.548828%);stroke-opacity:1;stroke-miterlimit:4;" d="M 425.274126 -658.391349 C 425.274126 -658.391349 439.425747 -658.391349 439.425747 -658.391349 " transform="matrix(0.995359,0,0,0.995359,-13.292419,695.323731)"/>
<path style="fill:none;stroke-width:2;stroke-linecap:butt;stroke-linejoin:miter;stroke:rgb(13.729858%,12.159729%,12.548828%);stroke-opacity:1;stroke-miterlimit:4;" d="M 393.124906 -658.391349 C 393.124906 -658.391349 406.275789 -658.391349 406.275789 -658.391349 " transform="matrix(0.995359,0,0,0.995359,-13.292419,695.323731)"/>
<path style="fill:none;stroke-width:2;stroke-linecap:butt;stroke-linejoin:miter;stroke:rgb(13.729858%,12.159729%,12.548828%);stroke-opacity:1;stroke-miterlimit:4;" d="M 362.777016 -658.391349 C 362.777016 -658.391349 374.758409 -658.391349 374.758409 -658.391349 " transform="matrix(0.995359,0,0,0.995359,-13.292419,695.323731)"/>
<path style="fill:none;stroke-width:2;stroke-linecap:butt;stroke-linejoin:miter;stroke:rgb(13.729858%,12.159729%,12.548828%);stroke-opacity:1;stroke-miterlimit:4;" d="M 425.191712 -652.555669 C 425.191712 -652.555669 406.691783 -652.555669 406.691783 -652.555669 C 406.691783 -652.555669 406.691783 -664.556684 406.691783 -664.556684 C 406.691783 -664.556684 425.191712 -664.556684 425.191712 -664.556684 C 425.191712 -664.556684 425.191712 -652.555669 425.191712 -652.555669 Z " transform="matrix(0.995359,0,0,0.995359,-13.292419,695.323731)"/>
<path style="fill:none;stroke-width:2;stroke-linecap:butt;stroke-linejoin:miter;stroke:rgb(13.729858%,12.159729%,12.548828%);stroke-opacity:1;stroke-miterlimit:4;" d="M 522.126004 -658.556177 C 522.126004 -653.485768 518.013164 -649.372928 512.942755 -649.372928 C 507.868422 -649.372928 503.755582 -653.485768 503.755582 -658.556177 C 503.755582 -663.63051 507.868422 -667.739425 512.942755 -667.739425 C 518.013164 -667.739425 522.126004 -663.63051 522.126004 -658.556177 Z " transform="matrix(0.995359,0,0,0.995359,-13.292419,695.323731)"/>
<path style="fill:none;stroke-width:2;stroke-linecap:butt;stroke-linejoin:miter;stroke:rgb(13.729858%,12.159729%,12.548828%);stroke-opacity:1;stroke-miterlimit:4;" d="M 491.275782 -652.390842 C 491.275782 -652.390842 472.775853 -652.390842 472.775853 -652.390842 C 472.775853 -652.390842 472.775853 -664.387932 472.775853 -664.387932 C 472.775853 -664.387932 491.275782 -664.387932 491.275782 -664.387932 C 491.275782 -664.387932 491.275782 -652.390842 491.275782 -652.390842 Z " transform="matrix(0.995359,0,0,0.995359,-13.292419,695.323731)"/>
<g clip-path="url(#clip4)" clip-rule="nonzero">
<path style="fill:none;stroke-width:2;stroke-linecap:butt;stroke-linejoin:miter;stroke:rgb(13.729858%,12.159729%,12.548828%);stroke-opacity:1;stroke-miterlimit:4;" d="M 554.192809 -652.555669 C 554.192809 -652.555669 535.69288 -652.555669 535.69288 -652.555669 C 535.69288 -652.555669 535.69288 -664.556684 535.69288 -664.556684 C 535.69288 -664.556684 554.192809 -664.556684 554.192809 -664.556684 C 554.192809 -664.556684 554.192809 -652.555669 554.192809 -652.555669 Z " transform="matrix(0.995359,0,0,0.995359,-13.292419,695.323731)"/>
</g>
<g clip-path="url(#clip5)" clip-rule="nonzero">
<path style="fill:none;stroke-width:2;stroke-linecap:butt;stroke-linejoin:miter;stroke:rgb(13.729858%,12.159729%,12.548828%);stroke-opacity:1;stroke-miterlimit:4;" d="M 199.793974 -694.221717 C 199.793974 -694.221717 199.793974 -620.55558 199.793974 -620.55558 " transform="matrix(0.995359,0,0,0.995359,-13.292419,695.323731)"/>
</g>
</g>
</svg>