<?xml version="1.0" encoding="UTF-8"?><svg xmlns="http://www.w3.org/2000/svg" xmlns:xlink="http://www.w3.org/1999/xlink" viewBox="0 0 293.161 357.85" width="216.81pt" height="264.6513639263067pt" version="1.2">
<defs>
<clipPath id="clip1">
  <path d="M 228 56 L 292.324219 56 L 292.324219 116 L 228 116 Z "/>
</clipPath>
<clipPath id="clip2">
  <path d="M 229 128 L 292.324219 128 L 292.324219 189 L 229 189 Z "/>
</clipPath>
<clipPath id="clip3">
  <path d="M 44 0.4375 L 48 0.4375 L 48 75 L 44 75 Z "/>
</clipPath>
<clipPath id="clip4">
  <path d="M 0 0.4375 L 64 0.4375 L 64 44 L 0 44 Z "/>
</clipPath>
<clipPath id="clip5">
  <path d="M 186 254 L 292.324219 254 L 292.324219 357.265625 L 186 357.265625 Z "/>
</clipPath>
</defs>
<g id="surface1">
<path style="fill:none;stroke-width:3;stroke-linecap:butt;stroke-linejoin:miter;stroke:rgb(13.729858%,12.159729%,12.548828%);stroke-opacity:1;stroke-miterlimit:4;" d="M 0.00134171 0.00151111 L -244.665625 0.00151111 " transform="matrix(0.997146,0,0,-0.997146,245.463506,171.442913)"/>
<path style="fill:none;stroke-width:3;stroke-linecap:butt;stroke-linejoin:miter;stroke:rgb(13.729858%,12.159729%,12.548828%);stroke-opacity:1;stroke-miterlimit:4;" d="M 0.000375434 -0.00112925 L 244.667342 -0.00112925 L 244.667342 -173.331707 " transform="matrix(0.997146,0,0,-0.997146,1.495719,98.319186)"/>
<path style="fill:none;stroke-width:3;stroke-linecap:butt;stroke-linejoin:miter;stroke:rgb(13.729858%,12.159729%,12.548828%);stroke-opacity:1;stroke-miterlimit:4;" d="M 0.000375434 0.000215535 L 0.000375434 218.334222 " transform="matrix(0.997146,0,0,-0.997146,1.495719,244.23459)"/>
<path style="fill:none;stroke-width:3;stroke-linecap:butt;stroke-linejoin:miter;stroke:rgb(13.729858%,12.159729%,12.548828%);stroke-opacity:1;stroke-miterlimit:4;" d="M 0.00133562 -0.000613767 L 244.664384 -0.000613767 L 244.664384 -73.334891 " transform="matrix(0.997146,0,0,-0.997146,46.533824,73.057982)"/>
<path style="fill:none;stroke-width:3;stroke-linecap:butt;stroke-linejoin:miter;stroke:rgb(13.729858%,12.159729%,12.548828%);stroke-opacity:1;stroke-miterlimit:4;" d="M 0.000607668 0.000144842 L 45.693503 25.385087 " transform="matrix(0.997146,0,0,-0.997146,1.233769,97.855613)"/>
<g clip-path="url(#clip1)" clip-rule="nonzero">
<path style="fill:none;stroke-width:3;stroke-linecap:butt;stroke-linejoin:miter;stroke:rgb(13.729858%,12.159729%,12.548828%);stroke-opacity:1;stroke-miterlimit:4;" d="M -0.000875518 -0.00128611 L 45.695938 25.387573 " transform="matrix(0.997146,0,0,-0.997146,245.036029,98.354186)"/>
</g>
<g clip-path="url(#clip2)" clip-rule="nonzero">
<path style="fill:none;stroke-width:3;stroke-linecap:butt;stroke-linejoin:miter;stroke:rgb(13.729858%,12.159729%,12.548828%);stroke-opacity:1;stroke-miterlimit:4;" d="M -0.00193104 0.00133574 L 45.694882 25.386278 " transform="matrix(0.997146,0,0,-0.997146,246.033176,171.145863)"/>
</g>
<path style="fill:none;stroke-width:3;stroke-linecap:butt;stroke-linejoin:miter;stroke:rgb(13.729858%,12.159729%,12.548828%);stroke-opacity:1;stroke-miterlimit:4;" d="M -0.00074014 0.00120036 L 45.696073 25.386142 " transform="matrix(0.997146,0,0,-0.997146,172.742926,98.852759)"/>
<path style="fill:none;stroke-width:3;stroke-linecap:butt;stroke-linejoin:miter;stroke:rgb(13.729858%,12.159729%,12.548828%);stroke-opacity:1;stroke-miterlimit:4;" d="M -0.000972375 0.00083872 L -0.000972375 -73.333438 " transform="matrix(0.997146,0,0,-0.997146,173.004876,98.485211)"/>
<g clip-path="url(#clip3)" clip-rule="nonzero">
<path style="fill:none;stroke-width:3;stroke-linecap:butt;stroke-linejoin:miter;stroke:rgb(13.729858%,12.159729%,12.548828%);stroke-opacity:1;stroke-miterlimit:4;" d="M -0.000113845 0.00180433 L -0.000113845 71.647669 " transform="matrix(0.997146,0,0,-0.997146,46.367301,72.540862)"/>
</g>
<path style="fill:none;stroke-width:3;stroke-linecap:butt;stroke-linejoin:miter;stroke:rgb(13.729858%,12.159729%,12.548828%);stroke-opacity:1;stroke-miterlimit:4;" d="M -0.000113845 -0.00123695 L -0.000113845 47.501511 " transform="matrix(0.997146,0,0,-0.997146,46.367301,218.80736)"/>
<g clip-path="url(#clip4)" clip-rule="nonzero">
<path style="fill:none;stroke-width:3;stroke-linecap:butt;stroke-linejoin:miter;stroke:rgb(13.729858%,12.159729%,12.548828%);stroke-opacity:1;stroke-miterlimit:4;" d="M 0.000607668 -0.000365969 L 45.693503 25.388494 " transform="matrix(0.997146,0,0,-0.997146,1.233769,27.058229)"/>
</g>
<path style="fill:none;stroke-width:3;stroke-linecap:butt;stroke-linejoin:miter;stroke:rgb(13.729858%,12.159729%,12.548828%);stroke-opacity:1;stroke-miterlimit:4;" d="M -0.00187881 -0.00101536 L 45.694934 25.387844 " transform="matrix(0.997146,0,0,-0.997146,1.732342,242.940394)"/>
<g clip-path="url(#clip5)" clip-rule="nonzero">
<path style="fill:none;stroke-width:3;stroke-linecap:butt;stroke-linejoin:miter;stroke:rgb(13.729858%,12.159729%,12.548828%);stroke-opacity:1;stroke-miterlimit:4;" d="M 0.000619663 -0.000866188 C 0.000619663 -23.481938 -19.034169 -42.520644 -42.519158 -42.520644 C -66.00023 -42.520644 -85.038936 -23.481938 -85.038936 -0.000866188 C -85.038936 23.484123 -66.00023 42.518912 -42.519158 42.518912 C -19.034169 42.518912 0.000619663 23.484123 0.000619663 -0.000866188 Z " transform="matrix(0.997146,0,0,-0.997146,287.862663,313.37023)"/>
</g>
</g>
</svg>