<?xml version="1.0" encoding="UTF-8"?><svg xmlns="http://www.w3.org/2000/svg" xmlns:xlink="http://www.w3.org/1999/xlink" viewBox="0 0 296.667 86.02" width="164.7756pt" height="47.777464672511606pt" version="1.2">
<defs>
<clipPath id="clip1">
  <path d="M 15 0 L 103 0 L 103 85.050781 L 15 85.050781 Z "/>
</clipPath>
<clipPath id="clip2">
  <path d="M 1.507812 70 L 294.832031 70 L 294.832031 85.050781 L 1.507812 85.050781 Z "/>
</clipPath>
<clipPath id="clip3">
  <path d="M 83 57 L 195 57 L 195 85.050781 L 83 85.050781 Z "/>
</clipPath>
<clipPath id="clip4">
  <path d="M 167 41 L 294.832031 41 L 294.832031 85.050781 L 167 85.050781 Z "/>
</clipPath>
</defs>
<g id="surface1">
<g clip-path="url(#clip1)" clip-rule="nonzero">
<path style="fill:none;stroke-width:1.5;stroke-linecap:butt;stroke-linejoin:miter;stroke:rgb(13.729858%,12.159729%,12.548828%);stroke-opacity:1;stroke-miterlimit:4;" d="M 269.488233 -311.939918 C 269.488233 -291.862193 253.661518 -275.585092 234.140849 -275.585092 C 214.616229 -275.585092 198.789513 -291.862193 198.789513 -311.939918 C 198.789513 -332.025545 214.616229 -348.302647 234.140849 -348.302647 C 253.661518 -348.302647 269.488233 -332.025545 269.488233 -311.939918 Z " transform="matrix(0.988736,0,0,0.988736,-172.511213,349.586269)"/>
</g>
<path style="fill:none;stroke-width:1.5;stroke-linecap:butt;stroke-linejoin:miter;stroke:rgb(13.729858%,12.159729%,12.548828%);stroke-opacity:1;stroke-miterlimit:4;" d="M 350.000623 -313.567629 C 350.000623 -293.687441 334.331938 -277.56837 315.000905 -277.56837 C 295.669872 -277.56837 280.001186 -293.687441 280.001186 -313.567629 C 280.001186 -333.451767 295.669872 -349.570838 315.000905 -349.570838 C 334.331938 -349.570838 350.000623 -333.451767 350.000623 -313.567629 Z " transform="matrix(0.988736,0,0,0.988736,-172.511213,349.586269)"/>
<path style="fill:none;stroke-width:1.5;stroke-linecap:butt;stroke-linejoin:miter;stroke:rgb(13.729858%,12.159729%,12.548828%);stroke-opacity:1;stroke-miterlimit:4;" d="M 449.085502 -313.567629 C 449.085502 -293.687441 433.412866 -277.56837 414.081833 -277.56837 C 394.75475 -277.56837 379.082114 -293.687441 379.082114 -313.567629 C 379.082114 -333.451767 394.75475 -349.570838 414.081833 -349.570838 C 433.412866 -349.570838 449.085502 -333.451767 449.085502 -313.567629 Z " transform="matrix(0.988736,0,0,0.988736,-172.511213,349.586269)"/>
<g clip-path="url(#clip2)" clip-rule="nonzero">
<path style="fill:none;stroke-width:1.5;stroke-linecap:butt;stroke-linejoin:miter;stroke:rgb(13.729858%,12.159729%,12.548828%);stroke-opacity:1;stroke-miterlimit:4;" d="M 179.999733 -274.111461 C 179.999733 -274.111461 468.665432 -274.111461 468.665432 -274.111461 " transform="matrix(0.988736,0,0,0.988736,-172.511213,349.586269)"/>
</g>
<path style="fill-rule:nonzero;fill:rgb(13.729858%,12.159729%,12.548828%);fill-opacity:1;stroke-width:1;stroke-linecap:butt;stroke-linejoin:miter;stroke:rgb(13.729858%,12.159729%,12.548828%);stroke-opacity:1;stroke-miterlimit:4;" d="M 236.444138 -312.022884 C 236.444138 -310.750742 235.377434 -309.719595 234.061834 -309.719595 C 232.746233 -309.719595 231.683481 -310.750742 231.683481 -312.022884 C 231.683481 -313.291076 232.746233 -314.322222 234.061834 -314.322222 C 235.377434 -314.322222 236.444138 -313.291076 236.444138 -312.022884 Z " transform="matrix(0.988736,0,0,0.988736,-172.511213,349.586269)"/>
<g clip-path="url(#clip3)" clip-rule="nonzero">
<path style="fill:none;stroke-width:3.5;stroke-linecap:butt;stroke-linejoin:miter;stroke:rgb(13.729858%,12.159729%,12.548828%);stroke-opacity:1;stroke-miterlimit:4;" d="M 279.001646 -275.549535 C 279.001646 -275.549535 351.000164 -275.549535 351.000164 -275.549535 " transform="matrix(0.988736,0,0,0.988736,-172.511213,349.586269)"/>
</g>
<g clip-path="url(#clip4)" clip-rule="nonzero">
<path style="fill:none;stroke-width:6;stroke-linecap:butt;stroke-linejoin:miter;stroke:rgb(13.729858%,12.159729%,12.548828%);stroke-opacity:1;stroke-miterlimit:4;" d="M 377.999608 -277.706646 C 377.999608 -277.706646 449.998126 -277.706646 449.998126 -277.706646 " transform="matrix(0.988736,0,0,0.988736,-172.511213,349.586269)"/>
</g>
</g>
</svg>