<?xml version="1.0" encoding="UTF-8"?><svg xmlns="http://www.w3.org/2000/svg" xmlns:xlink="http://www.w3.org/1999/xlink" viewBox="0 0 371.28827 479.3139" width="151.767pt" height="195.9233257255878pt" version="1.2">
<defs>
<clipPath id="clip1">
  <path d="M 103 0.117188 L 197 0.117188 L 197 213 L 103 213 Z "/>
</clipPath>
<clipPath id="clip2">
  <path d="M 129 0.117188 L 223 0.117188 L 223 213 L 129 213 Z "/>
</clipPath>
<clipPath id="clip3">
  <path d="M 154 0.117188 L 248 0.117188 L 248 213 L 154 213 Z "/>
</clipPath>
<clipPath id="clip4">
  <path d="M 179 0.117188 L 273 0.117188 L 273 213 L 179 213 Z "/>
</clipPath>
<clipPath id="clip5">
  <path d="M 69 402 L 169 402 L 169 478.511719 L 69 478.511719 Z "/>
</clipPath>
<clipPath id="clip6">
  <path d="M 23 402 L 77 402 L 77 478.511719 L 23 478.511719 Z "/>
</clipPath>
<clipPath id="clip7">
  <path d="M 327 277 L 370.578125 277 L 370.578125 327 L 327 327 Z "/>
</clipPath>
</defs>
<g id="surface1">
<g clip-path="url(#clip1)" clip-rule="nonzero">
<path style="fill:none;stroke-width:2;stroke-linecap:butt;stroke-linejoin:miter;stroke:rgb(13.729858%,12.159729%,12.548828%);stroke-opacity:1;stroke-miterlimit:4;" d="M 170.785183 -602.771104 C 170.785183 -602.771104 145.639417 -577.527494 145.639417 -577.527494 C 145.639417 -577.527494 145.639417 -702.250496 145.639417 -702.250496 C 145.639417 -702.250496 216.360662 -773.25353 216.360662 -773.25353 C 216.360662 -773.25353 216.360662 -747.223259 216.360662 -747.223259 " transform="matrix(0.998087,0,0,0.998087,-30.349053,777.211601)"/>
</g>
<path style="fill:none;stroke-width:2;stroke-linecap:butt;stroke-linejoin:miter;stroke:rgb(13.729858%,12.159729%,12.548828%);stroke-opacity:1;stroke-dasharray:5;stroke-miterlimit:4;" d="M 216.360662 -747.223259 C 216.360662 -747.223259 216.360662 -648.526615 216.360662 -648.526615 C 216.360662 -648.526615 170.785183 -602.771104 170.785183 -602.771104 " transform="matrix(0.998087,0,0,0.998087,-30.349053,777.211601)"/>
<g clip-path="url(#clip2)" clip-rule="nonzero">
<path style="fill:none;stroke-width:2;stroke-linecap:butt;stroke-linejoin:miter;stroke:rgb(13.729858%,12.159729%,12.548828%);stroke-opacity:1;stroke-miterlimit:4;" d="M 195.199081 -601.683085 C 195.199081 -601.683085 170.973043 -577.359203 170.973043 -577.359203 C 170.973043 -577.359203 170.973043 -702.086119 170.973043 -702.086119 C 170.973043 -702.086119 241.694288 -773.085239 241.694288 -773.085239 C 241.694288 -773.085239 241.694288 -748.55393 241.694288 -748.55393 " transform="matrix(0.998087,0,0,0.998087,-30.349053,777.211601)"/>
</g>
<path style="fill:none;stroke-width:2;stroke-linecap:butt;stroke-linejoin:miter;stroke:rgb(13.729858%,12.159729%,12.548828%);stroke-opacity:1;stroke-dasharray:5;stroke-miterlimit:4;" d="M 241.694288 -748.55393 C 241.694288 -748.55393 241.694288 -648.362238 241.694288 -648.362238 C 241.694288 -648.362238 195.199081 -601.683085 195.199081 -601.683085 " transform="matrix(0.998087,0,0,0.998087,-30.349053,777.211601)"/>
<g clip-path="url(#clip3)" clip-rule="nonzero">
<path style="fill:none;stroke-width:2;stroke-linecap:butt;stroke-linejoin:miter;stroke:rgb(13.729858%,12.159729%,12.548828%);stroke-opacity:1;stroke-miterlimit:4;" d="M 222.035582 -603.526455 C 222.035582 -603.526455 196.138378 -577.527494 196.138378 -577.527494 C 196.138378 -577.527494 196.138378 -702.250496 196.138378 -702.250496 C 196.138378 -702.250496 266.863537 -773.25353 266.863537 -773.25353 C 266.863537 -773.25353 266.863537 -748.55393 266.863537 -748.55393 " transform="matrix(0.998087,0,0,0.998087,-30.349053,777.211601)"/>
</g>
<path style="fill:none;stroke-width:2;stroke-linecap:butt;stroke-linejoin:miter;stroke:rgb(13.729858%,12.159729%,12.548828%);stroke-opacity:1;stroke-dasharray:5;stroke-miterlimit:4;" d="M 266.863537 -748.55393 C 266.863537 -748.55393 266.863537 -648.526615 266.863537 -648.526615 C 266.863537 -648.526615 222.035582 -603.526455 222.035582 -603.526455 " transform="matrix(0.998087,0,0,0.998087,-30.349053,777.211601)"/>
<g clip-path="url(#clip4)" clip-rule="nonzero">
<path style="fill:none;stroke-width:2;stroke-linecap:butt;stroke-linejoin:miter;stroke:rgb(13.729858%,12.159729%,12.548828%);stroke-opacity:1;stroke-miterlimit:4;" d="M 292.197163 -648.362238 C 292.197163 -648.362238 221.472004 -577.359203 221.472004 -577.359203 C 221.472004 -577.359203 221.472004 -702.086119 221.472004 -702.086119 C 221.472004 -702.086119 292.197163 -773.085239 292.197163 -773.085239 C 292.197163 -773.085239 292.197163 -648.362238 292.197163 -648.362238 Z " transform="matrix(0.998087,0,0,0.998087,-30.349053,777.211601)"/>
</g>
<path style="fill:none;stroke-width:2;stroke-linecap:butt;stroke-linejoin:miter;stroke:rgb(13.729858%,12.159729%,12.548828%);stroke-opacity:1;stroke-miterlimit:4;" d="M 189.297164 -419.08764 C 189.297164 -419.08764 164.139656 -394.027976 164.139656 -394.027976 " transform="matrix(0.998087,0,0,0.998087,-30.349053,777.211601)"/>
<path style="fill:none;stroke-width:2;stroke-linecap:butt;stroke-linejoin:miter;stroke:rgb(13.729858%,12.159729%,12.548828%);stroke-opacity:1;stroke-dasharray:5;stroke-miterlimit:4;" d="M 334.500757 -464.753135 C 334.500757 -464.753135 235.138777 -464.753135 235.138777 -464.753135 C 235.138777 -464.753135 189.297164 -419.08764 189.297164 -419.08764 " transform="matrix(0.998087,0,0,0.998087,-30.349053,777.211601)"/>
<path style="fill:none;stroke-width:2;stroke-linecap:butt;stroke-linejoin:miter;stroke:rgb(13.729858%,12.159729%,12.548828%);stroke-opacity:1;stroke-miterlimit:4;" d="M 37.138859 -394.027976 C 37.138859 -394.027976 288.862658 -394.027976 288.862658 -394.027976 C 288.862658 -394.027976 359.861779 -464.753135 359.861779 -464.753135 C 359.861779 -464.753135 334.500757 -464.753135 334.500757 -464.753135 " transform="matrix(0.998087,0,0,0.998087,-30.349053,777.211601)"/>
<path style="fill:none;stroke-width:2;stroke-linecap:butt;stroke-linejoin:miter;stroke:rgb(13.729858%,12.159729%,12.548828%);stroke-opacity:1;stroke-dasharray:5;stroke-miterlimit:4;" d="M 334.500757 -490.08676 C 334.500757 -490.08676 234.970486 -490.08676 234.970486 -490.08676 C 234.970486 -490.08676 188.804033 -444.096426 188.804033 -444.096426 " transform="matrix(0.998087,0,0,0.998087,-30.349053,777.211601)"/>
<path style="fill:none;stroke-width:2;stroke-linecap:butt;stroke-linejoin:miter;stroke:rgb(13.729858%,12.159729%,12.548828%);stroke-opacity:1;stroke-miterlimit:4;" d="M 188.804033 -444.096426 C 188.804033 -444.096426 163.971366 -419.361602 163.971366 -419.361602 C 163.971366 -419.361602 288.694367 -419.361602 288.694367 -419.361602 C 288.694367 -419.361602 359.697402 -490.08676 359.697402 -490.08676 C 359.697402 -490.08676 334.500757 -490.08676 334.500757 -490.08676 " transform="matrix(0.998087,0,0,0.998087,-30.349053,777.211601)"/>
<path style="fill:none;stroke-width:2;stroke-linecap:butt;stroke-linejoin:miter;stroke:rgb(13.729858%,12.159729%,12.548828%);stroke-opacity:1;stroke-dasharray:5;stroke-miterlimit:4;" d="M 333.49884 -515.252096 C 333.49884 -515.252096 235.138777 -515.252096 235.138777 -515.252096 C 235.138777 -515.252096 189.046685 -469.340035 189.046685 -469.340035 " transform="matrix(0.998087,0,0,0.998087,-30.349053,777.211601)"/>
<path style="fill:none;stroke-width:2;stroke-linecap:butt;stroke-linejoin:miter;stroke:rgb(13.729858%,12.159729%,12.548828%);stroke-opacity:1;stroke-miterlimit:4;" d="M 189.046685 -469.340035 C 189.046685 -469.340035 164.139656 -444.526937 164.139656 -444.526937 C 164.139656 -444.526937 288.862658 -444.526937 288.862658 -444.526937 C 288.862658 -444.526937 359.861779 -515.252096 359.861779 -515.252096 C 359.861779 -515.252096 333.49884 -515.252096 333.49884 -515.252096 " transform="matrix(0.998087,0,0,0.998087,-30.349053,777.211601)"/>
<path style="fill:none;stroke-width:2;stroke-linecap:butt;stroke-linejoin:miter;stroke:rgb(13.729858%,12.159729%,12.548828%);stroke-opacity:1;stroke-miterlimit:4;" d="M 234.970486 -540.585721 C 234.970486 -540.585721 163.971366 -469.860563 163.971366 -469.860563 C 163.971366 -469.860563 288.694367 -469.860563 288.694367 -469.860563 C 288.694367 -469.860563 359.697402 -540.585721 359.697402 -540.585721 C 359.697402 -540.585721 234.970486 -540.585721 234.970486 -540.585721 Z " transform="matrix(0.998087,0,0,0.998087,-30.349053,777.211601)"/>
<path style="fill:none;stroke-width:2;stroke-linecap:butt;stroke-linejoin:miter;stroke:rgb(13.729858%,12.159729%,12.548828%);stroke-opacity:1;stroke-miterlimit:4;" d="M 138.265935 -380.623423 C 138.265935 -380.623423 111.734705 -380.623423 111.734705 -380.623423 C 111.734705 -380.623423 111.734705 -407.154653 111.734705 -407.154653 C 111.734705 -407.154653 138.265935 -407.154653 138.265935 -407.154653 C 138.265935 -407.154653 138.265935 -380.623423 138.265935 -380.623423 Z " transform="matrix(0.998087,0,0,0.998087,-30.349053,777.211601)"/>
<path style="fill:none;stroke-width:2;stroke-linecap:butt;stroke-linejoin:miter;stroke:rgb(13.729858%,12.159729%,12.548828%);stroke-opacity:1;stroke-miterlimit:4;" d="M 62.766016 -380.623423 C 62.766016 -380.623423 36.234786 -380.623423 36.234786 -380.623423 C 36.234786 -380.623423 36.234786 -407.154653 36.234786 -407.154653 C 36.234786 -407.154653 62.766016 -407.154653 62.766016 -407.154653 C 62.766016 -407.154653 62.766016 -380.623423 62.766016 -380.623423 Z " transform="matrix(0.998087,0,0,0.998087,-30.349053,777.211601)"/>
<g clip-path="url(#clip5)" clip-rule="nonzero">
<path style="fill:none;stroke-width:2;stroke-linecap:butt;stroke-linejoin:miter;stroke:rgb(13.729858%,12.159729%,12.548828%);stroke-opacity:1;stroke-miterlimit:4;" d="M 188.001717 -304.88868 C 188.001717 -304.88868 110.998922 -304.88868 110.998922 -304.88868 C 110.998922 -304.88868 110.998922 -363.88828 110.998922 -363.88828 C 110.998922 -363.88828 188.001717 -363.88828 188.001717 -363.88828 C 188.001717 -363.88828 188.001717 -304.88868 188.001717 -304.88868 Z " transform="matrix(0.998087,0,0,0.998087,-30.349053,777.211601)"/>
</g>
<path style="fill:none;stroke-width:2;stroke-linecap:butt;stroke-linejoin:miter;stroke:rgb(13.729858%,12.159729%,12.548828%);stroke-opacity:1;stroke-miterlimit:4;" d="M 161.767931 -336.625181 C 161.767931 -336.625181 135.232788 -336.625181 135.232788 -336.625181 C 135.232788 -336.625181 135.232788 -363.156411 135.232788 -363.156411 C 135.232788 -363.156411 161.767931 -363.156411 161.767931 -363.156411 C 161.767931 -363.156411 161.767931 -336.625181 161.767931 -336.625181 Z " transform="matrix(0.998087,0,0,0.998087,-30.349053,777.211601)"/>
<path style="fill:none;stroke-width:2;stroke-linecap:butt;stroke-linejoin:miter;stroke:rgb(13.729858%,12.159729%,12.548828%);stroke-opacity:1;stroke-miterlimit:4;" d="M 164.139656 -393.7501 C 164.139656 -393.7501 111.366814 -341.188599 111.366814 -341.188599 " transform="matrix(0.998087,0,0,0.998087,-30.349053,777.211601)"/>
<g clip-path="url(#clip6)" clip-rule="nonzero">
<path style="fill:none;stroke-width:2;stroke-linecap:butt;stroke-linejoin:miter;stroke:rgb(13.729858%,12.159729%,12.548828%);stroke-opacity:1;stroke-miterlimit:4;" d="M 64.832469 -364.05657 C 64.832469 -364.05657 95.833188 -364.05657 95.833188 -364.05657 C 95.833188 -364.05657 95.833188 -305.05697 95.833188 -305.05697 C 95.833188 -305.05697 64.832469 -305.05697 64.832469 -305.05697 C 64.832469 -305.05697 64.832469 -364.05657 64.832469 -364.05657 Z " transform="matrix(0.998087,0,0,0.998087,-30.349053,777.211601)"/>
</g>
<path style="fill:none;stroke-width:2;stroke-linecap:butt;stroke-linejoin:miter;stroke:rgb(13.729858%,12.159729%,12.548828%);stroke-opacity:1;stroke-miterlimit:4;" d="M 124.998363 -407.553854 C 124.998363 -407.553854 124.998363 -467.555371 124.998363 -467.555371 " transform="matrix(0.998087,0,0,0.998087,-30.349053,777.211601)"/>
<path style="fill:none;stroke-width:2;stroke-linecap:butt;stroke-linejoin:miter;stroke:rgb(13.729858%,12.159729%,12.548828%);stroke-opacity:1;stroke-miterlimit:4;" d="M 139.08782 -468.889956 C 139.08782 -464.976218 135.913778 -461.802176 132.00004 -461.802176 C 128.086302 -461.802176 124.912261 -464.976218 124.912261 -468.889956 C 124.912261 -472.803694 128.086302 -475.977735 132.00004 -475.977735 C 135.913778 -475.977735 139.08782 -472.803694 139.08782 -468.889956 Z " transform="matrix(0.998087,0,0,0.998087,-30.349053,777.211601)"/>
<path style="fill:none;stroke-width:2;stroke-linecap:butt;stroke-linejoin:miter;stroke:rgb(13.729858%,12.159729%,12.548828%);stroke-opacity:1;stroke-miterlimit:4;" d="M 90.999721 -450.291873 C 90.999721 -450.291873 63.400041 -450.291873 63.400041 -450.291873 C 63.400041 -450.291873 63.400041 -476.823102 63.400041 -476.823102 C 63.400041 -476.823102 89.931271 -476.823102 89.931271 -476.823102 C 89.931271 -476.823102 89.931271 -450.291873 89.931271 -450.291873 " transform="matrix(0.998087,0,0,0.998087,-30.349053,777.211601)"/>
<path style="fill:none;stroke-width:2;stroke-linecap:butt;stroke-linejoin:miter;stroke:rgb(13.729858%,12.159729%,12.548828%);stroke-opacity:1;stroke-dasharray:5;stroke-miterlimit:4;" d="M 125.933746 -450.291873 C 125.933746 -450.291873 90.999721 -450.291873 90.999721 -450.291873 " transform="matrix(0.998087,0,0,0.998087,-30.349053,777.211601)"/>
<g clip-path="url(#clip7)" clip-rule="nonzero">
<path style="fill:none;stroke-width:2;stroke-linecap:butt;stroke-linejoin:miter;stroke:rgb(13.729858%,12.159729%,12.548828%);stroke-opacity:1;stroke-miterlimit:4;" d="M 370.053152 -462.624061 C 370.053152 -462.624061 396.584382 -462.624061 396.584382 -462.624061 C 396.584382 -462.624061 396.584382 -489.155291 396.584382 -489.155291 C 396.584382 -489.155291 370.053152 -489.155291 370.053152 -489.155291 C 370.053152 -489.155291 370.053152 -462.624061 370.053152 -462.624061 Z " transform="matrix(0.998087,0,0,0.998087,-30.349053,777.211601)"/>
</g>
<path style="fill:none;stroke-width:2;stroke-linecap:butt;stroke-linejoin:miter;stroke:rgb(13.729858%,12.159729%,12.548828%);stroke-opacity:1;stroke-miterlimit:4;" d="M 383.320724 -489.554492 C 383.320724 -489.554492 383.320724 -507.557687 383.320724 -507.557687 " transform="matrix(0.998087,0,0,0.998087,-30.349053,777.211601)"/>
<path style="fill:none;stroke-width:2;stroke-linecap:butt;stroke-linejoin:miter;stroke:rgb(13.729858%,12.159729%,12.548828%);stroke-opacity:1;stroke-miterlimit:4;" d="M 369.235181 -508.888358 C 369.235181 -504.97462 372.405309 -501.804492 376.319047 -501.804492 C 380.232785 -501.804492 383.406826 -504.97462 383.406826 -508.888358 C 383.406826 -512.802096 380.232785 -515.976137 376.319047 -515.976137 C 372.405309 -515.976137 369.235181 -512.802096 369.235181 -508.888358 Z " transform="matrix(0.998087,0,0,0.998087,-30.349053,777.211601)"/>
<path style="fill:none;stroke-width:2;stroke-linecap:butt;stroke-linejoin:miter;stroke:rgb(13.729858%,12.159729%,12.548828%);stroke-opacity:1;stroke-miterlimit:4;" d="M 149.333986 -363.222944 C 149.333986 -363.222944 149.333986 -406.223183 149.333986 -406.223183 " transform="matrix(0.998087,0,0,0.998087,-30.349053,777.211601)"/>
<path style="fill:none;stroke-width:2;stroke-linecap:butt;stroke-linejoin:miter;stroke:rgb(13.729858%,12.159729%,12.548828%);stroke-opacity:1;stroke-miterlimit:4;" d="M 163.419529 -407.553854 C 163.419529 -403.640116 160.249401 -400.469988 156.331749 -400.469988 C 152.418011 -400.469988 149.247883 -403.640116 149.247883 -407.553854 C 149.247883 -411.471506 152.418011 -414.641634 156.331749 -414.641634 C 160.249401 -414.641634 163.419529 -411.471506 163.419529 -407.553854 Z " transform="matrix(0.998087,0,0,0.998087,-30.349053,777.211601)"/>
</g>
</svg>