<?xml version="1.0" encoding="UTF-8"?><svg xmlns="http://www.w3.org/2000/svg" xmlns:xlink="http://www.w3.org/1999/xlink" viewBox="0 0 235 82.563" width="151.767pt" height="53.32059072765957pt" version="1.2">
<defs>
<clipPath id="clip1">
  <path d="M 25 0 L 118 0 L 118 82.128906 L 25 82.128906 Z "/>
</clipPath>
<clipPath id="clip2">
  <path d="M 139 0 L 232 0 L 232 82.128906 L 139 82.128906 Z "/>
</clipPath>
<clipPath id="clip3">
  <path d="M 0.617188 0 L 234.378906 0 L 234.378906 17 L 0.617188 17 Z "/>
</clipPath>
</defs>
<g id="surface1">
<g clip-path="url(#clip1)" clip-rule="nonzero">
<path style="fill:none;stroke-width:2;stroke-linecap:butt;stroke-linejoin:miter;stroke:rgb(13.729858%,12.159729%,12.548828%);stroke-opacity:1;stroke-miterlimit:4;" d="M 461.371093 -323.998971 C 461.371093 -304.116947 445.698733 -288.000845 426.370406 -288.000845 C 407.038152 -288.000845 391.369719 -304.116947 391.369719 -323.998971 C 391.369719 -343.880995 407.038152 -360.001024 426.370406 -360.001024 C 445.698733 -360.001024 461.371093 -343.880995 461.371093 -323.998971 Z " transform="matrix(0.994735,0,0,0.994735,-352.512259,363.078253)"/>
</g>
<g clip-path="url(#clip2)" clip-rule="nonzero">
<path style="fill:none;stroke-width:2;stroke-linecap:butt;stroke-linejoin:miter;stroke:rgb(13.729858%,12.159729%,12.548828%);stroke-opacity:1;stroke-miterlimit:4;" d="M 575.998048 -323.437421 C 575.998048 -303.555397 560.329616 -287.439294 541.001288 -287.439294 C 521.669034 -287.439294 506.000601 -303.555397 506.000601 -323.437421 C 506.000601 -343.319444 521.669034 -359.435547 541.001288 -359.435547 C 560.329616 -359.435547 575.998048 -343.319444 575.998048 -323.437421 Z " transform="matrix(0.994735,0,0,0.994735,-352.512259,363.078253)"/>
</g>
<g clip-path="url(#clip3)" clip-rule="nonzero">
<path style="fill:none;stroke-width:2;stroke-linecap:butt;stroke-linejoin:miter;stroke:rgb(13.729858%,12.159729%,12.548828%);stroke-opacity:1;stroke-miterlimit:4;" d="M 360.001438 -360.001024 C 360.001438 -360.001024 584.998562 -360.001024 584.998562 -360.001024 " transform="matrix(0.994735,0,0,0.994735,-352.512259,363.078253)"/>
</g>
</g>
</svg>