<?xml version="1.0" encoding="UTF-8"?><svg xmlns="http://www.w3.org/2000/svg" xmlns:xlink="http://www.w3.org/1999/xlink" viewBox="0 0 351.5166 108.141" width="216.8pt" height="66.69661916393139pt" version="1.2">
<defs>
<clipPath id="clip1">
  <path d="M 1.144531 65 L 349.890625 65 L 349.890625 82 L 1.144531 82 Z "/>
</clipPath>
<clipPath id="clip2">
  <path d="M 1.144531 94 L 349.890625 94 L 349.890625 107.289062 L 1.144531 107.289062 Z "/>
</clipPath>
<clipPath id="clip3">
  <path d="M 76 0 L 194 0 L 194 107.289062 L 76 107.289062 Z "/>
</clipPath>
</defs>
<g id="surface1">
<g clip-path="url(#clip1)" clip-rule="nonzero">
<path style="fill:none;stroke-width:1.5;stroke-linecap:butt;stroke-linejoin:miter;stroke:rgb(0%,0%,0%);stroke-opacity:1;stroke-miterlimit:4;" d="M 94.482891 -408.523416 C 94.482891 -408.523416 322.758432 -408.523416 436.002441 -408.523416 " transform="matrix(0.992119,0,0,0.992119,-88.625015,478.819577)"/>
</g>
<g clip-path="url(#clip2)" clip-rule="nonzero">
<path style="fill:none;stroke-width:1.5;stroke-linecap:butt;stroke-linejoin:miter;stroke:rgb(0%,0%,0%);stroke-opacity:1;stroke-miterlimit:4;" d="M 94.482891 -378.48198 C 94.482891 -378.48198 325.471217 -378.48198 437.998641 -378.48198 " transform="matrix(0.992119,0,0,0.992119,-88.625015,478.819577)"/>
</g>
<path style="fill-rule:nonzero;fill:rgb(0%,0%,0%);fill-opacity:1;stroke-width:1.5;stroke-linecap:butt;stroke-linejoin:miter;stroke:rgb(0%,0%,0%);stroke-opacity:1;stroke-miterlimit:4;" d="M 230.732419 -428.552352 C 230.732419 -425.784445 228.476358 -423.544134 225.688765 -423.544134 C 222.901171 -423.544134 220.641173 -425.784445 220.641173 -428.552352 C 220.641173 -431.316322 222.901171 -433.556634 225.688765 -433.556634 C 228.476358 -433.556634 230.732419 -431.316322 230.732419 -428.552352 Z " transform="matrix(0.992119,0,0,0.992119,-88.625015,478.819577)"/>
<g clip-path="url(#clip3)" clip-rule="nonzero">
<path style="fill:none;stroke-width:1.5;stroke-linecap:butt;stroke-linejoin:miter;stroke:rgb(0%,0%,0%);stroke-opacity:1;stroke-miterlimit:4;" d="M 205.502337 -478.622725 C 205.502337 -478.622725 175.224664 -448.581289 175.224664 -448.581289 C 175.224664 -448.581289 175.224664 -408.523416 175.224664 -408.523416 C 175.224664 -408.523416 205.502337 -378.48198 205.502337 -378.48198 C 205.502337 -378.48198 245.871255 -378.48198 245.871255 -378.48198 C 245.871255 -378.48198 276.152865 -408.523416 276.152865 -408.523416 C 276.152865 -408.523416 276.152865 -448.581289 276.152865 -448.581289 C 276.152865 -448.581289 245.871255 -478.622725 245.871255 -478.622725 C 245.871255 -478.622725 205.502337 -478.622725 205.502337 -478.622725 Z " transform="matrix(0.992119,0,0,0.992119,-88.625015,478.819577)"/>
</g>
<path style="fill:none;stroke-width:1.5;stroke-linecap:butt;stroke-linejoin:miter;stroke:rgb(0%,0%,0%);stroke-opacity:1;stroke-miterlimit:4;" d="M 217.345671 -449.258501 C 217.345671 -449.258501 204.821188 -436.832449 204.821188 -436.832449 C 204.821188 -436.832449 204.821188 -420.268318 204.821188 -420.268318 C 204.821188 -420.268318 217.345671 -407.850141 217.345671 -407.850141 C 217.345671 -407.850141 234.035795 -407.850141 234.035795 -407.850141 C 234.035795 -407.850141 246.556341 -420.268318 246.556341 -420.268318 C 246.556341 -420.268318 246.556341 -436.832449 246.556341 -436.832449 C 246.556341 -436.832449 234.035795 -449.258501 234.035795 -449.258501 C 234.035795 -449.258501 217.345671 -449.258501 217.345671 -449.258501 Z " transform="matrix(0.992119,0,0,0.992119,-88.625015,478.819577)"/>
</g>
</svg>