<?xml version="1.0" encoding="UTF-8"?><svg xmlns="http://www.w3.org/2000/svg" xmlns:xlink="http://www.w3.org/1999/xlink" viewBox="0 0 595.27557 841.88977" width="86.724pt" height="122.65251942638935pt" version="1.2">
<g id="surface1">
<path style="fill:none;stroke-width:2;stroke-linecap:butt;stroke-linejoin:miter;stroke:rgb(13.729858%,12.159729%,12.548828%);stroke-opacity:1;stroke-miterlimit:4;" d="M 256.84344 -152.614038 C 160.593637 -218.205482 102.70687 -320.959285 103.528181 -438.954268 C 104.333848 -553.820449 164.387311 -656.065821 257.211074 -721.817616 " transform="matrix(0.998785,0,0,0.998785,0,841.323069)"/>
<path style="fill:none;stroke-width:2;stroke-linecap:butt;stroke-linejoin:miter;stroke:rgb(13.729858%,12.159729%,12.548828%);stroke-opacity:1;stroke-miterlimit:4;" d="M 257.211074 -721.817616 C 257.211074 -721.817616 256.761309 -231.604581 257.171964 -152.602305 " transform="matrix(0.998785,0,0,0.998785,0,841.323069)"/>
<path style="fill:none;stroke-width:2;stroke-linecap:butt;stroke-linejoin:miter;stroke:rgb(13.729858%,12.159729%,12.548828%);stroke-opacity:1;stroke-miterlimit:4;" d="M 395.191287 -285.748518 C 395.191287 -285.748518 288.049339 -285.748518 288.049339 -285.748518 C 288.049339 -285.748518 288.049339 -397.650158 288.049339 -397.650158 C 288.049339 -397.650158 395.191287 -397.650158 395.191287 -397.650158 C 395.191287 -397.650158 395.191287 -285.748518 395.191287 -285.748518 Z " transform="matrix(0.998785,0,0,0.998785,0,841.323069)"/>
</g>
</svg>