<?xml version="1.0" encoding="UTF-8"?><svg xmlns="http://www.w3.org/2000/svg" xmlns:xlink="http://www.w3.org/1999/xlink" viewBox="0 0 325.678 199.325" width="151.767pt" height="92.88609385650857pt" version="1.2">
<defs>
<clipPath id="clip1">
  <path d="M 0.390625 0 L 97 0 L 97 133 L 0.390625 133 Z "/>
</clipPath>
<clipPath id="clip2">
  <path d="M 0.390625 6 L 19 6 L 19 29 L 0.390625 29 Z "/>
</clipPath>
<clipPath id="clip3">
  <path d="M 208 0 L 324.96875 0 L 324.96875 198.652344 L 208 198.652344 Z "/>
</clipPath>
<clipPath id="clip4">
  <path d="M 224 0 L 228 0 L 228 198.652344 L 224 198.652344 Z "/>
</clipPath>
<clipPath id="clip5">
  <path d="M 224 97 L 324.96875 97 L 324.96875 101 L 224 101 Z "/>
</clipPath>
<clipPath id="clip6">
  <path d="M 224 112 L 324.96875 112 L 324.96875 116 L 224 116 Z "/>
</clipPath>
</defs>
<g id="surface1">
<path style="fill:none;stroke-width:3;stroke-linecap:butt;stroke-linejoin:miter;stroke:rgb(13.729858%,12.159729%,12.548828%);stroke-opacity:1;stroke-miterlimit:4;" d="M 0.000288348 0.00180758 L 144.652552 0.00180758 " transform="matrix(0.996625,0,0,-0.996625,6.8044,17.427583)"/>
<g clip-path="url(#clip1)" clip-rule="nonzero">
<path style="fill:none;stroke-width:3;stroke-linecap:butt;stroke-linejoin:miter;stroke:rgb(13.729858%,12.159729%,12.548828%);stroke-opacity:1;stroke-miterlimit:4;" d="M -0.000244701 0.000270011 L 71.863389 -98.449184 " transform="matrix(0.996625,0,0,-0.996625,7.801025,17.594019)"/>
</g>
<path style="fill:none;stroke-width:3;stroke-linecap:butt;stroke-linejoin:miter;stroke:rgb(13.729858%,12.159729%,12.548828%);stroke-opacity:1;stroke-dasharray:5,5;stroke-miterlimit:4;" d="M -0.000618538 -0.00126755 L -71.864252 -98.446802 " transform="matrix(0.996625,0,0,-0.996625,149.852179,17.760455)"/>
<path style=" stroke:none;fill-rule:nonzero;fill:rgb(13.729858%,12.159729%,12.548828%);fill-opacity:1;" d="M 7.800781 21.082031 C 12.300781 21.082031 12.300781 14.105469 7.800781 14.105469 C 3.300781 14.105469 3.300781 21.082031 7.800781 21.082031 "/>
<path style=" stroke:none;fill-rule:nonzero;fill:rgb(13.729858%,12.159729%,12.548828%);fill-opacity:1;" d="M 149.320312 21.082031 C 153.820312 21.082031 153.820312 14.105469 149.320312 14.105469 C 144.824219 14.105469 144.824219 21.082031 149.320312 21.082031 "/>
<path style=" stroke:none;fill-rule:nonzero;fill:rgb(13.729858%,12.159729%,12.548828%);fill-opacity:1;" d="M 79.058594 118.75 C 83.558594 118.75 83.558594 111.773438 79.058594 111.773438 C 74.5625 111.773438 74.5625 118.75 79.058594 118.75 "/>
<g clip-path="url(#clip2)" clip-rule="nonzero">
<path style="fill:none;stroke-width:0.7;stroke-linecap:butt;stroke-linejoin:miter;stroke:rgb(13.729858%,12.159729%,12.548828%);stroke-opacity:1;stroke-miterlimit:4;" d="M -0.000228045 -0.000229989 C -0.000228045 -3.915789 -3.171086 -7.086647 -7.086645 -7.086647 C -10.998284 -7.086647 -14.173061 -3.915789 -14.173061 -0.000229989 C -14.173061 3.915329 -10.998284 7.086187 -7.086645 7.086187 C -3.171086 7.086187 -0.000228045 3.915329 -0.000228045 -0.000229989 Z " transform="matrix(0.996625,0,0,-0.996625,14.863509,17.593521)"/>
</g>
<path style="fill:none;stroke-width:0.7;stroke-linecap:butt;stroke-linejoin:miter;stroke:rgb(13.729858%,12.159729%,12.548828%);stroke-opacity:1;stroke-miterlimit:4;" d="M -0.000950922 -0.000229989 C -0.000950922 -3.915789 -3.171809 -7.086647 -7.087368 -7.086647 C -10.999007 -7.086647 -14.173784 -3.915789 -14.173784 -0.000229989 C -14.173784 3.915329 -10.999007 7.086187 -7.087368 7.086187 C -3.171809 7.086187 -0.000950922 3.915329 -0.000950922 -0.000229989 Z " transform="matrix(0.996625,0,0,-0.996625,156.38376,17.593521)"/>
<path style="fill:none;stroke-width:3;stroke-linecap:butt;stroke-linejoin:miter;stroke:rgb(13.729858%,12.159729%,12.548828%);stroke-opacity:1;stroke-miterlimit:4;" d="M 156.220149 111.305277 L 142.047316 111.305277 L 142.047316 125.47811 L 156.220149 125.47811 Z " transform="matrix(0.996625,0,0,-0.996625,0.389125,198.652278)"/>
<path style="fill:none;stroke-width:3;stroke-linecap:butt;stroke-linejoin:miter;stroke:rgb(13.729858%,12.159729%,12.548828%);stroke-opacity:1;stroke-miterlimit:4;" d="M -0.00146758 0.00178198 L -0.00146758 56.28157 " transform="matrix(0.996625,0,0,-0.996625,149.321775,73.68537)"/>
<path style="fill:none;stroke-width:3;stroke-linecap:butt;stroke-linejoin:miter;stroke:rgb(13.729858%,12.159729%,12.548828%);stroke-opacity:1;stroke-miterlimit:4;" d="M 85.720494 12.303176 L 71.547661 12.303176 L 71.547661 26.47601 L 85.720494 26.47601 Z " transform="matrix(0.996625,0,0,-0.996625,0.389125,198.652278)"/>
<path style="fill:none;stroke-width:3;stroke-linecap:butt;stroke-linejoin:miter;stroke:rgb(13.729858%,12.159729%,12.548828%);stroke-opacity:1;stroke-miterlimit:4;" d="M -0.00112266 -0.000318864 L -0.00112266 56.279469 " transform="matrix(0.996625,0,0,-0.996625,79.059713,172.351245)"/>
<path style=" stroke:none;fill-rule:nonzero;fill:rgb(13.729858%,12.159729%,12.548828%);fill-opacity:1;" d="M 240.488281 81.984375 C 240.207031 81.882812 239.808594 81.808594 239.148438 81.808594 C 236.21875 81.808594 233.796875 85.117188 233.796875 88.550781 C 233.796875 89.925781 234.242188 91.273438 235.722656 91.273438 C 237.363281 91.273438 239.289062 88.984375 239.832031 85.703125 Z M 239.246094 92.722656 C 239.246094 91.984375 239.363281 90.816406 239.503906 89.542969 L 239.457031 89.542969 C 238.210938 92.113281 236.640625 93.003906 235.039062 93.003906 C 233.023438 93.003906 231.78125 91.273438 231.78125 88.929688 C 231.78125 84.632812 234.6875 80.128906 239.621094 80.128906 C 240.699219 80.128906 241.898438 80.332031 242.671875 80.585938 L 241.519531 87.023438 C 241.144531 89.160156 241.007812 91.351562 241.054688 92.722656 Z "/>
<g clip-path="url(#clip3)" clip-rule="nonzero">
<path style="fill:none;stroke-width:3;stroke-linecap:butt;stroke-linejoin:miter;stroke:rgb(13.729858%,12.159729%,12.548828%);stroke-opacity:1;stroke-miterlimit:4;" d="M -0.00157322 -0.00136017 C 50.355883 0.0143177 93.223217 -38.502395 97.695341 -89.608472 C 102.422232 -143.611043 62.47491 -191.220945 8.468419 -195.947836 C 5.595442 -196.198682 2.742062 -196.320186 -0.0878017 -196.324106 " transform="matrix(0.996625,0,0,-0.996625,225.72813,1.494738)"/>
</g>
<g clip-path="url(#clip4)" clip-rule="nonzero">
<path style="fill:none;stroke-width:3;stroke-linecap:butt;stroke-linejoin:miter;stroke:rgb(13.729858%,12.159729%,12.548828%);stroke-opacity:1;stroke-miterlimit:4;" d="M 0.0000982566 -0.00118278 L 0.0000982566 -198.103371 " transform="matrix(0.996625,0,0,-0.996625,225.640527,0.576946)"/>
</g>
<path style="fill:none;stroke-width:3;stroke-linecap:butt;stroke-linejoin:miter;stroke:rgb(13.729858%,12.159729%,12.548828%);stroke-opacity:1;stroke-miterlimit:4;" d="M -0.000994093 0.00104212 L 78.611981 -59.171321 " transform="matrix(0.996625,0,0,-0.996625,225.883803,98.840882)"/>
<path style="fill:none;stroke-width:3;stroke-linecap:butt;stroke-linejoin:miter;stroke:rgb(13.729858%,12.159729%,12.548828%);stroke-opacity:1;stroke-miterlimit:4;" d="M -0.00159027 -0.000920858 L 78.489881 -0.000920858 " transform="matrix(0.996625,0,0,-0.996625,226.005491,157.811582)"/>
<path style=" stroke:none;fill-rule:nonzero;fill:rgb(13.729858%,12.159729%,12.548828%);fill-opacity:1;" d="M 225.882812 101.867188 C 229.789062 101.867188 229.789062 95.8125 225.882812 95.8125 C 221.980469 95.8125 221.980469 101.867188 225.882812 101.867188 "/>
<path style=" stroke:none;fill-rule:nonzero;fill:rgb(13.729858%,12.159729%,12.548828%);fill-opacity:1;" d="M 212.21875 157.578125 C 212.128906 157.921875 212.058594 158.308594 212.082031 158.832031 C 212.082031 159.765625 212.695312 160.273438 213.851562 160.273438 C 216.6875 160.273438 218.417969 157.253906 218.417969 155.066406 C 218.417969 153.851562 217.824219 152.738281 216.328125 152.738281 C 214.691406 152.738281 213.015625 154.238281 212.46875 156.546875 Z M 214.601562 146.984375 L 213.148438 153.347656 L 213.195312 153.347656 C 214.167969 152.027344 215.578125 151.339844 217.054688 151.339844 C 219.460938 151.339844 220.371094 153.125 220.371094 154.863281 C 220.371094 157.882812 217.9375 161.589844 213.535156 161.589844 C 211.605469 161.589844 210.152344 160.878906 210.152344 159.078125 C 210.152344 158.59375 210.242188 158.003906 210.355469 157.539062 L 212.71875 146.984375 Z "/>
<path style=" stroke:none;fill-rule:nonzero;fill:rgb(13.729858%,12.159729%,12.548828%);fill-opacity:1;" d="M 304.1875 165.722656 L 303.652344 168.238281 L 306.488281 168.238281 L 306.167969 169.648438 L 303.332031 169.648438 L 302.257812 174.769531 C 302.109375 175.355469 302.011719 175.898438 302.011719 176.4375 C 302.011719 177.070312 302.355469 177.457031 303.136719 177.457031 C 303.503906 177.457031 303.820312 177.4375 304.089844 177.371094 L 303.992188 178.78125 C 303.625 178.910156 303.015625 178.976562 302.429688 178.976562 C 300.644531 178.976562 299.933594 178.023438 299.933594 176.9375 C 299.933594 176.332031 300.03125 175.722656 300.203125 174.964844 L 301.351562 169.648438 L 299.664062 169.648438 L 299.957031 168.238281 L 301.640625 168.238281 L 302.058594 166.308594 Z "/>
<g clip-path="url(#clip5)" clip-rule="nonzero">
<path style="fill:none;stroke-width:3;stroke-linecap:butt;stroke-linejoin:miter;stroke:rgb(13.729858%,12.159729%,12.548828%);stroke-opacity:1;stroke-miterlimit:4;" d="M -0.00159027 -0.00157214 L 97.930493 -0.00157214 " transform="matrix(0.996625,0,0,-0.996625,226.005491,98.881246)"/>
</g>
<g clip-path="url(#clip6)" clip-rule="nonzero">
<path style="fill:none;stroke-width:3;stroke-linecap:butt;stroke-linejoin:miter;stroke:rgb(13.729858%,12.159729%,12.548828%);stroke-opacity:1;stroke-miterlimit:4;" d="M 0.00171634 0.000775417 L 97.322361 0.000775417 " transform="matrix(0.996625,0,0,-0.996625,225.802977,113.614054)"/>
</g>
<path style="fill:none;stroke-width:3;stroke-linecap:butt;stroke-linejoin:miter;stroke:rgb(13.729858%,12.159729%,12.548828%);stroke-opacity:1;stroke-miterlimit:4;" d="M 308.017622 44.235166 L 299.406528 44.235166 L 299.406528 52.846259 L 308.017622 52.846259 Z " transform="matrix(0.996625,0,0,-0.996625,0.389125,198.652278)"/>
<path style=" stroke:none;fill-rule:nonzero;fill:rgb(13.729858%,12.159729%,12.548828%);fill-opacity:1;" d="M 303.179688 160.195312 C 307.082031 160.195312 307.082031 154.140625 303.179688 154.140625 C 299.273438 154.140625 299.273438 160.195312 303.179688 160.195312 "/>
<path style=" stroke:none;fill-rule:nonzero;fill:rgb(13.729858%,12.159729%,12.548828%);fill-opacity:1;" d="M 320.613281 153.230469 C 320.332031 153.128906 319.933594 153.054688 319.273438 153.054688 C 316.34375 153.054688 313.917969 156.359375 313.917969 159.796875 C 313.917969 161.171875 314.367188 162.519531 315.84375 162.519531 C 317.488281 162.519531 319.414062 160.230469 319.953125 156.949219 Z M 319.367188 163.96875 C 319.367188 163.230469 319.488281 162.0625 319.628906 160.789062 L 319.582031 160.789062 C 318.335938 163.359375 316.765625 164.25 315.164062 164.25 C 313.144531 164.25 311.90625 162.519531 311.90625 160.175781 C 311.90625 155.878906 314.8125 151.375 319.746094 151.375 C 320.824219 151.375 322.019531 151.578125 322.796875 151.832031 L 321.644531 158.269531 C 321.269531 160.40625 321.132812 162.597656 321.175781 163.96875 Z "/>
</g>
</svg>