<?xml version="1.0" encoding="UTF-8"?><svg xmlns="http://www.w3.org/2000/svg" xmlns:xlink="http://www.w3.org/1999/xlink" viewBox="0 0 352.406 317.992" width="260.172pt" height="234.76505684920238pt" version="1.2">
<defs>
<clipPath id="clip1">
  <path d="M 0 230 L 88 230 L 88 317.71875 L 0 317.71875 Z "/>
</clipPath>
<clipPath id="clip2">
  <path d="M 223 0.261719 L 351.8125 0.261719 L 351.8125 317.71875 L 223 317.71875 Z "/>
</clipPath>
<clipPath id="clip3">
  <path d="M 36 0.261719 L 285 0.261719 L 285 261 L 36 261 Z "/>
</clipPath>
</defs>
<g id="surface1">
<path style="fill:none;stroke-width:3;stroke-linecap:butt;stroke-linejoin:miter;stroke:rgb(13.729858%,12.159729%,12.548828%);stroke-opacity:1;stroke-miterlimit:4;" d="M -0.000517849 -0.000964929 L -0.000517849 -70.658925 " transform="matrix(0.998317,0,0,-0.998317,35.879423,177.065443)"/>
<g clip-path="url(#clip1)" clip-rule="nonzero">
<path style="fill:none;stroke-width:3;stroke-linecap:butt;stroke-linejoin:miter;stroke:rgb(13.729858%,12.159729%,12.548828%);stroke-opacity:1;stroke-miterlimit:4;" d="M -0.0016512 -0.000803911 C -0.0016512 -19.021091 -15.418218 -34.441571 -34.442418 -34.441571 C -53.462705 -34.441571 -68.883185 -19.021091 -68.883185 -0.000803911 C -68.883185 19.019483 -53.462705 34.439963 -34.442418 34.439963 C -15.418218 34.439963 -0.0016512 19.019483 -0.0016512 -0.000803911 Z " transform="matrix(0.998317,0,0,-0.998317,70.263367,281.839041)"/>
</g>
<path style="fill:none;stroke-width:3;stroke-linecap:butt;stroke-linejoin:miter;stroke:rgb(13.729858%,12.159729%,12.548828%);stroke-opacity:1;stroke-miterlimit:4;" d="M -0.000632289 -0.000213507 L 232.660402 -77.008703 L 231.66263 -155.578414 L -0.000632289 -81.058487 " transform="matrix(0.998317,0,0,-0.998317,36.149069,97.277131)"/>
<g clip-path="url(#clip2)" clip-rule="nonzero">
<path style="fill:none;stroke-width:3;stroke-linecap:butt;stroke-linejoin:miter;stroke:rgb(13.729858%,12.159729%,12.548828%);stroke-opacity:1;stroke-miterlimit:4;" d="M 0.000684123 -0.0000917354 L -109.69171 -136.08064 L -109.69171 24.642938 L 0.000684123 160.723486 Z " transform="matrix(0.998317,0,0,-0.998317,350.315723,164.960846)"/>
</g>
<g clip-path="url(#clip3)" clip-rule="nonzero">
<path style="fill:none;stroke-width:3;stroke-linecap:butt;stroke-linejoin:miter;stroke:rgb(13.729858%,12.159729%,12.548828%);stroke-opacity:1;stroke-dasharray:5;stroke-miterlimit:4;" d="M -0.00129302 0.00190578 L 178.463075 -165.444463 L 152.00449 -235.327682 L -35.369401 -75.99316 " transform="matrix(0.998317,0,0,-0.998317,89.059885,9.099559)"/>
</g>
</g>
</svg>