<?xml version="1.0" encoding="UTF-8"?><svg xmlns="http://www.w3.org/2000/svg" xmlns:xlink="http://www.w3.org/1999/xlink" viewBox="0 0 399.667 131.367" width="173.448pt" height="57.0108200476897pt" version="1.2">
<defs>
<clipPath id="clip1">
  <path d="M 90 11 L 94 11 L 94 130.738281 L 90 130.738281 Z "/>
</clipPath>
<clipPath id="clip2">
  <path d="M 0.792969 104 L 140 104 L 140 130.738281 L 0.792969 130.738281 Z "/>
</clipPath>
<clipPath id="clip3">
  <path d="M 287 87 L 398.542969 87 L 398.542969 130.738281 L 287 130.738281 Z "/>
</clipPath>
</defs>
<g id="surface1">
<path style="fill:none;stroke-width:3;stroke-linecap:round;stroke-linejoin:round;stroke:rgb(13.729858%,12.159729%,12.548828%);stroke-opacity:1;stroke-miterlimit:4;" d="M -0.00136164 -0.000343333 L 251.737089 -0.000343333 " transform="matrix(0.995205,0,0,-0.995205,92.849011,13.109033)"/>
<g clip-path="url(#clip1)" clip-rule="nonzero">
<path style="fill:none;stroke-width:3;stroke-linecap:round;stroke-linejoin:round;stroke:rgb(13.729858%,12.159729%,12.548828%);stroke-opacity:1;stroke-miterlimit:4;" d="M 0.000154148 0.000535249 L 0.000154148 116.194457 " transform="matrix(0.995205,0,0,-0.995205,92.351409,128.746626)"/>
</g>
<path style="fill:none;stroke-width:3;stroke-linecap:round;stroke-linejoin:round;stroke:rgb(13.729858%,12.159729%,12.548828%);stroke-opacity:1;stroke-miterlimit:4;" d="M 0.000788652 0.00194076 L 0.000788652 115.81513 " transform="matrix(0.995205,0,0,-0.995205,343.378121,128.45115)"/>
<g clip-path="url(#clip2)" clip-rule="nonzero">
<path style="fill:none;stroke-width:3;stroke-linecap:round;stroke-linejoin:round;stroke:rgb(13.729858%,12.159729%,12.548828%);stroke-opacity:1;stroke-miterlimit:4;" d="M -0.000405353 0.00176507 L -0.000405353 -23.266065 L -136.000243 -23.266065 L -136.000243 0.00176507 " transform="matrix(0.995205,0,0,-0.995205,137.633216,105.5916)"/>
</g>
<path style="fill:none;stroke-width:3;stroke-linecap:butt;stroke-linejoin:miter;stroke:rgb(13.729858%,12.159729%,12.548828%);stroke-opacity:1;stroke-miterlimit:4;" d="M 50.500363 29.05606 L 13.502629 29.05606 L 13.502629 56.445216 L 50.500363 56.445216 Z " transform="matrix(0.995205,0,0,-0.995205,0.792591,130.737036)"/>
<g clip-path="url(#clip3)" clip-rule="nonzero">
<path style="fill:none;stroke-width:3;stroke-linecap:round;stroke-linejoin:round;stroke:rgb(13.729858%,12.159729%,12.548828%);stroke-opacity:1;stroke-miterlimit:4;" d="M 398.167585 42.083376 L 290.000437 42.083376 L 290.000437 1.498126 L 398.167585 1.498126 Z " transform="matrix(0.995205,0,0,-0.995205,0.792591,130.737036)"/>
</g>
<path style="fill:none;stroke-width:2;stroke-linecap:round;stroke-linejoin:round;stroke:rgb(13.729858%,12.159729%,12.548828%);stroke-opacity:1;stroke-miterlimit:4;" d="M -0.00185716 -0.000327219 L 106.811141 -0.000327219 " transform="matrix(0.995205,0,0,-0.995205,289.732317,115.948893)"/>
<path style="fill:none;stroke-width:2;stroke-linecap:round;stroke-linejoin:round;stroke:rgb(13.729858%,12.159729%,12.548828%);stroke-opacity:1;stroke-miterlimit:4;" d="M -0.00185716 -0.000475766 L 106.811141 -0.000475766 " transform="matrix(0.995205,0,0,-0.995205,289.732317,102.40187)"/>
<path style="fill:none;stroke-width:3;stroke-linecap:butt;stroke-linejoin:miter;stroke:rgb(13.729858%,12.159729%,12.548828%);stroke-opacity:1;stroke-miterlimit:4;" d="M 0.00042579 -0.00021217 C 0.00042579 -6.260703 -5.078618 -11.339747 -11.339109 -11.339747 C -17.603524 -11.339747 -22.678643 -6.260703 -22.678643 -0.00021217 C -22.678643 6.260278 -17.603524 11.339322 -11.339109 11.339322 C -5.078618 11.339322 0.00042579 6.260278 0.00042579 -0.00021217 Z " transform="matrix(0.995205,0,0,-0.995205,228.202701,12.777133)"/>
<path style=" stroke:none;fill-rule:nonzero;fill:rgb(13.729858%,12.159729%,12.548828%);fill-opacity:1;" d="M 217.25 16.027344 C 221.871094 16.027344 221.871094 8.863281 217.25 8.863281 C 212.628906 8.863281 212.628906 16.027344 217.25 16.027344 "/>
</g>
</svg>