<?xml version="1.0" encoding="UTF-8"?><svg xmlns="http://www.w3.org/2000/svg" xmlns:xlink="http://www.w3.org/1999/xlink" viewBox="0 0 216.555 108.797" width="95.3964pt" height="47.92704915979774pt" version="1.2">
<defs>
<clipPath id="clip1">
  <path d="M 0 107 L 216.109375 107 L 216.109375 108.585938 L 0 108.585938 Z "/>
</clipPath>
<clipPath id="clip2">
  <path d="M 0 30 L 115 30 L 115 108.585938 L 0 108.585938 Z "/>
</clipPath>
<clipPath id="clip3">
  <path d="M 103 30 L 216.109375 30 L 216.109375 108.585938 L 103 108.585938 Z "/>
</clipPath>
<clipPath id="clip4">
  <path d="M 108 35 L 110 35 L 110 108.585938 L 108 108.585938 Z "/>
</clipPath>
<clipPath id="clip5">
  <path d="M 67 0.0117188 L 134 0.0117188 L 134 108.585938 L 67 108.585938 Z "/>
</clipPath>
<clipPath id="clip6">
  <path d="M 83 0.0117188 L 151 0.0117188 L 151 108.585938 L 83 108.585938 Z "/>
</clipPath>
</defs>
<g id="surface1">
<g clip-path="url(#clip1)" clip-rule="nonzero">
<path style="fill:none;stroke-width:1;stroke-linecap:butt;stroke-linejoin:miter;stroke:rgb(13.729858%,12.159729%,12.548828%);stroke-opacity:1;stroke-miterlimit:4;" d="M -0.00140061 -0.000760096 L 216.000146 -0.000760096 " transform="matrix(0.997949,0,0,-0.997949,0.274835,108.085179)"/>
</g>
<g clip-path="url(#clip2)" clip-rule="nonzero">
<path style="fill:none;stroke-width:1;stroke-linecap:butt;stroke-linejoin:miter;stroke:rgb(13.729858%,12.159729%,12.548828%);stroke-opacity:1;stroke-miterlimit:4;" d="M -0.00052973 -0.00154944 L -109.001401 -72.00076 " transform="matrix(0.997949,0,0,-0.997949,109.05131,36.232829)"/>
</g>
<g clip-path="url(#clip3)" clip-rule="nonzero">
<path style="fill:none;stroke-width:1;stroke-linecap:butt;stroke-linejoin:miter;stroke:rgb(13.729858%,12.159729%,12.548828%);stroke-opacity:1;stroke-miterlimit:4;" d="M -0.00052973 -0.00154944 L 107.000146 -72.00076 " transform="matrix(0.997949,0,0,-0.997949,109.05131,36.232829)"/>
</g>
<g clip-path="url(#clip4)" clip-rule="nonzero">
<path style="fill:none;stroke-width:1;stroke-linecap:butt;stroke-linejoin:miter;stroke:rgb(13.729858%,12.159729%,12.548828%);stroke-opacity:1;stroke-miterlimit:4;" d="M -0.00052973 -0.00154944 L -0.00052973 -72.00076 " transform="matrix(0.997949,0,0,-0.997949,109.05131,36.232829)"/>
</g>
<g clip-path="url(#clip5)" clip-rule="nonzero">
<path style="fill:none;stroke-width:1;stroke-linecap:butt;stroke-linejoin:miter;stroke:rgb(13.729858%,12.159729%,12.548828%);stroke-opacity:1;stroke-miterlimit:4;" d="M -0.000135056 -0.000760096 L 54.999371 108.068513 " transform="matrix(0.997949,0,0,-0.997949,73.125135,108.085179)"/>
</g>
<g clip-path="url(#clip6)" clip-rule="nonzero">
<path style="fill:none;stroke-width:1;stroke-linecap:butt;stroke-linejoin:miter;stroke:rgb(13.729858%,12.159729%,12.548828%);stroke-opacity:1;stroke-miterlimit:4;" d="M -0.000466685 0.00129481 L -55.481429 106.998056 " transform="matrix(0.997949,0,0,-0.997949,144.719216,107.08723)"/>
</g>
</g>
</svg>