<?xml version="1.0" encoding="UTF-8"?><svg xmlns="http://www.w3.org/2000/svg" xmlns:xlink="http://www.w3.org/1999/xlink" viewBox="0 0 235.262 427.789" width="86.724pt" height="157.69471158113083pt" version="1.2">
<defs>
<clipPath id="clip1">
  <path d="M 58 103 L 82 103 L 82 427.015625 L 58 427.015625 Z "/>
</clipPath>
<clipPath id="clip2">
  <path d="M 0 342 L 81 342 L 81 427.015625 L 0 427.015625 Z "/>
</clipPath>
<clipPath id="clip3">
  <path d="M 66 0.5625 L 153 0.5625 L 153 81 L 66 81 Z "/>
</clipPath>
<clipPath id="clip4">
  <path d="M 154 307 L 234.527344 307 L 234.527344 394 L 154 394 Z "/>
</clipPath>
<clipPath id="clip5">
  <path d="M 153 105 L 177 105 L 177 427.015625 L 153 427.015625 Z "/>
</clipPath>
<clipPath id="clip6">
  <path d="M 186 371 L 210 371 L 210 427.015625 L 186 427.015625 Z "/>
</clipPath>
<clipPath id="clip7">
  <path d="M 155 410 L 210 410 L 210 427.015625 L 155 427.015625 Z "/>
</clipPath>
</defs>
<g id="surface1">
<path style="fill:none;stroke-width:2;stroke-linecap:butt;stroke-linejoin:miter;stroke:rgb(13.729858%,12.159729%,12.548828%);stroke-opacity:1;stroke-miterlimit:4;" d="M 254.13092 -549.824346 C 254.13092 -523.225543 275.635668 -501.665936 302.1561 -501.665936 C 328.68437 -501.665936 350.185199 -523.225543 350.185199 -549.824346 C 350.185199 -576.423148 328.68437 -597.982755 302.1561 -597.982755 C 275.635668 -597.982755 254.13092 -576.423148 254.13092 -549.824346 Z " transform="matrix(0.996873,0,0,0.996873,-183.687785,664.620605)"/>
<g clip-path="url(#clip1)" clip-rule="nonzero">
<path style="fill:none;stroke-width:2;stroke-linecap:round;stroke-linejoin:miter;stroke:rgb(13.729858%,12.159729%,12.548828%);stroke-opacity:1;stroke-miterlimit:4;" d="M 254.20929 -551.403502 C 254.20929 -551.403502 254.20929 -243.35034 254.20929 -243.35034 " transform="matrix(0.996873,0,0,0.996873,-183.687785,664.620605)"/>
</g>
<path style="fill:none;stroke-width:2;stroke-linecap:butt;stroke-linejoin:miter;stroke:rgb(13.729858%,12.159729%,12.548828%);stroke-opacity:1;stroke-miterlimit:4;" d="M 205.051662 -597.720215 C 205.051662 -580.133971 219.307178 -565.874536 236.893422 -565.874536 C 254.479666 -565.874536 268.735183 -580.133971 268.735183 -597.720215 C 268.735183 -615.30646 254.479666 -629.561976 236.893422 -629.561976 C 219.307178 -629.561976 205.051662 -615.30646 205.051662 -597.720215 Z " transform="matrix(0.996873,0,0,0.996873,-183.687785,664.620605)"/>
<path style="fill:none;stroke-width:2;stroke-linecap:butt;stroke-linejoin:miter;stroke:rgb(13.729858%,12.159729%,12.548828%);stroke-opacity:1;stroke-miterlimit:4;" d="M 189.264011 -536.66601 C 189.264011 -519.079766 203.519527 -504.82425 221.105771 -504.82425 C 238.692015 -504.82425 252.947532 -519.079766 252.947532 -536.66601 C 252.947532 -554.252255 238.692015 -568.507771 221.105771 -568.507771 C 203.519527 -568.507771 189.264011 -554.252255 189.264011 -536.66601 Z " transform="matrix(0.996873,0,0,0.996873,-183.687785,664.620605)"/>
<path style="fill:none;stroke-width:2;stroke-linecap:butt;stroke-linejoin:miter;stroke:rgb(13.729858%,12.159729%,12.548828%);stroke-opacity:1;stroke-miterlimit:4;" d="M 189.264011 -471.928412 C 189.264011 -454.342168 203.519527 -440.086651 221.105771 -440.086651 C 238.692015 -440.086651 252.947532 -454.342168 252.947532 -471.928412 C 252.947532 -489.514656 238.692015 -503.770172 221.105771 -503.770172 C 203.519527 -503.770172 189.264011 -489.514656 189.264011 -471.928412 Z " transform="matrix(0.996873,0,0,0.996873,-183.687785,664.620605)"/>
<path style="fill:none;stroke-width:2;stroke-linecap:butt;stroke-linejoin:miter;stroke:rgb(13.729858%,12.159729%,12.548828%);stroke-opacity:1;stroke-miterlimit:4;" d="M 189.78909 -407.715893 C 189.78909 -390.133567 204.048525 -375.874133 221.634769 -375.874133 C 239.217095 -375.874133 253.47653 -390.133567 253.47653 -407.715893 C 253.47653 -425.306056 239.217095 -439.561572 221.634769 -439.561572 C 204.048525 -439.561572 189.78909 -425.306056 189.78909 -407.715893 Z " transform="matrix(0.996873,0,0,0.996873,-183.687785,664.620605)"/>
<path style="fill:none;stroke-width:2;stroke-linecap:butt;stroke-linejoin:miter;stroke:rgb(13.729858%,12.159729%,12.548828%);stroke-opacity:1;stroke-miterlimit:4;" d="M 189.264011 -344.032372 C 189.264011 -326.446128 203.519527 -312.190612 221.105771 -312.190612 C 238.692015 -312.190612 252.947532 -326.446128 252.947532 -344.032372 C 252.947532 -361.618616 238.692015 -375.874133 221.105771 -375.874133 C 203.519527 -375.874133 189.264011 -361.618616 189.264011 -344.032372 Z " transform="matrix(0.996873,0,0,0.996873,-183.687785,664.620605)"/>
<g clip-path="url(#clip2)" clip-rule="nonzero">
<path style="fill:none;stroke-width:2;stroke-linecap:butt;stroke-linejoin:miter;stroke:rgb(13.729858%,12.159729%,12.548828%);stroke-opacity:1;stroke-miterlimit:4;" d="M 190.318088 -280.348851 C 190.318088 -262.762607 204.573604 -248.507091 222.159849 -248.507091 C 239.746093 -248.507091 254.001609 -262.762607 254.001609 -280.348851 C 254.001609 -297.935095 239.746093 -312.190612 222.159849 -312.190612 C 204.573604 -312.190612 190.318088 -297.935095 190.318088 -280.348851 Z " transform="matrix(0.996873,0,0,0.996873,-183.687785,664.620605)"/>
</g>
<g clip-path="url(#clip3)" clip-rule="nonzero">
<path style="fill:none;stroke-width:2;stroke-linecap:butt;stroke-linejoin:miter;stroke:rgb(13.729858%,12.159729%,12.548828%);stroke-opacity:1;stroke-miterlimit:4;" d="M 261.893475 -629.299436 C 261.893475 -611.713192 276.15291 -597.453757 293.739154 -597.453757 C 311.32148 -597.453757 325.580915 -611.713192 325.580915 -629.299436 C 325.580915 -646.88568 311.32148 -661.141197 293.739154 -661.141197 C 276.15291 -661.141197 261.893475 -646.88568 261.893475 -629.299436 Z " transform="matrix(0.996873,0,0,0.996873,-183.687785,664.620605)"/>
</g>
<g clip-path="url(#clip4)" clip-rule="nonzero">
<path style="fill:none;stroke-width:2;stroke-linecap:butt;stroke-linejoin:miter;stroke:rgb(13.729858%,12.159729%,12.548828%);stroke-opacity:1;stroke-miterlimit:4;" d="M 350.843508 -315.086386 C 350.843508 -297.500142 365.099024 -283.244625 382.685268 -283.244625 C 400.267594 -283.244625 414.527029 -297.500142 414.527029 -315.086386 C 414.527029 -332.67263 400.267594 -346.928146 382.685268 -346.928146 C 365.099024 -346.928146 350.843508 -332.67263 350.843508 -315.086386 Z " transform="matrix(0.996873,0,0,0.996873,-183.687785,664.620605)"/>
</g>
<path style="fill:none;stroke-width:2;stroke-linecap:round;stroke-linejoin:round;stroke:rgb(13.729858%,12.159729%,12.548828%);stroke-opacity:1;stroke-miterlimit:4;" d="M 254.20929 -243.35034 C 254.20929 -243.35034 351.000248 -243.50708 351.000248 -243.50708 " transform="matrix(0.996873,0,0,0.996873,-183.687785,664.620605)"/>
<g clip-path="url(#clip5)" clip-rule="nonzero">
<path style="fill:none;stroke-width:2;stroke-linecap:butt;stroke-linejoin:miter;stroke:rgb(13.729858%,12.159729%,12.548828%);stroke-opacity:1;stroke-miterlimit:4;" d="M 350.185199 -549.824346 C 350.185199 -549.824346 350.05197 -244.036078 350.05197 -244.036078 " transform="matrix(0.996873,0,0,0.996873,-183.687785,664.620605)"/>
</g>
<g clip-path="url(#clip6)" clip-rule="nonzero">
<path style="fill:none;stroke-width:2;stroke-linecap:round;stroke-linejoin:miter;stroke:rgb(13.729858%,12.159729%,12.548828%);stroke-opacity:1;stroke-dasharray:1,4;stroke-miterlimit:4;" d="M 382.685268 -282.241488 C 382.685268 -282.241488 382.685268 -243.389525 382.685268 -243.389525 " transform="matrix(0.996873,0,0,0.996873,-183.687785,664.620605)"/>
</g>
<path style="fill:none;stroke-width:2;stroke-linecap:round;stroke-linejoin:miter;stroke:rgb(13.729858%,12.159729%,12.548828%);stroke-opacity:1;stroke-dasharray:1,4;stroke-miterlimit:4;" d="M 300.310485 -598.421628 C 301.235252 -598.480405 302.171774 -598.621471 303.096541 -598.507835 C 356.893677 -591.928667 379.726798 -550.890179 382.579468 -497.191005 " transform="matrix(0.996873,0,0,0.996873,-183.687785,664.620605)"/>
<path style="fill:none;stroke-width:2;stroke-linecap:round;stroke-linejoin:miter;stroke:rgb(13.729858%,12.159729%,12.548828%);stroke-opacity:1;stroke-dasharray:1,4;stroke-miterlimit:4;" d="M 382.685268 -346.928146 C 382.685268 -346.928146 382.685268 -498.770162 382.685268 -498.770162 " transform="matrix(0.996873,0,0,0.996873,-183.687785,664.620605)"/>
<path style="fill-rule:nonzero;fill:rgb(13.729858%,12.159729%,12.548828%);fill-opacity:1;stroke-width:1;stroke-linecap:butt;stroke-linejoin:miter;stroke:rgb(13.729858%,12.159729%,12.548828%);stroke-opacity:1;stroke-miterlimit:4;" d="M 305.314414 -549.824346 C 305.314414 -548.080611 303.899834 -546.666032 302.160019 -546.666032 C 300.412366 -546.666032 299.001705 -548.080611 299.001705 -549.824346 C 299.001705 -551.56808 300.412366 -552.982659 302.160019 -552.982659 C 303.899834 -552.982659 305.314414 -551.56808 305.314414 -549.824346 Z " transform="matrix(0.996873,0,0,0.996873,-183.687785,664.620605)"/>
<g clip-path="url(#clip7)" clip-rule="nonzero">
<path style="fill:none;stroke-width:2;stroke-linecap:round;stroke-linejoin:miter;stroke:rgb(13.729858%,12.159729%,12.548828%);stroke-opacity:1;stroke-dasharray:1,4;stroke-miterlimit:4;" d="M 382.685268 -243.514917 C 382.685268 -243.514917 351.262788 -243.514917 351.262788 -243.514917 " transform="matrix(0.996873,0,0,0.996873,-183.687785,664.620605)"/>
</g>
</g>
</svg>