<?xml version="1.0" encoding="UTF-8"?><svg xmlns="http://www.w3.org/2000/svg" xmlns:xlink="http://www.w3.org/1999/xlink" viewBox="0 0 180.0428 41.6099" width="95.3964pt" height="22.047172474322775pt" version="1.2">
<defs>
<clipPath id="clip1">
  <path d="M 57 0 L 99 0 L 99 41.222656 L 57 41.222656 Z "/>
</clipPath>
<clipPath id="clip2">
  <path d="M 0.363281 0 L 50 0 L 50 41.222656 L 0.363281 41.222656 Z "/>
</clipPath>
<clipPath id="clip3">
  <path d="M 129 0 L 178.734375 0 L 178.734375 41.222656 L 129 41.222656 Z "/>
</clipPath>
</defs>
<g id="surface1">
<path style="fill:none;stroke-width:2;stroke-linecap:butt;stroke-linejoin:miter;stroke:rgb(13.729858%,12.159729%,12.548828%);stroke-opacity:1;stroke-miterlimit:4;" d="M 310.001949 -728.959937 C 310.001949 -728.959937 364.453008 -728.959937 364.453008 -728.959937 " transform="matrix(0.990712,0,0,0.990712,-219.231996,742.814288)"/>
<path style="fill:none;stroke-width:2;stroke-linecap:butt;stroke-linejoin:miter;stroke:rgb(13.729858%,12.159729%,12.548828%);stroke-opacity:1;stroke-miterlimit:4;" d="M 259.213817 -728.959937 C 259.213817 -728.959937 289.99976 -728.959937 289.99976 -728.959937 " transform="matrix(0.990712,0,0,0.990712,-219.231996,742.814288)"/>
<g clip-path="url(#clip1)" clip-rule="nonzero">
<path style="fill:none;stroke-width:2;stroke-linecap:butt;stroke-linejoin:miter;stroke:rgb(13.729858%,12.159729%,12.548828%);stroke-opacity:1;stroke-miterlimit:4;" d="M 309.181831 -728.557764 C 309.181831 -723.483288 305.073359 -719.370873 299.998883 -719.370873 C 294.92835 -719.370873 290.815935 -723.483288 290.815935 -728.557764 C 290.815935 -733.628297 294.92835 -737.740712 299.998883 -737.740712 C 305.073359 -737.740712 309.181831 -733.628297 309.181831 -728.557764 Z " transform="matrix(0.990712,0,0,0.990712,-219.231996,742.814288)"/>
</g>
<g clip-path="url(#clip2)" clip-rule="nonzero">
<path style="fill:none;stroke-width:2;stroke-linecap:butt;stroke-linejoin:miter;stroke:rgb(13.729858%,12.159729%,12.548828%);stroke-opacity:1;stroke-miterlimit:4;" d="M 260.033935 -728.557764 C 260.033935 -728.557764 244.002218 -712.522105 244.002218 -712.522105 C 244.002218 -712.522105 227.966559 -728.557764 227.966559 -728.557764 C 227.966559 -728.557764 243.998275 -744.589481 243.998275 -744.589481 C 243.998275 -744.589481 260.033935 -728.557764 260.033935 -728.557764 Z " transform="matrix(0.990712,0,0,0.990712,-219.231996,742.814288)"/>
</g>
<g clip-path="url(#clip3)" clip-rule="nonzero">
<path style="fill:none;stroke-width:2;stroke-linecap:butt;stroke-linejoin:miter;stroke:rgb(13.729858%,12.159729%,12.548828%);stroke-opacity:1;stroke-miterlimit:4;" d="M 395.700267 -728.557764 C 395.700267 -728.557764 379.66855 -712.522105 379.66855 -712.522105 C 379.66855 -712.522105 363.63289 -728.557764 363.63289 -728.557764 C 363.63289 -728.557764 379.66855 -744.589481 379.66855 -744.589481 C 379.66855 -744.589481 395.700267 -728.557764 395.700267 -728.557764 Z " transform="matrix(0.990712,0,0,0.990712,-219.231996,742.814288)"/>
</g>
</g>
</svg>