<?xml version="1.0" encoding="UTF-8"?><svg xmlns="http://www.w3.org/2000/svg" xmlns:xlink="http://www.w3.org/1999/xlink" viewBox="0 0 150.867 170" width="260.172pt" height="293.1670941955498pt" version="1.2">
<defs>
<clipPath id="clip1">
  <path d="M 0 62 L 150.734375 62 L 150.734375 64 L 0 64 Z "/>
</clipPath>
<clipPath id="clip2">
  <path d="M 0 20 L 150.734375 20 L 150.734375 69 L 0 69 Z "/>
</clipPath>
<clipPath id="clip3">
  <path d="M 0 56 L 150.734375 56 L 150.734375 104 L 0 104 Z "/>
</clipPath>
<clipPath id="clip4">
  <path d="M 0 0.0742188 L 1 0.0742188 L 1 169.925781 L 0 169.925781 Z "/>
</clipPath>
<clipPath id="clip5">
  <path d="M 149 0.0742188 L 150.734375 0.0742188 L 150.734375 169.925781 L 149 169.925781 Z "/>
</clipPath>
</defs>
<g id="surface1">
<g clip-path="url(#clip1)" clip-rule="nonzero">
<path style="fill:none;stroke-width:1;stroke-linecap:butt;stroke-linejoin:miter;stroke:rgb(13.729858%,12.159729%,12.548828%);stroke-opacity:1;stroke-miterlimit:4;" d="M 0.000440786 -0.00173301 L 149.866817 -0.00173301 " transform="matrix(0.999119,0,0,-0.999119,0.49956,62.646706)"/>
</g>
<g clip-path="url(#clip2)" clip-rule="nonzero">
<path style="fill:none;stroke-width:1;stroke-linecap:butt;stroke-linejoin:miter;stroke:rgb(13.729858%,12.159729%,12.548828%);stroke-opacity:1;stroke-miterlimit:4;" d="M 0.000440786 0.00109894 L 149.866817 -36.472433 " transform="matrix(0.999119,0,0,-0.999119,0.49956,26.208129)"/>
</g>
<g clip-path="url(#clip3)" clip-rule="nonzero">
<path style="fill:none;stroke-width:1;stroke-linecap:butt;stroke-linejoin:miter;stroke:rgb(13.729858%,12.159729%,12.548828%);stroke-opacity:1;stroke-miterlimit:4;" d="M 0.000440786 -0.000637472 L 149.866817 35.292167 " transform="matrix(0.999119,0,0,-0.999119,0.49956,97.909519)"/>
</g>
<g clip-path="url(#clip4)" clip-rule="nonzero">
<path style="fill:none;stroke-width:1;stroke-linecap:butt;stroke-linejoin:miter;stroke:rgb(13.729858%,12.159729%,12.548828%);stroke-opacity:1;stroke-miterlimit:4;" d="M 0.000440786 0.000149372 L 0.000440786 -170.001149 " transform="matrix(0.999119,0,0,-0.999119,0.49956,0.074368)"/>
</g>
<g clip-path="url(#clip5)" clip-rule="nonzero">
<path style="fill:none;stroke-width:1;stroke-linecap:butt;stroke-linejoin:miter;stroke:rgb(13.729858%,12.159729%,12.548828%);stroke-opacity:1;stroke-miterlimit:4;" d="M -0.000382704 0.000149372 L -0.000382704 -170.001149 " transform="matrix(0.999119,0,0,-0.999119,150.234757,0.074368)"/>
</g>
</g>
</svg>