<?xml version="1.0" encoding="UTF-8"?><svg xmlns="http://www.w3.org/2000/svg" xmlns:xlink="http://www.w3.org/1999/xlink" viewBox="0 0 356.88 148.153" width="21.681pt" height="9.000518922326833pt" version="1.2">
<defs>
<clipPath id="clip1">
  <path d="M 0.953125 0 L 208 0 L 208 136 L 0.953125 136 Z "/>
</clipPath>
<clipPath id="clip2">
  <path d="M 92 11 L 355.804688 11 L 355.804688 147.3125 L 92 147.3125 Z "/>
</clipPath>
<clipPath id="clip3">
  <path d="M 247 0 L 355.804688 0 L 355.804688 126 L 247 126 Z "/>
</clipPath>
</defs>
<g id="surface1">
<g clip-path="url(#clip1)" clip-rule="nonzero">
<path style="fill:none;stroke-width:10;stroke-linecap:butt;stroke-linejoin:miter;stroke:rgb(13.729858%,12.159729%,12.548828%);stroke-opacity:1;stroke-miterlimit:4;" d="M 0.000783724 0.00143725 C 13.06332 35.299749 40.626253 59.629459 72.514555 59.629459 C 108.865727 59.629459 139.595098 28.012229 149.632625 -15.426105 " transform="matrix(0.994315,0,0,-0.994315,2.819533,63.751429)"/>
</g>
<g clip-path="url(#clip2)" clip-rule="nonzero">
<path style="fill:none;stroke-width:10;stroke-linecap:butt;stroke-linejoin:miter;stroke:rgb(13.729858%,12.159729%,12.548828%);stroke-opacity:1;stroke-miterlimit:4;" d="M 0.000862224 -0.00151607 C -9.239163 -45.078069 -40.573536 -78.254946 -77.816496 -78.254946 C -115.02017 -78.254946 -146.334899 -45.136998 -155.602425 -0.119374 " transform="matrix(0.994315,0,0,-0.994315,303.729611,67.514118)"/>
</g>
<g clip-path="url(#clip3)" clip-rule="nonzero">
<path style="fill:none;stroke-width:10;stroke-linecap:butt;stroke-linejoin:miter;stroke:rgb(13.729858%,12.159729%,12.548828%);stroke-opacity:1;stroke-miterlimit:4;" d="M -0.000066814 -0.00194814 C 6.427094 28.142415 25.413932 52.228553 51.535075 67.440024 " transform="matrix(0.994315,0,0,-0.994315,303.562566,68.775407)"/>
</g>
</g>
</svg>