<?xml version="1.0" encoding="UTF-8"?><svg xmlns="http://www.w3.org/2000/svg" xmlns:xlink="http://www.w3.org/1999/xlink" viewBox="0 0 73.7637 170.667" width="130.086pt" height="300.9798500075241pt" version="1.2">
<defs>
<clipPath id="clip1">
  <path d="M 0 0.105469 L 1 0.105469 L 1 170.230469 L 0 170.230469 Z "/>
</clipPath>
<clipPath id="clip2">
  <path d="M 72 0.105469 L 73.527344 0.105469 L 73.527344 170.230469 L 72 170.230469 Z "/>
</clipPath>
<clipPath id="clip3">
  <path d="M 21 30 L 73.527344 30 L 73.527344 74 L 21 74 Z "/>
</clipPath>
<clipPath id="clip4">
  <path d="M 23 90 L 73.527344 90 L 73.527344 134 L 23 134 Z "/>
</clipPath>
</defs>
<g id="surface1">
<g clip-path="url(#clip1)" clip-rule="nonzero">
<path style="fill:none;stroke-width:1;stroke-linecap:butt;stroke-linejoin:miter;stroke:rgb(13.729858%,12.159729%,12.548828%);stroke-opacity:1;stroke-miterlimit:4;" d="M 0.00160174 -0.00193387 L 0.00160174 170.668057 " transform="matrix(0.996807,0,0,-0.996807,0.498403,170.228541)"/>
</g>
<g clip-path="url(#clip2)" clip-rule="nonzero">
<path style="fill:none;stroke-width:1;stroke-linecap:butt;stroke-linejoin:miter;stroke:rgb(13.729858%,12.159729%,12.548828%);stroke-opacity:1;stroke-miterlimit:4;" d="M 0.00150362 0.00155692 L 0.00150362 -170.668434 " transform="matrix(0.996807,0,0,-0.996807,73.029751,0.107021)"/>
</g>
<g clip-path="url(#clip3)" clip-rule="nonzero">
<path style="fill:none;stroke-width:1;stroke-linecap:butt;stroke-linejoin:miter;stroke:rgb(13.729858%,12.159729%,12.548828%);stroke-opacity:1;stroke-miterlimit:4;" d="M -0.0015314 0.00023787 C 26.99875 -4.427965 45.871515 -8.965893 45.871515 -16.250875 C 45.871515 -22.76386 30.8313 -28.888887 8.26706 -31.295008 " transform="matrix(0.996807,0,0,-0.996807,26.954652,36.187737)"/>
</g>
<path style="fill:none;stroke-width:1;stroke-linecap:butt;stroke-linejoin:miter;stroke:rgb(13.729858%,12.159729%,12.548828%);stroke-opacity:1;stroke-miterlimit:4;" d="M -0.0011804 0.00180022 C -22.310701 3.128974 -37.213759 8.791587 -37.213759 15.257547 C -37.213759 22.170246 -20.206325 28.20906 4.68958 31.12462 " transform="matrix(0.996807,0,0,-0.996807,38.040239,97.423669)"/>
<path style="fill:none;stroke-width:1;stroke-linecap:butt;stroke-linejoin:miter;stroke:rgb(13.729858%,12.159729%,12.548828%);stroke-opacity:1;stroke-miterlimit:4;" d="M 0.00183521 -0.0019296 C -20.563836 2.992006 -34.299102 8.407737 -34.299102 14.595465 C -34.299102 16.057163 -33.527106 17.479675 -32.081082 18.835567 " transform="matrix(0.996807,0,0,-0.996807,35.334108,37.615264)"/>
<g clip-path="url(#clip4)" clip-rule="nonzero">
<path style="fill:none;stroke-width:1;stroke-linecap:butt;stroke-linejoin:miter;stroke:rgb(13.729858%,12.159729%,12.548828%);stroke-opacity:1;stroke-miterlimit:4;" d="M -0.000541698 -0.0014449 C 25.224539 -3.704676 43.431115 -9.508365 43.431115 -16.844291 C 43.431115 -23.251469 29.766386 -28.867057 9.298684 -31.978556 " transform="matrix(0.996807,0,0,-0.996807,29.387259,96.014185)"/>
</g>
<path style="fill:none;stroke-width:1;stroke-linecap:butt;stroke-linejoin:miter;stroke:rgb(13.729858%,12.159729%,12.548828%);stroke-opacity:1;stroke-miterlimit:4;" d="M -0.00162688 0.000188295 C -3.975253 2.081052 -5.911122 4.306909 -5.911122 6.716949 C -5.911122 13.500329 29.612469 21.353531 33.546908 21.835539 " transform="matrix(0.996807,0,0,-0.996807,6.657872,149.449406)"/>
</g>
</svg>