<?xml version="1.0" encoding="UTF-8"?><svg xmlns="http://www.w3.org/2000/svg" xmlns:xlink="http://www.w3.org/1999/xlink" viewBox="0 0 321.6765 27.2065" width="151.767pt" height="12.836029008957757pt" version="1.2">
<defs>
<clipPath id="clip1">
  <path d="M 116 0 L 184 0 L 184 26.433594 L 116 26.433594 Z "/>
</clipPath>
<clipPath id="clip2">
  <path d="M 4.402344 0 L 111 0 L 111 26.433594 L 4.402344 26.433594 Z "/>
</clipPath>
<clipPath id="clip3">
  <path d="M 211 0 L 316.960938 0 L 316.960938 26.433594 L 211 26.433594 Z "/>
</clipPath>
</defs>
<g id="surface1">
<path style="fill:none;stroke-width:2;stroke-linecap:butt;stroke-linejoin:miter;stroke:rgb(13.729858%,12.159729%,12.548828%);stroke-opacity:1;stroke-miterlimit:4;" d="M 312.001804 -728.960069 C 312.001804 -728.960069 364.45308 -728.960069 364.45308 -728.960069 " transform="matrix(0.971661,0,0,0.971661,-130.886458,720.754987)"/>
<path style="fill:none;stroke-width:2;stroke-linecap:butt;stroke-linejoin:miter;stroke:rgb(13.729858%,12.159729%,12.548828%);stroke-opacity:1;stroke-miterlimit:4;" d="M 236.21339 -728.960069 C 236.21339 -728.960069 265.998896 -728.960069 265.998896 -728.960069 " transform="matrix(0.971661,0,0,0.971661,-130.886458,720.754987)"/>
<g clip-path="url(#clip1)" clip-rule="nonzero">
<path style="fill:none;stroke-width:2;stroke-linecap:butt;stroke-linejoin:miter;stroke:rgb(13.729858%,12.159729%,12.548828%);stroke-opacity:1;stroke-miterlimit:4;" d="M 265.998896 -728.224377 C 265.998896 -733.193318 270.031135 -737.221537 275.000077 -737.221537 C 275.000077 -737.221537 303.000623 -737.221537 303.000623 -737.221537 C 307.969565 -737.221537 312.001804 -733.193318 312.001804 -728.224377 C 312.001804 -723.251415 307.969565 -719.223196 303.000623 -719.223196 C 303.000623 -719.223196 275.000077 -719.223196 275.000077 -719.223196 C 270.031135 -719.223196 265.998896 -723.251415 265.998896 -728.224377 Z " transform="matrix(0.971661,0,0,0.971661,-130.886458,720.754987)"/>
</g>
<g clip-path="url(#clip2)" clip-rule="nonzero">
<path style="fill:none;stroke-width:2;stroke-linecap:butt;stroke-linejoin:miter;stroke:rgb(13.729858%,12.159729%,12.548828%);stroke-opacity:1;stroke-miterlimit:4;" d="M 144.999548 -729.221381 C 144.999548 -734.194342 153.060007 -738.222562 163.00191 -738.222562 C 163.00191 -738.222562 218.998983 -738.222562 218.998983 -738.222562 C 228.940886 -738.222562 237.001345 -734.194342 237.001345 -729.221381 C 237.001345 -724.25244 228.940886 -720.22422 218.998983 -720.22422 C 218.998983 -720.22422 163.00191 -720.22422 163.00191 -720.22422 C 153.060007 -720.22422 144.999548 -724.25244 144.999548 -729.221381 Z " transform="matrix(0.971661,0,0,0.971661,-130.886458,720.754987)"/>
</g>
<g clip-path="url(#clip3)" clip-rule="nonzero">
<path style="fill:none;stroke-width:2;stroke-linecap:butt;stroke-linejoin:miter;stroke:rgb(13.729858%,12.159729%,12.548828%);stroke-opacity:1;stroke-miterlimit:4;" d="M 363.665125 -729.555056 C 363.665125 -734.528017 371.725583 -738.556237 381.667486 -738.556237 C 381.667486 -738.556237 437.66858 -738.556237 437.66858 -738.556237 C 447.606462 -738.556237 455.666921 -734.528017 455.666921 -729.555056 C 455.666921 -724.586115 447.606462 -720.557895 437.66858 -720.557895 C 437.66858 -720.557895 381.667486 -720.557895 381.667486 -720.557895 C 371.725583 -720.557895 363.665125 -724.586115 363.665125 -729.555056 Z " transform="matrix(0.971661,0,0,0.971661,-130.886458,720.754987)"/>
</g>
</g>
</svg>