<?xml version="1.0" encoding="UTF-8"?><svg xmlns="http://www.w3.org/2000/svg" xmlns:xlink="http://www.w3.org/1999/xlink" viewBox="0 0 209.667 180.333" width="216.8pt" height="186.46803931949236pt" version="1.2">
<defs>
<clipPath id="clip1">
  <path d="M 0.21875 0 L 2 0 L 2 179.667969 L 0.21875 179.667969 Z "/>
</clipPath>
<clipPath id="clip2">
  <path d="M 0.21875 26 L 56 26 L 56 28 L 0.21875 28 Z "/>
</clipPath>
</defs>
<g id="surface1">
<g clip-path="url(#clip1)" clip-rule="nonzero">
<path style="fill:none;stroke-width:1.5;stroke-linecap:round;stroke-linejoin:miter;stroke:rgb(13.729858%,12.159729%,12.548828%);stroke-opacity:1;stroke-miterlimit:4;" d="M 0.00108411 0.000646663 L 0.00108411 -178.834156 " transform="matrix(0.996315,0,0,-0.996315,0.96767,0.746738)"/>
</g>
<g clip-path="url(#clip2)" clip-rule="nonzero">
<path style="fill:none;stroke-width:1.5;stroke-linecap:butt;stroke-linejoin:miter;stroke:rgb(13.729858%,12.159729%,12.548828%);stroke-opacity:1;stroke-miterlimit:4;" d="M 0.00108411 -0.00118246 L 53.808745 -0.00118246 " transform="matrix(0.996315,0,0,-0.996315,0.96767,26.983197)"/>
</g>
<path style="fill:none;stroke-width:1.5;stroke-linecap:round;stroke-linejoin:miter;stroke:rgb(13.729858%,12.159729%,12.548828%);stroke-opacity:1;stroke-miterlimit:4;" d="M 0.00133083 -0.00118246 L 0.00133083 -27.312765 " transform="matrix(0.996315,0,0,-0.996315,54.498674,26.983197)"/>
<path style="fill:none;stroke-width:1.5;stroke-linecap:round;stroke-linejoin:miter;stroke:rgb(13.729858%,12.159729%,12.548828%);stroke-opacity:1;stroke-miterlimit:4;" d="M 0.001562 -0.000958912 L 42.396071 -0.000958912 " transform="matrix(0.996315,0,0,-0.996315,54.560944,54.381857)"/>
<path style="fill:none;stroke-width:1.5;stroke-linecap:round;stroke-linejoin:miter;stroke:rgb(13.729858%,12.159729%,12.548828%);stroke-opacity:1;stroke-miterlimit:4;" d="M 0.00146704 -0.00119008 L 0.00146704 -26.810924 " transform="matrix(0.996315,0,0,-0.996315,96.779788,54.444127)"/>
<path style="fill:none;stroke-width:1.5;stroke-linecap:round;stroke-linejoin:miter;stroke:rgb(13.729858%,12.159729%,12.548828%);stroke-opacity:1;stroke-miterlimit:4;" d="M 0.00146704 0.00111399 L 34.409514 0.00111399 " transform="matrix(0.996315,0,0,-0.996315,96.779788,81.28236)"/>
<path style="fill:none;stroke-width:1.5;stroke-linecap:round;stroke-linejoin:miter;stroke:rgb(13.729858%,12.159729%,12.548828%);stroke-opacity:1;stroke-miterlimit:4;" d="M -0.000541572 0.00088282 L -0.000541572 -26.812771 " transform="matrix(0.996315,0,0,-0.996315,131.090383,81.34463)"/>
<path style="fill:none;stroke-width:1.5;stroke-linecap:round;stroke-linejoin:miter;stroke:rgb(13.729858%,12.159729%,12.548828%);stroke-opacity:1;stroke-miterlimit:4;" d="M -0.000310402 -0.000733808 L 24.813788 -0.000733808 " transform="matrix(0.996315,0,0,-0.996315,131.152653,108.182863)"/>
</g>
</svg>