<?xml version="1.0" encoding="UTF-8"?><svg xmlns="http://www.w3.org/2000/svg" xmlns:xlink="http://www.w3.org/1999/xlink" viewBox="0 0 228.8544 288.8688" width="216.8pt" height="273.6532740467302pt" version="1.2">
<defs>
<clipPath id="clip1">
  <path d="M 198 3 L 228.707031 3 L 228.707031 288.710938 L 198 288.710938 Z "/>
</clipPath>
<clipPath id="clip2">
  <path d="M 0 3 L 35 3 L 35 288.710938 L 0 288.710938 Z "/>
</clipPath>
<clipPath id="clip3">
  <path d="M 0 163 L 228.707031 163 L 228.707031 198 L 0 198 Z "/>
</clipPath>
<clipPath id="clip4">
  <path d="M 0 162 L 228.707031 162 L 228.707031 282 L 0 282 Z "/>
</clipPath>
<clipPath id="clip5">
  <path d="M 0 78 L 228.707031 78 L 228.707031 197 L 0 197 Z "/>
</clipPath>
<clipPath id="clip6">
  <path d="M 0 60 L 228.707031 60 L 228.707031 95 L 0 95 Z "/>
</clipPath>
<clipPath id="clip7">
  <path d="M 0 105 L 228.707031 105 L 228.707031 140 L 0 140 Z "/>
</clipPath>
<clipPath id="clip8">
  <path d="M 0 36 L 228.707031 36 L 228.707031 165 L 0 165 Z "/>
</clipPath>
</defs>
<g id="surface1">
<g clip-path="url(#clip1)" clip-rule="nonzero">
<path style="fill:none;stroke-width:3;stroke-linecap:butt;stroke-linejoin:miter;stroke:rgb(13.729858%,12.159729%,12.548828%);stroke-opacity:1;stroke-miterlimit:4;" d="M 348.967931 -751.888477 C 348.967931 -751.888477 348.967931 -499.888409 348.967931 -499.888409 " transform="matrix(0.999364,0,0,0.999364,-133.546836,771.719014)"/>
</g>
<g clip-path="url(#clip2)" clip-rule="nonzero">
<path style="fill:none;stroke-width:3;stroke-linecap:butt;stroke-linejoin:miter;stroke:rgb(13.729858%,12.159729%,12.548828%);stroke-opacity:1;stroke-miterlimit:4;" d="M 150.967041 -499.888409 C 150.967041 -499.888409 150.967041 -751.888477 150.967041 -751.888477 " transform="matrix(0.999364,0,0,0.999364,-133.546836,771.719014)"/>
</g>
<g clip-path="url(#clip3)" clip-rule="nonzero">
<path style="fill:none;stroke-width:3;stroke-linecap:butt;stroke-linejoin:miter;stroke:rgb(13.729858%,12.159729%,12.548828%);stroke-opacity:1;stroke-miterlimit:4;" d="M 348.666959 -591.989937 C 348.666959 -591.989937 150.666068 -591.989937 150.666068 -591.989937 " transform="matrix(0.999364,0,0,0.999364,-133.546836,771.719014)"/>
</g>
<g clip-path="url(#clip4)" clip-rule="nonzero">
<path style="fill:none;stroke-width:3;stroke-linecap:butt;stroke-linejoin:miter;stroke:rgb(13.729858%,12.159729%,12.548828%);stroke-opacity:1;stroke-miterlimit:4;" d="M 348.666959 -592.470711 C 348.666959 -545.511167 258.117199 -507.510443 150.666068 -507.510443 " transform="matrix(0.999364,0,0,0.999364,-133.546836,771.719014)"/>
</g>
<g clip-path="url(#clip5)" clip-rule="nonzero">
<path style="fill:none;stroke-width:3;stroke-linecap:butt;stroke-linejoin:miter;stroke:rgb(13.729858%,12.159729%,12.548828%);stroke-opacity:1;stroke-miterlimit:4;" d="M 348.666959 -592.111108 C 348.666959 -639.070652 258.117199 -677.071376 150.666068 -677.071376 " transform="matrix(0.999364,0,0,0.999364,-133.546836,771.719014)"/>
</g>
<g clip-path="url(#clip6)" clip-rule="nonzero">
<path style="fill:none;stroke-width:3;stroke-linecap:butt;stroke-linejoin:miter;stroke:rgb(13.729858%,12.159729%,12.548828%);stroke-opacity:1;stroke-miterlimit:4;" d="M 151.268013 -694.590327 C 151.268013 -694.590327 349.264995 -694.590327 349.264995 -694.590327 " transform="matrix(0.999364,0,0,0.999364,-133.546836,771.719014)"/>
</g>
<g clip-path="url(#clip7)" clip-rule="nonzero">
<path style="fill:none;stroke-width:3;stroke-linecap:butt;stroke-linejoin:miter;stroke:rgb(13.729858%,12.159729%,12.548828%);stroke-opacity:1;stroke-miterlimit:4;" d="M 150.064123 -649.288086 C 150.064123 -649.288086 348.967931 -649.288086 348.967931 -649.288086 " transform="matrix(0.999364,0,0,0.999364,-133.546836,771.719014)"/>
</g>
<g clip-path="url(#clip8)" clip-rule="nonzero">
<path style="fill:none;stroke-width:3;stroke-linecap:butt;stroke-linejoin:miter;stroke:rgb(13.729858%,12.159729%,12.548828%);stroke-opacity:1;stroke-miterlimit:4;" d="M 150.365095 -718.890934 C 150.365095 -718.890934 349.264995 -624.389443 349.264995 -624.389443 " transform="matrix(0.999364,0,0,0.999364,-133.546836,771.719014)"/>
</g>
<path style="fill:none;stroke-width:3;stroke-linecap:butt;stroke-linejoin:miter;stroke:rgb(13.729858%,12.159729%,12.548828%);stroke-opacity:1;stroke-miterlimit:4;" d="M 151.268013 -676.289629 C 151.268013 -676.289629 328.466615 -592.099381 328.466615 -592.099381 " transform="matrix(0.999364,0,0,0.999364,-133.546836,771.719014)"/>
</g>
</svg>