<?xml version="1.0" encoding="UTF-8"?><svg xmlns="http://www.w3.org/2000/svg" xmlns:xlink="http://www.w3.org/1999/xlink" viewBox="0 0 268.601 260.158" width="195.129pt" height="188.9954630920957pt" version="1.2">
<defs>
<clipPath id="clip1">
  <path d="M 0.234375 15 L 109 15 L 109 259.320312 L 0.234375 259.320312 Z "/>
</clipPath>
<clipPath id="clip2">
  <path d="M 173 103 L 267.96875 103 L 267.96875 214 L 173 214 Z "/>
</clipPath>
</defs>
<g id="surface1">
<g clip-path="url(#clip1)" clip-rule="nonzero">
<path style="fill:none;stroke-width:3;stroke-linecap:butt;stroke-linejoin:miter;stroke:rgb(13.729858%,12.159729%,12.548828%);stroke-opacity:1;stroke-miterlimit:4;" d="M -0.00172587 -0.00190632 L -89.999093 -41.00136 L -89.999093 142.998483 L -0.00172587 184.001856 Z " transform="matrix(0.996774,0,0,-0.996774,91.43922,216.127006)"/>
</g>
<path style="fill:none;stroke-width:3;stroke-linecap:butt;stroke-linejoin:miter;stroke:rgb(13.729858%,12.159729%,12.548828%);stroke-opacity:1;stroke-miterlimit:4;" d="M 0.000351427 0.000537204 L 0.000351427 -1.500399 " transform="matrix(0.996774,0,0,-0.996774,228.163712,71.594285)"/>
<path style="fill:none;stroke-width:3;stroke-linecap:butt;stroke-linejoin:miter;stroke:rgb(13.729858%,12.159729%,12.548828%);stroke-opacity:1;stroke-miterlimit:4;" d="M 0.000351427 0.000101355 L -181.001539 -81.998807 L -181.001539 -11.00023 L 0.000351427 70.998678 L 0.000351427 -47.500795 " transform="matrix(0.996774,0,0,-0.996774,228.163712,73.089945)"/>
<g clip-path="url(#clip2)" clip-rule="nonzero">
<path style="fill:none;stroke-width:3;stroke-linecap:butt;stroke-linejoin:miter;stroke:rgb(13.729858%,12.159729%,12.548828%);stroke-opacity:1;stroke-miterlimit:4;" d="M -0.000669261 0.00112243 C -0.000669261 -21.133465 -17.134068 -38.266863 -38.268655 -38.266863 C -59.403243 -38.266863 -76.536641 -21.133465 -76.536641 0.00112243 C -76.536641 21.13571 -59.403243 38.269108 -38.268655 38.269108 C -17.134068 38.269108 -0.000669261 21.13571 -0.000669261 0.00112243 Z " transform="matrix(0.996774,0,0,-0.996774,266.473323,158.313619)"/>
</g>
</g>
</svg>