<?xml version="1.0" encoding="UTF-8"?><svg xmlns="http://www.w3.org/2000/svg" xmlns:xlink="http://www.w3.org/1999/xlink" viewBox="0 0 248.059 298.471" width="216.8pt" height="260.8593632966351pt" version="1.2">
<defs>
<clipPath id="clip1">
  <path d="M 7 0.300781 L 42 0.300781 L 42 295 L 7 295 Z "/>
</clipPath>
<clipPath id="clip2">
  <path d="M 6 0.300781 L 239 0.300781 L 239 293 L 6 293 Z "/>
</clipPath>
</defs>
<g id="surface1">
<g clip-path="url(#clip1)" clip-rule="nonzero">
<path style="fill:none;stroke-width:3;stroke-linecap:butt;stroke-linejoin:miter;stroke:rgb(13.729858%,12.159729%,12.548828%);stroke-opacity:1;stroke-miterlimit:4;" d="M 215.995282 -765.383767 C 215.995282 -765.383767 215.995282 -503.064307 215.995282 -503.064307 " transform="matrix(0.996221,0,0,0.996221,-190.522761,779.131918)"/>
</g>
<path style="fill:none;stroke-width:3;stroke-linecap:butt;stroke-linejoin:miter;stroke:rgb(13.729858%,12.159729%,12.548828%);stroke-opacity:1;stroke-miterlimit:4;" d="M 214.897383 -731.423396 C 214.897383 -731.423396 306.744484 -731.423396 306.744484 -731.423396 " transform="matrix(0.996221,0,0,0.996221,-190.522761,779.131918)"/>
<path style="fill:none;stroke-width:3;stroke-linecap:butt;stroke-linejoin:miter;stroke:rgb(13.729858%,12.159729%,12.548828%);stroke-opacity:1;stroke-miterlimit:4;" d="M 215.007173 -560.872615 C 215.007173 -560.872615 401.897045 -560.872615 401.897045 -560.872615 " transform="matrix(0.996221,0,0,0.996221,-190.522761,779.131918)"/>
<g clip-path="url(#clip2)" clip-rule="nonzero">
<path style="fill:none;stroke-width:3;stroke-linecap:butt;stroke-linejoin:miter;stroke:rgb(13.729858%,12.159729%,12.548828%);stroke-opacity:1;stroke-miterlimit:4;" d="M 413.628881 -505.522816 C 387.59691 -649.524045 324.746108 -764.481922 214.897383 -764.481922 " transform="matrix(0.996221,0,0,0.996221,-190.522761,779.131918)"/>
</g>
<path style="fill:none;stroke-width:3;stroke-linecap:butt;stroke-linejoin:miter;stroke:rgb(13.729858%,12.159729%,12.548828%);stroke-opacity:1;stroke-miterlimit:4;" d="M 216.108993 -617.273259 C 216.108993 -617.273259 383.197471 -617.273259 383.197471 -617.273259 " transform="matrix(0.996221,0,0,0.996221,-190.522761,779.131918)"/>
<path style="fill:none;stroke-width:3;stroke-linecap:butt;stroke-linejoin:miter;stroke:rgb(13.729858%,12.159729%,12.548828%);stroke-opacity:1;stroke-miterlimit:4;" d="M 216.108993 -674.273827 C 216.108993 -674.273827 355.69902 -674.273827 355.69902 -674.273827 " transform="matrix(0.996221,0,0,0.996221,-190.522761,779.131918)"/>
<path style="fill:none;stroke-width:3;stroke-linecap:butt;stroke-linejoin:miter;stroke:rgb(13.729858%,12.159729%,12.548828%);stroke-opacity:1;stroke-miterlimit:4;" d="M 382.832812 -617.273259 C 382.832812 -617.273259 382.832812 -560.123691 382.832812 -560.123691 " transform="matrix(0.996221,0,0,0.996221,-190.522761,779.131918)"/>
<path style="fill:none;stroke-width:3;stroke-linecap:butt;stroke-linejoin:miter;stroke:rgb(13.729858%,12.159729%,12.548828%);stroke-opacity:1;stroke-miterlimit:4;" d="M 354.965781 -674.273827 C 354.965781 -674.273827 354.965781 -616.673336 354.965781 -616.673336 " transform="matrix(0.996221,0,0,0.996221,-190.522761,779.131918)"/>
<path style="fill:none;stroke-width:3;stroke-linecap:butt;stroke-linejoin:miter;stroke:rgb(13.729858%,12.159729%,12.548828%);stroke-opacity:1;stroke-miterlimit:4;" d="M 305.830875 -731.780213 C 305.830875 -731.780213 305.830875 -673.673904 305.830875 -673.673904 " transform="matrix(0.996221,0,0,0.996221,-190.522761,779.131918)"/>
</g>
</svg>