<?xml version="1.0" encoding="UTF-8"?><svg xmlns="http://www.w3.org/2000/svg" xmlns:xlink="http://www.w3.org/1999/xlink" viewBox="0 0 371.375 225.092" width="216.81pt" height="131.40948238303602pt" version="1.2">
<defs>
<clipPath id="clip1">
  <path d="M 160 179 L 213 179 L 213 224.1875 L 160 224.1875 Z "/>
</clipPath>
<clipPath id="clip2">
  <path d="M 0.433594 0 L 117 0 L 117 142 L 0.433594 142 Z "/>
</clipPath>
<clipPath id="clip3">
  <path d="M 339 56 L 370.316406 56 L 370.316406 78 L 339 78 Z "/>
</clipPath>
</defs>
<g id="surface1">
<path style="fill:none;stroke-width:1.5;stroke-linecap:round;stroke-linejoin:miter;stroke:rgb(13.729858%,12.159729%,12.548828%);stroke-opacity:1;stroke-miterlimit:4;" d="M -0.000965631 0.000404347 L 141.595269 0.000404347 " transform="matrix(0.995982,0,0,-0.995982,32.692368,94.250403)"/>
<path style="fill:none;stroke-width:1.5;stroke-linecap:butt;stroke-linejoin:miter;stroke:rgb(13.729858%,12.159729%,12.548828%);stroke-opacity:1;stroke-miterlimit:4;" d="M 0.0000538669 0.000855965 L -1.000058 0.000855965 " transform="matrix(0.995982,0,0,-0.995982,199.257759,87.106321)"/>
<path style="fill:none;stroke-width:1.5;stroke-linecap:butt;stroke-linejoin:miter;stroke:rgb(13.729858%,12.159729%,12.548828%);stroke-opacity:1;stroke-dasharray:1.997,2.996;stroke-miterlimit:4;" d="M -0.00037172 0.000855965 L -133.309405 0.000855965 " transform="matrix(0.995982,0,0,-0.995982,195.277714,87.106321)"/>
<path style="fill:none;stroke-width:1.5;stroke-linecap:butt;stroke-linejoin:miter;stroke:rgb(13.729858%,12.159729%,12.548828%);stroke-opacity:1;stroke-miterlimit:4;" d="M -0.000511649 0.000855965 L -1.000624 0.000855965 " transform="matrix(0.995982,0,0,-0.995982,61.012228,87.106321)"/>
<path style="fill:none;stroke-width:1.5;stroke-linecap:butt;stroke-linejoin:miter;stroke:rgb(13.729858%,12.159729%,12.548828%);stroke-opacity:1;stroke-miterlimit:4;" d="M -0.00156638 -0.00129224 L 141.779003 -0.00129224 " transform="matrix(0.995982,0,0,-0.995982,32.302341,44.194025)"/>
<path style="fill:none;stroke-width:1.5;stroke-linecap:round;stroke-linejoin:miter;stroke:rgb(13.729858%,12.159729%,12.548828%);stroke-opacity:1;stroke-miterlimit:4;" d="M 0.000979574 -0.00187958 L 140.867721 -0.00187958 " transform="matrix(0.995982,0,0,-0.995982,59.553712,37.552815)"/>
<path style="fill:none;stroke-width:1;stroke-linecap:butt;stroke-linejoin:miter;stroke:rgb(13.729858%,12.159729%,12.548828%);stroke-opacity:1;stroke-miterlimit:4;" d="M 0.00121844 -0.00180286 L 0.00121844 -96.942061 " transform="matrix(0.995982,0,0,-0.995982,186.967536,90.681798)"/>
<g clip-path="url(#clip1)" clip-rule="nonzero">
<path style="fill:none;stroke-width:1.5;stroke-linecap:butt;stroke-linejoin:miter;stroke:rgb(13.729858%,12.159729%,12.548828%);stroke-opacity:1;stroke-miterlimit:4;" d="M 0.00161336 -0.000171949 C 0.00161336 -9.879709 -7.8777 -17.888448 -17.596434 -17.888448 C -27.315168 -17.888448 -35.194481 -9.879709 -35.194481 -0.000171949 C -35.194481 9.879365 -27.315168 17.888104 -17.596434 17.888104 C -7.8777 17.888104 0.00161336 9.879365 0.00161336 -0.000171949 Z " transform="matrix(0.995982,0,0,-0.995982,204.236674,205.624829)"/>
</g>
<path style="fill:none;stroke-width:1.5;stroke-linecap:butt;stroke-linejoin:miter;stroke:rgb(13.729858%,12.159729%,12.548828%);stroke-opacity:1;stroke-miterlimit:4;" d="M -0.000569993 -0.00139989 C -0.000569993 -4.14304 3.356668 -7.500278 7.498308 -7.500278 C 11.64387 -7.500278 15.001108 -4.14304 15.001108 -0.00139989 C 15.001108 4.14024 11.64387 7.5014 7.498308 7.5014 C 3.356668 7.5014 -0.000569993 4.14024 -0.000569993 -0.00139989 Z " transform="matrix(0.995982,0,0,-0.995982,334.684161,67.092356)"/>
<path style="fill:none;stroke-width:1;stroke-linecap:butt;stroke-linejoin:miter;stroke:rgb(13.729858%,12.159729%,12.548828%);stroke-opacity:1;stroke-miterlimit:4;" d="M -0.00139422 -0.00113461 L -0.00139422 50.463335 " transform="matrix(0.995982,0,0,-0.995982,71.204514,94.752776)"/>
<path style="fill:none;stroke-width:1;stroke-linecap:butt;stroke-linejoin:miter;stroke:rgb(13.729858%,12.159729%,12.548828%);stroke-opacity:1;stroke-miterlimit:4;" d="M -0.00150322 -0.00163461 L -0.00150322 50.462835 " transform="matrix(0.995982,0,0,-0.995982,45.501497,94.752278)"/>
<path style="fill:none;stroke-width:1;stroke-linecap:butt;stroke-linejoin:miter;stroke:rgb(13.729858%,12.159729%,12.548828%);stroke-opacity:1;stroke-miterlimit:4;" d="M 0.000922402 -0.00113461 L 0.000922402 50.463335 " transform="matrix(0.995982,0,0,-0.995982,87.268613,94.752776)"/>
<path style="fill:none;stroke-width:1;stroke-linecap:butt;stroke-linejoin:miter;stroke:rgb(13.729858%,12.159729%,12.548828%);stroke-opacity:1;stroke-miterlimit:4;" d="M -0.000113021 0.00171743 L -0.000113021 49.462153 " transform="matrix(0.995982,0,0,-0.995982,102.261831,93.681398)"/>
<path style="fill:none;stroke-width:1;stroke-linecap:butt;stroke-linejoin:miter;stroke:rgb(13.729858%,12.159729%,12.548828%);stroke-opacity:1;stroke-miterlimit:4;" d="M -0.00114844 -0.00113461 L -0.00114844 50.463335 " transform="matrix(0.995982,0,0,-0.995982,117.25505,94.752776)"/>
<path style="fill:none;stroke-width:1;stroke-linecap:butt;stroke-linejoin:miter;stroke:rgb(13.729858%,12.159729%,12.548828%);stroke-opacity:1;stroke-miterlimit:4;" d="M -0.00161391 -0.00113461 L -0.00161391 50.463335 " transform="matrix(0.995982,0,0,-0.995982,131.177389,94.752776)"/>
<path style="fill:none;stroke-width:1;stroke-linecap:butt;stroke-linejoin:miter;stroke:rgb(13.729858%,12.159729%,12.548828%);stroke-opacity:1;stroke-miterlimit:4;" d="M 0.00127717 -0.00163461 L 0.00127717 50.462835 " transform="matrix(0.995982,0,0,-0.995982,159.022165,94.752278)"/>
<path style="fill:none;stroke-width:1;stroke-linecap:butt;stroke-linejoin:miter;stroke:rgb(13.729858%,12.159729%,12.548828%);stroke-opacity:1;stroke-miterlimit:4;" d="M 0.00127268 0.000535575 L 0.00127268 49.460971 " transform="matrix(0.995982,0,0,-0.995982,146.170607,93.606002)"/>
<path style="fill:none;stroke-width:1;stroke-linecap:butt;stroke-linejoin:miter;stroke:rgb(13.729858%,12.159729%,12.548828%);stroke-opacity:1;stroke-miterlimit:4;" d="M -0.00092876 -0.00113461 L -0.00092876 50.463335 " transform="matrix(0.995982,0,0,-0.995982,57.282175,94.752776)"/>
<g clip-path="url(#clip2)" clip-rule="nonzero">
<path style="fill:none;stroke-width:0.75;stroke-linecap:butt;stroke-linejoin:miter;stroke:rgb(13.729858%,12.159729%,12.548828%);stroke-opacity:1;stroke-miterlimit:4;" d="M 0.000220986 -0.00125727 L -112.40059 -24.537336 L -112.40059 88.385103 L 0.000220986 112.921181 Z " transform="matrix(0.995982,0,0,-0.995982,112.757592,112.932342)"/>
</g>
<path style="fill:none;stroke-width:1;stroke-linecap:butt;stroke-linejoin:miter;stroke:rgb(13.729858%,12.159729%,12.548828%);stroke-opacity:1;stroke-miterlimit:4;" d="M 0.000728036 -0.00089989 L 147.47213 -0.00089989 " transform="matrix(0.995982,0,0,-0.995982,187.803962,67.092854)"/>
<path style="fill:none;stroke-width:1.5;stroke-linecap:round;stroke-linejoin:miter;stroke:rgb(13.729858%,12.159729%,12.548828%);stroke-opacity:1;stroke-miterlimit:4;" d="M -0.000965631 0.00192286 L -0.000965631 49.987908 " transform="matrix(0.995982,0,0,-0.995982,32.692368,93.982384)"/>
<path style="fill:none;stroke-width:1.5;stroke-linecap:butt;stroke-linejoin:miter;stroke:rgb(13.729858%,12.159729%,12.548828%);stroke-opacity:1;stroke-miterlimit:4;" d="M 0.00019578 0.000805825 L 27.034593 6.452508 " transform="matrix(0.995982,0,0,-0.995982,32.382618,44.160959)"/>
<path style="fill:none;stroke-width:1;stroke-linecap:butt;stroke-linejoin:miter;stroke:rgb(13.729858%,12.159729%,12.548828%);stroke-opacity:1;stroke-miterlimit:4;" d="M 0.00165046 0.000805825 L 26.326164 6.589778 " transform="matrix(0.995982,0,0,-0.995982,45.330387,44.160959)"/>
<path style="fill:none;stroke-width:1;stroke-linecap:butt;stroke-linejoin:miter;stroke:rgb(13.729858%,12.159729%,12.548828%);stroke-opacity:1;stroke-miterlimit:4;" d="M -0.000558127 0.000805825 L 26.849505 6.656452 " transform="matrix(0.995982,0,0,-0.995982,57.613837,44.160959)"/>
<path style="fill:none;stroke-width:1;stroke-linecap:butt;stroke-linejoin:miter;stroke:rgb(13.729858%,12.159729%,12.548828%);stroke-opacity:1;stroke-miterlimit:4;" d="M 0.000767189 0.000805825 L 27.031243 6.589778 " transform="matrix(0.995982,0,0,-0.995982,70.893767,44.160959)"/>
<path style="fill:none;stroke-width:1;stroke-linecap:butt;stroke-linejoin:miter;stroke:rgb(13.729858%,12.159729%,12.548828%);stroke-opacity:1;stroke-miterlimit:4;" d="M -0.00147634 0.000805825 L 27.032921 6.581934 " transform="matrix(0.995982,0,0,-0.995982,85.833502,44.160959)"/>
<path style="fill:none;stroke-width:1;stroke-linecap:butt;stroke-linejoin:miter;stroke:rgb(13.729858%,12.159729%,12.548828%);stroke-opacity:1;stroke-miterlimit:4;" d="M 0.0000727751 0.000805825 L 27.03447 6.597622 " transform="matrix(0.995982,0,0,-0.995982,101.105396,44.160959)"/>
<path style="fill:none;stroke-width:1;stroke-linecap:butt;stroke-linejoin:miter;stroke:rgb(13.729858%,12.159729%,12.548828%);stroke-opacity:1;stroke-miterlimit:4;" d="M 0.00188062 0.000805825 L 27.032356 6.648608 " transform="matrix(0.995982,0,0,-0.995982,115.712971,44.160959)"/>
<path style="fill:none;stroke-width:1;stroke-linecap:butt;stroke-linejoin:miter;stroke:rgb(13.729858%,12.159729%,12.548828%);stroke-opacity:1;stroke-miterlimit:4;" d="M -0.000733537 0.000935192 L 27.033664 6.923278 " transform="matrix(0.995982,0,0,-0.995982,130.321043,44.493119)"/>
<path style="fill:none;stroke-width:1;stroke-linecap:butt;stroke-linejoin:miter;stroke:rgb(13.729858%,12.159729%,12.548828%);stroke-opacity:1;stroke-miterlimit:4;" d="M 0.00142747 -0.00038451 L 25.184637 6.859207 " transform="matrix(0.995982,0,0,-0.995982,146.588422,44.335555)"/>
<path style="fill:none;stroke-width:1;stroke-linecap:butt;stroke-linejoin:miter;stroke:rgb(13.729858%,12.159729%,12.548828%);stroke-opacity:1;stroke-miterlimit:4;" d="M -0.00152238 0.000435192 L 26.617142 6.918856 " transform="matrix(0.995982,0,0,-0.995982,158.208548,44.492621)"/>
<path style="fill:none;stroke-width:1.5;stroke-linecap:butt;stroke-linejoin:miter;stroke:rgb(13.729858%,12.159729%,12.548828%);stroke-opacity:1;stroke-miterlimit:4;" d="M 0.00186844 -0.00129224 L 26.938216 6.485708 " transform="matrix(0.995982,0,0,-0.995982,173.326264,44.194025)"/>
<path style="fill:none;stroke-width:1.5;stroke-linecap:butt;stroke-linejoin:miter;stroke:rgb(13.729858%,12.159729%,12.548828%);stroke-opacity:1;stroke-miterlimit:4;" d="M -0.000466352 -0.00163461 L -0.000466352 50.462835 " transform="matrix(0.995982,0,0,-0.995982,173.961402,94.752278)"/>
<path style="fill:none;stroke-width:1.5;stroke-linecap:round;stroke-linejoin:miter;stroke:rgb(13.729858%,12.159729%,12.548828%);stroke-opacity:1;stroke-miterlimit:4;" d="M -0.00147899 -0.000851323 L -0.00147899 50.463618 " transform="matrix(0.995982,0,0,-0.995982,199.856942,87.780402)"/>
<path style="fill:none;stroke-width:1.5;stroke-linecap:butt;stroke-linejoin:miter;stroke:rgb(13.729858%,12.159729%,12.548828%);stroke-opacity:1;stroke-miterlimit:4;" d="M 0.000897365 -0.000617661 L 26.148921 6.498149 " transform="matrix(0.995982,0,0,-0.995982,173.811606,94.253291)"/>
<path style="fill:none;stroke-width:1.5;stroke-linecap:butt;stroke-linejoin:miter;stroke:rgb(13.729858%,12.159729%,12.548828%);stroke-opacity:1;stroke-miterlimit:4;" d="M 0.000307679 -0.000867102 L 0.969044 0.238375 " transform="matrix(0.995982,0,0,-0.995982,33.3786,93.960074)"/>
<path style="fill:none;stroke-width:1.5;stroke-linecap:butt;stroke-linejoin:miter;stroke:rgb(13.729858%,12.159729%,12.548828%);stroke-opacity:1;stroke-dasharray:2.178,3.267;stroke-miterlimit:4;" d="M 0.00186955 0.000754834 L 19.564843 4.805214 " transform="matrix(0.995982,0,0,-0.995982,37.50595,92.946064)"/>
<path style="fill:none;stroke-width:1.5;stroke-linecap:butt;stroke-linejoin:miter;stroke:rgb(13.729858%,12.159729%,12.548828%);stroke-opacity:1;stroke-miterlimit:4;" d="M 0.0013557 -0.00180731 L 0.970092 0.237435 " transform="matrix(0.995982,0,0,-0.995982,58.572868,87.771637)"/>
<path style="fill:none;stroke-width:1.5;stroke-linecap:butt;stroke-linejoin:miter;stroke:rgb(13.729858%,12.159729%,12.548828%);stroke-opacity:1;stroke-miterlimit:4;" d="M -0.000720054 0.00166563 L -0.000720054 1.001778 " transform="matrix(0.995982,0,0,-0.995982,59.750717,87.282909)"/>
<path style="fill:none;stroke-width:1.5;stroke-linecap:butt;stroke-linejoin:miter;stroke:rgb(13.729858%,12.159729%,12.548828%);stroke-opacity:1;stroke-dasharray:1.997,2.996;stroke-miterlimit:4;" d="M -0.000720054 -0.00133079 L -0.000720054 43.438824 " transform="matrix(0.995982,0,0,-0.995982,59.750717,83.303362)"/>
<path style="fill:none;stroke-width:1.5;stroke-linecap:butt;stroke-linejoin:miter;stroke:rgb(13.729858%,12.159729%,12.548828%);stroke-opacity:1;stroke-miterlimit:4;" d="M -0.000720054 0.00193052 L -0.000720054 0.99812 " transform="matrix(0.995982,0,0,-0.995982,59.750717,38.548798)"/>
<g clip-path="url(#clip3)" clip-rule="nonzero">
<path style="fill:none;stroke-width:1;stroke-linecap:butt;stroke-linejoin:miter;stroke:rgb(13.729858%,12.159729%,12.548828%);stroke-opacity:1;stroke-miterlimit:4;" d="M -0.00131807 -0.00104897 C -14.081325 -0.00104897 -25.498288 2.238417 -25.498288 4.999511 C -25.498288 7.760604 -14.081325 10.00007 -0.00131807 10.00007 " transform="matrix(0.995982,0,0,-0.995982,370.317719,71.85833)"/>
</g>
</g>
</svg>