<?xml version="1.0" encoding="UTF-8"?><svg xmlns="http://www.w3.org/2000/svg" xmlns:xlink="http://www.w3.org/1999/xlink" viewBox="0 0 189.814 189.865" width="117.0774pt" height="117.10885683353177pt" version="1.2">
<defs>
<clipPath id="clip1">
  <path d="M 0 0.0273438 L 115 0.0273438 L 115 115 L 0 115 Z "/>
</clipPath>
<clipPath id="clip2">
  <path d="M 0 75 L 116 75 L 116 189.703125 L 0 189.703125 Z "/>
</clipPath>
<clipPath id="clip3">
  <path d="M 74 0.0273438 L 189.628906 0.0273438 L 189.628906 116 L 74 116 Z "/>
</clipPath>
</defs>
<g id="surface1">
<path style="fill:none;stroke-width:1.5;stroke-linecap:butt;stroke-linejoin:miter;stroke:rgb(13.729858%,12.159729%,12.548828%);stroke-opacity:1;stroke-miterlimit:4;" d="M 228.258863 -390.084706 C 228.258863 -390.084706 204.97044 -389.756259 204.97044 -389.756259 C 204.97044 -389.756259 188.266588 -406.100384 188.266588 -406.100384 C 188.266588 -406.100384 187.934231 -429.545211 187.934231 -429.545211 C 187.934231 -429.545211 204.164964 -446.358545 204.164964 -446.358545 C 204.164964 -446.358545 227.449477 -446.690902 227.449477 -446.690902 C 227.449477 -446.690902 244.153329 -430.346777 244.153329 -430.346777 C 244.153329 -430.346777 244.489596 -406.90195 244.489596 -406.90195 C 244.489596 -406.90195 228.258863 -390.084706 228.258863 -390.084706 Z " transform="matrix(0.999021,0,0,0.999021,-160.56666,473.55049)"/>
<g clip-path="url(#clip1)" clip-rule="nonzero">
<path style="fill:none;stroke-width:1.5;stroke-linecap:butt;stroke-linejoin:miter;stroke:rgb(13.729858%,12.159729%,12.548828%);stroke-opacity:1;stroke-miterlimit:4;" d="M 194.315478 -368.027957 C 194.315478 -368.027957 164.72401 -398.260678 164.72401 -398.260678 C 164.72401 -398.260678 165.107197 -440.493428 165.107197 -440.493428 C 165.107197 -440.493428 195.242166 -469.987145 195.242166 -469.987145 C 195.242166 -469.987145 237.474916 -469.467105 237.474916 -469.467105 C 237.474916 -469.467105 267.066385 -439.238293 267.066385 -439.238293 C 267.066385 -439.238293 266.679287 -397.005543 266.679287 -397.005543 C 266.679287 -397.005543 236.544318 -367.507917 236.544318 -367.507917 C 236.544318 -367.507917 194.315478 -368.027957 194.315478 -368.027957 Z " transform="matrix(0.999021,0,0,0.999021,-160.56666,473.55049)"/>
</g>
<g clip-path="url(#clip2)" clip-rule="nonzero">
<path style="fill:none;stroke-width:1.5;stroke-linecap:butt;stroke-linejoin:miter;stroke:rgb(13.729858%,12.159729%,12.548828%);stroke-opacity:1;stroke-miterlimit:4;" d="M 195.187425 -288.356213 C 195.187425 -288.356213 165.392633 -318.38561 165.392633 -318.38561 C 165.392633 -318.38561 165.486475 -360.61836 165.486475 -360.61836 C 165.486475 -360.61836 195.42203 -390.319311 195.42203 -390.319311 C 195.42203 -390.319311 237.65478 -390.088616 237.65478 -390.088616 C 237.65478 -390.088616 267.449572 -360.059219 267.449572 -360.059219 C 267.449572 -360.059219 267.351821 -317.826469 267.351821 -317.826469 C 267.351821 -317.826469 237.420175 -288.125518 237.420175 -288.125518 C 237.420175 -288.125518 195.187425 -288.356213 195.187425 -288.356213 Z " transform="matrix(0.999021,0,0,0.999021,-160.56666,473.55049)"/>
</g>
<path style="fill:none;stroke-width:1.5;stroke-linecap:butt;stroke-linejoin:miter;stroke:rgb(13.729858%,12.159729%,12.548828%);stroke-opacity:1;stroke-dasharray:3;stroke-miterlimit:4;" d="M 307.731194 -389.032895 C 307.731194 -389.032895 284.44277 -388.700538 284.44277 -388.700538 C 284.44277 -388.700538 267.742828 -405.044663 267.742828 -405.044663 C 267.742828 -405.044663 267.406562 -428.4934 267.406562 -428.4934 C 267.406562 -428.4934 283.637294 -445.306734 283.637294 -445.306734 C 283.637294 -445.306734 306.925718 -445.639091 306.925718 -445.639091 C 306.925718 -445.639091 323.62566 -429.294966 323.62566 -429.294966 C 323.62566 -429.294966 323.961926 -405.850139 323.961926 -405.850139 C 323.961926 -405.850139 307.731194 -389.032895 307.731194 -389.032895 Z " transform="matrix(0.999021,0,0,0.999021,-160.56666,473.55049)"/>
<g clip-path="url(#clip3)" clip-rule="nonzero">
<path style="fill:none;stroke-width:1.5;stroke-linecap:butt;stroke-linejoin:miter;stroke:rgb(13.729858%,12.159729%,12.548828%);stroke-opacity:1;stroke-dasharray:3;stroke-miterlimit:4;" d="M 273.787809 -366.976146 C 273.787809 -366.976146 244.19634 -397.208868 244.19634 -397.208868 C 244.19634 -397.208868 244.583438 -439.441617 244.583438 -439.441617 C 244.583438 -439.441617 274.718407 -468.935334 274.718407 -468.935334 C 274.718407 -468.935334 316.947247 -468.415294 316.947247 -468.415294 C 316.947247 -468.415294 346.538715 -438.186482 346.538715 -438.186482 C 346.538715 -438.186482 346.151618 -395.953733 346.151618 -395.953733 C 346.151618 -395.953733 316.020558 -366.456106 316.020558 -366.456106 C 316.020558 -366.456106 273.787809 -366.976146 273.787809 -366.976146 Z " transform="matrix(0.999021,0,0,0.999021,-160.56666,473.55049)"/>
</g>
<path style="fill-rule:nonzero;fill:rgb(14.750671%,13.064575%,13.108826%);fill-opacity:1;stroke-width:1;stroke-linecap:butt;stroke-linejoin:miter;stroke:rgb(13.729858%,12.159729%,12.548828%);stroke-opacity:1;stroke-miterlimit:4;" d="M 298.773205 -417.224556 C 298.773205 -416.110183 297.869977 -415.206955 296.755605 -415.206955 C 295.641233 -415.206955 294.738005 -416.110183 294.738005 -417.224556 C 294.738005 -418.335018 295.641233 -419.238246 296.755605 -419.238246 C 297.869977 -419.238246 298.773205 -418.335018 298.773205 -417.224556 Z " transform="matrix(0.999021,0,0,0.999021,-160.56666,473.55049)"/>
</g>
</svg>