<?xml version="1.0" encoding="UTF-8"?><svg xmlns="http://www.w3.org/2000/svg" xmlns:xlink="http://www.w3.org/1999/xlink" viewBox="0 0 351.087 118.935" width="260.172pt" height="88.13643575524017pt" version="1.2">
<defs>
<clipPath id="clip1">
  <path d="M 218 31 L 307 31 L 307 118.75 L 218 118.75 Z "/>
</clipPath>
<clipPath id="clip2">
  <path d="M 40 21 L 145 21 L 145 118.75 L 40 118.75 Z "/>
</clipPath>
</defs>
<g id="surface1">
<path style=" stroke:none;fill-rule:nonzero;fill:rgb(100%,100%,100%);fill-opacity:1;" d="M 191.351562 75.199219 C 191.351562 83.429688 184.554688 90.105469 176.175781 90.105469 C 167.792969 90.105469 160.996094 83.429688 160.996094 75.199219 C 160.996094 66.964844 167.792969 60.292969 176.175781 60.292969 C 184.554688 60.292969 191.351562 66.964844 191.351562 75.199219 "/>
<path style="fill:none;stroke-width:2;stroke-linecap:butt;stroke-linejoin:miter;stroke:rgb(13.729858%,12.159729%,12.548828%);stroke-opacity:1;stroke-miterlimit:4;" d="M 0.000071288 -0.000729006 C 0.000071288 -8.252601 -6.814479 -14.945743 -15.215175 -14.945743 C -23.619786 -14.945743 -30.434337 -8.252601 -30.434337 -0.000729006 C -30.434337 8.255059 -23.619786 14.944285 -15.215175 14.944285 C -6.814479 14.944285 0.000071288 8.255059 0.000071288 -0.000729006 Z " transform="matrix(0.997406,0,0,-0.997406,191.351491,75.198492)"/>
<path style=" stroke:none;fill-rule:nonzero;fill:rgb(13.729858%,12.159729%,12.548828%);fill-opacity:1;" d="M 177.800781 75.46875 C 177.800781 76.367188 177.070312 77.09375 176.171875 77.09375 C 175.273438 77.09375 174.546875 76.367188 174.546875 75.46875 C 174.546875 74.570312 175.273438 73.84375 176.171875 73.84375 C 177.070312 73.84375 177.800781 74.570312 177.800781 75.46875 "/>
<path style="fill:none;stroke-width:1;stroke-linecap:butt;stroke-linejoin:miter;stroke:rgb(13.729858%,12.159729%,12.548828%);stroke-opacity:1;stroke-miterlimit:4;" d="M 0.0019513 0.00103883 C 0.0019513 -0.899735 -0.730417 -1.628187 -1.631191 -1.628187 C -2.531965 -1.628187 -3.260417 -0.899735 -3.260417 0.00103883 C -3.260417 0.901813 -2.531965 1.630265 -1.631191 1.630265 C -0.730417 1.630265 0.0019513 0.901813 0.0019513 0.00103883 Z " transform="matrix(0.997406,0,0,-0.997406,177.798835,75.469786)"/>
<path style="fill:none;stroke-width:2;stroke-linecap:butt;stroke-linejoin:miter;stroke:rgb(13.729858%,12.159729%,12.548828%);stroke-opacity:1;stroke-miterlimit:4;" d="M 0.000071288 -0.000729006 L -55.977151 0.269503 " transform="matrix(0.997406,0,0,-0.997406,191.351491,75.198492)"/>
<path style="fill:none;stroke-width:2;stroke-linecap:butt;stroke-linejoin:miter;stroke:rgb(13.729858%,12.159729%,12.548828%);stroke-opacity:1;stroke-dasharray:5;stroke-miterlimit:4;" d="M 135.327568 2.085782 L 49.456403 2.085782 L 49.456403 87.956948 L 135.327568 87.956948 Z " transform="matrix(0.997406,0,0,-0.997406,0,118.74834)"/>
<g clip-path="url(#clip1)" clip-rule="nonzero">
<path style="fill:none;stroke-width:2;stroke-linecap:butt;stroke-linejoin:miter;stroke:rgb(13.729858%,12.159729%,12.548828%);stroke-opacity:1;stroke-miterlimit:4;" d="M 305.977222 1.000937 L 220.109973 1.000937 L 220.109973 86.868186 L 305.977222 86.868186 Z " transform="matrix(0.997406,0,0,-0.997406,0,118.74834)"/>
</g>
<g clip-path="url(#clip2)" clip-rule="nonzero">
<path style="fill:none;stroke-width:2;stroke-linecap:butt;stroke-linejoin:miter;stroke:rgb(13.729858%,12.159729%,12.548828%);stroke-opacity:1;stroke-miterlimit:4;" d="M -0.00185457 0.000364633 C -0.00185457 -22.812713 -18.2484 -41.305992 -40.759915 -41.305992 C -63.271429 -41.305992 -81.521891 -22.812713 -81.521891 0.000364633 C -81.521891 22.813442 -63.271429 41.302805 -40.759915 41.302805 C -18.2484 41.302805 -0.00185457 22.813442 -0.00185457 0.000364633 Z " transform="matrix(0.997406,0,0,-0.997406,132.806537,73.844114)"/>
</g>
<path style=" stroke:none;fill-rule:nonzero;fill:rgb(13.729858%,12.159729%,12.548828%);fill-opacity:1;" d="M 217.914062 76.011719 C 217.914062 83.195312 212.085938 89.019531 204.902344 89.019531 C 197.71875 89.019531 191.894531 83.195312 191.894531 76.011719 C 191.894531 68.824219 197.71875 63.003906 204.902344 63.003906 C 212.085938 63.003906 217.914062 68.824219 217.914062 76.011719 "/>
<path style="fill:none;stroke-width:2;stroke-linecap:butt;stroke-linejoin:miter;stroke:rgb(13.729858%,12.159729%,12.548828%);stroke-opacity:1;stroke-miterlimit:4;" d="M 0.00174694 -0.000341909 C 0.00174694 -7.202617 -5.841534 -13.041981 -13.043809 -13.041981 C -20.246083 -13.041981 -26.085448 -7.202617 -26.085448 -0.000341909 C -26.085448 7.205849 -20.246083 13.041297 -13.043809 13.041297 C -5.841534 13.041297 0.00174694 7.205849 0.00174694 -0.000341909 Z " transform="matrix(0.997406,0,0,-0.997406,217.91232,76.011378)"/>
</g>
</svg>