<?xml version="1.0" encoding="UTF-8"?><svg xmlns="http://www.w3.org/2000/svg" xmlns:xlink="http://www.w3.org/1999/xlink" viewBox="0 0 252.766 533.782" width="216.8pt" height="457.83031578614225pt" version="1.2">
<defs>
<clipPath id="clip1">
  <path d="M 0 380 L 104 380 L 104 533.425781 L 0 533.425781 Z "/>
</clipPath>
<clipPath id="clip2">
  <path d="M 149 262 L 252.53125 262 L 252.53125 427 L 149 427 Z "/>
</clipPath>
<clipPath id="clip3">
  <path d="M 80 404 L 252.53125 404 L 252.53125 533.425781 L 80 533.425781 Z "/>
</clipPath>
<clipPath id="clip4">
  <path d="M 0 0.136719 L 97 0.136719 L 97 402 L 0 402 Z "/>
</clipPath>
<clipPath id="clip5">
  <path d="M 74 0.136719 L 104 0.136719 L 104 533.425781 L 74 533.425781 Z "/>
</clipPath>
<clipPath id="clip6">
  <path d="M 74 0.136719 L 172 0.136719 L 172 285 L 74 285 Z "/>
</clipPath>
<clipPath id="clip7">
  <path d="M 74 0.136719 L 252.53125 0.136719 L 252.53125 427 L 74 427 Z "/>
</clipPath>
</defs>
<g id="surface1">
<g clip-path="url(#clip1)" clip-rule="nonzero">
<path style="fill:none;stroke-width:2;stroke-linecap:butt;stroke-linejoin:miter;stroke:rgb(13.729858%,12.159729%,12.548828%);stroke-opacity:1;stroke-miterlimit:4;" d="M 0.000821242 0.00107055 L 91.304018 -141.305405 " transform="matrix(0.999075,0,0,-0.999075,0.839023,391.450288)"/>
</g>
<g clip-path="url(#clip2)" clip-rule="nonzero">
<path style="fill:none;stroke-width:2;stroke-linecap:butt;stroke-linejoin:miter;stroke:rgb(13.729858%,12.159729%,12.548828%);stroke-opacity:1;stroke-miterlimit:4;" d="M -0.001385 -0.000705458 L 91.305721 -141.303271 " transform="matrix(0.999075,0,0,-0.999075,160.47404,274.167264)"/>
</g>
<g clip-path="url(#clip3)" clip-rule="nonzero">
<path style="fill:none;stroke-width:2;stroke-linecap:butt;stroke-linejoin:miter;stroke:rgb(13.729858%,12.159729%,12.548828%);stroke-opacity:1;stroke-miterlimit:4;" d="M -0.000182324 -0.00170522 L 158.697378 117.392029 " transform="matrix(0.999075,0,0,-0.999075,92.058776,532.623296)"/>
</g>
<path style="fill:none;stroke-width:2;stroke-linecap:butt;stroke-linejoin:miter;stroke:rgb(13.729858%,12.159729%,12.548828%);stroke-opacity:1;stroke-miterlimit:4;" d="M 0.000764056 0.00111337 L 158.698325 117.390937 " transform="matrix(0.999075,0,0,-0.999075,1.925018,390.364394)"/>
<g clip-path="url(#clip4)" clip-rule="nonzero">
<path style="fill:none;stroke-width:2;stroke-linecap:butt;stroke-linejoin:miter;stroke:rgb(13.729858%,12.159729%,12.548828%);stroke-opacity:1;stroke-miterlimit:4;" d="M 0.000764056 0.00111337 L 83.695361 390.217494 " transform="matrix(0.999075,0,0,-0.999075,1.925018,390.364394)"/>
</g>
<g clip-path="url(#clip5)" clip-rule="nonzero">
<path style="fill:none;stroke-width:2;stroke-linecap:butt;stroke-linejoin:miter;stroke:rgb(13.729858%,12.159729%,12.548828%);stroke-opacity:1;stroke-miterlimit:4;" d="M -0.000439212 -0.000306288 L 6.521218 -532.606195 " transform="matrix(0.999075,0,0,-0.999075,85.543408,0.507506)"/>
</g>
<g clip-path="url(#clip6)" clip-rule="nonzero">
<path style="fill:none;stroke-width:2;stroke-linecap:butt;stroke-linejoin:miter;stroke:rgb(13.729858%,12.159729%,12.548828%);stroke-opacity:1;stroke-miterlimit:4;" d="M -0.000439212 -0.000306288 L 75.002525 -272.826863 " transform="matrix(0.999075,0,0,-0.999075,85.543408,0.507506)"/>
</g>
<g clip-path="url(#clip7)" clip-rule="nonzero">
<path style="fill:none;stroke-width:2;stroke-linecap:butt;stroke-linejoin:miter;stroke:rgb(13.729858%,12.159729%,12.548828%);stroke-opacity:1;stroke-miterlimit:4;" d="M -0.000439212 -0.000306288 L 165.218778 -415.216371 " transform="matrix(0.999075,0,0,-0.999075,85.543408,0.507506)"/>
</g>
</g>
</svg>