<?xml version="1.0" encoding="UTF-8"?><svg xmlns="http://www.w3.org/2000/svg" xmlns:xlink="http://www.w3.org/1999/xlink" viewBox="0 0 475.784 120.516" width="355.5684pt" height="90.06541055268778pt" version="1.2">
<defs>
<clipPath id="clip1">
  <path d="M 422 37 L 474.726562 37 L 474.726562 72 L 422 72 Z "/>
</clipPath>
<clipPath id="clip2">
  <path d="M 472 47 L 474.726562 47 L 474.726562 81 L 472 81 Z "/>
</clipPath>
<clipPath id="clip3">
  <path d="M 422 67 L 474.726562 67 L 474.726562 103 L 422 103 Z "/>
</clipPath>
<clipPath id="clip4">
  <path d="M 336 47 L 474.726562 47 L 474.726562 50 L 336 50 Z "/>
</clipPath>
<clipPath id="clip5">
  <path d="M 327 67 L 474.726562 67 L 474.726562 92 L 327 92 Z "/>
</clipPath>
<clipPath id="clip6">
  <path d="M 28 63 L 188 63 L 188 120.035156 L 28 120.035156 Z "/>
</clipPath>
<clipPath id="clip7">
  <path d="M 0.84375 69 L 51 69 L 51 120.035156 L 0.84375 120.035156 Z "/>
</clipPath>
<clipPath id="clip8">
  <path d="M 0.84375 63 L 185 63 L 185 93 L 0.84375 93 Z "/>
</clipPath>
<clipPath id="clip9">
  <path d="M 28 46 L 87 46 L 87 120.035156 L 28 120.035156 Z "/>
</clipPath>
<clipPath id="clip10">
  <path d="M 0.84375 10 L 47 10 L 47 93 L 0.84375 93 Z "/>
</clipPath>
</defs>
<g id="surface1">
<path style=" stroke:none;fill-rule:nonzero;fill:rgb(100%,100%,100%);fill-opacity:1;" d="M 248.007812 74.972656 C 248.007812 83.191406 241.21875 89.855469 232.851562 89.855469 C 224.480469 89.855469 217.691406 83.191406 217.691406 74.972656 C 217.691406 66.75 224.480469 60.085938 232.851562 60.085938 C 241.21875 60.085938 248.007812 66.75 248.007812 74.972656 "/>
<path style="fill:none;stroke-width:2;stroke-linecap:butt;stroke-linejoin:miter;stroke:rgb(13.729858%,12.159729%,12.548828%);stroke-opacity:1;stroke-miterlimit:4;" d="M 0.00163825 -0.00185126 C 0.00163825 -8.253608 -6.81469 -14.944434 -15.21548 -14.944434 C -23.620193 -14.944434 -30.436521 -8.253608 -30.436521 -0.00185126 C -30.436521 8.253828 -23.620193 14.944654 -15.21548 14.944654 C -6.81469 14.944654 0.00163825 8.253828 0.00163825 -0.00185126 Z " transform="matrix(0.996,0,0,-0.996,248.006181,74.970812)"/>
<path style=" stroke:none;fill-rule:nonzero;fill:rgb(13.729858%,12.159729%,12.548828%);fill-opacity:1;" d="M 234.472656 75.242188 C 234.472656 76.136719 233.746094 76.863281 232.847656 76.863281 C 231.953125 76.863281 231.226562 76.136719 231.226562 75.242188 C 231.226562 74.34375 231.953125 73.617188 232.847656 73.617188 C 233.746094 73.617188 234.472656 74.34375 234.472656 75.242188 "/>
<path style="fill:none;stroke-width:1;stroke-linecap:butt;stroke-linejoin:miter;stroke:rgb(13.729858%,12.159729%,12.548828%);stroke-opacity:1;stroke-miterlimit:4;" d="M 0.0000239458 -0.00056496 C 0.0000239458 -0.898689 -0.729456 -1.628169 -1.631502 -1.628169 C -2.529626 -1.628169 -3.259106 -0.898689 -3.259106 -0.00056496 C -3.259106 0.901481 -2.529626 1.630961 -1.631502 1.630961 C -0.729456 1.630961 0.0000239458 0.901481 0.0000239458 -0.00056496 Z " transform="matrix(0.996,0,0,-0.996,234.472632,75.241625)"/>
<path style="fill:none;stroke-width:2;stroke-linecap:butt;stroke-linejoin:miter;stroke:rgb(13.729858%,12.159729%,12.548828%);stroke-opacity:1;stroke-miterlimit:4;" d="M 0.00163825 -0.00185126 L 48.366975 0.272684 " transform="matrix(0.996,0,0,-0.996,248.006181,74.970812)"/>
<path style="fill:none;stroke-width:2;stroke-linecap:butt;stroke-linejoin:miter;stroke:rgb(13.729858%,12.159729%,12.548828%);stroke-opacity:1;stroke-miterlimit:4;" d="M -0.000602159 0.0010261 L -0.000602159 -30.433211 " transform="matrix(0.996,0,0,-0.996,295.098256,60.626022)"/>
<path style="fill:none;stroke-width:2;stroke-linecap:butt;stroke-linejoin:miter;stroke:rgb(13.729858%,12.159729%,12.548828%);stroke-opacity:1;stroke-miterlimit:4;" d="M -0.000602159 0.00188916 L 139.13014 0.00188916 " transform="matrix(0.996,0,0,-0.996,295.098256,90.939382)"/>
<path style="fill:none;stroke-width:2;stroke-linecap:butt;stroke-linejoin:miter;stroke:rgb(13.729858%,12.159729%,12.548828%);stroke-opacity:1;stroke-miterlimit:4;" d="M -0.000602159 0.0015261 L 139.13014 0.0015261 " transform="matrix(0.996,0,0,-0.996,295.098256,60.62652)"/>
<path style="fill:none;stroke-width:2;stroke-linecap:butt;stroke-linejoin:miter;stroke:rgb(13.729858%,12.159729%,12.548828%);stroke-opacity:1;stroke-miterlimit:4;" d="M -0.000760442 0.00188916 L -0.000760442 30.436126 " transform="matrix(0.996,0,0,-0.996,433.672632,90.939382)"/>
<g clip-path="url(#clip1)" clip-rule="nonzero">
<path style="fill:none;stroke-width:2;stroke-linecap:butt;stroke-linejoin:miter;stroke:rgb(13.729858%,12.159729%,12.548828%);stroke-opacity:1;stroke-miterlimit:4;" d="M -0.000760442 0.0015261 L 40.218711 11.955592 " transform="matrix(0.996,0,0,-0.996,433.672632,60.62652)"/>
</g>
<g clip-path="url(#clip2)" clip-rule="nonzero">
<path style="fill:none;stroke-width:2;stroke-linecap:butt;stroke-linejoin:miter;stroke:rgb(13.729858%,12.159729%,12.548828%);stroke-opacity:1;stroke-miterlimit:4;" d="M 0.00191119 -0.000907631 L 0.00191119 -30.435145 " transform="matrix(0.996,0,0,-0.996,473.728565,48.717846)"/>
</g>
<g clip-path="url(#clip3)" clip-rule="nonzero">
<path style="fill:none;stroke-width:2;stroke-linecap:butt;stroke-linejoin:miter;stroke:rgb(13.729858%,12.159729%,12.548828%);stroke-opacity:1;stroke-miterlimit:4;" d="M -0.000760442 0.00188916 L 40.218711 11.955955 " transform="matrix(0.996,0,0,-0.996,433.672632,90.939382)"/>
</g>
<path style="fill:none;stroke-width:2;stroke-linecap:butt;stroke-linejoin:miter;stroke:rgb(13.729858%,12.159729%,12.548828%);stroke-opacity:1;stroke-miterlimit:4;" d="M -0.000602159 0.0015261 L 42.391623 11.955592 " transform="matrix(0.996,0,0,-0.996,295.098256,60.62652)"/>
<g clip-path="url(#clip4)" clip-rule="nonzero">
<path style="fill:none;stroke-width:2;stroke-linecap:butt;stroke-linejoin:miter;stroke:rgb(13.729858%,12.159729%,12.548828%);stroke-opacity:1;stroke-miterlimit:4;" d="M 0.000022992 -0.000907631 L 136.954089 -0.000907631 " transform="matrix(0.996,0,0,-0.996,337.32029,48.717846)"/>
</g>
<path style="fill:none;stroke-width:2;stroke-linecap:butt;stroke-linejoin:miter;stroke:rgb(13.729858%,12.159729%,12.548828%);stroke-opacity:1;stroke-dasharray:5;stroke-miterlimit:4;" d="M -0.000602159 0.00188916 L 43.478 10.869579 " transform="matrix(0.996,0,0,-0.996,295.098256,90.939382)"/>
<g clip-path="url(#clip5)" clip-rule="nonzero">
<path style="fill:none;stroke-width:2;stroke-linecap:butt;stroke-linejoin:miter;stroke:rgb(13.729858%,12.159729%,12.548828%);stroke-opacity:1;stroke-dasharray:5;stroke-miterlimit:4;" d="M -0.000600251 -0.000121335 L 135.867089 1.086255 " transform="matrix(0.996,0,0,-0.996,338.402942,80.11316)"/>
</g>
<path style="fill:none;stroke-width:2;stroke-linecap:butt;stroke-linejoin:miter;stroke:rgb(13.729858%,12.159729%,12.548828%);stroke-opacity:1;stroke-dasharray:5;stroke-miterlimit:4;" d="M 0.000022992 -0.000121335 L 0.000022992 31.520492 " transform="matrix(0.996,0,0,-0.996,337.32029,80.11316)"/>
<path style="fill:none;stroke-width:2;stroke-linecap:butt;stroke-linejoin:miter;stroke:rgb(13.729858%,12.159729%,12.548828%);stroke-opacity:1;stroke-miterlimit:4;" d="M -0.000920633 -0.00185126 L -41.847996 0.272684 " transform="matrix(0.996,0,0,-0.996,217.692323,74.970812)"/>
<g clip-path="url(#clip6)" clip-rule="nonzero">
<path style="fill:none;stroke-width:2;stroke-linecap:butt;stroke-linejoin:miter;stroke:rgb(13.729858%,12.159729%,12.548828%);stroke-opacity:1;stroke-miterlimit:4;" d="M 0.000603564 0.00118439 L -136.957385 -44.563794 " transform="matrix(0.996,0,0,-0.996,176.011118,74.700398)"/>
</g>
<g clip-path="url(#clip7)" clip-rule="nonzero">
<path style="fill:none;stroke-width:2;stroke-linecap:butt;stroke-linejoin:miter;stroke:rgb(13.729858%,12.159729%,12.548828%);stroke-opacity:1;stroke-miterlimit:4;" d="M -0.00138464 0.00110572 L -38.044181 38.043902 " transform="matrix(0.996,0,0,-0.996,39.602942,119.087039)"/>
</g>
<g clip-path="url(#clip8)" clip-rule="nonzero">
<path style="fill:none;stroke-width:2;stroke-linecap:butt;stroke-linejoin:miter;stroke:rgb(13.729858%,12.159729%,12.548828%);stroke-opacity:1;stroke-miterlimit:4;" d="M -0.000680823 0.000501908 L 171.737051 6.522684 " transform="matrix(0.996,0,0,-0.996,1.711616,81.195812)"/>
</g>
<g clip-path="url(#clip9)" clip-rule="nonzero">
<path style="fill:none;stroke-width:2;stroke-linecap:butt;stroke-linejoin:miter;stroke:rgb(13.729858%,12.159729%,12.548828%);stroke-opacity:1;stroke-dasharray:5;stroke-miterlimit:4;" d="M -0.00138464 0.00110572 L 35.868658 61.955956 " transform="matrix(0.996,0,0,-0.996,39.602942,119.087039)"/>
</g>
<path style="fill:none;stroke-width:2;stroke-linecap:butt;stroke-linejoin:miter;stroke:rgb(13.729858%,12.159729%,12.548828%);stroke-opacity:1;stroke-dasharray:5;stroke-miterlimit:4;" d="M -0.000441968 -0.000543624 L 97.824451 -17.390416 " transform="matrix(0.996,0,0,-0.996,75.328565,57.378365)"/>
<path style="fill:none;stroke-width:2;stroke-linecap:butt;stroke-linejoin:miter;stroke:rgb(13.729858%,12.159729%,12.548828%);stroke-opacity:1;stroke-dasharray:5;stroke-miterlimit:4;" d="M -0.000441968 -0.000543624 L -40.215992 35.869499 " transform="matrix(0.996,0,0,-0.996,75.328565,57.378365)"/>
<g clip-path="url(#clip10)" clip-rule="nonzero">
<path style="fill:none;stroke-width:2;stroke-linecap:butt;stroke-linejoin:miter;stroke:rgb(13.729858%,12.159729%,12.548828%);stroke-opacity:1;stroke-miterlimit:4;" d="M -0.000680823 0.000501908 L 33.696608 59.782599 " transform="matrix(0.996,0,0,-0.996,1.711616,81.195812)"/>
</g>
<path style="fill:none;stroke-width:2;stroke-linecap:butt;stroke-linejoin:miter;stroke:rgb(13.729858%,12.159729%,12.548828%);stroke-opacity:1;stroke-miterlimit:4;" d="M 0.00130833 0.000299046 L 138.041751 -53.259616 " transform="matrix(0.996,0,0,-0.996,35.272134,21.652642)"/>
<path style=" stroke:none;fill-rule:nonzero;fill:rgb(13.729858%,12.159729%,12.548828%);fill-opacity:1;" d="M 179.257812 74.699219 C 179.257812 78.285156 176.351562 81.195312 172.761719 81.195312 C 169.175781 81.195312 166.269531 78.285156 166.269531 74.699219 C 166.269531 71.113281 169.175781 68.203125 172.761719 68.203125 C 176.351562 68.203125 179.257812 71.113281 179.257812 74.699219 "/>
<path style="fill:none;stroke-width:1;stroke-linecap:butt;stroke-linejoin:miter;stroke:rgb(13.729858%,12.159729%,12.548828%);stroke-opacity:1;stroke-miterlimit:4;" d="M -0.00146616 0.000184388 C -0.00146616 -3.600154 -2.919388 -6.521998 -6.523649 -6.521998 C -10.123987 -6.521998 -13.041909 -3.600154 -13.041909 0.000184388 C -13.041909 3.600523 -10.123987 6.522367 -6.523649 6.522367 C -2.919388 6.522367 -0.00146616 3.600523 -0.00146616 0.000184388 Z " transform="matrix(0.996,0,0,-0.996,179.259273,74.699402)"/>
</g>
</svg>