<?xml version="1.0" encoding="UTF-8"?><svg xmlns="http://www.w3.org/2000/svg" xmlns:xlink="http://www.w3.org/1999/xlink" viewBox="0 0 353.087 92.0874" width="268.8444pt" height="70.1163786844602pt" version="1.2">
<defs>
<clipPath id="clip1">
  <path d="M 150 49 L 204 49 L 204 91.183594 L 150 91.183594 Z "/>
</clipPath>
<clipPath id="clip2">
  <path d="M 1.28125 65 L 173 65 L 173 88 L 1.28125 88 Z "/>
</clipPath>
<clipPath id="clip3">
  <path d="M 1.28125 0 L 15 0 L 15 88 L 1.28125 88 Z "/>
</clipPath>
<clipPath id="clip4">
  <path d="M 1.28125 0 L 145 0 L 145 87 L 1.28125 87 Z "/>
</clipPath>
<clipPath id="clip5">
  <path d="M 233 27 L 350.902344 27 L 350.902344 30 L 233 30 Z "/>
</clipPath>
<clipPath id="clip6">
  <path d="M 348 27 L 350.902344 27 L 350.902344 78 L 348 78 Z "/>
</clipPath>
<clipPath id="clip7">
  <path d="M 181 64 L 350.902344 64 L 350.902344 88 L 181 88 Z "/>
</clipPath>
</defs>
<g id="surface1">
<path style=" stroke:none;fill-rule:nonzero;fill:rgb(100%,100%,100%);fill-opacity:1;" d="M 192.238281 75.394531 C 192.238281 83.566406 185.492188 90.191406 177.167969 90.191406 C 168.847656 90.191406 162.101562 83.566406 162.101562 75.394531 C 162.101562 67.222656 168.847656 60.59375 177.167969 60.59375 C 185.492188 60.59375 192.238281 67.222656 192.238281 75.394531 "/>
<g clip-path="url(#clip1)" clip-rule="nonzero">
<path style="fill:none;stroke-width:2;stroke-linecap:butt;stroke-linejoin:miter;stroke:rgb(13.729858%,12.159729%,12.548828%);stroke-opacity:1;stroke-miterlimit:4;" d="M 0.0012189 0.000397593 C 0.0012189 -8.252462 -6.81173 -14.943117 -15.218443 -14.943117 C -23.621211 -14.943117 -30.434159 -8.252462 -30.434159 0.000397593 C -30.434159 8.253257 -23.621211 14.947857 -15.218443 14.947857 C -6.81173 14.947857 0.0012189 8.253257 0.0012189 0.000397593 Z " transform="matrix(0.990187,0,0,-0.990187,192.237074,75.394925)"/>
</g>
<path style=" stroke:none;fill-rule:nonzero;fill:rgb(13.729858%,12.159729%,12.548828%);fill-opacity:1;" d="M 178.78125 75.664062 C 178.78125 76.554688 178.0625 77.277344 177.167969 77.277344 C 176.277344 77.277344 175.554688 76.554688 175.554688 75.664062 C 175.554688 74.773438 176.277344 74.050781 177.167969 74.050781 C 178.0625 74.050781 178.78125 74.773438 178.78125 75.664062 "/>
<path style="fill:none;stroke-width:1;stroke-linecap:butt;stroke-linejoin:miter;stroke:rgb(13.729858%,12.159729%,12.548828%);stroke-opacity:1;stroke-miterlimit:4;" d="M -0.00127356 0.000195248 C -0.00127356 -0.899256 -0.727146 -1.629074 -1.630543 -1.629074 C -2.529994 -1.629074 -3.259812 -0.899256 -3.259812 0.000195248 C -3.259812 0.899646 -2.529994 1.629464 -1.630543 1.629464 C -0.727146 1.629464 -0.00127356 0.899646 -0.00127356 0.000195248 Z " transform="matrix(0.990187,0,0,-0.990187,178.782511,75.664256)"/>
<g clip-path="url(#clip2)" clip-rule="nonzero">
<path style="fill:none;stroke-width:2;stroke-linecap:butt;stroke-linejoin:miter;stroke:rgb(13.729858%,12.159729%,12.548828%);stroke-opacity:1;stroke-miterlimit:4;" d="M -0.00104533 -0.00151179 L 160.326136 0.270691 " transform="matrix(0.990187,0,0,-0.990187,2.809629,76.471159)"/>
</g>
<g clip-path="url(#clip3)" clip-rule="nonzero">
<path style="fill:none;stroke-width:2;stroke-linecap:butt;stroke-linejoin:miter;stroke:rgb(13.729858%,12.159729%,12.548828%);stroke-opacity:1;stroke-miterlimit:4;" d="M -0.00104533 -0.00151179 L -0.54545 76.357164 " transform="matrix(0.990187,0,0,-0.990187,2.809629,76.471159)"/>
</g>
<g clip-path="url(#clip4)" clip-rule="nonzero">
<path style="fill:none;stroke-width:2;stroke-linecap:butt;stroke-linejoin:miter;stroke:rgb(13.729858%,12.159729%,12.548828%);stroke-opacity:1;stroke-miterlimit:4;" d="M -0.00105002 -0.0012365 L 132.608832 -74.9989 " transform="matrix(0.990187,0,0,-0.990187,2.270571,0.862057)"/>
</g>
<path style="fill:none;stroke-width:2;stroke-linecap:butt;stroke-linejoin:miter;stroke:rgb(13.729858%,12.159729%,12.548828%);stroke-opacity:1;stroke-miterlimit:4;" d="M 0.000635179 -0.000935642 L 0.000635179 45.650159 " transform="matrix(0.990187,0,0,-0.990187,234.749371,74.049855)"/>
<g clip-path="url(#clip5)" clip-rule="nonzero">
<path style="fill:none;stroke-width:2;stroke-linecap:butt;stroke-linejoin:miter;stroke:rgb(13.729858%,12.159729%,12.548828%);stroke-opacity:1;stroke-miterlimit:4;" d="M 0.000635179 0.00170409 L 116.305991 0.00170409 " transform="matrix(0.990187,0,0,-0.990187,234.749371,28.845437)"/>
</g>
<g clip-path="url(#clip6)" clip-rule="nonzero">
<path style="fill:none;stroke-width:2;stroke-linecap:butt;stroke-linejoin:miter;stroke:rgb(13.729858%,12.159729%,12.548828%);stroke-opacity:1;stroke-miterlimit:4;" d="M 0.00129088 0.00170409 L 0.00129088 -47.827009 " transform="matrix(0.990187,0,0,-0.990187,349.912784,28.845437)"/>
</g>
<g clip-path="url(#clip7)" clip-rule="nonzero">
<path style="fill:none;stroke-width:2;stroke-linecap:butt;stroke-linejoin:miter;stroke:rgb(13.729858%,12.159729%,12.548828%);stroke-opacity:1;stroke-miterlimit:4;" d="M 0.0012189 0.000397593 L 159.239591 -0.816209 " transform="matrix(0.990187,0,0,-0.990187,192.237074,75.394925)"/>
</g>
</g>
</svg>