<?xml version="1.0" encoding="UTF-8"?><svg xmlns="http://www.w3.org/2000/svg" xmlns:xlink="http://www.w3.org/1999/xlink" viewBox="0 0 81 73" width="9.53964pt" height="8.597453333333334pt" version="1.2">
<g id="surface1">
<path style="fill-rule:nonzero;fill:rgb(100%,100%,100%);fill-opacity:1;stroke-width:1;stroke-linecap:butt;stroke-linejoin:miter;stroke:rgb(13.729858%,12.159729%,12.548828%);stroke-opacity:1;stroke-miterlimit:4;" d="M 245.523438 -563.957031 C 245.523438 -556.449219 239.195312 -550.367188 231.390625 -550.367188 C 223.585938 -550.367188 217.261719 -556.449219 217.261719 -563.957031 C 217.261719 -571.457031 223.585938 -577.542969 231.390625 -577.542969 C 239.195312 -577.542969 245.523438 -571.457031 245.523438 -563.957031 Z " transform="matrix(1,0,0,1,-213,582)"/>
<path style="fill-rule:nonzero;fill:rgb(100%,100%,100%);fill-opacity:1;stroke-width:1;stroke-linecap:butt;stroke-linejoin:miter;stroke:rgb(13.729858%,12.159729%,12.548828%);stroke-opacity:1;stroke-miterlimit:4;" d="M 289 -562.324219 C 289 -554.820312 282.675781 -548.738281 274.871094 -548.738281 C 267.066406 -548.738281 260.738281 -554.820312 260.738281 -562.324219 C 260.738281 -569.828125 267.066406 -575.910156 274.871094 -575.910156 C 282.675781 -575.910156 289 -569.828125 289 -562.324219 Z " transform="matrix(1,0,0,1,-213,582)"/>
<path style="fill-rule:nonzero;fill:rgb(100%,100%,100%);fill-opacity:1;stroke-width:1;stroke-linecap:butt;stroke-linejoin:miter;stroke:rgb(13.729858%,12.159729%,12.548828%);stroke-opacity:1;stroke-miterlimit:4;" d="M 265.089844 -527.542969 C 265.089844 -520.039062 258.761719 -513.953125 250.957031 -513.953125 C 243.152344 -513.953125 236.828125 -520.039062 236.828125 -527.542969 C 236.828125 -535.046875 243.152344 -541.128906 250.957031 -541.128906 C 258.761719 -541.128906 265.089844 -535.046875 265.089844 -527.542969 Z " transform="matrix(1,0,0,1,-213,582)"/>
</g>
</svg>