<?xml version="1.0" encoding="UTF-8"?><svg xmlns="http://www.w3.org/2000/svg" xmlns:xlink="http://www.w3.org/1999/xlink" viewBox="0 0 18.4062 24.6339" width="8.6724pt" height="11.606688744010171pt" version="1.2">
<defs>
<clipPath id="clip1">
  <path d="M 0 0.207031 L 17.832031 0.207031 L 17.832031 24.070312 L 0 24.070312 Z "/>
</clipPath>
<clipPath id="clip2">
  <path d="M 0 7 L 17.832031 7 L 17.832031 19 L 0 19 Z "/>
</clipPath>
</defs>
<g id="surface1">
<g clip-path="url(#clip1)" clip-rule="nonzero">
<path style="fill:none;stroke-width:1;stroke-linecap:butt;stroke-linejoin:miter;stroke:rgb(0%,0%,0%);stroke-opacity:1;stroke-miterlimit:4;" d="M 291.790319 -382.023134 C 291.790319 -376.095699 294.971779 -371.293267 298.895177 -371.293267 C 302.818575 -371.293267 306.000035 -376.095699 306.000035 -382.023134 C 306.000035 -387.946538 302.818575 -392.74897 298.895177 -392.74897 C 294.971779 -392.74897 291.790319 -387.946538 291.790319 -382.023134 Z " transform="matrix(0.968747,0,0,0.968747,-280.538291,382.790937)"/>
</g>
<g clip-path="url(#clip2)" clip-rule="nonzero">
<path style="fill:none;stroke-width:1;stroke-linecap:butt;stroke-linejoin:miter;stroke:rgb(0%,0%,0%);stroke-opacity:1;stroke-miterlimit:4;" d="M 292.29032 -382.083618 C 292.29032 -382.083618 305.625034 -382.083618 305.625034 -382.083618 " transform="matrix(0.968747,0,0,0.968747,-280.538291,382.790937)"/>
</g>
</g>
</svg>