<svg xmlns="http://www.w3.org/2000/svg"
  xmlns:xlink="http://www.w3.org/1999/xlink" width="54.5306pt" height="38.4018pt" viewBox="0 0 54.5306 38.4018" version="1.2">
  <defs>
    <clipPath id="clip1">
      <path d="M 0.1875 0 L 45 0 L 45 10 L 0.1875 10 Z M 0.1875 0 "/>
    </clipPath>
    <clipPath id="clip2">
      <path d="M 0.1875 0 L 28 0 L 28 37.8125 L 0.1875 37.8125 Z M 0.1875 0 "/>
    </clipPath>
    <clipPath id="clip3">
      <path d="M 16 0 L 45 0 L 45 37.8125 L 16 37.8125 Z M 16 0 "/>
    </clipPath>
    <clipPath id="clip4">
      <path d="M 33 0 L 53.882812 0 L 53.882812 10 L 33 10 Z M 33 0 "/>
    </clipPath>
  </defs>
  <g id="surface1">
    <g clip-path="url(#clip1)" clip-rule="nonzero">
      <path style="fill:none;stroke-width:1;stroke-linecap:butt;stroke-linejoin:miter;stroke:rgb(13.729858%,12.159729%,12.548828%);stroke-opacity:1;stroke-miterlimit:4;" d="M 180.166551 -198.10981 C 180.166551 -198.10981 143.998508 -198.10981 143.998508 -198.10981 C 143.998508 -198.10981 180.166551 -198.10981 180.166551 -198.10981 Z M 180.166551 -198.10981 " transform="matrix(0.984662,0,0,0.984662,-138.207761,198.895329)"/>
    </g>
    <g clip-path="url(#clip2)" clip-rule="nonzero">
      <path style="fill:none;stroke-width:1;stroke-linecap:butt;stroke-linejoin:miter;stroke:rgb(13.729858%,12.159729%,12.548828%);stroke-opacity:1;stroke-miterlimit:4;" d="M 162.314605 -166.845101 C 162.314605 -166.845101 144.018343 -198.038402 144.018343 -198.038402 C 144.018343 -198.038402 162.314605 -166.845101 162.314605 -166.845101 Z M 162.314605 -166.845101 " transform="matrix(0.984662,0,0,0.984662,-138.207761,198.895329)"/>
    </g>
    <g clip-path="url(#clip3)" clip-rule="nonzero">
      <path style="fill:none;stroke-width:1;stroke-linecap:butt;stroke-linejoin:miter;stroke:rgb(13.729858%,12.159729%,12.548828%);stroke-opacity:1;stroke-miterlimit:4;" d="M 180.166551 -198.10981 C 180.166551 -198.10981 162.314605 -166.845101 162.314605 -166.845101 " transform="matrix(0.984662,0,0,0.984662,-138.207761,198.895329)"/>
    </g>
    <g clip-path="url(#clip4)" clip-rule="nonzero">
      <path style="fill:none;stroke-width:1;stroke-linecap:butt;stroke-linejoin:miter;stroke:rgb(13.729858%,12.159729%,12.548828%);stroke-opacity:1;stroke-miterlimit:4;" d="M 180.166551 -198.10981 C 180.166551 -198.10981 191.333935 -198.10981 191.333935 -198.10981 " transform="matrix(0.984662,0,0,0.984662,-138.207761,198.895329)"/>
    </g>
    <path style="fill:none;stroke-width:1;stroke-linecap:butt;stroke-linejoin:miter;stroke:rgb(13.729858%,12.159729%,12.548828%);stroke-opacity:1;stroke-miterlimit:4;" d="M 169.832258 -180.606968 C 169.832258 -180.606968 180.999642 -180.606968 180.999642 -180.606968 " transform="matrix(0.984662,0,0,0.984662,-138.207761,198.895329)"/>
  </g>
</svg>