<svg xmlns="http://www.w3.org/2000/svg"
  xmlns:xlink="http://www.w3.org/1999/xlink" width="113.917pt" height="86.917pt" viewBox="0 0 113.917 86.917" version="1.2">
  <defs>
    <clipPath id="clip1">
      <path d="M 26 0 L 33 0 L 33 86.835938 L 26 86.835938 Z M 26 0 "/>
    </clipPath>
    <clipPath id="clip2">
      <path d="M 0.0117188 54 L 60 54 L 60 61 L 0.0117188 61 Z M 0.0117188 54 "/>
    </clipPath>
    <clipPath id="clip3">
      <path d="M 0.0117188 26 L 113.820312 26 L 113.820312 33 L 0.0117188 33 Z M 0.0117188 26 "/>
    </clipPath>
    <clipPath id="clip4">
      <path d="M 0.0117188 80 L 60 80 L 60 86.835938 L 0.0117188 86.835938 Z M 0.0117188 80 "/>
    </clipPath>
  </defs>
  <g id="surface1">
    <g clip-path="url(#clip1)" clip-rule="nonzero">
      <path style="fill:none;stroke-width:6;stroke-linecap:round;stroke-linejoin:miter;stroke:rgb(13.729858%,12.159729%,12.548828%);stroke-opacity:1;stroke-miterlimit:4;" d="M 0.00100691 0.00104518 L 0.00100691 -80.915995 " transform="matrix(0.999046,0,0,-0.999046,29.901338,2.997138)"/>
    </g>
    <g clip-path="url(#clip2)" clip-rule="nonzero">
      <path style="fill:none;stroke-width:6;stroke-linecap:round;stroke-linejoin:miter;stroke:rgb(13.729858%,12.159729%,12.548828%);stroke-opacity:1;stroke-miterlimit:4;" d="M 0.00131068 0.000189117 L -53.831297 0.000189117 " transform="matrix(0.999046,0,0,-0.999046,56.791659,57.070501)"/>
    </g>
    <g clip-path="url(#clip3)" clip-rule="nonzero">
      <path style="fill:none;stroke-width:6;stroke-linecap:round;stroke-linejoin:miter;stroke:rgb(13.729858%,12.159729%,12.548828%);stroke-opacity:1;stroke-miterlimit:4;" d="M 0.000156957 -0.00127816 L -107.915297 -0.00127816 " transform="matrix(0.999046,0,0,-0.999046,110.824062,29.971379)"/>
    </g>
    <path style="fill:none;stroke-width:6;stroke-linecap:round;stroke-linejoin:miter;stroke:rgb(13.729858%,12.159729%,12.548828%);stroke-opacity:1;stroke-miterlimit:4;" d="M 0.0017436 0.00104518 L 0.0017436 -55.125766 " transform="matrix(0.999046,0,0,-0.999046,83.849821,2.997138)"/>
    <g clip-path="url(#clip4)" clip-rule="nonzero">
      <path style="fill:none;stroke-width:6;stroke-linecap:round;stroke-linejoin:miter;stroke:rgb(13.729858%,12.159729%,12.548828%);stroke-opacity:1;stroke-miterlimit:4;" d="M 0.00131068 0.00100471 L -53.831297 0.00100471 " transform="matrix(0.999046,0,0,-0.999046,56.791659,83.836941)"/>
    </g>
  </g>
</svg>