<?xml version="1.0" encoding="UTF-8"?>
<svg xmlns="http://www.w3.org/2000/svg" xmlns:xlink="http://www.w3.org/1999/xlink" width="59.917pt" height="86.917pt" viewBox="0 0 59.917 86.917" version="1.2">
<defs>
<clipPath id="clip1">
  <path d="M 26 0.0195312 L 33 0.0195312 L 33 86.816406 L 26 86.816406 Z M 26 0.0195312 "/>
</clipPath>
<clipPath id="clip2">
  <path d="M 0 54 L 59.835938 54 L 59.835938 61 L 0 61 Z M 0 54 "/>
</clipPath>
<clipPath id="clip3">
  <path d="M 0 26 L 59.835938 26 L 59.835938 33 L 0 33 Z M 0 26 "/>
</clipPath>
<clipPath id="clip4">
  <path d="M 0 80 L 59.835938 80 L 59.835938 86.816406 L 0 86.816406 Z M 0 80 "/>
</clipPath>
</defs>
<g id="surface1">
<g clip-path="url(#clip1)" clip-rule="nonzero">
<path style="fill:none;stroke-width:6;stroke-linecap:round;stroke-linejoin:miter;stroke:rgb(13.729858%,12.159729%,12.548828%);stroke-opacity:1;stroke-miterlimit:4;" d="M -0.000615668 -0.00110152 L -0.000615668 -80.917724 " transform="matrix(0.998617,0,0,-0.998617,29.875615,3.014525)"/>
</g>
<g clip-path="url(#clip2)" clip-rule="nonzero">
<path style="fill:none;stroke-width:6;stroke-linecap:round;stroke-linejoin:miter;stroke:rgb(13.729858%,12.159729%,12.548828%);stroke-opacity:1;stroke-miterlimit:4;" d="M -0.000755912 -0.0017566 L 53.831525 -0.0017566 " transform="matrix(0.998617,0,0,-0.998617,2.996849,57.064652)"/>
</g>
<g clip-path="url(#clip3)" clip-rule="nonzero">
<path style="fill:none;stroke-width:6;stroke-linecap:round;stroke-linejoin:miter;stroke:rgb(13.729858%,12.159729%,12.548828%);stroke-opacity:1;stroke-miterlimit:4;" d="M 0.000244088 0.000613348 L 53.832525 0.000613348 " transform="matrix(0.998617,0,0,-0.998617,2.99585,29.977175)"/>
</g>
<g clip-path="url(#clip4)" clip-rule="nonzero">
<path style="fill:none;stroke-width:6;stroke-linecap:round;stroke-linejoin:miter;stroke:rgb(13.729858%,12.159729%,12.548828%);stroke-opacity:1;stroke-miterlimit:4;" d="M -0.00161103 -0.000723684 L 53.834581 -0.000723684 " transform="matrix(0.998617,0,0,-0.998617,3.079734,83.81959)"/>
</g>
</g>
</svg>
