<?xml version="1.0" encoding="utf-8"?>
<!-- Generator: Adobe Illustrator 23.0.3, SVG Export Plug-In . SVG Version: 6.00 Build 0)  -->
<svg version="1.1" id="Ebene_1" xmlns="http://www.w3.org/2000/svg" xmlns:xlink="http://www.w3.org/1999/xlink" x="0px" y="0px"
width="63.4pt" height="69pt"	 viewBox="0 0 6.34 6.9" style="enable-background:new 0 0 6.34 6.9;" xml:space="preserve">
<path d="M2.96,6.04C2.94,6.06,2.92,6.08,2.9,6.1C2.87,6.12,2.85,6.14,2.83,6.16C2.82,6.17,2.8,6.19,2.78,6.2
	C2.77,6.21,2.76,6.22,2.76,6.23C2.73,6.25,2.71,6.27,2.68,6.29C2.67,6.3,2.66,6.31,2.65,6.32C2.64,6.33,2.62,6.35,2.6,6.36
	C2.59,6.38,2.57,6.39,2.56,6.4C2.55,6.41,2.54,6.42,2.53,6.42C2.52,6.43,2.5,6.45,2.49,6.46c-0.03,0.03-0.07,0.05-0.1,0.08
	C2.37,6.56,2.35,6.56,2.34,6.58C2.33,6.58,2.32,6.59,2.31,6.6C2.3,6.61,2.28,6.61,2.28,6.62C2.25,6.64,2.23,6.65,2.2,6.67
	C2.18,6.68,2.16,6.69,2.15,6.71c-0.01,0-0.01,0.01-0.02,0.01C2.1,6.73,2.07,6.75,2.04,6.76c-0.01,0-0.02,0.01-0.03,0.01
	C2,6.78,1.99,6.78,1.97,6.78c-0.01,0-0.03,0.01-0.04,0.02c0,0,0,0,0,0c-0.02,0-0.04,0.01-0.06,0.01c-0.01,0-0.02,0-0.04,0.01
	c-0.01,0-0.02,0-0.03,0c-0.04,0-0.07,0-0.11,0c-0.02,0-0.03,0-0.05-0.01c-0.01,0-0.02,0-0.03,0c-0.01,0-0.02,0-0.04-0.01
	c0,0-0.01,0-0.02,0c-0.01,0-0.02,0-0.03-0.01c0,0-0.01,0-0.01,0c-0.01,0-0.02,0-0.02-0.01c0,0,0,0-0.01,0
	c-0.02,0-0.04-0.01-0.06-0.02C1.42,6.76,1.4,6.75,1.38,6.74C1.34,6.73,1.32,6.71,1.29,6.69C1.26,6.68,1.23,6.66,1.21,6.64
	C1.17,6.61,1.16,6.59,1.12,6.56C1.1,6.53,1.08,6.5,1.05,6.48C1.05,6.46,1.03,6.45,1.03,6.44C1.01,6.42,1,6.4,0.99,6.37
	C0.98,6.35,0.96,6.32,0.95,6.3c0-0.01-0.01-0.02-0.02-0.03c0-0.01-0.01-0.02-0.01-0.03c0-0.01-0.01-0.03-0.01-0.04
	C0.91,6.19,0.91,6.17,0.9,6.16c0,0,0-0.01,0-0.01c0-0.01,0-0.01-0.01-0.02c0,0,0-0.01,0-0.01c0-0.01,0-0.02-0.01-0.03
	c0,0,0,0,0-0.01c0-0.02-0.01-0.05-0.01-0.07c0,0,0,0,0,0C0.86,5.97,0.86,5.94,0.86,5.91c0-0.01,0-0.02-0.01-0.04
	c0-0.01,0-0.03,0-0.05c0-0.07,0-0.14,0-0.2c0-0.03,0-0.05,0.01-0.08c0-0.01,0-0.03,0-0.05c0-0.03,0-0.05,0.01-0.08
	c0-0.01,0-0.01,0-0.02c0-0.02,0-0.03,0.01-0.05c0-0.01,0-0.02,0-0.02c0-0.01,0-0.03,0.01-0.04c0-0.01,0-0.01,0-0.02
	c0-0.01,0-0.02,0.01-0.04c0,0,0,0,0,0c0-0.03,0.01-0.05,0.01-0.07c0-0.01,0-0.02,0.01-0.02c0-0.01,0-0.02,0-0.02
	c0-0.01,0-0.02,0.01-0.03c0,0,0,0,0,0c0-0.02,0.01-0.04,0.01-0.07c0,0,0-0.01,0-0.01c0.01-0.02,0.01-0.04,0.02-0.06
	c0-0.01,0-0.01,0-0.02c0-0.01,0-0.01,0-0.02c0-0.01,0-0.01,0-0.02c0-0.01,0-0.02,0.01-0.03c0,0,0-0.01,0-0.01
	c0-0.01,0-0.02,0.01-0.03c0-0.01,0-0.01,0-0.02c0-0.01,0-0.01,0-0.02c0-0.01,0-0.01,0-0.02c0-0.01,0-0.02,0.01-0.03c0,0,0,0,0,0
	C1,4.7,1.01,4.68,1.01,4.66c0-0.01,0-0.01,0-0.02c0-0.01,0-0.01,0-0.02c0-0.01,0-0.02,0.01-0.03c0,0,0-0.01,0-0.01
	c0-0.01,0-0.02,0.01-0.03c0-0.02,0.01-0.04,0.01-0.06c0,0,0,0,0-0.01c0-0.01,0.01-0.02,0.01-0.03c0-0.01,0-0.02,0.01-0.03
	c0,0,0-0.01,0-0.01c0-0.01,0-0.02,0.01-0.03c0,0,0-0.01,0-0.01c0-0.01,0-0.02,0.01-0.03c0,0,0,0,0,0c0-0.02,0.01-0.04,0.01-0.06
	c0-0.01,0-0.01,0-0.02c0-0.01,0-0.02,0.01-0.02c0-0.01,0-0.01,0.01-0.02c0,0,0-0.01,0-0.01c0-0.01,0-0.02,0.01-0.03
	c0,0,0-0.01,0-0.01c0-0.01,0-0.02,0.01-0.03c0,0,0-0.01,0-0.02c0-0.01,0.01-0.02,0.01-0.03c0-0.01,0-0.02,0.01-0.03
	c0,0,0-0.01,0-0.01c0-0.01,0-0.02,0.01-0.03c0,0,0-0.01,0-0.01c0-0.01,0-0.02,0.01-0.02c0,0,0,0,0-0.01c0-0.02,0.01-0.04,0.01-0.06
	c0-0.01,0-0.01,0-0.02c0-0.01,0-0.01,0-0.02c0-0.01,0-0.02,0.01-0.03c0,0,0-0.01,0-0.02c0-0.01,0-0.02,0.01-0.02c0,0,0-0.01,0-0.01
	c0-0.01,0-0.02,0.01-0.03c0-0.02,0.01-0.04,0.01-0.06c0-0.01,0-0.01,0-0.02c0,0,0-0.01,0-0.01c0-0.01,0-0.02,0.01-0.03
	c0-0.02,0.01-0.03,0.01-0.05c0-0.01,0-0.02,0.01-0.03c0,0,0-0.01,0-0.01c0-0.01,0-0.02,0.01-0.03c0,0,0,0,0-0.01
	c0-0.01,0-0.03,0.01-0.04c0-0.01,0.01-0.02,0.01-0.03c0-0.02,0.01-0.04,0.01-0.06c0,0,0-0.01,0-0.01c0.01-0.02,0.01-0.05,0.02-0.07
	c0,0,0-0.01,0-0.01c0-0.01,0-0.01,0.01-0.02c0,0,0,0,0,0c0.01-0.02,0.01-0.03,0.01-0.05c0-0.01,0.01-0.02,0.01-0.02
	c0,0,0-0.01,0-0.01c0.01-0.01,0.01-0.03,0.01-0.05C1.35,3.15,1.34,3.14,1.33,3.14c-0.01,0-0.03-0.01-0.04-0.02
	c-0.01,0-0.03-0.01-0.04-0.01C1.23,3.1,1.22,3.1,1.2,3.09C1.2,3.09,1.19,3.09,1.18,3.08C1.17,3.08,1.15,3.08,1.14,3.07
	c0,0,0,0-0.01,0C1.11,3.06,1.09,3.05,1.07,3.04c-0.01,0-0.02-0.01-0.04-0.01C1.02,3.03,1.01,3.02,1,3.02C0.98,3.01,0.96,3,0.94,2.99
	C0.91,2.98,0.89,2.97,0.87,2.96c-0.01,0-0.02-0.01-0.03-0.01C0.81,2.93,0.79,2.92,0.77,2.91C0.75,2.9,0.73,2.89,0.71,2.88
	C0.68,2.86,0.64,2.84,0.6,2.81C0.58,2.8,0.55,2.78,0.53,2.76C0.5,2.74,0.47,2.72,0.45,2.7C0.43,2.68,0.4,2.65,0.38,2.63
	C0.35,2.61,0.33,2.58,0.31,2.56C0.29,2.54,0.28,2.52,0.26,2.49C0.25,2.48,0.24,2.46,0.23,2.45C0.21,2.42,0.2,2.4,0.18,2.37
	C0.17,2.34,0.15,2.32,0.14,2.29c0-0.01-0.01-0.02-0.02-0.03c0-0.01-0.01-0.02-0.01-0.03c0-0.01-0.01-0.02-0.01-0.03
	c0-0.01-0.01-0.02-0.01-0.03c-0.01-0.01,0-0.03-0.02-0.04c0-0.02-0.01-0.03-0.01-0.05c0-0.01-0.01-0.01-0.01-0.02
	c0-0.02-0.01-0.03-0.01-0.04c0,0,0-0.01,0-0.02c0-0.02-0.01-0.05-0.01-0.07c0,0,0-0.01,0-0.01c0-0.02,0-0.03-0.01-0.05
	c0-0.01,0-0.01,0-0.02c0-0.01,0-0.03-0.01-0.04c0-0.01,0-0.02,0-0.02c0-0.01,0-0.02,0-0.04c0,0,0-0.01,0-0.01C0,1.7,0,1.67,0,1.65
	c0-0.01,0-0.02,0-0.03c0,0,0-0.01,0-0.01c0.01-0.02,0-0.05,0.01-0.07c0-0.01,0-0.02,0-0.04c0-0.01,0-0.03,0.01-0.04
	c0-0.01,0-0.02,0-0.03c0-0.02,0-0.03,0.01-0.04c0,0,0,0,0,0c0-0.03,0.01-0.05,0.01-0.08c0-0.01,0-0.01,0-0.02
	c0-0.01,0-0.02,0.01-0.03c0,0,0,0,0-0.01c0.01-0.02,0.01-0.04,0.02-0.05c0.01-0.01,0.01-0.03,0.01-0.04c0-0.01,0-0.02,0.01-0.03
	c0,0,0,0,0-0.01c0-0.02,0.01-0.03,0.01-0.05c0.01-0.02,0.02-0.04,0.02-0.06c0-0.01,0.01-0.02,0.01-0.02
	c0.01-0.02,0.02-0.04,0.03-0.05C0.17,0.93,0.18,0.9,0.19,0.88C0.2,0.86,0.22,0.85,0.23,0.83C0.24,0.81,0.24,0.8,0.26,0.79
	c0,0,0.01-0.01,0.01-0.01c0.01-0.02,0.03-0.04,0.04-0.06C0.32,0.7,0.33,0.69,0.34,0.68C0.36,0.65,0.39,0.63,0.41,0.6
	C0.44,0.57,0.47,0.55,0.5,0.52C0.52,0.5,0.55,0.48,0.57,0.47c0.02-0.02,0.05-0.03,0.07-0.05C0.67,0.39,0.7,0.38,0.73,0.36
	c0.02-0.01,0.04-0.02,0.05-0.03C0.82,0.31,0.85,0.3,0.88,0.28C0.89,0.28,0.9,0.27,0.91,0.27c0.02-0.01,0.05-0.02,0.07-0.03
	C1,0.23,1.03,0.22,1.05,0.21c0.01,0,0.02-0.01,0.03-0.01c0.02-0.01,0.04-0.01,0.05-0.02c0.01,0,0.02,0,0.02-0.01
	c0.01-0.01,0.03-0.01,0.04-0.02c0,0,0,0,0.01,0c0.01,0,0.02,0,0.03-0.01c0.01,0,0.02-0.01,0.04-0.01c0.02,0,0.03-0.01,0.05-0.01
	c0.01-0.01,0.03-0.01,0.04-0.01c0.02,0,0.04-0.01,0.06-0.01c0,0,0,0,0,0c0.02-0.01,0.03-0.01,0.05-0.01c0.01,0,0.02,0,0.02-0.01
	c0.01,0,0.02-0.01,0.03-0.01c0.01,0,0.02,0,0.03-0.01c0,0,0,0,0,0c0.02,0,0.04-0.01,0.06-0.01c0.01,0,0.02,0,0.02-0.01
	c0.01,0,0.01,0,0.02,0c0.01,0,0.02,0,0.03-0.01c0.01,0,0.01,0,0.02,0c0.01,0,0.02,0,0.04-0.01c0,0,0,0,0,0
	c0.03,0,0.05-0.01,0.07-0.01c0.01,0,0.03,0,0.04-0.01c0.01,0,0.02-0.01,0.03,0c0,0,0.01,0,0.01,0c0.02,0,0.04,0,0.06,0
	c0.07,0,0.14,0,0.21,0c0,0,0.01,0,0.01,0c0.01,0.01,0.03,0,0.04,0.01c0.06,0,0.12,0,0.17,0c0,0,0.01,0,0.01,0
	c0.02,0.01,0.05,0.01,0.07,0.01c0.02,0,0.05,0,0.07,0c0.01,0,0.01,0,0.02,0c0,0,0.01,0,0.02,0c0.03,0,0.06,0,0.09,0
	c0,0,0.01,0,0.01,0c0.02,0.01,0.03,0.01,0.05,0.01c0.01,0,0.02,0,0.03,0c0.01,0,0.02,0,0.02,0c0.02,0.01,0.04,0.01,0.07,0.01
	c0.01,0,0.03,0,0.04,0.01c0.01,0,0.02,0,0.03,0c0.02,0,0.04,0,0.06,0.01c0.01,0,0.02,0,0.03,0c0.02,0,0.03,0,0.05,0.01
	c0.01,0,0.02,0,0.03,0c0.02,0,0.03,0,0.05,0.01c0.01,0,0.02,0,0.03,0c0.01,0,0.03,0,0.04,0.01c0,0,0,0,0,0
	c0.03,0,0.06,0.01,0.09,0.01c0.01,0,0.02,0,0.04,0.01c0.01,0,0.02,0,0.02,0c0.01,0,0.02,0,0.03,0.01c0.01,0,0.02,0,0.02,0
	c0.01,0,0.02,0,0.03,0.01c0.01,0,0.02,0,0.03,0c0.01,0,0.02,0,0.03,0.01c0.01,0,0.01,0,0.02,0c0.01,0,0.02,0,0.03,0.01
	c0.01,0,0.01,0,0.02,0c0.01,0,0.03,0,0.04,0.01c0,0,0.01,0,0.01,0c0.01,0,0.03,0,0.04,0.01c0,0,0,0,0,0c0.02,0,0.04,0.01,0.07,0.01
	c0.01,0,0.02,0.01,0.04,0.01c0.01,0,0.02,0,0.04,0.01c0,0,0,0,0,0c0.02,0,0.04,0.01,0.06,0.01c0.01,0,0.01,0,0.02,0
	c0.01,0,0.02,0,0.02,0.01c0,0,0,0,0,0c0.02,0.01,0.04,0.01,0.06,0.02c0,0,0.01,0,0.02,0c0.01,0,0.01,0,0.02,0
	c0.01,0.01,0.02,0,0.03,0.01c0.01,0,0.02,0.01,0.03,0.01c0.01,0,0.02,0,0.03,0.01c0,0,0.01,0,0.02,0c0.01,0,0.02,0,0.02,0.01
	c0,0,0,0,0,0c0.01,0,0.03,0.01,0.04,0.01C4.2,0.3,4.22,0.31,4.24,0.31c0.02,0,0.04,0.01,0.05,0.02c0.02,0,0.03,0.01,0.05,0.01
	c0.02,0,0.03,0.01,0.05,0.01C4.4,0.36,4.42,0.36,4.43,0.37c0.01,0,0.03,0.01,0.04,0.01c0.01,0,0.03,0.01,0.04,0.01
	c0.01,0,0.03,0.01,0.04,0.01c0.01,0,0.03,0.01,0.04,0.01c0.02,0,0.03,0.01,0.04,0.02c0.02,0.01,0.04,0.01,0.07,0.03
	c0.01,0.01,0.02,0.01,0.04,0.01c0.01,0,0.02,0.01,0.03,0.01C4.78,0.49,4.79,0.5,4.8,0.5C4.81,0.5,4.83,0.51,4.84,0.51
	c0.01,0,0.01,0.01,0.02,0.01C4.87,0.53,4.89,0.53,4.9,0.54c0.01,0.01,0.03,0.01,0.04,0.02c0.01,0.01,0.03,0.01,0.04,0.02
	C5,0.58,5.02,0.58,5.03,0.59c0,0,0.01,0,0.01,0c0.01,0,0.01,0,0.02,0.01c0,0,0.01,0,0.01,0c0.01,0,0.02,0,0.02,0.01
	c0,0,0.01,0,0.01,0c0.01,0,0.01,0,0.02,0.01c0,0,0,0,0,0c0.02,0,0.04,0.01,0.06,0.01c0.01,0,0.01,0,0.02,0c0.01,0,0.01,0,0.02,0
	c0.02,0,0.03,0,0.05,0.01c0.01,0,0.02,0,0.03,0c0.03,0,0.05,0,0.08,0c0.01,0,0.03,0,0.04-0.01c0,0,0.01,0,0.02,0
	c0.01,0,0.02,0,0.03-0.01c0,0,0,0,0,0c0.01,0,0.02,0,0.03-0.01c0.01,0,0.03-0.01,0.04-0.01C5.58,0.6,5.6,0.59,5.62,0.58
	c0.03-0.01,0.05-0.03,0.07-0.05c0.02-0.02,0.04-0.04,0.06-0.06c0.01-0.01,0.02-0.03,0.03-0.05C5.79,0.41,5.79,0.4,5.8,0.38
	c0-0.01,0-0.01,0.01-0.02c0,0,0-0.01,0-0.01c0-0.01,0-0.02,0.01-0.03c0,0,0-0.01,0-0.01c0-0.01,0-0.02,0-0.03
	c0-0.01,0-0.02,0.01-0.03c0,0,0-0.01,0-0.01c0-0.01,0-0.02,0.01-0.03c0-0.02,0.01-0.03,0.02-0.05c0-0.01,0.01-0.02,0.02-0.03
	c0-0.01,0.01-0.02,0.02-0.02C5.9,0.11,5.92,0.1,5.93,0.09c0.02-0.01,0.04-0.02,0.06-0.03C6,0.05,6.01,0.05,6.02,0.05
	C6.05,0.03,6.07,0.04,6.1,0.04c0.01,0,0.01,0,0.02,0c0.01,0.01,0.02,0.01,0.03,0.01C6.17,0.06,6.2,0.08,6.22,0.1
	c0.01,0.01,0.02,0.02,0.03,0.03c0.01,0.01,0.02,0.03,0.04,0.05C6.3,0.19,6.3,0.21,6.31,0.23c0.01,0.01,0.01,0.03,0.01,0.04
	C6.34,0.3,6.33,0.32,6.34,0.35c0,0.02,0,0.04,0,0.07c0,0,0,0.01,0,0.01c0,0.03-0.01,0.05-0.02,0.07C6.31,0.52,6.3,0.53,6.3,0.55
	C6.29,0.56,6.28,0.57,6.28,0.59C6.27,0.6,6.26,0.61,6.26,0.62c0,0,0,0,0,0C6.24,0.65,6.22,0.66,6.21,0.68
	C6.19,0.71,6.17,0.73,6.14,0.75C6.14,0.75,6.13,0.76,6.13,0.76C6.1,0.78,6.08,0.8,6.06,0.82C6.04,0.83,6.02,0.84,6.01,0.85
	C5.98,0.87,5.96,0.88,5.94,0.89C5.92,0.91,5.9,0.92,5.89,0.93C5.87,0.93,5.85,0.94,5.84,0.95C5.82,0.96,5.8,0.96,5.79,0.97
	c-0.01,0-0.01,0.01-0.02,0.01C5.75,0.99,5.73,1,5.71,1C5.69,1.02,5.67,1.02,5.64,1.03c-0.02,0-0.03,0.01-0.05,0.01
	c-0.01,0.01-0.03,0-0.04,0.02c0,0-0.01,0-0.01,0c-0.01,0-0.01,0-0.02,0c0,0,0,0-0.01,0c-0.02,0-0.04,0.01-0.06,0.01
	c-0.02,0-0.04,0.01-0.06,0.01C5.39,1.1,5.38,1.1,5.36,1.1C5.34,1.1,5.31,1.1,5.28,1.11C5.26,1.11,5.23,1.11,5.2,1.12
	c-0.02,0-0.04,0-0.07,0.01c-0.01,0-0.01,0-0.02,0c-0.03,0-0.06,0-0.08,0c-0.01,0-0.03,0-0.04,0c-0.01,0-0.01,0-0.02,0
	c-0.04,0-0.07,0-0.11,0c-0.01,0-0.02,0-0.02,0c-0.01,0-0.03,0-0.04,0c-0.02,0-0.04,0-0.05-0.01c-0.01,0-0.02,0-0.03,0
	c-0.01,0-0.03,0-0.04-0.01c-0.01,0-0.02,0-0.02,0c-0.01,0-0.03,0-0.04-0.01c-0.01,0-0.02,0-0.03,0c-0.01,0-0.02,0-0.03,0
	c-0.01,0-0.01,0-0.02,0c-0.01,0-0.03,0-0.04-0.01c-0.01,0-0.02,0-0.02,0c-0.01,0-0.01,0-0.02,0C4.43,1.05,4.42,1.05,4.4,1.05
	c0,0-0.01,0-0.01,0C4.38,1.04,4.36,1.04,4.35,1.04c0,0-0.01,0-0.01,0C4.33,1.03,4.31,1.03,4.3,1.03c-0.01,0-0.01,0-0.02,0
	c-0.01,0-0.01,0-0.02,0c-0.01,0-0.02,0-0.03-0.01C4.21,1.01,4.2,1.01,4.18,1C4.16,1,4.13,1,4.11,0.99c-0.02,0-0.03-0.01-0.05-0.01
	c0,0-0.01,0-0.01,0c0,0-0.01,0-0.01,0C4.02,0.98,4,0.96,3.98,0.96c-0.01,0-0.02-0.01-0.04-0.01c-0.01,0-0.02,0-0.04-0.01
	c0,0,0,0,0,0c-0.02,0-0.04-0.01-0.07-0.01c-0.01,0-0.01,0-0.02,0c-0.01,0-0.02,0-0.03,0c-0.01,0-0.02,0-0.02-0.01c0,0,0,0-0.01,0
	c-0.02,0-0.04-0.01-0.06-0.01c-0.02,0-0.05-0.01-0.07-0.01c-0.01,0-0.03-0.01-0.04-0.01C3.56,0.88,3.54,0.88,3.52,0.87
	c-0.01,0-0.02,0-0.03-0.01c-0.01,0-0.01,0-0.02,0C3.46,0.86,3.44,0.86,3.43,0.86c0,0-0.01,0-0.01,0C3.4,0.85,3.39,0.85,3.37,0.85
	c0,0-0.01,0-0.01,0C3.35,0.84,3.33,0.84,3.32,0.84c-0.01,0-0.02,0-0.02-0.01c-0.01,0-0.01,0-0.02,0c-0.01,0-0.03,0-0.04-0.01
	c-0.01,0-0.02,0-0.02,0c-0.01,0-0.02,0-0.03-0.01c-0.01,0-0.01,0-0.02,0c-0.01,0-0.02,0-0.04-0.01c-0.01,0-0.02,0-0.02,0
	c-0.01,0-0.02,0-0.03-0.01c0,0,0,0-0.01,0C3.03,0.79,3,0.78,2.97,0.78c-0.01,0-0.01,0-0.02,0c-0.01,0-0.01-0.01-0.02-0.01
	c-0.03,0-0.06-0.01-0.1-0.01c-0.03,0-0.06-0.01-0.08-0.01C2.73,0.74,2.71,0.74,2.69,0.74c0,0-0.01,0-0.01,0
	C2.66,0.73,2.64,0.74,2.62,0.73c-0.01,0-0.03,0-0.04-0.01c0,0-0.01,0-0.02,0c-0.01,0-0.02,0-0.03,0c-0.01,0-0.03,0-0.04-0.01
	c-0.01,0-0.02,0-0.03,0c-0.02,0-0.04,0-0.07-0.01c-0.01,0-0.02,0-0.03,0c-0.01,0-0.03,0-0.04,0c-0.01,0-0.02,0-0.02,0
	c0,0-0.01,0-0.02,0c-0.03,0-0.05,0-0.08,0c0,0-0.01,0-0.01,0c-0.03-0.01-0.06-0.01-0.1-0.01c-0.02,0-0.05,0-0.07,0
	C2,0.68,1.96,0.68,1.91,0.68c-0.05,0-0.09,0-0.14,0c-0.02,0-0.05,0-0.07,0c-0.01,0-0.01,0-0.02,0c-0.03,0.01-0.05,0-0.08,0.01
	c-0.02,0-0.05,0-0.07,0c-0.01,0-0.02,0-0.03,0c-0.01,0-0.02,0-0.03,0c-0.01,0-0.03,0-0.04,0c-0.01,0-0.02,0-0.02,0
	c-0.01,0-0.01,0-0.02,0c-0.01,0-0.02,0-0.03,0c-0.01,0-0.01,0-0.02,0C1.34,0.72,1.33,0.71,1.31,0.72c-0.01,0-0.02,0-0.03,0.01
	c0,0-0.01,0-0.01,0c-0.02,0-0.03,0-0.05,0.01c0,0-0.01,0-0.01,0c-0.01,0-0.02,0-0.03,0.01c0,0-0.01,0-0.01,0
	c-0.01,0-0.02,0-0.03,0.01c0,0,0,0,0,0c-0.02,0-0.04,0.01-0.05,0.01c-0.02,0-0.03,0.01-0.05,0.02c0,0,0,0-0.01,0
	C1.01,0.78,1,0.79,0.99,0.79c-0.01,0-0.02,0-0.03,0.01C0.94,0.81,0.93,0.81,0.92,0.82c-0.01,0.01-0.02,0-0.02,0.01
	c-0.01,0-0.02,0.01-0.04,0.01c-0.01,0-0.02,0.01-0.03,0.02C0.81,0.87,0.78,0.88,0.76,0.89C0.74,0.91,0.71,0.92,0.69,0.94
	C0.66,0.96,0.64,0.98,0.62,1C0.59,1.02,0.57,1.05,0.54,1.08C0.52,1.1,0.5,1.13,0.49,1.15C0.48,1.17,0.47,1.18,0.46,1.19
	C0.45,1.21,0.44,1.23,0.44,1.24C0.43,1.27,0.41,1.3,0.41,1.32c0,0.01,0,0.01-0.01,0.02c0,0,0,0.01,0,0.01
	C0.39,1.36,0.39,1.37,0.39,1.38C0.38,1.41,0.37,1.44,0.37,1.47c0,0,0,0.01,0,0.01C0.36,1.5,0.36,1.51,0.36,1.52
	c0,0.02,0,0.03,0,0.05c0,0,0,0.01,0,0.01c-0.01,0.01,0,0.03,0,0.04c0,0.03,0,0.07,0,0.1c0,0.01,0,0.03,0.01,0.04c0,0,0,0.01,0,0.01
	c0,0.03,0,0.05,0,0.08c0,0.01,0,0.02,0.01,0.04c0,0.01,0,0.02,0,0.02c0,0.01,0,0.02,0.01,0.03c0,0,0,0.01,0,0.01
	c0,0.02,0.01,0.03,0.01,0.05C0.4,2.03,0.41,2.06,0.42,2.08C0.43,2.1,0.44,2.11,0.45,2.13c0.01,0.01,0.02,0.03,0.03,0.04
	C0.51,2.2,0.53,2.23,0.57,2.26C0.59,2.27,0.6,2.29,0.62,2.3C0.65,2.32,0.67,2.33,0.7,2.35c0.02,0.02,0.05,0.03,0.08,0.05
	C0.8,2.41,0.83,2.42,0.85,2.44C0.88,2.45,0.9,2.46,0.93,2.47C0.96,2.49,1,2.51,1.04,2.53c0.01,0.01,0.03,0.01,0.04,0.02
	c0.01,0,0.01,0.01,0.02,0.01c0.01,0.01,0.02,0.01,0.03,0.02c0.01,0.01,0.03,0.01,0.04,0.02C1.19,2.6,1.2,2.61,1.21,2.61
	c0.01,0.01,0.03,0.01,0.04,0.02c0.01,0.01,0.02,0.01,0.04,0.02c0.01,0,0.02,0.01,0.03,0.01c0.01,0,0.01,0.01,0.02,0.01
	c0,0,0.01,0,0.02,0.01c0.01,0.01,0.02,0.01,0.03,0.01C1.41,2.7,1.43,2.71,1.46,2.72c0.01,0,0.01,0.01,0.02,0.01
	c0-0.01,0.01-0.01,0.01-0.01c0-0.02,0.01-0.03,0.01-0.04c0-0.01,0-0.01,0-0.01c0-0.01,0-0.01,0-0.02c0-0.01,0-0.02,0.01-0.02
	c0,0,0,0,0-0.01c0-0.02,0.01-0.04,0.02-0.06C1.54,2.52,1.55,2.5,1.55,2.47c0.01-0.01,0.01-0.03,0.02-0.04c0,0,0,0,0,0
	c0-0.01,0-0.02,0.01-0.03c0-0.02,0.01-0.03,0.01-0.05C1.6,2.32,1.6,2.3,1.61,2.29c0,0,0-0.01,0-0.01c0-0.01,0-0.02,0.01-0.02
	c0,0,0-0.01,0-0.01c0-0.01,0-0.01,0.01-0.02c0,0,0-0.01,0-0.01c0-0.01,0-0.02,0.01-0.03c0-0.02,0.01-0.03,0.01-0.05
	c0,0,0-0.01,0-0.01c0,0,0-0.01,0-0.01c0-0.02,0.01-0.03,0.01-0.05c0-0.01,0.01-0.02,0.01-0.03C1.68,2.03,1.69,2.01,1.69,2
	c0,0,0-0.01,0-0.01c0-0.01,0-0.01,0-0.02c0-0.01,0-0.01,0-0.02c0-0.01,0-0.01,0-0.01c0,0,0-0.01,0-0.01c0-0.01,0-0.01,0.01-0.02
	c0,0,0-0.01,0-0.01c0-0.01,0-0.01,0.01-0.02c0,0,0-0.01,0-0.01c0,0,0-0.01,0-0.01C1.74,1.83,1.75,1.81,1.75,1.8
	c0.01-0.02,0.01-0.03,0.02-0.05c0.01-0.01,0.01-0.02,0.01-0.03c0-0.01,0.01-0.03,0.01-0.04C1.8,1.66,1.8,1.65,1.81,1.63
	C1.81,1.62,1.82,1.61,1.82,1.6c0-0.01,0.01-0.01,0.01-0.02c0-0.01,0-0.02,0.01-0.02c0.01-0.01,0.01-0.02,0.01-0.04
	c0-0.01,0.01-0.02,0.01-0.04C1.87,1.46,1.89,1.43,1.9,1.41c0.01-0.03,0.02-0.05,0.04-0.08c0.01-0.02,0.03-0.05,0.05-0.07
	c0.02-0.02,0.05-0.04,0.08-0.05c0.01,0,0.01,0,0.02-0.01c0,0,0,0,0,0c0.02,0,0.04-0.01,0.06-0.01c0.01,0,0.02,0,0.03,0
	c0.01,0,0.01,0,0.02,0c0,0,0.01,0,0.01,0c0.01,0.01,0.03,0,0.04,0c0.01,0,0.02,0,0.04,0c0,0,0.01,0,0.01,0
	C2.31,1.2,2.33,1.2,2.34,1.2c0.01,0,0.01,0.01,0.02,0.01c0.01,0,0.02,0.01,0.02,0.01C2.43,1.24,2.46,1.26,2.49,1.3
	c0.02,0.02,0.03,0.04,0.04,0.07c0,0.01,0.01,0.03,0.02,0.04c0,0,0,0.01,0,0.01c0,0.01,0,0.02,0.01,0.03c0,0.01,0,0.02,0,0.02
	c0,0.05,0,0.11,0,0.16c0,0.01,0,0.02,0,0.04c0,0.01,0,0.01,0,0.02c0,0.02,0,0.04-0.01,0.05c0,0,0,0.01,0,0.01
	c0,0.01,0,0.02-0.01,0.04c0,0.02-0.01,0.04-0.01,0.06c0,0.01,0,0.02-0.01,0.02c0,0,0,0,0,0c0,0.02-0.01,0.04-0.01,0.06
	c0,0.01,0,0.02,0,0.02c0,0,0,0.01,0,0.01c0,0.01,0,0.02-0.01,0.03c0,0,0,0.01,0,0.01c0,0.01,0,0.02-0.01,0.03c0,0.01,0,0.01,0,0.02
	c0,0.01,0,0.01-0.01,0.02c0,0.01,0,0.02-0.01,0.03c0,0.01-0.01,0.02-0.01,0.03c0,0.01,0,0.01,0,0.02c0,0,0,0,0,0.01
	c0,0.02-0.01,0.04-0.01,0.06C2.42,2.24,2.42,2.26,2.42,2.28c0,0,0,0.01,0,0.01c0,0.01,0,0.02-0.01,0.03c0,0.02-0.01,0.04-0.01,0.06
	c0,0,0,0.01,0,0.01c0,0,0,0.01,0,0.01c0,0.01,0,0.02-0.01,0.03c0,0.02-0.01,0.03-0.01,0.04C2.36,2.5,2.36,2.52,2.35,2.55
	c0,0,0,0.01,0,0.01c0,0.01,0,0.01,0,0.02c0,0.01,0,0.01-0.01,0.02c0,0.01,0,0.01-0.01,0.02c0,0,0,0,0,0.01
	c0,0.02-0.01,0.04-0.01,0.05c0,0,0,0.01,0,0.01c0,0.01,0,0.01-0.01,0.02c0,0.01,0,0.01-0.01,0.02c0,0,0,0.01,0,0.01
	c0,0.01,0,0.02-0.01,0.03c0,0,0,0.01,0,0.01c0,0.01,0,0.02-0.01,0.02c0,0,0,0,0,0c0,0.02-0.01,0.03-0.01,0.05
	c0,0.01-0.01,0.02-0.01,0.04C2.28,2.89,2.29,2.9,2.31,2.9c0.01,0,0.03,0,0.04,0.01c0.01,0,0.02,0,0.02,0c0.01,0,0.03,0,0.04,0.01
	c0.01,0,0.02,0,0.03,0c0.01,0,0.02,0,0.04,0.01c0.01,0,0.02,0,0.02,0c0.02,0,0.03,0,0.05,0.01c0,0,0,0,0,0
	c0.04,0,0.07,0.01,0.11,0.01c0.01,0,0.02,0,0.03,0.01c0.01,0,0.03,0,0.04,0.01c0.02,0,0.03,0,0.05,0.01c0.01,0,0.03,0,0.04,0
	c0.01,0,0.03,0,0.04,0c0.02,0,0.03,0,0.05,0c0.02,0,0.03,0,0.04,0.01c0,0,0.01,0,0.01,0c0.01,0,0.03,0,0.04,0
	c0.01,0,0.03,0,0.04,0.01c0,0,0.01,0,0.01,0c0.02,0,0.05,0,0.07,0c0,0,0.01,0,0.01,0C3.16,3.01,3.18,3,3.2,3c0.02,0,0.04,0,0.05,0
	c0.01,0,0.01,0,0.02,0c0,0,0.01,0,0.02,0c0.04,0,0.07,0,0.11,0c0,0,0.01,0,0.01,0c0.04,0.01,0.08,0.01,0.12,0.01
	c0.03,0,0.06,0,0.08,0c0,0,0.01,0,0.01,0c0.01,0.01,0.03,0,0.04,0.01c0.02,0,0.03,0,0.05,0c0,0,0.01,0,0.01,0
	c0-0.01,0.01-0.03,0.01-0.04c0,0,0-0.01,0-0.01c0-0.01,0.01-0.01,0.01-0.02c0-0.01,0-0.01,0.01-0.02c0,0,0-0.01,0-0.02
	c0-0.01,0-0.01,0.01-0.02c0,0,0-0.01,0-0.01c0,0,0-0.01,0-0.01c0.01-0.01,0.01-0.02,0.01-0.03c0,0,0-0.01,0-0.01
	c0-0.01,0-0.01,0-0.02c0-0.01,0-0.01,0-0.02c0-0.01,0-0.01,0.01-0.02c0-0.01,0-0.01,0.01-0.02c0,0,0,0,0-0.01
	c0-0.02,0.01-0.03,0.01-0.05c0-0.02,0.01-0.03,0.01-0.05c0,0,0,0,0-0.01c0-0.02,0.01-0.03,0.01-0.05C3.85,2.6,3.85,2.58,3.86,2.57
	c0,0,0-0.01,0-0.01c0-0.01,0-0.01,0.01-0.02c0,0,0-0.01,0-0.01c0-0.01,0-0.01,0.01-0.02c0,0,0-0.01,0-0.01c0-0.01,0-0.02,0.01-0.03
	C3.89,2.45,3.9,2.43,3.9,2.42c0-0.01,0-0.01,0.01-0.02c0,0,0-0.01,0-0.01c0-0.01,0-0.02,0.01-0.02c0.01-0.01,0.01-0.03,0.01-0.04
	c0-0.01,0-0.01,0.01-0.02c0.01-0.02,0.01-0.03,0.02-0.05c0-0.01,0.01-0.03,0.01-0.04c0-0.02,0.01-0.03,0.02-0.05
	c0.01-0.01,0.01-0.03,0.01-0.04c0,0,0-0.01,0-0.02c0-0.01,0-0.01,0-0.01c0,0,0-0.01,0-0.01c0-0.01,0-0.02,0.01-0.02c0,0,0,0,0-0.01
	c0-0.01,0-0.03,0.01-0.04c0.01-0.01,0.01-0.03,0.01-0.04c0.01-0.01,0-0.02,0.01-0.03c0-0.02,0.01-0.03,0.01-0.04
	c0-0.01,0.01-0.03,0.01-0.04c0-0.01,0.01-0.02,0.01-0.03C4.1,1.8,4.1,1.79,4.1,1.78c0-0.01,0.01-0.02,0.01-0.03
	c0-0.01,0.01-0.02,0.01-0.03C4.13,1.71,4.13,1.7,4.14,1.68c0.01-0.02,0.01-0.03,0.02-0.05C4.17,1.62,4.18,1.61,4.18,1.6
	C4.19,1.58,4.19,1.57,4.2,1.56c0,0,0-0.01,0.01-0.02C4.24,1.5,4.25,1.49,4.28,1.46C4.3,1.45,4.32,1.44,4.34,1.43
	c0.02-0.01,0.04-0.01,0.05-0.01c0.02-0.01,0.04,0,0.05,0c0.03,0,0.07,0,0.1,0c0.01,0,0.02,0,0.03,0.01c0,0,0.01,0,0.01,0
	c0.02,0,0.04,0.01,0.06,0.02C4.67,1.45,4.68,1.46,4.7,1.47c0.03,0.02,0.05,0.04,0.06,0.07c0.01,0.02,0.02,0.03,0.03,0.05
	C4.8,1.6,4.8,1.62,4.81,1.63c0,0,0,0,0,0c0,0.02,0.01,0.04,0.01,0.06c0,0.02,0,0.03,0,0.05c0,0.03,0,0.05,0,0.08c0,0,0,0.01,0,0.01
	C4.81,1.85,4.81,1.87,4.81,1.89c0,0.01,0,0.02-0.01,0.03c0,0.01,0,0.02,0,0.02c0,0.01,0,0.02-0.01,0.03c0,0,0,0,0,0
	c0,0.02-0.01,0.05-0.01,0.07c0,0,0,0,0,0.01C4.77,2.08,4.77,2.1,4.77,2.12c0,0,0,0.01,0,0.01c0,0.01,0,0.03-0.01,0.04
	c0,0.02-0.01,0.04-0.01,0.07c0,0,0,0.01,0,0.01c0,0,0,0.01,0,0.01c0,0.02-0.01,0.03-0.01,0.05c0,0.01,0,0.02-0.01,0.03
	c0,0,0,0.01,0,0.01C4.71,2.37,4.7,2.4,4.7,2.42c0,0,0,0.01,0,0.01c0,0.01,0,0.02-0.01,0.02c0,0,0,0,0,0c0,0.02-0.01,0.04-0.01,0.06
	c0,0.01,0,0.01,0,0.02c0,0,0,0.01,0,0.01c0,0.01,0,0.02-0.01,0.03c0,0,0,0,0,0c0,0.02-0.01,0.03-0.01,0.05c0,0.01,0,0.01,0,0.02
	c0,0,0,0.01,0,0.01c0,0.01-0.01,0.03-0.01,0.04C4.62,2.71,4.62,2.73,4.62,2.75c0,0.01,0,0.01,0,0.02c0,0.01,0,0.01-0.01,0.02
	c0,0,0,0,0,0C4.6,2.8,4.6,2.82,4.59,2.84c0,0.01-0.01,0.02-0.01,0.03c0,0,0,0.01,0,0.01C4.58,2.88,4.58,2.89,4.58,2.9c0,0,0,0,0,0
	c0,0.01-0.01,0.02-0.01,0.03c0,0.01,0,0.02-0.01,0.03c0,0,0,0,0,0c0,0.02-0.01,0.04-0.01,0.05c0,0,0,0.01,0,0.01
	C4.54,3.04,4.54,3.05,4.54,3.07c0,0,0,0.01,0,0.02c0,0.01,0,0.02-0.01,0.02c0,0,0,0,0,0c0,0.02-0.01,0.03-0.01,0.04c0,0,0,0,0,0.01
	c0.01,0.01,0.02,0.01,0.04,0.01c0.01,0,0.01,0,0.02,0c0.02,0,0.03,0,0.05,0.01c0.01,0,0.02,0,0.03,0c0.01,0,0.02,0,0.03,0
	c0,0,0,0,0,0c0.03,0,0.06,0.01,0.08,0.01c0,0,0.01,0,0.01,0c0.01,0.01,0.02,0.01,0.04,0.01c0.02,0,0.04,0.01,0.06,0.01
	C4.89,3.23,4.9,3.23,4.91,3.23c0,0,0.01,0,0.01,0c0.01,0.01,0.02,0.01,0.03,0.01c0,0,0,0,0,0c0.01,0,0.02,0.01,0.03,0.01
	c0.01,0,0.02,0,0.03,0.01c0,0,0.01,0,0.01,0c0.01,0,0.02,0,0.03,0.01c0.01,0.01,0.02,0.01,0.03,0.01c0.01,0,0.02,0.01,0.03,0.01
	C5.13,3.3,5.16,3.31,5.19,3.32C5.2,3.33,5.21,3.33,5.22,3.33c0.01,0,0.01,0,0.02,0.01c0.01,0,0.02,0.01,0.03,0.01
	C5.28,3.36,5.3,3.37,5.31,3.38C5.34,3.39,5.37,3.4,5.4,3.42c0.02,0.01,0.05,0.03,0.07,0.04C5.48,3.48,5.5,3.48,5.52,3.5
	c0,0,0,0,0.01,0c0.02,0.01,0.03,0.03,0.05,0.04c0.02,0.01,0.03,0.03,0.05,0.04C5.65,3.61,5.68,3.64,5.7,3.67
	C5.71,3.68,5.72,3.69,5.72,3.7c0.02,0.03,0.04,0.05,0.06,0.08C5.8,3.8,5.81,3.83,5.83,3.85c0.01,0.02,0.02,0.04,0.03,0.06
	c0.01,0.02,0.02,0.05,0.03,0.07C5.9,4,5.91,4.02,5.91,4.04c0,0.01,0.01,0.02,0.01,0.04c0.01,0.01,0,0.02,0.01,0.03
	c0,0.01,0.01,0.02,0.01,0.03c0,0,0,0.01,0,0.01c0,0,0,0.01,0,0.01c0,0.01,0,0.02,0.01,0.03c0,0.02,0.01,0.04,0.01,0.06
	c0,0,0,0.01,0,0.01C5.98,4.26,5.98,4.28,5.99,4.3c0,0,0,0,0,0C5.99,4.33,6,4.35,6,4.38C6,4.4,6,4.42,6.01,4.43c0,0.01,0,0.02,0,0.02
	c0,0.03,0,0.05,0,0.08c0,0,0,0.01,0,0.01c0.01,0.02,0,0.05,0,0.07c0,0.02,0,0.04,0,0.06c0,0.01,0,0.03,0,0.04c0,0.02,0,0.04,0,0.05
	c0,0.01,0,0.02,0,0.03c0,0.01,0,0.02,0,0.03C6,4.85,6,4.87,6,4.89c0,0.01,0,0.02,0,0.03c0,0,0,0,0,0.01c0,0.03-0.01,0.06-0.01,0.08
	c0,0,0,0,0,0C5.98,5.03,5.97,5.05,5.97,5.07c0,0,0,0.01,0,0.01c0,0.02-0.01,0.04-0.01,0.06c0,0.01-0.01,0.02-0.01,0.03
	c0,0.01,0,0.02-0.01,0.03c0,0,0,0,0,0c0,0.02-0.01,0.03-0.01,0.05c0,0,0,0.01-0.01,0.01c0,0,0,0.01,0,0.01
	c0,0.02-0.01,0.04-0.02,0.05C5.89,5.34,5.88,5.37,5.87,5.4c0,0.01-0.01,0.03-0.02,0.04c0,0.01,0,0.02-0.01,0.03
	C5.83,5.5,5.82,5.52,5.8,5.55C5.8,5.57,5.79,5.59,5.78,5.6C5.77,5.62,5.76,5.65,5.75,5.67C5.74,5.68,5.73,5.7,5.73,5.71
	C5.72,5.73,5.71,5.74,5.7,5.75C5.69,5.78,5.68,5.79,5.67,5.82C5.66,5.83,5.65,5.85,5.64,5.87C5.63,5.88,5.62,5.89,5.61,5.9
	C5.61,5.91,5.6,5.92,5.59,5.93c0,0.01-0.01,0.02-0.02,0.03C5.56,5.98,5.54,6,5.53,6.03C5.51,6.05,5.5,6.07,5.48,6.09
	C5.47,6.1,5.46,6.12,5.45,6.13c-0.03,0.04-0.07,0.08-0.1,0.12C5.33,6.27,5.32,6.29,5.3,6.3C5.29,6.32,5.28,6.33,5.26,6.34
	C5.25,6.36,5.23,6.37,5.22,6.39C5.2,6.4,5.19,6.42,5.17,6.43C5.16,6.44,5.14,6.45,5.13,6.47C5.12,6.48,5.1,6.49,5.09,6.5
	C5.08,6.51,5.07,6.52,5.06,6.52C5.05,6.53,5.04,6.54,5.03,6.55c0,0-0.01,0.01-0.01,0.01C5.01,6.56,5.01,6.57,5,6.57
	c-0.01,0-0.01,0.01-0.02,0.01c0,0-0.01,0.01-0.01,0.01C4.94,6.62,4.91,6.64,4.88,6.66C4.86,6.67,4.84,6.68,4.82,6.7
	C4.8,6.71,4.77,6.72,4.75,6.73C4.74,6.74,4.73,6.75,4.71,6.75C4.69,6.77,4.67,6.78,4.65,6.78C4.62,6.8,4.59,6.81,4.57,6.82
	C4.55,6.83,4.53,6.83,4.51,6.84c-0.01,0-0.01,0-0.02,0.01c0,0-0.01,0-0.01,0c-0.02,0-0.03,0.01-0.05,0.01
	C4.42,6.87,4.4,6.87,4.39,6.87C4.37,6.88,4.36,6.88,4.34,6.88C4.32,6.89,4.3,6.89,4.28,6.89c0,0-0.01,0-0.01,0
	C4.25,6.9,4.23,6.9,4.21,6.9c-0.02,0-0.04,0-0.07,0c-0.02,0-0.03,0-0.05-0.01c-0.01,0-0.02,0-0.04,0c-0.01,0-0.02,0-0.04-0.01
	c0,0-0.01,0-0.01,0c-0.01,0-0.03,0-0.04-0.01c0,0-0.01,0-0.01,0c-0.01,0-0.02,0-0.02-0.01c0,0-0.01,0-0.01,0
	c-0.02,0-0.03-0.01-0.05-0.01c-0.01,0-0.03-0.01-0.04-0.01c-0.01,0-0.03-0.01-0.04-0.01c-0.01,0-0.02-0.01-0.04-0.01
	c-0.01,0-0.03-0.01-0.04-0.02c-0.01,0-0.01-0.01-0.02-0.01C3.68,6.78,3.67,6.77,3.66,6.76C3.64,6.76,3.63,6.75,3.61,6.74
	C3.6,6.73,3.58,6.72,3.57,6.71C3.56,6.71,3.55,6.7,3.54,6.69C3.52,6.68,3.5,6.67,3.48,6.65C3.47,6.64,3.45,6.63,3.43,6.61
	C3.41,6.6,3.39,6.58,3.38,6.57C3.36,6.56,3.35,6.54,3.34,6.53C3.31,6.51,3.29,6.48,3.26,6.46C3.24,6.44,3.22,6.41,3.2,6.39
	C3.18,6.36,3.16,6.34,3.14,6.32C3.14,6.31,3.13,6.3,3.12,6.29C3.11,6.26,3.09,6.24,3.07,6.22C3.06,6.2,3.05,6.18,3.04,6.16
	C3.02,6.13,3.01,6.11,2.99,6.08C2.99,6.07,2.98,6.06,2.98,6.05C2.97,6.04,2.97,6.04,2.96,6.04z M3.64,3.37c-0.01,0-0.02,0-0.02,0
	c-0.03,0-0.05,0-0.08,0c-0.01,0-0.02,0-0.02,0c-0.01,0-0.02,0-0.03,0c-0.05,0-0.1,0-0.15,0c-0.02,0-0.03,0-0.05,0
	C3.28,3.35,3.27,3.35,3.26,3.35c-0.02,0-0.04,0-0.06,0c-0.01,0-0.03,0-0.04,0c-0.02-0.01-0.03,0-0.04-0.01c-0.01,0-0.02,0-0.04,0
	c-0.01,0-0.02,0-0.03,0c-0.01,0-0.02,0-0.02,0c-0.01,0-0.03,0-0.04,0c-0.01,0-0.02,0-0.02,0C2.95,3.32,2.94,3.32,2.93,3.32
	c-0.04,0-0.07-0.01-0.11-0.01c0,0,0,0,0,0C2.8,3.3,2.78,3.3,2.76,3.3c-0.01,0-0.02,0-0.02,0C2.73,3.29,2.71,3.29,2.7,3.29
	c-0.01,0-0.02,0-0.03-0.01c0,0-0.01,0-0.01,0c-0.02,0-0.04,0-0.06-0.01c0,0,0,0-0.01,0c-0.02,0-0.03,0-0.04-0.01c0,0-0.01,0-0.01,0
	c-0.02,0-0.03,0-0.04-0.01c-0.02,0-0.04-0.01-0.06-0.01c-0.01,0-0.03,0-0.04-0.01c-0.02,0-0.04-0.01-0.06-0.01
	c-0.01,0-0.03,0-0.04-0.01c-0.02,0-0.04-0.01-0.06-0.01c-0.01,0-0.02,0-0.04-0.01c-0.01,0-0.01,0-0.01,0.01
	c0,0.02-0.01,0.03-0.01,0.05C2.16,3.27,2.16,3.28,2.15,3.29c0,0.01-0.01,0.02-0.01,0.04c0,0,0,0,0,0C2.14,3.34,2.14,3.35,2.14,3.35
	c0,0.01,0,0.01,0,0.02c0,0.01,0,0.01,0,0.02c0,0.01,0,0.01-0.01,0.02c0,0,0,0.01,0,0.01c0,0.02-0.01,0.04-0.01,0.06
	c0,0.01,0,0.02-0.01,0.03c0,0.01-0.01,0.03-0.01,0.04c0,0,0,0,0,0c0,0.01,0,0.01-0.01,0.02c0,0.01,0,0.01,0,0.02
	c0,0.01,0,0.01,0,0.02c0,0.01,0,0.02-0.01,0.02c0,0.02-0.01,0.03-0.01,0.05c0,0,0,0.01,0,0.01c0,0,0,0.01,0,0.01
	c0,0.01,0,0.01-0.01,0.02c0,0.01,0,0.01,0,0.02c0,0.01-0.01,0.02-0.01,0.02c0,0,0,0.01,0,0.01c0,0.01,0,0.01-0.01,0.02
	c0,0.01,0,0.01,0,0.02c0,0.01,0,0.01,0,0.02c0,0.02-0.01,0.03-0.01,0.05c0,0,0,0.01,0,0.01c0,0,0,0.01,0,0.01
	c0,0.02-0.01,0.03-0.01,0.05c0,0,0,0.01,0,0.01c0,0.01,0,0.01,0,0.02c0,0.02-0.01,0.03-0.01,0.05C1.96,4.03,1.95,4.04,1.95,4.05
	c0,0,0,0.01,0,0.01c0,0.01,0,0.01-0.01,0.02c0,0,0,0.01,0,0.01C1.94,4.1,1.94,4.11,1.94,4.12c0,0.01,0,0.01,0,0.01
	c0,0.01,0,0.01,0,0.02c0,0.01,0,0.02-0.01,0.02c0,0.02-0.01,0.03-0.01,0.05c0,0,0,0,0,0c0,0.01,0,0.01,0,0.02c0,0.01,0,0.01,0,0.02
	c0,0.02-0.01,0.03-0.01,0.05c0,0,0,0,0,0C1.88,4.32,1.88,4.33,1.88,4.34c0,0.01,0,0.01,0,0.02c0,0.01,0,0.01-0.01,0.02
	c0,0.01,0,0.01,0,0.02c0,0.01,0,0.01,0,0.02c0,0.01,0,0.01,0,0.02c0,0.01-0.01,0.01-0.01,0.02c0,0.01,0,0.01-0.01,0.02
	c0,0,0,0.01,0,0.01c0,0.01,0,0.02-0.01,0.03c0,0.02-0.01,0.03-0.01,0.05c0,0,0,0,0,0c0,0.02-0.01,0.04-0.01,0.06c0,0,0,0,0,0
	C1.8,4.64,1.8,4.66,1.79,4.67c0,0.01,0,0.01-0.01,0.02c0,0.01,0,0.01,0,0.02c0,0.01,0,0.01,0,0.02c0,0.02-0.01,0.04-0.01,0.06
	c0,0,0,0,0,0c0,0.01,0,0.01,0,0.02c0,0.01,0,0.01,0,0.02c0,0.01,0,0.01,0,0.02c0,0.01,0,0.02-0.01,0.03c0,0,0,0.01,0,0.01
	C1.74,4.9,1.74,4.91,1.73,4.92c0,0.01,0,0.01,0,0.02c0,0.01,0,0.01,0,0.02c0,0.01,0,0.02-0.01,0.02c0,0.02-0.01,0.04-0.01,0.05
	c0,0,0,0,0,0.01c0,0.01,0,0.01,0,0.02c0,0.01,0,0.01,0,0.02c0,0.01,0,0.01,0,0.02C1.69,5.1,1.69,5.11,1.69,5.12c0,0,0,0.01,0,0.01
	c-0.01,0.01,0,0.01-0.01,0.02c0,0.01,0,0.01,0,0.02c0,0,0,0.01,0,0.01c0,0.01,0,0.02-0.01,0.03c0,0.02-0.01,0.04-0.01,0.05
	c0,0,0,0,0,0c0,0.02,0,0.04-0.01,0.06c-0.01,0.02,0,0.04-0.02,0.06c0,0,0,0,0,0.01c0,0.01,0,0.03-0.01,0.04
	c0,0.02-0.01,0.04-0.01,0.06c0,0.01,0,0.03-0.01,0.04c0,0,0,0.01,0,0.01c0,0.01,0,0.03-0.01,0.04c0,0,0,0.01,0,0.01
	c0,0.03-0.01,0.05-0.01,0.08c0,0,0,0,0,0C1.56,5.7,1.56,5.72,1.56,5.73c0,0.01,0,0.01,0,0.02C1.55,5.77,1.56,5.79,1.55,5.81
	c0,0.01,0,0.01,0,0.02C1.55,5.84,1.55,5.86,1.55,5.88c0,0.01,0,0.03,0,0.04c0,0.01,0,0.01,0,0.02c0,0.03,0,0.07,0,0.1
	c0,0.01,0,0.03,0.01,0.04c0,0,0,0.01,0,0.01c0,0.02,0.01,0.03,0.01,0.05c0,0.02,0.01,0.04,0.03,0.06C1.6,6.24,1.63,6.27,1.67,6.29
	c0.01,0,0.02,0.01,0.02,0.01C1.7,6.31,1.71,6.31,1.72,6.32c0.02,0,0.03,0.01,0.05,0.01c0,0,0,0,0.01,0C1.78,6.34,1.79,6.33,1.8,6.34
	c0.04,0,0.07,0,0.11,0c0,0,0.01,0,0.01,0c0.01-0.01,0.03-0.01,0.04-0.01c0,0,0.01,0,0.01,0c0.02-0.01,0.03,0,0.05-0.01
	c0.02,0,0.03-0.01,0.05-0.02c0.02-0.01,0.04-0.02,0.05-0.02C2.16,6.25,2.2,6.23,2.24,6.21C2.25,6.2,2.26,6.2,2.27,6.19
	C2.28,6.17,2.3,6.16,2.32,6.15C2.35,6.12,2.38,6.1,2.41,6.07c0.03-0.03,0.07-0.07,0.1-0.1c0.03-0.03,0.05-0.06,0.08-0.09
	C2.6,5.86,2.61,5.84,2.63,5.82c0.01-0.01,0.02-0.03,0.03-0.04c0.01-0.01,0.02-0.03,0.03-0.05c0.02-0.03,0.04-0.06,0.06-0.1
	c0.01-0.01,0.01-0.02,0.02-0.03C2.79,5.59,2.8,5.56,2.81,5.54c0-0.01,0.01-0.01,0.01-0.02C2.83,5.51,2.84,5.5,2.84,5.49
	c0.01-0.01,0.01-0.02,0.02-0.03c0.01-0.01,0.02-0.03,0.02-0.04C2.9,5.39,2.91,5.37,2.92,5.35c0.01-0.02,0.02-0.04,0.03-0.07
	c0.01-0.02,0.02-0.03,0.02-0.05C2.98,5.22,2.99,5.21,3,5.19c0.01-0.03,0.02-0.05,0.04-0.08C3.04,5.1,3.05,5.08,3.05,5.07
	c0.02-0.02,0.02-0.05,0.04-0.08C3.1,4.97,3.11,4.96,3.11,4.94c0.02-0.02,0.02-0.05,0.04-0.08C3.16,4.83,3.17,4.8,3.18,4.77
	c0.01-0.01,0.01-0.02,0.01-0.02C3.2,4.73,3.21,4.71,3.22,4.68c0-0.01,0-0.02,0.01-0.03c0.01-0.01,0.01-0.03,0.02-0.04
	C3.25,4.61,3.25,4.6,3.25,4.59c0-0.01,0.01-0.02,0.01-0.03C3.28,4.52,3.29,4.49,3.3,4.46c0-0.02,0.02-0.04,0.02-0.06
	c0.01-0.01,0.01-0.02,0.01-0.03c0.01-0.01,0.01-0.03,0.02-0.04C3.36,4.3,3.36,4.27,3.38,4.24C3.39,4.21,3.4,4.18,3.41,4.15
	C3.42,4.13,3.42,4.1,3.43,4.08c0,0,0,0,0-0.01c0-0.02,0.01-0.03,0.01-0.04C3.45,4.02,3.45,4.01,3.45,4c0-0.01,0.01-0.02,0.01-0.03
	c0-0.01,0.01-0.02,0.01-0.04C3.48,3.93,3.48,3.91,3.49,3.9C3.5,3.88,3.5,3.87,3.5,3.85c0-0.01,0.01-0.03,0.01-0.04
	C3.52,3.8,3.52,3.78,3.53,3.77c0-0.02,0.01-0.03,0.01-0.05c0,0,0,0,0,0c0.01,0,0.01-0.01,0.01-0.02c0,0,0-0.01,0-0.01
	c0.01-0.01,0-0.03,0.02-0.05c0-0.01,0-0.02,0.01-0.03C3.58,3.6,3.58,3.58,3.59,3.57c0,0,0-0.01,0-0.01C3.6,3.55,3.59,3.53,3.6,3.51
	c0,0,0,0,0-0.01c0-0.02,0.01-0.03,0.01-0.05c0-0.01,0.01-0.02,0.01-0.03c0,0,0-0.01,0-0.01c0,0,0-0.01,0-0.01
	c0-0.01,0-0.02,0.01-0.03C3.64,3.38,3.64,3.37,3.64,3.37z M4.49,3.44C4.48,3.45,4.47,3.46,4.47,3.47c0,0,0,0.01,0,0.01
	C4.47,3.49,4.46,3.49,4.46,3.5c0,0.01,0,0.01-0.01,0.01c0,0,0,0.01,0,0.01c0,0.01-0.01,0.03-0.01,0.04C4.44,3.58,4.44,3.59,4.43,3.6
	c0,0.01-0.01,0.02-0.01,0.03c0,0.01-0.01,0.02-0.01,0.03c0,0.01,0,0.02-0.01,0.03C4.4,3.71,4.39,3.73,4.39,3.74
	c0,0.01-0.01,0.03-0.01,0.04C4.37,3.8,4.37,3.81,4.36,3.83C4.35,3.84,4.35,3.86,4.35,3.87c0,0,0,0,0,0.01
	c-0.01,0-0.01,0.01-0.01,0.02c0,0,0,0.01,0,0.01C4.33,3.92,4.33,3.93,4.32,3.95c0,0.02-0.01,0.03-0.01,0.05
	C4.3,4,4.31,4.02,4.3,4.02C4.29,4.04,4.29,4.05,4.28,4.07C4.28,4.08,4.28,4.09,4.27,4.11c0,0.01-0.01,0.02-0.01,0.04
	c0,0.01-0.01,0.01-0.01,0.02c0,0.01,0,0.02-0.01,0.03c0,0.01,0,0.02-0.01,0.03c0,0.02-0.01,0.03-0.01,0.05
	c0,0.01-0.01,0.02-0.01,0.03c0,0,0,0,0,0C4.21,4.31,4.21,4.31,4.21,4.32c0,0,0,0.01,0,0.01C4.19,4.34,4.2,4.36,4.19,4.37
	C4.18,4.39,4.18,4.41,4.17,4.43c0,0,0,0,0,0.01c0,0.02-0.01,0.03-0.01,0.04c-0.01,0.01,0,0.02-0.01,0.03
	C4.14,4.53,4.14,4.54,4.13,4.56C4.13,4.57,4.12,4.59,4.12,4.6c0,0,0,0.01,0,0.01c0,0,0,0.01-0.01,0.01c0,0.01-0.01,0.03-0.01,0.04
	c-0.01,0.01,0,0.03-0.02,0.04c0,0.01-0.01,0.02-0.01,0.03c0,0.01-0.01,0.02-0.01,0.03c0,0.02-0.01,0.04-0.02,0.05
	c0,0.02-0.01,0.03-0.01,0.05c0,0.01,0,0.01-0.01,0.02c0,0.01,0,0.02-0.01,0.02c0,0.01,0,0.01,0,0.01C4.01,4.95,4,4.96,4,4.98
	c0,0,0,0,0,0C4,4.98,4,4.99,4,5c0,0.02-0.01,0.03-0.01,0.05c0,0.01,0,0.01-0.01,0.02c0,0,0,0.01,0,0.01
	C3.97,5.09,3.97,5.1,3.96,5.12C3.95,5.13,3.95,5.15,3.95,5.16c0,0,0,0,0,0C3.94,5.18,3.94,5.2,3.93,5.21
	C3.92,5.23,3.92,5.24,3.92,5.26c0,0,0,0,0,0.01C3.91,5.27,3.91,5.28,3.91,5.29c0,0,0,0.01,0,0.01c0,0.01,0,0.01-0.01,0.02
	c0,0,0,0.01,0,0.01c0,0.01-0.01,0.01-0.01,0.02c0,0,0,0.01,0,0.01C3.88,5.37,3.88,5.38,3.88,5.38c0,0.01-0.01,0.03-0.01,0.04
	c0,0,0,0,0,0c0,0.01,0,0.01-0.01,0.02c0,0,0,0.01,0,0.01C3.85,5.48,3.85,5.49,3.85,5.51c0,0.01,0,0.02-0.01,0.03
	c0,0.01-0.01,0.03-0.01,0.04c0,0,0,0,0,0.01c0,0.01,0,0.01-0.01,0.02c0,0.01,0,0.01,0,0.02c0,0.01,0,0.01-0.01,0.02
	c0,0.01,0,0.01,0,0.02c0,0.02-0.01,0.04-0.01,0.06c0,0,0,0,0,0C3.79,5.73,3.79,5.74,3.79,5.75c0,0.01,0,0.01,0,0.02
	C3.78,5.78,3.78,5.79,3.78,5.81c0,0.01,0,0.02,0,0.02c0,0.01-0.01,0.02-0.01,0.03c0,0.04,0,0.08,0,0.12c0,0.01,0,0.01,0,0.02
	c0.01,0.01,0.01,0.03,0.01,0.04c0,0,0,0.01,0,0.01c0,0.01,0,0.01,0.01,0.02c0,0,0,0.01,0,0.01C3.8,6.09,3.8,6.1,3.81,6.11
	c0.01,0.02,0.02,0.04,0.04,0.06C3.86,6.2,3.89,6.23,3.91,6.25c0.03,0.02,0.06,0.05,0.09,0.06c0.01,0.01,0.03,0.01,0.04,0.02
	c0.01,0.01,0.02,0.01,0.03,0.02c0.01,0,0.03,0.01,0.04,0.01c0,0,0,0,0.01,0c0,0,0.01,0,0.02,0.01c0,0,0.01,0,0.01,0
	c0.01,0,0.01,0,0.02,0.01c0.01,0,0.01,0,0.02,0.01c0.02,0,0.04,0.01,0.06,0.01c0.01,0,0.03,0,0.04,0.01c0.01,0,0.01,0,0.02,0
	c0.05,0,0.09,0,0.14-0.01c0.01,0,0.02-0.01,0.03-0.01c0,0,0,0,0,0c0.01,0,0.03,0,0.04-0.01c0.03,0,0.05-0.02,0.07-0.02
	c0.02-0.01,0.04-0.02,0.06-0.02c0.02-0.01,0.05-0.02,0.07-0.03c0.01-0.01,0.02-0.01,0.03-0.02C4.78,6.27,4.79,6.26,4.8,6.26
	c0.01-0.01,0.02-0.01,0.03-0.02C4.85,6.22,4.86,6.21,4.88,6.2C4.9,6.18,4.92,6.17,4.94,6.15c0,0,0,0,0,0
	c0.02-0.01,0.03-0.02,0.04-0.03c0.03-0.03,0.06-0.05,0.08-0.08C5.08,6.01,5.1,6,5.11,5.99c0.01-0.01,0.02-0.03,0.03-0.04
	C5.16,5.93,5.18,5.9,5.2,5.88c0.01-0.01,0.02-0.03,0.03-0.05C5.25,5.82,5.26,5.8,5.27,5.78C5.28,5.76,5.3,5.73,5.31,5.71
	c0.01-0.02,0.03-0.04,0.04-0.06C5.36,5.62,5.38,5.6,5.39,5.57c0.02-0.03,0.03-0.06,0.05-0.09c0.02-0.03,0.03-0.06,0.04-0.1
	c0-0.01,0.01-0.02,0.01-0.02C5.5,5.34,5.5,5.33,5.51,5.31c0-0.01,0.01-0.02,0.01-0.03c0.01-0.02,0.01-0.03,0.02-0.05
	C5.54,5.22,5.55,5.21,5.55,5.2c0-0.01,0.01-0.03,0.01-0.04c0-0.01,0.01-0.02,0.01-0.03c0-0.01,0.01-0.01,0.01-0.02
	c0,0,0-0.01,0-0.01c0-0.01,0.01-0.02,0.01-0.02c0,0,0-0.01,0-0.01c0-0.01,0-0.01,0.01-0.02c0,0,0-0.01,0-0.01
	C5.61,5.01,5.61,5.01,5.61,5c0-0.01,0-0.01,0-0.02c0-0.01,0-0.01,0-0.02c0-0.01,0-0.01,0-0.02c0.01-0.01,0.01-0.02,0.01-0.04
	c0,0,0-0.01,0-0.01c0.01-0.01,0.01-0.02,0.01-0.03c0,0,0-0.01,0-0.01c0.01-0.01,0.01-0.02,0.01-0.04c0-0.01,0-0.01,0-0.02
	c0.01-0.02,0.01-0.03,0.01-0.05c0-0.01,0-0.02,0-0.02c0-0.01,0.01-0.03,0.01-0.04c0-0.01,0-0.03,0-0.04c0-0.02,0.01-0.03,0.01-0.05
	c0-0.02,0-0.05,0-0.07c0-0.02,0-0.04,0-0.07c0-0.01,0-0.02,0-0.03c0-0.02-0.01-0.04-0.01-0.06c0-0.03-0.01-0.05-0.01-0.08
	c0,0,0,0,0-0.01C5.66,4.27,5.66,4.27,5.66,4.26c0,0,0,0,0-0.01C5.65,4.24,5.65,4.22,5.64,4.2c0-0.01-0.01-0.02-0.01-0.03
	C5.62,4.16,5.62,4.14,5.61,4.13c0-0.01-0.01-0.02-0.01-0.02c0-0.01-0.01-0.02-0.02-0.04C5.57,4.03,5.55,4,5.53,3.97
	C5.51,3.95,5.5,3.94,5.48,3.92C5.47,3.9,5.46,3.89,5.45,3.88C5.44,3.86,5.42,3.85,5.41,3.83C5.4,3.82,5.39,3.82,5.38,3.81
	C5.38,3.8,5.37,3.8,5.36,3.79c-0.04-0.04-0.08-0.07-0.13-0.1C5.21,3.68,5.18,3.66,5.15,3.64C5.13,3.63,5.11,3.62,5.09,3.61
	c-0.03-0.01-0.06-0.03-0.1-0.04C4.98,3.56,4.97,3.56,4.96,3.56C4.95,3.55,4.94,3.54,4.92,3.54c-0.01,0-0.02-0.01-0.04-0.01
	C4.87,3.52,4.85,3.52,4.83,3.51C4.82,3.51,4.8,3.5,4.79,3.5c-0.01,0-0.02-0.01-0.03-0.01C4.75,3.49,4.73,3.48,4.72,3.48
	c0,0,0,0-0.01,0c-0.01,0-0.01,0-0.02-0.01c-0.02,0-0.04-0.01-0.07-0.01c0,0,0,0,0,0C4.61,3.45,4.6,3.46,4.59,3.45
	c-0.01,0-0.02,0-0.03,0C4.55,3.45,4.54,3.45,4.52,3.44C4.51,3.44,4.5,3.44,4.49,3.44z"/>
</svg>
