<?xml version="1.0" encoding="UTF-8"?>
<svg xmlns="http://www.w3.org/2000/svg" xmlns:xlink="http://www.w3.org/1999/xlink" width="113.917pt" height="86.917pt" viewBox="0 0 113.917 86.917" version="1.2">
<defs>
<clipPath id="clip1">
  <path d="M 80 0 L 87 0 L 87 86.835938 L 80 86.835938 Z M 80 0 "/>
</clipPath>
<clipPath id="clip2">
  <path d="M 54 54 L 113.820312 54 L 113.820312 61 L 54 61 Z M 54 54 "/>
</clipPath>
<clipPath id="clip3">
  <path d="M 0.0117188 26 L 113.820312 26 L 113.820312 33 L 0.0117188 33 Z M 0.0117188 26 "/>
</clipPath>
<clipPath id="clip4">
  <path d="M 54 80 L 113.820312 80 L 113.820312 86.835938 L 54 86.835938 Z M 54 80 "/>
</clipPath>
</defs>
<g id="surface1">
<g clip-path="url(#clip1)" clip-rule="nonzero">
<path style="fill:none;stroke-width:6;stroke-linecap:round;stroke-linejoin:miter;stroke:rgb(13.729858%,12.159729%,12.548828%);stroke-opacity:1;stroke-miterlimit:4;" d="M 0.000853185 0.00104518 L 0.000853185 -80.915995 " transform="matrix(0.999046,0,0,-0.999046,83.932741,2.997138)"/>
</g>
<g clip-path="url(#clip2)" clip-rule="nonzero">
<path style="fill:none;stroke-width:6;stroke-linecap:round;stroke-linejoin:miter;stroke:rgb(13.729858%,12.159729%,12.548828%);stroke-opacity:1;stroke-miterlimit:4;" d="M 0.000549412 0.000189117 L 53.833157 0.000189117 " transform="matrix(0.999046,0,0,-0.999046,57.04242,57.070501)"/>
</g>
<g clip-path="url(#clip3)" clip-rule="nonzero">
<path style="fill:none;stroke-width:6;stroke-linecap:round;stroke-linejoin:miter;stroke:rgb(13.729858%,12.159729%,12.548828%);stroke-opacity:1;stroke-miterlimit:4;" d="M 0.00170313 -0.00127816 L 107.917157 -0.00127816 " transform="matrix(0.999046,0,0,-0.999046,3.010017,29.971379)"/>
</g>
<path style="fill:none;stroke-width:6;stroke-linecap:round;stroke-linejoin:miter;stroke:rgb(13.729858%,12.159729%,12.548828%);stroke-opacity:1;stroke-miterlimit:4;" d="M 0.00011649 0.00104518 L 0.00011649 -55.125766 " transform="matrix(0.999046,0,0,-0.999046,29.984259,2.997138)"/>
<g clip-path="url(#clip4)" clip-rule="nonzero">
<path style="fill:none;stroke-width:6;stroke-linecap:round;stroke-linejoin:miter;stroke:rgb(13.729858%,12.159729%,12.548828%);stroke-opacity:1;stroke-miterlimit:4;" d="M 0.000549412 0.00100471 L 53.833157 0.00100471 " transform="matrix(0.999046,0,0,-0.999046,57.04242,83.836941)"/>
</g>
</g>
</svg>
