<!-- Generator: Adobe Illustrator 23.0.3, SVG Export Plug-In . SVG Version: 6.00 Build 0)  --><svg xmlns="http://www.w3.org/2000/svg" xmlns:xlink="http://www.w3.org/1999/xlink" version="1.1" id="Ebene_1" x="0px" y="0px" viewBox="0 0 5.82 3.09" style="enable-background:new 0 0 5.82 3.09;" xml:space="preserve">
<g>
	<path d="M3.03,2.07C2.85,2.43,2.62,2.69,2.36,2.85c-0.26,0.16-0.6,0.24-1.02,0.24C1.1,3.09,0.87,3.06,0.66,3   C0.45,2.94,0.23,2.84,0,2.7V2.48C0.36,2.7,0.72,2.81,1.08,2.81c0.22,0,0.41-0.04,0.57-0.12c0.15-0.08,0.3-0.21,0.44-0.4   c0.1-0.14,0.27-0.46,0.51-0.97C2.21,0.64,1.7,0.3,1.03,0.3C0.65,0.3,0.31,0.4,0,0.61V0.39C0.34,0.13,0.72,0,1.13,0   C1.41,0,1.67,0.07,1.9,0.2c0.23,0.13,0.51,0.42,0.82,0.87c0.19-0.29,0.4-0.51,0.64-0.65C3.6,0.27,3.89,0.2,4.24,0.2   c0.44,0,0.81,0.13,1.12,0.38c0.31,0.26,0.46,0.58,0.46,0.98c0,0.4-0.14,0.73-0.43,0.98C5.11,2.79,4.77,2.91,4.38,2.91   c-0.28,0-0.52-0.06-0.72-0.18C3.46,2.61,3.25,2.39,3.03,2.07z M3.17,1.78c0.15,0.27,0.33,0.47,0.52,0.6   c0.2,0.13,0.43,0.19,0.72,0.19c0.33,0,0.6-0.09,0.82-0.28c0.22-0.18,0.33-0.43,0.33-0.74c0-0.33-0.11-0.59-0.33-0.79   C5.02,0.58,4.77,0.48,4.5,0.48c-0.29,0-0.55,0.1-0.78,0.31C3.58,0.94,3.39,1.26,3.17,1.78z"/>
</g>
</svg>