<svg xmlns="http://www.w3.org/2000/svg" xmlns:xlink="http://www.w3.org/1999/xlink" width="33.7936pt" height="35.3296pt" viewBox="0 0 33.7936 35.3296" version="1.2">
<defs>
<clipPath id="clip1">
  <path d="M 8 11 L 22 11 L 22 34.671875 L 8 34.671875 Z M 8 11 "/>
</clipPath>
<clipPath id="clip2">
  <path d="M 11 1 L 33.378906 1 L 33.378906 34.671875 L 11 34.671875 Z M 11 1 "/>
</clipPath>
<clipPath id="clip3">
  <path d="M 0.214844 1 L 24 1 L 24 34.671875 L 0.214844 34.671875 Z M 0.214844 1 "/>
</clipPath>
</defs>
<g id="surface1">
<path style="fill:none;stroke-width:1;stroke-linecap:butt;stroke-linejoin:miter;stroke:rgb(13.729858%,12.159729%,12.548828%);stroke-opacity:1;stroke-miterlimit:4;" d="M 233.500188 -134.442126 C 233.500188 -141.443603 234.988848 -147.107674 236.831761 -147.107674 " transform="matrix(0.981378,0,0,0.981378,-213.093302,149.239296)"/>
<g clip-path="url(#clip1)" clip-rule="nonzero">
<path style="fill:none;stroke-width:1;stroke-linecap:butt;stroke-linejoin:miter;stroke:rgb(13.729858%,12.159729%,12.548828%);stroke-opacity:1;stroke-miterlimit:4;" d="M 233.500188 -134.442126 C 233.500188 -127.440649 233.010602 -122.775652 231.167689 -122.775652 " transform="matrix(0.981378,0,0,0.981378,-213.093302,149.239296)"/>
</g>
<g clip-path="url(#clip2)" clip-rule="nonzero">
<path style="fill:none;stroke-width:1;stroke-linecap:butt;stroke-linejoin:miter;stroke:rgb(13.729858%,12.159729%,12.548828%);stroke-opacity:1;stroke-miterlimit:4;" d="M 246.332912 -144.608 C 246.332912 -131.524513 241.114643 -120.9407 234.666438 -120.9407 " transform="matrix(0.981378,0,0,0.981378,-213.093302,149.239296)"/>
</g>
<g clip-path="url(#clip3)" clip-rule="nonzero">
<path style="fill:none;stroke-width:1;stroke-linecap:butt;stroke-linejoin:miter;stroke:rgb(13.729858%,12.159729%,12.548828%);stroke-opacity:1;stroke-miterlimit:4;" d="M 223.668666 -144.608 C 223.668666 -131.524513 228.886936 -120.9407 235.33514 -120.9407 " transform="matrix(0.981378,0,0,0.981378,-213.093302,149.239296)"/>
</g>
</g>
</svg>