<svg xmlns="http://www.w3.org/2000/svg"
  xmlns:xlink="http://www.w3.org/1999/xlink" width="29.9473pt" height="38.3939pt" viewBox="0 0 29.9473 38.3939" version="1.2">
  <defs>
    <clipPath id="clip1">
      <path d="M 7 12 L 29.6875 12 L 29.6875 24 L 7 24 Z M 7 12 "/>
    </clipPath>
  </defs>
  <g id="surface1">
    <g clip-path="url(#clip1)" clip-rule="nonzero">
      <path style="fill:none;stroke-width:1;stroke-linecap:butt;stroke-linejoin:miter;stroke:rgb(0%,0%,0%);stroke-opacity:1;stroke-miterlimit:4;" d="M 292.292994 -382.082607 C 292.292994 -382.082607 305.62519 -382.082607 305.62519 -382.082607 " transform="matrix(0.984459,0,0,0.984459,-274.957492,393.847776)"/>
    </g>
    <path style="fill:none;stroke-width:1;stroke-linecap:butt;stroke-linejoin:miter;stroke:rgb(0%,0%,0%);stroke-opacity:1;stroke-miterlimit:4;" d="M 298.915445 -382.165933 C 298.915445 -389.605775 295.637946 -395.625103 291.582737 -395.625103 " transform="matrix(0.984459,0,0,0.984459,-274.957492,393.847776)"/>
    <path style="fill:none;stroke-width:1;stroke-linecap:butt;stroke-linejoin:miter;stroke:rgb(0%,0%,0%);stroke-opacity:1;stroke-miterlimit:4;" d="M 288.543314 -394.581541 C 288.543314 -395.160856 289.900341 -395.625103 291.582737 -395.625103 " transform="matrix(0.984459,0,0,0.984459,-274.957492,393.847776)"/>
    <path style="fill:none;stroke-width:1;stroke-linecap:butt;stroke-linejoin:miter;stroke:rgb(0%,0%,0%);stroke-opacity:1;stroke-miterlimit:4;" d="M 298.915445 -381.626297 C 298.915445 -374.186455 295.637946 -368.167127 291.582737 -368.167127 " transform="matrix(0.984459,0,0,0.984459,-274.957492,393.847776)"/>
    <path style="fill:none;stroke-width:1;stroke-linecap:butt;stroke-linejoin:miter;stroke:rgb(0%,0%,0%);stroke-opacity:1;stroke-miterlimit:4;" d="M 288.543314 -369.210689 C 288.543314 -368.635342 289.900341 -368.167127 291.582737 -368.167127 " transform="matrix(0.984459,0,0,0.984459,-274.957492,393.847776)"/>
  </g>
</svg>