<svg xmlns="http://www.w3.org/2000/svg" xmlns:xlink="http://www.w3.org/1999/xlink" width="34.5616pt" height="28.4174pt" viewBox="0 0 34.5616 28.4174" version="1.2">
<defs>
<clipPath id="clip1">
  <path d="M 0.132812 0 L 21 0 L 21 18 L 0.132812 18 Z M 0.132812 0 "/>
</clipPath>
<clipPath id="clip2">
  <path d="M 8 9 L 28 9 L 28 27.847656 L 8 27.847656 Z M 8 9 "/>
</clipPath>
<clipPath id="clip3">
  <path d="M 14 0 L 34 0 L 34 18 L 14 18 Z M 14 0 "/>
</clipPath>
</defs>
<g id="surface1">
<path style=" stroke:none;fill-rule:nonzero;fill:rgb(100%,100%,100%);fill-opacity:1;" d="M 14.824219 7.582031 C 14.824219 5.238281 12.921875 3.335938 10.578125 3.335938 C 8.230469 3.335938 6.332031 5.238281 6.332031 7.582031 C 6.332031 9.925781 8.230469 11.828125 10.578125 11.828125 C 12.921875 11.828125 14.824219 9.925781 14.824219 7.582031 Z M 14.824219 7.582031 "/>
<g clip-path="url(#clip1)" clip-rule="nonzero">
<path style="fill:none;stroke-width:1;stroke-linecap:butt;stroke-linejoin:miter;stroke:rgb(13.729858%,12.159729%,12.548828%);stroke-opacity:1;stroke-miterlimit:4;" d="M 224.667055 -148.942026 C 224.667055 -151.333826 222.72571 -153.275171 220.33391 -153.275171 C 217.938123 -153.275171 216.000765 -151.333826 216.000765 -148.942026 C 216.000765 -146.550225 217.938123 -144.60888 220.33391 -144.60888 C 222.72571 -144.60888 224.667055 -146.550225 224.667055 -148.942026 Z M 224.667055 -148.942026 " transform="matrix(0.97991,0,0,0.97991,-205.329353,153.531863)"/>
</g>
<path style=" stroke:none;fill-rule:nonzero;fill:rgb(100%,100%,100%);fill-opacity:1;" d="M 22.335938 19.339844 C 22.335938 16.996094 20.4375 15.09375 18.089844 15.09375 C 15.746094 15.09375 13.84375 16.996094 13.84375 19.339844 C 13.84375 21.6875 15.746094 23.585938 18.089844 23.585938 C 20.4375 23.585938 22.335938 21.6875 22.335938 19.339844 Z M 22.335938 19.339844 "/>
<g clip-path="url(#clip2)" clip-rule="nonzero">
<path style="fill:none;stroke-width:1;stroke-linecap:butt;stroke-linejoin:miter;stroke:rgb(13.729858%,12.159729%,12.548828%);stroke-opacity:1;stroke-miterlimit:4;" d="M 232.332776 -136.94316 C 232.332776 -139.33496 230.395417 -141.276305 227.99963 -141.276305 C 225.60783 -141.276305 223.666485 -139.33496 223.666485 -136.94316 C 223.666485 -134.547373 225.60783 -132.610015 227.99963 -132.610015 C 230.395417 -132.610015 232.332776 -134.547373 232.332776 -136.94316 Z M 232.332776 -136.94316 " transform="matrix(0.97991,0,0,0.97991,-205.329353,153.531863)"/>
</g>
<path style=" stroke:none;fill-rule:nonzero;fill:rgb(100%,100%,100%);fill-opacity:1;" d="M 28.871094 7.910156 C 28.871094 5.5625 26.96875 3.660156 24.621094 3.660156 C 22.277344 3.660156 20.375 5.5625 20.375 7.910156 C 20.375 10.253906 22.277344 12.15625 24.621094 12.15625 C 26.96875 12.15625 28.871094 10.253906 28.871094 7.910156 Z M 28.871094 7.910156 "/>
<g clip-path="url(#clip3)" clip-rule="nonzero">
<path style="fill:none;stroke-width:1;stroke-linecap:butt;stroke-linejoin:miter;stroke:rgb(13.729858%,12.159729%,12.548828%);stroke-opacity:1;stroke-miterlimit:4;" d="M 239.001912 -148.607173 C 239.001912 -151.00296 237.060568 -152.944305 234.664781 -152.944305 C 232.272981 -152.944305 230.331636 -151.00296 230.331636 -148.607173 C 230.331636 -146.215373 232.272981 -144.274028 234.664781 -144.274028 C 237.060568 -144.274028 239.001912 -146.215373 239.001912 -148.607173 Z M 239.001912 -148.607173 " transform="matrix(0.97991,0,0,0.97991,-205.329353,153.531863)"/>
</g>
</g>
</svg>