<svg xmlns="http://www.w3.org/2000/svg" xmlns:xlink="http://www.w3.org/1999/xlink" width="156.0371pt" height="208.8497pt" viewBox="0 0 156.0371 208.8497" version="1.2">
<defs>
<clipPath id="clip1">
  <path d="M 0 106 L 155.082031 106 L 155.082031 152 L 0 152 Z M 0 106 "/>
</clipPath>
<clipPath id="clip2">
  <path d="M 0 0.566406 L 101 0.566406 L 101 153 L 0 153 Z M 0 0.566406 "/>
</clipPath>
<clipPath id="clip3">
  <path d="M 55 0.566406 L 155.082031 0.566406 L 155.082031 153 L 55 153 Z M 55 0.566406 "/>
</clipPath>
<clipPath id="clip4">
  <path d="M 55 106 L 101 106 L 101 208.132812 L 55 208.132812 Z M 55 106 "/>
</clipPath>
</defs>
<g id="surface1">
<g clip-path="url(#clip1)" clip-rule="nonzero">
<path style="fill:none;stroke-width:4;stroke-linecap:butt;stroke-linejoin:miter;stroke:rgb(13.729858%,12.159729%,12.548828%);stroke-opacity:1;stroke-miterlimit:4;" d="M 143.999876 -504.887828 C 143.999876 -504.887828 288.000235 -504.887828 288.000235 -504.887828 " transform="matrix(0.993867,0,0,0.993867,-136.788582,631.224884)"/>
</g>
<g clip-path="url(#clip2)" clip-rule="nonzero">
<path style="fill:none;stroke-width:4;stroke-linecap:butt;stroke-linejoin:miter;stroke:rgb(13.729858%,12.159729%,12.548828%);stroke-opacity:1;stroke-miterlimit:4;" d="M 143.999876 -504.538026 C 143.999876 -504.538026 216.000055 -629.244271 216.000055 -629.244271 " transform="matrix(0.993867,0,0,0.993867,-136.788582,631.224884)"/>
</g>
<g clip-path="url(#clip3)" clip-rule="nonzero">
<path style="fill:none;stroke-width:4;stroke-linecap:butt;stroke-linejoin:miter;stroke:rgb(13.729858%,12.159729%,12.548828%);stroke-opacity:1;stroke-miterlimit:4;" d="M 288.000235 -504.534096 C 288.000235 -504.534096 216.000055 -629.244271 216.000055 -629.244271 " transform="matrix(0.993867,0,0,0.993867,-136.788582,631.224884)"/>
</g>
<g clip-path="url(#clip4)" clip-rule="nonzero">
<path style="fill:none;stroke-width:4;stroke-linecap:butt;stroke-linejoin:miter;stroke:rgb(13.729858%,12.159729%,12.548828%);stroke-opacity:1;stroke-miterlimit:4;" d="M 216.000055 -504.887828 C 216.000055 -504.887828 216.000055 -431.889338 216.000055 -431.889338 " transform="matrix(0.993867,0,0,0.993867,-136.788582,631.224884)"/>
</g>
<path style="fill:none;stroke-width:4;stroke-linecap:butt;stroke-linejoin:miter;stroke:rgb(13.729858%,12.159729%,12.548828%);stroke-opacity:1;stroke-miterlimit:4;" d="M 180.501086 -468.390548 C 180.501086 -468.390548 253.499576 -468.390548 253.499576 -468.390548 " transform="matrix(0.993867,0,0,0.993867,-136.788582,631.224884)"/>
</g>
</svg>