<svg xmlns="http://www.w3.org/2000/svg" xmlns:xlink="http://www.w3.org/1999/xlink" width="26.8758pt" height="31.4831pt" viewBox="0 0 26.8758 31.4831" version="1.2">
<defs>
<clipPath id="clip1">
  <path d="M 1 0 L 26.597656 0 L 26.597656 30.972656 L 1 30.972656 Z M 1 0 "/>
</clipPath>
<clipPath id="clip2">
  <path d="M 1 9 L 26.597656 9 L 26.597656 21 L 1 21 Z M 1 9 "/>
</clipPath>
</defs>
<g id="surface1">
<g clip-path="url(#clip1)" clip-rule="nonzero">
<path style="fill:none;stroke-width:1;stroke-linecap:butt;stroke-linejoin:miter;stroke:rgb(0%,0%,0%);stroke-opacity:1;stroke-miterlimit:4;" d="M 291.792056 -382.022997 C 291.792056 -376.095214 294.972333 -371.291049 298.895073 -371.291049 C 302.817812 -371.291049 305.99809 -376.095214 305.99809 -382.022997 C 305.99809 -387.94681 302.817812 -392.750975 298.895073 -392.750975 C 294.972333 -392.750975 291.792056 -387.94681 291.792056 -382.022997 Z M 291.792056 -382.022997 " transform="matrix(0.983847,0,0,0.983847,-280.125577,391.336507)"/>
</g>
<g clip-path="url(#clip2)" clip-rule="nonzero">
<path style="fill:none;stroke-width:1;stroke-linecap:butt;stroke-linejoin:miter;stroke:rgb(0%,0%,0%);stroke-opacity:1;stroke-miterlimit:4;" d="M 292.292324 -382.082553 C 292.292324 -382.082553 305.624874 -382.082553 305.624874 -382.082553 " transform="matrix(0.983847,0,0,0.983847,-280.125577,391.336507)"/>
</g>
</g>
</svg>