<svg xmlns="http://www.w3.org/2000/svg"
  xmlns:xlink="http://www.w3.org/1999/xlink" width="11.55pt" height="10.85pt" viewBox="0 0 11.55 10.85" version="1.2">
  <defs>
    <clipPath id="clip1">
      <path d="M 1 0.132812 L 11 0.132812 L 11 10 L 1 10 Z M 1 0.132812 "/>
    </clipPath>
    <clipPath id="clip2">
      <path d="M 0 0.132812 L 11.117188 0.132812 L 11.117188 10.574219 L 0 10.574219 Z M 0 0.132812 "/>
    </clipPath>
  </defs>
  <g id="surface1">
    <g clip-path="url(#clip1)" clip-rule="nonzero">
      <path style=" stroke:none;fill-rule:nonzero;fill:rgb(100%,100%,100%);fill-opacity:1;" d="M 10.105469 5.386719 C 10.105469 2.875 8.082031 0.839844 5.582031 0.839844 C 3.085938 0.839844 1.058594 2.875 1.058594 5.386719 C 1.058594 7.898438 3.085938 9.933594 5.582031 9.933594 C 8.082031 9.933594 10.105469 7.898438 10.105469 5.386719 Z M 10.105469 5.386719 "/>
    </g>
    <g clip-path="url(#clip2)" clip-rule="nonzero">
      <path style="fill:none;stroke-width:1;stroke-linecap:butt;stroke-linejoin:miter;stroke:rgb(13.729858%,12.159729%,12.548828%);stroke-opacity:1;stroke-miterlimit:4;" d="M 378.699188 -552.389773 C 378.699188 -554.999351 376.596916 -557.113799 373.999513 -557.113799 C 371.406169 -557.113799 369.299838 -554.999351 369.299838 -552.389773 C 369.299838 -549.780195 371.406169 -547.665747 373.999513 -547.665747 C 376.596916 -547.665747 378.699188 -549.780195 378.699188 -552.389773 Z M 378.699188 -552.389773 " transform="matrix(0.9625,0,0,0.9625,-354.3925,537.061875)"/>
      <path style="fill:none;stroke-width:1;stroke-linecap:butt;stroke-linejoin:miter;stroke:rgb(13.729858%,12.159729%,12.548828%);stroke-opacity:1;stroke-miterlimit:4;" d="M 373.999513 -557.113799 C 373.999513 -557.113799 373.999513 -547.665747 373.999513 -547.665747 " transform="matrix(0.9625,0,0,0.9625,-354.3925,537.061875)"/>
      <path style="fill:none;stroke-width:1;stroke-linecap:butt;stroke-linejoin:miter;stroke:rgb(13.729858%,12.159729%,12.548828%);stroke-opacity:1;stroke-miterlimit:4;" d="M 378.699188 -552.389773 C 378.699188 -552.389773 373.999513 -552.389773 373.999513 -552.389773 " transform="matrix(0.9625,0,0,0.9625,-354.3925,537.061875)"/>
    </g>
  </g>
</svg>