<svg xmlns="http://www.w3.org/2000/svg"
  xmlns:xlink="http://www.w3.org/1999/xlink" width="32.2575pt" height="29.9534pt" viewBox="0 0 32.2575 29.9534" version="1.2">
  <defs>
    <clipPath id="clip1">
      <path d="M 0 0.3125 L 31.53125 0.3125 L 31.53125 29.59375 L 0 29.59375 Z M 0 0.3125 "/>
    </clipPath>
    <clipPath id="clip2">
      <path d="M 10 0.3125 L 22 0.3125 L 22 29.59375 L 10 29.59375 Z M 10 0.3125 "/>
    </clipPath>
    <clipPath id="clip3">
      <path d="M 10 8 L 31.53125 8 L 31.53125 20 L 10 20 Z M 10 8 "/>
    </clipPath>
  </defs>
  <g id="surface1">
    <path style=" stroke:none;fill-rule:nonzero;fill:rgb(100%,100%,100%);fill-opacity:1;" d="M 26.648438 14.449219 C 26.648438 8.691406 21.832031 4.023438 15.894531 4.023438 C 9.957031 4.023438 5.144531 8.691406 5.144531 14.449219 C 5.144531 20.207031 9.957031 24.875 15.894531 24.875 C 21.832031 24.875 26.648438 20.207031 26.648438 14.449219 Z M 26.648438 14.449219 "/>
    <g clip-path="url(#clip1)" clip-rule="nonzero">
      <path style="fill:none;stroke-width:1;stroke-linecap:butt;stroke-linejoin:miter;stroke:rgb(13.729858%,12.159729%,12.548828%);stroke-opacity:1;stroke-miterlimit:4;" d="M 310.667329 -155.275723 C 310.667329 -161.166068 305.740059 -165.941484 299.66589 -165.941484 C 293.591721 -165.941484 288.668448 -161.166068 288.668448 -155.275723 C 288.668448 -149.385377 293.591721 -144.609962 299.66589 -144.609962 C 305.740059 -144.609962 310.667329 -149.385377 310.667329 -155.275723 Z M 310.667329 -155.275723 " transform="matrix(0.9775,0,0,0.9775,-277.028876,166.231238)"/>
    </g>
    <g clip-path="url(#clip2)" clip-rule="nonzero">
      <path style="fill:none;stroke-width:1;stroke-linecap:butt;stroke-linejoin:miter;stroke:rgb(13.729858%,12.159729%,12.548828%);stroke-opacity:1;stroke-miterlimit:4;" d="M 299.66589 -165.941484 C 299.66589 -165.941484 299.66589 -144.609962 299.66589 -144.609962 " transform="matrix(0.9775,0,0,0.9775,-277.028876,166.231238)"/>
    </g>
    <g clip-path="url(#clip3)" clip-rule="nonzero">
      <path style="fill:none;stroke-width:1;stroke-linecap:butt;stroke-linejoin:miter;stroke:rgb(13.729858%,12.159729%,12.548828%);stroke-opacity:1;stroke-miterlimit:4;" d="M 299.66589 -155.275723 C 299.66589 -155.275723 310.667329 -155.275723 310.667329 -155.275723 " transform="matrix(0.9775,0,0,0.9775,-277.028876,166.231238)"/>
    </g>
  </g>
</svg>