<?xml version="1.0" encoding="UTF-8"?>
<svg xmlns="http://www.w3.org/2000/svg" xmlns:xlink="http://www.w3.org/1999/xlink" width="171pt" height="238pt" viewBox="0 0 171 238" version="1.2">
<defs>
<clipPath id="clip1">
  <path d="M 0.0585938 0.722656 L 170.804688 0.722656 L 170.804688 90 L 0.0585938 90 Z "/>
</clipPath>
</defs>
<g id="surface1">
<g clip-path="url(#clip1)" clip-rule="nonzero">
<path style="fill:none;stroke-width:2;stroke-linecap:butt;stroke-linejoin:miter;stroke:rgb(13.729858%,12.159729%,12.548828%);stroke-opacity:1;stroke-miterlimit:4;" d="M 164.761719 234.410156 C 147.019531 194.101562 100.769531 166.191406 46.507812 166.191406 C 31.359375 166.191406 16.738281 168.367188 3.136719 172.382812 M 48.507812 172.191406 L 48.507812 160.191406 M 26.238281 172.8125 L 24.777344 160.902344 M 5.421875 177.753906 L 0.925781 166.628906 M 68.828125 173.371094 L 71.527344 161.679688 M 88.167969 177.382812 L 92.855469 166.339844 M 106.070312 184.105469 L 112.953125 174.277344 M 122.9375 193.769531 L 131.421875 185.28125 M 137.449219 205.554688 L 146.90625 198.164062 M 150.035156 219.613281 L 160.320312 213.4375 M 159.246094 236.34375 L 170.445312 232.046875 " transform="matrix(1,0,0,-1,0,238)"/>
</g>
<path style=" stroke:none;fill-rule:nonzero;fill:rgb(13.729858%,12.159729%,12.548828%);fill-opacity:1;" d="M 109.859375 206.226562 L 102.210938 211.582031 L 18.851562 92.53125 L 26.5 87.179688 L 109.859375 206.226562 "/>
<path style="fill:none;stroke-width:2;stroke-linecap:butt;stroke-linejoin:miter;stroke:rgb(13.729858%,12.159729%,12.548828%);stroke-opacity:1;stroke-miterlimit:4;" d="M 109.859375 31.773438 L 102.210938 26.417969 L 18.851562 145.46875 L 26.5 150.820312 Z " transform="matrix(1,0,0,-1,0,238)"/>
<path style=" stroke:none;fill-rule:nonzero;fill:rgb(13.729858%,12.159729%,12.548828%);fill-opacity:1;" d="M 59.570312 105.933594 L 24.621094 130.40625 L 18.882812 122.21875 L 53.832031 97.742188 L 59.570312 105.933594 "/>
<path style="fill:none;stroke-width:2;stroke-linecap:butt;stroke-linejoin:miter;stroke:rgb(13.729858%,12.159729%,12.548828%);stroke-opacity:1;stroke-miterlimit:4;" d="M 59.570312 132.066406 L 24.621094 107.59375 L 18.882812 115.78125 L 53.832031 140.257812 Z " transform="matrix(1,0,0,-1,0,238)"/>
<path style=" stroke:none;fill-rule:nonzero;fill:rgb(13.729858%,12.159729%,12.548828%);fill-opacity:1;" d="M 131.699219 219.140625 C 131.699219 229.003906 123.707031 237 113.84375 237 C 103.980469 237 95.984375 229.003906 95.984375 219.140625 C 95.984375 209.277344 103.980469 201.28125 113.84375 201.28125 C 123.707031 201.28125 131.699219 209.277344 131.699219 219.140625 "/>
<path style="fill:none;stroke-width:2;stroke-linecap:butt;stroke-linejoin:miter;stroke:rgb(13.729858%,12.159729%,12.548828%);stroke-opacity:1;stroke-miterlimit:4;" d="M 131.699219 18.859375 C 131.699219 8.996094 123.707031 1 113.84375 1 C 103.980469 1 95.984375 8.996094 95.984375 18.859375 C 95.984375 28.722656 103.980469 36.71875 113.84375 36.71875 C 123.707031 36.71875 131.699219 28.722656 131.699219 18.859375 Z " transform="matrix(1,0,0,-1,0,238)"/>
</g>
</svg>
