<?xml version="1.0" encoding="UTF-8"?>
<svg xmlns="http://www.w3.org/2000/svg" xmlns:xlink="http://www.w3.org/1999/xlink" width="286.65128pt" height="281.3302pt" viewBox="0 0 286.65128 281.3302" version="1.2">
<defs>
<clipPath id="clip1">
  <path d="M 0.167969 0 L 286.136719 0 L 286.136719 280.601562 L 0.167969 280.601562 Z "/>
</clipPath>
</defs>
<g id="surface1">
<g clip-path="url(#clip1)" clip-rule="nonzero">
<path style="fill:none;stroke-width:1.5;stroke-linecap:butt;stroke-linejoin:miter;stroke:rgb(13.729858%,12.159729%,12.548828%);stroke-opacity:1;stroke-miterlimit:4;" d="M 57.670882 223.650231 C 89.844957 255.930026 139.772137 275.405973 193.297707 275.405973 C 249.133452 275.405973 298.880516 253.122577 330.999774 218.403394 M 65.670351 212.228571 C 96.340855 242.319574 142.031409 261.403965 193.058859 261.403965 C 246.286847 261.403965 293.708075 240.635888 324.331592 208.26995 M 72.968936 199.432554 C 101.944007 228.008238 145.116863 246.13332 193.329032 246.13332 C 243.624273 246.13332 288.429913 226.410694 317.361913 195.673625 M 79.637118 184.357686 C 107.351382 212.369531 146.636096 230.134382 192.745615 230.134382 C 240.844232 230.134382 281.695167 212.800242 309.362444 182.673999 M 57.670882 222.820134 L 192.00166 0.405141 M 192.00166 0.405141 L 331.395244 217.945275 M 192.00166 0.405141 L 192.00166 275.405973 M 90.001579 193.406522 L 65.999257 232.405401 M 175.000341 275.405973 L 177.999653 230.404555 M 101.00036 201.405991 L 78.000418 242.405716 M 113.001521 209.40546 L 93.999356 249.40672 M 126.001147 215.404083 L 108.999828 257.406189 M 137.998393 221.406621 L 126.999612 266.404123 M 164.001561 227.405244 L 159.999869 273.405127 M 151.001935 225.404398 L 144.000931 271.40428 M 208.000598 228.403709 L 210.999909 276.404438 M 231.000539 273.405127 L 223.999536 228.403709 M 246.999477 268.404969 L 238.001543 224.405932 M 264.000796 264.403277 L 251.999635 220.40424 M 279.001268 257.406189 L 262.998415 216.406463 M 292.99936 249.40672 L 276.001957 207.404614 M 307.001367 241.403335 L 287.000737 201.405991 M 318.998613 230.404555 L 297.999517 193.406522 " transform="matrix(0.997625,0,0,-0.997625,-49.963591,280.661991)"/>
</g>
</g>
</svg>
