<?xml version="1.0" encoding="UTF-8"?>
<svg xmlns="http://www.w3.org/2000/svg" xmlns:xlink="http://www.w3.org/1999/xlink" width="401pt" height="283pt" viewBox="0 0 401 283" version="1.2">
<defs>
<clipPath id="clip1">
  <path d="M 0 0.84375 L 400.980469 0.84375 L 400.980469 282.941406 L 0 282.941406 Z "/>
</clipPath>
</defs>
<g id="surface1">
<g clip-path="url(#clip1)" clip-rule="nonzero">
<path style="fill:none;stroke-width:1.5;stroke-linecap:butt;stroke-linejoin:miter;stroke:rgb(13.729858%,12.159729%,12.548828%);stroke-opacity:1;stroke-miterlimit:4;" d="M 59.171875 219.820312 C 91.273438 256.890625 139.09375 280.40625 192.5 280.40625 C 248.214844 280.40625 297.847656 254.816406 329.894531 214.945312 M 59.171875 219.820312 L 192.5 0.40625 M 192.5 0.40625 L 329.894531 214.945312 M 192.5 0.40625 L 192.5 280.40625 M 0.5 281.40625 L 399.5 281.40625 M 0.5 281.40625 L 192.5 109.40625 M 192.5 109.40625 L 400.5 281.40625 M 191.859375 280.894531 C 219.277344 268.34375 236.324219 249.886719 293.5 160.40625 M 194.71875 279.195312 C 174.5 286.40625 111.5 180.40625 97.5 158.40625 " transform="matrix(1,0,0,-1,0,283)"/>
</g>
</g>
</svg>
