<?xml version="1.0" encoding="UTF-8"?>
<svg xmlns="http://www.w3.org/2000/svg" xmlns:xlink="http://www.w3.org/1999/xlink" width="346.981132pt" height="347pt" viewBox="0 0 346.981132 347" version="1.2">
<defs>
<clipPath id="clip1">
  <path d="M 0 0.0078125 L 346.960938 0.0078125 L 346.960938 346.988281 L 0 346.988281 Z "/>
</clipPath>
</defs>
<g id="surface1">
<g clip-path="url(#clip1)" clip-rule="nonzero">
<path style="fill:none;stroke-width:1.5;stroke-linecap:butt;stroke-linejoin:miter;stroke:rgb(13.729858%,12.159729%,12.548828%);stroke-opacity:1;stroke-miterlimit:4;" d="M 40.423409 238.663699 C 72.52281 275.732121 120.341817 299.249025 173.750971 299.249025 C 229.464938 299.249025 279.096543 273.661696 311.14516 233.788434 M 38.606904 237.773026 C 40.919529 237.101115 37.895928 238.761361 38.649875 239.61297 C 40.763271 241.988099 33.786329 254.164542 36.0052 256.430291 C 38.220164 258.692132 49.185604 250.570597 51.502136 252.715245 C 53.818668 254.855986 47.970694 267.704341 50.380981 269.723982 C 52.791269 271.739717 62.963697 262.516559 65.467739 264.407287 C 67.960062 266.298015 63.299653 279.693274 65.881824 281.451182 C 68.460089 283.20909 77.75747 272.970252 80.417771 274.595341 C 83.074165 276.216523 79.640385 290.03368 82.374909 291.522042 C 85.101619 293.002592 93.43801 281.849641 96.238944 283.193465 C 98.953935 284.494317 96.699906 298.569301 99.477401 299.737333 C 102.250989 300.901459 109.489664 288.920338 112.321849 289.947738 C 115.146222 290.971231 114.146167 305.214193 117.029137 306.097054 C 119.904293 306.979914 126.068691 294.322976 128.994631 295.061297 C 131.912758 295.795712 132.186211 310.081645 135.151216 310.675428 C 138.104501 311.261397 143.147744 298.038022 146.147907 298.479452 C 149.046503 298.905256 150.499707 313.093528 153.441273 313.3787 C 156.367213 313.663871 160.187733 299.991253 163.148832 300.135792 C 166.04352 300.272518 168.66085 314.257654 171.586791 314.257654 C 174.829154 314.257654 177.735562 300.260799 180.938862 300.088914 C 184.157787 299.91703 188.314263 313.538865 191.482404 313.202909 C 194.662264 312.85914 196.217036 298.623991 199.346113 298.120057 C 202.490815 297.616124 207.842668 310.734025 210.928774 310.069926 C 214.026598 309.398014 214.218015 295.08083 217.257243 294.25266 C 220.300377 293.42449 226.808543 305.921263 229.789174 304.936834 C 232.867467 303.925061 231.793189 289.631315 234.801165 288.459376 C 237.813048 287.283531 245.520498 298.987292 248.458158 297.659095 C 251.399724 296.326991 248.965998 282.232475 251.829435 280.751926 C 254.696778 279.263563 263.443348 290.084464 266.224749 288.455469 C 269.010057 286.818662 265.259853 273.07182 267.959218 271.29438 C 270.658584 269.51694 280.35833 279.349506 282.96394 277.431432 C 285.573457 275.517266 280.549747 262.243107 283.061602 260.19612 C 285.499235 258.203824 295.98418 267.02071 298.331964 264.903408 C 300.671935 262.790011 294.394249 250.179951 296.636559 247.945454 C 298.878868 245.714864 310.109948 253.398876 312.246783 251.054998 C 314.387524 248.707214 306.992591 236.815943 309.020045 234.362684 C 311.047499 231.909426 307.918422 234.386123 309.828682 231.831297 M 40.423409 238.663699 L 173.750971 19.249425 M 39.028802 238.85121 C 41.665664 234.499411 31.387761 228.272509 34.020717 223.916804 C 36.630234 219.607976 46.912043 225.83097 49.52156 221.522142 C 52.146702 217.189876 41.864893 210.962975 44.48613 206.630708 C 47.087834 202.337506 57.369643 208.5605 59.96744 204.267298 C 62.58477 199.942844 52.302961 193.719849 54.920291 189.395396 C 57.518088 185.1061 67.799897 191.333001 70.393788 187.043705 C 73.015025 182.715345 62.733216 176.49235 65.354452 172.160083 C 67.960062 167.859068 78.241871 174.082063 80.843575 169.781048 C 83.43356 165.503471 73.151751 159.280477 75.741735 155.0029 C 78.366878 150.666727 88.648687 156.889722 91.27383 152.553549 C 93.895066 148.225188 83.613257 141.998287 86.234493 137.673833 C 88.851823 133.349379 99.133632 139.572374 101.750962 135.251827 C 104.372198 130.91956 94.090389 124.696565 96.707719 120.368205 C 99.340675 116.020312 109.622484 122.247213 112.251533 117.89932 C 114.845424 113.621744 104.563615 107.394843 107.1536 103.117267 C 109.767023 98.796719 120.048832 105.02362 122.662255 100.706979 C 125.248334 96.429403 114.970431 90.206408 117.556509 85.932739 C 120.126961 81.69032 130.40877 87.913315 132.975316 83.670897 C 135.600459 79.330817 125.31865 73.107822 127.947699 68.767743 C 130.518151 64.521418 140.79996 70.744413 143.374319 66.494182 C 145.976023 62.197073 135.694214 55.974078 138.295918 51.673063 C 140.885903 47.399393 151.167712 53.622388 153.75379 49.344812 C 156.367213 45.032077 146.085404 38.809082 148.694921 34.496348 C 151.206776 30.347685 161.488585 36.574586 163.996534 32.429829 C 166.531828 28.246008 156.246113 22.019107 158.781407 17.835286 C 161.265917 13.7335 171.547726 22.956658 174.032236 18.854872 M 173.750971 19.249425 L 311.14516 233.788434 M 173.473612 18.749398 C 176.149539 22.925406 186.271183 16.444585 188.94711 20.620594 C 191.591785 24.749724 181.470141 31.234452 184.114816 35.363583 C 186.77121 39.508339 196.892854 33.027518 199.549249 37.176181 C 202.221269 41.348283 192.099625 47.829104 194.771645 52.001206 C 197.41632 56.130337 207.537964 49.649516 210.182639 53.782553 C 212.846847 57.942935 202.725203 64.423757 205.393316 68.584139 C 208.034085 72.709363 218.155729 66.228542 220.796498 70.353766 C 223.464611 74.521962 213.346874 81.002783 216.014988 85.170978 C 218.667476 89.311829 228.78912 82.831007 231.437701 86.971858 C 234.074563 91.089269 223.952919 97.57009 226.589781 101.687501 C 229.265708 105.867416 239.387352 99.382689 242.063279 103.562603 C 244.735299 107.734705 234.613655 114.215526 237.285675 118.387628 C 239.957696 122.55973 250.07934 116.078909 252.75136 120.251011 C 255.427287 124.430926 245.309549 130.911747 247.985476 135.095568 C 250.618432 139.205166 260.740076 132.724345 263.373031 136.833944 C 266.021613 140.974794 255.899969 147.455615 258.552457 151.592559 C 261.169787 155.682625 271.291431 149.197897 273.908761 153.284057 C 276.565155 157.43272 266.443511 163.913541 269.099905 168.062204 C 271.74458 172.195242 281.866225 165.710514 284.514806 169.843551 C 287.167294 173.984401 277.041743 180.469129 279.694231 184.609979 C 282.299842 188.676606 292.421486 182.195785 295.027096 186.258506 C 297.679584 190.407169 287.561847 196.88799 290.214335 201.032747 C 292.796506 205.064216 302.91815 198.583395 305.500322 202.614864 C 308.133278 206.724463 298.011634 213.20919 300.644589 217.322695 C 303.211135 221.326819 313.332779 214.842092 315.895419 218.846216 C 318.442432 222.826901 308.324694 229.307722 310.871708 233.288407 M 173.750971 20.24948 L 173.750971 299.249025 M 68.749168 264.251028 L 173.750971 128.251446 M 173.750971 128.251446 L 286.749303 257.250648 M 173.110311 299.741239 C 200.529771 287.185869 217.577573 268.731741 274.74865 179.250313 M 175.969841 298.041928 C 155.749992 305.249351 92.750473 199.2514 78.749711 177.250204 M 346.248632 170.999864 C 346.248632 76.971314 268.908489 0.748419 173.500957 0.748419 C 78.093426 0.748419 0.749376 76.971314 0.749376 170.999864 C 0.749376 265.024508 78.093426 341.251309 173.500957 341.251309 C 268.908489 341.251309 346.248632 265.024508 346.248632 170.999864 Z M 78.749711 177.250204 L 274.74865 177.250204 M 84.750038 175.371195 C 94.19977 175.371195 94.19977 134.259585 103.645596 134.259585 C 113.142207 134.259585 113.142207 178.238539 122.63491 178.238539 C 132.108082 178.238539 132.108082 134.259585 141.585159 134.259585 C 151.116928 134.259585 151.116928 178.238539 160.644789 178.238539 C 170.19609 178.238539 170.19609 134.259585 179.747391 134.259585 C 189.138526 134.259585 189.138526 178.238539 198.529662 178.238539 C 208.07315 178.238539 208.07315 134.259585 217.616637 134.259585 C 227.039025 134.259585 227.039025 178.238539 236.457505 178.238539 C 245.60644 178.238539 245.60644 134.259585 254.751469 134.259585 M 79.679449 177.867425 C 113.59145 192.282271 153.257669 192.649479 124.49048 179.933944 " transform="matrix(0.999946,0,0,-0.999946,-0.0188669,346.990566)"/>
</g>
<path style="fill:none;stroke-width:1.5;stroke-linecap:butt;stroke-linejoin:miter;stroke:rgb(13.729858%,12.159729%,12.548828%);stroke-opacity:1;stroke-miterlimit:4;" d="M 137.948243 179.000299 C 103.336986 191.649424 63.702018 189.969646 93.086428 178.758098 M 159.945533 179.000299 C 125.334276 191.649424 85.703215 189.969646 115.087625 178.758098 M 194.947436 177.00019 C 160.336179 189.649316 120.705118 187.969537 150.089528 176.75799 M 225.945215 177.00019 C 191.337865 189.649316 151.702897 187.969537 181.087307 176.75799 M 252.946683 180.000353 C 218.335426 192.649479 178.704365 190.9697 208.088775 179.758153 M 279.948151 178.000245 C 245.336895 190.64937 205.705833 188.969591 235.086337 177.758044 M 110.681135 178.867479 C 144.593135 193.282326 184.259355 193.649533 155.492166 180.933998 M 148.679295 178.867479 C 182.591295 193.282326 222.257515 193.649533 193.490325 180.933998 M 195.681851 177.867425 C 229.593851 192.282271 269.26007 192.649479 240.492881 179.933944 M 226.67963 176.867371 C 260.59163 191.282217 300.25785 191.649424 271.49066 178.933889 M 177.680872 177.867425 C 211.592872 192.282271 251.259092 192.649479 222.491902 179.933944 " transform="matrix(0.999946,0,0,-0.999946,-0.0188669,346.990566)"/>
</g>
</svg>
