<?xml version="1.0" encoding="UTF-8"?>
<svg xmlns="http://www.w3.org/2000/svg" xmlns:xlink="http://www.w3.org/1999/xlink" width="196pt" height="188pt" viewBox="0 0 196 188" version="1.2">
<defs>
<clipPath id="clip1">
  <path d="M 0.0585938 0.800781 L 195.601562 0.800781 L 195.601562 188 L 0.0585938 188 Z "/>
</clipPath>
</defs>
<g id="surface1">
<g clip-path="url(#clip1)" clip-rule="nonzero">
<path style="fill:none;stroke-width:2;stroke-linecap:butt;stroke-linejoin:miter;stroke:rgb(13.729858%,12.159729%,12.548828%);stroke-opacity:1;stroke-miterlimit:4;" d="M 21.601562 187.199219 L 21.601562 0 M 0 162 L 195.601562 162 M 0 134.398438 L 195.601562 134.398438 M 0 108.199219 L 195.601562 108.199219 M 0 80.601562 L 195.601562 80.601562 M 0 54 L 195.601562 54 " transform="matrix(1,0,0,-1,0,188)"/>
</g>
<path style=" stroke:none;fill-rule:nonzero;fill:rgb(13.729858%,12.159729%,12.548828%);fill-opacity:1;" d="M 21.300781 31.398438 C 27.75 31.398438 27.75 21.398438 21.300781 21.398438 C 14.851562 21.398438 14.851562 31.398438 21.300781 31.398438 "/>
<path style=" stroke:none;fill-rule:nonzero;fill:rgb(13.729858%,12.159729%,12.548828%);fill-opacity:1;" d="M 21.300781 83.734375 C 27.75 83.734375 27.75 73.734375 21.300781 73.734375 C 14.851562 73.734375 14.851562 83.734375 21.300781 83.734375 "/>
<path style=" stroke:none;fill-rule:nonzero;fill:rgb(13.729858%,12.159729%,12.548828%);fill-opacity:1;" d="M 85.300781 57.734375 C 91.75 57.734375 91.75 47.734375 85.300781 47.734375 C 78.851562 47.734375 78.851562 57.734375 85.300781 57.734375 "/>
<path style=" stroke:none;fill-rule:nonzero;fill:rgb(13.729858%,12.159729%,12.548828%);fill-opacity:1;" d="M 107.300781 84.734375 C 113.75 84.734375 113.75 74.734375 107.300781 74.734375 C 100.851562 74.734375 100.851562 84.734375 107.300781 84.734375 "/>
<path style=" stroke:none;fill-rule:nonzero;fill:rgb(13.729858%,12.159729%,12.548828%);fill-opacity:1;" d="M 116.632812 112.066406 C 123.082031 112.066406 123.082031 102.066406 116.632812 102.066406 C 110.183594 102.066406 110.183594 112.066406 116.632812 112.066406 "/>
<path style="fill:none;stroke-width:2;stroke-linecap:butt;stroke-linejoin:miter;stroke:rgb(13.729858%,12.159729%,12.548828%);stroke-opacity:1;stroke-miterlimit:4;" d="M 21.300781 161.601562 L 85.300781 135.265625 M 85.300781 135.265625 L 107.300781 108.265625 M 107.300781 108.265625 L 116.632812 80.933594 M 116.632812 80.933594 L 113.96875 54.265625 " transform="matrix(1,0,0,-1,0,188)"/>
</g>
</svg>
