<?xml version="1.0" encoding="UTF-8"?>
<svg xmlns="http://www.w3.org/2000/svg" xmlns:xlink="http://www.w3.org/1999/xlink" width="146pt" height="161pt" viewBox="0 0 146 161" version="1.2">
<defs>
<clipPath id="clip1">
  <path d="M 0.0585938 67 L 145.351562 67 L 145.351562 147 L 0.0585938 147 Z "/>
</clipPath>
<clipPath id="clip2">
  <path d="M 74 0 L 75 0 L 75 160.941406 L 74 160.941406 Z "/>
</clipPath>
<clipPath id="clip3">
  <path d="M 69 67 L 145.351562 67 L 145.351562 114 L 69 114 Z "/>
</clipPath>
</defs>
<g id="surface1">
<g clip-path="url(#clip1)" clip-rule="nonzero">
<path style="fill:none;stroke-width:0.7;stroke-linecap:butt;stroke-linejoin:miter;stroke:rgb(13.729858%,12.159729%,12.548828%);stroke-opacity:1;stroke-miterlimit:4;" d="M 1.351562 89 L 145.351562 89 M 144.351562 89 L 144.351562 30 C 144.351562 23.371094 138.976562 18 132.351562 18 L 12.351562 18 C 5.722656 18 0.351562 23.371094 0.351562 30 L 0.351562 90 " transform="matrix(1,0,0,-1,0,161)"/>
</g>
<g clip-path="url(#clip2)" clip-rule="nonzero">
<path style="fill:none;stroke-width:0.7;stroke-linecap:butt;stroke-linejoin:miter;stroke:rgb(13.729858%,12.159729%,12.548828%);stroke-opacity:1;stroke-dasharray:5,2;stroke-miterlimit:4;" d="M 74.351562 0 L 74.351562 161 " transform="matrix(1,0,0,-1,0,161)"/>
</g>
<path style="fill:none;stroke-width:0.7;stroke-linecap:butt;stroke-linejoin:miter;stroke:rgb(13.729858%,12.159729%,12.548828%);stroke-opacity:1;stroke-miterlimit:4;" d="M 73.605469 89.257812 L 16.351562 146 " transform="matrix(1,0,0,-1,0,161)"/>
<path style="fill:none;stroke-width:0.7;stroke-linecap:butt;stroke-linejoin:miter;stroke:rgb(13.729858%,12.159729%,12.548828%);stroke-opacity:1;stroke-dasharray:5,2;stroke-miterlimit:4;" d="M 141.351562 22 L 73.605469 89.257812 " transform="matrix(1,0,0,-1,0,161)"/>
<path style=" stroke:none;fill-rule:nonzero;fill:rgb(13.729858%,12.159729%,12.548828%);fill-opacity:1;" d="M 123.351562 160.5 C 127.863281 160.5 127.863281 153.5 123.351562 153.5 C 118.835938 153.5 118.835938 160.5 123.351562 160.5 "/>
<path style=" stroke:none;fill-rule:nonzero;fill:rgb(13.729858%,12.159729%,12.548828%);fill-opacity:1;" d="M 16.351562 18.5 C 20.863281 18.5 20.863281 11.5 16.351562 11.5 C 11.835938 11.5 11.835938 18.5 16.351562 18.5 "/>
<g clip-path="url(#clip3)" clip-rule="nonzero">
<path style="fill:none;stroke-width:0.7;stroke-linecap:butt;stroke-linejoin:miter;stroke:rgb(13.729858%,12.159729%,12.548828%);stroke-opacity:1;stroke-miterlimit:4;" d="M 73.402344 89.164062 L 144.351562 51 " transform="matrix(1,0,0,-1,0,161)"/>
</g>
<path style="fill:none;stroke-width:0.7;stroke-linecap:butt;stroke-linejoin:miter;stroke:rgb(13.729858%,12.159729%,12.548828%);stroke-opacity:1;stroke-dasharray:5,2;stroke-miterlimit:4;" d="M 74.285156 89.65625 L 34.351562 160 " transform="matrix(1,0,0,-1,0,161)"/>
<path style="fill:none;stroke-width:0.7;stroke-linecap:butt;stroke-linejoin:miter;stroke:rgb(13.729858%,12.159729%,12.548828%);stroke-opacity:1;stroke-miterlimit:4;" d="M 122.351562 5 L 74.285156 89.65625 " transform="matrix(1,0,0,-1,0,161)"/>
</g>
</svg>
