<?xml version="1.0" encoding="UTF-8"?>
<svg xmlns="http://www.w3.org/2000/svg" xmlns:xlink="http://www.w3.org/1999/xlink" width="147pt" height="56pt" viewBox="0 0 147 56" version="1.2">
<defs>
<clipPath id="clip1">
  <path d="M 0.0585938 0.160156 L 146.089844 0.160156 L 146.089844 56 L 0.0585938 56 Z "/>
</clipPath>
</defs>
<g id="surface1">
<g clip-path="url(#clip1)" clip-rule="nonzero">
<path style="fill:none;stroke-width:1.5;stroke-linecap:butt;stroke-linejoin:miter;stroke:rgb(13.729858%,12.159729%,12.548828%);stroke-opacity:1;stroke-miterlimit:4;" d="M 26.339844 42.089844 C 26.339844 35.824219 21.261719 30.75 15 30.75 C 8.738281 30.75 3.660156 35.824219 3.660156 42.089844 C 3.660156 48.351562 8.738281 53.425781 15 53.425781 C 21.261719 53.425781 26.339844 48.351562 26.339844 42.089844 Z M 50.339844 42.089844 C 50.339844 35.824219 45.261719 30.75 39 30.75 C 32.738281 30.75 27.660156 35.824219 27.660156 42.089844 C 27.660156 48.351562 32.738281 53.425781 39 53.425781 C 45.261719 53.425781 50.339844 48.351562 50.339844 42.089844 Z M 74.339844 42.089844 C 74.339844 35.824219 69.261719 30.75 63 30.75 C 56.738281 30.75 51.660156 35.824219 51.660156 42.089844 C 51.660156 48.351562 56.738281 53.425781 63 53.425781 C 69.261719 53.425781 74.339844 48.351562 74.339844 42.089844 Z M 97.339844 42.089844 C 97.339844 35.824219 92.261719 30.75 86 30.75 C 79.738281 30.75 74.660156 35.824219 74.660156 42.089844 C 74.660156 48.351562 79.738281 53.425781 86 53.425781 C 92.261719 53.425781 97.339844 48.351562 97.339844 42.089844 Z M 121.339844 42.089844 C 121.339844 35.824219 116.261719 30.75 110 30.75 C 103.738281 30.75 98.660156 35.824219 98.660156 42.089844 C 98.660156 48.351562 103.738281 53.425781 110 53.425781 C 116.261719 53.425781 121.339844 48.351562 121.339844 42.089844 Z M 145.339844 42.089844 C 145.339844 35.824219 140.261719 30.75 134 30.75 C 127.738281 30.75 122.660156 35.824219 122.660156 42.089844 C 122.660156 48.351562 127.738281 53.425781 134 53.425781 C 140.261719 53.425781 145.339844 48.351562 145.339844 42.089844 Z M 0 55.089844 L 146 55.089844 M 26.339844 13.75 C 26.339844 20.011719 21.261719 25.089844 15 25.089844 C 8.738281 25.089844 3.660156 20.011719 3.660156 13.75 C 3.660156 7.488281 8.738281 2.410156 15 2.410156 C 21.261719 2.410156 26.339844 7.488281 26.339844 13.75 Z M 50.339844 13.75 C 50.339844 20.011719 45.261719 25.089844 39 25.089844 C 32.738281 25.089844 27.660156 20.011719 27.660156 13.75 C 27.660156 7.488281 32.738281 2.410156 39 2.410156 C 45.261719 2.410156 50.339844 7.488281 50.339844 13.75 Z M 74.339844 13.75 C 74.339844 20.011719 69.261719 25.089844 63 25.089844 C 56.738281 25.089844 51.660156 20.011719 51.660156 13.75 C 51.660156 7.488281 56.738281 2.410156 63 2.410156 C 69.261719 2.410156 74.339844 7.488281 74.339844 13.75 Z M 97.339844 13.75 C 97.339844 20.011719 92.261719 25.089844 86 25.089844 C 79.738281 25.089844 74.660156 20.011719 74.660156 13.75 C 74.660156 7.488281 79.738281 2.410156 86 2.410156 C 92.261719 2.410156 97.339844 7.488281 97.339844 13.75 Z M 121.339844 13.75 C 121.339844 20.011719 116.261719 25.089844 110 25.089844 C 103.738281 25.089844 98.660156 20.011719 98.660156 13.75 C 98.660156 7.488281 103.738281 2.410156 110 2.410156 C 116.261719 2.410156 121.339844 7.488281 121.339844 13.75 Z M 145.339844 13.75 C 145.339844 20.011719 140.261719 25.089844 134 25.089844 C 127.738281 25.089844 122.660156 20.011719 122.660156 13.75 C 122.660156 7.488281 127.738281 2.410156 134 2.410156 C 140.261719 2.410156 145.339844 7.488281 145.339844 13.75 Z M 0 0.75 L 146 0.75 M 15 30.75 L 15 25.089844 M 39 30.75 L 39 25.089844 M 63 30.75 L 63 25.089844 M 86 30.75 L 86 25.089844 M 110 30.75 L 110 25.089844 M 134 30.75 L 134 25.089844 " transform="matrix(1,0,0,-1,0,56)"/>
</g>
</g>
</svg>
