<?xml version="1.0" encoding="UTF-8"?>
<svg xmlns="http://www.w3.org/2000/svg" xmlns:xlink="http://www.w3.org/1999/xlink" width="275pt" height="320pt" viewBox="0 0 275 320" version="1.2">
<defs>
<clipPath id="clip1">
  <path d="M 0 0.355469 L 34 0.355469 L 34 42 L 0 42 Z "/>
</clipPath>
<clipPath id="clip2">
  <path d="M 104 150 L 274.472656 150 L 274.472656 320 L 104 320 Z "/>
</clipPath>
</defs>
<g id="surface1">
<path style=" stroke:none;fill-rule:nonzero;fill:rgb(100%,100%,100%);fill-opacity:1;" d="M 16.988281 12.949219 C 16.988281 19.078125 13.519531 24.046875 9.246094 24.046875 C 4.96875 24.046875 1.5 19.078125 1.5 12.949219 C 1.5 6.820312 4.96875 1.855469 9.246094 1.855469 C 13.519531 1.855469 16.988281 6.820312 16.988281 12.949219 "/>
<g clip-path="url(#clip1)" clip-rule="nonzero">
<path style="fill:none;stroke-width:3;stroke-linecap:butt;stroke-linejoin:miter;stroke:rgb(13.729858%,12.159729%,12.548828%);stroke-opacity:1;stroke-miterlimit:4;" d="M 16.988281 307.050781 C 16.988281 300.921875 13.519531 295.953125 9.246094 295.953125 C 4.96875 295.953125 1.5 300.921875 1.5 307.050781 C 1.5 313.179688 4.96875 318.144531 9.246094 318.144531 C 13.519531 318.144531 16.988281 313.179688 16.988281 307.050781 Z " transform="matrix(1,0,0,-1,0,320)"/>
</g>
<path style=" stroke:none;fill-rule:nonzero;fill:rgb(100%,100%,100%);fill-opacity:1;" d="M 16.988281 35.132812 C 16.988281 41.261719 13.519531 46.230469 9.246094 46.230469 C 4.96875 46.230469 1.5 41.261719 1.5 35.132812 C 1.5 29.007812 4.96875 24.039062 9.246094 24.039062 C 13.519531 24.039062 16.988281 29.007812 16.988281 35.132812 "/>
<path style="fill:none;stroke-width:3;stroke-linecap:butt;stroke-linejoin:miter;stroke:rgb(13.729858%,12.159729%,12.548828%);stroke-opacity:1;stroke-miterlimit:4;" d="M 16.988281 284.867188 C 16.988281 278.738281 13.519531 273.769531 9.246094 273.769531 C 4.96875 273.769531 1.5 278.738281 1.5 284.867188 C 1.5 290.992188 4.96875 295.960938 9.246094 295.960938 C 13.519531 295.960938 16.988281 290.992188 16.988281 284.867188 Z " transform="matrix(1,0,0,-1,0,320)"/>
<path style=" stroke:none;fill-rule:nonzero;fill:rgb(100%,100%,100%);fill-opacity:1;" d="M 16.988281 59.179688 C 16.988281 65.304688 13.519531 70.273438 9.246094 70.273438 C 4.96875 70.273438 1.5 65.304688 1.5 59.179688 C 1.5 53.050781 4.96875 48.085938 9.246094 48.085938 C 13.519531 48.085938 16.988281 53.050781 16.988281 59.179688 "/>
<path style="fill:none;stroke-width:3;stroke-linecap:butt;stroke-linejoin:miter;stroke:rgb(13.729858%,12.159729%,12.548828%);stroke-opacity:1;stroke-miterlimit:4;" d="M 16.988281 260.820312 C 16.988281 254.695312 13.519531 249.726562 9.246094 249.726562 C 4.96875 249.726562 1.5 254.695312 1.5 260.820312 C 1.5 266.949219 4.96875 271.914062 9.246094 271.914062 C 13.519531 271.914062 16.988281 266.949219 16.988281 260.820312 Z " transform="matrix(1,0,0,-1,0,320)"/>
<path style=" stroke:none;fill-rule:nonzero;fill:rgb(100%,100%,100%);fill-opacity:1;" d="M 16.988281 83.21875 C 16.988281 89.34375 13.519531 94.3125 9.246094 94.3125 C 4.96875 94.3125 1.5 89.34375 1.5 83.21875 C 1.5 77.089844 4.96875 72.121094 9.246094 72.121094 C 13.519531 72.121094 16.988281 77.089844 16.988281 83.21875 "/>
<path style="fill:none;stroke-width:3;stroke-linecap:butt;stroke-linejoin:miter;stroke:rgb(13.729858%,12.159729%,12.548828%);stroke-opacity:1;stroke-miterlimit:4;" d="M 16.988281 236.78125 C 16.988281 230.65625 13.519531 225.6875 9.246094 225.6875 C 4.96875 225.6875 1.5 230.65625 1.5 236.78125 C 1.5 242.910156 4.96875 247.878906 9.246094 247.878906 C 13.519531 247.878906 16.988281 242.910156 16.988281 236.78125 Z " transform="matrix(1,0,0,-1,0,320)"/>
<path style=" stroke:none;fill-rule:nonzero;fill:rgb(100%,100%,100%);fill-opacity:1;" d="M 16.988281 107.257812 C 16.988281 113.382812 13.519531 118.351562 9.246094 118.351562 C 4.96875 118.351562 1.5 113.382812 1.5 107.257812 C 1.5 101.128906 4.96875 96.160156 9.246094 96.160156 C 13.519531 96.160156 16.988281 101.128906 16.988281 107.257812 "/>
<path style="fill:none;stroke-width:3;stroke-linecap:butt;stroke-linejoin:miter;stroke:rgb(13.729858%,12.159729%,12.548828%);stroke-opacity:1;stroke-miterlimit:4;" d="M 16.988281 212.742188 C 16.988281 206.617188 13.519531 201.648438 9.246094 201.648438 C 4.96875 201.648438 1.5 206.617188 1.5 212.742188 C 1.5 218.871094 4.96875 223.839844 9.246094 223.839844 C 13.519531 223.839844 16.988281 218.871094 16.988281 212.742188 Z " transform="matrix(1,0,0,-1,0,320)"/>
<path style=" stroke:none;fill-rule:nonzero;fill:rgb(100%,100%,100%);fill-opacity:1;" d="M 16.988281 129.445312 C 16.988281 135.574219 13.519531 140.542969 9.246094 140.542969 C 4.96875 140.542969 1.5 135.574219 1.5 129.445312 C 1.5 123.320312 4.96875 118.351562 9.246094 118.351562 C 13.519531 118.351562 16.988281 123.320312 16.988281 129.445312 "/>
<path style="fill:none;stroke-width:3;stroke-linecap:butt;stroke-linejoin:miter;stroke:rgb(13.729858%,12.159729%,12.548828%);stroke-opacity:1;stroke-miterlimit:4;" d="M 16.988281 190.554688 C 16.988281 184.425781 13.519531 179.457031 9.246094 179.457031 C 4.96875 179.457031 1.5 184.425781 1.5 190.554688 C 1.5 196.679688 4.96875 201.648438 9.246094 201.648438 C 13.519531 201.648438 16.988281 196.679688 16.988281 190.554688 Z " transform="matrix(1,0,0,-1,0,320)"/>
<path style=" stroke:none;fill-rule:nonzero;fill:rgb(100%,100%,100%);fill-opacity:1;" d="M 16.988281 151.628906 C 16.988281 157.757812 13.519531 162.726562 9.246094 162.726562 C 4.96875 162.726562 1.5 157.757812 1.5 151.628906 C 1.5 145.503906 4.96875 140.535156 9.246094 140.535156 C 13.519531 140.535156 16.988281 145.503906 16.988281 151.628906 "/>
<path style="fill:none;stroke-width:3;stroke-linecap:butt;stroke-linejoin:miter;stroke:rgb(13.729858%,12.159729%,12.548828%);stroke-opacity:1;stroke-miterlimit:4;" d="M 16.988281 168.371094 C 16.988281 162.242188 13.519531 157.273438 9.246094 157.273438 C 4.96875 157.273438 1.5 162.242188 1.5 168.371094 C 1.5 174.496094 4.96875 179.464844 9.246094 179.464844 C 13.519531 179.464844 16.988281 174.496094 16.988281 168.371094 Z " transform="matrix(1,0,0,-1,0,320)"/>
<g clip-path="url(#clip2)" clip-rule="nonzero">
<path style="fill:none;stroke-width:4;stroke-linecap:butt;stroke-linejoin:miter;stroke:rgb(13.729858%,12.159729%,12.548828%);stroke-opacity:1;stroke-miterlimit:4;" d="M 127.320312 71.40625 L 274.472656 71.40625 M 199.726562 147.15625 L 199.894531 0.00390625 M 147.109375 121.550781 L 253.867188 20.277344 M 251.773438 126.675781 L 150.621094 19.800781 " transform="matrix(1,0,0,-1,0,320)"/>
</g>
</g>
</svg>
