<?xml version="1.0" encoding="UTF-8"?>
<svg xmlns="http://www.w3.org/2000/svg" xmlns:xlink="http://www.w3.org/1999/xlink" width="295pt" height="606pt" viewBox="0 0 295 606" version="1.2">
<defs>
<clipPath id="clip1">
  <path d="M 0 0.363281 L 294.433594 0.363281 L 294.433594 605.941406 L 0 605.941406 Z "/>
</clipPath>
</defs>
<g id="surface1">
<g clip-path="url(#clip1)" clip-rule="nonzero">
<path style="fill:none;stroke-width:1.5;stroke-linecap:butt;stroke-linejoin:miter;stroke:rgb(13.729858%,12.159729%,12.548828%);stroke-opacity:1;stroke-miterlimit:4;" d="M 114.882812 486.03125 L 114.882812 348.777344 C 114.882812 339.960938 111.480469 332.8125 107.289062 332.8125 L 8.339844 332.8125 C 4.148438 332.8125 0.75 339.960938 0.75 348.777344 L 0.75 486.03125 M 293.683594 155.054688 L 293.683594 16.824219 C 293.683594 7.945312 288.3125 0.75 281.683594 0.75 L 125.25 0.75 C 118.621094 0.75 113.25 7.945312 113.25 16.824219 L 113.25 155.054688 M 72.339844 554.882812 C 74.1875 585.449219 97.023438 604.886719 125.503906 604.886719 C 154.917969 604.886719 178.765625 586.375 178.765625 551.625 M 72.339844 555.882812 L 72.242188 399.539062 M 1.292969 423.054688 L 115.425781 423.054688 M 1.292969 388.269531 L 115.425781 388.269531 M 60.53125 436.097656 C 60.53125 432.195312 65.644531 429.03125 71.945312 429.03125 C 78.25 429.03125 83.359375 432.195312 83.359375 436.097656 C 83.359375 440 78.25 443.164062 71.945312 443.164062 C 65.644531 443.164062 60.53125 440 60.53125 436.097656 Z M 168.140625 443.707031 C 168.140625 439.804688 173.253906 436.640625 179.554688 436.640625 C 185.859375 436.640625 190.96875 439.804688 190.96875 443.707031 C 190.96875 447.609375 185.859375 450.773438 179.554688 450.773438 C 173.253906 450.773438 168.140625 447.609375 168.140625 443.707031 Z " transform="matrix(1,0,0,-1,0,606)"/>
</g>
<path style=" stroke:none;fill-rule:nonzero;fill:rgb(13.729858%,12.159729%,12.548828%);fill-opacity:1;" d="M 78.222656 206.460938 C 78.222656 209.761719 75.546875 212.4375 72.242188 212.4375 C 68.941406 212.4375 66.265625 209.761719 66.265625 206.460938 C 66.265625 203.15625 68.941406 200.480469 72.242188 200.480469 C 75.546875 200.480469 78.222656 203.15625 78.222656 206.460938 "/>
<path style="fill:none;stroke-width:1.5;stroke-linecap:butt;stroke-linejoin:miter;stroke:rgb(13.729858%,12.159729%,12.548828%);stroke-opacity:1;stroke-miterlimit:4;" d="M 78.222656 399.539062 C 78.222656 396.238281 75.546875 393.5625 72.242188 393.5625 C 68.941406 393.5625 66.265625 396.238281 66.265625 399.539062 C 66.265625 402.84375 68.941406 405.519531 72.242188 405.519531 C 75.546875 405.519531 78.222656 402.84375 78.222656 399.539062 Z M 49.117188 443.707031 L 49.117188 424.140625 M 94.769531 442.445312 L 94.769531 422.878906 M 244.773438 109.265625 C 244.773438 93.066406 231.632812 79.921875 215.425781 79.921875 C 199.21875 79.921875 186.074219 93.066406 186.074219 109.265625 C 186.074219 125.480469 199.21875 138.621094 215.425781 138.621094 C 231.632812 138.621094 244.773438 125.480469 244.773438 109.265625 Z " transform="matrix(1,0,0,-1,0,606)"/>
<path style="fill:none;stroke-width:1.5;stroke-linecap:butt;stroke-linejoin:miter;stroke:rgb(13.729858%,12.159729%,12.548828%);stroke-opacity:1;stroke-miterlimit:2;" d="M 215.425781 79.921875 L 215.425781 68.773438 M 215.425781 149.773438 L 215.425781 138.621094 M 244.773438 109.273438 L 255.925781 109.273438 M 174.925781 109.273438 L 186.074219 109.273438 M 236.054688 128.773438 L 245.191406 137.910156 M 187.914062 80.636719 L 195.550781 88.273438 M 235.484375 89.21875 L 244.066406 80.632812 M 186.789062 137.910156 L 195.363281 129.332031 " transform="matrix(1,0,0,-1,0,606)"/>
<path style="fill:none;stroke-width:1.5;stroke-linecap:butt;stroke-linejoin:miter;stroke:rgb(13.729858%,12.159729%,12.548828%);stroke-opacity:1;stroke-dasharray:5,2;stroke-miterlimit:4;" d="M 179.292969 242.53125 L 179.292969 117.53125 " transform="matrix(1,0,0,-1,0,606)"/>
<path style="fill:none;stroke-width:1.5;stroke-linecap:butt;stroke-linejoin:miter;stroke:rgb(13.729858%,12.159729%,12.548828%);stroke-opacity:1;stroke-miterlimit:4;" d="M 179.292969 551.53125 L 179.292969 242.53125 " transform="matrix(1,0,0,-1,0,606)"/>
</g>
</svg>
