<?xml version="1.0" encoding="UTF-8"?>
<svg xmlns="http://www.w3.org/2000/svg" xmlns:xlink="http://www.w3.org/1999/xlink" width="308pt" height="606pt" viewBox="0 0 308 606" version="1.2">
<defs>
<clipPath id="clip1">
  <path d="M 0.0585938 0.664062 L 307.914062 0.664062 L 307.914062 605.941406 L 0.0585938 605.941406 Z "/>
</clipPath>
</defs>
<g id="surface1">
<g clip-path="url(#clip1)" clip-rule="nonzero">
<path style="fill:none;stroke-width:1.5;stroke-linecap:butt;stroke-linejoin:miter;stroke:rgb(13.729858%,12.159729%,12.548828%);stroke-opacity:1;stroke-miterlimit:4;" d="M 3.851562 301.195312 C -0.949219 288.589844 -0.0820312 278.273438 5.789062 278.15625 C 11.664062 278.039062 20.316406 288.164062 25.117188 300.769531 M 139.117188 301.1875 C 134.3125 288.578125 135.183594 278.265625 141.054688 278.148438 C 146.925781 278.03125 155.582031 288.15625 160.382812 300.761719 M 103.246094 301.535156 C 98.445312 288.929688 99.3125 278.613281 105.183594 278.496094 C 111.058594 278.378906 119.710938 288.503906 124.511719 301.109375 M 68.464844 301.621094 C 63.660156 289.015625 64.527344 278.699219 70.402344 278.582031 C 76.273438 278.464844 84.929688 288.589844 89.730469 301.195312 M 33.679688 301.535156 C 28.878906 288.929688 29.746094 278.613281 35.617188 278.496094 C 41.492188 278.378906 50.144531 288.503906 54.945312 301.109375 M 222.09375 173.636719 C 264.484375 187.765625 298.183594 140.496094 298.183594 91.570312 C 298.183594 13.804688 216.660156 -5.714844 203.617188 10.59375 M 222.09375 173.636719 C 180.558594 190.109375 138.015625 145.027344 128.890625 96.417969 C 114.390625 19.148438 188.152344 -4.648438 202.085938 10.902344 M 121.007812 101.894531 C 104.703125 57.328125 131.878906 -1.363281 186.226562 0.808594 M 215.574219 88.851562 C 215.574219 87.652344 214.601562 86.679688 213.398438 86.679688 C 212.199219 86.679688 211.226562 87.652344 211.226562 88.851562 C 211.226562 90.054688 212.199219 91.027344 213.398438 91.027344 C 214.601562 91.027344 215.574219 90.054688 215.574219 88.851562 Z M 209.050781 77.984375 C 209.050781 76.78125 208.078125 75.808594 206.878906 75.808594 C 205.675781 75.808594 204.703125 76.78125 204.703125 77.984375 C 204.703125 79.183594 205.675781 80.15625 206.878906 80.15625 C 208.078125 80.15625 209.050781 79.183594 209.050781 77.984375 Z M 276.679688 571.570312 C 283.398438 578.574219 298.398438 576.574219 297.398438 565.574219 C 297.398438 562.574219 297.117188 559.652344 296.597656 556.800781 C 296.074219 553.941406 295.308594 551.152344 294.359375 548.398438 C 291.074219 539.75 286.789062 531.625 281.777344 523.9375 C 280.105469 521.378906 278.351562 518.863281 276.527344 516.394531 C 256.398438 489.570312 231.398438 466.570312 203.683594 448.144531 C 201.4375 446.699219 199.160156 445.3125 196.847656 443.980469 C 185.300781 437.320312 172.929688 432.117188 160.117188 428.648438 M 282.730469 604.558594 C 293.382812 604.90625 299.820312 602.144531 303.460938 597.816406 C 305.277344 595.652344 306.398438 593.097656 306.996094 590.335938 C 307.71875 580.507812 306.0625 571.105469 302.847656 562.082031 C 301.777344 559.066406 300.53125 556.089844 299.1875 553.148438 C 286.398438 523.574219 263.398438 498.570312 239.699219 476.886719 C 237.269531 474.582031 234.785156 472.324219 232.230469 470.121094 C 229.679688 467.914062 227.054688 465.765625 224.347656 463.675781 C 221.613281 461.265625 218.878906 458.914062 216.109375 456.636719 C 199.496094 442.992188 180.898438 433.460938 158.972656 428.28125 M 283.140625 604.355469 C 282.1875 602.222656 281.199219 600.085938 280.1875 597.949219 C 279.175781 595.808594 278.132812 593.664062 277.085938 591.515625 C 267.398438 568.574219 253.398438 548.574219 240.90625 526.34375 C 239.296875 523.75 237.675781 521.171875 236.019531 518.613281 C 231.042969 510.929688 225.730469 503.414062 219.929688 496.121094 C 217.871094 493.203125 215.796875 490.300781 213.703125 487.421875 C 211.605469 484.539062 209.492188 481.675781 207.363281 478.835938 C 205.609375 476.507812 203.816406 474.214844 201.988281 471.945312 C 189.199219 456.082031 174.738281 441.640625 159.199219 427.800781 " transform="matrix(1,0,0,-1,0,606)"/>
</g>
</g>
</svg>
