<?xml version="1.0" encoding="UTF-8"?>
<svg xmlns="http://www.w3.org/2000/svg" xmlns:xlink="http://www.w3.org/1999/xlink" width="383pt" height="351pt" viewBox="0 0 383 351" version="1.2">
<g id="surface1">
<path style=" stroke:none;fill-rule:nonzero;fill:rgb(73.947144%,73.472595%,73.590088%);fill-opacity:1;" d="M 382.609375 351 L 0 351 L 0 349.003906 L 327.285156 349.003906 L 327.898438 349.621094 L 328.527344 349.003906 L 364.074219 349.003906 L 365.121094 350.054688 L 366.175781 349.003906 L 382.609375 349.003906 L 382.609375 351 "/>
<path style=" stroke:none;fill-rule:nonzero;fill:rgb(73.947144%,73.472595%,73.590088%);fill-opacity:1;" d="M 328.527344 349.003906 L 327.285156 349.003906 L 327.195312 348.910156 L 291.808594 313.441406 L 291.808594 312.957031 L 291.324219 312.957031 L 287.078125 308.699219 L 288.027344 308.699219 L 288.027344 308.773438 L 290.019531 308.816406 L 290.808594 309.609375 L 290.808594 310.957031 L 291.808594 310.957031 L 291.808594 310.609375 L 326.875 345.761719 L 326.898438 348.21875 L 328.90625 348.199219 L 328.882812 345.816406 L 330.542969 344.15625 L 330.542969 346.085938 L 331.449219 346.085938 L 328.609375 348.921875 L 328.527344 349.003906 M 331.542969 345.992188 L 331.542969 343.160156 L 344.96875 329.765625 L 346.382812 331.1875 L 331.542969 345.992188 M 347.796875 329.777344 L 346.382812 328.355469 L 364.960938 309.824219 L 364.132812 308.992188 L 364.140625 308.617188 L 364.058594 308.617188 L 364.050781 308.914062 L 331.542969 276.328125 L 331.542969 275.4375 L 330.652344 275.4375 L 328.199219 272.976562 L 328.175781 270.636719 L 327.179688 270.652344 L 327.179688 269.648438 L 324.878906 269.648438 L 288.839844 233.523438 L 289.042969 233.523438 L 289.042969 231.523438 L 288.046875 231.523438 L 288.046875 230.527344 L 286.867188 230.527344 L 286.867188 231.546875 L 251 195.59375 L 251 193.480469 L 250.003906 193.480469 L 250.003906 192.480469 L 247.898438 192.480469 L 211.847656 156.347656 L 211.867188 156.347656 L 211.867188 154.351562 L 210.871094 154.351562 L 210.871094 153.351562 L 209.699219 153.351562 L 209.699219 154.195312 L 176.589844 121.007812 L 176.589844 118.476562 L 175.589844 118.476562 L 175.589844 120.003906 L 173.824219 118.234375 L 173.824219 115.402344 L 213.769531 155.4375 L 213.632812 155.4375 L 213.632812 157.4375 L 214.632812 157.4375 L 214.632812 156.304688 L 367.082031 309.121094 L 366.382812 309.824219 L 367.082031 309.121094 L 367.792969 309.824219 L 367.082031 310.535156 L 347.796875 329.777344 M 287.046875 308.667969 L 250.121094 271.65625 L 252.945312 271.65625 L 288.078125 306.871094 L 288.0625 307.519531 L 287.046875 307.519531 L 287.046875 308.667969 M 250.003906 271.535156 L 249.125 270.65625 L 250.003906 270.65625 L 250.003906 271.535156 M 249.003906 270.535156 L 211.082031 232.523438 L 212.867188 232.523438 L 212.867188 231.484375 L 213.632812 232.25 L 213.632812 232.605469 L 213.984375 232.605469 L 249.003906 267.703125 L 249.003906 270.535156 M 210.871094 232.3125 L 210.085938 231.523438 L 210.871094 231.523438 L 210.871094 232.3125 M 209.871094 231.308594 L 173.128906 194.480469 L 175.589844 194.480469 L 175.589844 196.738281 L 176.589844 196.738281 L 176.589844 195.117188 L 211.734375 230.34375 L 209.871094 230.34375 L 209.871094 231.308594 M 211.910156 230.527344 L 211.867188 230.527344 L 211.867188 230.484375 L 211.910156 230.527344 M 172.828125 194.175781 L 172.132812 193.480469 L 172.828125 193.480469 L 172.828125 194.175781 M 171.828125 193.175781 L 134.089844 155.347656 L 135.695312 155.347656 L 135.695312 154.125 L 136.914062 155.347656 L 136.457031 155.347656 L 136.457031 156.519531 L 137.457031 156.519531 L 137.457031 155.894531 L 171.828125 190.347656 L 171.828125 193.175781 M 173.960938 192.480469 L 173.824219 192.480469 L 173.824219 192.347656 L 173.960938 192.480469 M 133.695312 154.953125 L 133.09375 154.351562 L 133.695312 154.351562 L 133.695312 154.953125 M 132.695312 153.949219 L 19.882812 40.867188 L 19.179688 40.164062 L 19.890625 39.453125 L 57.523438 1.910156 L 57.527344 3.238281 L 59.027344 3.238281 L 24.046875 38.132812 L 21.734375 38.132812 L 21.734375 40.128906 L 22.042969 40.128906 L 22.003906 40.167969 L 57.398438 75.644531 L 57.285156 75.761719 L 58.699219 77.175781 L 58.699219 78.171875 L 59.695312 78.171875 L 60.109375 78.585938 L 60.222656 78.476562 L 95.742188 114.078125 L 95.742188 115.21875 L 96.742188 115.21875 L 96.742188 116.214844 L 97.871094 116.214844 L 99.503906 117.851562 L 99.503906 119.5625 L 100.503906 119.5625 L 100.503906 118.851562 L 132.695312 151.121094 L 132.695312 151.171875 L 132.746094 151.171875 L 134.921875 153.351562 L 134.695312 153.351562 L 134.695312 153.171875 L 132.695312 153.171875 L 132.695312 153.949219 M 171.828125 116.234375 L 171.8125 116.214844 L 171.828125 116.214844 L 171.828125 116.234375 M 173.644531 115.21875 L 172.828125 115.21875 L 172.828125 114.398438 L 173.644531 115.21875 M 172.644531 114.21875 L 169.816406 114.21875 L 137.027344 81.351562 L 137.457031 81.351562 L 137.457031 79.351562 L 136.457031 79.351562 L 136.457031 80.777344 L 134.695312 79.011719 L 134.695312 77.175781 L 132.863281 77.175781 L 132.695312 77.007812 L 132.695312 76.175781 L 131.863281 76.175781 L 100.503906 44.738281 L 100.503906 43.476562 L 99.503906 43.476562 L 99.503906 43.738281 L 97.738281 41.96875 L 97.738281 40.957031 L 98.152344 40.542969 L 97.738281 40.128906 L 97.738281 39.132812 L 172.644531 114.21875 M 97.738281 39.132812 L 96.742188 39.132812 L 96.742188 38.132812 L 95.742188 38.132812 L 95.328125 37.71875 L 94.914062 38.132812 L 93.910156 38.132812 L 62.289062 6.433594 L 62.289062 6.324219 L 62.179688 6.324219 L 59.101562 3.238281 L 59.527344 3.238281 L 59.527344 1.230469 L 58.195312 1.238281 L 59.066406 0.367188 L 59.777344 1.078125 L 61.28125 2.585938 L 61.289062 4.328125 L 62.289062 4.320312 L 62.285156 3.59375 L 97.738281 39.132812 "/>
<path style=" stroke:none;fill-rule:nonzero;fill:rgb(55.656433%,54.850769%,55.050659%);fill-opacity:1;" d="M 327.898438 349.621094 L 327.285156 349.003906 L 328.527344 349.003906 L 327.898438 349.621094 "/>
<path style=" stroke:none;fill-rule:nonzero;fill:rgb(13.729858%,12.159729%,12.548828%);fill-opacity:1;" d="M 328.90625 348.199219 L 328.175781 270.636719 L 326.179688 270.664062 L 326.898438 348.21875 L 328.90625 348.199219 "/>
<path style=" stroke:none;fill-rule:nonzero;fill:rgb(13.729858%,12.159729%,12.548828%);fill-opacity:1;" d="M 330.542969 275.4375 L 331.542969 275.4375 L 331.542969 346.085938 L 330.542969 346.085938 Z "/>
<path style=" stroke:none;fill-rule:nonzero;fill:rgb(13.729858%,12.159729%,12.548828%);fill-opacity:1;" d="M 250.003906 269.648438 L 327.179688 269.648438 L 327.179688 271.65625 L 250.003906 271.65625 Z "/>
<path style=" stroke:none;fill-rule:nonzero;fill:rgb(13.729858%,12.159729%,12.548828%);fill-opacity:1;" d="M 249.003906 193.480469 L 251 193.480469 L 251 270.65625 L 249.003906 270.65625 Z "/>
<path style=" stroke:none;fill-rule:nonzero;fill:rgb(13.729858%,12.159729%,12.548828%);fill-opacity:1;" d="M 172.828125 192.480469 L 250.003906 192.480469 L 250.003906 194.480469 L 172.828125 194.480469 Z "/>
<path style=" stroke:none;fill-rule:nonzero;fill:rgb(13.729858%,12.159729%,12.548828%);fill-opacity:1;" d="M 171.828125 115.21875 L 173.824219 115.21875 L 173.824219 193.480469 L 171.828125 193.480469 Z "/>
<path style=" stroke:none;fill-rule:nonzero;fill:rgb(13.729858%,12.159729%,12.548828%);fill-opacity:1;" d="M 175.589844 118.476562 L 176.589844 118.476562 L 176.589844 196.738281 L 175.589844 196.738281 Z "/>
<path style=" stroke:none;fill-rule:nonzero;fill:rgb(13.729858%,12.159729%,12.548828%);fill-opacity:1;" d="M 96.742188 114.21875 L 172.828125 114.21875 L 172.828125 116.214844 L 96.742188 116.214844 Z "/>
<path style=" stroke:none;fill-rule:nonzero;fill:rgb(13.729858%,12.159729%,12.548828%);fill-opacity:1;" d="M 95.742188 39.132812 L 97.738281 39.132812 L 97.738281 115.21875 L 95.742188 115.21875 Z "/>
<path style=" stroke:none;fill-rule:nonzero;fill:rgb(13.729858%,12.159729%,12.548828%);fill-opacity:1;" d="M 99.503906 43.476562 L 100.503906 43.476562 L 100.503906 119.5625 L 99.503906 119.5625 Z "/>
<path style=" stroke:none;fill-rule:nonzero;fill:rgb(13.729858%,12.159729%,12.548828%);fill-opacity:1;" d="M 21.734375 38.132812 L 96.742188 38.132812 L 96.742188 40.128906 L 21.734375 40.128906 Z "/>
<path style=" stroke:none;fill-rule:nonzero;fill:rgb(13.729858%,12.159729%,12.548828%);fill-opacity:1;" d="M 57.519531 1.242188 L 57.527344 3.238281 L 59.527344 3.238281 L 59.527344 1.230469 L 57.519531 1.242188 M 57.535156 7.234375 L 59.535156 7.234375 L 59.535156 5.238281 L 57.535156 5.238281 Z M 57.546875 9.242188 L 57.546875 11.238281 L 59.542969 11.230469 L 59.542969 9.234375 L 57.546875 9.242188 M 57.554688 15.234375 L 59.554688 15.234375 L 59.554688 13.238281 L 57.554688 13.238281 Z M 57.5625 17.242188 L 57.5625 19.242188 L 59.5625 19.230469 L 59.5625 17.234375 L 57.5625 17.242188 M 57.574219 23.238281 L 59.570312 23.238281 L 59.570312 21.238281 L 57.574219 21.238281 Z M 57.582031 25.234375 L 57.582031 27.242188 L 59.578125 27.234375 L 59.578125 25.234375 L 57.582031 25.234375 M 57.589844 29.238281 L 57.589844 31.238281 L 59.589844 31.238281 L 59.589844 29.230469 L 57.589844 29.238281 M 57.601562 33.234375 L 57.601562 35.242188 L 59.597656 35.234375 L 59.597656 33.234375 L 57.601562 33.234375 M 57.609375 37.242188 L 57.609375 39.238281 L 59.605469 39.238281 L 59.605469 37.230469 L 57.609375 37.242188 M 57.617188 43.234375 L 59.617188 43.234375 L 59.617188 41.238281 L 57.617188 41.238281 Z M 57.628906 45.242188 L 57.628906 47.238281 L 59.625 47.230469 L 59.625 45.234375 L 57.628906 45.242188 M 57.636719 51.234375 L 59.632812 51.234375 L 59.632812 49.238281 L 57.636719 49.238281 Z M 57.644531 53.242188 L 57.644531 55.242188 L 59.644531 55.230469 L 59.644531 53.234375 L 57.644531 53.242188 M 57.652344 59.238281 L 59.652344 59.238281 L 59.652344 57.238281 L 57.652344 57.238281 Z M 57.664062 61.234375 L 57.664062 63.242188 L 59.660156 63.234375 L 59.660156 61.234375 L 57.664062 61.234375 M 57.671875 65.238281 L 57.671875 67.238281 L 59.671875 67.238281 L 59.671875 65.230469 L 57.671875 65.238281 M 57.679688 69.234375 L 57.679688 71.242188 L 59.679688 71.234375 L 59.679688 69.234375 L 57.679688 69.234375 M 57.691406 73.242188 L 57.691406 75.238281 L 59.6875 75.238281 L 59.6875 73.230469 L 57.691406 73.242188 "/>
<path style=" stroke:none;fill-rule:nonzero;fill:rgb(13.729858%,12.159729%,12.548828%);fill-opacity:1;" d="M 61.28125 2.320312 L 61.289062 4.328125 L 62.289062 4.320312 L 62.28125 2.320312 L 61.28125 2.320312 M 61.289062 6.324219 L 61.300781 8.324219 L 62.296875 8.324219 L 62.289062 6.324219 L 61.289062 6.324219 M 61.300781 10.320312 L 61.308594 12.328125 L 62.308594 12.320312 L 62.296875 10.320312 L 61.300781 10.320312 M 61.308594 14.328125 L 61.316406 16.324219 L 62.316406 16.324219 L 62.308594 14.328125 L 61.308594 14.328125 M 61.316406 18.324219 L 61.324219 20.320312 L 62.324219 20.320312 L 62.316406 18.324219 L 61.316406 18.324219 M 61.324219 22.328125 L 61.335938 24.324219 L 62.335938 24.324219 L 62.335938 22.320312 L 61.324219 22.328125 M 61.335938 26.324219 L 61.34375 28.320312 L 62.34375 28.320312 L 62.34375 26.324219 L 61.335938 26.324219 M 61.34375 30.328125 L 61.351562 32.328125 L 62.351562 32.328125 L 62.351562 30.320312 L 61.34375 30.328125 M 61.351562 34.324219 L 61.363281 36.324219 L 62.359375 36.324219 L 62.359375 34.324219 L 61.351562 34.324219 M 61.363281 38.320312 L 61.371094 40.328125 L 62.371094 40.320312 L 62.371094 38.320312 L 61.363281 38.320312 M 61.371094 42.324219 L 61.378906 44.324219 L 62.378906 44.324219 L 62.378906 42.324219 L 61.371094 42.324219 M 61.378906 46.320312 L 61.390625 48.328125 L 62.386719 48.320312 L 62.386719 46.320312 L 61.378906 46.320312 M 61.390625 50.328125 L 61.398438 52.324219 L 62.398438 52.324219 L 62.398438 50.328125 L 61.390625 50.328125 M 61.398438 54.324219 L 61.40625 56.320312 L 62.40625 56.320312 L 62.40625 54.324219 L 61.398438 54.324219 M 61.40625 58.328125 L 61.414062 60.324219 L 62.414062 60.324219 L 62.414062 58.320312 L 61.40625 58.328125 M 61.414062 62.324219 L 61.425781 64.320312 L 62.425781 64.320312 L 62.425781 62.324219 L 61.414062 62.324219 M 61.425781 66.328125 L 61.433594 68.328125 L 62.433594 68.328125 L 62.433594 66.320312 L 61.425781 66.328125 M 61.441406 72.324219 L 62.441406 72.324219 L 62.441406 70.324219 L 61.441406 70.324219 Z M 61.453125 74.320312 L 61.453125 76.328125 L 62.449219 76.320312 L 62.449219 74.320312 L 61.453125 74.320312 "/>
<path style=" stroke:none;fill-rule:nonzero;fill:rgb(13.729858%,12.159729%,12.548828%);fill-opacity:1;" d="M 58.699219 78.171875 L 60.695312 78.171875 L 60.695312 76.175781 L 58.699219 76.175781 Z M 62.695312 78.171875 L 64.691406 78.171875 L 64.691406 76.175781 L 62.695312 76.175781 Z M 66.699219 78.171875 L 68.695312 78.171875 L 68.695312 76.175781 L 66.699219 76.175781 Z M 70.695312 78.171875 L 72.691406 78.171875 L 72.691406 76.175781 L 70.695312 76.175781 Z M 74.699219 78.171875 L 76.699219 78.171875 L 76.699219 76.175781 L 74.699219 76.175781 Z M 78.695312 78.171875 L 80.695312 78.171875 L 80.695312 76.175781 L 78.695312 76.175781 Z M 82.691406 78.171875 L 84.699219 78.171875 L 84.699219 76.175781 L 82.691406 76.175781 Z M 86.695312 78.171875 L 88.695312 78.171875 L 88.695312 76.175781 L 86.695312 76.175781 Z M 90.691406 78.171875 L 92.699219 78.171875 L 92.699219 76.175781 L 90.691406 76.175781 Z M 94.699219 78.171875 L 96.695312 78.171875 L 96.695312 76.175781 L 94.699219 76.175781 Z M 98.695312 78.171875 L 100.691406 78.171875 L 100.691406 76.175781 L 98.695312 76.175781 Z M 102.699219 78.171875 L 104.699219 78.171875 L 104.699219 76.175781 L 102.699219 76.175781 Z M 106.695312 78.171875 L 108.691406 78.171875 L 108.691406 76.175781 L 106.695312 76.175781 Z M 110.699219 78.171875 L 112.699219 78.171875 L 112.699219 76.175781 L 110.699219 76.175781 Z M 114.695312 78.171875 L 116.695312 78.171875 L 116.695312 76.175781 L 114.695312 76.175781 Z M 118.691406 78.171875 L 120.699219 78.171875 L 120.699219 76.175781 L 118.691406 76.175781 Z M 122.699219 78.171875 L 124.695312 78.171875 L 124.695312 76.175781 L 122.699219 76.175781 Z M 126.691406 78.171875 L 128.699219 78.171875 L 128.699219 76.175781 L 126.691406 76.175781 Z M 130.699219 78.171875 L 132.695312 78.171875 L 132.695312 76.175781 L 130.699219 76.175781 Z "/>
<path style=" stroke:none;fill-rule:nonzero;fill:rgb(13.729858%,12.159729%,12.548828%);fill-opacity:1;" d="M 132.695312 79.171875 L 134.695312 79.171875 L 134.695312 77.175781 L 132.695312 77.175781 Z M 132.695312 83.175781 L 134.695312 83.175781 L 134.695312 81.171875 L 132.695312 81.171875 Z M 132.695312 87.171875 L 134.695312 87.171875 L 134.695312 85.175781 L 132.695312 85.175781 Z M 132.695312 91.179688 L 134.695312 91.179688 L 134.695312 89.171875 L 132.695312 89.171875 Z M 132.695312 95.175781 L 134.695312 95.175781 L 134.695312 93.175781 L 132.695312 93.175781 Z M 132.695312 99.171875 L 134.695312 99.171875 L 134.695312 97.171875 L 132.695312 97.171875 Z M 132.695312 103.175781 L 134.695312 103.175781 L 134.695312 101.179688 L 132.695312 101.179688 Z M 132.695312 107.171875 L 134.695312 107.171875 L 134.695312 105.175781 L 132.695312 105.175781 Z M 132.695312 111.175781 L 134.695312 111.175781 L 134.695312 109.179688 L 132.695312 109.179688 Z M 132.695312 115.171875 L 134.695312 115.171875 L 134.695312 113.175781 L 132.695312 113.175781 Z M 132.695312 119.179688 L 134.695312 119.179688 L 134.695312 117.171875 L 132.695312 117.171875 Z M 132.695312 123.171875 L 134.695312 123.171875 L 134.695312 121.175781 L 132.695312 121.175781 Z M 132.695312 127.179688 L 134.695312 127.179688 L 134.695312 125.171875 L 132.695312 125.171875 Z M 132.695312 131.175781 L 134.695312 131.175781 L 134.695312 129.175781 L 132.695312 129.175781 Z M 132.695312 135.171875 L 134.695312 135.171875 L 134.695312 133.171875 L 132.695312 133.171875 Z M 132.695312 139.175781 L 134.695312 139.175781 L 134.695312 137.175781 L 132.695312 137.175781 Z M 132.695312 143.171875 L 134.695312 143.171875 L 134.695312 141.175781 L 132.695312 141.175781 Z M 132.695312 147.175781 L 134.695312 147.175781 L 134.695312 145.179688 L 132.695312 145.179688 Z M 132.695312 151.171875 L 134.695312 151.171875 L 134.695312 149.175781 L 132.695312 149.175781 Z M 132.695312 154.351562 L 134.695312 154.351562 L 134.695312 153.171875 L 132.695312 153.171875 Z "/>
<path style=" stroke:none;fill-rule:nonzero;fill:rgb(13.729858%,12.159729%,12.548828%);fill-opacity:1;" d="M 136.457031 81.351562 L 137.457031 81.351562 L 137.457031 79.351562 L 136.457031 79.351562 Z M 136.457031 85.347656 L 137.457031 85.347656 L 137.457031 83.347656 L 136.457031 83.347656 Z M 136.457031 89.351562 L 137.457031 89.351562 L 137.457031 87.34375 L 136.457031 87.34375 Z M 136.457031 93.347656 L 137.457031 93.347656 L 137.457031 91.347656 L 136.457031 91.347656 Z M 136.457031 97.351562 L 137.457031 97.351562 L 137.457031 95.34375 L 136.457031 95.34375 Z M 136.457031 101.347656 L 137.457031 101.347656 L 137.457031 99.351562 L 136.457031 99.351562 Z M 136.457031 105.34375 L 137.457031 105.34375 L 137.457031 103.347656 L 136.457031 103.347656 Z M 136.457031 109.347656 L 137.457031 109.347656 L 137.457031 107.351562 L 136.457031 107.351562 Z M 136.457031 113.347656 L 137.457031 113.347656 L 137.457031 111.347656 L 136.457031 111.347656 Z M 136.457031 117.351562 L 137.457031 117.351562 L 137.457031 115.351562 L 136.457031 115.351562 Z M 136.457031 121.347656 L 137.457031 121.347656 L 137.457031 119.347656 L 136.457031 119.347656 Z M 136.457031 125.351562 L 137.457031 125.351562 L 137.457031 123.34375 L 136.457031 123.34375 Z M 136.457031 129.347656 L 137.457031 129.347656 L 137.457031 127.347656 L 136.457031 127.347656 Z M 136.457031 133.351562 L 137.457031 133.351562 L 137.457031 131.34375 L 136.457031 131.34375 Z M 136.457031 137.347656 L 137.457031 137.347656 L 137.457031 135.351562 L 136.457031 135.351562 Z M 136.457031 141.34375 L 137.457031 141.34375 L 137.457031 139.347656 L 136.457031 139.347656 Z M 136.457031 145.351562 L 137.457031 145.351562 L 137.457031 143.351562 L 136.457031 143.351562 Z M 136.457031 149.34375 L 137.457031 149.34375 L 137.457031 147.347656 L 136.457031 147.347656 Z M 136.457031 153.351562 L 137.457031 153.351562 L 137.457031 151.351562 L 136.457031 151.351562 Z M 136.457031 156.519531 L 137.457031 156.519531 L 137.457031 155.347656 L 136.457031 155.347656 Z "/>
<path style=" stroke:none;fill-rule:nonzero;fill:rgb(13.729858%,12.159729%,12.548828%);fill-opacity:1;" d="M 133.695312 155.347656 L 135.695312 155.347656 L 135.695312 153.351562 L 133.695312 153.351562 Z M 137.699219 155.347656 L 139.699219 155.347656 L 139.699219 153.351562 L 137.699219 153.351562 Z M 141.695312 155.347656 L 143.695312 155.347656 L 143.695312 153.351562 L 141.695312 153.351562 Z M 145.691406 155.347656 L 147.699219 155.347656 L 147.699219 153.351562 L 145.691406 153.351562 Z M 149.695312 155.347656 L 151.695312 155.347656 L 151.695312 153.351562 L 149.695312 153.351562 Z M 153.695312 155.347656 L 155.699219 155.347656 L 155.699219 153.351562 L 153.695312 153.351562 Z M 157.699219 155.347656 L 159.695312 155.347656 L 159.695312 153.351562 L 157.699219 153.351562 Z M 161.695312 155.347656 L 163.691406 155.347656 L 163.691406 153.351562 L 161.695312 153.351562 Z M 165.699219 155.347656 L 167.695312 155.347656 L 167.695312 153.351562 L 165.699219 153.351562 Z M 169.695312 155.347656 L 171.695312 155.347656 L 171.695312 153.351562 L 169.695312 153.351562 Z M 173.699219 155.347656 L 175.699219 155.347656 L 175.699219 153.351562 L 173.699219 153.351562 Z M 177.695312 155.347656 L 179.695312 155.347656 L 179.695312 153.351562 L 177.695312 153.351562 Z M 181.691406 155.347656 L 183.699219 155.347656 L 183.699219 153.351562 L 181.691406 153.351562 Z M 185.695312 155.347656 L 187.695312 155.347656 L 187.695312 153.351562 L 185.695312 153.351562 Z M 189.695312 155.347656 L 191.699219 155.347656 L 191.699219 153.351562 L 189.695312 153.351562 Z M 193.699219 155.347656 L 195.695312 155.347656 L 195.695312 153.351562 L 193.699219 153.351562 Z M 197.695312 155.347656 L 199.691406 155.347656 L 199.691406 153.351562 L 197.695312 153.351562 Z M 201.699219 155.347656 L 203.695312 155.347656 L 203.695312 153.351562 L 201.699219 153.351562 Z M 205.695312 155.347656 L 207.695312 155.347656 L 207.695312 153.351562 L 205.695312 153.351562 Z M 209.699219 155.347656 L 210.871094 155.347656 L 210.871094 153.351562 L 209.699219 153.351562 Z "/>
<path style=" stroke:none;fill-rule:nonzero;fill:rgb(13.729858%,12.159729%,12.548828%);fill-opacity:1;" d="M 209.871094 156.347656 L 211.867188 156.347656 L 211.867188 154.351562 L 209.871094 154.351562 Z M 209.871094 160.34375 L 211.867188 160.34375 L 211.867188 158.34375 L 209.871094 158.34375 Z M 209.871094 164.347656 L 211.867188 164.347656 L 211.867188 162.351562 L 209.871094 162.351562 Z M 209.871094 168.34375 L 211.867188 168.34375 L 211.867188 166.347656 L 209.871094 166.347656 Z M 209.871094 172.347656 L 211.867188 172.347656 L 211.867188 170.351562 L 209.871094 170.351562 Z M 209.871094 176.34375 L 211.867188 176.34375 L 211.867188 174.347656 L 209.871094 174.347656 Z M 209.871094 180.351562 L 211.867188 180.351562 L 211.867188 178.34375 L 209.871094 178.34375 Z M 209.871094 184.347656 L 211.867188 184.347656 L 211.867188 182.347656 L 209.871094 182.347656 Z M 209.871094 188.351562 L 211.867188 188.351562 L 211.867188 186.34375 L 209.871094 186.34375 Z M 209.871094 192.347656 L 211.867188 192.347656 L 211.867188 190.347656 L 209.871094 190.347656 Z M 209.871094 196.34375 L 211.867188 196.34375 L 211.867188 194.34375 L 209.871094 194.34375 Z M 209.871094 200.347656 L 211.867188 200.347656 L 211.867188 198.351562 L 209.871094 198.351562 Z M 209.871094 204.34375 L 211.867188 204.34375 L 211.867188 202.347656 L 209.871094 202.347656 Z M 209.871094 208.347656 L 211.867188 208.347656 L 211.867188 206.351562 L 209.871094 206.351562 Z M 209.871094 212.34375 L 211.867188 212.34375 L 211.867188 210.347656 L 209.871094 210.347656 Z M 209.871094 216.351562 L 211.867188 216.351562 L 211.867188 214.34375 L 209.871094 214.34375 Z M 209.871094 220.347656 L 211.867188 220.347656 L 211.867188 218.347656 L 209.871094 218.347656 Z M 209.871094 224.351562 L 211.867188 224.351562 L 211.867188 222.34375 L 209.871094 222.34375 Z M 209.871094 228.347656 L 211.867188 228.347656 L 211.867188 226.347656 L 209.871094 226.347656 Z M 209.871094 231.523438 L 211.867188 231.523438 L 211.867188 230.34375 L 209.871094 230.34375 Z "/>
<path style=" stroke:none;fill-rule:nonzero;fill:rgb(13.729858%,12.159729%,12.548828%);fill-opacity:1;" d="M 213.632812 157.4375 L 214.632812 157.4375 L 214.632812 155.4375 L 213.632812 155.4375 Z M 213.632812 161.433594 L 214.632812 161.433594 L 214.632812 159.433594 L 213.632812 159.433594 Z M 213.632812 165.4375 L 214.632812 165.4375 L 214.632812 163.429688 L 213.632812 163.429688 Z M 213.632812 169.433594 L 214.632812 169.433594 L 214.632812 167.4375 L 213.632812 167.4375 Z M 213.632812 173.4375 L 214.632812 173.4375 L 214.632812 171.429688 L 213.632812 171.429688 Z M 213.632812 177.433594 L 214.632812 177.433594 L 214.632812 175.4375 L 213.632812 175.4375 Z M 213.632812 181.429688 L 214.632812 181.429688 L 214.632812 179.433594 L 213.632812 179.433594 Z M 213.632812 185.4375 L 214.632812 185.4375 L 214.632812 183.4375 L 213.632812 183.4375 Z M 213.632812 189.429688 L 214.632812 189.429688 L 214.632812 187.433594 L 213.632812 187.433594 Z M 213.632812 193.4375 L 214.632812 193.4375 L 214.632812 191.4375 L 213.632812 191.4375 Z M 213.632812 197.433594 L 214.632812 197.433594 L 214.632812 195.433594 L 213.632812 195.433594 Z M 213.632812 201.4375 L 214.632812 201.4375 L 214.632812 199.429688 L 213.632812 199.429688 Z M 213.632812 205.433594 L 214.632812 205.433594 L 214.632812 203.4375 L 213.632812 203.4375 Z M 213.632812 209.4375 L 214.632812 209.4375 L 214.632812 207.429688 L 213.632812 207.429688 Z M 213.632812 213.433594 L 214.632812 213.433594 L 214.632812 211.4375 L 213.632812 211.4375 Z M 213.632812 217.429688 L 214.632812 217.429688 L 214.632812 215.433594 L 213.632812 215.433594 Z M 213.632812 221.433594 L 214.632812 221.433594 L 214.632812 219.4375 L 213.632812 219.4375 Z M 213.632812 225.429688 L 214.632812 225.429688 L 214.632812 223.433594 L 213.632812 223.433594 Z M 213.632812 229.4375 L 214.632812 229.4375 L 214.632812 227.4375 L 213.632812 227.4375 Z M 213.632812 232.605469 L 214.632812 232.605469 L 214.632812 231.433594 L 213.632812 231.433594 Z "/>
<path style=" stroke:none;fill-rule:nonzero;fill:rgb(13.729858%,12.159729%,12.548828%);fill-opacity:1;" d="M 210.871094 232.523438 L 212.867188 232.523438 L 212.867188 230.527344 L 210.871094 230.527344 Z M 214.867188 232.523438 L 216.871094 232.523438 L 216.871094 230.527344 L 214.867188 230.527344 Z M 218.871094 232.523438 L 220.867188 232.523438 L 220.867188 230.527344 L 218.871094 230.527344 Z M 222.867188 232.523438 L 224.863281 232.523438 L 224.863281 230.527344 L 222.867188 230.527344 Z M 226.871094 232.523438 L 228.871094 232.523438 L 228.871094 230.527344 L 226.871094 230.527344 Z M 230.867188 232.523438 L 232.867188 232.523438 L 232.867188 230.527344 L 230.867188 230.527344 Z M 234.871094 232.523438 L 236.871094 232.523438 L 236.871094 230.527344 L 234.871094 230.527344 Z M 238.867188 232.523438 L 240.867188 232.523438 L 240.867188 230.527344 L 238.867188 230.527344 Z M 242.863281 232.523438 L 244.871094 232.523438 L 244.871094 230.527344 L 242.863281 230.527344 Z M 246.871094 232.523438 L 248.867188 232.523438 L 248.867188 230.527344 L 246.871094 230.527344 Z M 250.867188 232.523438 L 252.871094 232.523438 L 252.871094 230.527344 L 250.867188 230.527344 Z M 254.871094 232.523438 L 256.867188 232.523438 L 256.867188 230.527344 L 254.871094 230.527344 Z M 258.867188 232.523438 L 260.863281 232.523438 L 260.863281 230.527344 L 258.867188 230.527344 Z M 262.871094 232.523438 L 264.871094 232.523438 L 264.871094 230.527344 L 262.871094 230.527344 Z M 266.867188 232.523438 L 268.867188 232.523438 L 268.867188 230.527344 L 266.867188 230.527344 Z M 270.875 232.523438 L 272.871094 232.523438 L 272.871094 230.527344 L 270.875 230.527344 Z M 274.871094 232.523438 L 276.867188 232.523438 L 276.867188 230.527344 L 274.871094 230.527344 Z M 278.867188 232.523438 L 280.871094 232.523438 L 280.871094 230.527344 L 278.867188 230.527344 Z M 282.871094 232.523438 L 284.867188 232.523438 L 284.867188 230.527344 L 282.871094 230.527344 Z M 286.867188 232.523438 L 288.046875 232.523438 L 288.046875 230.527344 L 286.867188 230.527344 Z "/>
<path style=" stroke:none;fill-rule:nonzero;fill:rgb(13.729858%,12.159729%,12.548828%);fill-opacity:1;" d="M 287.046875 233.523438 L 289.042969 233.523438 L 289.042969 231.523438 L 287.046875 231.523438 Z M 287.046875 237.519531 L 289.042969 237.519531 L 289.042969 235.519531 L 287.046875 235.519531 Z M 287.046875 241.523438 L 289.042969 241.523438 L 289.042969 239.527344 L 287.046875 239.527344 Z M 287.046875 245.519531 L 289.042969 245.519531 L 289.042969 243.523438 L 287.046875 243.523438 Z M 287.046875 249.523438 L 289.042969 249.523438 L 289.042969 247.515625 L 287.046875 247.515625 Z M 287.046875 253.519531 L 289.042969 253.519531 L 289.042969 251.523438 L 287.046875 251.523438 Z M 287.046875 257.523438 L 289.042969 257.523438 L 289.042969 255.519531 L 287.046875 255.519531 Z M 287.046875 261.519531 L 289.042969 261.519531 L 289.042969 259.523438 L 287.046875 259.523438 Z M 287.046875 265.519531 L 289.042969 265.519531 L 289.042969 263.519531 L 287.046875 263.519531 Z M 287.046875 269.523438 L 289.042969 269.523438 L 289.042969 267.523438 L 287.046875 267.523438 Z M 287.046875 273.519531 L 289.042969 273.519531 L 289.042969 271.519531 L 287.046875 271.519531 Z M 287.046875 277.523438 L 289.042969 277.523438 L 289.042969 275.523438 L 287.046875 275.523438 Z M 287.046875 281.519531 L 289.042969 281.519531 L 289.042969 279.523438 L 287.046875 279.523438 Z M 287.046875 285.523438 L 289.042969 285.523438 L 289.042969 283.519531 L 287.046875 283.519531 Z M 287.046875 289.519531 L 289.042969 289.519531 L 289.042969 287.523438 L 287.046875 287.523438 Z M 287.046875 293.523438 L 289.042969 293.523438 L 289.042969 291.519531 L 287.046875 291.519531 Z M 287.046875 297.523438 L 289.042969 297.523438 L 289.042969 295.523438 L 287.046875 295.523438 Z M 287.046875 301.519531 L 289.042969 301.519531 L 289.042969 299.519531 L 287.046875 299.519531 Z M 287.046875 305.523438 L 289.042969 305.523438 L 289.042969 303.523438 L 287.046875 303.523438 Z M 287.046875 308.699219 L 289.042969 308.699219 L 289.042969 307.519531 L 287.046875 307.519531 Z "/>
<path style=" stroke:none;fill-rule:nonzero;fill:rgb(13.729858%,12.159729%,12.548828%);fill-opacity:1;" d="M 290.808594 238.957031 L 291.808594 238.957031 L 291.808594 236.953125 L 290.808594 236.953125 Z M 290.808594 242.953125 L 291.808594 242.953125 L 291.808594 240.957031 L 290.808594 240.957031 Z M 290.808594 246.960938 L 291.808594 246.960938 L 291.808594 244.953125 L 290.808594 244.953125 Z M 290.808594 250.953125 L 291.808594 250.953125 L 291.808594 248.957031 L 290.808594 248.957031 Z M 290.808594 254.953125 L 291.808594 254.953125 L 291.808594 252.953125 L 290.808594 252.953125 Z M 290.808594 258.957031 L 291.808594 258.957031 L 291.808594 256.957031 L 290.808594 256.957031 Z M 290.808594 262.953125 L 291.808594 262.953125 L 291.808594 260.953125 L 290.808594 260.953125 Z M 290.808594 266.957031 L 291.808594 266.957031 L 291.808594 264.960938 L 290.808594 264.960938 Z M 290.808594 270.953125 L 291.808594 270.953125 L 291.808594 268.957031 L 290.808594 268.957031 Z M 290.808594 274.957031 L 291.808594 274.957031 L 291.808594 272.949219 L 290.808594 272.949219 Z M 290.808594 278.953125 L 291.808594 278.953125 L 291.808594 276.957031 L 290.808594 276.957031 Z M 290.808594 282.960938 L 291.808594 282.960938 L 291.808594 280.953125 L 290.808594 280.953125 Z M 290.808594 286.957031 L 291.808594 286.957031 L 291.808594 284.957031 L 290.808594 284.957031 Z M 290.808594 290.949219 L 291.808594 290.949219 L 291.808594 288.953125 L 290.808594 288.953125 Z M 290.808594 294.957031 L 291.808594 294.957031 L 291.808594 292.957031 L 290.808594 292.957031 Z M 290.808594 298.953125 L 291.808594 298.953125 L 291.808594 296.953125 L 290.808594 296.953125 Z M 290.808594 302.957031 L 291.808594 302.957031 L 291.808594 300.960938 L 290.808594 300.960938 Z M 290.808594 306.953125 L 291.808594 306.953125 L 291.808594 304.957031 L 290.808594 304.957031 Z M 290.808594 310.957031 L 291.808594 310.957031 L 291.808594 308.949219 L 290.808594 308.949219 Z M 290.808594 314.125 L 291.808594 314.125 L 291.808594 312.957031 L 290.808594 312.957031 Z "/>
<path style=" stroke:none;fill-rule:nonzero;fill:rgb(13.729858%,12.159729%,12.548828%);fill-opacity:1;" d="M 288.027344 308.773438 L 290.035156 308.816406 L 290.078125 306.816406 L 288.082031 306.773438 L 288.027344 308.773438 M 292.03125 308.871094 L 294.03125 308.914062 L 294.074219 306.917969 L 292.078125 306.863281 L 292.03125 308.871094 M 296.027344 308.960938 L 298.027344 309.015625 L 298.078125 307.015625 L 296.074219 306.960938 L 296.027344 308.960938 M 300.023438 309.058594 L 302.023438 309.113281 L 302.074219 307.113281 L 300.078125 307.0625 L 300.023438 309.058594 M 304.03125 309.15625 L 306.027344 309.210938 L 306.070312 307.207031 L 304.074219 307.160156 L 304.03125 309.15625 M 308.027344 309.257812 L 310.023438 309.300781 L 310.066406 307.304688 L 308.070312 307.261719 L 308.027344 309.257812 M 312.023438 309.355469 L 314.019531 309.402344 L 314.074219 307.402344 L 312.074219 307.359375 L 312.023438 309.355469 M 316.027344 309.457031 L 318.023438 309.5 L 318.070312 307.503906 L 316.070312 307.449219 L 316.027344 309.457031 M 320.023438 309.546875 L 322.019531 309.601562 L 322.066406 307.601562 L 320.066406 307.546875 L 320.023438 309.546875 M 324.019531 309.644531 L 326.015625 309.699219 L 326.070312 307.691406 L 324.070312 307.644531 L 324.019531 309.644531 M 328.015625 309.742188 L 330.023438 309.789062 L 330.066406 307.789062 L 328.066406 307.746094 L 328.015625 309.742188 M 332.019531 309.84375 L 334.019531 309.886719 L 334.0625 307.890625 L 332.0625 307.84375 L 332.019531 309.84375 M 336.015625 309.941406 L 338.015625 309.984375 L 338.066406 307.988281 L 336.070312 307.933594 L 336.015625 309.941406 M 340.011719 310.03125 L 342.019531 310.085938 L 342.0625 308.089844 L 340.066406 308.03125 L 340.011719 310.03125 M 344.015625 310.128906 L 346.015625 310.183594 L 346.058594 308.1875 L 344.0625 308.132812 L 344.015625 310.128906 M 348.011719 310.230469 L 350.011719 310.273438 L 350.0625 308.277344 L 348.058594 308.230469 L 348.011719 310.230469 M 352.007812 310.328125 L 354.015625 310.375 L 354.058594 308.375 L 352.0625 308.328125 L 352.007812 310.328125 M 356.015625 310.429688 L 358.011719 310.472656 L 358.054688 308.472656 L 356.058594 308.429688 L 356.015625 310.429688 M 360.011719 310.527344 L 362.007812 310.570312 L 362.0625 308.574219 L 360.054688 308.519531 L 360.011719 310.527344 M 364.003906 310.617188 L 364.097656 310.625 L 364.140625 308.617188 L 364.058594 308.617188 L 364.003906 310.617188 "/>
<path style=" stroke:none;fill-rule:nonzero;fill:rgb(13.729858%,12.159729%,12.548828%);fill-opacity:1;" d="M 60.109375 78.585938 L 98.152344 40.542969 L 95.328125 37.71875 L 57.285156 75.761719 L 60.109375 78.585938 "/>
<path style=" stroke:none;fill-rule:nonzero;fill:rgb(73.947144%,73.472595%,73.590088%);fill-opacity:1;" d="M 366.175781 349.003906 L 364.074219 349.003906 L 346.382812 331.1875 L 347.796875 329.777344 L 366.535156 348.640625 L 366.175781 349.003906 M 344.96875 329.765625 L 331.542969 316.25 L 331.542969 313.414062 L 346.382812 328.355469 L 344.96875 329.765625 M 330.542969 315.246094 L 328.578125 313.265625 L 328.550781 310.402344 L 330.542969 312.410156 L 330.542969 315.246094 M 326.554688 311.230469 L 325.007812 309.671875 L 326.015625 309.699219 L 326.066406 307.902344 L 326.527344 308.367188 L 326.554688 311.230469 M 324.042969 308.703125 L 289.042969 273.46875 L 289.042969 271.65625 L 290.058594 271.65625 L 291.347656 272.949219 L 290.808594 272.949219 L 290.808594 274.957031 L 291.808594 274.957031 L 291.808594 273.414062 L 325.851562 307.6875 L 324.070312 307.644531 L 324.042969 308.703125 M 288.066406 269.648438 L 285.25 269.648438 L 251 235.171875 L 251 232.523438 L 251.1875 232.523438 L 287.046875 268.621094 L 287.046875 269.523438 L 287.941406 269.523438 L 288.066406 269.648438 M 249.003906 233.160156 L 248.371094 232.523438 L 248.867188 232.523438 L 248.867188 230.527344 L 246.871094 230.527344 L 246.871094 231.015625 L 211.867188 195.78125 L 211.867188 194.480469 L 213.394531 194.480469 L 214.34375 195.433594 L 213.632812 195.433594 L 213.632812 197.433594 L 214.632812 197.433594 L 214.632812 195.726562 L 249.003906 230.324219 L 249.003906 233.160156 M 211.410156 192.480469 L 208.59375 192.480469 L 176.589844 160.265625 L 176.589844 157.429688 L 209.871094 190.933594 L 209.871094 192.347656 L 211.277344 192.347656 L 211.410156 192.480469 M 175.589844 159.257812 L 173.824219 157.484375 L 173.824219 155.347656 L 174.523438 155.347656 L 175.589844 156.421875 L 175.589844 159.257812 M 171.828125 155.472656 L 171.695312 155.335938 L 171.695312 153.351562 L 169.722656 153.351562 L 137.457031 120.871094 L 137.457031 119.347656 L 136.457031 119.347656 L 136.457031 119.863281 L 134.695312 118.089844 L 134.695312 117.171875 L 133.78125 117.171875 L 132.835938 116.214844 L 135.648438 116.214844 L 136.457031 117.03125 L 136.457031 117.351562 L 136.777344 117.351562 L 171.828125 152.636719 L 171.828125 155.472656 M 132.695312 114.21875 L 130.847656 114.21875 L 100.503906 83.671875 L 100.503906 80.835938 L 132.695312 113.242188 L 132.695312 114.21875 M 99.503906 82.664062 L 97.738281 80.890625 L 97.738281 78.054688 L 99.503906 79.828125 L 99.503906 82.664062 M 95.742188 78.878906 L 95.042969 78.171875 L 95.742188 78.171875 L 95.742188 78.878906 M 94.699219 77.824219 L 77.839844 60.855469 L 79.253906 59.445312 L 95.742188 76.042969 L 95.742188 76.175781 L 94.699219 76.175781 L 94.699219 77.824219 "/>
<path style=" stroke:none;fill-rule:nonzero;fill:rgb(55.656433%,54.850769%,55.050659%);fill-opacity:1;" d="M 365.121094 350.054688 L 364.074219 349.003906 L 366.175781 349.003906 L 365.121094 350.054688 "/>
<path style=" stroke:none;fill-rule:nonzero;fill:rgb(55.656433%,54.850769%,55.050659%);fill-opacity:1;" d="M 346.382812 331.1875 L 344.96875 329.765625 L 346.382812 328.355469 L 347.796875 329.777344 L 346.382812 331.1875 "/>
<path style=" stroke:none;fill-rule:nonzero;fill:rgb(13.729858%,12.159729%,12.548828%);fill-opacity:1;" d="M 328.578125 313.265625 L 326.554688 311.230469 L 326.527344 308.367188 L 328.550781 310.402344 L 328.578125 313.265625 "/>
<path style=" stroke:none;fill-rule:nonzero;fill:rgb(13.729858%,12.159729%,12.548828%);fill-opacity:1;" d="M 331.542969 316.25 L 330.542969 315.246094 L 330.542969 312.410156 L 331.542969 313.414062 L 331.542969 316.25 "/>
<path style=" stroke:none;fill-rule:nonzero;fill:rgb(13.729858%,12.159729%,12.548828%);fill-opacity:1;" d="M 290.058594 271.65625 L 289.042969 271.65625 L 289.042969 271.519531 L 287.109375 271.519531 L 285.25 269.648438 L 288.066406 269.648438 L 290.058594 271.65625 "/>
<path style=" stroke:none;fill-rule:nonzero;fill:rgb(13.729858%,12.159729%,12.548828%);fill-opacity:1;" d="M 251 235.171875 L 249.003906 233.160156 L 249.003906 230.324219 L 250.867188 232.203125 L 250.867188 232.523438 L 251 232.523438 L 251 235.171875 "/>
<path style=" stroke:none;fill-rule:nonzero;fill:rgb(13.729858%,12.159729%,12.548828%);fill-opacity:1;" d="M 213.394531 194.480469 L 211.867188 194.480469 L 211.867188 194.34375 L 210.445312 194.34375 L 208.59375 192.480469 L 211.410156 192.480469 L 213.394531 194.480469 "/>
<path style=" stroke:none;fill-rule:nonzero;fill:rgb(13.729858%,12.159729%,12.548828%);fill-opacity:1;" d="M 173.824219 157.484375 L 171.828125 155.472656 L 171.828125 152.636719 L 173.699219 154.519531 L 173.699219 155.347656 L 173.824219 155.347656 L 173.824219 157.484375 "/>
<path style=" stroke:none;fill-rule:nonzero;fill:rgb(13.729858%,12.159729%,12.548828%);fill-opacity:1;" d="M 176.589844 160.265625 L 175.589844 159.257812 L 175.589844 156.421875 L 176.589844 157.429688 L 176.589844 160.265625 "/>
<path style=" stroke:none;fill-rule:nonzero;fill:rgb(13.729858%,12.159729%,12.548828%);fill-opacity:1;" d="M 135.648438 116.214844 L 132.835938 116.214844 L 130.847656 114.21875 L 132.695312 114.21875 L 132.695312 115.171875 L 134.613281 115.171875 L 135.648438 116.214844 "/>
<path style=" stroke:none;fill-rule:nonzero;fill:rgb(13.729858%,12.159729%,12.548828%);fill-opacity:1;" d="M 97.738281 80.890625 L 95.742188 78.878906 L 95.742188 78.171875 L 96.695312 78.171875 L 96.695312 77.003906 L 97.738281 78.054688 L 97.738281 80.890625 M 95.875 76.175781 L 95.742188 76.175781 L 95.742188 76.042969 L 95.875 76.175781 "/>
<path style=" stroke:none;fill-rule:nonzero;fill:rgb(13.729858%,12.159729%,12.548828%);fill-opacity:1;" d="M 100.503906 83.671875 L 99.503906 82.664062 L 99.503906 79.828125 L 100.503906 80.835938 L 100.503906 83.671875 "/>
<path style=" stroke:none;fill-rule:nonzero;fill:rgb(13.729858%,12.159729%,12.548828%);fill-opacity:1;" d="M 96.695312 78.171875 L 95.042969 78.171875 L 94.699219 77.824219 L 94.699219 76.175781 L 95.875 76.175781 L 96.695312 77.003906 L 96.695312 78.171875 "/>
<path style=" stroke:none;fill-rule:nonzero;fill:rgb(13.729858%,12.159729%,12.548828%);fill-opacity:1;" d="M 134.695312 118.089844 L 133.78125 117.171875 L 134.695312 117.171875 L 134.695312 118.089844 M 134.613281 115.171875 L 132.695312 115.171875 L 132.695312 113.242188 L 134.613281 115.171875 "/>
<path style=" stroke:none;fill-rule:nonzero;fill:rgb(13.729858%,12.159729%,12.548828%);fill-opacity:1;" d="M 137.457031 120.871094 L 136.457031 119.863281 L 136.457031 119.347656 L 137.457031 119.347656 L 137.457031 120.871094 M 136.777344 117.351562 L 136.457031 117.351562 L 136.457031 117.03125 L 136.777344 117.351562 "/>
<path style=" stroke:none;fill-rule:nonzero;fill:rgb(13.729858%,12.159729%,12.548828%);fill-opacity:1;" d="M 174.523438 155.347656 L 173.699219 155.347656 L 173.699219 154.519531 L 174.523438 155.347656 M 171.695312 155.335938 L 169.722656 153.351562 L 171.695312 153.351562 L 171.695312 155.335938 "/>
<path style=" stroke:none;fill-rule:nonzero;fill:rgb(13.729858%,12.159729%,12.548828%);fill-opacity:1;" d="M 211.867188 195.78125 L 210.445312 194.34375 L 211.867188 194.34375 L 211.867188 195.78125 M 211.277344 192.347656 L 209.871094 192.347656 L 209.871094 190.933594 L 211.277344 192.347656 "/>
<path style=" stroke:none;fill-rule:nonzero;fill:rgb(13.729858%,12.159729%,12.548828%);fill-opacity:1;" d="M 214.632812 197.433594 L 213.632812 197.433594 L 213.632812 195.433594 L 214.34375 195.433594 L 214.632812 195.726562 L 214.632812 197.433594 "/>
<path style=" stroke:none;fill-rule:nonzero;fill:rgb(13.729858%,12.159729%,12.548828%);fill-opacity:1;" d="M 251.1875 232.523438 L 250.867188 232.523438 L 250.867188 232.203125 L 251.1875 232.523438 M 248.867188 232.523438 L 248.371094 232.523438 L 246.871094 231.015625 L 246.871094 230.527344 L 248.867188 230.527344 L 248.867188 232.523438 "/>
<path style=" stroke:none;fill-rule:nonzero;fill:rgb(13.729858%,12.159729%,12.548828%);fill-opacity:1;" d="M 289.042969 273.46875 L 287.109375 271.519531 L 289.042969 271.519531 L 289.042969 273.46875 M 287.941406 269.523438 L 287.046875 269.523438 L 287.046875 268.621094 L 287.941406 269.523438 "/>
<path style=" stroke:none;fill-rule:nonzero;fill:rgb(13.729858%,12.159729%,12.548828%);fill-opacity:1;" d="M 291.808594 274.957031 L 290.808594 274.957031 L 290.808594 272.949219 L 291.347656 272.949219 L 291.808594 273.414062 L 291.808594 274.957031 "/>
<path style=" stroke:none;fill-rule:nonzero;fill:rgb(13.729858%,12.159729%,12.548828%);fill-opacity:1;" d="M 326.015625 309.699219 L 325.007812 309.671875 L 324.042969 308.703125 L 324.070312 307.644531 L 325.851562 307.6875 L 326.066406 307.902344 L 326.015625 309.699219 "/>
<path style=" stroke:none;fill-rule:nonzero;fill:rgb(73.947144%,73.472595%,73.590088%);fill-opacity:1;" d="M 75.023438 58.023438 L 61.417969 44.324219 L 62.378906 44.324219 L 62.378906 42.457031 L 76.4375 56.609375 L 75.023438 58.023438 M 61.378906 44.285156 L 59.617188 42.511719 L 59.617188 41.238281 L 58.351562 41.238281 L 57.253906 40.128906 L 60.066406 40.128906 L 62.25 42.324219 L 61.371094 42.324219 L 61.378906 44.285156 M 57.609375 38.132812 L 55.265625 38.132812 L 40.113281 22.878906 L 41.535156 21.472656 L 57.609375 37.652344 L 57.609375 38.132812 "/>
<path style=" stroke:none;fill-rule:nonzero;fill:rgb(13.729858%,12.159729%,12.548828%);fill-opacity:1;" d="M 60.066406 40.128906 L 57.253906 40.128906 L 55.265625 38.132812 L 57.609375 38.132812 L 57.609375 39.238281 L 59.183594 39.238281 L 60.066406 40.128906 "/>
<path style=" stroke:none;fill-rule:nonzero;fill:rgb(13.729858%,12.159729%,12.548828%);fill-opacity:1;" d="M 59.617188 42.511719 L 58.351562 41.238281 L 59.617188 41.238281 L 59.617188 42.511719 M 59.183594 39.238281 L 57.609375 39.238281 L 57.609375 37.652344 L 59.183594 39.238281 "/>
<path style=" stroke:none;fill-rule:nonzero;fill:rgb(13.729858%,12.159729%,12.548828%);fill-opacity:1;" d="M 62.378906 44.324219 L 61.417969 44.324219 L 61.378906 44.285156 L 61.371094 42.324219 L 62.25 42.324219 L 62.378906 42.457031 L 62.378906 44.324219 "/>
<path style=" stroke:none;fill-rule:nonzero;fill:rgb(13.729858%,12.159729%,12.548828%);fill-opacity:1;" d="M 77.839844 60.855469 L 75.023438 58.023438 L 76.4375 56.609375 L 79.253906 59.445312 L 77.839844 60.855469 "/>
<path style=" stroke:none;fill-rule:nonzero;fill:rgb(13.729858%,12.159729%,12.548828%);fill-opacity:1;" d="M 253.371094 198.261719 L 254.371094 198.261719 L 254.371094 271.085938 L 253.371094 271.085938 Z "/>
</g>
</svg>
