<?xml version="1.0" encoding="UTF-8"?>
<svg xmlns="http://www.w3.org/2000/svg" xmlns:xlink="http://www.w3.org/1999/xlink" width="235pt" height="37pt" viewBox="0 0 235 37" version="1.2">
<defs>
<clipPath id="clip1">
  <path d="M 0 0.789062 L 234.457031 0.789062 L 234.457031 36.941406 L 0 36.941406 Z "/>
</clipPath>
</defs>
<g id="surface1">
<path style=" stroke:none;fill-rule:nonzero;fill:rgb(100%,100%,100%);fill-opacity:1;" d="M 233.457031 18.894531 C 233.457031 28.34375 181.421875 36 117.230469 36 C 53.035156 36 1 28.34375 1 18.894531 C 1 9.449219 53.035156 1.789062 117.230469 1.789062 C 181.421875 1.789062 233.457031 9.449219 233.457031 18.894531 "/>
<g clip-path="url(#clip1)" clip-rule="nonzero">
<path style="fill:none;stroke-width:2;stroke-linecap:butt;stroke-linejoin:miter;stroke:rgb(13.729858%,12.159729%,12.548828%);stroke-opacity:1;stroke-miterlimit:4;" d="M 233.457031 18.105469 C 233.457031 8.65625 181.421875 1 117.230469 1 C 53.035156 1 1 8.65625 1 18.105469 C 1 27.550781 53.035156 35.210938 117.230469 35.210938 C 181.421875 35.210938 233.457031 27.550781 233.457031 18.105469 Z " transform="matrix(1,0,0,-1,0,37)"/>
</g>
</g>
</svg>
