<?xml version="1.0" encoding="UTF-8"?>
<svg xmlns="http://www.w3.org/2000/svg" xmlns:xlink="http://www.w3.org/1999/xlink" width="263pt" height="94pt" viewBox="0 0 263 94" version="1.2">
<defs>
<clipPath id="clip1">
  <path d="M 0 0 L 263 0 L 263 93.941406 L 0 93.941406 Z "/>
</clipPath>
</defs>
<g id="surface1">
<path style="fill:none;stroke-width:1.5;stroke-linecap:butt;stroke-linejoin:miter;stroke:rgb(0%,0%,0%);stroke-opacity:1;stroke-miterlimit:4;" d="M 230.75 44.660156 C 230.75 62.632812 245.445312 77.203125 263.574219 77.203125 C 281.699219 77.203125 296.394531 62.632812 296.394531 44.660156 C 296.394531 26.683594 281.699219 12.113281 263.574219 12.113281 C 245.445312 12.113281 230.75 26.683594 230.75 44.660156 " transform="matrix(1,0,0,-1,-213,94)"/>
<path style=" stroke:none;fill-rule:nonzero;fill:rgb(0%,0%,0%);fill-opacity:1;" d="M 54.246094 49.839844 C 54.246094 51.375 52.945312 52.621094 51.34375 52.621094 C 49.738281 52.621094 48.4375 51.375 48.4375 49.839844 C 48.4375 48.308594 49.738281 47.0625 51.34375 47.0625 C 52.945312 47.0625 54.246094 48.308594 54.246094 49.839844 "/>
<path style="fill:none;stroke-width:1.5;stroke-linecap:butt;stroke-linejoin:miter;stroke:rgb(0%,0%,0%);stroke-opacity:1;stroke-miterlimit:4;" d="M 267.246094 44.160156 C 267.246094 42.625 265.945312 41.378906 264.34375 41.378906 C 262.738281 41.378906 261.4375 42.625 261.4375 44.160156 C 261.4375 45.691406 262.738281 46.9375 264.34375 46.9375 C 265.945312 46.9375 267.246094 45.691406 267.246094 44.160156 Z M 313.824219 46.957031 C 313.824219 64.667969 328.519531 79.023438 346.648438 79.023438 C 364.773438 79.023438 379.472656 64.667969 379.472656 46.957031 C 379.472656 29.25 364.773438 14.894531 346.648438 14.894531 C 328.519531 14.894531 313.824219 29.25 313.824219 46.957031 " transform="matrix(1,0,0,-1,-213,94)"/>
<path style=" stroke:none;fill-rule:nonzero;fill:rgb(0%,0%,0%);fill-opacity:1;" d="M 137.320312 48.140625 C 137.320312 49.675781 136.019531 50.917969 134.414062 50.917969 C 132.8125 50.917969 131.511719 49.675781 131.511719 48.140625 C 131.511719 46.605469 132.8125 45.363281 134.414062 45.363281 C 136.019531 45.363281 137.320312 46.605469 137.320312 48.140625 "/>
<path style="fill:none;stroke-width:1.5;stroke-linecap:butt;stroke-linejoin:miter;stroke:rgb(0%,0%,0%);stroke-opacity:1;stroke-miterlimit:4;" d="M 350.320312 45.859375 C 350.320312 44.324219 349.019531 43.082031 347.414062 43.082031 C 345.8125 43.082031 344.511719 44.324219 344.511719 45.859375 C 344.511719 47.394531 345.8125 48.636719 347.414062 48.636719 C 349.019531 48.636719 350.320312 47.394531 350.320312 45.859375 Z " transform="matrix(1,0,0,-1,-213,94)"/>
<g clip-path="url(#clip1)" clip-rule="nonzero">
<path style="fill:none;stroke-width:1.5;stroke-linecap:butt;stroke-linejoin:miter;stroke:rgb(0%,0%,0%);stroke-opacity:1;stroke-miterlimit:4;" d="M 262.464844 12.109375 L 262.464844 0 M 262.464844 88.027344 L 262.464844 76.355469 M 239.425781 21.382812 L 229.351562 11.003906 M 294.835938 78.691406 L 284.914062 68.214844 M 287.488281 20.859375 L 296.414062 11.890625 M 226.773438 74.46875 L 238.550781 65.65625 M 230.539062 41.25 L 215.992188 39.902344 M 307.777344 48.238281 L 295.632812 47.113281 M 379.273438 49.492188 L 392.015625 50.460938 M 301.96875 42.679688 L 314.175781 43.757812 M 349.785156 14.359375 L 350.347656 2.222656 M 338.730469 91.695312 L 341.128906 78.054688 M 372.484375 26.285156 L 383.300781 18.226562 M 307.195312 74.914062 L 319.859375 65.484375 M 324.855469 23.046875 L 316.492188 13.226562 M 377.164062 82.136719 L 367.3125 70.566406 M 410.511719 57.03125 C 410.511719 74.859375 425.207031 89.316406 443.335938 89.316406 C 461.460938 89.316406 476.15625 74.859375 476.15625 57.03125 C 476.15625 39.203125 461.460938 24.75 443.335938 24.75 C 425.207031 24.75 410.511719 39.203125 410.511719 57.03125 M 386.273438 54.492188 L 410.015625 56.460938 " transform="matrix(1,0,0,-1,-213,94)"/>
</g>
</g>
</svg>
