<?xml version="1.0" encoding="UTF-8"?>
<svg xmlns="http://www.w3.org/2000/svg" xmlns:xlink="http://www.w3.org/1999/xlink" width="129pt" height="44pt" viewBox="0 0 129 44" version="1.2">
<defs>
<clipPath id="clip1">
  <path d="M 8 12 L 128.960938 12 L 128.960938 32 L 8 32 Z "/>
</clipPath>
<clipPath id="clip2">
  <path d="M 0.0585938 20 L 4 20 L 4 24 L 0.0585938 24 Z "/>
</clipPath>
<clipPath id="clip3">
  <path d="M 0.0585938 0.253906 L 128.960938 0.253906 L 128.960938 44 L 0.0585938 44 Z "/>
</clipPath>
</defs>
<g id="surface1">
<g clip-path="url(#clip1)" clip-rule="nonzero">
<path style="fill:none;stroke-width:1.5;stroke-linecap:butt;stroke-linejoin:miter;stroke:rgb(13.729858%,12.159729%,12.548828%);stroke-opacity:1;stroke-miterlimit:4;" d="M 9.546875 30.734375 L 128.210938 30.734375 L 128.210938 13.066406 L 9.546875 13.066406 Z M 16.710938 26.066406 L 16.710938 18.734375 " transform="matrix(1,0,0,-1,0,44)"/>
</g>
<g clip-path="url(#clip2)" clip-rule="nonzero">
<path style=" stroke:none;fill-rule:nonzero;fill:rgb(13.729858%,12.159729%,12.548828%);fill-opacity:1;" d="M 3.75 21.878906 C 3.75 22.890625 3.078125 23.710938 2.25 23.710938 C 1.421875 23.710938 0.75 22.890625 0.75 21.878906 C 0.75 20.863281 1.421875 20.042969 2.25 20.042969 C 3.078125 20.042969 3.75 20.863281 3.75 21.878906 "/>
</g>
<g clip-path="url(#clip3)" clip-rule="nonzero">
<path style="fill:none;stroke-width:1.5;stroke-linecap:butt;stroke-linejoin:miter;stroke:rgb(13.729858%,12.159729%,12.548828%);stroke-opacity:1;stroke-miterlimit:4;" d="M 3.75 22.121094 C 3.75 21.109375 3.078125 20.289062 2.25 20.289062 C 1.421875 20.289062 0.75 21.109375 0.75 22.121094 C 0.75 23.136719 1.421875 23.957031 2.25 23.957031 C 3.078125 23.957031 3.75 23.136719 3.75 22.121094 Z M 2.75 22.121094 L 128.75 22.121094 M 34.25 43.621094 L 34.25 0.121094 M 33.75 43.121094 L 1.75 21.621094 M 34.25 0.621094 L 2.25 22.121094 " transform="matrix(1,0,0,-1,0,44)"/>
</g>
</g>
</svg>
