<?xml version="1.0" encoding="UTF-8"?>
<svg xmlns="http://www.w3.org/2000/svg" xmlns:xlink="http://www.w3.org/1999/xlink" width="189pt" height="92pt" viewBox="0 0 189 92" version="1.2">
<defs>
<clipPath id="clip1">
  <path d="M 0.0585938 0 L 189 0 L 189 92 L 0.0585938 92 Z "/>
</clipPath>
</defs>
<g id="surface1">
<g clip-path="url(#clip1)" clip-rule="nonzero">
<path style="fill:none;stroke-width:2;stroke-linecap:butt;stroke-linejoin:miter;stroke:rgb(13.729858%,12.159729%,12.548828%);stroke-opacity:1;stroke-miterlimit:4;" d="M 0 91 L 188 91 M 112.921875 80 C 112.921875 74.519531 108.480469 70.078125 103 70.078125 C 97.519531 70.078125 93.078125 74.519531 93.078125 80 C 93.078125 85.480469 97.519531 89.921875 103 89.921875 C 108.480469 89.921875 112.921875 85.480469 112.921875 80 Z M 103 89 L 103 40 M 112.921875 30 C 112.921875 24.519531 108.480469 20.078125 103 20.078125 C 97.519531 20.078125 93.078125 24.519531 93.078125 30 C 93.078125 35.480469 97.519531 39.921875 103 39.921875 C 108.480469 39.921875 112.921875 35.480469 112.921875 30 Z M 72 1 L 189 1 " transform="matrix(1,0,0,-1,0,92)"/>
</g>
</g>
</svg>
