<svg xmlns="http://www.w3.org/2000/svg" xmlns:inkscape="http://www.inkscape.org/namespaces/inkscape" xmlns:svg="http://www.w3.org/2000/svg" xmlns:serif="http://www.serif.com/" xmlns:sodipodi="http://sodipodi.sourceforge.net/DTD/sodipodi-0.dtd" width="100%" height="100%" viewBox="0 0 240 219" version="1.1" xml:space="preserve" style="fill-rule:evenodd;clip-rule:evenodd;stroke-linejoin:bevel;" id="svg303" sodipodi:docname="Editorenzeichnung.svg" inkscape:version="1.1-alpha (17bc9184, 2021-03-28)"><defs id="defs307"/><sodipodi:namedview id="namedview305" pagecolor="#ffffff" bordercolor="#666666" borderopacity="1.0" objecttolerance="10.0" gridtolerance="10.0" guidetolerance="10.0" inkscape:pageshadow="2" inkscape:pageopacity="0.0" inkscape:pagecheckerboard="0" showgrid="false" inkscape:zoom="3.9863014" inkscape:cx="120.03608" inkscape:cy="109.5" inkscape:window-width="2059" inkscape:window-height="1293" inkscape:window-x="1222" inkscape:window-y="331" inkscape:window-maximized="0" inkscape:current-layer="svg303"/>
    <g id="Ebene-1" serif:id="Ebene 1" transform="matrix(1,0,0,1,-118.807,-89.0526)">
        <g id="path4561" transform="matrix(1,-0,-0,1,118.807,89.0526)">
        </g>
        <g id="path4586" transform="matrix(1,-0,-0,1,118.807,89.0526)">
        </g>
        <path id="path4592" d="M192.967,211.804C180.668,208.891 172.389,196.922 173.859,184.178C175.329,171.435 186.107,161.735 198.736,161.789C211.365,161.844 222.06,171.637 223.423,184.393C224.786,197.149 216.408,209.046 204.084,211.852" style="fill-opacity:0;fill-rule:nonzero;stroke:black;stroke-opacity:0.99;stroke-width:1px;stroke-linecap:round;"/>
        <path id="path4602" d="M141.589,89.191L141.589,247.739" style="fill:none;fill-rule:nonzero;stroke:black;stroke-width:1px;stroke-linejoin:miter;"/>
        <path id="path4604" d="M130.384,89.197L130.384,247.565" style="fill:none;fill-rule:nonzero;stroke:black;stroke-width:1px;stroke-linejoin:miter;"/>
        <g id="path4606" transform="matrix(-1,0,0,1,0,0)">
            <path d="M-130.386,247.477C-130.445,267.645 -147.083,284.199 -167.265,284.17C-187.446,284.14 -204.036,267.537 -204.036,247.369" style="fill:none;fill-rule:nonzero;stroke:black;stroke-opacity:0.99;stroke-width:1px;" id="path7"/>
        </g>
        <g id="path4608" transform="matrix(-1,0,0,1,0,0)">
            <path d="M-141.602,247.714C-141.602,256.776 -146.507,265.178 -154.444,269.709C-162.38,274.24 -172.19,274.24 -180.127,269.709C-188.064,265.178 -192.969,256.776 -192.969,247.714" style="fill:none;fill-rule:nonzero;stroke:black;stroke-opacity:0.99;stroke-width:1px;" id="path10"/>
        </g>
        <path id="path4620" d="M192.96,211.83L192.96,247.655" style="fill:none;fill-rule:nonzero;stroke:black;stroke-width:1px;stroke-linecap:round;stroke-linejoin:miter;"/>
        <path id="path4622" d="M204.038,211.892L204.038,247.746" style="fill:none;fill-rule:nonzero;stroke:black;stroke-width:1px;stroke-linecap:round;stroke-linejoin:miter;"/>
        <g transform="matrix(1,0,0,1,225.301,170.541)" id="g18">
            <g id="text4642">
                <text x="0px" y="0px" style="font-family:'MyriadPro-It', 'Myriad Pro', sans-serif;font-style:italic;font-size:14px;" id="text15">C</text>
            </g>
        </g>
        <g transform="matrix(1,0,0,1,118.401,138.651)" id="g23">
            <g id="text4670">
                <text x="0px" y="0px" style="font-family:'MyriadPro-It', 'Myriad Pro', sans-serif;font-style:italic;font-size:14px;" id="text20">k</text>
            </g>
        </g>
        <g transform="matrix(1,0,0,1,148.222,98.948)" id="g28">
            <g id="text4674">
                <text x="0px" y="0px" style="font-family:'MyriadPro-It', 'Myriad Pro', sans-serif;font-style:italic;font-size:14px;" id="text25">A</text>
            </g>
        </g>
        <g transform="matrix(1,0,0,1,349.298,188.894)" id="g33">
            <g id="text4678">
                <text x="0px" y="0px" style="font-family:'MyriadPro-It', 'Myriad Pro', sans-serif;font-style:italic;font-size:14px;" id="text30">D</text>
            </g>
        </g>
        <g transform="matrix(1,0,0,1,290.066,98.8409)" id="g38">
            <g id="text4694">
                <text x="0px" y="0px" style="font-family:'MyriadPro-It', 'Myriad Pro', sans-serif;font-style:italic;font-size:14px;" id="text35">B</text>
            </g>
        </g>
        <path id="path1402" d="M129.887,195.264L142.089,195.264" style="fill:none;fill-rule:nonzero;stroke:black;stroke-width:1px;stroke-linejoin:miter;"/>
        <g id="path1441" transform="matrix(1,-0,-0,1,118.807,89.0526)">
        </g>
        <g id="path1443" transform="matrix(1,-0,-0,1,118.807,89.0526)">
        </g>
        <path id="path1445" d="M324.527,226.311C314.687,223.98 308.065,214.405 309.241,204.21C310.417,194.015 319.039,186.255 329.142,186.299C339.245,186.343 347.802,194.177 348.892,204.382C349.982,214.587 343.28,224.104 333.421,226.349" style="fill-opacity:0;fill-rule:nonzero;stroke:black;stroke-opacity:0.99;stroke-width:1px;stroke-linecap:round;"/>
        <path id="path1447" d="M283.424,89.055L283.424,255.058" style="fill:none;fill-rule:nonzero;stroke:black;stroke-width:1px;stroke-linejoin:miter;"/>
        <path id="path1449" d="M274.46,89.053L274.46,254.919" style="fill:none;fill-rule:nonzero;stroke:black;stroke-width:1px;stroke-linejoin:miter;"/>
        <g id="path1451" transform="matrix(-1,0,0,1,0,0)">
            <path d="M-274.472,254.763C-274.472,265.268 -280.097,275.006 -289.199,280.259C-298.301,285.511 -309.552,285.511 -318.654,280.259C-327.757,275.006 -333.382,265.268 -333.382,254.763" style="fill:none;fill-rule:nonzero;stroke:black;stroke-opacity:0.99;stroke-width:1px;" id="path46"/>
        </g>
        <g id="path1453" transform="matrix(-1,0,0,1,0,0)">
            <path d="M-283.432,255.036C-283.432,262.413 -287.356,269.252 -293.706,272.941C-300.055,276.629 -307.903,276.629 -314.252,272.941C-320.601,269.252 -324.525,262.413 -324.525,255.036" style="fill:none;fill-rule:nonzero;stroke:black;stroke-opacity:0.99;stroke-width:1px;" id="path49"/>
        </g>
        <path id="path1455" d="M324.522,226.332L324.522,254.991" style="fill:none;fill-rule:nonzero;stroke:black;stroke-width:1px;stroke-linecap:round;stroke-linejoin:miter;"/>
        <path id="path1457" d="M333.384,226.381L333.384,255.064" style="fill:none;fill-rule:nonzero;stroke:black;stroke-width:1px;stroke-linecap:round;stroke-linejoin:miter;"/>
        <path id="path1459" d="M174.905,195.264L222.127,195.264" style="fill:none;fill-rule:nonzero;stroke:black;stroke-width:1px;stroke-linejoin:miter;"/>
        <path id="path1461" d="M173.714,183.896L223.186,183.896" style="fill:none;fill-rule:nonzero;stroke:black;stroke-width:1px;stroke-linejoin:miter;"/>
        <g id="g2010" transform="matrix(1,0,0,1,0,1.12454)">
            <g id="g2005">
                <path id="path1465" d="M129.887,154.431L142.089,154.431" style="fill:none;fill-rule:nonzero;stroke:black;stroke-width:1px;stroke-linejoin:miter;"/>
                <path id="path1467" d="M129.887,137.261L142.089,137.261" style="fill:none;fill-rule:nonzero;stroke:black;stroke-width:1px;stroke-linejoin:miter;"/>
            </g>
        </g>
        <path id="path1469" d="M274.412,213.761L283.52,213.761" style="fill:none;fill-rule:nonzero;stroke:black;stroke-width:1px;stroke-linejoin:miter;"/>
        <path id="path1471" d="M310.243,213.714L347.784,213.714" style="fill:none;fill-rule:nonzero;stroke:black;stroke-width:1px;stroke-linejoin:miter;"/>
        <path id="path1477" d="M309.516,202.394L348.652,202.394" style="fill:none;fill-rule:nonzero;stroke:black;stroke-width:1px;stroke-linejoin:miter;"/>
        <path id="path1479" d="M274.412,174.057L283.52,174.057" style="fill:none;fill-rule:nonzero;stroke:black;stroke-width:1px;stroke-linejoin:miter;"/>
        <path id="path1481" d="M274.412,156.887L283.52,156.887" style="fill:none;fill-rule:nonzero;stroke:black;stroke-width:1px;stroke-linejoin:miter;"/>
        <path id="path1544" d="M274.412,128.73L283.52,128.73" style="fill:none;fill-rule:nonzero;stroke:black;stroke-width:1px;stroke-linejoin:miter;"/>
        <path id="path1546" d="M274.412,111.56L283.52,111.56" style="fill:none;fill-rule:nonzero;stroke:black;stroke-width:1px;stroke-linejoin:miter;"/>
        <path id="path1548" d="M311.754,196.385L346.248,196.385" style="fill:none;fill-rule:nonzero;stroke:black;stroke-width:1px;stroke-linejoin:miter;"/>
        <path id="path1619" d="M129.887,200.904L142.089,200.904" style="fill:none;fill-rule:nonzero;stroke:black;stroke-width:0.2px;stroke-linejoin:miter;"/>
        <path id="path1621" d="M129.887,198.056L142.089,198.056" style="fill:none;fill-rule:nonzero;stroke:black;stroke-width:0.2px;stroke-linejoin:miter;"/>
        <path id="path1623" d="M129.887,206.609L142.089,206.609" style="fill:none;fill-rule:nonzero;stroke:black;stroke-width:0.2px;stroke-linejoin:miter;"/>
        <path id="path1625" d="M129.887,203.761L142.089,203.761" style="fill:none;fill-rule:nonzero;stroke:black;stroke-width:0.2px;stroke-linejoin:miter;"/>
        <path id="path1627" d="M129.887,212.25L142.089,212.25" style="fill:none;fill-rule:nonzero;stroke:black;stroke-width:0.2px;stroke-linejoin:miter;"/>
        <path id="path1629" d="M129.887,209.402L142.089,209.402" style="fill:none;fill-rule:nonzero;stroke:black;stroke-width:0.2px;stroke-linejoin:miter;"/>
        <path id="path1631" d="M129.887,217.955L142.089,217.955" style="fill:none;fill-rule:nonzero;stroke:black;stroke-width:0.2px;stroke-linejoin:miter;"/>
        <path id="path1633" d="M129.887,215.107L142.089,215.107" style="fill:none;fill-rule:nonzero;stroke:black;stroke-width:0.2px;stroke-linejoin:miter;"/>
        <path id="path1635" d="M129.887,223.565L142.089,223.565" style="fill:none;fill-rule:nonzero;stroke:black;stroke-width:0.2px;stroke-linejoin:miter;"/>
        <path id="path1637" d="M129.887,220.717L142.089,220.717" style="fill:none;fill-rule:nonzero;stroke:black;stroke-width:0.2px;stroke-linejoin:miter;"/>
        <path id="path1639" d="M129.887,229.269L142.089,229.269" style="fill:none;fill-rule:nonzero;stroke:black;stroke-width:0.2px;stroke-linejoin:miter;"/>
        <path id="path1641" d="M129.887,226.421L142.089,226.421" style="fill:none;fill-rule:nonzero;stroke:black;stroke-width:0.2px;stroke-linejoin:miter;"/>
        <path id="path1643" d="M129.887,234.91L142.089,234.91" style="fill:none;fill-rule:nonzero;stroke:black;stroke-width:0.2px;stroke-linejoin:miter;"/>
        <path id="path1645" d="M129.887,232.062L142.089,232.062" style="fill:none;fill-rule:nonzero;stroke:black;stroke-width:0.2px;stroke-linejoin:miter;"/>
        <path id="path1647" d="M129.887,240.615L142.089,240.615" style="fill:none;fill-rule:nonzero;stroke:black;stroke-width:0.2px;stroke-linejoin:miter;"/>
        <path id="path1649" d="M129.887,237.767L142.089,237.767" style="fill:none;fill-rule:nonzero;stroke:black;stroke-width:0.2px;stroke-linejoin:miter;"/>
        <path id="path1651" d="M129.887,246.272L142.089,246.272" style="fill:none;fill-rule:nonzero;stroke:black;stroke-width:0.2px;stroke-linejoin:miter;"/>
        <path id="path1653" d="M129.887,243.424L142.089,243.424" style="fill:none;fill-rule:nonzero;stroke:black;stroke-width:0.2px;stroke-linejoin:miter;"/>
        <path id="path1655" d="M130.195,251.955L142.396,251.955" style="fill:none;fill-rule:nonzero;stroke:black;stroke-width:0.2px;stroke-linejoin:miter;"/>
        <path id="path1657" d="M129.975,249.107L142.001,249.107" style="fill:none;fill-rule:nonzero;stroke:black;stroke-width:0.2px;stroke-linejoin:miter;"/>
        <path id="path1659" d="M177.498,200.904L219.419,200.904" style="fill:none;fill-rule:nonzero;stroke:black;stroke-width:0.2px;stroke-linejoin:miter;"/>
        <path id="path1661" d="M176.049,198.056L221.088,198.056" style="fill:none;fill-rule:nonzero;stroke:black;stroke-width:0.2px;stroke-linejoin:miter;"/>
        <path id="path1663" d="M182.283,206.455L214.634,206.455" style="fill:none;fill-rule:nonzero;stroke:black;stroke-width:0.2px;stroke-linejoin:miter;"/>
        <path id="path1665" d="M179.473,203.761L217.532,203.761" style="fill:none;fill-rule:nonzero;stroke:black;stroke-width:0.2px;stroke-linejoin:miter;"/>
        <path id="path1667" d="M192.812,212.25L204.004,212.25" style="fill:none;fill-rule:nonzero;stroke:black;stroke-width:0.2px;stroke-linejoin:miter;"/>
        <path id="path1669" d="M186.936,209.38L209.893,209.38" style="fill:none;fill-rule:nonzero;stroke:black;stroke-width:0.2px;stroke-linejoin:miter;"/>
        <path id="path1671" d="M192.952,217.955L204.066,217.955" style="fill:none;fill-rule:nonzero;stroke:black;stroke-width:0.2px;stroke-linejoin:miter;"/>
        <path id="path1673" d="M192.905,215.107L204.066,215.107" style="fill:none;fill-rule:nonzero;stroke:black;stroke-width:0.2px;stroke-linejoin:miter;"/>
        <path id="path1675" d="M192.936,223.565L204.02,223.565" style="fill:none;fill-rule:nonzero;stroke:black;stroke-width:0.2px;stroke-linejoin:miter;"/>
        <path id="path1677" d="M192.905,220.717L204.082,220.717" style="fill:none;fill-rule:nonzero;stroke:black;stroke-width:0.2px;stroke-linejoin:miter;"/>
        <path id="path1679" d="M192.796,229.269L204.004,229.269" style="fill:none;fill-rule:nonzero;stroke:black;stroke-width:0.2px;stroke-linejoin:miter;"/>
        <path id="path1681" d="M192.889,226.421L204.004,226.421" style="fill:none;fill-rule:nonzero;stroke:black;stroke-width:0.2px;stroke-linejoin:miter;"/>
        <path id="path1683" d="M192.936,234.91L204.02,234.91" style="fill:none;fill-rule:nonzero;stroke:black;stroke-width:0.2px;stroke-linejoin:miter;"/>
        <path id="path1685" d="M192.905,232.062L204.066,232.062" style="fill:none;fill-rule:nonzero;stroke:black;stroke-width:0.2px;stroke-linejoin:miter;"/>
        <path id="path1687" d="M192.812,240.615L204.082,240.615" style="fill:none;fill-rule:nonzero;stroke:black;stroke-width:0.2px;stroke-linejoin:miter;"/>
        <path id="path1689" d="M192.936,237.767L204.02,237.767" style="fill:none;fill-rule:nonzero;stroke:black;stroke-width:0.2px;stroke-linejoin:miter;"/>
        <path id="path1691" d="M192.905,246.272L204.035,246.272" style="fill:none;fill-rule:nonzero;stroke:black;stroke-width:0.2px;stroke-linejoin:miter;"/>
        <path id="path1693" d="M192.75,243.408L204.439,243.408" style="fill:none;fill-rule:nonzero;stroke:black;stroke-width:0.2px;stroke-linejoin:miter;"/>
        <path id="path1695" d="M192.545,251.947L203.706,251.947" style="fill:none;fill-rule:nonzero;stroke:black;stroke-width:0.2px;stroke-linejoin:miter;"/>
        <path id="path1697" d="M192.884,249.107L204.041,249.107" style="fill:none;fill-rule:nonzero;stroke:black;stroke-width:0.2px;stroke-linejoin:miter;"/>
        <path id="path1798" d="M131.753,257.565L143.954,257.565" style="fill:none;fill-rule:nonzero;stroke:black;stroke-width:0.2px;stroke-linejoin:miter;"/>
        <path id="path1800" d="M130.787,254.717L142.989,254.717" style="fill:none;fill-rule:nonzero;stroke:black;stroke-width:0.2px;stroke-linejoin:miter;"/>
        <path id="path1802" d="M134.254,263.271L146.455,263.271" style="fill:none;fill-rule:nonzero;stroke:black;stroke-width:0.2px;stroke-linejoin:miter;"/>
        <path id="path1804" d="M132.916,260.358L145.118,260.358" style="fill:none;fill-rule:nonzero;stroke:black;stroke-width:0.2px;stroke-linejoin:miter;"/>
        <path id="path1806" d="M137.687,268.889L153.103,268.889" style="fill:none;fill-rule:nonzero;stroke:black;stroke-width:0.2px;stroke-linejoin:miter;"/>
        <path id="path1808" d="M135.557,266.128L149.345,266.128" style="fill:none;fill-rule:nonzero;stroke:black;stroke-width:0.2px;stroke-linejoin:miter;"/>
        <path id="path1810" d="M142.553,274.53L192.195,274.53" style="fill:none;fill-rule:nonzero;stroke:black;stroke-width:0.2px;stroke-linejoin:miter;"/>
        <path id="path1812" d="M139.555,271.719L158.708,271.719" style="fill:none;fill-rule:nonzero;stroke:black;stroke-width:0.2px;stroke-linejoin:miter;"/>
        <path id="path1814" d="M150.638,279.772L183.912,279.772" style="fill:none;fill-rule:nonzero;stroke:black;stroke-width:0.2px;stroke-linejoin:miter;"/>
        <path id="path1816" d="M145.726,277.119L188.666,277.119" style="fill:none;fill-rule:nonzero;stroke:black;stroke-width:0.2px;stroke-linejoin:miter;"/>
        <path id="path1818" d="M191.199,257.565L202.407,257.565" style="fill:none;fill-rule:nonzero;stroke:black;stroke-width:0.2px;stroke-linejoin:miter;"/>
        <path id="path1820" d="M192.091,254.717L203.206,254.717" style="fill:none;fill-rule:nonzero;stroke:black;stroke-width:0.2px;stroke-linejoin:miter;"/>
        <path id="path1822" d="M187.621,263.206L200.395,263.206" style="fill:none;fill-rule:nonzero;stroke:black;stroke-width:0.2px;stroke-linejoin:miter;"/>
        <path id="path1824" d="M190.171,260.358L201.332,260.358" style="fill:none;fill-rule:nonzero;stroke:black;stroke-width:0.2px;stroke-linejoin:miter;"/>
        <path id="path1826" d="M181.198,268.91L197.077,268.91" style="fill:none;fill-rule:nonzero;stroke:black;stroke-width:0.2px;stroke-linejoin:miter;"/>
        <path id="path1828" d="M185.04,266.062L198.705,266.062" style="fill:none;fill-rule:nonzero;stroke:black;stroke-width:0.2px;stroke-linejoin:miter;"/>
        <path id="path1832" d="M175.913,271.703L194.853,271.703" style="fill:none;fill-rule:nonzero;stroke:black;stroke-width:0.2px;stroke-linejoin:miter;"/>
        <path id="path1836" d="M157.038,282.312L177.862,282.312" style="fill:none;fill-rule:nonzero;stroke:black;stroke-width:0.2px;stroke-linejoin:miter;"/>
        <path id="path1838" d="M129.918,186.765L141.597,186.765" style="fill:none;fill-rule:nonzero;stroke:black;stroke-width:0.2px;stroke-linejoin:miter;"/>
        <path id="path1840" d="M129.918,183.917L141.751,183.917" style="fill:none;fill-rule:nonzero;stroke:black;stroke-width:0.2px;stroke-linejoin:miter;"/>
        <path id="path1842" d="M129.918,192.47L141.628,192.47" style="fill:none;fill-rule:nonzero;stroke:black;stroke-width:0.2px;stroke-linejoin:miter;"/>
        <path id="path1844" d="M129.918,189.606L141.689,189.606" style="fill:none;fill-rule:nonzero;stroke:black;stroke-width:0.2px;stroke-linejoin:miter;"/>
        <path id="path1846" d="M308.765,205.347L348.914,205.347" style="fill:none;fill-rule:nonzero;stroke:black;stroke-width:0.2px;stroke-linejoin:miter;"/>
        <path id="path1848" d="M176.08,183.978L221.118,183.978" style="fill:none;fill-rule:nonzero;stroke:black;stroke-width:0.2px;stroke-linejoin:miter;"/>
        <path id="path1850" d="M309.178,210.898L348.451,210.898" style="fill:none;fill-rule:nonzero;stroke:black;stroke-width:0.2px;stroke-linejoin:miter;"/>
        <path id="path1852" d="M308.92,208.204L348.779,208.204" style="fill:none;fill-rule:nonzero;stroke:black;stroke-width:0.2px;stroke-linejoin:miter;"/>
        <path id="path1981" d="M129.918,175.397L141.597,175.397" style="fill:none;fill-rule:nonzero;stroke:black;stroke-width:0.2px;stroke-linejoin:miter;"/>
        <path id="path1983" d="M129.918,172.549L141.751,172.549" style="fill:none;fill-rule:nonzero;stroke:black;stroke-width:0.2px;stroke-linejoin:miter;"/>
        <path id="path1985" d="M129.918,181.102L141.628,181.102" style="fill:none;fill-rule:nonzero;stroke:black;stroke-width:0.2px;stroke-linejoin:miter;"/>
        <path id="path1987" d="M129.918,178.238L141.689,178.238" style="fill:none;fill-rule:nonzero;stroke:black;stroke-width:0.2px;stroke-linejoin:miter;"/>
        <path id="path1989" d="M129.918,164.06L141.597,164.06" style="fill:none;fill-rule:nonzero;stroke:black;stroke-width:0.2px;stroke-linejoin:miter;"/>
        <path id="path1991" d="M129.918,161.304L141.751,161.304" style="fill:none;fill-rule:nonzero;stroke:black;stroke-width:0.2px;stroke-linejoin:miter;"/>
        <path id="path1993" d="M129.918,169.765L141.628,169.765" style="fill:none;fill-rule:nonzero;stroke:black;stroke-width:0.2px;stroke-linejoin:miter;"/>
        <path id="path1995" d="M129.918,166.901L141.689,166.901" style="fill:none;fill-rule:nonzero;stroke:black;stroke-width:0.2px;stroke-linejoin:miter;"/>
        <path id="path2001" d="M129.918,158.477L141.751,158.477" style="fill:none;fill-rule:nonzero;stroke:black;stroke-width:0.2px;stroke-linejoin:miter;"/>
        <path id="path2026" d="M136.055,155.582L136.055,138.549" style="fill:none;fill-rule:nonzero;stroke:black;stroke-width:0.2px;stroke-linejoin:miter;"/>
        <path id="path2032" d="M133.382,155.52L133.382,138.488" style="fill:none;fill-rule:nonzero;stroke:black;stroke-width:0.2px;stroke-linejoin:miter;"/>
        <path id="path2034" d="M138.728,155.551L138.728,138.519" style="fill:none;fill-rule:nonzero;stroke:black;stroke-width:0.2px;stroke-linejoin:miter;"/>
        <path id="path5204" d="M137.359,155.582L137.359,138.549" style="fill:none;fill-rule:nonzero;stroke:black;stroke-width:0.2px;stroke-linejoin:miter;"/>
        <path id="path5206" d="M134.686,155.52L134.686,138.488" style="fill:none;fill-rule:nonzero;stroke:black;stroke-width:0.2px;stroke-linejoin:miter;"/>
        <path id="path5208" d="M140.032,155.551L140.032,138.519" style="fill:none;fill-rule:nonzero;stroke:black;stroke-width:0.2px;stroke-linejoin:miter;"/>
        <path id="path5210" d="M132.079,155.52L132.079,138.488" style="fill:none;fill-rule:nonzero;stroke:black;stroke-width:0.2px;stroke-linejoin:miter;"/>
        <path id="path5342" d="M279.562,174.059L279.562,157.026" style="fill:none;fill-rule:nonzero;stroke:black;stroke-width:0.2px;stroke-linejoin:miter;"/>
        <path id="path5344" d="M276.889,173.998L276.889,156.965" style="fill:none;fill-rule:nonzero;stroke:black;stroke-width:0.2px;stroke-linejoin:miter;"/>
        <path id="path5346" d="M282.235,174.028L282.235,156.996" style="fill:none;fill-rule:nonzero;stroke:black;stroke-width:0.2px;stroke-linejoin:miter;"/>
        <path id="path5348" d="M280.866,174.059L280.866,157.026" style="fill:none;fill-rule:nonzero;stroke:black;stroke-width:0.2px;stroke-linejoin:miter;"/>
        <path id="path5350" d="M278.193,173.998L278.193,156.965" style="fill:none;fill-rule:nonzero;stroke:black;stroke-width:0.2px;stroke-linejoin:miter;"/>
        <path id="path5354" d="M275.586,173.998L275.586,156.965" style="fill:none;fill-rule:nonzero;stroke:black;stroke-width:0.2px;stroke-linejoin:miter;"/>
        <path id="path5356" d="M279.562,128.744L279.562,111.711" style="fill:none;fill-rule:nonzero;stroke:black;stroke-width:0.2px;stroke-linejoin:miter;"/>
        <path id="path5358" d="M276.889,128.682L276.889,111.65" style="fill:none;fill-rule:nonzero;stroke:black;stroke-width:0.2px;stroke-linejoin:miter;"/>
        <path id="path5360" d="M282.235,128.713L282.235,111.68" style="fill:none;fill-rule:nonzero;stroke:black;stroke-width:0.2px;stroke-linejoin:miter;"/>
        <path id="path5362" d="M280.866,128.744L280.866,111.711" style="fill:none;fill-rule:nonzero;stroke:black;stroke-width:0.2px;stroke-linejoin:miter;"/>
        <path id="path5364" d="M278.193,128.682L278.193,111.65" style="fill:none;fill-rule:nonzero;stroke:black;stroke-width:0.2px;stroke-linejoin:miter;"/>
        <path id="path5366" d="M275.586,128.682L275.586,111.65" style="fill:none;fill-rule:nonzero;stroke:black;stroke-width:0.2px;stroke-linejoin:miter;"/>
        <path id="path5384" d="M274.333,205.285L283.276,205.285" style="fill:none;fill-rule:nonzero;stroke:black;stroke-width:0.2px;stroke-linejoin:miter;"/>
        <path id="path5386" d="M274.333,202.437L283.394,202.437" style="fill:none;fill-rule:nonzero;stroke:black;stroke-width:0.2px;stroke-linejoin:miter;"/>
        <path id="path5388" d="M274.333,210.99L283.299,210.99" style="fill:none;fill-rule:nonzero;stroke:black;stroke-width:0.2px;stroke-linejoin:miter;"/>
        <path id="path5390" d="M274.333,208.127L283.347,208.127" style="fill:none;fill-rule:nonzero;stroke:black;stroke-width:0.2px;stroke-linejoin:miter;"/>
        <path id="path5392" d="M274.333,193.918L283.276,193.918" style="fill:none;fill-rule:nonzero;stroke:black;stroke-width:0.2px;stroke-linejoin:miter;"/>
        <path id="path5394" d="M274.333,191.07L283.394,191.07" style="fill:none;fill-rule:nonzero;stroke:black;stroke-width:0.2px;stroke-linejoin:miter;"/>
        <path id="path5396" d="M274.333,199.623L283.299,199.623" style="fill:none;fill-rule:nonzero;stroke:black;stroke-width:0.2px;stroke-linejoin:miter;"/>
        <path id="path5398" d="M274.333,196.759L283.347,196.759" style="fill:none;fill-rule:nonzero;stroke:black;stroke-width:0.2px;stroke-linejoin:miter;"/>
        <path id="path5400" d="M274.333,182.581L283.276,182.581" style="fill:none;fill-rule:nonzero;stroke:black;stroke-width:0.2px;stroke-linejoin:miter;"/>
        <path id="path5402" d="M274.333,179.825L283.423,179.825" style="fill:none;fill-rule:nonzero;stroke:black;stroke-width:0.2px;stroke-linejoin:miter;"/>
        <path id="path5404" d="M274.333,188.285L283.299,188.285" style="fill:none;fill-rule:nonzero;stroke:black;stroke-width:0.2px;stroke-linejoin:miter;"/>
        <path id="path5406" d="M274.333,185.422L283.347,185.422" style="fill:none;fill-rule:nonzero;stroke:black;stroke-width:0.2px;stroke-linejoin:miter;"/>
        <path id="path5408" d="M274.333,176.998L283.423,176.998" style="fill:none;fill-rule:nonzero;stroke:black;stroke-width:0.2px;stroke-linejoin:miter;"/>
        <path id="path5590" d="M274.478,219.425L283.469,219.425" style="fill:none;fill-rule:nonzero;stroke:black;stroke-width:0.2px;stroke-linejoin:miter;"/>
        <path id="path5592" d="M274.478,216.577L283.469,216.577" style="fill:none;fill-rule:nonzero;stroke:black;stroke-width:0.2px;stroke-linejoin:miter;"/>
        <path id="path5594" d="M274.478,225.13L283.469,225.13" style="fill:none;fill-rule:nonzero;stroke:black;stroke-width:0.2px;stroke-linejoin:miter;"/>
        <path id="path5596" d="M274.478,222.281L283.469,222.281" style="fill:none;fill-rule:nonzero;stroke:black;stroke-width:0.2px;stroke-linejoin:miter;"/>
        <path id="path5598" d="M274.478,230.771L283.469,230.771" style="fill:none;fill-rule:nonzero;stroke:black;stroke-width:0.2px;stroke-linejoin:miter;"/>
        <path id="path5600" d="M274.478,227.922L283.469,227.922" style="fill:none;fill-rule:nonzero;stroke:black;stroke-width:0.2px;stroke-linejoin:miter;"/>
        <path id="path5602" d="M274.478,236.475L283.469,236.475" style="fill:none;fill-rule:nonzero;stroke:black;stroke-width:0.2px;stroke-linejoin:miter;"/>
        <path id="path5604" d="M274.478,233.627L283.469,233.627" style="fill:none;fill-rule:nonzero;stroke:black;stroke-width:0.2px;stroke-linejoin:miter;"/>
        <path id="path5606" d="M274.478,242.085L283.469,242.085" style="fill:none;fill-rule:nonzero;stroke:black;stroke-width:0.2px;stroke-linejoin:miter;"/>
        <path id="path5608" d="M274.478,239.237L283.469,239.237" style="fill:none;fill-rule:nonzero;stroke:black;stroke-width:0.2px;stroke-linejoin:miter;"/>
        <path id="path5610" d="M274.478,247.79L283.469,247.79" style="fill:none;fill-rule:nonzero;stroke:black;stroke-width:0.2px;stroke-linejoin:miter;"/>
        <path id="path5612" d="M274.478,244.942L283.469,244.942" style="fill:none;fill-rule:nonzero;stroke:black;stroke-width:0.2px;stroke-linejoin:miter;"/>
        <path id="path5614" d="M274.478,253.431L283.469,253.431" style="fill:none;fill-rule:nonzero;stroke:black;stroke-width:0.2px;stroke-linejoin:miter;"/>
        <path id="path5616" d="M274.478,250.583L283.469,250.583" style="fill:none;fill-rule:nonzero;stroke:black;stroke-width:0.2px;stroke-linejoin:miter;"/>
        <path id="path5618" d="M274.624,259.136L283.936,259.136" style="fill:none;fill-rule:nonzero;stroke:black;stroke-width:0.2px;stroke-linejoin:miter;"/>
        <path id="path5620" d="M274.332,256.288L283.44,256.288" style="fill:none;fill-rule:nonzero;stroke:black;stroke-width:0.2px;stroke-linejoin:miter;"/>
        <path id="path5622" d="M275.979,264.793L286.03,264.793" style="fill:none;fill-rule:nonzero;stroke:black;stroke-width:0.2px;stroke-linejoin:miter;"/>
        <path id="path5624" d="M275.324,261.944L284.724,261.944" style="fill:none;fill-rule:nonzero;stroke:black;stroke-width:0.2px;stroke-linejoin:miter;"/>
        <path id="path5626" d="M277.595,267.627L288.008,267.627" style="fill:none;fill-rule:nonzero;stroke:black;stroke-width:0.2px;stroke-linejoin:miter;"/>
        <path id="path5670" d="M313.077,219.425L344.989,219.425" style="fill:none;fill-rule:nonzero;stroke:black;stroke-width:0.2px;stroke-linejoin:miter;"/>
        <path id="path5672" d="M311.974,216.577L346.259,216.577" style="fill:none;fill-rule:nonzero;stroke:black;stroke-width:0.2px;stroke-linejoin:miter;"/>
        <path id="path5674" d="M320.851,224.976L337.385,224.976" style="fill:none;fill-rule:nonzero;stroke:black;stroke-width:0.2px;stroke-linejoin:miter;"/>
        <path id="path5676" d="M316.279,222.281L341.854,222.281" style="fill:none;fill-rule:nonzero;stroke:black;stroke-width:0.2px;stroke-linejoin:miter;"/>
        <path id="path5678" d="M324.489,230.771L333.493,230.771" style="fill:none;fill-rule:nonzero;stroke:black;stroke-width:0.2px;stroke-linejoin:miter;"/>
        <path id="path5680" d="M324.677,227.901L333.323,227.901" style="fill:none;fill-rule:nonzero;stroke:black;stroke-width:0.2px;stroke-linejoin:miter;"/>
        <path id="path5682" d="M324.602,236.475L333.543,236.475" style="fill:none;fill-rule:nonzero;stroke:black;stroke-width:0.2px;stroke-linejoin:miter;"/>
        <path id="path5684" d="M324.564,233.627L333.543,233.627" style="fill:none;fill-rule:nonzero;stroke:black;stroke-width:0.2px;stroke-linejoin:miter;"/>
        <path id="path5686" d="M324.589,242.085L333.505,242.085" style="fill:none;fill-rule:nonzero;stroke:black;stroke-width:0.2px;stroke-linejoin:miter;"/>
        <path id="path5688" d="M324.564,239.237L333.555,239.237" style="fill:none;fill-rule:nonzero;stroke:black;stroke-width:0.2px;stroke-linejoin:miter;"/>
        <path id="path5690" d="M324.477,247.79L333.493,247.79" style="fill:none;fill-rule:nonzero;stroke:black;stroke-width:0.2px;stroke-linejoin:miter;"/>
        <path id="path5692" d="M324.552,244.942L333.493,244.942" style="fill:none;fill-rule:nonzero;stroke:black;stroke-width:0.2px;stroke-linejoin:miter;"/>
        <path id="path5694" d="M324.589,253.431L333.505,253.431" style="fill:none;fill-rule:nonzero;stroke:black;stroke-width:0.2px;stroke-linejoin:miter;"/>
        <path id="path5696" d="M324.564,250.583L333.543,250.583" style="fill:none;fill-rule:nonzero;stroke:black;stroke-width:0.2px;stroke-linejoin:miter;"/>
        <path id="path5698" d="M324.489,259.136L333.555,259.136" style="fill:none;fill-rule:nonzero;stroke:black;stroke-width:0.2px;stroke-linejoin:miter;"/>
        <path id="path5700" d="M324.589,256.288L333.505,256.288" style="fill:none;fill-rule:nonzero;stroke:black;stroke-width:0.2px;stroke-linejoin:miter;"/>
        <path id="path5702" d="M317.842,270.468L329.003,270.468" style="fill:none;fill-rule:nonzero;stroke:black;stroke-width:0.2px;stroke-linejoin:miter;"/>
        <path id="path5704" d="M320.219,267.627L331.375,267.627" style="fill:none;fill-rule:nonzero;stroke:black;stroke-width:0.2px;stroke-linejoin:miter;"/>
        <path id="path5706" d="M283.695,276.085L324.025,276.085" style="fill:none;fill-rule:nonzero;stroke:black;stroke-width:0.2px;stroke-linejoin:miter;"/>
        <path id="path5708" d="M313.482,273.237L326.578,273.237" style="fill:none;fill-rule:nonzero;stroke:black;stroke-width:0.2px;stroke-linejoin:miter;"/>
        <path id="path5710" d="M292.21,281.726L315.709,281.726" style="fill:none;fill-rule:nonzero;stroke:black;stroke-width:0.2px;stroke-linejoin:miter;"/>
        <path id="path5712" d="M287.056,278.878L320.789,278.878" style="fill:none;fill-rule:nonzero;stroke:black;stroke-width:0.2px;stroke-linejoin:miter;"/>
        <path id="path7389" d="M322.05,264.793L332.101,264.793" style="fill:none;fill-rule:nonzero;stroke:black;stroke-width:0.2px;stroke-linejoin:miter;"/>
        <path id="path7391" d="M323.15,261.944L332.549,261.944" style="fill:none;fill-rule:nonzero;stroke:black;stroke-width:0.2px;stroke-linejoin:miter;"/>
        <path id="path7393" d="M279.321,270.455L289.892,270.455" style="fill:none;fill-rule:nonzero;stroke:black;stroke-width:0.2px;stroke-linejoin:miter;"/>
        <path id="path7395" d="M281.197,273.29L293.931,273.29" style="fill:none;fill-rule:nonzero;stroke:black;stroke-width:0.2px;stroke-linejoin:miter;"/>
        <path id="path7397" d="M274.333,148.574L283.276,148.574" style="fill:none;fill-rule:nonzero;stroke:black;stroke-width:0.2px;stroke-linejoin:miter;"/>
        <path id="path7399" d="M274.333,145.726L283.394,145.726" style="fill:none;fill-rule:nonzero;stroke:black;stroke-width:0.2px;stroke-linejoin:miter;"/>
        <path id="path7401" d="M274.333,154.279L283.299,154.279" style="fill:none;fill-rule:nonzero;stroke:black;stroke-width:0.2px;stroke-linejoin:miter;"/>
        <path id="path7403" d="M274.333,151.415L283.347,151.415" style="fill:none;fill-rule:nonzero;stroke:black;stroke-width:0.2px;stroke-linejoin:miter;"/>
        <path id="path7405" d="M274.333,137.237L283.276,137.237" style="fill:none;fill-rule:nonzero;stroke:black;stroke-width:0.2px;stroke-linejoin:miter;"/>
        <path id="path7407" d="M274.333,134.481L283.423,134.481" style="fill:none;fill-rule:nonzero;stroke:black;stroke-width:0.2px;stroke-linejoin:miter;"/>
        <path id="path7409" d="M274.333,142.942L283.299,142.942" style="fill:none;fill-rule:nonzero;stroke:black;stroke-width:0.2px;stroke-linejoin:miter;"/>
        <path id="path7411" d="M274.333,140.078L283.347,140.078" style="fill:none;fill-rule:nonzero;stroke:black;stroke-width:0.2px;stroke-linejoin:miter;"/>
        <path id="path7413" d="M274.333,131.654L283.423,131.654" style="fill:none;fill-rule:nonzero;stroke:black;stroke-width:0.2px;stroke-linejoin:miter;"/>
        <path id="path7415" d="M174.076,189.618L223.482,189.618" style="fill:none;fill-rule:nonzero;stroke:black;stroke-width:0.2px;stroke-linejoin:miter;"/>
        <path id="path7417" d="M173.488,186.81L223.249,186.81" style="fill:none;fill-rule:nonzero;stroke:black;stroke-width:0.2px;stroke-linejoin:miter;"/>
        <path id="path7419" d="M174.011,192.475L222.855,192.475" style="fill:none;fill-rule:nonzero;stroke:black;stroke-width:0.2px;stroke-linejoin:miter;"/>
        <path id="path7650" d="M310.417,199.368L347.625,199.368" style="fill:none;fill-rule:nonzero;stroke:black;stroke-width:0.2px;stroke-linejoin:miter;"/>
        <g transform="matrix(1,0,0,1,120.019,165.139)" id="g236">
            <g id="text7756">
                <text x="0px" y="0px" style="font-family:'MyriadPro-It', 'Myriad Pro', sans-serif;font-style:italic;font-size:14px;" id="text233">i</text>
            </g>
        </g>
        <g transform="matrix(1,0,0,1,194.894,155.459)" id="g241">
            <g id="text7760">
                <text x="0px" y="0px" style="font-family:'MyriadPro-It', 'Myriad Pro', sans-serif;font-style:italic;font-size:14px;" id="text238">q</text>
            </g>
        </g>
        <g transform="matrix(1,0,0,1,163.998,183.794)" id="g246">
            <g id="text7764">
                <text x="0px" y="0px" style="font-family:'MyriadPro-It', 'Myriad Pro', sans-serif;font-style:italic;font-size:14px;" id="text243">r</text>
            </g>
        </g>
        <g transform="matrix(1,0,0,1,162.557,202.044)" id="g251">
            <g id="text7768">
                <text x="0px" y="0px" style="font-family:'MyriadPro-It', 'Myriad Pro', sans-serif;font-style:italic;font-size:14px;" id="text248">p</text>
            </g>
        </g>
        <g transform="matrix(1,0,0,1,302.625,221.368)" id="g256">
            <g id="text7772">
                <text x="0px" y="0px" style="font-family:'MyriadPro-It', 'Myriad Pro', sans-serif;font-style:italic;font-size:14px;" id="text253">l</text>
            </g>
        </g>
        <g transform="matrix(1,0,0,1,298.437,205.973)" id="g261">
            <g id="text9238">
                <text x="0px" y="0px" style="font-family:'MyriadPro-It', 'Myriad Pro', sans-serif;font-style:italic;font-size:14px;" id="text258">o</text>
            </g>
        </g>
        <g transform="matrix(1,0,0,1,324.359,182.089)" id="g266">
            <g id="text9242">
                <text x="0px" y="0px" style="font-family:'MyriadPro-It', 'Myriad Pro', sans-serif;font-style:italic;font-size:14px;" id="text263">m</text>
            </g>
        </g>
        <g transform="matrix(1,0,0,1,304.889,193.409)" id="g271">
            <g id="text9246">
                <text x="0px" y="0px" style="font-family:'MyriadPro-It', 'Myriad Pro', sans-serif;font-style:italic;font-size:14px;" id="text268">n</text>
            </g>
        </g>
        <g transform="matrix(1,0,0,1,263.461,113.951)" id="g276">
            <g id="text9250">
                <text x="0px" y="0px" style="font-family:'MyriadPro-It', 'Myriad Pro', sans-serif;font-style:italic;font-size:14px;" id="text273">f</text>
            </g>
        </g>
        <g transform="matrix(1,0,0,1,262.553,131.943)" id="g281">
            <g id="text9256">
                <text x="0px" y="0px" style="font-family:'MyriadPro-It', 'Myriad Pro', sans-serif;font-style:italic;font-size:14px;" id="text278">e</text>
            </g>
        </g>
        <g transform="matrix(1,0,0,1,262.44,161.827)" id="g286">
            <g id="text9260">
                <text x="0px" y="0px" style="font-family:'MyriadPro-It', 'Myriad Pro', sans-serif;font-style:italic;font-size:14px;" id="text283">h</text>
            </g>
        </g>
        <g transform="matrix(1,0,0,1,263.121,181.297)" id="g291">
            <g id="text9264">
                <text x="0px" y="0px" style="font-family:'MyriadPro-It', 'Myriad Pro', sans-serif;font-style:italic;font-size:14px;" id="text288">g</text>
            </g>
        </g>
        <g transform="matrix(1.07305,0,0,1,120.976,304.78)" id="g300">
            <g id="text10977">
                <text x="0px" y="0px" style="font-family:'MyriadPro-Regular', 'Myriad Pro', sans-serif;font-size:13px;" id="text297">Edit<tspan x="20.943px 28.08px 32.201px " y="0px 0px 0px " id="tspan293">ore</tspan>nzeichnung zu Beispielband<tspan x="190.996px " y="0px " id="tspan295">,</tspan> N. 2</text>
            </g>
        </g>
    </g>
</svg>