<?xml version="1.0" encoding="UTF-8"?>
<svg xmlns="http://www.w3.org/2000/svg" xmlns:xlink="http://www.w3.org/1999/xlink" width="83.392906pt" height="94.818756pt" viewBox="0 0 83.392906 94.818756" version="1.2">
<defs>
<clipPath id="clip1">
  <path d="M 0 0.253906 L 82.789062 0.253906 L 82.789062 84 L 0 84 Z M 0 0.253906 "/>
</clipPath>
<clipPath id="clip2">
  <path d="M 0 52 L 42 52 L 42 94.386719 L 0 94.386719 Z M 0 52 "/>
</clipPath>
<clipPath id="clip3">
  <path d="M 3 52 L 50 52 L 50 94.386719 L 3 94.386719 Z M 3 52 "/>
</clipPath>
</defs>
<g id="surface1">
<g clip-path="url(#clip1)" clip-rule="nonzero">
<path style="fill:none;stroke-width:3;stroke-linecap:butt;stroke-linejoin:round;stroke:rgb(0%,0%,0%);stroke-opacity:1;stroke-miterlimit:4;" d="M 81.896579 41.693186 C 81.896579 63.896625 63.895385 81.893885 41.69588 81.893885 C 19.496375 81.893885 1.499116 63.896625 1.499116 41.693186 C 1.499116 19.497615 19.496375 1.500356 41.69588 1.500356 C 63.895385 1.500356 81.896579 19.497615 81.896579 41.693186 Z M 81.896579 41.693186 " transform="matrix(0.992773,0,0,0.992773,0,0.252675)"/>
</g>
<g clip-path="url(#clip2)" clip-rule="nonzero">
<path style="fill:none;stroke-width:3;stroke-linecap:butt;stroke-linejoin:miter;stroke:rgb(0%,0%,0%);stroke-opacity:1;stroke-miterlimit:4;" d="M 24.363583 69.149433 L 11.863082 94.146501 " transform="matrix(0.992773,0,0,0.992773,0,0.252675)"/>
</g>
<g clip-path="url(#clip3)" clip-rule="nonzero">
<path style="fill:none;stroke-width:3;stroke-linecap:butt;stroke-linejoin:miter;stroke:rgb(0%,0%,0%);stroke-opacity:1;stroke-miterlimit:4;" d="M 33.362213 69.149433 L 20.861712 94.146501 " transform="matrix(0.992773,0,0,0.992773,0,0.252675)"/>
</g>
</g>
</svg>
