<?xml version="1.0" encoding="UTF-8"?>
<svg xmlns="http://www.w3.org/2000/svg" xmlns:xlink="http://www.w3.org/1999/xlink" width="195.529251pt" height="98.901283pt" viewBox="0 0 195.529251 98.901283" version="1.2">
<defs>
<clipPath id="clip1">
  <path d="M 0 0.0703125 L 195.058594 0.0703125 L 195.058594 98.734375 L 0 98.734375 Z M 0 0.0703125 "/>
</clipPath>
</defs>
<g id="surface1">
<g clip-path="url(#clip1)" clip-rule="nonzero">
<path style=" stroke:none;fill-rule:nonzero;fill:rgb(5.882263%,5.882263%,5.882263%);fill-opacity:1;" d="M 23.6875 97.699219 C 14.722656 95.175781 6.585938 88.472656 3.035156 80.691406 C -4.777344 63.554688 2.828125 38.949219 22.027344 19.273438 C 28.558594 12.578125 35.253906 7.21875 41.804688 3.445312 C 44.9375 1.636719 45.945312 1.421875 49.527344 1.792969 C 51.789062 2.027344 54.144531 2.628906 54.753906 3.136719 C 55.363281 3.644531 65.863281 18.898438 78.082031 37.042969 C 101.460938 71.75 105.199219 76.410156 113.785156 81.582031 C 120.078125 85.371094 124.898438 86.808594 131.421875 86.835938 C 143.222656 86.886719 150.738281 80.332031 155.023438 66.261719 C 156.039062 62.917969 156.363281 59.535156 156.304688 52.816406 C 156.195312 40.460938 154.050781 32.546875 148.179688 22.839844 C 144.464844 16.703125 143.351562 15.441406 140.273438 13.882812 C 134.121094 10.765625 132.691406 6.640625 136.28125 2.371094 C 137.636719 0.761719 138.878906 0.0703125 140.421875 0.0703125 C 141.769531 0.0703125 148.195312 3.015625 157 7.671875 C 169.65625 14.367188 171.839844 15.277344 175.195312 15.3125 C 177.738281 15.339844 179.734375 14.882812 181.179688 13.929688 C 182.878906 12.816406 184.492188 12.542969 188.589844 12.679688 C 195.640625 12.917969 196.378906 13.75 193.433594 18.199219 C 188.898438 25.039062 179.054688 29.117188 169.363281 28.160156 C 166.5625 27.890625 164.28125 27.9375 164.292969 28.269531 C 164.300781 28.601562 165.007812 31.398438 165.867188 34.488281 C 168.070312 42.417969 168.625 58.214844 166.984375 66.300781 C 163.199219 84.945312 150.320312 97.628906 134.128906 98.636719 C 130.714844 98.847656 126.222656 98.65625 124.140625 98.210938 C 109.90625 95.15625 96.640625 85.398438 86.085938 70.210938 C 83.617188 66.65625 81.300781 63.828125 80.933594 63.929688 C 80.570312 64.027344 79.375 66.65625 78.277344 69.765625 C 75.746094 76.933594 72.636719 81.773438 67.027344 87.277344 C 61.605469 92.59375 60.957031 92.972656 52.042969 95.914062 C 43.292969 98.800781 30.484375 99.605469 23.6875 97.699219 Z M 45.53125 85.679688 C 52.066406 83.988281 55.179688 82.179688 58.902344 77.929688 C 65.464844 70.421875 70.003906 60.648438 71.101562 51.648438 L 71.597656 47.582031 L 63.253906 35.234375 C 53.675781 21.066406 52.550781 19.707031 49.265625 18.300781 C 43.160156 15.703125 39.390625 17.691406 28.84375 29.050781 C 7.40625 52.144531 5.941406 80.105469 25.851562 86.164062 C 29.222656 87.1875 40.8125 86.902344 45.53125 85.679688 Z M 45.53125 85.679688 "/>
</g>
</g>
</svg>
