<?xml version="1.0" encoding="UTF-8"?>
<svg xmlns="http://www.w3.org/2000/svg" xmlns:xlink="http://www.w3.org/1999/xlink" width="18.249989pt" height="13.750539pt" viewBox="0 0 18.249989 13.750539" version="1.2">
<defs>
<clipPath id="clip1">
  <path d="M 4 0.152344 L 17.53125 0.152344 L 17.53125 13.359375 L 4 13.359375 Z M 4 0.152344 "/>
</clipPath>
<clipPath id="clip2">
  <path d="M 0 0.152344 L 7 0.152344 L 7 13.359375 L 0 13.359375 Z M 0 0.152344 "/>
</clipPath>
<clipPath id="clip3">
  <path d="M 2 2 L 17.53125 2 L 17.53125 11 L 2 11 Z M 2 2 "/>
</clipPath>
<clipPath id="clip4">
  <path d="M 6 0.152344 L 15 0.152344 L 15 13.359375 L 6 13.359375 Z M 6 0.152344 "/>
</clipPath>
</defs>
<g id="surface1">
<g clip-path="url(#clip1)" clip-rule="nonzero">
<path style="fill:none;stroke-width:0.75;stroke-linecap:round;stroke-linejoin:round;stroke:rgb(0%,0%,0%);stroke-opacity:1;stroke-miterlimit:4;" d="M 17.873512 6.873649 C 17.873512 10.464619 14.965762 13.376436 11.374793 13.376436 C 7.783823 13.376436 4.876073 10.464619 4.876073 6.873649 C 4.876073 3.286746 7.783823 0.374929 11.374793 0.374929 C 14.965762 0.374929 17.873512 3.286746 17.873512 6.873649 Z M 17.873512 6.873649 " transform="matrix(0.960526,0,0,0.960526,0,0.151589)"/>
</g>
<g clip-path="url(#clip2)" clip-rule="nonzero">
<path style="fill:none;stroke-width:0.75;stroke-linecap:round;stroke-linejoin:round;stroke:rgb(0%,0%,0%);stroke-opacity:1;stroke-miterlimit:4;" d="M 6.876931 -13.376436 C 3.285961 -13.376436 0.374144 -10.464619 0.374144 -6.873649 C 0.374144 -3.286746 3.285961 -0.374929 6.876931 -0.374929 " transform="matrix(0.960526,0,0,-0.960526,0,0.151589)"/>
</g>
<g clip-path="url(#clip3)" clip-rule="nonzero">
<path style="fill:none;stroke-width:0.75;stroke-linecap:butt;stroke-linejoin:miter;stroke:rgb(0%,0%,0%);stroke-opacity:1;stroke-miterlimit:4;" d="M 15.758785 -6.873649 C 15.758785 -6.873649 6.9908 -6.873649 6.9908 -6.873649 " transform="matrix(0.960526,0,0,-0.960526,0,0.151589)"/>
</g>
<g clip-path="url(#clip4)" clip-rule="nonzero">
<path style="fill:none;stroke-width:0.75;stroke-linecap:butt;stroke-linejoin:miter;stroke:rgb(0%,0%,0%);stroke-opacity:1;stroke-miterlimit:4;" d="M 11.374793 -11.257642 C 11.374793 -11.257642 11.374793 -2.493724 11.374793 -2.493724 " transform="matrix(0.960526,0,0,-0.960526,0,0.151589)"/>
</g>
</g>
</svg>
