<?xml version="1.0" encoding="UTF-8"?>
<svg xmlns="http://www.w3.org/2000/svg" xmlns:xlink="http://www.w3.org/1999/xlink" width="228.463pt" height="127.633pt" viewBox="0 0 228.463 127.633" version="1.2">
<g id="surface1">
<path style="fill:none;stroke-width:1;stroke-linecap:butt;stroke-linejoin:miter;stroke:rgb(0%,0%,0%);stroke-opacity:1;stroke-miterlimit:4;" d="M -0.00114586 0.0000213299 L -0.00114586 -85.040681 " transform="matrix(0.997133,0,0,-0.997133,96.532393,18.898459)"/>
<path style="fill:none;stroke-width:1;stroke-linecap:butt;stroke-linejoin:miter;stroke:rgb(0%,0%,0%);stroke-opacity:1;stroke-miterlimit:4;" d="M 0.000709014 -0.000610831 L 0.000709014 -84.966881 " transform="matrix(0.997133,0,0,-0.997133,108.050074,18.972047)"/>
<path style=" stroke:none;fill-rule:nonzero;fill:rgb(0%,0%,0%);fill-opacity:1;" d="M 48.011719 62.773438 L 48.339844 65.328125 L 49.351562 65.328125 L 48.246094 57.257812 L 47.0625 57.257812 L 42.886719 65.328125 L 43.945312 65.328125 L 45.222656 62.773438 Z M 45.582031 61.992188 L 46.796875 59.640625 C 47.03125 59.15625 47.234375 58.644531 47.449219 58.175781 L 47.464844 58.175781 C 47.511719 58.644531 47.574219 59.234375 47.621094 59.65625 L 47.933594 61.992188 Z M 45.582031 61.992188 "/>
<path style=" stroke:none;fill-rule:nonzero;fill:rgb(0%,0%,0%);fill-opacity:1;" d="M 67.804688 47.746094 C 67.371094 47.964844 66.699219 48.085938 66.09375 48.085938 C 64.285156 48.085938 63.632812 46.902344 63.632812 45.457031 C 63.632812 44.238281 64.113281 43.101562 64.863281 42.402344 C 65.484375 41.808594 66.34375 41.480469 67.183594 41.480469 C 67.898438 41.480469 68.460938 41.636719 68.773438 41.824219 L 69.085938 41.015625 C 68.882812 40.859375 68.242188 40.625 67.339844 40.625 C 66.15625 40.625 65.125 41 64.300781 41.714844 C 63.195312 42.636719 62.585938 44.085938 62.585938 45.59375 C 62.585938 47.667969 63.816406 48.945312 65.84375 48.945312 C 66.761719 48.945312 67.496094 48.757812 67.945312 48.554688 Z M 67.804688 47.746094 "/>
<path style=" stroke:none;fill-rule:nonzero;fill:rgb(0%,0%,0%);fill-opacity:1;" d="M 93.214844 14.839844 L 97.453125 14.839844 L 97.605469 13.984375 L 94.367188 13.984375 L 95.738281 6.769531 L 94.742188 6.769531 Z M 93.214844 14.839844 "/>
<path style=" stroke:none;fill-rule:nonzero;fill:rgb(0%,0%,0%);fill-opacity:1;" d="M 104.402344 60.699219 L 101.457031 60.699219 L 101.953125 58.113281 L 105.070312 58.113281 L 105.226562 57.257812 L 101.113281 57.257812 L 99.585938 65.328125 L 103.886719 65.328125 L 104.042969 64.472656 L 100.738281 64.472656 L 101.300781 61.542969 L 104.230469 61.542969 Z M 104.402344 60.699219 "/>
<path style=" stroke:none;fill-rule:nonzero;fill:rgb(0%,0%,0%);fill-opacity:1;" d="M 181.949219 44.671875 L 182.746094 40.464844 C 182.949219 39.359375 183.089844 38.566406 183.167969 37.800781 L 183.199219 37.785156 C 183.382812 38.550781 183.554688 39.125 183.960938 40.105469 L 185.785156 44.671875 L 186.765625 44.671875 L 188.308594 36.601562 L 187.371094 36.601562 L 186.546875 40.886719 C 186.34375 42.023438 186.265625 42.691406 186.21875 43.410156 L 186.1875 43.425781 C 186.03125 42.738281 185.832031 42.085938 185.488281 41.183594 L 183.632812 36.601562 L 182.542969 36.601562 L 181.015625 44.671875 Z M 181.949219 44.671875 "/>
<path style=" stroke:none;fill-rule:nonzero;fill:rgb(0%,0%,0%);fill-opacity:1;" d="M 196.519531 66.242188 C 196.890625 66.320312 197.5 66.351562 198.183594 66.351562 C 199.277344 66.351562 200.164062 66.179688 200.804688 65.699219 C 201.316406 65.292969 201.769531 64.652344 201.769531 63.828125 C 201.769531 62.863281 201.160156 62.253906 200.429688 62.035156 L 200.429688 62.003906 C 201.363281 61.769531 202.1875 61.023438 202.1875 59.996094 C 202.1875 59.464844 201.972656 59.046875 201.597656 58.75 C 201.160156 58.359375 200.570312 58.1875 199.742188 58.1875 C 199.089844 58.1875 198.496094 58.25 198.015625 58.34375 Z M 198.871094 59.058594 C 199.027344 59.011719 199.324219 58.96875 199.695312 58.96875 C 200.570312 58.96875 201.160156 59.308594 201.160156 60.089844 C 201.160156 61.070312 200.257812 61.664062 199.105469 61.664062 L 198.371094 61.664062 Z M 198.214844 62.410156 L 199.011719 62.410156 C 199.914062 62.410156 200.726562 62.832031 200.726562 63.78125 C 200.726562 65.074219 199.617188 65.558594 198.449219 65.558594 C 198.167969 65.558594 197.875 65.542969 197.625 65.511719 Z M 198.214844 62.410156 "/>
<path style=" stroke:none;fill-rule:nonzero;fill:rgb(0%,0%,0%);fill-opacity:1;" d="M 165.675781 75.234375 C 166.191406 75.292969 166.921875 75.328125 167.640625 75.328125 C 169.183594 75.328125 170.351562 75 171.285156 74.21875 C 172.332031 73.332031 172.90625 71.882812 172.90625 70.417969 C 172.890625 69.40625 172.578125 68.691406 172.144531 68.234375 C 171.550781 67.535156 170.523438 67.160156 169.183594 67.160156 C 168.464844 67.160156 167.796875 67.207031 167.171875 67.320312 Z M 168.03125 68.050781 C 168.324219 67.988281 168.761719 67.972656 169.136719 67.972656 C 171.144531 67.972656 171.847656 69.03125 171.847656 70.464844 C 171.847656 71.601562 171.457031 72.691406 170.742188 73.441406 C 170.070312 74.128906 169.136719 74.515625 167.859375 74.515625 C 167.5625 74.515625 167.171875 74.5 166.816406 74.453125 Z M 168.03125 68.050781 "/>
<path style=" stroke:none;fill-rule:nonzero;fill:rgb(0%,0%,0%);fill-opacity:1;" d="M 74.566406 75.839844 L 73.023438 83.910156 L 74.019531 83.910156 L 74.734375 80.125 L 78.445312 80.125 L 77.726562 83.910156 L 78.707031 83.910156 L 80.25 75.839844 L 79.253906 75.839844 L 78.601562 79.238281 L 74.890625 79.238281 L 75.5625 75.839844 Z M 74.566406 75.839844 "/>
<path style=" stroke:none;fill-rule:nonzero;fill:rgb(0%,0%,0%);fill-opacity:1;" d="M 92.671875 108.71875 L 90.054688 108.71875 L 89.898438 109.527344 L 91.535156 109.527344 L 91.082031 111.929688 C 90.785156 112.066406 90.335938 112.160156 89.851562 112.160156 C 88.0625 112.160156 87.28125 111.132812 87.28125 109.574219 C 87.28125 108.46875 87.734375 107.332031 88.496094 106.617188 C 89.167969 105.992188 90.039062 105.632812 90.988281 105.632812 C 91.722656 105.632812 92.265625 105.789062 92.6875 105.992188 L 93.015625 105.152344 C 92.765625 105.007812 92.097656 104.777344 91.113281 104.777344 C 89.820312 104.777344 88.652344 105.210938 87.796875 105.976562 C 86.75 106.910156 86.222656 108.3125 86.222656 109.652344 C 86.222656 110.445312 86.425781 111.320312 87.03125 112.007812 C 87.640625 112.691406 88.527344 113.003906 89.664062 113.003906 C 90.601562 113.003906 91.472656 112.769531 91.941406 112.582031 Z M 92.671875 108.71875 "/>
<path style=" stroke:none;fill-rule:nonzero;fill:rgb(0%,0%,0%);fill-opacity:1;" d="M 76.722656 113.832031 C 76.675781 114.675781 77.003906 115.03125 77.484375 115.03125 C 77.609375 115.03125 77.703125 115.03125 77.796875 115 L 78.015625 114.238281 C 77.578125 114.253906 77.5 113.910156 77.65625 113.101562 C 77.796875 112.320312 78 111.355469 78.1875 110.484375 C 78.3125 109.953125 78.4375 109.394531 78.527344 109.113281 L 77.6875 109.113281 C 77.59375 109.40625 77.5 109.671875 77.390625 110.140625 L 77.34375 110.140625 C 77.191406 109.5 76.691406 108.988281 75.757812 108.988281 C 74.230469 108.988281 72.703125 110.699219 72.703125 112.929688 C 72.703125 114.207031 73.464844 115.03125 74.601562 115.03125 C 75.507812 115.03125 76.238281 114.550781 76.691406 113.832031 Z M 73.730469 112.773438 C 73.730469 111.167969 74.757812 109.78125 75.785156 109.78125 C 76.582031 109.78125 76.988281 110.449219 76.988281 111.167969 C 76.988281 111.386719 76.957031 111.636719 76.925781 111.867188 C 76.863281 112.195312 76.800781 112.429688 76.707031 112.664062 C 76.410156 113.441406 75.726562 114.238281 74.960938 114.238281 C 74.152344 114.238281 73.730469 113.613281 73.730469 112.773438 "/>
<path style=" stroke:none;fill-rule:nonzero;fill:rgb(0%,0%,0%);fill-opacity:1;" d="M 211.226562 95.347656 C 211.179688 94.847656 211.351562 93.867188 211.476562 93.179688 L 211.628906 92.339844 L 211.648438 92.324219 C 212.066406 92.835938 212.675781 93.105469 213.484375 93.105469 C 214.714844 93.105469 216.179688 92.167969 216.179688 90.34375 C 216.179688 89.285156 215.558594 88.554688 214.824219 88.382812 L 214.824219 88.320312 C 215.558594 88.007812 216.195312 87.167969 216.195312 86.105469 C 216.195312 85.09375 215.480469 84.347656 214.417969 84.347656 C 213.75 84.347656 213.25 84.566406 212.800781 84.953125 C 212.300781 85.390625 211.800781 86.152344 211.507812 87.761719 L 210.476562 93.273438 C 210.308594 94.128906 210.199219 94.972656 210.292969 95.347656 Z M 213.296875 88.835938 L 213.609375 88.835938 C 214.511719 88.882812 215.167969 89.472656 215.167969 90.390625 C 215.167969 91.578125 214.265625 92.339844 213.390625 92.339844 C 212.566406 92.339844 212.019531 91.808594 211.816406 91.359375 L 212.503906 87.636719 C 212.800781 86 213.390625 85.15625 214.28125 85.15625 C 214.871094 85.15625 215.246094 85.609375 215.246094 86.296875 C 215.246094 87.246094 214.621094 88.054688 213.640625 88.132812 C 213.578125 88.132812 213.484375 88.148438 213.421875 88.148438 Z M 213.296875 88.835938 "/>
<path style=" stroke:none;fill-rule:nonzero;fill:rgb(0%,0%,0%);fill-opacity:1;" d="M 63.777344 95.230469 C 65.570312 95.230469 66.582031 93.375 67.050781 90.929688 C 67.175781 90.351562 67.238281 89.746094 67.238281 89.183594 C 67.238281 87.59375 66.488281 86.472656 65.179688 86.472656 C 63.453125 86.472656 62.34375 88.25 61.910156 90.304688 C 61.722656 91.117188 61.660156 91.847656 61.660156 92.394531 C 61.660156 94.25 62.5 95.230469 63.777344 95.230469 M 62.90625 90.351562 C 63.21875 88.6875 63.933594 87.238281 65.039062 87.238281 C 65.851562 87.238281 66.257812 88.03125 66.257812 89.105469 C 66.257812 89.480469 66.222656 89.871094 66.164062 90.351562 Z M 66.007812 91.101562 C 65.648438 93.09375 64.976562 94.484375 63.886719 94.484375 C 63.125 94.484375 62.640625 93.78125 62.640625 92.503906 C 62.640625 92.113281 62.671875 91.648438 62.765625 91.101562 Z M 66.007812 91.101562 "/>
<path style="fill:none;stroke-width:1;stroke-linecap:butt;stroke-linejoin:miter;stroke:rgb(0%,0%,0%);stroke-opacity:1;stroke-miterlimit:4;" d="M -0.00114586 -0.00032999 L -42.521497 -0.00032999 " transform="matrix(0.997133,0,0,-0.997133,96.532393,61.296546)"/>
<path style="fill:none;stroke-width:1;stroke-linecap:butt;stroke-linejoin:miter;stroke:rgb(0%,0%,0%);stroke-opacity:1;stroke-miterlimit:4;" d="M -0.00150583 -0.00032999 L -85.038291 -0.00032999 " transform="matrix(0.997133,0,0,-0.997133,192.845252,61.296546)"/>
<path style="fill:none;stroke-width:1;stroke-linecap:butt;stroke-linejoin:miter;stroke:rgb(0%,0%,0%);stroke-opacity:1;stroke-dasharray:4,4;stroke-dashoffset:5.5;stroke-miterlimit:4;" d="M 0.000656568 -0.00145683 C 48.922174 -0.863303 86.592682 -12.545235 85.119709 -26.401369 C 83.646736 -40.253586 43.551306 -51.277381 -5.464231 -51.304803 C -54.479768 -51.332226 -94.731897 -40.355441 -96.404662 -26.503224 C -98.081344 -12.654924 -60.57537 -0.925983 -11.669523 -0.0092918 " transform="matrix(0.997133,0,0,-0.997133,108.038408,35.717297)"/>
<path style="fill:none;stroke-width:1;stroke-linecap:butt;stroke-linejoin:miter;stroke:rgb(0%,0%,0%);stroke-opacity:1;stroke-miterlimit:4;" d="M 0.000709014 -0.000610831 C 0.000709014 -1.469667 -2.584829 -2.656664 -5.777577 -2.656664 C -8.966408 -2.656664 -11.551946 -1.469667 -11.551946 -0.000610831 C -11.551946 1.464527 -8.966408 2.655442 -5.777577 2.655442 C -2.584829 2.655442 0.000709014 1.464527 0.000709014 -0.000610831 Z M 0.000709014 -0.000610831 " transform="matrix(0.997133,0,0,-0.997133,108.050074,18.972047)"/>
<path style="fill:none;stroke-width:1;stroke-linecap:butt;stroke-linejoin:miter;stroke:rgb(0%,0%,0%);stroke-opacity:1;stroke-miterlimit:4;" d="M 0.000709014 0.0015788 C 0.000709014 -1.412632 -2.557407 -2.560455 -5.718815 -2.560455 C -8.880223 -2.560455 -11.438339 -1.412632 -11.438339 0.0015788 C -11.438339 1.419707 -8.880223 2.56753 -5.718815 2.56753 C -2.557407 2.56753 0.000709014 1.419707 0.000709014 0.0015788 Z M 0.000709014 0.0015788 " transform="matrix(0.997133,0,0,-0.997133,108.050074,42.974231)"/>
<path style="fill:none;stroke-width:1;stroke-linecap:butt;stroke-linejoin:miter;stroke:rgb(0%,0%,0%);stroke-opacity:1;stroke-miterlimit:4;" d="M -0.00071213 -0.00190761 L -0.00071213 -11.370441 " transform="matrix(0.997133,0,0,-0.997133,102.28196,106.69341)"/>
<path style=" stroke:none;fill-rule:nonzero;fill:rgb(0%,0%,0%);fill-opacity:1;" d="M 116.863281 115.730469 L 117.890625 107.660156 L 116.597656 107.660156 L 114.105469 112.316406 C 113.75 112.988281 113.40625 113.703125 113.15625 114.3125 L 113.125 114.3125 C 113.109375 113.703125 113.015625 112.972656 112.921875 112.300781 L 112.300781 107.660156 L 111.019531 107.660156 L 108.933594 115.730469 L 109.867188 115.730469 L 110.972656 111.367188 C 111.160156 110.605469 111.410156 109.390625 111.582031 108.640625 L 111.613281 108.640625 C 111.660156 109.46875 111.738281 110.402344 111.863281 111.335938 L 112.46875 115.683594 L 113.234375 115.683594 L 115.617188 111.242188 C 116.070312 110.417969 116.507812 109.46875 116.878906 108.640625 L 116.925781 108.640625 C 116.769531 109.417969 116.597656 110.605469 116.492188 111.367188 L 115.914062 115.730469 Z M 116.863281 115.730469 "/>
<path style="fill:none;stroke-width:1;stroke-linecap:butt;stroke-linejoin:miter;stroke:rgb(0%,0%,0%);stroke-opacity:1;stroke-miterlimit:4;" d="M 0.00118602 0.00163257 L 51.288862 0.00163257 " transform="matrix(0.997133,0,0,-0.997133,76.963661,117.681315)"/>
<path style="fill:none;stroke-width:1;stroke-linecap:butt;stroke-linejoin:miter;stroke:rgb(0%,0%,0%);stroke-opacity:1;stroke-miterlimit:4;" d="M -0.0014797 -0.000760061 L 28.137795 -47.351367 " transform="matrix(0.997133,0,0,-0.997133,54.138194,61.280492)"/>
<path style="fill:none;stroke-width:1;stroke-linecap:butt;stroke-linejoin:miter;stroke:rgb(0%,0%,0%);stroke-opacity:1;stroke-miterlimit:4;" d="M -0.000252774 0.00190557 C -0.000252774 -2.156627 -1.74745 -3.907742 -3.902065 -3.907742 C -6.05668 -3.907742 -7.803877 -2.156627 -7.803877 0.00190557 C -7.803877 2.152603 -6.05668 3.903718 -3.902065 3.903718 C -1.74745 3.903718 -0.000252774 2.152603 -0.000252774 0.00190557 " transform="matrix(0.997133,0,0,-0.997133,80.531502,90.427681)"/>
<path style="fill:none;stroke-width:1;stroke-linecap:butt;stroke-linejoin:miter;stroke:rgb(0%,0%,0%);stroke-opacity:1;stroke-miterlimit:4;" d="M 0.00181786 0.00047093 C 0.00181786 -2.154144 -1.745379 -3.901341 -3.903912 -3.901341 C -6.058527 -3.901341 -7.805724 -2.154144 -7.805724 0.00047093 C -7.805724 2.155086 -6.058527 3.902283 -3.903912 3.902283 C -1.745379 3.902283 0.00181786 2.155086 0.00181786 0.00047093 Z M 0.00181786 0.00047093 " transform="matrix(0.997133,0,0,-0.997133,88.052875,101.449688)"/>
<path style="fill:none;stroke-width:1;stroke-linecap:butt;stroke-linejoin:miter;stroke:rgb(0%,0%,0%);stroke-opacity:1;stroke-miterlimit:4;" d="M -0.000299788 0.000354297 C -0.000299788 -2.154261 -1.747497 -3.901458 -3.902112 -3.901458 C -6.060645 -3.901458 -7.803924 -2.154261 -7.803924 0.000354297 C -7.803924 2.154969 -6.060645 3.902167 -3.902112 3.902167 C -1.747497 3.902167 -0.000299788 2.154969 -0.000299788 0.000354297 Z M -0.000299788 0.000354297 " transform="matrix(0.997133,0,0,-0.997133,172.914361,50.195666)"/>
<path style="fill:none;stroke-width:1;stroke-linecap:butt;stroke-linejoin:miter;stroke:rgb(0%,0%,0%);stroke-opacity:1;stroke-miterlimit:4;" d="M 0.000322834 0.000345629 L 0.000322834 -9.483879 " transform="matrix(0.997133,0,0,-0.997133,102.288741,9.441751)"/>
<path style=" stroke:none;fill-rule:evenodd;fill:rgb(0%,0%,0%);fill-opacity:1;" d="M 102.789062 18.898438 C 102.789062 19.175781 102.566406 19.398438 102.289062 19.398438 C 102.015625 19.398438 101.789062 19.175781 101.789062 18.898438 C 101.789062 18.621094 102.015625 18.398438 102.289062 18.398438 C 102.566406 18.398438 102.789062 18.621094 102.789062 18.898438 "/>
<path style="fill:none;stroke-width:1;stroke-linecap:butt;stroke-linejoin:miter;stroke:rgb(0%,0%,0%);stroke-opacity:1;stroke-miterlimit:4;" d="M 0.00176055 0.0000213299 C 0.00176055 -0.27812 -0.221536 -0.501416 -0.499677 -0.501416 C -0.773901 -0.501416 -1.001115 -0.27812 -1.001115 0.0000213299 C -1.001115 0.278163 -0.773901 0.501459 -0.499677 0.501459 C -0.221536 0.501459 0.00176055 0.278163 0.00176055 0.0000213299 Z M 0.00176055 0.0000213299 " transform="matrix(0.997133,0,0,-0.997133,102.787307,18.898459)"/>
<path style=" stroke:none;fill-rule:evenodd;fill:rgb(0%,0%,0%);fill-opacity:1;" d="M 151.144531 61.296875 C 151.144531 61.679688 150.832031 61.992188 150.449219 61.992188 C 150.0625 61.992188 149.75 61.679688 149.75 61.296875 C 149.75 60.910156 150.0625 60.597656 150.449219 60.597656 C 150.832031 60.597656 151.144531 60.910156 151.144531 61.296875 "/>
<path style="fill:none;stroke-width:1;stroke-linecap:butt;stroke-linejoin:miter;stroke:rgb(0%,0%,0%);stroke-opacity:1;stroke-miterlimit:4;" d="M -0.000327842 -0.00032999 C -0.000327842 -0.384243 -0.313726 -0.697642 -0.69764 -0.697642 C -1.08547 -0.697642 -1.398869 -0.384243 -1.398869 -0.00032999 C -1.398869 0.387501 -1.08547 0.700899 -0.69764 0.700899 C -0.313726 0.700899 -0.000327842 0.387501 -0.000327842 -0.00032999 Z M -0.000327842 -0.00032999 " transform="matrix(0.997133,0,0,-0.997133,151.144858,61.296546)"/>
<path style="fill:none;stroke-width:1;stroke-linecap:butt;stroke-linejoin:miter;stroke:rgb(0%,0%,0%);stroke-opacity:1;stroke-dasharray:4,4;stroke-dashoffset:4.3;stroke-miterlimit:4;" d="M 0.00067405 0.0013124 C 25.479978 -0.64899 44.221213 -5.483163 42.771744 -11.034235 C 41.314441 -16.585307 20.163955 -20.929795 -5.487718 -20.949382 C -31.139392 -20.96897 -52.42699 -16.655822 -54.056662 -11.10475 C -55.682417 -5.557595 -37.093964 -0.695999 -11.638165 -0.01044 " transform="matrix(0.997133,0,0,-0.997133,108.042297,50.876309)"/>
<path style="fill:none;stroke-width:1;stroke-linecap:butt;stroke-linejoin:miter;stroke:rgb(0%,0%,0%);stroke-opacity:1;stroke-miterlimit:4;" d="M -0.00121633 -0.000475454 C 0.0692984 -6.295869 -8.051642 -12.383637 -22.816632 -17.096368 " transform="matrix(0.997133,0,0,-0.997133,192.954338,61.194838)"/>
<path style="fill:none;stroke-width:1;stroke-linecap:butt;stroke-linejoin:miter;stroke:rgb(0%,0%,0%);stroke-opacity:1;stroke-miterlimit:4;" d="M 0.00121821 -0.00017265 C 0.00121821 2.789075 5.11745 5.464715 14.229513 7.439126 " transform="matrix(0.997133,0,0,-0.997133,54.04566,61.261547)"/>
<path style=" stroke:none;fill-rule:nonzero;fill:rgb(0%,0%,0%);fill-opacity:1;" d="M 216.15625 77.511719 L 217.152344 77.511719 L 217.839844 73.867188 L 220.691406 73.867188 L 220.863281 73.007812 L 217.996094 73.007812 L 218.523438 70.296875 L 221.625 70.296875 L 221.78125 69.441406 L 217.683594 69.441406 Z M 216.15625 77.511719 "/>
<path style="fill:none;stroke-width:1;stroke-linecap:butt;stroke-linejoin:miter;stroke:rgb(0%,0%,0%);stroke-opacity:1;stroke-miterlimit:4;" d="M -0.0013436 -0.000746758 L 14.003655 -23.779863 " transform="matrix(0.997133,0,0,-0.997133,192.903683,61.456287)"/>
<path style="fill:none;stroke-width:1;stroke-linecap:butt;stroke-linejoin:miter;stroke:rgb(0%,0%,0%);stroke-opacity:1;stroke-miterlimit:4;" d="M 0.000997099 -0.00180943 C 0.000997099 -2.156425 -1.7462 -3.899704 -3.900815 -3.899704 C -6.059348 -3.899704 -7.806545 -2.156425 -7.806545 -0.00180943 C -7.806545 2.156723 -6.059348 3.90392 -3.900815 3.90392 C -1.7462 3.90392 0.000997099 2.156723 0.000997099 -0.00180943 Z M 0.000997099 -0.00180943 " transform="matrix(0.997133,0,0,-0.997133,214.092756,79.478665)"/>
<path style="fill:none;stroke-width:1;stroke-linecap:butt;stroke-linejoin:miter;stroke:rgb(0%,0%,0%);stroke-opacity:1;stroke-miterlimit:4;" d="M 0.000709014 -0.000849149 C -0.84155 -2.813601 -4.849134 -2.676489 -7.242715 -2.555048 C -8.774451 -2.292576 -11.230712 -1.92825 -11.551946 -0.0713638 " transform="matrix(0.997133,0,0,-0.997133,108.050074,103.620247)"/>
</g>
</svg>
