<?xml version="1.0" encoding="UTF-8"?>
<svg xmlns="http://www.w3.org/2000/svg" xmlns:xlink="http://www.w3.org/1999/xlink" width="114pt" height="87pt" viewBox="0 0 114 87" version="1.2">
<g id="surface1">
<path style="fill:none;stroke-width:6;stroke-linecap:round;stroke-linejoin:miter;stroke:rgb(13.725281%,12.156677%,12.548828%);stroke-opacity:1;stroke-miterlimit:4;" d="M -57 -57 C -39 -57 -21 -57 -3 -57 " transform="matrix(-1,0,0,-1,0,0)"/>
<path style="fill:none;stroke-width:6;stroke-linecap:round;stroke-linejoin:miter;stroke:rgb(13.725281%,12.156677%,12.548828%);stroke-opacity:1;stroke-miterlimit:4;" d="M 30 -30 C 48 -30 66 -30 84 -30 " transform="matrix(0,1,-1,0,0,0)"/>
<path style="fill:none;stroke-width:6;stroke-linecap:round;stroke-linejoin:miter;stroke:rgb(13.725281%,12.156677%,12.548828%);stroke-opacity:1;stroke-miterlimit:4;" d="M 3 -30 C 12 -30 21 -30 30 -30 " transform="matrix(0,1,-1,0,0,0)"/>
<path style="fill:none;stroke-width:6;stroke-linecap:round;stroke-linejoin:miter;stroke:rgb(13.725281%,12.156677%,12.548828%);stroke-opacity:1;stroke-miterlimit:4;" d="M -30 111 L -30 3 " transform="matrix(0,-1,1,0,0,0)"/>
<path style="fill:none;stroke-width:6;stroke-linecap:round;stroke-linejoin:miter;stroke:rgb(13.725281%,12.156677%,12.548828%);stroke-opacity:1;stroke-miterlimit:4;" d="M -57 84.027344 L -3 84.027344 " transform="matrix(0,-1,1,0,0,0)"/>
</g>
</svg>
