<?xml version="1.0" encoding="UTF-8"?>
<svg xmlns="http://www.w3.org/2000/svg" xmlns:xlink="http://www.w3.org/1999/xlink" width="60pt" height="87.027pt" viewBox="0 0 60 87.027" version="1.2">
<defs>
<clipPath id="clip1">
  <path d="M 0.332031 53 L 59.667969 53 L 59.667969 60 L 0.332031 60 Z M 0.332031 53 "/>
</clipPath>
<clipPath id="clip2">
  <path d="M 0.332031 80 L 59.667969 80 L 59.667969 86.066406 L 0.332031 86.066406 Z M 0.332031 80 "/>
</clipPath>
<clipPath id="clip3">
  <path d="M 27 53 L 33 53 L 33 86.066406 L 27 86.066406 Z M 27 53 "/>
</clipPath>
<clipPath id="clip4">
  <path d="M 0.332031 26 L 59.667969 26 L 59.667969 33 L 0.332031 33 Z M 0.332031 26 "/>
</clipPath>
</defs>
<g id="surface1">
<g clip-path="url(#clip1)" clip-rule="nonzero">
<path style="fill:none;stroke-width:6;stroke-linecap:round;stroke-linejoin:miter;stroke:rgb(13.725281%,12.156677%,12.548828%);stroke-opacity:1;stroke-miterlimit:4;" d="M 2.998322 57.001347 L 57.001678 57.001347 " transform="matrix(0.988943,0,0,0.988943,0.331705,0)"/>
</g>
<g clip-path="url(#clip2)" clip-rule="nonzero">
<path style="fill:none;stroke-width:6;stroke-linecap:round;stroke-linejoin:miter;stroke:rgb(13.725281%,12.156677%,12.548828%);stroke-opacity:1;stroke-miterlimit:4;" d="M 2.998322 84.026724 L 57.001678 84.026724 " transform="matrix(0.988943,0,0,0.988943,0.331705,0)"/>
</g>
<path style="fill:none;stroke-width:6;stroke-linecap:round;stroke-linejoin:miter;stroke:rgb(13.725281%,12.156677%,12.548828%);stroke-opacity:1;stroke-miterlimit:4;" d="M 3.001942 -30 L 57.001347 -30 " transform="matrix(0,0.988943,-0.988943,0,0.331705,0)"/>
<g clip-path="url(#clip3)" clip-rule="nonzero">
<path style="fill:none;stroke-width:6;stroke-linecap:round;stroke-linejoin:miter;stroke:rgb(13.725281%,12.156677%,12.548828%);stroke-opacity:1;stroke-miterlimit:4;" d="M 57.025047 -30 L 84.026724 -30 " transform="matrix(0,0.988943,-0.988943,0,0.331705,0)"/>
</g>
<g clip-path="url(#clip4)" clip-rule="nonzero">
<path style="fill:none;stroke-width:6;stroke-linecap:round;stroke-linejoin:miter;stroke:rgb(13.725281%,12.156677%,12.548828%);stroke-opacity:1;stroke-miterlimit:4;" d="M 2.998322 29.99967 L 57.001678 29.99967 " transform="matrix(0.988943,0,0,0.988943,0.331705,0)"/>
</g>
</g>
</svg>
