<?xml version="1.0" encoding="UTF-8"?>
<svg xmlns="http://www.w3.org/2000/svg" xmlns:xlink="http://www.w3.org/1999/xlink" width="168pt" height="87pt" viewBox="0 0 168 87" version="1.2">
<g id="surface1">
<path style="fill:none;stroke-width:6;stroke-linecap:round;stroke-linejoin:miter;stroke:rgb(13.725281%,12.156677%,12.548828%);stroke-opacity:1;stroke-miterlimit:4;" d="M -57 -138.027344 L -3 -138.027344 " transform="matrix(0,-1,-1,0,0,0)"/>
<path style="fill:none;stroke-width:6;stroke-linecap:round;stroke-linejoin:miter;stroke:rgb(13.725281%,12.156677%,12.548828%);stroke-opacity:1;stroke-miterlimit:4;" d="M 3 84 C 12 84 21 84 30 84 " transform="matrix(0,1,1,0,0,0)"/>
<path style="fill:none;stroke-width:6;stroke-linecap:round;stroke-linejoin:miter;stroke:rgb(13.725281%,12.156677%,12.548828%);stroke-opacity:1;stroke-miterlimit:4;" d="M 30 84 C 48 84 66 84 84 84 " transform="matrix(0,1,1,0,0,0)"/>
<path style="fill:none;stroke-width:6;stroke-linecap:round;stroke-linejoin:miter;stroke:rgb(13.725281%,12.156677%,12.548828%);stroke-opacity:1;stroke-miterlimit:4;" d="M -84 30 C -75 30 -66 30 -57 30 " transform="matrix(-1,0,0,1,0,0)"/>
<path style="fill:none;stroke-width:6;stroke-linecap:round;stroke-linejoin:miter;stroke:rgb(13.725281%,12.156677%,12.548828%);stroke-opacity:1;stroke-miterlimit:4;" d="M -57 30 C -39 30 -21 30 -3 30 " transform="matrix(-1,0,0,1,0,0)"/>
<path style="fill:none;stroke-width:6;stroke-linecap:round;stroke-linejoin:miter;stroke:rgb(13.725281%,12.156677%,12.548828%);stroke-opacity:1;stroke-miterlimit:4;" d="M -165 30 C -156 30 -147 30 -138 30 " transform="matrix(-1,0,0,1,0,0)"/>
<path style="fill:none;stroke-width:6;stroke-linecap:round;stroke-linejoin:miter;stroke:rgb(13.725281%,12.156677%,12.548828%);stroke-opacity:1;stroke-miterlimit:4;" d="M -138 30 C -120 30 -102 30 -84 30 " transform="matrix(-1,0,0,1,0,0)"/>
</g>
</svg>
