<?xml version="1.0" encoding="UTF-8"?>
<svg xmlns="http://www.w3.org/2000/svg" xmlns:xlink="http://www.w3.org/1999/xlink" width="114pt" height="87pt" viewBox="0 0 114 87" version="1.2">
<g id="surface1">
<path style="fill:none;stroke-width:6;stroke-linecap:round;stroke-linejoin:miter;stroke:rgb(13.725281%,12.156677%,12.548828%);stroke-opacity:1;stroke-miterlimit:4;" d="M 30 84 C 48 84 66 84 84 84 " transform="matrix(0,1,1,0,0,0)"/>
<path style="fill:none;stroke-width:6;stroke-linecap:round;stroke-linejoin:miter;stroke:rgb(13.725281%,12.156677%,12.548828%);stroke-opacity:1;stroke-miterlimit:4;" d="M 3 84 C 12 84 21 84 30 84 " transform="matrix(0,1,1,0,0,0)"/>
<path style="fill:none;stroke-width:6;stroke-linecap:round;stroke-linejoin:miter;stroke:rgb(13.725281%,12.156677%,12.548828%);stroke-opacity:1;stroke-miterlimit:4;" d="M -30 -3 L -30 -111 " transform="matrix(0,-1,-1,0,0,0)"/>
<path style="fill:none;stroke-width:6;stroke-linecap:round;stroke-linejoin:miter;stroke:rgb(13.725281%,12.156677%,12.548828%);stroke-opacity:1;stroke-miterlimit:4;" d="M -57 -29.972656 L -3 -29.972656 " transform="matrix(0,-1,-1,0,0,0)"/>
<path style="fill:none;stroke-width:6;stroke-linecap:round;stroke-linejoin:miter;stroke:rgb(13.725281%,12.156677%,12.548828%);stroke-opacity:1;stroke-miterlimit:4;" d="M 57.027344 -57 L 111.027344 -57 " transform="matrix(1,0,0,-1,0,0)"/>
</g>
</svg>
