<!-- Generator: Adobe Illustrator 23.0.3, SVG Export Plug-In . SVG Version: 6.00 Build 0)  --><svg xmlns="http://www.w3.org/2000/svg" xmlns:xlink="http://www.w3.org/1999/xlink" version="1.1" id="Ebene_1" x="0px" y="0px" viewBox="0 0 310.19 228.33" style="enable-background:new 0 0 310.19 228.33;" xml:space="preserve">
<style type="text/css">
	.st0{font-family:'MyriadPro-Regular';}
	.st1{font-size:8px;}
	.st2{fill:none;stroke:#000000;stroke-width:0.5;stroke-linecap:round;stroke-linejoin:round;stroke-miterlimit:10;}
	.st3{stroke:#000000;stroke-width:0.5;stroke-linecap:round;stroke-linejoin:round;stroke-miterlimit:10;}
</style>
<text transform="matrix(1 0 0 1 3.188 16.879)" class="st0 st1">34</text>
<line class="st2" x1="3.19" y1="21.02" x2="13.15" y2="21.02"/>
<text transform="matrix(1 0 0 1 3.188 30.6759)" class="st0 st1">21</text>
<text transform="matrix(1 0 0 1 24.5649 23.5699)" class="st0 st1">1</text>
<text transform="matrix(1 0 0 1 31.5132 23.5699)" class="st0 st1">+</text>
<text transform="matrix(1 0 0 1 40.6631 16.879)" class="st0 st1">13</text>
<line class="st2" x1="40.66" y1="21.02" x2="50.63" y2="21.02"/>
<text transform="matrix(1 0 0 1 40.6631 30.6759)" class="st0 st1">21</text>
<text transform="matrix(1 0 0 1 62.979 16.879)" class="st0 st1">35</text>
<line class="st2" x1="62.98" y1="21.02" x2="72.94" y2="21.02"/>
<text transform="matrix(1 0 0 1 62.979 30.6759)" class="st0 st1">21</text>
<text transform="matrix(1 0 0 1 86.3052 6.6959)" class="st0 st1">14</text>
<text transform="matrix(1 0 0 1 85.2954 16.879)" class="st0 st1">3</text>
<text transform="matrix(1 0 0 1 90.2773 16.879)" class="st0 st1">4</text>
<line class="st2" x1="85.3" y1="21.02" x2="95.26" y2="21.02"/>
<text transform="matrix(1 0 0 1 85.2954 30.7847)" class="st0 st1">2</text>
<text transform="matrix(1 0 0 1 90.2773 30.7847)" class="st0 st1">1</text>
<text transform="matrix(1 0 0 1 113.314 23.5699)" class="st0 st1">1</text>
<text transform="matrix(1 0 0 1 119.4912 16.879)" class="st0 st1">14</text>
<line class="st2" x1="119.49" y1="21.02" x2="129.45" y2="21.02"/>
<text transform="matrix(1 0 0 1 119.4912 30.6759)" class="st0 st1">21</text>
<text id="_x5B_sic_x21_..." transform="matrix(1 0 0 1 133.9702 23.5699)" class="st0 st1">[sic!]</text>
<text transform="matrix(1 0 0 1 216.5015 16.879)" class="st0 st1">999</text>
<text transform="matrix(1 0 0 1 216.5015 30.6759)" class="st0 st1">999</text>
<text transform="matrix(1 0 0 1 289.02 16.879)" class="st0 st1">333</text>
<text transform="matrix(1 0 0 1 289.02 30.6759)" class="st0 st1">333</text>
<line class="st2" x1="289.02" y1="32.24" x2="303.96" y2="32.24"/>
<text transform="matrix(1 0 0 1 114.9476 48.8629)" class="st0 st1">1</text>
<text transform="matrix(1 0 0 1 123.7559 43.3739)" class="st0 st1">2</text>
<line class="st2" x1="123.32" y1="46.32" x2="128.3" y2="46.32"/>
<text transform="matrix(1 0 0 1 123.7559 54.5265)" class="st0 st1">3</text>
<text transform="matrix(1 0 0 1 210.856 42.172)" class="st0 st1">999</text>
<text transform="matrix(1 0 0 1 210.856 55.9688)" class="st0 st1">333</text>
<text transform="matrix(1 0 0 1 238.4106 42.172)" class="st0 st1">3</text>
<line class="st2" x1="238.41" y1="46.32" x2="243.39" y2="46.32"/>
<text transform="matrix(1 0 0 1 238.4106 55.9688)" class="st0 st1">1</text>
<text transform="matrix(1 0 0 1 265.7075 42.172)" class="st0 st1">9</text>
<line class="st2" x1="265.71" y1="46.32" x2="270.69" y2="46.32"/>
<text transform="matrix(1 0 0 1 265.7075 55.9688)" class="st0 st1">1</text>
<text transform="matrix(1 0 0 1 289.3521 42.172)" class="st0 st1">999</text>
<text transform="matrix(1 0 0 1 287.6909 55.9688)" class="st0 st1">999</text>
<line class="st2" x1="113.31" y1="56.96" x2="134.04" y2="56.96"/>
<text transform="matrix(1 0 0 1 114.9476 64.9469)" class="st0 st1">5</text>
<line class="st2" x1="114.51" y1="69.09" x2="119.49" y2="69.09"/>
<text transform="matrix(1 0 0 1 114.9476 78.7447)" class="st0 st1">3</text>
<text transform="matrix(1 0 0 1 123.7559 64.9469)" class="st0 st1">25</text>
<line class="st2" x1="122.88" y1="69.09" x2="132.84" y2="69.09"/>
<text transform="matrix(1 0 0 1 125.8076 78.7447)" class="st0 st1">9</text>
<text transform="matrix(1 0 0 1 159.4722 71.6387)" class="st0 st1">ƒ</text>
<text transform="matrix(1 0 0 1 230.3159 48.8629)" class="st0 st1">ƒ</text>
<text transform="matrix(1 0 0 1 99.7739 23.5701)" class="st0 st1">ƒ</text>
<text transform="matrix(1 0 0 1 17.667 23.5701)" class="st0 st1">ƒ</text>
<text transform="matrix(1 0 0 1 166.3701 71.6387)" class="st0 st1">2</text>
<text transform="matrix(1 0 0 1 172.5474 64.9469)" class="st0 st1">7</text>
<line class="st2" x1="172.55" y1="69.09" x2="177.53" y2="69.09"/>
<text transform="matrix(1 0 0 1 172.5474 78.7447)" class="st0 st1">9</text>
<text transform="matrix(1 0 0 1 183.2397 64.9469)" class="st0 st1">A</text>
<text transform="matrix(0.7 0 0 0.7 188.1362 62.2828)" class="st0 st1">2</text>
<line class="st2" x1="183.24" y1="69.09" x2="195.18" y2="69.09"/>
<text transform="matrix(1 0 0 1 183.4478 79.6397)" class="st0 st1">B</text>
<text transform="matrix(0.7 0 0 0.7 187.7837 76.9757)" class="st0 st1">2</text>
<text transform="matrix(1 0 0 1 287.5249 64.9469)" class="st0 st1">999</text>
<line class="st2" x1="280.05" y1="69.09" x2="309.94" y2="69.09"/>
<text transform="matrix(1 0 0 1 280.0532 78.7447)" class="st0 st1">110889</text>
<text transform="matrix(1 0 0 1 0 110.6368)" class="st0 st1">1</text>
<text transform="matrix(1 0 0 1 6.9492 110.6368)" class="st0 st1">+</text>
<text transform="matrix(1 0 0 1 16.0981 103.9449)" class="st0 st1">13</text>
<line class="st2" x1="16.1" y1="108.09" x2="26.06" y2="108.09"/>
<text transform="matrix(1 0 0 1 16.0981 117.7428)" class="st0 st1">21</text>
<text transform="matrix(1 0 0 1 36.8872 110.6368)" class="st0 st1">1</text>
<text transform="matrix(1 0 0 1 43.835 110.6368)" class="st0 st1">+</text>
<text transform="matrix(1 0 0 1 52.9854 103.9449)" class="st0 st1">13</text>
<line class="st2" x1="52.99" y1="108.09" x2="62.95" y2="108.09"/>
<text transform="matrix(1 0 0 1 52.9854 117.7428)" class="st0 st1">21</text>
<text transform="matrix(1 0 0 1 74.9692 103.9449)" class="st0 st1">34</text>
<line class="st2" x1="74.97" y1="108.09" x2="84.93" y2="108.09"/>
<text transform="matrix(1 0 0 1 74.9692 117.7428)" class="st0 st1">21</text>
<text transform="matrix(1 0 0 1 98.1489 92.7257)" class="st0 st1">13</text>
<text transform="matrix(1 0 0 1 98.1489 106.523)" class="st0 st1">13</text>
<line class="st2" x1="96.95" y1="108.09" x2="109.31" y2="108.09"/>
<text transform="matrix(1 0 0 1 100.6392 117.7428)" class="st0 st1">9</text>
<text transform="matrix(1 0 0 1 1.9922 143.189)" class="st0 st1">1</text>
<text transform="matrix(1 0 0 1 8.9409 143.189)" class="st0 st1">+</text>
<text transform="matrix(1 0 0 1 18.0903 136.4981)" class="st0 st1">13</text>
<line class="st2" x1="18.09" y1="140.64" x2="28.05" y2="140.64"/>
<text transform="matrix(1 0 0 1 18.0903 150.295)" class="st0 st1">21</text>
<text transform="matrix(1 0 0 1 66.5093 143.189)" class="st0 st1">1</text>
<text transform="matrix(1 0 0 1 81.6523 136.4981)" class="st0 st1">13</text>
<line class="st2" x1="81.65" y1="140.64" x2="91.62" y2="140.64"/>
<text transform="matrix(1 0 0 1 81.6523 150.295)" class="st0 st1">21</text>
<text transform="matrix(1 0 0 1 110.3452 136.4981)" class="st0 st1">13</text>
<text transform="matrix(1 0 0 1 110.3452 150.295)" class="st0 st1">13</text>
<line class="st2" x1="110.35" y1="151.86" x2="120.31" y2="151.86"/>
<text transform="matrix(1 0 0 1 66.5093 165.647)" class="st0 st1">1</text>
<text transform="matrix(1 0 0 1 81.6523 158.9561)" class="st0 st1">13</text>
<line class="st2" x1="81.65" y1="163.1" x2="91.62" y2="163.1"/>
<text transform="matrix(1 0 0 1 81.6523 172.753)" class="st0 st1">21</text>
<line class="st2" x1="66.51" y1="174.32" x2="94.8" y2="174.32"/>
<text transform="matrix(1 0 0 1 110.3452 158.9561)" class="st0 st1">39</text>
<text transform="matrix(1 0 0 1 4.0657 182.8315)" class="st0 st1">26</text>
<line class="st2" x1="3.19" y1="185.56" x2="13.15" y2="185.56"/>
<text transform="matrix(1 0 0 1 4.0657 193.7937)" class="st0 st1">42</text>
<text transform="matrix(1 0 0 1 41.7234 182.8315)" class="st0 st1">169</text>
<line class="st2" x1="40.41" y1="185.56" x2="55.35" y2="185.56"/>
<text transform="matrix(1 0 0 1 41.7234 193.7937)" class="st0 st1">441</text>
<text transform="matrix(1 0 0 1 68.5819 182.8315)" class="st0 st1">13</text>
<line class="st2" x1="67.7" y1="185.56" x2="77.67" y2="185.56"/>
<text transform="matrix(1 0 0 1 68.5819 193.7937)" class="st0 st1">21</text>
<text transform="matrix(1 0 0 1 83.0474 182.8315)" class="st0 st1">169</text>
<line class="st2" x1="83.05" y1="185.56" x2="97.99" y2="185.56"/>
<text transform="matrix(1 0 0 1 83.0474 193.7937)" class="st0 st1">441</text>
<text transform="matrix(1 0 0 1 113.7134 182.8315)" class="st0 st1">13</text>
<line class="st2" x1="110.35" y1="185.56" x2="125.29" y2="185.56"/>
<text transform="matrix(1 0 0 1 111.6614 193.7937)" class="st0 st1">169</text>
<line class="st2" x1="110.35" y1="196.78" x2="125.29" y2="196.78"/>
<text transform="matrix(1 0 0 1 141.5087 182.8315)" class="st0 st1">21</text>
<text transform="matrix(1 0 0 1 141.5087 193.7937)" class="st0 st1">21</text>
<line class="st2" x1="140.63" y1="196.78" x2="150.59" y2="196.78"/>
<text transform="matrix(1 0 0 1 68.5819 203.8721)" class="st0 st1">13</text>
<line class="st2" x1="67.7" y1="208.02" x2="77.67" y2="208.02"/>
<text transform="matrix(1 0 0 1 68.5819 217.669)" class="st0 st1">21</text>
<line class="st2" x1="66.51" y1="219.24" x2="90.82" y2="219.24"/>
<text transform="matrix(1 0 0 1 141.5087 203.8721)" class="st0 st1">21</text>
<text transform="matrix(1 0 0 1 138.5197 217.669)" class="st0 st1">42</text>
<line class="st2" x1="137.64" y1="219.24" x2="147.61" y2="219.24"/>
<text transform="matrix(1 0 0 1 136.4679 226.3302)" class="st0 st1">441</text>
<line class="st3" x1="85.3" y1="18.76" x2="89.78" y2="9.32"/>
<line class="st3" x1="90.28" y1="18.76" x2="94.76" y2="9.32"/>
<line class="st3" x1="85.3" y1="32.45" x2="89.78" y2="23.02"/>
<line class="st3" x1="90.28" y1="32.45" x2="94.76" y2="23.02"/>
</svg>