<!-- Generator: Adobe Illustrator 23.0.3, SVG Export Plug-In . SVG Version: 6.00 Build 0)  --><svg xmlns="http://www.w3.org/2000/svg" xmlns:xlink="http://www.w3.org/1999/xlink" version="1.1" id="Ebene_1" x="0px" y="0px" viewBox="0 0 362.08 185" style="enable-background:new 0 0 362.08 185;" xml:space="preserve">
<style type="text/css">
	.st0{font-family:'MyriadPro-Regular';}
	.st1{font-size:9.0049px;}
	.st2{letter-spacing:25;}
	.st3{letter-spacing:49;}
	.st4{letter-spacing:19;}
	.st5{letter-spacing:47;}
	.st6{letter-spacing:17;}
	.st7{letter-spacing:10;}
	.st8{font-family:'MyriadPro-It';}
	.st9{fill:none;stroke:#000000;stroke-width:0.448;stroke-miterlimit:10;}
	.st10{letter-spacing:2;}
	.st11{letter-spacing:8;}
	.st12{letter-spacing:55;}
	.st13{letter-spacing:50;}
	.st14{letter-spacing:30;}
	.st15{letter-spacing:56;}
	.st16{font-size:6.3034px;}
	.st17{letter-spacing:3;}
	.st18{fill:none;stroke:#000000;stroke-width:0.5;stroke-linecap:round;stroke-linejoin:round;stroke-miterlimit:10;}
</style>
<text transform="matrix(1 0 0 1 264.5933 7.5371)" class="st0 st1">16</text>
<text transform="matrix(1 0 0 1 252.4229 21.623)" class="st0 st1">8</text>
<path d="M257.15,13.15h-0.17c-0.01,0-0.03-0.02-0.03-0.03v-0.34c0-0.01,0-0.01,0.01-0.02c0.68-1.42,2.31-2,3.91-2h0.77  c0.02,0,0.03,0.01,0.03,0.03v0.68c0,0.02-0.01,0.03-0.03,0.03h-0.77C257.58,11.5,257.23,13.15,257.15,13.15z M261.18,10.77h1  c0.02,0,0.03,0.01,0.03,0.03v0.68c0,0.02-0.01,0.03-0.03,0.03h-1c-0.02,0-0.03-0.01-0.03-0.03v-0.68  C261.15,10.78,261.16,10.77,261.18,10.77z M261.67,10.77h1c0.02,0,0.03,0.01,0.03,0.03v0.68c0,0.02-0.01,0.03-0.03,0.03h-1  c-0.02,0-0.03-0.01-0.03-0.03v-0.68C261.65,10.78,261.66,10.77,261.67,10.77z M262.17,10.77h1c0.02,0,0.03,0.01,0.03,0.03v0.68  c0,0.02-0.01,0.03-0.03,0.03h-1c-0.02,0-0.03-0.01-0.03-0.03v-0.68C262.15,10.78,262.16,10.77,262.17,10.77z M262.67,10.77h1  c0.02,0,0.03,0.01,0.03,0.03v0.68c0,0.02-0.01,0.03-0.03,0.03h-1c-0.02,0-0.03-0.01-0.03-0.03v-0.68  C262.65,10.78,262.66,10.77,262.67,10.77z M263.17,10.77h1c0.02,0,0.03,0.01,0.03,0.03v0.68c0,0.02-0.01,0.03-0.03,0.03h-1  c-0.02,0-0.03-0.01-0.03-0.03v-0.68C263.15,10.78,263.16,10.77,263.17,10.77z M263.67,10.77h1c0.02,0,0.03,0.01,0.03,0.03v0.68  c0,0.02-0.01,0.03-0.03,0.03h-1c-0.02,0-0.03-0.01-0.03-0.03v-0.68C263.65,10.78,263.66,10.77,263.67,10.77z M264.17,10.77h1  c0.02,0,0.03,0.01,0.03,0.03v0.68c0,0.02-0.01,0.03-0.03,0.03h-1c-0.02,0-0.03-0.01-0.03-0.03v-0.68  C264.15,10.78,264.16,10.77,264.17,10.77z M264.67,10.77h1c0.02,0,0.03,0.01,0.03,0.03v0.68c0,0.02-0.01,0.03-0.03,0.03h-1  c-0.02,0-0.03-0.01-0.03-0.03v-0.68C264.65,10.78,264.66,10.77,264.67,10.77z M265.17,10.77h1c0.02,0,0.03,0.01,0.03,0.03v0.68  c0,0.02-0.01,0.03-0.03,0.03h-1c-0.02,0-0.03-0.01-0.03-0.03v-0.68C265.15,10.78,265.16,10.77,265.17,10.77z M265.67,10.77h1  c0.02,0,0.03,0.01,0.03,0.03v0.68c0,0.02-0.01,0.03-0.03,0.03h-1c-0.02,0-0.03-0.01-0.03-0.03v-0.68  C265.65,10.78,265.65,10.77,265.67,10.77z M266.17,10.77h1c0.02,0,0.03,0.01,0.03,0.03v0.68c0,0.02-0.01,0.03-0.03,0.03h-1  c-0.02,0-0.03-0.01-0.03-0.03v-0.68C266.15,10.78,266.15,10.77,266.17,10.77z M266.67,10.77h1c0.02,0,0.03,0.01,0.03,0.03v0.68  c0,0.02-0.01,0.03-0.03,0.03h-1c-0.02,0-0.03-0.01-0.03-0.03v-0.68C266.65,10.78,266.65,10.77,266.67,10.77z M267.17,10.77h1  c0.02,0,0.03,0.01,0.03,0.03v0.68c0,0.02-0.01,0.03-0.03,0.03h-1c-0.02,0-0.03-0.01-0.03-0.03v-0.68  C267.15,10.78,267.15,10.77,267.17,10.77z M267.67,10.77h1c0.02,0,0.03,0.01,0.03,0.03v0.68c0,0.02-0.01,0.03-0.03,0.03h-1  c-0.02,0-0.03-0.01-0.03-0.03v-0.68C267.64,10.78,267.65,10.77,267.67,10.77z M268.18,10.77h1c0.02,0,0.03,0.01,0.03,0.03v0.68  c0,0.02-0.01,0.03-0.03,0.03h-1c-0.02,0-0.03-0.01-0.03-0.03v-0.68C268.15,10.78,268.16,10.77,268.18,10.77z M268.68,10.77h1  c0.02,0,0.03,0.01,0.03,0.03v0.68c0,0.02-0.01,0.03-0.03,0.03h-1c-0.02,0-0.03-0.01-0.03-0.03v-0.68  C268.65,10.78,268.66,10.77,268.68,10.77z M269.18,10.77h1c0.02,0,0.03,0.01,0.03,0.03v0.68c0,0.02-0.01,0.03-0.03,0.03h-1  c-0.02,0-0.03-0.01-0.03-0.03v-0.68C269.15,10.78,269.16,10.77,269.18,10.77z M270.18,10.77h1c0.02,0,0.03,0.01,0.03,0.03v0.68  c0,0.02-0.01,0.03-0.03,0.03h-1c-0.02,0-0.03-0.01-0.03-0.03v-0.68C270.15,10.78,270.16,10.77,270.18,10.77z M270.67,10.77h1  c0.02,0,0.03,0.01,0.03,0.03v0.68c0,0.02-0.01,0.03-0.03,0.03h-1c-0.02,0-0.03-0.01-0.03-0.03v-0.68  C270.65,10.78,270.66,10.77,270.67,10.77z M271.17,10.77h1c0.02,0,0.03,0.01,0.03,0.03v0.68c0,0.02-0.01,0.03-0.03,0.03h-1  c-0.02,0-0.03-0.01-0.03-0.03v-0.68C271.15,10.78,271.16,10.77,271.17,10.77z M271.67,10.77h1c0.02,0,0.03,0.01,0.03,0.03v0.68  c0,0.02-0.01,0.03-0.03,0.03h-1c-0.02,0-0.03-0.01-0.03-0.03v-0.68C271.65,10.78,271.66,10.77,271.67,10.77z M272.17,10.77h1  c0.02,0,0.03,0.01,0.03,0.03v0.68c0,0.02-0.01,0.03-0.03,0.03h-1c-0.02,0-0.03-0.01-0.03-0.03v-0.68  C272.15,10.78,272.16,10.77,272.17,10.77z M272.67,10.77h1c0.02,0,0.03,0.01,0.03,0.03v0.68c0,0.02-0.01,0.03-0.03,0.03h-1  c-0.02,0-0.03-0.01-0.03-0.03v-0.68C272.65,10.78,272.66,10.77,272.67,10.77z M273.17,10.77h1c0.02,0,0.03,0.01,0.03,0.03v0.68  c0,0.02-0.01,0.03-0.03,0.03h-1c-0.02,0-0.03-0.01-0.03-0.03v-0.68C273.15,10.78,273.16,10.77,273.17,10.77z M273.67,10.77h1  c0.02,0,0.03,0.01,0.03,0.03v0.68c0,0.02-0.01,0.03-0.03,0.03h-1c-0.02,0-0.03-0.01-0.03-0.03v-0.68  C273.65,10.78,273.66,10.77,273.67,10.77z M274.18,10.77h1c0.02,0,0.03,0.01,0.03,0.03v0.68c0,0.02-0.01,0.03-0.03,0.03h-1  c-0.02,0-0.03-0.01-0.03-0.03v-0.68C274.15,10.78,274.16,10.77,274.18,10.77z M274.68,10.77h1c0.02,0,0.03,0.01,0.03,0.03v0.68  c0,0.02-0.01,0.03-0.03,0.03h-1c-0.02,0-0.03-0.01-0.03-0.03v-0.68C274.65,10.78,274.66,10.77,274.68,10.77z M275.18,10.77h1  c0.02,0,0.03,0.01,0.03,0.03v0.68c0,0.02-0.01,0.03-0.03,0.03h-1c-0.02,0-0.03-0.01-0.03-0.03v-0.68  C275.15,10.78,275.16,10.77,275.18,10.77z M275.68,10.77h1c0.02,0,0.03,0.01,0.03,0.03v0.68c0,0.02-0.01,0.03-0.03,0.03h-1  c-0.02,0-0.03-0.01-0.03-0.03v-0.68C275.65,10.78,275.66,10.77,275.68,10.77z M276.18,10.77h1c0.02,0,0.03,0.01,0.03,0.03v0.68  c0,0.02-0.01,0.03-0.03,0.03h-1c-0.02,0-0.03-0.01-0.03-0.03v-0.68C276.15,10.78,276.16,10.77,276.18,10.77z M276.68,10.77h1  c0.02,0,0.03,0.01,0.03,0.03v0.68c0,0.02-0.01,0.03-0.03,0.03h-1c-0.02,0-0.03-0.01-0.03-0.03v-0.68  C276.65,10.78,276.66,10.77,276.68,10.77z M277.18,10.77h1c0.02,0,0.03,0.01,0.03,0.03v0.68c0,0.02-0.01,0.03-0.03,0.03h-1  c-0.02,0-0.03-0.01-0.03-0.03v-0.68C277.15,10.78,277.16,10.77,277.18,10.77z M277.68,10.77h1c0.02,0,0.03,0.01,0.03,0.03v0.68  c0,0.02-0.01,0.03-0.03,0.03h-1c-0.02,0-0.03-0.01-0.03-0.03v-0.68C277.65,10.78,277.66,10.77,277.68,10.77z M278.18,10.77h1  c0.02,0,0.03,0.01,0.03,0.03v0.68c0,0.02-0.01,0.03-0.03,0.03h-1c-0.02,0-0.03-0.01-0.03-0.03v-0.68  C278.15,10.78,278.16,10.77,278.18,10.77z M283.51,12.77c0,0.01,0.01,0.01,0.01,0.02v0.34c0,0.01-0.02,0.03-0.03,0.03h-0.17  c-0.02,0-0.03-0.01-0.03-0.02c-0.61-1.3-2.2-1.64-3.7-1.64h-0.76c-0.02,0-0.03-0.01-0.03-0.03v-0.68c0-0.02,0.01-0.03,0.03-0.03  h0.76C281.2,10.77,282.83,11.34,283.51,12.77z"/>
<text transform="matrix(1 0 0 1 17.9844 33.5103)" class="st0 st1">8</text>
<path d="M22.71,27.1h-0.17c-0.01,0-0.03-0.02-0.03-0.03v-0.34c0-0.01,0-0.01,0.01-0.02c0.68-1.42,2.31-2,3.91-2h0.77  c0.02,0,0.03,0.01,0.03,0.03v0.68c0,0.02-0.01,0.03-0.03,0.03h-0.77C23.15,25.45,22.79,27.1,22.71,27.1z M31.46,26.72  c0,0.01,0.01,0.01,0.01,0.02v0.34c0,0.01-0.02,0.03-0.03,0.03h-0.17c-0.02,0-0.03-0.01-0.03-0.02c-0.61-1.3-2.2-1.64-3.7-1.64h-0.76  c-0.02,0-0.03-0.01-0.03-0.03v-0.68c0-0.02,0.01-0.03,0.03-0.03h0.76C29.15,24.72,30.78,25.29,31.46,26.72z"/>
<text transform="matrix(1 0 0 1 31.4902 33.5103)"><tspan x="0" y="0" class="st0 st1 st2">4</tspan><tspan x="30.24" y="0" class="st0 st1">4</tspan></text>
<path d="M66.34,27.1h-0.17c-0.01,0-0.03-0.02-0.03-0.03v-0.34c0-0.01,0-0.01,0.01-0.02c0.68-1.42,2.31-2,3.91-2h0.77  c0.02,0,0.03,0.01,0.03,0.03v0.68c0,0.02-0.01,0.03-0.03,0.03h-0.77C66.77,25.45,66.42,27.1,66.34,27.1z M75.09,26.72  c0,0.01,0.01,0.01,0.01,0.02v0.34c0,0.01-0.02,0.03-0.03,0.03H74.9c-0.02,0-0.03-0.01-0.03-0.02c-0.61-1.3-2.2-1.64-3.7-1.64h-0.76  c-0.02,0-0.03-0.01-0.03-0.03v-0.68c0-0.02,0.01-0.03,0.03-0.03h0.76C72.78,24.72,74.41,25.29,75.09,26.72z"/>
<text transform="matrix(1 0 0 1 75.1191 33.5103)"><tspan x="0" y="0" class="st0 st1 st3">8</tspan><tspan x="54.57" y="0" class="st0 st1">16</tspan></text>
<path d="M138.81,27.1h-0.17c-0.01,0-0.03-0.02-0.03-0.03v-0.34c0-0.01,0-0.01,0.01-0.02c0.68-1.42,2.31-2,3.91-2h0.77  c0.02,0,0.03,0.01,0.03,0.03v0.68c0,0.02-0.01,0.03-0.03,0.03h-0.77C139.25,25.45,138.9,27.1,138.81,27.1z M147.56,26.72  c0,0.01,0.01,0.01,0.01,0.02v0.34c0,0.01-0.02,0.03-0.03,0.03h-0.17c-0.02,0-0.03-0.01-0.03-0.02c-0.61-1.3-2.2-1.64-3.7-1.64h-0.76  c-0.02,0-0.03-0.01-0.03-0.03v-0.68c0-0.02,0.01-0.03,0.03-0.03h0.76C145.25,24.72,146.88,25.29,147.56,26.72z"/>
<text transform="matrix(1 0 0 1 147.5923 33.5103)"><tspan x="0" y="0" class="st0 st1 st4">8</tspan><tspan x="23.83" y="0" class="st0 st1">8</tspan></text>
<path d="M176.04,27.1h-0.17c-0.01,0-0.03-0.02-0.03-0.03v-0.34c0-0.01,0-0.01,0.01-0.02c0.68-1.42,2.31-2,3.91-2h0.77  c0.02,0,0.03,0.01,0.03,0.03v0.68c0,0.02-0.01,0.03-0.03,0.03h-0.77C176.47,25.45,176.12,27.1,176.04,27.1z M184.78,26.72  c0,0.01,0.01,0.01,0.01,0.02v0.34c0,0.01-0.02,0.03-0.03,0.03h-0.17c-0.02,0-0.03-0.01-0.03-0.02c-0.61-1.3-2.2-1.64-3.7-1.64h-0.76  c-0.02,0-0.03-0.01-0.03-0.03v-0.68c0-0.02,0.01-0.03,0.03-0.03h0.76C182.48,24.72,184.11,25.29,184.78,26.72z"/>
<text transform="matrix(1 0 0 1 184.8164 33.5103)"><tspan x="0" y="0" class="st0 st1">1</tspan><tspan x="4.62" y="0" class="st0 st1 st5">6</tspan><tspan x="56.64" y="0" class="st0 st1">16</tspan></text>
<path d="M250.45,27.1h-0.17c-0.01,0-0.03-0.02-0.03-0.03v-0.34c0-0.01,0-0.01,0.01-0.02c0.68-1.42,2.31-2,3.91-2h0.77  c0.02,0,0.03,0.01,0.03,0.03v0.68c0,0.02-0.01,0.03-0.03,0.03h-0.77C250.88,25.45,250.53,27.1,250.45,27.1z M259.19,26.72  c0,0.01,0.01,0.01,0.01,0.02v0.34c0,0.01-0.02,0.03-0.03,0.03h-0.17c-0.02,0-0.03-0.01-0.03-0.02c-0.61-1.3-2.2-1.64-3.7-1.64h-0.76  c-0.02,0-0.03-0.01-0.03-0.03v-0.68c0-0.02,0.01-0.03,0.03-0.03h0.76C256.89,24.72,258.52,25.29,259.19,26.72z"/>
<text transform="matrix(1 0 0 1 259.229 33.5103)"><tspan x="0" y="0" class="st0 st1 st6">8</tspan><tspan x="22.56" y="0" class="st0 st1 st7">8</tspan><tspan x="37.42" y="0" class="st0 st1">16</tspan></text>
<text transform="matrix(1 0 0 1 17.9844 45.397)" class="st8 st1">a</text>
<text transform="matrix(1 0 0 1 24.5229 45.397)" class="st0 st1">+</text>
<text transform="matrix(1 0 0 1 31.7124 45.397)" class="st8 st1">b</text>
<text transform="matrix(1 0 0 1 37.7998 45.397)" class="st0 st1">=</text>
<text transform="matrix(1 0 0 1 54.2896 39.3496)" class="st0 st1">a</text>
<line class="st9" x1="46.01" y1="43.1" x2="67.33" y2="43.1"/>
<text transform="matrix(1 0 0 1 46.0098 51.8203)" class="st0 st1">(</text>
<text transform="matrix(1 0 0 1 50.0107 51.8203)" class="st0 st1">2</text>
<text transform="matrix(1 0 0 1 54.5137 51.8203)" class="st0 st1">)</text>
<text transform="matrix(1 0 0 1 58.5142 51.8203)" class="st0 st1">1</text>
<text transform="matrix(1 0 0 1 63.0176 51.8203)" class="st8 st1">r</text>
<text transform="matrix(1 0 0 1 70.1885 45.397)" class="st0 st1">+</text>
<text transform="matrix(1 0 0 1 77.3779 45.397)" class="st8 st1">b</text>
<text transform="matrix(1 0 0 1 81.2432 45.397)" class="st0 st1">1</text>
<text transform="matrix(1 0 0 1 85.7451 45.397)"><tspan x="0" y="0" class="st8 st1">r</tspan><tspan x="2.62" y="0" class="st8 st1">.</tspan></text>
<text transform="matrix(1 0 0 1 104.0659 45.397)"><tspan x="0" y="0" class="st0 st1">Erg</tspan><tspan x="12.41" y="0" class="st0 st1 st10">o</tspan><tspan x="20.34" y="0" class="st0 st1">1</tspan></text>
<text transform="matrix(1 0 0 1 130.2305 45.397)"><tspan x="0" y="0" class="st8 st1">r</tspan><tspan x="3.12" y="0" class="st8 st1">a</tspan></text>
<text transform="matrix(1 0 0 1 141.0815 45.397)" class="st0 st1">+</text>
<text transform="matrix(1 0 0 1 148.271 45.397)" class="st0 st1">1</text>
<text transform="matrix(1 0 0 1 152.7729 45.397)"><tspan x="0" y="0" class="st8 st1">r</tspan><tspan x="3.12" y="0" class="st8 st1">b</tspan></text>
<text transform="matrix(1 0 0 1 163.1729 45.397)" class="st0 st1">=</text>
<text transform="matrix(1 0 0 1 170.3027 45.397)" class="st8 st1">a</text>
<text transform="matrix(1 0 0 1 176.8403 45.397)" class="st0 st1">+</text>
<text transform="matrix(1 0 0 1 184.0298 45.397)" class="st0 st1">1</text>
<text transform="matrix(1 0 0 1 188.5327 45.397)"><tspan x="0" y="0" class="st8 st1">r</tspan><tspan x="3.12" y="0" class="st8 st1">q</tspan><tspan x="8.17" y="0" class="st8 st1">b.</tspan></text>
<text transform="matrix(1 0 0 1 215.5615 45.397)"><tspan x="0" y="0" class="st0 st1">Erg</tspan><tspan x="12.41" y="0" class="st0 st1 st10">o</tspan><tspan x="20.35" y="0" class="st0 st1">1</tspan></text>
<text transform="matrix(1 0 0 1 241.7261 45.397)"><tspan x="0" y="0" class="st8 st1">r</tspan><tspan x="3.12" y="0" class="st8 st1">a</tspan></text>
<text transform="matrix(1 0 0 1 252.5771 45.397)" class="st0 st1">−</text>
<text transform="matrix(1 0 0 1 259.7656 45.397)" class="st8 st1">a</text>
<text transform="matrix(1 0 0 1 266.3047 45.397)" class="st0 st1">+</text>
<text transform="matrix(1 0 0 1 273.4932 45.397)" class="st0 st1">1</text>
<text transform="matrix(1 0 0 1 277.9961 45.397)"><tspan x="0" y="0" class="st8 st1">r</tspan><tspan x="3.12" y="0" class="st8 st1">b</tspan></text>
<text transform="matrix(1 0 0 1 288.3965 45.397)" class="st0 st1">=</text>
<text transform="matrix(1 0 0 1 295.5254 45.397)" class="st0 st1">1</text>
<text transform="matrix(1 0 0 1 300.0278 45.397)"><tspan x="0" y="0" class="st8 st1">r</tspan><tspan x="3.12" y="0" class="st8 st1">q</tspan><tspan x="8.17" y="0" class="st8 st1">b.</tspan></text>
<g>
	<text transform="matrix(1 0 0 1 238.9888 69.7295)" class="st0 st1">8</text>
	<text transform="matrix(1 0 0 1 54.4956 69.7295)" class="st0 st1">8</text>
</g>
<text transform="matrix(1 0 0 1 43.6069 83.8154)" class="st0 st1">16</text>
<path d="M52.84,77.41h-0.17c-0.01,0-0.03-0.02-0.03-0.03v-0.34c0-0.01,0-0.01,0.01-0.02c0.68-1.42,2.31-2,3.91-2h0.77  c0.02,0,0.03,0.01,0.03,0.03v0.68c0,0.02-0.01,0.03-0.03,0.03h-0.77C53.27,75.75,52.92,77.41,52.84,77.41z M61.58,77.02  c0,0.01,0.01,0.01,0.01,0.02v0.34c0,0.01-0.02,0.03-0.03,0.03h-0.17c-0.02,0-0.03-0.01-0.03-0.02c-0.61-1.3-2.2-1.64-3.7-1.64h-0.76  c-0.02,0-0.03-0.01-0.03-0.03v-0.68c0-0.02,0.01-0.03,0.03-0.03h0.76C59.28,75.02,60.91,75.6,61.58,77.02z"/>
<text transform="matrix(1 0 0 1 61.6147 83.8154)"><tspan x="0" y="0" class="st0 st1 st6">8</tspan><tspan x="22.55" y="0" class="st0 st1">1</tspan><tspan x="27.17" y="0" class="st0 st1 st11">6</tspan><tspan x="40.75" y="0" class="st0 st1 st12">8</tspan><tspan x="100.45" y="0" class="st0 st1 st13">8</tspan><tspan x="155.67" y="0" class="st0 st1">16</tspan></text>
<path d="M225.95,75.35h-0.17c-0.01,0-0.03-0.02-0.03-0.03v-0.34c0-0.01,0-0.01,0.01-0.02c0.68-1.42,2.31-2,3.91-2h0.77  c0.02,0,0.03,0.01,0.03,0.03v0.68c0,0.02-0.01,0.03-0.03,0.03h-0.77C226.38,73.69,226.03,75.35,225.95,75.35z M229.97,72.96h1  c0.02,0,0.03,0.01,0.03,0.03v0.68c0,0.02-0.01,0.03-0.03,0.03h-1c-0.02,0-0.03-0.01-0.03-0.03v-0.68  C229.95,72.97,229.96,72.96,229.97,72.96z M230.47,72.96h1c0.02,0,0.03,0.01,0.03,0.03v0.68c0,0.02-0.01,0.03-0.03,0.03h-1  c-0.02,0-0.03-0.01-0.03-0.03v-0.68C230.45,72.97,230.46,72.96,230.47,72.96z M230.97,72.96h1c0.02,0,0.03,0.01,0.03,0.03v0.68  c0,0.02-0.01,0.03-0.03,0.03h-1c-0.02,0-0.03-0.01-0.03-0.03v-0.68C230.95,72.97,230.95,72.96,230.97,72.96z M231.47,72.96h1  c0.02,0,0.03,0.01,0.03,0.03v0.68c0,0.02-0.01,0.03-0.03,0.03h-1c-0.02,0-0.03-0.01-0.03-0.03v-0.68  C231.45,72.97,231.45,72.96,231.47,72.96z M231.97,72.96h1c0.02,0,0.03,0.01,0.03,0.03v0.68c0,0.02-0.01,0.03-0.03,0.03h-1  c-0.02,0-0.03-0.01-0.03-0.03v-0.68C231.95,72.97,231.95,72.96,231.97,72.96z M232.47,72.96h1c0.02,0,0.03,0.01,0.03,0.03v0.68  c0,0.02-0.01,0.03-0.03,0.03h-1c-0.02,0-0.03-0.01-0.03-0.03v-0.68C232.45,72.97,232.45,72.96,232.47,72.96z M232.97,72.96h1  c0.02,0,0.03,0.01,0.03,0.03v0.68c0,0.02-0.01,0.03-0.03,0.03h-1c-0.02,0-0.03-0.01-0.03-0.03v-0.68  C232.94,72.97,232.95,72.96,232.97,72.96z M233.47,72.96h1c0.02,0,0.03,0.01,0.03,0.03v0.68c0,0.02-0.01,0.03-0.03,0.03h-1  c-0.02,0-0.03-0.01-0.03-0.03v-0.68C233.44,72.97,233.45,72.96,233.47,72.96z M233.97,72.96h1c0.02,0,0.03,0.01,0.03,0.03v0.68  c0,0.02-0.01,0.03-0.03,0.03h-1c-0.02,0-0.03-0.01-0.03-0.03v-0.68C233.94,72.97,233.95,72.96,233.97,72.96z M234.47,72.96h1  c0.02,0,0.03,0.01,0.03,0.03v0.68c0,0.02-0.01,0.03-0.03,0.03h-1c-0.02,0-0.03-0.01-0.03-0.03v-0.68  C234.44,72.97,234.45,72.96,234.47,72.96z M234.97,72.96h1c0.02,0,0.03,0.01,0.03,0.03v0.68c0,0.02-0.01,0.03-0.03,0.03h-1  c-0.02,0-0.03-0.01-0.03-0.03v-0.68C234.94,72.97,234.95,72.96,234.97,72.96z M235.47,72.96h1c0.02,0,0.03,0.01,0.03,0.03v0.68  c0,0.02-0.01,0.03-0.03,0.03h-1c-0.02,0-0.03-0.01-0.03-0.03v-0.68C235.44,72.97,235.45,72.96,235.47,72.96z M235.97,72.96h1  c0.02,0,0.03,0.01,0.03,0.03v0.68c0,0.02-0.01,0.03-0.03,0.03h-1c-0.02,0-0.03-0.01-0.03-0.03v-0.68  C235.94,72.97,235.95,72.96,235.97,72.96z M236.48,72.96h1c0.02,0,0.03,0.01,0.03,0.03v0.68c0,0.02-0.01,0.03-0.03,0.03h-1  c-0.02,0-0.03-0.01-0.03-0.03v-0.68C236.45,72.97,236.46,72.96,236.48,72.96z M236.98,72.96h1c0.02,0,0.03,0.01,0.03,0.03v0.68  c0,0.02-0.01,0.03-0.03,0.03h-1c-0.02,0-0.03-0.01-0.03-0.03v-0.68C236.95,72.97,236.96,72.96,236.98,72.96z M237.48,72.96h1  c0.02,0,0.03,0.01,0.03,0.03v0.68c0,0.02-0.01,0.03-0.03,0.03h-1c-0.02,0-0.03-0.01-0.03-0.03v-0.68  C237.45,72.97,237.46,72.96,237.48,72.96z M237.98,72.96h1c0.02,0,0.03,0.01,0.03,0.03v0.68c0,0.02-0.01,0.03-0.03,0.03h-1  c-0.02,0-0.03-0.01-0.03-0.03v-0.68C237.95,72.97,237.96,72.96,237.98,72.96z M238.48,72.96h1c0.02,0,0.03,0.01,0.03,0.03v0.68  c0,0.02-0.01,0.03-0.03,0.03h-1c-0.02,0-0.03-0.01-0.03-0.03v-0.68C238.45,72.97,238.46,72.96,238.48,72.96z M238.98,72.96h1  c0.02,0,0.03,0.01,0.03,0.03v0.68c0,0.02-0.01,0.03-0.03,0.03h-1c-0.02,0-0.03-0.01-0.03-0.03v-0.68  C238.95,72.97,238.96,72.96,238.98,72.96z M239.48,72.96h1c0.02,0,0.03,0.01,0.03,0.03v0.68c0,0.02-0.01,0.03-0.03,0.03h-1  c-0.02,0-0.03-0.01-0.03-0.03v-0.68C239.45,72.97,239.46,72.96,239.48,72.96z M239.98,72.96h1c0.02,0,0.03,0.01,0.03,0.03v0.68  c0,0.02-0.01,0.03-0.03,0.03h-1c-0.02,0-0.03-0.01-0.03-0.03v-0.68C239.95,72.97,239.96,72.96,239.98,72.96z M240.48,72.96h1  c0.02,0,0.03,0.01,0.03,0.03v0.68c0,0.02-0.01,0.03-0.03,0.03h-1c-0.02,0-0.03-0.01-0.03-0.03v-0.68  C240.45,72.97,240.46,72.96,240.48,72.96z M240.98,72.96h1c0.02,0,0.03,0.01,0.03,0.03v0.68c0,0.02-0.01,0.03-0.03,0.03h-1  c-0.02,0-0.03-0.01-0.03-0.03v-0.68C240.95,72.97,240.96,72.96,240.98,72.96z M241.97,72.96h1c0.02,0,0.03,0.01,0.03,0.03v0.68  c0,0.02-0.01,0.03-0.03,0.03h-1c-0.02,0-0.03-0.01-0.03-0.03v-0.68C241.94,72.97,241.95,72.96,241.97,72.96z M242.48,72.96h1  c0.02,0,0.03,0.01,0.03,0.03v0.68c0,0.02-0.01,0.03-0.03,0.03h-1c-0.02,0-0.03-0.01-0.03-0.03v-0.68  C242.45,72.97,242.46,72.96,242.48,72.96z M242.98,72.96h1c0.02,0,0.03,0.01,0.03,0.03v0.68c0,0.02-0.01,0.03-0.03,0.03h-1  c-0.02,0-0.03-0.01-0.03-0.03v-0.68C242.95,72.97,242.96,72.96,242.98,72.96z M243.48,72.96h1c0.02,0,0.03,0.01,0.03,0.03v0.68  c0,0.02-0.01,0.03-0.03,0.03h-1c-0.02,0-0.03-0.01-0.03-0.03v-0.68C243.45,72.97,243.46,72.96,243.48,72.96z M243.98,72.96h1  c0.02,0,0.03,0.01,0.03,0.03v0.68c0,0.02-0.01,0.03-0.03,0.03h-1c-0.02,0-0.03-0.01-0.03-0.03v-0.68  C243.95,72.97,243.96,72.96,243.98,72.96z M244.48,72.96h1c0.02,0,0.03,0.01,0.03,0.03v0.68c0,0.02-0.01,0.03-0.03,0.03h-1  c-0.02,0-0.03-0.01-0.03-0.03v-0.68C244.45,72.97,244.46,72.96,244.48,72.96z M244.98,72.96h1c0.02,0,0.03,0.01,0.03,0.03v0.68  c0,0.02-0.01,0.03-0.03,0.03h-1c-0.02,0-0.03-0.01-0.03-0.03v-0.68C244.95,72.97,244.96,72.96,244.98,72.96z M245.48,72.96h1  c0.02,0,0.03,0.01,0.03,0.03v0.68c0,0.02-0.01,0.03-0.03,0.03h-1c-0.02,0-0.03-0.01-0.03-0.03v-0.68  C245.45,72.97,245.46,72.96,245.48,72.96z M245.98,72.96h1c0.02,0,0.03,0.01,0.03,0.03v0.68c0,0.02-0.01,0.03-0.03,0.03h-1  c-0.02,0-0.03-0.01-0.03-0.03v-0.68C245.95,72.97,245.96,72.96,245.98,72.96z M246.48,72.96h1c0.02,0,0.03,0.01,0.03,0.03v0.68  c0,0.02-0.01,0.03-0.03,0.03h-1c-0.02,0-0.03-0.01-0.03-0.03v-0.68C246.45,72.97,246.46,72.96,246.48,72.96z M246.98,72.96h1  c0.02,0,0.03,0.01,0.03,0.03v0.68c0,0.02-0.01,0.03-0.03,0.03h-1c-0.02,0-0.03-0.01-0.03-0.03v-0.68  C246.95,72.97,246.96,72.96,246.98,72.96z M247.48,72.96h1c0.02,0,0.03,0.01,0.03,0.03v0.68c0,0.02-0.01,0.03-0.03,0.03h-1  c-0.02,0-0.03-0.01-0.03-0.03v-0.68C247.45,72.97,247.46,72.96,247.48,72.96z M247.98,72.96h1c0.02,0,0.03,0.01,0.03,0.03v0.68  c0,0.02-0.01,0.03-0.03,0.03h-1c-0.02,0-0.03-0.01-0.03-0.03v-0.68C247.95,72.97,247.96,72.96,247.98,72.96z M248.48,72.96h1  c0.02,0,0.03,0.01,0.03,0.03v0.68c0,0.02-0.01,0.03-0.03,0.03h-1c-0.02,0-0.03-0.01-0.03-0.03v-0.68  C248.45,72.97,248.46,72.96,248.48,72.96z M248.98,72.96h1c0.02,0,0.03,0.01,0.03,0.03v0.68c0,0.02-0.01,0.03-0.03,0.03h-1  c-0.02,0-0.03-0.01-0.03-0.03v-0.68C248.95,72.97,248.96,72.96,248.98,72.96z M249.48,72.96h1c0.02,0,0.03,0.01,0.03,0.03v0.68  c0,0.02-0.01,0.03-0.03,0.03h-1c-0.02,0-0.03-0.01-0.03-0.03v-0.68C249.45,72.97,249.46,72.96,249.48,72.96z M249.98,72.96h1  c0.02,0,0.03,0.01,0.03,0.03v0.68c0,0.02-0.01,0.03-0.03,0.03h-1c-0.02,0-0.03-0.01-0.03-0.03v-0.68  C249.95,72.97,249.96,72.96,249.98,72.96z M250.48,72.96h1c0.02,0,0.03,0.01,0.03,0.03v0.68c0,0.02-0.01,0.03-0.03,0.03h-1  c-0.02,0-0.03-0.01-0.03-0.03v-0.68C250.45,72.97,250.46,72.96,250.48,72.96z M250.98,72.96h1c0.02,0,0.03,0.01,0.03,0.03v0.68  c0,0.02-0.01,0.03-0.03,0.03h-1c-0.02,0-0.03-0.01-0.03-0.03v-0.68C250.95,72.97,250.96,72.96,250.98,72.96z M251.48,72.96h1  c0.02,0,0.03,0.01,0.03,0.03v0.68c0,0.02-0.01,0.03-0.03,0.03h-1c-0.02,0-0.03-0.01-0.03-0.03v-0.68  C251.45,72.97,251.46,72.96,251.48,72.96z M251.98,72.96h1c0.02,0,0.03,0.01,0.03,0.03v0.68c0,0.02-0.01,0.03-0.03,0.03h-1  c-0.02,0-0.03-0.01-0.03-0.03v-0.68C251.95,72.97,251.96,72.96,251.98,72.96z M252.48,72.96h1c0.02,0,0.03,0.01,0.03,0.03v0.68  c0,0.02-0.01,0.03-0.03,0.03h-1c-0.02,0-0.03-0.01-0.03-0.03v-0.68C252.45,72.97,252.46,72.96,252.48,72.96z M257.87,74.96  c0,0.01,0.01,0.01,0.01,0.02v0.34c0,0.01-0.02,0.03-0.03,0.03h-0.17c-0.02,0-0.03-0.01-0.03-0.02c-0.61-1.3-2.2-1.64-3.7-1.64h-0.76  c-0.02,0-0.03-0.01-0.03-0.03v-0.68c0-0.02,0.01-0.03,0.03-0.03h0.76C255.56,72.96,257.19,73.54,257.87,74.96z"/>
<text transform="matrix(1 0 0 1 257.8989 83.8154)" class="st0 st1">8</text>
<text transform="matrix(1 0 0 1 17.9844 95.7021)"><tspan x="0" y="0" class="st0 st1">Erg</tspan><tspan x="12.41" y="0" class="st0 st1 st10">o</tspan><tspan x="20.35" y="0" class="st0 st1">1</tspan></text>
<text transform="matrix(1 0 0 1 44.1494 95.7021)"><tspan x="0" y="0" class="st8 st1">r</tspan><tspan x="3.12" y="0" class="st8 st1">a</tspan></text>
<text transform="matrix(1 0 0 1 55 95.7021)" class="st0 st1">−</text>
<text transform="matrix(1 0 0 1 62.1895 95.7021)" class="st8 st1">a</text>
<text transform="matrix(1 0 0 1 69.1724 95.7021)" class="st0 st1">=</text>
<text transform="matrix(1 0 0 1 76.3018 95.7021)" class="st0 st1">1</text>
<text transform="matrix(1 0 0 1 80.8037 95.7021)"><tspan x="0" y="0" class="st8 st1">r</tspan><tspan x="3.12" y="0" class="st8 st1">q</tspan><tspan x="8.17" y="0" class="st8 st1">b</tspan></text>
<text transform="matrix(1 0 0 1 95.103 95.7021)" class="st0 st1">−</text>
<text transform="matrix(1 0 0 1 102.2925 95.7021)" class="st0 st1">1</text>
<text transform="matrix(1 0 0 1 106.7944 95.7021)"><tspan x="0" y="0" class="st8 st1">r</tspan><tspan x="3.12" y="0" class="st8 st1">b.</tspan></text>
<text transform="matrix(1 0 0 1 129.48 95.7021)"><tspan x="0" y="0" class="st0 st1">Erg</tspan><tspan x="12.41" y="0" class="st0 st1 st10">o</tspan><tspan x="20.34" y="0" class="st0 st1">1</tspan></text>
<text transform="matrix(1 0 0 1 155.6445 95.7021)" class="st8 st1">r</text>
<text transform="matrix(1 0 0 1 161.7358 95.7021)" class="st0 st1">−</text>
<text transform="matrix(1 0 0 1 168.9253 95.7021)" class="st0 st1">1</text>
<text transform="matrix(1 0 0 1 173.4277 95.7021)" class="st0 st1">,</text>
<text transform="matrix(1 0 0 1 184.3926 95.7021)" class="st0 st1">a</text>
<text transform="matrix(1 0 0 1 191.375 95.7021)" class="st0 st1">=</text>
<text transform="matrix(1 0 0 1 198.5034 95.7021)" class="st0 st1">1</text>
<text transform="matrix(1 0 0 1 203.0068 95.7021)" class="st8 st1">r</text>
<text transform="matrix(1 0 0 1 216.6719 95.7021)" class="st0 st1">1</text>
<text transform="matrix(1 0 0 1 221.1738 95.7021)" class="st8 st1">r</text>
<text transform="matrix(1 0 0 1 234.8384 95.7021)" class="st8 st1">b</text>
<text transform="matrix(1 0 0 1 240.4814 95.7021)" class="st0 st1">−</text>
<text transform="matrix(1 0 0 1 247.6709 95.7021)" class="st0 st1">1</text>
<text transform="matrix(1 0 0 1 252.1738 95.7021)" class="st8 st1">r</text>
<text transform="matrix(1 0 0 1 265.8389 95.7021)" class="st8 st1">b.</text>
<text transform="matrix(1 0 0 1 57.6982 122.439)"><tspan x="0" y="0" class="st0 st1 st14">8</tspan><tspan x="35.36" y="0" class="st0 st1">8</tspan></text>
<path d="M97.67,113.97H97.5c-0.01,0-0.03-0.02-0.03-0.03v-0.34c0-0.01,0-0.01,0.01-0.02c0.68-1.42,2.31-2,3.91-2h0.77  c0.02,0,0.03,0.01,0.03,0.03v0.68c0,0.02-0.01,0.03-0.03,0.03h-0.77C98.11,112.31,97.76,113.97,97.67,113.97z M101.7,111.58h1  c0.02,0,0.03,0.01,0.03,0.03v0.68c0,0.02-0.01,0.03-0.03,0.03h-1c-0.02,0-0.03-0.01-0.03-0.03v-0.68  C101.67,111.59,101.68,111.58,101.7,111.58z M102.2,111.58h1c0.02,0,0.03,0.01,0.03,0.03v0.68c0,0.02-0.01,0.03-0.03,0.03h-1  c-0.02,0-0.03-0.01-0.03-0.03v-0.68C102.17,111.59,102.18,111.58,102.2,111.58z M102.7,111.58h1c0.02,0,0.03,0.01,0.03,0.03v0.68  c0,0.02-0.01,0.03-0.03,0.03h-1c-0.02,0-0.03-0.01-0.03-0.03v-0.68C102.67,111.59,102.68,111.58,102.7,111.58z M103.2,111.58h1  c0.02,0,0.03,0.01,0.03,0.03v0.68c0,0.02-0.01,0.03-0.03,0.03h-1c-0.02,0-0.03-0.01-0.03-0.03v-0.68  C103.17,111.59,103.18,111.58,103.2,111.58z M103.7,111.58h1c0.02,0,0.03,0.01,0.03,0.03v0.68c0,0.02-0.01,0.03-0.03,0.03h-1  c-0.02,0-0.03-0.01-0.03-0.03v-0.68C103.67,111.59,103.68,111.58,103.7,111.58z M104.2,111.58h1c0.02,0,0.03,0.01,0.03,0.03v0.68  c0,0.02-0.01,0.03-0.03,0.03h-1c-0.02,0-0.03-0.01-0.03-0.03v-0.68C104.17,111.59,104.18,111.58,104.2,111.58z M104.7,111.58h1  c0.02,0,0.03,0.01,0.03,0.03v0.68c0,0.02-0.01,0.03-0.03,0.03h-1c-0.02,0-0.03-0.01-0.03-0.03v-0.68  C104.67,111.59,104.68,111.58,104.7,111.58z M105.2,111.58h1c0.02,0,0.03,0.01,0.03,0.03v0.68c0,0.02-0.01,0.03-0.03,0.03h-1  c-0.02,0-0.03-0.01-0.03-0.03v-0.68C105.17,111.59,105.18,111.58,105.2,111.58z M105.7,111.58h1c0.02,0,0.03,0.01,0.03,0.03v0.68  c0,0.02-0.01,0.03-0.03,0.03h-1c-0.02,0-0.03-0.01-0.03-0.03v-0.68C105.67,111.59,105.68,111.58,105.7,111.58z M106.2,111.58h1  c0.02,0,0.03,0.01,0.03,0.03v0.68c0,0.02-0.01,0.03-0.03,0.03h-1c-0.02,0-0.03-0.01-0.03-0.03v-0.68  C106.17,111.59,106.18,111.58,106.2,111.58z M106.7,111.58h1c0.02,0,0.03,0.01,0.03,0.03v0.68c0,0.02-0.01,0.03-0.03,0.03h-1  c-0.02,0-0.03-0.01-0.03-0.03v-0.68C106.67,111.59,106.68,111.58,106.7,111.58z M107.2,111.58h1c0.02,0,0.03,0.01,0.03,0.03v0.68  c0,0.02-0.01,0.03-0.03,0.03h-1c-0.02,0-0.03-0.01-0.03-0.03v-0.68C107.17,111.59,107.18,111.58,107.2,111.58z M107.7,111.58h1  c0.02,0,0.03,0.01,0.03,0.03v0.68c0,0.02-0.01,0.03-0.03,0.03h-1c-0.02,0-0.03-0.01-0.03-0.03v-0.68  C107.67,111.59,107.68,111.58,107.7,111.58z M108.2,111.58h1c0.02,0,0.03,0.01,0.03,0.03v0.68c0,0.02-0.01,0.03-0.03,0.03h-1  c-0.02,0-0.03-0.01-0.03-0.03v-0.68C108.17,111.59,108.18,111.58,108.2,111.58z M109.2,111.58h1c0.02,0,0.03,0.01,0.03,0.03v0.68  c0,0.02-0.01,0.03-0.03,0.03h-1c-0.02,0-0.03-0.01-0.03-0.03v-0.68C109.17,111.59,109.18,111.58,109.2,111.58z M109.7,111.58h1  c0.02,0,0.03,0.01,0.03,0.03v0.68c0,0.02-0.01,0.03-0.03,0.03h-1c-0.02,0-0.03-0.01-0.03-0.03v-0.68  C109.67,111.59,109.68,111.58,109.7,111.58z M110.2,111.58h1c0.02,0,0.03,0.01,0.03,0.03v0.68c0,0.02-0.01,0.03-0.03,0.03h-1  c-0.02,0-0.03-0.01-0.03-0.03v-0.68C110.17,111.59,110.18,111.58,110.2,111.58z M110.7,111.58h1c0.02,0,0.03,0.01,0.03,0.03v0.68  c0,0.02-0.01,0.03-0.03,0.03h-1c-0.02,0-0.03-0.01-0.03-0.03v-0.68C110.67,111.59,110.68,111.58,110.7,111.58z M111.2,111.58h1  c0.02,0,0.03,0.01,0.03,0.03v0.68c0,0.02-0.01,0.03-0.03,0.03h-1c-0.02,0-0.03-0.01-0.03-0.03v-0.68  C111.17,111.59,111.18,111.58,111.2,111.58z M111.7,111.58h1c0.02,0,0.03,0.01,0.03,0.03v0.68c0,0.02-0.01,0.03-0.03,0.03h-1  c-0.02,0-0.03-0.01-0.03-0.03v-0.68C111.67,111.59,111.68,111.58,111.7,111.58z M112.2,111.58h1c0.02,0,0.03,0.01,0.03,0.03v0.68  c0,0.02-0.01,0.03-0.03,0.03h-1c-0.02,0-0.03-0.01-0.03-0.03v-0.68C112.17,111.59,112.18,111.58,112.2,111.58z M112.7,111.58h1  c0.02,0,0.03,0.01,0.03,0.03v0.68c0,0.02-0.01,0.03-0.03,0.03h-1c-0.02,0-0.03-0.01-0.03-0.03v-0.68  C112.67,111.59,112.68,111.58,112.7,111.58z M113.2,111.58h1c0.02,0,0.03,0.01,0.03,0.03v0.68c0,0.02-0.01,0.03-0.03,0.03h-1  c-0.02,0-0.03-0.01-0.03-0.03v-0.68C113.17,111.59,113.18,111.58,113.2,111.58z M113.7,111.58h1c0.02,0,0.03,0.01,0.03,0.03v0.68  c0,0.02-0.01,0.03-0.03,0.03h-1c-0.02,0-0.03-0.01-0.03-0.03v-0.68C113.67,111.59,113.68,111.58,113.7,111.58z M114.2,111.58h1  c0.02,0,0.03,0.01,0.03,0.03v0.68c0,0.02-0.01,0.03-0.03,0.03h-1c-0.02,0-0.03-0.01-0.03-0.03v-0.68  C114.17,111.59,114.18,111.58,114.2,111.58z M114.71,111.58h1c0.02,0,0.03,0.01,0.03,0.03v0.68c0,0.02-0.01,0.03-0.03,0.03h-1  c-0.02,0-0.03-0.01-0.03-0.03v-0.68C114.68,111.59,114.69,111.58,114.71,111.58z M115.21,111.58h1c0.02,0,0.03,0.01,0.03,0.03v0.68  c0,0.02-0.01,0.03-0.03,0.03h-1c-0.02,0-0.03-0.01-0.03-0.03v-0.68C115.18,111.59,115.19,111.58,115.21,111.58z M115.71,111.58h1  c0.02,0,0.03,0.01,0.03,0.03v0.68c0,0.02-0.01,0.03-0.03,0.03h-1c-0.02,0-0.03-0.01-0.03-0.03v-0.68  C115.68,111.59,115.69,111.58,115.71,111.58z M120.93,113.58c0,0.01,0.01,0.01,0.01,0.02v0.34c0,0.01-0.02,0.03-0.03,0.03h-0.17  c-0.02,0-0.03-0.01-0.03-0.02c-0.61-1.3-2.2-1.64-3.7-1.64h-0.76c-0.02,0-0.03-0.01-0.03-0.03v-0.68c0-0.02,0.01-0.03,0.03-0.03  h0.76C118.63,111.58,120.26,112.16,120.93,113.58z"/>
<text transform="matrix(1 0 0 1 120.9673 122.439)"><tspan x="0" y="0" class="st0 st1 st15">1</tspan><tspan x="60.99" y="0" class="st0 st1">1</tspan></text>
<text transform="matrix(1 0 0 1 282.2212 118.7764)" class="st0 st16">1</text>
<line class="st9" x1="282.22" y1="120.14" x2="285.81" y2="120.14"/>
<text transform="matrix(1 0 0 1 282.2212 125.7007)" class="st0 st16">2</text>
<path d="M287.12,112.07h-0.17c-0.01,0-0.03-0.02-0.03-0.03v-0.34c0-0.01,0-0.01,0.01-0.02c0.68-1.42,2.31-2,3.91-2h0.77  c0.02,0,0.03,0.01,0.03,0.03v0.68c0,0.02-0.01,0.03-0.03,0.03h-0.77C287.55,110.42,287.2,112.07,287.12,112.07z M295.86,111.69  c0,0.01,0.01,0.01,0.01,0.02v0.34c0,0.01-0.02,0.03-0.03,0.03h-0.17c-0.02,0-0.03-0.01-0.03-0.02c-0.61-1.3-2.2-1.64-3.7-1.64h-0.76  c-0.02,0-0.03-0.01-0.03-0.03v-0.68c0-0.02,0.01-0.03,0.03-0.03h0.76C293.55,109.69,295.18,110.26,295.86,111.69z"/>
<text transform="matrix(1 0 0 1 295.894 122.438)" class="st0 st16">2</text>
<path d="M301.73,120.02c0-2.15,0.68-4.3,2.35-5.63l0.19,0.23c-1.37,1.4-1.76,3.43-1.76,5.4c0,1.96,0.39,3.99,1.76,5.39l-0.19,0.23  C302.41,124.32,301.73,122.17,301.73,120.02z"/>
<text transform="matrix(1 0 0 1 306.0649 118.7754)" class="st0 st16">2</text>
<line class="st9" x1="306.07" y1="120.14" x2="309.66" y2="120.14"/>
<text transform="matrix(1 0 0 1 306.0649 125.7007)" class="st0 st16">2</text>
<text transform="matrix(1 0 0 1 312.9585 122.438)" class="st0 st1">=</text>
<text transform="matrix(1 0 0 1 317.8657 122.438)" class="st0 st16">1</text>
<path d="M322.17,125.42c1.38-1.4,1.77-3.43,1.77-5.39c0-1.97-0.39-4-1.77-5.4l0.2-0.23c1.67,1.32,2.35,3.48,2.35,5.63  c0,2.14-0.68,4.3-2.35,5.62L322.17,125.42z"/>
<text transform="matrix(1 0 0 1 325.6235 122.438)" class="st0 st16">1</text>
<text transform="matrix(1 0 0 1 3.5894 139.0845)" class="st0 st16">5</text>
<text transform="matrix(1 0 0 1 17.9844 139.0845)"><tspan x="0" y="0" class="st0 st1">Erg</tspan><tspan x="12.41" y="0" class="st0 st1 st10">o</tspan><tspan x="20.35" y="0" class="st0 st1">1</tspan></text>
<text transform="matrix(1 0 0 1 44.1494 139.0845)" class="st8 st1">r</text>
<text transform="matrix(1 0 0 1 50.2402 139.0845)" class="st0 st1">−</text>
<text transform="matrix(1 0 0 1 57.4297 139.0845)" class="st0 st1">1</text>
<text transform="matrix(1 0 0 1 61.9316 139.0845)" class="st0 st1">,</text>
<text transform="matrix(1 0 0 1 72.8965 139.0845)" class="st8 st1">a</text>
<text transform="matrix(1 0 0 1 79.8794 139.0845)" class="st0 st1">=</text>
<text transform="matrix(1 0 0 1 87.0093 139.0845)" class="st0 st1">1</text>
<text transform="matrix(1 0 0 1 91.5112 139.0845)"><tspan x="0" y="0" class="st8 st1">r</tspan><tspan x="3.12" y="0" class="st8 st1">b</tspan></text>
<path d="M110.05,141.28V139h0.52v1.75c0.46,0.18,0.95,0.28,1.46,0.28v0.25H110.05z"/>
<text transform="matrix(1 0 0 1 112.542 139.0845)" class="st0 st1">1</text>
<text transform="matrix(1 0 0 1 117.0449 139.0845)" class="st8 st1">r</text>
<text transform="matrix(1 0 0 1 123.1348 139.0845)" class="st0 st1">−</text>
<text transform="matrix(1 0 0 1 130.3247 139.0845)" class="st0 st1">1</text>
<text transform="matrix(1 0 0 1 134.8276 139.0845)" class="st0 st1">.</text>
<text transform="matrix(1 0 0 1 149.3345 139.0845)"><tspan x="0" y="0" class="st0 st1">Erg</tspan><tspan x="12.41" y="0" class="st0 st1 st10">o</tspan><tspan x="20.35" y="0" class="st0 st1">1</tspan></text>
<text transform="matrix(1 0 0 1 175.5 139.0845)" class="st8 st1">r</text>
<text transform="matrix(1 0 0 1 181.5903 139.0845)" class="st0 st1">−</text>
<text transform="matrix(1 0 0 1 188.7798 139.0845)" class="st0 st1">1</text>
<text transform="matrix(1 0 0 1 195.5059 139.0845)" class="st0 st1">=</text>
<path d="M203.58,136.79c0-3.41,0.56-6.93,2.84-9.46l0.25,0.29c-1.79,2.66-2.06,5.96-2.06,9.17c0,3.2,0.27,6.5,2.06,9.16l-0.25,0.29  C204.14,143.7,203.58,140.19,203.58,136.79z"/>
<text transform="matrix(1 0 0 1 208.897 133.0371)" class="st8 st1">b</text>
<line class="st9" x1="208.45" y1="136.78" x2="213.21" y2="136.78"/>
<text transform="matrix(1 0 0 1 208.4497 145.5073)" class="st8 st1">a</text>
<path d="M224.65,141.28V139h0.52v1.75c0.46,0.18,0.95,0.28,1.46,0.28v0.25H224.65z M228.15,141.28V139h0.52v1.75  c0.46,0.18,0.95,0.28,1.46,0.28v0.25H228.15z"/>
<text transform="matrix(1 0 0 1 230.645 139.0845)" class="st0 st1">1</text>
<text transform="matrix(1 0 0 1 235.1475 139.0845)" class="st8 st1">r</text>
<text transform="matrix(1 0 0 1 248.8125 139.0845)" class="st0 st1">1</text>
<text transform="matrix(1 0 0 1 253.3149 139.0845)" class="st8 st1">r</text>
<text transform="matrix(1 0 0 1 259.4058 139.0845)" class="st0 st1">−</text>
<text transform="matrix(1 0 0 1 266.5952 139.0845)" class="st0 st1">1</text>
<path d="M271.8,145.95c1.79-2.66,2.06-5.96,2.06-9.16c0-3.21-0.27-6.51-2.06-9.17l0.24-0.29c2.28,2.53,2.84,6.04,2.84,9.46  c0,3.4-0.56,6.92-2.84,9.45L271.8,145.95z"/>
<text transform="matrix(1 0 0 1 278.6943 133.0371)" class="st8 st1">b</text>
<line class="st9" x1="278.25" y1="136.78" x2="283.01" y2="136.78"/>
<text transform="matrix(1 0 0 1 278.2476 145.5073)" class="st8 st1">a</text>
<text transform="matrix(1 0 0 1 293.4395 139.0845)" class="st0 st1">1</text>
<text transform="matrix(1 0 0 1 297.9419 139.0845)"><tspan x="0" y="0" class="st8 st1">r</tspan><tspan x="3.12" y="0" class="st8 st1">q</tspan></text>
<text transform="matrix(1 0 0 1 308.3765 139.0845)" class="st0 st1">−</text>
<text transform="matrix(1 0 0 1 315.5659 139.0845)" class="st0 st1">1</text>
<text transform="matrix(1 0 0 1 320.0669 139.0845)"><tspan x="0" y="0" class="st8 st1">r</tspan><tspan x="2.62" y="0" class="st8 st1">.</tspan></text>
<text transform="matrix(1 0 0 1 17.9844 168.4443)" class="st0 st1">Ergo</text>
<path d="M40.59,166.15c0-3.41,0.56-6.93,2.84-9.46l0.25,0.29c-1.79,2.66-2.06,5.96-2.06,9.17c0,3.2,0.27,6.5,2.06,9.16l-0.25,0.29  C41.15,173.06,40.59,169.55,40.59,166.15z"/>
<text transform="matrix(1 0 0 1 45.4624 162.3955)" class="st0 st1">1</text>
<line class="st9" x1="45.46" y1="166.14" x2="49.96" y2="166.14"/>
<text transform="matrix(1 0 0 1 45.4624 174.8672)" class="st0 st1">2</text>
<path d="M51.75,175.31c1.79-2.66,2.06-5.96,2.06-9.16c0-3.21-0.27-6.51-2.06-9.17l0.24-0.29c2.28,2.53,2.84,6.04,2.84,9.46  c0,3.4-0.56,6.92-2.84,9.45L51.75,175.31z"/>
<text transform="matrix(1 0 0 1 62.522 162.3955)" class="st0 st1">1</text>
<text transform="matrix(1 0 0 1 67.0249 162.3955)" class="st8 st1">r</text>
<text transform="matrix(1 0 0 1 73.1162 162.3955)" class="st0 st1">−</text>
<text transform="matrix(1 0 0 1 80.3052 162.3955)" class="st0 st1">1</text>
<line class="st9" x1="58.19" y1="166.14" x2="89.14" y2="166.14"/>
<text transform="matrix(1 0 0 1 58.1943 174.8672)" class="st0 st1">1</text>
<text transform="matrix(1 0 0 1 62.6978 174.8672)"><tspan x="0" y="0" class="st8 st1">r</tspan><tspan x="3.12" y="0" class="st8 st1">q</tspan></text>
<text transform="matrix(1 0 0 1 73.1309 174.8672)" class="st0 st1">−</text>
<text transform="matrix(1 0 0 1 80.3203 174.8672)" class="st0 st1">1</text>
<text transform="matrix(1 0 0 1 84.8223 174.8672)" class="st8 st1">r</text>
<text transform="matrix(1 0 0 1 92.4395 168.4443)" class="st0 st1">=</text>
<text transform="matrix(1 0 0 1 101.0967 162.3955)" class="st8 st1">b</text>
<line class="st9" x1="100.65" y1="166.14" x2="105.41" y2="166.14"/>
<text transform="matrix(1 0 0 1 100.6494 174.8672)" class="st8 st1">a</text>
<text transform="matrix(1 0 0 1 106.4893 168.4443)" class="st0 st1">.</text>
</svg>