<!-- Generator: Adobe Illustrator 23.0.3, SVG Export Plug-In . SVG Version: 6.00 Build 0)  -->
<svg xmlns="http://www.w3.org/2000/svg"
	xmlns:xlink="http://www.w3.org/1999/xlink" version="1.1" id="Ebene_1" x="0px" y="0px" viewBox="0 0 328.46 76.5" style="enable-background:new 0 0 328.46 76.5;" xml:space="preserve">
	<style type="text/css">
	.st0{font-family:'MyriadPro-Regular';}
	.st1{font-size:7.9701px;}
	.st2{letter-spacing:12;}
	.st3{letter-spacing:14;}
	.st4{letter-spacing:15;}
	.st5{letter-spacing:21;}
	.st6{letter-spacing:60;}
	.st7{letter-spacing:26;}
	.st8{letter-spacing:28;}
	.st9{font-family:'MyriadPro-It';}
	.st10{fill:none;stroke:#000000;stroke-width:0.398;stroke-miterlimit:10;}
	.st11{font-size:6.9738px;}
	.st12{letter-spacing:2;}
	.st13{fill:none;stroke:#000000;stroke-width:0.5;stroke-linecap:round;stroke-linejoin:round;stroke-miterlimit:10;}
	</style>
	<text transform="matrix(1 0 0 1 19.897 10.0966)">
		<tspan x="0" y="0" class="st0 st1 st2">6</tspan>
		<tspan x="16.84" y="0" class="st0 st1 st3">2</tspan>
		<tspan x="35.11" y="0" class="st0 st1 st2">6</tspan>
		<tspan x="51.95" y="0" class="st0 st1 st4">6</tspan>
		<tspan x="71.63" y="0" class="st0 st1">6</tspan>
	</text>
	<path d="M96.57,2.25H96.4c-0.02,0-0.02-0.01-0.02-0.02V1.88C96.96,0.59,98.4,0,99.84,0h0.68c0.02,0,0.02,0.02,0.02,0.02v0.66  c0,0.02-0.01,0.02-0.02,0.02h-0.68C96.95,0.71,96.66,2.25,96.57,2.25z M100.34,0h0.95c0.01,0,0.02,0.02,0.02,0.02v0.66  c0,0.02-0.02,0.02-0.02,0.02h-0.95c-0.01,0-0.02-0.01-0.02-0.02V0.02C100.31,0.02,100.33,0,100.34,0z M100.81,0h0.95  c0.01,0,0.02,0.02,0.02,0.02v0.66c0,0.02-0.02,0.02-0.02,0.02h-0.95c-0.01,0-0.02-0.01-0.02-0.02V0.02C100.78,0.02,100.8,0,100.81,0  z M101.75,0h0.95c0.01,0,0.02,0.02,0.02,0.02v0.66c0,0.02-0.02,0.02-0.02,0.02h-0.95c-0.01,0-0.02-0.01-0.02-0.02V0.02  C101.72,0.02,101.74,0,101.75,0z M102.22,0h0.95c0.01,0,0.02,0.02,0.02,0.02v0.66c0,0.02-0.02,0.02-0.02,0.02h-0.95  c-0.01,0-0.02-0.01-0.02-0.02V0.02C102.19,0.02,102.21,0,102.22,0z M102.69,0h0.95c0.01,0,0.02,0.02,0.02,0.02v0.66  c0,0.02-0.02,0.02-0.02,0.02h-0.95c-0.01,0-0.02-0.01-0.02-0.02V0.02C102.66,0.02,102.68,0,102.69,0z M107.36,1.88v0.34  c0,0.02-0.01,0.02-0.02,0.02h-0.17c-0.01,0-0.02-0.01-0.02-0.02c-0.53-1.17-1.92-1.52-3.26-1.52h-0.68c-0.02,0-0.02-0.01-0.02-0.02  V0.02c0-0.01,0.01-0.02,0.02-0.02h0.68C105.33,0,106.77,0.59,107.36,1.88z"/>
	<text transform="matrix(1 0 0 1 107.3931 10.0966)">
		<tspan x="0" y="0" class="st0 st1 st3">2</tspan>
		<tspan x="18.55" y="0" class="st0 st1">6</tspan>
	</text>
	<path d="M130.54,2.25h-0.17c-0.02,0-0.02-0.01-0.02-0.02V1.88c0.58-1.29,2.02-1.88,3.46-1.88h0.68c0.02,0,0.02,0.02,0.02,0.02v0.66  c0,0.02-0.01,0.02-0.02,0.02h-0.68C130.92,0.71,130.64,2.25,130.54,2.25z M134.31,0h0.95c0.01,0,0.02,0.02,0.02,0.02v0.66  c0,0.02-0.02,0.02-0.02,0.02h-0.95c-0.01,0-0.02-0.01-0.02-0.02V0.02C134.29,0.02,134.3,0,134.31,0z M134.78,0h0.95  c0.01,0,0.02,0.02,0.02,0.02v0.66c0,0.02-0.02,0.02-0.02,0.02h-0.95c-0.01,0-0.02-0.01-0.02-0.02V0.02  C134.76,0.02,134.77,0,134.78,0z M135.72,0h0.95c0.01,0,0.02,0.02,0.02,0.02v0.66c0,0.02-0.02,0.02-0.02,0.02h-0.95  c-0.01,0-0.02-0.01-0.02-0.02V0.02C135.7,0.02,135.71,0,135.72,0z M136.19,0h0.95c0.01,0,0.02,0.02,0.02,0.02v0.66  c0,0.02-0.02,0.02-0.02,0.02h-0.95c-0.01,0-0.02-0.01-0.02-0.02V0.02C136.17,0.02,136.18,0,136.19,0z M136.66,0h0.95  c0.01,0,0.02,0.02,0.02,0.02v0.66c0,0.02-0.02,0.02-0.02,0.02h-0.95c-0.01,0-0.02-0.01-0.02-0.02V0.02  C136.64,0.02,136.65,0,136.66,0z M141.33,1.88v0.34c0,0.02-0.01,0.02-0.02,0.02h-0.17c-0.01,0-0.02-0.01-0.02-0.02  c-0.53-1.17-1.92-1.52-3.26-1.52h-0.68c-0.02,0-0.02-0.01-0.02-0.02V0.02c0-0.01,0.01-0.02,0.02-0.02h0.68  C139.31,0,140.75,0.59,141.33,1.88z"/>
	<text transform="matrix(1 0 0 1 141.3672 10.0966)">
		<tspan x="0" y="0" class="st0 st1 st5">6</tspan>
		<tspan x="25.34" y="0" class="st0 st1">1</tspan>
		<tspan x="29.43" y="0" class="st0 st1 st6">2</tspan>
		<tspan x="94.47" y="0" class="st0 st1">1</tspan>
		<tspan x="98.56" y="0" class="st0 st1 st7">2</tspan>
		<tspan x="129.58" y="0" class="st0 st1">3</tspan>
		<tspan x="133.66" y="0" class="st0 st1 st8">6</tspan>
		<tspan x="166.1" y="0" class="st0 st1">36</tspan>
	</text>
	<text transform="matrix(1 0 0 1 19.897 23.2475)" class="st9 st1">g</text>
	<text transform="matrix(1 0 0 1 33.0249 23.2475)" class="st9 st1">AD</text>
	<text transform="matrix(1 0 0 1 48.2231 23.2475)" class="st0 st1">+</text>
	<text transform="matrix(1 0 0 1 54.9458 23.2475)" class="st9 st1">h</text>
	<text transform="matrix(1 0 0 1 68.6382 23.2475)">
		<tspan x="0" y="0" class="st9 st1">D</tspan>
		<tspan x="5.39" y="0" class="st9 st1">B</tspan>
	</text>
	<text transform="matrix(1 0 0 1 84.6909 23.2475)" class="st0 st1">=</text>
	<text transform="matrix(1 0 0 1 91.4131 23.2475)" class="st9 st1">e</text>
	<text transform="matrix(1 0 0 1 104.1528 23.2475)" class="st9 st1">AD</text>
	<text transform="matrix(1 0 0 1 119.3511 23.2475)" class="st0 st1">+</text>
	<text transform="matrix(1 0 0 1 126.0737 23.2475)" class="st9 st1">e</text>
	<text transform="matrix(1 0 0 1 138.814 23.2475)">
		<tspan x="0" y="0" class="st9 st1">D</tspan>
		<tspan x="5.4" y="0" class="st9 st1">B</tspan>
	</text>
	<text transform="matrix(1 0 0 1 154.8672 23.2475)" class="st0 st1">=</text>
	<text transform="matrix(1 0 0 1 161.5889 23.2475)" class="st9 st1">g</text>
	<text transform="matrix(1 0 0 1 174.7168 23.2475)" class="st9 st1">AD</text>
	<text transform="matrix(1 0 0 1 189.915 23.2475)" class="st0 st1">+</text>
	<text transform="matrix(1 0 0 1 196.6372 23.2475)" class="st9 st1">h</text>
	<text transform="matrix(1 0 0 1 210.3286 23.2475)">
		<tspan x="0" y="0" class="st9 st1">D</tspan>
		<tspan x="5.4" y="0" class="st9 st1">B</tspan>
	</text>
	<text transform="matrix(1 0 0 1 225.9653 23.2475)" class="st0 st1">−</text>
	<text transform="matrix(1 0 0 1 232.687 23.2475)" class="st9 st1">e</text>
	<text transform="matrix(1 0 0 1 245.4282 23.2475)" class="st9 st1">AD</text>
	<text transform="matrix(1 0 0 1 261.0444 23.2475)" class="st0 st1">=</text>
	<text transform="matrix(1 0 0 1 267.7651 23.2475)" class="st9 st1">e</text>
	<text transform="matrix(1 0 0 1 280.5063 23.2475)">
		<tspan x="0" y="0" class="st9 st1">D</tspan>
		<tspan x="5.39" y="0" class="st9 st1">B</tspan>
	</text>
	<text transform="matrix(1 0 0 1 296.1411 23.2475)" class="st0 st1">−</text>
	<text transform="matrix(1 0 0 1 302.8628 23.2475)" class="st9 st1">h</text>
	<text transform="matrix(1 0 0 1 316.5552 23.2475)">
		<tspan x="0" y="0" class="st9 st1">D</tspan>
		<tspan x="5.4" y="0" class="st9 st1">B</tspan>
		<tspan x="9.92" y="0" class="st9 st1">.</tspan>
	</text>
	<text transform="matrix(1 0 0 1 19.897 39.9668)" class="st9 st1">g</text>
	<text transform="matrix(1 0 0 1 25.8862 39.9668)" class="st0 st1">−</text>
	<text transform="matrix(1 0 0 1 32.6079 39.9668)" class="st9 st1">e,</text>
	<text transform="matrix(1 0 0 1 46.8652 39.9668)" class="st9 st1">AD</text>
	<text transform="matrix(1 0 0 1 62.4809 39.9668)" class="st0 st1">=</text>
	<text transform="matrix(1 0 0 1 69.2021 39.9668)" class="st9 st1">e</text>
	<text transform="matrix(1 0 0 1 74.8032 39.9668)" class="st0 st1">−</text>
	<text transform="matrix(1 0 0 1 81.5259 39.9668)" class="st9 st1">h</text>
	<path d="M96.17,41.93V39.9h0.5v1.52c0.42,0.17,0.88,0.25,1.35,0.25v0.25H96.17z"/>
	<text transform="matrix(1 0 0 1 98.5102 39.9668)">
		<tspan x="0" y="0" class="st9 st1">D</tspan>
		<tspan x="5.4" y="0" class="st9 st1">B</tspan>
	</text>
	<path d="M114.81,41.93h-1.85v-0.25c0.46,0,0.92-0.09,1.35-0.25V39.9h0.5V41.93z"/>
	<text transform="matrix(1 0 0 1 115.7651 39.9668)" class="st9 st1">.</text>
	<text transform="matrix(1 0 0 1 129.4092 39.9668)" class="st0 st1">Ergo</text>
	<text transform="matrix(1 0 0 1 149.7588 39.9668)" class="st9 st1">g</text>
	<text transform="matrix(1 0 0 1 155.7471 39.9668)" class="st0 st1">−</text>
	<text transform="matrix(1 0 0 1 162.4702 39.9668)" class="st9 st1">e</text>
	<text transform="matrix(1 0 0 1 168.4878 39.9668)" class="st0 st1">=</text>
	<text transform="matrix(1 0 0 1 175.21 39.9668)" class="st9 st1">e</text>
	<text transform="matrix(1 0 0 1 180.811 39.9668)" class="st0 st1">−</text>
	<text transform="matrix(1 0 0 1 187.5332 39.9668)" class="st9 st1">h</text>
	<text transform="matrix(1 0 0 1 202.4214 34.3906)">
		<tspan x="0" y="0" class="st9 st1">D</tspan>
		<tspan x="5.39" y="0" class="st9 st1">B</tspan>
	</text>
	<line class="st10" x1="202.42" y1="37.95" x2="216.38" y2="37.95"/>
	<text transform="matrix(1 0 0 1 202.6392 46.0405)" class="st9 st1">AD</text>
	<text transform="matrix(1 0 0 1 217.5786 39.9668)" class="st9 st1">.</text>
	<text transform="matrix(1 0 0 1 231.2231 39.9668)" class="st0 st1">Ergo</text>
	<text transform="matrix(1 0 0 1 253.0513 34.3906)" class="st9 st1">g</text>
	<text transform="matrix(1 0 0 1 259.0386 34.3906)" class="st0 st1">−</text>
	<text transform="matrix(1 0 0 1 265.7612 34.3906)" class="st9 st1">e</text>
	<line class="st10" x1="252.77" y1="37.95" x2="269.97" y2="37.95"/>
	<text transform="matrix(1 0 0 1 252.7681 46.0405)" class="st9 st1">e</text>
	<text transform="matrix(1 0 0 1 258.3687 46.0405)" class="st0 st1">−</text>
	<text transform="matrix(1 0 0 1 265.0923 46.0405)" class="st9 st1">h</text>
	<text transform="matrix(1 0 0 1 273.2573 39.9668)" class="st0 st1">=</text>
	<text transform="matrix(1 0 0 1 281.1753 34.3906)">
		<tspan x="0" y="0" class="st9 st1">D</tspan>
		<tspan x="5.39" y="0" class="st9 st1">B</tspan>
	</text>
	<line class="st10" x1="281.18" y1="37.95" x2="295.14" y2="37.95"/>
	<text transform="matrix(1 0 0 1 281.3931 46.0405)" class="st9 st1">AD</text>
	<text transform="matrix(1 0 0 1 296.3325 39.9668)" class="st9 st1">.</text>
	<text transform="matrix(1 0 0 1 19.897 58.0586)" class="st9 st1">g</text>
	<text transform="matrix(1 0 0 1 25.8848 58.0586)" class="st0 st1">−</text>
	<text transform="matrix(1 0 0 1 32.6079 58.0586)" class="st9 st1">e</text>
	<text transform="matrix(1 0 0 1 45.3481 58.0586)" class="st9 st1">AD</text>
	<text transform="matrix(1 0 0 1 60.9639 58.0586)" class="st0 st1">=</text>
	<text transform="matrix(1 0 0 1 67.686 58.0586)" class="st9 st1">e</text>
	<text transform="matrix(1 0 0 1 73.2871 58.0586)" class="st0 st1">−</text>
	<text transform="matrix(1 0 0 1 80.0088 58.0586)" class="st9 st1">h</text>
	<text transform="matrix(1 0 0 1 94.897 52.4824)">
		<tspan x="0" y="0" class="st9 st1">D</tspan>
		<tspan x="5.39" y="0" class="st9 st1">B</tspan>
	</text>
	<line class="st10" x1="94.9" y1="56.04" x2="108.86" y2="56.04"/>
	<text transform="matrix(1 0 0 1 95.1152 64.1328)" class="st9 st1">AD</text>
	<text transform="matrix(1 0 0 1 110.0552 58.0586)" class="st9 st1">.</text>
	<text transform="matrix(1 0 0 1 -7.629395e-06 74.5107)" class="st0 st11">15</text>
	<text transform="matrix(1 0 0 1 41.1572 74.5107)">
		<tspan x="0" y="0" class="st0 st1">Not</tspan>
		<tspan x="12.26" y="0" class="st0 st1 st12">a</tspan>
		<tspan x="18.92" y="0" class="st0 st1">s</tspan>
		<tspan x="22.08" y="0" class="st0 st1 st12">i</tspan>
		<tspan x="26.76" y="0" class="st0 st1">termi</tspan>
		<tspan x="44.51" y="0" class="st0 st1">n</tspan>
		<tspan x="48.71" y="0" class="st0 st1">u</tspan>
		<tspan x="53.1" y="0" class="st0 st1 st12">s</tspan>
		<tspan x="59.08" y="0" class="st0 st1">alicuju</tspan>
		<tspan x="80.96" y="0" class="st0 st1 st12">s</tspan>
		<tspan x="86.94" y="0" class="st0 st1">si</tspan>
		<tspan x="91.96" y="0" class="st0 st1 st12">t</tspan>
		<tspan x="97.42" y="0" class="st0 st1 st12">0</tspan>
		<tspan x="104.33" y="0" class="st0 st1">n</tspan>
		<tspan x="108.53" y="0" class="st0 st1">ull</tspan>
		<tspan x="116.68" y="0" class="st0 st1 st12">a</tspan>
		<tspan x="123.34" y="0" class="st0 st1">es</tspan>
		<tspan x="130.49" y="0" class="st0 st1 st12">t</tspan>
		<tspan x="135.95" y="0" class="st0 st1">eju</tspan>
		<tspan x="146.27" y="0" class="st0 st1 st12">s</tspan>
		<tspan x="152.26" y="0" class="st0 st1">ratio</tspan>
		<tspan x="167.58" y="0" class="st0 st1 st12">,</tspan>
		<tspan x="172.06" y="0" class="st0 st1">quar</tspan>
		<tspan x="187.38" y="0" class="st0 st1 st12">e</tspan>
		<tspan x="194.2" y="0" class="st0 st1">hi</tspan>
		<tspan x="200.49" y="0" class="st0 st1 st12">c</tspan>
		<tspan x="206.88" y="0" class="st0 st1">cessa</tspan>
		<tspan x="224.6" y="0" class="st0 st1 st12">t</tspan>
		<tspan x="230.05" y="0" class="st0 st1">Analysis.</tspan>
	</text>
	<path class="st13" d="M38.74,56.27c0,0,1.82-2.47,3.75,0"/>
	<path class="st13" d="M40.26,38.18c0,0,1.82-2.47,3.75,0"/>
	<path class="st13" d="M88.5,38.18c0,0,1.82-2.47,3.75,0"/>
	<path class="st13" d="M194.62,38.18c0,0,1.82-2.47,3.75,0"/>
	<path class="st13" d="M309.95,21.46c0,0,1.82-2.47,3.75,0"/>
	<path class="st13" d="M273.9,21.46c0,0,1.82-2.47,3.75,0"/>
	<path class="st13" d="M238.82,21.46c0,0,1.82-2.47,3.75,0"/>
	<path class="st13" d="M203.72,21.46c0,0,1.82-2.47,3.75,0"/>
	<path class="st13" d="M168.11,21.46c0,0,1.82-2.47,3.75,0"/>
	<path class="st13" d="M132.21,21.46c0,0,1.82-2.47,3.75,0"/>
	<path class="st13" d="M97.55,21.46c0,0,1.82-2.47,3.75,0"/>
	<path class="st13" d="M62.03,21.46c0,0,1.82-2.47,3.75,0"/>
	<path class="st13" d="M26.42,21.46c0,0,1.82-2.47,3.75,0"/>
	<path class="st13" d="M87.1,56.27c0,0,1.82-2.47,3.75,0"/>
	<line class="st13" x1="44.01" y1="58.33" x2="55.24" y2="52.48"/>
</svg>