<!-- Generator: Adobe Illustrator 23.0.3, SVG Export Plug-In . SVG Version: 6.00 Build 0)  --><svg xmlns="http://www.w3.org/2000/svg" xmlns:xlink="http://www.w3.org/1999/xlink" version="1.1" id="Ebene_1" x="0px" y="0px" viewBox="0 0 203.49 91.51" style="enable-background:new 0 0 203.49 91.51;" xml:space="preserve">
<style type="text/css">
	.st0{font-family:'MyriadPro-Regular';}
	.st1{font-size:9.9626px;}
	.st2{fill:none;stroke:#000000;stroke-width:0.398;stroke-miterlimit:10;}
	.st3{font-family:'MyriadPro-It';}
	.st4{stroke:#000000;stroke-width:0.5;stroke-linecap:round;stroke-linejoin:round;stroke-miterlimit:10;}
</style>
<text transform="matrix(1 0 0 1 2.7518 34.6399)" class="st0 st1">3925</text>
<text transform="matrix(1 0 0 1 7.7332 47.7908)" class="st0 st1">342</text>
<line class="st2" x1="0" y1="55.07" x2="22.68" y2="55.07"/>
<text transform="matrix(1 0 0 1 104.0389 8.3391)" class="st0 st1">1</text>
<text id="_x5B_2_x5D_..." transform="matrix(1 0 0 1 120.0264 8.3391)" class="st0 st1">[2]</text>
<text transform="matrix(1 0 0 1 89.095 21.49)" class="st0 st1">0</text>
<text transform="matrix(1 0 0 1 104.0389 21.49)" class="st0 st1">8</text>
<text transform="matrix(1 0 0 1 141.6745 21.49)" class="st0 st1">8</text>
<text transform="matrix(1 0 0 1 122.8555 21.49)" class="st0 st1">9</text>
<text transform="matrix(1 0 0 1 74.1512 34.6396)" class="st0 st1">3</text>
<text transform="matrix(1 0 0 1 89.095 34.6396)" class="st0 st1">1</text>
<text transform="matrix(1 0 0 1 104.0389 34.6396)" class="st0 st1">6</text>
<text transform="matrix(1 0 0 1 122.8555 34.6396)" class="st0 st1">8</text>
<text transform="matrix(1 0 0 1 141.6741 34.6396)" class="st0 st1">9</text>
<text transform="matrix(1 0 0 1 59.2069 47.7909)" class="st0 st1">1</text>
<text transform="matrix(1 0 0 1 74.1512 47.7909)" class="st0 st1">3</text>
<text transform="matrix(1 0 0 1 89.095 47.7909)" class="st0 st1">4</text>
<text transform="matrix(1 0 0 1 104.0389 47.7909)" class="st0 st1">2</text>
<text transform="matrix(1 0 0 1 122.8555 47.7909)" class="st0 st1">6</text>
<text transform="matrix(1 0 0 1 141.6741 47.7909)" class="st0 st1">3</text>
<text transform="matrix(1 0 0 1 156.618 47.7909)" class="st0 st1">2</text>
<text transform="matrix(1 0 0 1 156.618 34.6396)" class="st0 st1">2</text>
<text transform="matrix(1 0 0 1 171.5618 47.7908)"><tspan x="0" y="0" class="st3 st1">ƒ</tspan><tspan x="5.42" y="0" class="st3 st1">.</tspan></text>
<text transform="matrix(1 0 0 1 183.0457 47.7908)" class="st0 st1">3925</text>
<text transform="matrix(1 0 0 1 74.1512 60.9421)" class="st0 st1">3</text>
<text transform="matrix(1 0 0 1 89.095 60.9421)" class="st0 st1">4</text>
<text transform="matrix(1 0 0 1 104.0389 60.9421)" class="st0 st1">2</text>
<text transform="matrix(1 0 0 1 122.8555 60.9421)" class="st0 st1">2</text>
<text transform="matrix(1 0 0 1 141.6741 60.9421)" class="st0 st1">2</text>
<text transform="matrix(1 0 0 1 156.618 60.9421)" class="st0 st1">2</text>
<text transform="matrix(1 0 0 1 89.095 74.093)" class="st0 st1">3</text>
<text transform="matrix(1 0 0 1 104.0389 74.093)" class="st0 st1">4</text>
<text transform="matrix(1 0 0 1 122.8555 74.093)" class="st0 st1">4</text>
<text transform="matrix(1 0 0 1 141.6741 74.093)" class="st0 st1">4</text>
<text transform="matrix(1 0 0 1 104.0389 87.2429)" class="st0 st1">3</text>
<text transform="matrix(1 0 0 1 122.8555 87.2429)" class="st0 st1">3</text>
<line class="st4" x1="104.35" y1="10.13" x2="108.84" y2="0.7"/>
<line class="st4" x1="104.35" y1="23.28" x2="108.84" y2="13.85"/>
<line class="st4" x1="104.35" y1="36.43" x2="108.84" y2="27"/>
<line class="st4" x1="104.35" y1="49.58" x2="108.84" y2="40.15"/>
<line class="st4" x1="104.35" y1="62.74" x2="108.84" y2="53.3"/>
<line class="st4" x1="104.35" y1="75.89" x2="108.84" y2="66.45"/>
<line class="st4" x1="104.35" y1="89.04" x2="108.84" y2="79.6"/>
<line class="st4" x1="89.41" y1="23.28" x2="93.89" y2="13.85"/>
<line class="st4" x1="89.41" y1="36.43" x2="93.89" y2="27"/>
<line class="st4" x1="89.41" y1="49.58" x2="93.89" y2="40.15"/>
<line class="st4" x1="89.41" y1="62.74" x2="93.89" y2="53.3"/>
<line class="st4" x1="89.41" y1="75.89" x2="93.89" y2="66.45"/>
<line class="st4" x1="74.46" y1="36.43" x2="78.95" y2="27"/>
<line class="st4" x1="74.46" y1="49.58" x2="78.95" y2="40.15"/>
<line class="st4" x1="74.46" y1="62.74" x2="78.95" y2="53.3"/>
<line class="st4" x1="59.52" y1="49.58" x2="64" y2="40.15"/>
<line class="st4" x1="123.17" y1="23.28" x2="127.65" y2="13.85"/>
<line class="st4" x1="123.17" y1="36.43" x2="127.65" y2="27"/>
<line class="st4" x1="123.17" y1="49.58" x2="127.65" y2="40.15"/>
<line class="st4" x1="123.17" y1="62.74" x2="127.65" y2="53.3"/>
<line class="st4" x1="123.17" y1="75.89" x2="127.65" y2="66.45"/>
<line class="st4" x1="123.17" y1="89.04" x2="127.65" y2="79.6"/>
<line class="st4" x1="141.99" y1="36.43" x2="146.47" y2="27"/>
<line class="st4" x1="141.99" y1="49.58" x2="146.47" y2="40.15"/>
<line class="st4" x1="141.99" y1="62.74" x2="146.47" y2="53.3"/>
<line class="st4" x1="141.99" y1="75.89" x2="146.47" y2="66.45"/>
<line class="st4" x1="156.93" y1="49.58" x2="161.42" y2="40.15"/>
<line class="st4" x1="156.93" y1="62.74" x2="161.42" y2="53.3"/>
</svg>