<!-- Generator: Adobe Illustrator 23.0.3, SVG Export Plug-In . SVG Version: 6.00 Build 0)  --><svg xmlns="http://www.w3.org/2000/svg" xmlns:xlink="http://www.w3.org/1999/xlink" version="1.1" id="Ebene_1" x="0px" y="0px" viewBox="0 0 370.44 71.21" style="enable-background:new 0 0 370.44 71.21;" xml:space="preserve">
<style type="text/css">
	.st0{font-family:'MyriadPro-It';}
	.st1{font-size:9.9626px;}
	.st2{font-family:'MyriadPro-Regular';}
	.st3{fill:none;stroke:#000000;stroke-width:0.448;stroke-miterlimit:10;}
	.st4{fill:none;stroke:#000000;stroke-width:0.474;stroke-miterlimit:10;}
	.st5{letter-spacing:1;}
	.st6{fill:none;stroke:#000000;stroke-width:0.5;stroke-linecap:round;stroke-linejoin:round;stroke-miterlimit:10;}
</style>
<text id="I_x29_..." transform="matrix(1 0 0 1 0 15.0305)"><tspan x="0" y="0" class="st0 st1">I</tspan><tspan x="2.32" y="0" class="st2 st1">)</tspan></text>
<text transform="matrix(1 0 0 1 29.873 15.0305)" class="st2 st1">1</text>
<text transform="matrix(1 0 0 1 36.8213 15.4084)" class="st2 st1">+</text>
<text transform="matrix(1 0 0 1 63.0713 8.3386)" class="st0 st1">a</text>
<line class="st3" x1="45.97" y1="12.48" x2="85.44" y2="12.48"/>
<text transform="matrix(1 0 0 1 46.2495 22.7515)" class="st2 st1">√</text>
<line class="st4" x1="51.49" y1="14.41" x2="82.38" y2="14.41"/>
<text id="ab_x2B_aβ..." transform="matrix(1 0 0 1 52.0989 22.5286)"><tspan x="0" y="0" class="st0 st1">ab </tspan><tspan x="12.24" y="0" class="st2 st1">+ </tspan><tspan x="20.29" y="0" class="st0 st1">aβ</tspan></text>
<text transform="matrix(1 0 0 1 104.4829 15.0305)" class="st2 st1">1</text>
<text transform="matrix(1 0 0 1 111.4321 15.4084)" class="st2 st1">−</text>
<text transform="matrix(1 0 0 1 120.5811 8.3386)" class="st0 st1">β</text>
<line class="st3" x1="120.58" y1="12.48" x2="126.74" y2="12.48"/>
<text transform="matrix(1 0 0 1 121.2759 22.1365)" class="st0 st1">r</text>
<text id="II_x29_..." transform="matrix(1 0 0 1 0 38.1233)"><tspan x="0" y="0" class="st0 st1">I</tspan><tspan x="3.1" y="0" class="st0 st1">I</tspan><tspan x="5.42" y="0" class="st2 st1">)</tspan></text>
<text transform="matrix(1 0 0 1 32.7603 38.1233)"><tspan x="0" y="0" class="st2 st1 st5">..</tspan><tspan x="7.35" y="0" class="st2 st1 st5">.</tspan><tspan x="11.04" y="0" class="st2 st1 st5">....</tspan><tspan x="25.74" y="0" class="st2 st1 st5">.</tspan><tspan x="29.43" y="0" class="st2 st1 st5">...</tspan><tspan x="40.46" y="0" class="st2 st1">.</tspan></text>
<text transform="matrix(1 0 0 1 112.8608 38.1233)" class="st2 st1">1</text>
<text transform="matrix(1 0 0 1 119.8091 38.5024)" class="st2 st1">−</text>
<text transform="matrix(1 0 0 1 128.959 31.4324)" class="st0 st1">β</text>
<line class="st3" x1="128.96" y1="35.58" x2="135.12" y2="35.58"/>
<text transform="matrix(1 0 0 1 129.6533 45.2292)" class="st0 st1">r</text>
<text transform="matrix(1 0 0 1 154.6553 33.0706)" class="st2 st1">2</text>
<text transform="matrix(1 0 0 1 156.1797 35.3046)" class="st2 st1">.</text>
<text transform="matrix(1 0 0 1 156.1797 58.3472)" class="st2 st1">.</text>
<text transform="matrix(1 0 0 1 267.7133 58.3472)" class="st2 st1">.</text>
<text transform="matrix(1 0 0 1 169.1958 38.5024)" class="st2 st1">±</text>
<text transform="matrix(1 0 0 1 196.405 31.4324)" class="st0 st1">a</text>
<line class="st3" x1="176.78" y1="35.58" x2="221.23" y2="35.58"/>
<g>
	<g>
		<text transform="matrix(1 0 0 1 178.1632 46.138)" class="st2 st1">√</text>
		<line class="st4" x1="183.33" y1="37.86" x2="219.2" y2="37.86"/>
	</g>
	<text id="ab_x2B_2a..." transform="matrix(1 0 0 1 183.9319 45.6223)"><tspan x="0" y="0" class="st0 st1">ab </tspan><tspan x="12.24" y="0" class="st2 st1">+ 2</tspan><tspan x="25.4" y="0" class="st0 st1">aβ</tspan></text>
</g>
<text transform="matrix(1 0 0 1 232.772 38.1233)" class="st2 st1">1</text>
<text transform="matrix(1 0 0 1 239.7202 38.5024)" class="st2 st1">−</text>
<text transform="matrix(1 0 0 1 248.8696 31.4324)" class="st0 st1">β</text>
<line class="st3" x1="248.87" y1="35.58" x2="255.03" y2="35.58"/>
<text transform="matrix(1 0 0 1 249.564 45.2292)" class="st0 st1">r</text>
<text id="III_x29_..." transform="matrix(1 0 0 1 0 61.2175)"><tspan x="0" y="0" class="st0 st1">I</tspan><tspan x="3.1" y="0" class="st0 st1">I</tspan><tspan x="6.21" y="0" class="st0 st1">I</tspan><tspan x="8.53" y="0" class="st2 st1">)</tspan></text>
<text transform="matrix(1 0 0 1 31.104 61.2175)"><tspan x="0" y="0" class="st2 st1 st5">..</tspan><tspan x="7.35" y="0" class="st2 st1 st5">.</tspan><tspan x="11.04" y="0" class="st2 st1 st5">....</tspan><tspan x="25.74" y="0" class="st2 st1 st5">.</tspan><tspan x="29.43" y="0" class="st2 st1 st5">....</tspan><tspan x="44.13" y="0" class="st2 st1 st5">.</tspan><tspan x="47.82" y="0" class="st2 st1 st5">....</tspan><tspan x="62.52" y="0" class="st2 st1 st5">.</tspan><tspan x="66.21" y="0" class="st2 st1 st5">...</tspan><tspan x="77.23" y="0" class="st2 st1 st5">.</tspan><tspan x="80.92" y="0" class="st2 st1 st5">...</tspan><tspan x="91.95" y="0" class="st2 st1">.</tspan></text>
<text transform="matrix(1 0 0 1 154.6553 56.1643)" class="st2 st1">3</text>
<text transform="matrix(1 0 0 1 172.0767 61.2175)"><tspan x="0" y="0" class="st2 st1 st5">..</tspan><tspan x="7.35" y="0" class="st2 st1 st5">.</tspan><tspan x="11.04" y="0" class="st2 st1 st5">....</tspan><tspan x="25.75" y="0" class="st2 st1 st5">.</tspan><tspan x="29.43" y="0" class="st2 st1 st5">....</tspan><tspan x="44.14" y="0" class="st2 st1 st5">.</tspan><tspan x="47.82" y="0" class="st2 st1 st5">....</tspan><tspan x="62.53" y="0" class="st2 st1 st5">.</tspan><tspan x="66.22" y="0" class="st2 st1">.</tspan></text>
<text transform="matrix(1 0 0 1 266.189 56.1643)" class="st2 st1">2</text>
<text transform="matrix(1 0 0 1 280.8634 61.4065)" class="st2 st1">±</text>
<text transform="matrix(1 0 0 1 308.552 54.5261)" class="st0 st1">a</text>
<line class="st3" x1="288.93" y1="58.48" x2="333.38" y2="58.48"/>
<g>
	<g>
		<text transform="matrix(1 0 0 1 290.5339 69.136)" class="st2 st1">√</text>
		<line class="st4" x1="295.86" y1="60.95" x2="331.73" y2="60.95"/>
	</g>
	<text id="ab_x2B_3a..." transform="matrix(1 0 0 1 295.8557 68.7156)"><tspan x="0" y="0" class="st0 st1">ab </tspan><tspan x="12.24" y="0" class="st2 st1">+ 3</tspan><tspan x="25.4" y="0" class="st0 st1">aβ</tspan></text>
</g>
<text transform="matrix(1 0 0 1 344.9194 61.2175)" class="st2 st1">1</text>
<text transform="matrix(1 0 0 1 351.8677 61.4065)" class="st2 st1">−</text>
<text transform="matrix(1 0 0 1 361.0171 54.5266)" class="st0 st1">β</text>
<line class="st3" x1="361.02" y1="58.48" x2="367.18" y2="58.48"/>
<text transform="matrix(1 0 0 1 361.7124 68.3235)" class="st0 st1">r</text>
<text transform="matrix(1 0 0 1 368.3735 61.2175)" class="st0 st1">.</text>
<path class="st6" d="M97.16,13.03c0,0,1.82-2.47,3.75,0"/>
<path class="st6" d="M97.16,36.13c0,0,1.82-2.47,3.75,0"/>
<path class="st6" d="M225.6,36.13c0,0,1.82-2.47,3.75,0"/>
<path class="st6" d="M337.73,58.9c0,0,1.82-2.47,3.75,0"/>
<polyline class="st6" points="109.65,45.23 105.68,45.23 105.68,41.26 "/>
<polyline class="st6" points="137.51,45.23 141.48,45.23 141.48,41.26 "/>
</svg>