<?xml version="1.0" encoding="utf-8"?>
<!-- Generator: Adobe Illustrator 23.0.3, SVG Export Plug-In . SVG Version: 6.00 Build 0)  -->
<svg version="1.1" id="Ebene_1" xmlns="http://www.w3.org/2000/svg" xmlns:xlink="http://www.w3.org/1999/xlink" x="0px" y="0px"
	 viewBox="0 0 77.57 102.94" style="enable-background:new 0 0 77.57 102.94;" xml:space="preserve">
<style type="text/css">
	.st0{font-family:'MyriadPro-Regular';}
	.st1{font-size:9.9626px;}
	.st2{letter-spacing:36;}
	.st3{stroke:#000000;stroke-width:0.5;stroke-linecap:round;stroke-linejoin:round;stroke-miterlimit:10;}
	.st4{letter-spacing:30;}
</style>
<text transform="matrix(1 0 0 1 5.481 8.3993)" class="st0 st1">32</text>
<text transform="matrix(1 0 0 1 5.481 21.5502)" class="st0 st1">7</text>
<text transform="matrix(1 0 0 1 10.4629 21.5502)" class="st0 st1">8</text>
<text transform="matrix(1 0 0 1 1.953125e-03 34.7006)" class="st0 st1">2</text>
<text transform="matrix(1 0 0 1 4.9829 34.7006)" class="st0 st1">3</text>
<text transform="matrix(1 0 0 1 9.9648 34.7006)"><tspan x="0" y="0" class="st0 st1">6</tspan><tspan x="5.11" y="0" class="st0 st1 st2">2</tspan><tspan x="47.05" y="0" class="st0 st1">2644</tspan></text>
<text transform="matrix(1 0 0 1 1.953125e-03 47.8515)" class="st0 st1">7</text>
<text transform="matrix(1 0 0 1 4.9829 47.8515)" class="st0 st1">2</text>
<text transform="matrix(1 0 0 1 9.9648 47.8515)" class="st0 st1">2</text>
<text transform="matrix(1 0 0 1 14.9458 47.8515)" class="st0 st1">5</text>
<text transform="matrix(1 0 0 1 29.8901 47.8515)" class="st0 st1">ƒ</text>
<text transform="matrix(1 0 0 1 62.2412 47.8515)" class="st0 st1">147</text>
<text transform="matrix(1 0 0 1 1.953125e-03 61.0023)" class="st0 st1">4</text>
<text transform="matrix(1 0 0 1 4.9829 61.0023)" class="st0 st1">9</text>
<text transform="matrix(1 0 0 1 9.9648 61.0023)" class="st0 st1">9</text>
<text transform="matrix(1 0 0 1 14.9458 61.0023)" class="st0 st1">9</text>
<line class="st3" x1="45.8" y1="53.01" x2="76.19" y2="53.01"/>
<text transform="matrix(1 0 0 1 51.2822 61.0023)" class="st0 st1">18508</text>
<text transform="matrix(1 0 0 1 5.481 74.1532)" class="st0 st1">4</text>
<text transform="matrix(1 0 0 1 10.4629 74.1532)"><tspan x="0" y="0" class="st0 st1 st4">4</tspan><tspan x="35.46" y="0" class="st0 st1">10576</tspan></text>
<text transform="matrix(1 0 0 1 45.8032 87.3036)" class="st0 st1">2644</text>
<line class="st3" x1="45.8" y1="92.47" x2="75.69" y2="92.47"/>
<text transform="matrix(1 0 0 1 45.8032 100.4545)" class="st0 st1">388668</text>
<line class="st3" x1="5.48" y1="9.68" x2="9.96" y2="0.25"/>
<line class="st3" x1="5.48" y1="22.25" x2="9.96" y2="12.82"/>
<line class="st3" x1="10.46" y1="22.25" x2="14.95" y2="12.82"/>
<line class="st3" x1="0.25" y1="35.99" x2="4.73" y2="26.56"/>
<line class="st3" x1="5.23" y1="35.99" x2="9.72" y2="26.56"/>
<line class="st3" x1="10.21" y1="35.99" x2="14.7" y2="26.56"/>
<line class="st3" x1="15.19" y1="35.99" x2="19.68" y2="26.56"/>
<line class="st3" x1="0.25" y1="48.45" x2="4.73" y2="39.02"/>
<line class="st3" x1="5.23" y1="48.45" x2="9.72" y2="39.02"/>
<line class="st3" x1="10.21" y1="48.45" x2="14.7" y2="39.02"/>
<line class="st3" x1="15.19" y1="48.45" x2="19.68" y2="39.02"/>
<line class="st3" x1="0.25" y1="62.33" x2="4.73" y2="52.89"/>
<line class="st3" x1="5.23" y1="62.33" x2="9.72" y2="52.89"/>
<line class="st3" x1="10.21" y1="62.33" x2="14.7" y2="52.89"/>
<line class="st3" x1="15.19" y1="62.33" x2="19.68" y2="52.89"/>
<line class="st3" x1="5.73" y1="75.34" x2="10.21" y2="65.91"/>
<line class="st3" x1="10.71" y1="75.34" x2="15.2" y2="65.91"/>
</svg>
