<?xml version="1.0" encoding="utf-8"?>
<!-- Generator: Adobe Illustrator 23.0.3, SVG Export Plug-In . SVG Version: 6.00 Build 0)  -->
<svg version="1.1" id="Ebene_1" xmlns="http://www.w3.org/2000/svg" xmlns:xlink="http://www.w3.org/1999/xlink" x="0px" y="0px"
	 viewBox="0 0 126.63 54.6" style="enable-background:new 0 0 126.63 54.6;" xml:space="preserve">
<style type="text/css">
	.st0{font-family:'MyriadPro-It';}
	.st1{font-size:8px;}
	.st2{font-family:'MyriadPro-Regular';}
	.st3{letter-spacing:2;}
	.st4{fill:none;stroke:#000000;stroke-width:0.5;stroke-linecap:round;stroke-linejoin:round;stroke-miterlimit:10;}
</style>
<text transform="matrix(1 0 0 1 0.1681 12.4089)" class="st0 st1">z</text>
<text transform="matrix(0.7 0 0 0.7 3.4879 9.7449)" class="st2 st1">4</text>
<text transform="matrix(1 0 0 1 6.3609 12.4089)" class="st2 st1">−8</text>
<text transform="matrix(1 0 0 1 15.2325 12.4089)" class="st0 st1">a</text>
<text transform="matrix(1 0 0 1 19.4083 12.4089)" class="st0 st1 st3">x</text>
<text transform="matrix(1 0 0 1 25.336 12.4089)" class="st0 st1">z</text>
<text transform="matrix(0.7 0 0 0.7 28.6564 9.7449)" class="st2 st1">2</text>
<text id="_x2B_4aβ...." transform="matrix(1 0 0 1 10.1867 23.7254)"><tspan x="0" y="0" class="st2 st1">+4</tspan><tspan x="8.87" y="0" class="st0 st1">a</tspan><tspan x="13.05" y="0" class="st0 st1">β</tspan><tspan x="17.74" y="0" class="st2 st1">..</tspan></text>
<text transform="matrix(1 0 0 1 43.1631 13.2937)" class="st2 st1">+64</text>
<text transform="matrix(1 0 0 1 56.1387 13.2937)" class="st0 st1">a</text>
<text transform="matrix(0.7 0 0 0.7 60.3145 10.6296)" class="st2 st1">2</text>
<text transform="matrix(1 0 0 1 63.1875 13.2937)" class="st0 st1">x</text>
<text transform="matrix(0.7 0 0 0.7 66.7153 10.6296)" class="st2 st1">2</text>
<text transform="matrix(1 0 0 1 43.1631 26.4431)" class="st2 st1">−64</text>
<text transform="matrix(1 0 0 1 56.1387 26.4431)" class="st0 st1">a</text>
<text transform="matrix(0.7 0 0 0.7 60.3145 23.7791)" class="st2 st1">2</text>
<text transform="matrix(1 0 0 1 63.1875 26.4431)" class="st0 st1">β</text>
<text transform="matrix(1 0 0 1 67.875 26.4431)" class="st0 st1">x</text>
<text transform="matrix(1 0 0 1 44.3579 38.6931)" class="st2 st1">+16</text>
<text transform="matrix(1 0 0 1 57.3335 38.6931)" class="st0 st1">a</text>
<text transform="matrix(0.7 0 0 0.7 61.5093 36.0291)" class="st2 st1">2</text>
<text transform="matrix(1 0 0 1 64.3823 38.6931)" class="st0 st1">β</text>
<text transform="matrix(0.7 0 0 0.7 68.646 36.0291)" class="st2 st1">2</text>
<line class="st4" x1="44.36" y1="42.84" x2="80.67" y2="42.84"/>
<text transform="matrix(1 0 0 1 60.0249 52.491)" class="st2 st1">4</text>
<text transform="matrix(1 0 0 1 100.2939 9.3601)" class="st2 st1">+8</text>
<text transform="matrix(1 0 0 1 109.166 9.3601)" class="st0 st1">a</text>
<text transform="matrix(0.7 0 0 0.7 113.3417 6.696)" class="st2 st1">2</text>
<text transform="matrix(1 0 0 1 116.2148 9.3601)" class="st0 st1">x</text>
<text transform="matrix(0.7 0 0 0.7 119.7421 6.696)" class="st2 st1">2</text>
<text id="_x2B_8a2x..._1_" transform="matrix(1 0 0 1 83.0426 13.2936)" class="st2 st1">Π</text>
<text transform="matrix(1 0 0 1 99.1503 22.5105)" class="st2 st1">−8</text>
<text transform="matrix(1 0 0 1 108.0224 22.5105)" class="st0 st1">a</text>
<text transform="matrix(0.7 0 0 0.7 112.1982 19.8464)" class="st2 st1">2</text>
<text transform="matrix(1 0 0 1 115.0712 22.5105)" class="st2 st1">β</text>
<text transform="matrix(1 0 0 1 119.9745 22.5105)" class="st0 st1">x</text>
<text transform="matrix(1 0 0 1 99.9259 38.6439)" class="st2 st1">+4</text>
<text transform="matrix(1 0 0 1 108.798 38.6439)" class="st0 st1">a</text>
<text transform="matrix(0.7 0 0 0.7 112.9738 35.9798)" class="st2 st1">2</text>
<text transform="matrix(1 0 0 1 115.8468 38.6439)" class="st0 st1">β</text>
<text transform="matrix(0.7 0 0 0.7 120.1105 35.9798)" class="st2 st1">2</text>
<text transform="matrix(1 0 0 1 99.926 51.596)" class="st2 st1">−4</text>
<text transform="matrix(1 0 0 1 108.7981 51.596)" class="st0 st1">a</text>
<text transform="matrix(0.7 0 0 0.7 112.9739 48.9319)" class="st2 st1">2</text>
<text transform="matrix(1 0 0 1 115.8469 51.596)" class="st0 st1">β</text>
<text transform="matrix(0.7 0 0 0.7 120.1106 48.9319)" class="st2 st1">2</text>
<path d="M37.51,12.65c0.1-0.33,0.3-0.63,0.6-0.89s0.68-0.44,1.17-0.56v-0.22c-0.83,0.11-1.43,0.38-1.82,0.83s-0.58,1.11-0.58,1.99
	v7.58h0v2.05c0,0.87-0.15,1.51-0.44,1.91s-0.79,0.7-1.48,0.89v0.37c0.69,0.19,1.19,0.48,1.48,0.88s0.44,1.04,0.44,1.91v2.06h0v7.58
	c0,0.89,0.19,1.55,0.58,1.99c0.38,0.44,0.99,0.72,1.82,0.82v-0.22c-0.36-0.08-0.67-0.21-0.93-0.37c-0.26-0.17-0.46-0.37-0.62-0.6
	s-0.25-0.52-0.3-0.87c-0.05-0.35-0.08-0.76-0.08-1.25v-7.08h0v-2.16c0-0.47-0.04-0.86-0.12-1.18s-0.2-0.59-0.37-0.82
	s-0.38-0.4-0.65-0.54s-0.61-0.25-1.03-0.34c0.42-0.1,0.76-0.21,1-0.33s0.45-0.29,0.62-0.49s0.31-0.48,0.4-0.83s0.15-0.76,0.15-1.24
	v-2.14h0V14.3C37.35,13.54,37.4,12.99,37.51,12.65z"/>
<path class="st4" d="M118.49,54.35h-14.08c-4.35,0-7.88-3.53-7.88-7.88V36.41c0-4.35,3.53-7.88,7.88-7.88h14.08
	c4.35,0,7.88,3.53,7.88,7.88v10.06C126.38,50.82,122.85,54.35,118.49,54.35z"/>
</svg>
