<!-- Generator: Adobe Illustrator 23.0.3, SVG Export Plug-In . SVG Version: 6.00 Build 0)  --><svg xmlns="http://www.w3.org/2000/svg" xmlns:xlink="http://www.w3.org/1999/xlink" version="1.1" id="Ebene_1" x="0px" y="0px" viewBox="0 0 22.88 69.46" style="enable-background:new 0 0 22.88 69.46;" xml:space="preserve">
<style type="text/css">
	.st0{font-family:'MyriadPro-Regular';}
	.st1{font-size:9.9626px;}
	.st2{letter-spacing:3;}
	.st3{fill:none;stroke:#000000;stroke-width:0.5;stroke-linecap:round;stroke-linejoin:round;stroke-miterlimit:10;}
	.st4{letter-spacing:4;}
</style>
<text transform="matrix(1 0 0 1 3.3209 8.3387)" class="st0 st1">1</text>
<text transform="matrix(1 0 0 1 6.8057 37.2024)" class="st0 st1">.</text>
<text transform="matrix(1 0 0 1 15.6693 37.2024)" class="st0 st1">.</text>
<text transform="matrix(1 0 0 1 3.3209 21.4891)"><tspan x="0" y="0" class="st0 st1 st2">5</tspan><tspan x="8.43" y="0" class="st0 st1">4</tspan></text>
<text transform="matrix(1 0 0 1 6.103516e-05 34.6395)" class="st0 st1">2</text>
<text transform="matrix(1 0 0 1 4.981 34.6395)" class="st0 st1">1</text>
<text transform="matrix(1 0 0 1 9.962 34.6395)" class="st0 st1">87</text>
<line class="st3" x1="0" y1="42.83" x2="22.88" y2="42.83"/>
<text transform="matrix(1 0 0 1 4.796 50.8182)"><tspan x="0" y="0" class="st0 st1 st4">4</tspan><tspan x="9.9" y="0" class="st0 st1">8</tspan></text>
<line class="st3" x1="0" y1="55.43" x2="19.92" y2="55.43"/>
<text transform="matrix(1 0 0 1 6.103516e-05 65.1952)" class="st0 st1">1</text>
<text transform="matrix(1 0 0 1 4.981 65.1952)" class="st0 st1">6</text>
<text transform="matrix(1 0 0 1 9.962 65.1952)" class="st0 st1">88</text>
<line class="st3" x1="8.65" y1="1.06" x2="4.18" y2="10.15"/>
<line class="st3" x1="7.79" y1="13.54" x2="3.32" y2="22.63"/>
<line class="st3" x1="16.6" y1="13.54" x2="12.13" y2="22.63"/>
<line class="st3" x1="4.8" y1="27.38" x2="0.33" y2="36.47"/>
<line class="st3" x1="14.37" y1="27.38" x2="9.9" y2="36.47"/>
<line class="st3" x1="9.45" y1="57.34" x2="4.98" y2="66.44"/>
<line class="st3" x1="15.11" y1="57.34" x2="10.64" y2="66.44"/>
<line class="st3" x1="9.58" y1="27.38" x2="4.18" y2="42.83"/>
</svg>