<?xml version="1.0" encoding="utf-8"?>
<!-- Generator: Adobe Illustrator 23.0.3, SVG Export Plug-In . SVG Version: 6.00 Build 0)  -->
<svg version="1.1" id="Ebene_1" xmlns="http://www.w3.org/2000/svg" xmlns:xlink="http://www.w3.org/1999/xlink" x="0px" y="0px"
	 viewBox="0 0 168.62 77.13" style="enable-background:new 0 0 168.62 77.13;" xml:space="preserve">
<style type="text/css">
	.st0{font-family:'MyriadPro-Regular';}
	.st1{font-size:9.9626px;}
	.st2{fill:none;stroke:#000000;stroke-width:0.5;stroke-linecap:round;stroke-linejoin:round;stroke-miterlimit:10;}
</style>
<text transform="matrix(1 0 0 1 6.6412 8.3387)" class="st0 st1">243</text>
<text transform="matrix(1 0 0 1 9.962 21.4896)" class="st0 st1">27</text>
<line class="st2" x1="0" y1="23.06" x2="19.93" y2="23.06"/>
<text transform="matrix(1 0 0 1 8.392334e-05 34.6395)" class="st0 st1">1701</text>
<text transform="matrix(1 0 0 1 8.392334e-05 47.7903)" class="st0 st1">486</text>
<line class="st2" x1="0" y1="49.36" x2="21.59" y2="49.36"/>
<text transform="matrix(1 0 0 1 1.1954 60.2894)" class="st0 st1">6561</text>
<line class="st2" x1="1.2" y1="64.44" x2="21.12" y2="64.44"/>
<text transform="matrix(1 0 0 1 2.856 74.0862)" class="st0 st1">32</text>
<path d="M24.2,51.77V77.1c0,0.02-0.01,0.03-0.02,0.03h-0.65c-0.02,0-0.03-0.01-0.03-0.03V51.77c0-0.02,0.01-0.03,0.03-0.03h0.65
	C24.19,51.74,24.2,51.75,24.2,51.77z"/>
<text transform="matrix(1 0 0 1 146.3883 14.4627)" class="st0 st1">2187</text>
<text transform="matrix(1 0 0 1 156.3512 27.6136)" class="st0 st1">27</text>
<line class="st2" x1="143.07" y1="29.18" x2="166.31" y2="29.18"/>
<text transform="matrix(1 0 0 1 143.0675 40.7635)" class="st0 st1">15309</text>
<text transform="matrix(1 0 0 1 143.0675 53.9144)" class="st0 st1">4374</text>
<line class="st2" x1="143.07" y1="55.48" x2="166.31" y2="55.48"/>
<text transform="matrix(1 0 0 1 143.0675 67.0657)" class="st0 st1">59049</text>
</svg>
