<!-- Generator: Adobe Illustrator 23.0.3, SVG Export Plug-In . SVG Version: 6.00 Build 0)  -->
<svg xmlns="http://www.w3.org/2000/svg"
	xmlns:xlink="http://www.w3.org/1999/xlink" version="1.1" id="Ebene_1" x="0px" y="0px" viewBox="0 0 167.49 244.63" style="enable-background:new 0 0 167.49 244.63;" xml:space="preserve">
	<style type="text/css">
	.st0{font-family:'MyriadPro-Regular';}
	.st1{font-size:9.9626px;}
	.st2{letter-spacing:16;}
	.st3{fill:none;stroke:#000000;stroke-width:0.5;stroke-linecap:round;stroke-linejoin:round;stroke-miterlimit:10;}
	.st4{font-family:'MyriadPro-It';}
	.st5{letter-spacing:3;}
	.st6{letter-spacing:18;}
	.st7{letter-spacing:20;}
	.st8{letter-spacing:35;}
	.st9{letter-spacing:-4;}
	</style>
	<text transform="matrix(1 0 0 1 63.7803 8.3386)">
		<tspan x="0" y="0" class="st0 st1 st2">4</tspan>
		<tspan x="22.11" y="0" class="st0 st1">4</tspan>
	</text>
	<line class="st3" x1="63.78" y1="9.91" x2="90.75" y2="9.91"/>
	<text transform="matrix(1 0 0 1 63.7803 21.4895)" class="st0 st1">1</text>
	<text transform="matrix(1 0 0 1 85.7676 34.6409)" class="st0 st1">7</text>
	<text transform="matrix(1 0 0 1 63.7803 34.6409)" class="st0 st1">1</text>
	<text transform="matrix(1 0 0 1 107.7549 47.7917)" class="st0 st1">7</text>
	<text transform="matrix(1 0 0 1 85.7676 47.7917)" class="st0 st1">2</text>
	<text transform="matrix(1 0 0 1 63.7803 47.7917)" class="st0 st1">1</text>
	<text transform="matrix(1 0 0 1 63.7803 60.9417)">
		<tspan x="0" y="0" class="st0 st1 st2">16</tspan>
		<tspan x="44.21" y="0" class="st0 st1">6</tspan>
	</text>
	<line class="st3" x1="63.78" y1="62.51" x2="112.74" y2="62.51"/>
	<text transform="matrix(1 0 0 1 63.7803 74.0925)" class="st0 st1">9</text>
	<text transform="matrix(1 0 0 1 70.2373 74.0925)" class="st0 st1">[</text>
	<text transform="matrix(1 0 0 1 74.1104 74.0925)" class="st4 st1">!</text>
	<text transform="matrix(1 0 0 1 78.4023 74.0925)" class="st0 st1">]</text>
	<text transform="matrix(1 0 0 1 63.7803 87.2439)" class="st0 st1">3</text>
	<line class="st3" x1="59.53" y1="88.81" x2="87.47" y2="88.81"/>
	<text transform="matrix(1 0 0 1 59.5283 100.3943)" class="st0 st1">12</text>
	<text transform="matrix(1 0 0 1 75.271 100.3943)" class="st0 st1">:</text>
	<text transform="matrix(1 0 0 1 83.249 100.3943)" class="st0 st1">2</text>
	<line class="st3" x1="0" y1="101.96" x2="88.23" y2="101.96"/>
	<text transform="matrix(1 0 0 1 39.6851 113.5447)" class="st0 st1">4</text>
	<text transform="matrix(1 0 0 1 47.9873 113.5447)" class="st0 st1">,</text>
	<text transform="matrix(1 0 0 1 59.3174 113.5447)" class="st0 st1">10</text>
	<text transform="matrix(1 0 0 1 63.7803 126.696)" class="st0 st1">8</text>
	<line class="st3" x1="0" y1="128.26" x2="68.76" y2="128.26"/>
	<text transform="matrix(1 0 0 1 59.5283 139.8464)" class="st0 st1">18</text>
	<text transform="matrix(1 0 0 1 0 152.9978)">
		<tspan x="0" y="0" class="st0 st1 st5">2</tspan>
		<tspan x="8.42" y="0" class="st0 st1">sauciss</tspan>
		<tspan x="37.34" y="0" class="st0 st1">e</tspan>
		<tspan x="42.34" y="0" class="st0 st1 st6">s</tspan>
		<tspan x="64.71" y="0" class="st0 st1">4</tspan>
	</text>
	<text transform="matrix(1 0 0 1 0 166.1472)">
		<tspan x="0" y="0" class="st0 st1 st5">2</tspan>
		<tspan x="8.42" y="0" class="st0 st1">p</tspan>
		<tspan x="14.37" y="0" class="st0 st1">oulet</tspan>
		<tspan x="35.96" y="0" class="st0 st1 st7">s</tspan>
		<tspan x="60.6" y="0" class="st0 st1">24</tspan>
	</text>
	<text transform="matrix(1 0 0 1 0 179.2986)">
		<tspan x="0" y="0" class="st0 st1 st5">4</tspan>
		<tspan x="8.42" y="0" class="st0 st1">pain</tspan>
		<tspan x="26.75" y="0" class="st0 st1 st8">.</tspan>
		<tspan x="64.25" y="0" class="st0 st1">4</tspan>
	</text>
	<text transform="matrix(1 0 0 1 0 192.45)">
		<tspan x="0" y="0" class="st0 st1 st5">3</tspan>
		<tspan x="8.42" y="0" class="st0 st1">c</tspan>
		<tspan x="12.62" y="0" class="st0 st1">hopin.</tspan>
	</text>
	<text transform="matrix(1 0 0 1 60.834 192.45)" class="st0 st1">14</text>
	<line class="st3" x1="0" y1="195.95" x2="70.8" y2="195.95"/>
	<text transform="matrix(1 0 0 1 116.1514 192.45)" class="st0 st1">1</text>
	<text transform="matrix(1 0 0 1 60.6621 205.6003)" class="st0 st1">54</text>
	<text transform="matrix(1 0 0 1 115.979 205.6003)" class="st0 st1">54</text>
	<text transform="matrix(1 0 0 1 132.583 205.6003)" class="st0 st1">ƒ</text>
	<text transform="matrix(1 0 0 1 145.1753 205.6003)" class="st0 st1">2</text>
	<text transform="matrix(1 0 0 1 152.6152 205.6003)" class="st0 st1">:</text>
	<text transform="matrix(1 0 0 1 157.2729 205.6003)" class="st0 st1">14</text>
	<text transform="matrix(1 0 0 1 115.6543 218.7507)" class="st0 st1">2</text>
	<text transform="matrix(1 0 0 1 120.6353 218.7507)" class="st0 st1">0</text>
	<text transform="matrix(1 0 0 1 69.4492 240.406)" class="st0 st1">1</text>
	<text transform="matrix(1 0 0 1 77.751 240.406)" class="st0 st1">[</text>
	<text transform="matrix(1 0 0 1 81.3481 240.406)">
		<tspan x="0" y="0" class="st0 st1 st9">´</tspan>
		<tspan x="-1.71" y="0" class="st0 st1">ecu</tspan>
	</text>
	<text transform="matrix(1 0 0 1 96.0151 240.406)" class="st0 st1">]</text>
	<text transform="matrix(1 0 0 1 120.2173 240.406)" class="st0 st1">2</text>
	<text transform="matrix(1 0 0 1 125.1992 240.406)" class="st0 st1">.</text>
	<text transform="matrix(1 0 0 1 137.8872 240.406)" class="st0 st1">sols</text>
	<line class="st3" x1="69.45" y1="244.41" x2="153.5" y2="244.41"/>
	<line class="st3" x1="71.84" y1="185.69" x2="60.83" y2="192.45"/>
	<line class="st3" x1="71.84" y1="198.84" x2="60.83" y2="205.6"/>
	<line class="st3" x1="121.2" y1="197.77" x2="116.15" y2="207.11"/>
	<line class="st3" x1="125.68" y1="210.83" x2="120.64" y2="220.17"/>
	<line class="st3" x1="120.7" y1="210.83" x2="115.65" y2="220.17"/>
</svg>