<?xml version="1.0" encoding="utf-8"?>
<!-- Generator: Adobe Illustrator 23.0.3, SVG Export Plug-In . SVG Version: 6.00 Build 0)  -->
<svg version="1.1" id="Ebene_1" xmlns="http://www.w3.org/2000/svg" xmlns:xlink="http://www.w3.org/1999/xlink" x="0px" y="0px"
	 viewBox="0 0 321.33 181.79" style="enable-background:new 0 0 321.33 181.79;" xml:space="preserve">
<style type="text/css">
	.st0{font-family:'MyriadPro-Regular';}
	.st1{font-size:9.9626px;}
	.st2{fill:none;stroke:#000000;stroke-width:0.5;stroke-linecap:round;stroke-linejoin:round;stroke-miterlimit:10;}
	.st3{letter-spacing:23;}
	.st4{letter-spacing:19;}
	.st5{letter-spacing:16;}
	.st6{letter-spacing:25;}
	.st7{letter-spacing:3;}
	.st8{font-family:'MyriadPro-It';}
</style>
<text transform="matrix(1 0 0 1 21.8267 8.3391)" class="st0 st1">4</text>
<text transform="matrix(1 0 0 1 17.0078 21.489)" class="st0 st1">14</text>
<text transform="matrix(1 0 0 1 21.8267 34.6404)" class="st0 st1">8</text>
<text transform="matrix(1 0 0 1 17.0078 47.7913)" class="st0 st1">20</text>
<line class="st2" x1="17.01" y1="49.36" x2="26.97" y2="49.36"/>
<text transform="matrix(1 0 0 1 21.8267 60.9421)" class="st0 st1">4</text>
<line class="st2" x1="16.77" y1="71.53" x2="27.21" y2="71.53"/>
<text transform="matrix(1 0 0 1 17.0078 74.0925)" class="st0 st1">14</text>
<text transform="matrix(1 0 0 1 21.8267 87.2434)" class="st0 st1">4</text>
<line class="st2" x1="16.77" y1="97.84" x2="27.21" y2="97.84"/>
<text transform="matrix(1 0 0 1 17.0078 100.3943)" class="st0 st1">27</text>
<line class="st2" x1="21.59" y1="110.99" x2="27.05" y2="110.99"/>
<text transform="matrix(1 0 0 1 21.8267 113.5452)" class="st0 st1">3</text>
<text transform="matrix(1 0 0 1 0 126.6951)" class="st0 st1">22</text>
<text transform="matrix(1 0 0 1 126.2837 8.3391)"><tspan x="0" y="0" class="st0 st1 st3">3</tspan><tspan x="28.34" y="0" class="st0 st1">2</tspan></text>
<text transform="matrix(1 0 0 1 154.6304 21.4895)" class="st0 st1">4</text>
<text transform="matrix(1 0 0 1 126.2837 34.6404)"><tspan x="0" y="0" class="st0 st1 st4">4</tspan><tspan x="24.95" y="0" class="st0 st1">14</tspan></text>
<line class="st2" x1="151.11" y1="36.21" x2="161.07" y2="36.21"/>
<text transform="matrix(1 0 0 1 126.2837 47.7913)"><tspan x="0" y="0" class="st0 st1 st3">1</tspan><tspan x="28.64" y="0" class="st0 st1">8</tspan></text>
<text transform="matrix(1 0 0 1 126.2837 60.9421)" class="st0 st1">2</text>
<line class="st2" x1="151.72" y1="58.38" x2="162.16" y2="58.38"/>
<text transform="matrix(1 0 0 1 151.959 60.9421)" class="st0 st1">18</text>
<text transform="matrix(1 0 0 1 134.7876 74.092)" class="st0 st1">1</text>
<line class="st2" x1="151.72" y1="71.53" x2="162.16" y2="71.53"/>
<text transform="matrix(1 0 0 1 151.959 74.0925)" class="st0 st1">14</text>
<text transform="matrix(1 0 0 1 134.7876 87.2434)" class="st0 st1">1</text>
<line class="st2" x1="151.72" y1="84.69" x2="162.16" y2="84.69"/>
<text transform="matrix(1 0 0 1 151.959 87.2434)" class="st0 st1">26</text>
<text transform="matrix(1 0 0 1 134.7876 100.3943)" class="st0 st1">1</text>
<line class="st2" x1="151.72" y1="97.84" x2="162.16" y2="97.84"/>
<text transform="matrix(1 0 0 1 151.959 100.3943)" class="st0 st1">22</text>
<text transform="matrix(1 0 0 1 126.2837 113.5452)" class="st0 st1">4</text>
<text transform="matrix(1 0 0 1 134.9507 113.5452)"><tspan x="0" y="0" class="st0 st1 st5">1</tspan><tspan x="22.11" y="0" class="st0 st1">4</tspan></text>
<line class="st2" x1="126.28" y1="115.11" x2="174.68" y2="115.11"/>
<text transform="matrix(1 0 0 1 126.2837 126.6951)" class="st0 st1">9</text>
<text transform="matrix(1 0 0 1 134.5869 126.6951)"><tspan x="0" y="0" class="st0 st1 st6">1</tspan><tspan x="30.63" y="0" class="st0 st1">13</tspan></text>
<text transform="matrix(1 0 0 1 126.2837 139.8464)" class="st0 st1">1</text>
<text transform="matrix(1 0 0 1 134.5869 139.8464)" class="st0 st1">1</text>
<text transform="matrix(1 0 0 1 126.2837 152.9973)" class="st0 st1">1</text>
<text transform="matrix(1 0 0 1 126.2837 166.1482)" class="st0 st1">1</text>
<text transform="matrix(1 0 0 1 265.8521 8.3391)"><tspan x="0" y="0" class="st0 st1 st7">4—</tspan><tspan x="21.71" y="0" class="st0 st1">10</tspan></text>
<text transform="matrix(1 0 0 1 252.5679 21.4895)"><tspan x="0" y="0" class="st0 st1 st7">4—</tspan><tspan x="21.71" y="0" class="st0 st1">1</tspan><tspan x="26.82" y="0" class="st0 st1 st7">0—</tspan><tspan x="48.53" y="0" class="st0 st1">7</tspan></text>
<text transform="matrix(1 0 0 1 295.0874 34.6404)" class="st0 st1">10</text>
<text transform="matrix(1 0 0 1 275.2456 47.7913)"><tspan x="0" y="0" class="st0 st1 st7">3</tspan><tspan x="8.43" y="0" class="st0 st1">2</tspan></text>
<text transform="matrix(1 0 0 1 275.2456 60.9421)" class="st0 st1">7</text>
<text transform="matrix(1 0 0 1 280.2271 60.9421)" class="st0 st1">0</text>
<g>
	<text transform="matrix(1 0 0 1 288.5288 60.9421)" class="st0 st1">ƒ</text>
</g>
<text transform="matrix(1 0 0 1 297.7993 60.9421)" class="st0 st1">17</text>
<text transform="matrix(1 0 0 1 275.2456 74.0925)" class="st0 st1">4</text>
<text transform="matrix(1 0 0 1 280.2271 74.0925)"><tspan x="0" y="0" class="st0 st1 st5">4</tspan><tspan x="22.11" y="0" class="st0 st1">4</tspan></text>
<line class="st2" x1="275.25" y1="75.66" x2="307.2" y2="75.66"/>
<text transform="matrix(1 0 0 1 298.895 87.2434)" class="st0 st1">22</text>
<g>
	<text transform="matrix(1 0 0 1 310.3325 87.2434)" class="st0 st1">[</text>
</g>
<g>
	<text transform="matrix(1 0 0 1 314.2065 87.2434)" class="st8 st1">!</text>
</g>
<g>
	<text transform="matrix(1 0 0 1 318.4985 87.2434)" class="st0 st1">]</text>
</g>
<text transform="matrix(1 0 0 1 252.5679 113.5452)" class="st0 st1">12</text>
<text transform="matrix(1 0 0 1 258.2378 126.6951)" class="st0 st1">7</text>
<text transform="matrix(1 0 0 1 297.9224 152.9973)" class="st0 st1">12</text>
<text transform="matrix(1 0 0 1 303.0249 166.1482)" class="st0 st1">7</text>
<line class="st2" x1="297.36" y1="167.72" x2="308.01" y2="167.72"/>
<text transform="matrix(1 0 0 1 298.4897 179.2981)" class="st0 st1">84</text>
<line class="st2" x1="27.21" y1="41.34" x2="15.46" y2="48.77"/>
<line class="st2" x1="26.97" y1="79.65" x2="21.99" y2="87.93"/>
<line class="st2" x1="130.79" y1="53.8" x2="125.81" y2="62.08"/>
<line class="st2" x1="139.77" y1="66.35" x2="134.79" y2="74.64"/>
<line class="st2" x1="139.77" y1="79.55" x2="134.79" y2="87.84"/>
<line class="st2" x1="139.77" y1="92.75" x2="134.79" y2="101.03"/>
<line class="st2" x1="280.71" y1="40.65" x2="275.73" y2="48.94"/>
<line class="st2" x1="280.23" y1="52.66" x2="275.25" y2="60.94"/>
<line class="st2" x1="285.7" y1="52.66" x2="280.71" y2="60.94"/>
<line class="st2" x1="280.23" y1="66.71" x2="275.25" y2="74.99"/>
<line class="st2" x1="285.7" y1="66.71" x2="280.71" y2="74.99"/>
<line class="st2" x1="139.77" y1="105.94" x2="134.79" y2="114.23"/>
<line class="st2" x1="139.77" y1="119.14" x2="134.79" y2="127.42"/>
<line class="st2" x1="139.77" y1="132.33" x2="134.79" y2="140.62"/>
</svg>
