<!-- Generator: Adobe Illustrator 23.0.3, SVG Export Plug-In . SVG Version: 6.00 Build 0)  --><svg xmlns="http://www.w3.org/2000/svg" xmlns:xlink="http://www.w3.org/1999/xlink" version="1.1" id="Ebene_1" x="0px" y="0px" viewBox="0 0 168.31 104.12" style="enable-background:new 0 0 168.31 104.12;" xml:space="preserve">
<style type="text/css">
	.st0{font-family:'MyriadPro-Regular';}
	.st1{font-size:9.9626px;}
	.st2{fill:none;stroke:#000000;stroke-width:0.5;stroke-linecap:round;stroke-linejoin:round;stroke-miterlimit:10;}
</style>
<text transform="matrix(1 0 0 1 20.8462 10.458)" class="st0 st1">24</text>
<text transform="matrix(1 0 0 1 25.2729 23.6089)" class="st0 st1">30</text>
<line class="st2" x1="0" y1="28.75" x2="45.75" y2="28.75"/>
<text transform="matrix(1 0 0 1 20.8471 38.1538)" class="st0 st1">7200</text>
<text transform="matrix(1 0 0 1 25.2729 51.3052)" class="st0 st1">6</text>
<line class="st2" x1="0" y1="56.44" x2="44.83" y2="56.44"/>
<text transform="matrix(1 0 0 1 14.9438 65.8501)" class="st0 st1">43200</text>
<text transform="matrix(1 0 0 1 118.1259 8.3389)" class="st0 st1">100</text>
<text transform="matrix(1 0 0 1 144.874 18.541)" class="st0 st1">365</text>
<text transform="matrix(1 0 0 1 149.3012 31.6909)" class="st0 st1">720</text>
<line class="st2" x1="118.13" y1="36.83" x2="168.31" y2="36.83"/>
<text transform="matrix(1 0 0 1 143.3979 46.2368)" class="st0 st1">7300</text>
<text transform="matrix(1 0 0 1 133.0688 59.3882)" class="st0 st1">2255</text>
<line class="st2" x1="118.13" y1="64.53" x2="167.94" y2="64.53"/>
<text transform="matrix(1 0 0 1 133.0688 73.9331)" class="st0 st1">262800</text>
<text transform="matrix(1 0 0 1 147.8252 87.0835)" class="st0 st1">2</text>
<line class="st2" x1="118.13" y1="92.22" x2="167.94" y2="92.22"/>
<text transform="matrix(1 0 0 1 133.0688 101.6284)" class="st0 st1">525600</text>
</svg>